v 0.000447564513 0.00415094525 -0.112130785
v -0.00285409086 0.000113434194 -0.11213145
v -0.00960033532 -0.00221756584 -0.112131694
v -0.0100132745 0.00115479942 -0.112131046
v -0.0147181827 -0.000215821641 -0.112131168
v -0.0200136778 -0.00412277892 -0.112131752
v -0.0221405717 -0.000669210524 -0.112131039
v -0.0204971853 0.00784094268 -0.112129482
v -0.00191407615 0.00136283052 -0.11088088
v -0.00853228065 0.000571478553 -0.110116582
v -0.0120358224 0.00234565179 -0.110567594
v -0.0166418164 0.000309361964 -0.109456989
v -0.0208182818 -0.000111581505 -0.109006366
v -0.0218782226 0.00123229464 -0.109456663
v -0.000842491792 0.00335759125 -0.110445551
v -0.0073361463 0.00409478312 -0.109771085
v -0.013783056 0.00509461664 -0.109545419
v -0.0179481477 0.00433275807 -0.107073312
v -0.021334642 0.00554036187 -0.108085061
v -0.0212072499 0.00544937711 -0.107972436
v -0.000494441518 0.00533586493 -0.110445188
v -0.00684870404 0.00686332625 -0.109770577
v -0.0132488624 0.00812658349 -0.109544863
v -0.0169031411 0.0102649807 -0.107072224
v -0.0204982876 0.0102871804 -0.10808419
v -0.0203475214 0.0103279067 -0.107971541
v -0.000376891435 0.00723189035 -0.110983798
v -0.00495059397 0.00946063282 -0.110428684
v -0.0109736214 0.00918864269 -0.110948462
v -0.0147588623 0.0118117177 -0.110183603
v -0.0184166025 0.0135241839 -0.109766387
v -0.019904354 0.013252792 -0.109975222
v -0.000411735711 0.00826150461 -0.112129985
v -0.003246453 0.0109602475 -0.112129394
v -0.00905248861 0.00824379038 -0.112129738
v -0.0133825058 0.00900655089 -0.112129468
v -0.0167816824 0.014225 -0.112128386
v -0.0199763348 0.0132479889 -0.112128478
v -0.00102949244 0.00761437474 -0.113379584
v -0.00527591937 0.0112992082 -0.114525149
v -0.00847635686 0.00865914409 -0.113276058
v -0.0129078581 0.0100631479 -0.113518285
v -0.0163824065 0.0148573074 -0.115148904
v -0.0198888947 0.0133393977 -0.11431638
v -0.00185589392 0.00578088276 -0.114153692
v -0.00787333202 0.00840513263 -0.116737798
v -0.00823355957 0.00717511149 -0.114602959
v -0.012899015 0.0084743377 -0.115388496
v -0.016787449 0.0109265245 -0.118309765
v -0.0203356446 0.0103962179 -0.116399126
v -0.00227406951 0.00340747349 -0.114154128
v -0.00882570413 0.00299802309 -0.11673879
v -0.00874437263 0.0042748557 -0.114603491
v -0.0135726003 0.00465036637 -0.115389198
v -0.0180653562 0.00367458564 -0.118311095
v -0.0212187502 0.00538511055 -0.116400046
v -0.00265759187 0.0012280394 -0.113485588
v -0.00946454427 -0.0010429256 -0.114840162
v -0.00950653864 0.0019904687 -0.113659413
v -0.0143034142 0.00132181217 -0.114249487
v -0.0193624755 -0.00205709689 -0.115916261
v -0.0218930953 0.00114665731 -0.114839389
v -0.00439517984 -0.0207192267 -0.112135333
v -0.00548504032 -0.0220520637 -0.112135553
v -0.0077109765 -0.0228209732 -0.112135633
v -0.00784717726 -0.021708405 -0.11213542
v -0.0093998821 -0.0221600769 -0.11213546
v -0.0111474286 -0.0234496858 -0.112135652
v -0.0118494642 -0.0223103371 -0.112135417
v -0.0113074363 -0.0195019263 -0.112134903
v -0.00517488656 -0.0216396417 -0.111723029
v -0.00735842179 -0.0219008232 -0.111470863
v -0.00851442795 -0.021315207 -0.111618891
v -0.0100350301 -0.0219870352 -0.11125331
v -0.0114127426 -0.0221250367 -0.111104258
v -0.0117628779 -0.0216831436 -0.111253202
v -0.00482144406 -0.0209802101 -0.111579076
v -0.00696346389 -0.0207379416 -0.111356277
v -0.00909163965 -0.0204089932 -0.111281634
v -0.0104658498 -0.0206588986 -0.11046713
v -0.0115837053 -0.020261273 -0.110799759
v -0.0115412392 -0.0202907354 -0.110763373
v -0.00470629343 -0.0203285839 -0.111578956
v -0.00680329513 -0.0198246254 -0.11135611
v -0.00891501459 -0.0194072919 -0.11128145
v -0.0101212633 -0.0187014208 -0.110466771
v -0.0113075147 -0.0186937311 -0.110799472
v -0.0112572625 -0.0186807333 -0.110763077
v -0.00466739532 -0.01970293 -0.111757339
v -0.00617694108 -0.0189666571 -0.111573458
v -0.00816469156 -0.0190578955 -0.111744985
v -0.00941343414 -0.0181916218 -0.1114935
v -0.0106205537 -0.0176259964 -0.111355584
v -0.0111109812 -0.0177161714 -0.111424041
v -0.00467872096 -0.0193640582 -0.11213507
v -0.00561467116 -0.0184725637 -0.112134874
v -0.00753037443 -0.019368804 -0.112134988
v -0.00895927229 -0.0191168588 -0.112134899
v -0.0100807767 -0.0173952821 -0.112134542
v -0.0111352631 -0.0177169069 -0.112134572
v -0.00488232903 -0.0195763031 -0.112547558
v -0.00628364928 -0.0183598665 -0.11292595
v -0.00733977418 -0.0192317979 -0.112513629
v -0.00880250183 -0.0187684161 -0.112593217
v -0.00994912835 -0.017185382 -0.11313185
v -0.0111066949 -0.0176873057 -0.112856363
v -0.00515519315 -0.0201811129 -0.112803283
v -0.00714137173 -0.0193156045 -0.1136557
v -0.00725999786 -0.019722144 -0.112951307
v -0.00879984204 -0.0192925332 -0.113210265
v -0.0100824084 -0.0184832243 -0.114174492
v -0.0112538794 -0.0186585464 -0.113543678
v -0.00529372105 -0.0209644502 -0.112803426
v -0.00745565314 -0.0211006438 -0.113656027
v -0.00742883067 -0.0206787865 -0.112951483
v -0.00902235043 -0.0205550588 -0.113210497
v -0.0105040543 -0.0208774303 -0.114174931
v -0.0115447835 -0.0203118738 -0.113543981
v -0.00542012099 -0.0216845736 -0.1125826
v -0.00766599602 -0.0224334724 -0.113028925
v -0.00767999706 -0.021432738 -0.112639677
v -0.00926307106 -0.0216530218 -0.112833769
v -0.0109326709 -0.022768348 -0.113384159
v -0.0117672573 -0.021710537 -0.11302867
v -0.0223050219 -0.0318615688 -0.112136915
v -0.0233948889 -0.0331944058 -0.112137135
v -0.0256208218 -0.0339633161 -0.112137215
v -0.025757891 -0.0328498813 -0.112137001
v -0.0273105957 -0.0333024192 -0.112137041
v -0.0290581422 -0.0345920272 -0.112137234
v -0.0297593097 -0.0334518125 -0.112136999
v -0.029217285 -0.0306434009 -0.112136485
v -0.0230847288 -0.0327811179 -0.111724611
v -0.0252691354 -0.0330431654 -0.111472445
v -0.0264251383 -0.0324575492 -0.111620473
v -0.0279448754 -0.0331293773 -0.111254891
v -0.0293234561 -0.0332682448 -0.111105839
v -0.0296727233 -0.0328246182 -0.111254784
v -0.0227312892 -0.032123419 -0.111580658
v -0.0248741775 -0.0318802839 -0.111357859
v -0.0270014851 -0.0315504686 -0.111283216
v -0.0283765633 -0.0318021075 -0.110468712
v -0.0294935507 -0.0314027484 -0.110801341
v -0.0294510878 -0.0314330775 -0.110764954
v -0.0226161387 -0.0314709261 -0.111580538
v -0.0247131404 -0.0309669675 -0.111357691
v -0.0268248631 -0.0305496332 -0.111283032
v -0.0280311119 -0.0298437621 -0.110468352
v -0.0292173632 -0.029836074 -0.110801053
v -0.0291679729 -0.0298230763 -0.110764659
v -0.0225772406 -0.0308452721 -0.111758921
v -0.0240867896 -0.0301089993 -0.11157504
v -0.0260745371 -0.030198505 -0.111746566
v -0.0273232828 -0.029333098 -0.111495081
v -0.028530399 -0.0287683393 -0.111357166
v -0.0290216949 -0.0288576461 -0.111425622
v -0.0225885665 -0.0305046677 -0.112136651
v -0.0235245166 -0.0296140399 -0.112136456
v -0.025440223 -0.0305111461 -0.112136569
v -0.0268691208 -0.0302592018 -0.112136481
v -0.0279906222 -0.0285367575 -0.112136123
v -0.0290459766 -0.0288601158 -0.112136154
v -0.0227930427 -0.0307186453 -0.11254914
v -0.0241943628 -0.0295030746 -0.112927531
v -0.025250491 -0.0303741393 -0.11251521
v -0.0267123471 -0.0299107574 -0.112594799
v -0.0278589735 -0.02832859 -0.113133432
v -0.0290165402 -0.0288296487 -0.112857945
v -0.02306591 -0.0313234551 -0.112804864
v -0.0250512138 -0.0304579467 -0.113657282
v -0.0251698465 -0.0308636186 -0.112952889
v -0.0267096906 -0.0304348745 -0.113211847
v -0.0279931253 -0.0296255665 -0.114176074
v -0.0291637248 -0.0298000218 -0.113545259
v -0.0232035696 -0.0321067923 -0.112805008
v -0.0253654955 -0.0322412525 -0.113657609
v -0.0253386761 -0.0318202619 -0.112953064
v -0.026932199 -0.0316974001 -0.113212079
v -0.0284147649 -0.0320180383 -0.114176513
v -0.0294554971 -0.0314542168 -0.113545563
v -0.0233299696 -0.032826049 -0.112584182
v -0.025576713 -0.0335749488 -0.113030507
v -0.0255907108 -0.0325742143 -0.112641258
v -0.0271729164 -0.0327953648 -0.11283535
v -0.0288425194 -0.033910691 -0.113385741
v -0.0296779709 -0.0328528792 -0.113030252
v -0.036481885 -0.0436610459 -0.112138729
v -0.037571752 -0.0449938812 -0.112138948
v -0.0397976833 -0.0457627932 -0.112139029
v -0.0399347508 -0.0446502219 -0.112138815
v -0.0414865904 -0.0451027628 -0.112138855
v -0.0432341386 -0.0463915025 -0.112139048
v -0.0439361695 -0.045251288 -0.112138812
v -0.0433941463 -0.0424437431 -0.112138299
v -0.0372615919 -0.044580595 -0.111726424
v -0.0394459969 -0.0448426409 -0.111474259
v -0.0406019998 -0.0442570263 -0.111622286
v -0.0421217353 -0.0449288528 -0.111256705
v -0.0435003158 -0.045068587 -0.111107653
v -0.0438495847 -0.0446249604 -0.111256598
v -0.0369081491 -0.0439228944 -0.111582471
v -0.0390510374 -0.043679761 -0.111359672
v -0.0411783448 -0.0433508107 -0.11128503
v -0.0425525565 -0.0436015829 -0.110470525
v -0.0436704119 -0.0432039573 -0.110803155
v -0.0436279475 -0.0432334197 -0.110766768
v -0.0367929986 -0.0432704015 -0.111582352
v -0.0388900003 -0.0427664446 -0.111359505
v -0.0410017229 -0.0423499753 -0.111284846
v -0.0422079732 -0.0416441043 -0.110470166
v -0.0433942245 -0.0416372829 -0.110802867
v -0.0433448344 -0.0416225534 -0.110766473
v -0.0367541037 -0.0426447492 -0.111760734
v -0.0382636494 -0.0419093414 -0.111576853
v -0.0402513967 -0.0419997123 -0.11174838
v -0.0415001442 -0.0411334401 -0.111496895
v -0.0427072588 -0.0405686815 -0.11135898
v -0.0431985547 -0.0406579899 -0.111427436
v -0.0367654263 -0.0423050099 -0.112138465
v -0.0377013763 -0.0414143804 -0.11213827
v -0.0396170845 -0.0423106232 -0.112138383
v -0.0410459822 -0.0420595423 -0.112138294
v -0.0421674852 -0.0403371013 -0.112137937
v -0.0432219714 -0.0406595928 -0.112137967
v -0.0369699024 -0.0425189891 -0.112550954
v -0.0383712225 -0.0413034184 -0.112929345
v -0.0394264842 -0.0421736163 -0.112517024
v -0.0408892085 -0.0417110996 -0.112596613
v -0.0420358351 -0.0401271987 -0.113135245
v -0.0431934017 -0.0406291225 -0.112859759
v -0.0372427698 -0.0431237989 -0.112806678
v -0.0392280752 -0.0422582904 -0.113659095
v -0.0393467079 -0.0426639608 -0.112954703
v -0.0408865503 -0.0422352183 -0.113213661
v -0.0421699852 -0.0414250436 -0.114177887
v -0.0433405862 -0.0416003656 -0.113547073
v -0.0373804293 -0.0439071344 -0.112806822
v -0.0395423584 -0.0440415962 -0.113659423
v -0.0395155373 -0.0436214724 -0.112954878
v -0.0411090588 -0.0434968772 -0.113213892
v -0.042590758 -0.0438183803 -0.114178326
v -0.043632357 -0.0432536907 -0.113547376
v -0.0375068294 -0.0446263928 -0.112585996
v -0.0397535728 -0.0453752909 -0.113032321
v -0.0397675706 -0.0443745565 -0.112643072
v -0.0413497762 -0.0445948418 -0.112837164
v -0.0430193809 -0.0457101664 -0.113387555
v -0.0438548308 -0.0446523547 -0.113032065
v -0.0492163009 -0.0535167495 -0.112140218
v -0.050306168 -0.0548487197 -0.112140437
v -0.0525320993 -0.0556176285 -0.112140518
v -0.0526683018 -0.0545041952 -0.112140304
v -0.0542210074 -0.054956733 -0.112140344
v -0.0559685546 -0.0562463411 -0.112140537
v -0.0566705863 -0.0551069916 -0.112140301
v -0.0561285632 -0.0522985816 -0.112139788
v -0.0499960078 -0.0544362986 -0.111727913
v -0.0521795479 -0.0546974792 -0.111475747
v -0.05333555 -0.0541118615 -0.111623775
v -0.0548561529 -0.0547836913 -0.111258194
v -0.0562338662 -0.054921692 -0.111109142
v -0.0565840017 -0.0544789338 -0.111258087
v -0.0496425669 -0.0537768646 -0.11158396
v -0.0517854534 -0.0535345962 -0.111361161
v -0.0539127618 -0.0532047809 -0.111286518
v -0.0552869742 -0.0534555531 -0.110472014
v -0.056404829 -0.0530570624 -0.110804643
v -0.0563623646 -0.0530865248 -0.110768257
v -0.0495274163 -0.05312524 -0.111583841
v -0.0516244164 -0.0526212799 -0.111360994
v -0.0537361407 -0.0522039455 -0.111286335
v -0.0549423894 -0.0514980777 -0.110471655
v -0.0561286415 -0.0514912531 -0.110804356
v -0.0560783853 -0.0514773886 -0.110767962
v -0.0494885198 -0.0524995845 -0.111762223
v -0.0509980672 -0.0517633116 -0.111578342
v -0.0529858138 -0.0518528174 -0.111749869
v -0.054234561 -0.0509882754 -0.111498384
v -0.0554416766 -0.0504226517 -0.111360469
v -0.0559321058 -0.05051196 -0.111428925
v -0.0494998441 -0.0521589801 -0.112139954
v -0.0504357956 -0.0512692189 -0.112139759
v -0.0523515006 -0.0521645934 -0.112139872
v -0.0537795326 -0.0519126473 -0.112139783
v -0.0549019021 -0.0501910715 -0.112139426
v -0.0559563875 -0.0505135629 -0.112139456
v -0.0497034535 -0.0523729592 -0.112552443
v -0.0511047736 -0.0511573885 -0.112930834
v -0.0521609019 -0.0520284516 -0.112518513
v -0.0536236256 -0.0515642047 -0.112598101
v -0.0547702528 -0.0499820372 -0.113136734
v -0.0559278186 -0.050483961 -0.112861248
v -0.0499763207 -0.0529786341 -0.112808167
v -0.051962493 -0.0521122606 -0.113660584
v -0.0520811242 -0.0525170658 -0.112956191
v -0.0536209681 -0.0520891885 -0.11321515
v -0.0549035361 -0.0512798788 -0.114179376
v -0.056075003 -0.0514552009 -0.113548562
v -0.0501148471 -0.0537611046 -0.112808311
v -0.0522767745 -0.0538964315 -0.113660911
v -0.0522499536 -0.0534745743 -0.112956367
v -0.0538434765 -0.0533517124 -0.113215381
v -0.0553251758 -0.0536723538 -0.114179815
v -0.0563667746 -0.0531093943 -0.113548866
v -0.0502412472 -0.054480363 -0.112587485
v -0.0524879905 -0.0552292611 -0.113033809
v -0.0525011215 -0.0542293949 -0.112644561
v -0.0540841939 -0.0544496771 -0.112838653
v -0.0557537978 -0.0555650049 -0.113389044
v -0.0565892484 -0.0545071932 -0.113033554
v -0.0129885668 -0.0187223178 -0.112134708
v -0.0136579378 -0.021711846 -0.112135252
v -0.0150485874 -0.0223064678 -0.112135324
v -0.0178466903 -0.0211422946 -0.112135023
v -0.0214375793 -0.020426218 -0.112134784
v -0.0249217994 -0.0203158104 -0.112134662
v -0.0273132568 -0.0209027784 -0.112134704
v -0.0284702631 -0.0193553736 -0.112134378
v -0.0278260559 -0.0161084975 -0.112133785
v -0.0132724138 -0.0209486656 -0.110739185
v -0.0145686249 -0.021400379 -0.110322445
v -0.0176889776 -0.0208506024 -0.110322251
v -0.0211152195 -0.0202133493 -0.110342827
v -0.024673977 -0.0199253591 -0.110133843
v -0.026644391 -0.0199525492 -0.109905034
v -0.0281635477 -0.0188357502 -0.110426414
v -0.0127743624 -0.0195397789 -0.110112453
v -0.0139285152 -0.0195955299 -0.109437425
v -0.0172914491 -0.0192105254 -0.10889829
v -0.0205504466 -0.0186365066 -0.108898088
v -0.0241733583 -0.018103317 -0.1086284
v -0.0257643038 -0.0177959268 -0.108695883
v -0.0276655076 -0.0172267956 -0.109302272
v -0.0125076991 -0.0180285617 -0.110112175
v -0.0135744078 -0.017582595 -0.109437055
v -0.0168654809 -0.0167946567 -0.108897847
v -0.0201244752 -0.0162206379 -0.108897645
v -0.0237127608 -0.0154838152 -0.10862792
v -0.0253114944 -0.0152284158 -0.108695412
v -0.0272932189 -0.0151124772 -0.109301884
v -0.0123571064 -0.0169651763 -0.110988013
v -0.0134602722 -0.016126637 -0.110591831
v -0.0162287196 -0.0164189586 -0.111071848
v -0.0202147296 -0.0157168035 -0.1110716
v -0.0236297907 -0.0144028972 -0.11063367
v -0.0253334499 -0.0135245777 -0.110279056
v -0.0272925714 -0.0138930424 -0.110716652
v -0.012352841 -0.016735337 -0.112134351
v -0.0135400865 -0.0157702258 -0.112134135
v -0.015926984 -0.0179532896 -0.112134478
v -0.0206408749 -0.0171221307 -0.112134184
v -0.0238645512 -0.0151270438 -0.112133715
v -0.02561688 -0.0133067773 -0.112133321
v -0.0275230868 -0.0139785924 -0.112133392
v -0.0128251118 -0.016781102 -0.11334225
v -0.0139629968 -0.0157309683 -0.113863653
v -0.0166160435 -0.0167921276 -0.112926221
v -0.0206479712 -0.0161497755 -0.112884391
v -0.0238958462 -0.0146952868 -0.113425587
v -0.0257963047 -0.0133073043 -0.114070814
v -0.02744255 -0.0139341298 -0.113508524
v -0.0134662068 -0.0177826796 -0.114359694
v -0.01464304 -0.0171587656 -0.11543747
v -0.0175484147 -0.0170103255 -0.114494604
v -0.0208853872 -0.0164753366 -0.114359232
v -0.0241730304 -0.0156611865 -0.114965534
v -0.0262657613 -0.0149551249 -0.115842241
v -0.0275793253 -0.0151140759 -0.114831025
v -0.0137588466 -0.0194429393 -0.114359998
v -0.0150776647 -0.0196257593 -0.115437923
v -0.0178583675 -0.0187728353 -0.114494927
v -0.0211780236 -0.0181364629 -0.114359537
v -0.0245461875 -0.0177755046 -0.114965922
v -0.0267532002 -0.017724536 -0.115842749
v -0.0279342978 -0.0171270113 -0.114831394
v -0.0137759323 -0.0209611977 -0.113594296
v -0.0151752586 -0.0215981771 -0.114135073
v -0.0179248317 -0.0203673627 -0.113676381
v -0.0213744782 -0.0196573427 -0.113614626
v -0.0248240436 -0.019559002 -0.113926448
v -0.0271531538 -0.0199976908 -0.114447231
v -0.028290166 -0.0187450161 -0.113801418
v -0.0307319724 -0.0303481431 -0.112136385
v -0.0312749183 -0.032769229 -0.112136826
v -0.032402169 -0.033251167 -0.112136884
v -0.0346682058 -0.0323070087 -0.112136641
v -0.0375762721 -0.0317268728 -0.112136447
v -0.0403984806 -0.0316380315 -0.112136348
v -0.0423341776 -0.032113156 -0.112136382
v -0.0432719137 -0.0308594624 -0.112136118
v -0.0427506608 -0.0282304208 -0.112135638
v -0.0309630336 -0.0321515812 -0.111005934
v -0.0320114385 -0.032516593 -0.110668036
v -0.0345390915 -0.0320715782 -0.110667879
v -0.0373137046 -0.0315555418 -0.110685032
v -0.040197451 -0.0313229012 -0.110515936
v -0.0417944054 -0.0313439637 -0.110330463
v -0.0430241151 -0.0304394347 -0.110752243
v -0.0305593974 -0.0310095688 -0.11049796
v -0.0314934627 -0.0310548646 -0.109952045
v -0.0342186419 -0.0307434019 -0.109515191
v -0.0368572076 -0.030278472 -0.109515026
v -0.0397921077 -0.0298456867 -0.109295635
v -0.0410806335 -0.0295971785 -0.10935014
v -0.0426213539 -0.0291371957 -0.109841315
v -0.0303438137 -0.0297869032 -0.110497736
v -0.031206019 -0.0294231999 -0.109951746
v -0.0338731935 -0.0287867899 -0.109514832
v -0.0365126242 -0.0283218602 -0.109514668
v -0.0394189515 -0.0277253028 -0.109295246
v -0.0407144033 -0.0275183864 -0.109349759
v -0.0423191928 -0.0274240774 -0.109841001
v -0.0302209154 -0.0289245814 -0.111208108
v -0.0311152365 -0.0282445685 -0.110887348
v -0.0333568519 -0.0284822405 -0.111275521
v -0.036586387 -0.0279134168 -0.11127532
v -0.0393515383 -0.0268480874 -0.110919773
v -0.0407319714 -0.0261378102 -0.110632787
v -0.0423185024 -0.0264360488 -0.110987197
v -0.0302175056 -0.0287381084 -0.112136097
v -0.0311794349 -0.0279557973 -0.112135921
v -0.0331123427 -0.0297246067 -0.112136199
v -0.0369319822 -0.0290510224 -0.112135961
v -0.0395421197 -0.0274345082 -0.112135581
v -0.0409616639 -0.0259607932 -0.112135262
v -0.0425048247 -0.02650518 -0.11213532
v -0.0306005209 -0.0287752397 -0.113115239
v -0.0315217482 -0.0279243876 -0.113537039
v -0.0336705265 -0.028784412 -0.112777217
v -0.036937314 -0.0282641246 -0.11274323
v -0.0395673287 -0.0270851142 -0.113182248
v -0.0411064143 -0.025961385 -0.113704493
v -0.0424407402 -0.0264685687 -0.113248769
v -0.0311185941 -0.029586205 -0.113938554
v -0.0320727129 -0.0290818741 -0.114812732
v -0.0344261283 -0.0289610489 -0.11404752
v -0.0371288066 -0.028527344 -0.113938181
v -0.039791676 -0.0278690955 -0.114429286
v -0.0414857896 -0.0272964487 -0.11513966
v -0.0425506792 -0.0274241332 -0.114319943
v -0.0313558231 -0.0309310492 -0.113938801
v -0.0324250891 -0.0310792112 -0.114813098
v -0.0346780711 -0.03038908 -0.114047782
v -0.0373651673 -0.0298721881 -0.113938427
v -0.0400938372 -0.0295813471 -0.1144296
v -0.0418814561 -0.0295390129 -0.115140072
v -0.0428381213 -0.029055798 -0.114320242
v -0.0313703562 -0.0321607349 -0.113317751
v -0.0325036799 -0.0326772512 -0.113757131
v -0.0347307231 -0.0316794342 -0.11338515
v -0.0375252722 -0.0311053584 -0.113334703
v -0.0403197602 -0.0310251308 -0.113587626
v -0.0422052288 -0.03138059 -0.114009625
v -0.0431273193 -0.0303652816 -0.113486039
v -0.0452970151 -0.0422265277 -0.112138203
v -0.0457750086 -0.044407582 -0.1121386
v -0.0466986338 -0.0448574302 -0.112138658
v -0.0485253374 -0.0440466477 -0.112138452
v -0.0508805599 -0.0435695494 -0.112138294
v -0.0531715951 -0.0435326207 -0.112138221
v -0.0547528951 -0.0439886296 -0.112138261
v -0.0554956482 -0.0428787477 -0.11213803
v -0.0550315458 -0.0405113964 -0.112137597
v -0.0455116432 -0.0438479764 -0.111121229
v -0.0463702877 -0.0441930248 -0.110817127
v -0.0484170172 -0.0438319919 -0.110817
v -0.0506647859 -0.0434111935 -0.110832452
v -0.0530043597 -0.0432460598 -0.110679849
v -0.054302368 -0.0432904703 -0.110512585
v -0.055287707 -0.0424968252 -0.110892801
v -0.0451660458 -0.0428177409 -0.110664398
v -0.0459259461 -0.042872532 -0.110172213
v -0.0481355475 -0.0426355057 -0.109778713
v -0.0502741296 -0.0422588886 -0.10977858
v -0.0526527218 -0.0419152685 -0.10958175
v -0.0536960199 -0.0417126486 -0.109631072
v -0.0549395198 -0.0413228192 -0.110073745
v -0.044972109 -0.0417163905 -0.110664196
v -0.0456679404 -0.0414046426 -0.110171944
v -0.0478255963 -0.0408729952 -0.10977839
v -0.0499641768 -0.040496378 -0.109778257
v -0.0523167955 -0.0400063173 -0.1095814
v -0.0533661543 -0.0398409555 -0.109630729
v -0.0546685281 -0.0397812721 -0.110073463
v -0.0448595947 -0.0409424672 -0.111302665
v -0.0455762695 -0.0403456057 -0.111013987
v -0.0474010965 -0.0405927569 -0.111363181
v -0.0500171319 -0.0401321557 -0.111363018
v -0.0522484979 -0.039219246 -0.111043909
v -0.0533594351 -0.0386025064 -0.110785543
v -0.054653089 -0.0388937773 -0.111104433
v -0.0448535763 -0.0407742058 -0.112137942
v -0.0456239972 -0.0400871824 -0.11213779
v -0.0472224593 -0.0417034395 -0.112138048
v -0.050315083 -0.0411579924 -0.112137856
v -0.0524122207 -0.039748496 -0.112137529
v -0.0535431949 -0.0384471742 -0.112137251
v -0.0548047474 -0.0389594584 -0.112137311
v -0.0451655376 -0.0408130789 -0.113018306
v -0.0459004498 -0.0400644568 -0.113398538
v -0.0476610459 -0.0408680857 -0.112714968
v -0.050308269 -0.0404525541 -0.112684486
v -0.0524270243 -0.0394346491 -0.113078491
v -0.0536602131 -0.0384495232 -0.113550513
v -0.0547527906 -0.0389263367 -0.113138983
v -0.0455995694 -0.0415486629 -0.113760157
v -0.046367377 -0.0411101737 -0.114546836
v -0.0482771368 -0.0410386609 -0.113858765
v -0.0504677014 -0.0406915283 -0.113759855
v -0.0526219176 -0.0401406615 -0.114202471
v -0.0539902134 -0.0396546327 -0.114840952
v -0.0548575411 -0.0397848716 -0.114103558
v -0.0458134198 -0.042760061 -0.11376038
v -0.0466842565 -0.0429090775 -0.114547166
v -0.0485031087 -0.0423237166 -0.113859001
v -0.0506806852 -0.0419020644 -0.113760077
v -0.0528937758 -0.0416830771 -0.114202754
v -0.0543451868 -0.0416727664 -0.114841322
v -0.0551164127 -0.0412527644 -0.114103827
v -0.0458435721 -0.0438640949 -0.113201693
v -0.0467724047 -0.0443433312 -0.113596015
v -0.0485670441 -0.0434823507 -0.113262198
v -0.050828681 -0.043009576 -0.113216985
v -0.0530989269 -0.0429812685 -0.113444804
v -0.0546369284 -0.0433297535 -0.113823486
v -0.0553701048 -0.042433118 -0.113352785
v -0.0576103018 -0.0521549578 -0.112139718
v -0.0580709646 -0.0543394732 -0.112140116
v -0.058838616 -0.054816162 -0.112140184
v -0.0603031126 -0.0540694507 -0.112140001
v -0.0622086081 -0.0536711336 -0.11213987
v -0.0640767805 -0.0537095298 -0.112139823
v -0.0653816591 -0.0542148898 -0.112139881
v -0.0659502407 -0.0531353127 -0.112139661
v -0.0654956704 -0.0507653642 -0.112139227
v -0.0578379315 -0.0537737875 -0.111224124
v -0.058549268 -0.0541439387 -0.110950358
v -0.0602077945 -0.053852167 -0.110950255
v -0.062027499 -0.0535066929 -0.110964001
v -0.0639303456 -0.0534194806 -0.110827889
v -0.0649900605 -0.053506311 -0.110677103
v -0.0657691654 -0.0527481704 -0.11101834
v -0.0575226628 -0.0527392159 -0.110813216
v -0.0581447864 -0.0528182424 -0.11037043
v -0.0599384592 -0.0526530677 -0.110015948
v -0.0616715071 -0.0523474426 -0.11001584
v -0.0636003733 -0.0520843366 -0.109839835
v -0.0644443716 -0.0519163509 -0.109883104
v -0.0654478427 -0.0515689528 -0.110280733
v -0.0573287253 -0.0516369971 -0.110813014
v -0.0578859149 -0.0513494845 -0.110370161
v -0.0596285062 -0.0508922905 -0.110015625
v -0.0613606877 -0.0505875304 -0.110015517
v -0.0632635806 -0.0501753852 -0.109839485
v -0.0641145055 -0.0500437927 -0.10988276
v -0.0651759843 -0.0500274088 -0.110280451
v -0.0572110104 -0.0508639535 -0.111387362
v -0.0577760442 -0.0502930595 -0.111127288
v -0.0592733244 -0.0505990931 -0.111441842
v -0.061392842 -0.0502259368 -0.11144171
v -0.0631822812 -0.0493900763 -0.111155555
v -0.0640687894 -0.0488131585 -0.110922332
v -0.065134547 -0.0491451263 -0.111210042
v -0.0572006584 -0.0506957071 -0.112139454
v -0.0578073047 -0.0500389868 -0.112139313
v -0.0591640066 -0.0516976696 -0.112139586
v -0.061669127 -0.0512561168 -0.112139431
v -0.0633330038 -0.0499228088 -0.112139131
v -0.064213552 -0.0486647765 -0.112138868
v -0.0652602065 -0.0492151584 -0.112138942
v -0.0574571582 -0.0507458543 -0.112932305
v -0.0580334968 -0.0500249416 -0.113273555
v -0.0594942766 -0.0508813753 -0.112659324
v -0.0616406484 -0.0505532843 -0.112630605
v -0.0633348066 -0.0496107109 -0.112987377
v -0.0643097696 -0.048670616 -0.113410891
v -0.065216046 -0.0491811881 -0.113041832
v -0.0578348649 -0.0514909732 -0.113599642
v -0.0584466947 -0.0510793396 -0.114306612
v -0.0600029156 -0.0510701495 -0.113687883
v -0.061778415 -0.0507966107 -0.113599396
v -0.0635184316 -0.050319345 -0.11399698
v -0.0646181027 -0.0498800787 -0.114572223
v -0.0653294586 -0.0500380094 -0.113908492
v -0.0580478485 -0.0527023744 -0.113599864
v -0.0587635743 -0.0528782434 -0.114306942
v -0.0602288867 -0.0523560735 -0.113688118
v -0.0619913992 -0.0520071436 -0.113599619
v -0.0637894236 -0.0518600238 -0.113997263
v -0.0649730762 -0.0518982123 -0.114572593
v -0.06558833 -0.0515067672 -0.113908761
v -0.0581091967 -0.0538012019 -0.113097498
v -0.0588829192 -0.0543090165 -0.113452837
v -0.06031882 -0.0535103682 -0.113151102
v -0.0621480619 -0.0531129161 -0.113110249
v -0.0639989091 -0.0531590698 -0.113315565
v -0.0652656873 -0.0535551803 -0.113657005
v -0.0658342259 -0.0526879738 -0.113233105
v -0.0247866937 0.00975212158 -0.113706897
v -0.0277803084 0.00282134805 -0.113399642
v -0.0334715229 0.00320939444 -0.112399461
v -0.03856844 0.004458844 -0.111476253
v -0.0445855502 0.00551836749 -0.110397951
v -0.0547672636 0.00204797303 -0.108737226
v -0.0589675111 0.00436597191 -0.107936886
v -0.0593944189 0.00847742432 -0.10773507
v -0.0565879572 0.0153535758 -0.108011136
v -0.026551846 0.00498640734 -0.110710515
v -0.0317223382 0.005720259 -0.10969122
v -0.0391085622 0.00709235311 -0.108404859
v -0.0454798757 0.0069368507 -0.106589382
v -0.0529516176 0.00665547603 -0.104408233
v -0.057861385 0.00794572968 -0.103752772
v -0.0595167501 0.0101907341 -0.104487961
v -0.0254596439 0.00829731744 -0.109911874
v -0.0301995172 0.00918639314 -0.109189773
v -0.0398135382 0.0108258058 -0.107340937
v -0.0461233255 0.0109602901 -0.103930177
v -0.051630144 0.0123380908 -0.103894231
v -0.0570085961 0.0131212424 -0.102550849
v -0.0595562148 0.0138140967 -0.102664156
v -0.0249228544 0.0113466156 -0.109911314
v -0.0296809085 0.012130841 -0.109189233
v -0.0392758835 0.0138751041 -0.107340377
v -0.0452523409 0.01590381 -0.10392927
v -0.0508985515 0.0164922064 -0.103893469
v -0.0562207261 0.0175916396 -0.102550029
v -0.0588523276 0.0178122376 -0.102663423
v -0.0258331747 0.0145847654 -0.110778046
v -0.0305505124 0.0154504209 -0.109912111
v -0.0374470283 0.0157776919 -0.109200451
v -0.0461765489 0.0189135575 -0.10669455
v -0.0506625735 0.0201292797 -0.105640524
v -0.0553340487 0.02148446 -0.104490285
v -0.0580971656 0.0203022431 -0.104978269
v -0.0272156027 0.0165840176 -0.113073859
v -0.0318983113 0.0176723731 -0.112227812
v -0.035999207 0.0160261672 -0.111566863
v -0.0476401436 0.0188653436 -0.109457791
v -0.0510164446 0.0218298958 -0.10877953
v -0.0550926653 0.0233368773 -0.108024404
v -0.0578113236 0.0204812869 -0.107641004
v -0.0285151982 0.0150219797 -0.115476059
v -0.0324015893 0.0160264591 -0.114948057
v -0.0354011369 0.0144252816 -0.113286322
v -0.0454519099 0.0162665439 -0.111523218
v -0.0512207553 0.0199449442 -0.11189582
v -0.0545639865 0.0217762572 -0.111953433
v -0.0582081353 0.0197199949 -0.109875844
v -0.0297807722 0.0121772497 -0.116423645
v -0.0329115406 0.0128907586 -0.116242321
v -0.0346842495 0.0123086257 -0.113834371
v -0.0429776681 0.0135799516 -0.111905924
v -0.0514403735 0.0163726158 -0.113431062
v -0.0542645105 0.0175742602 -0.114572803
v -0.0587571957 0.0173355817 -0.111360595
v -0.0303089053 0.00917907578 -0.116424195
v -0.0334950848 0.00957890502 -0.116242928
v -0.0349621688 0.0107306855 -0.11383466
v -0.0431906519 0.0123702838 -0.111906146
v -0.0520983741 0.0126378969 -0.113431747
v -0.0551640673 0.0124730335 -0.114573739
v -0.0593035088 0.0142325606 -0.111361165
v -0.0293032158 0.00550861517 -0.115869488
v -0.0337657303 0.00583367341 -0.115342465
v -0.0369841505 0.00771326193 -0.113992007
v -0.0440948432 0.00921361307 -0.112571322
v -0.0538348984 0.00709716827 -0.113087007
v -0.0574768436 0.00745441359 -0.11260246
v -0.059608862 0.0108105297 -0.110462372
v -0.0326127928 -0.0152648287 -0.114200961
v -0.0334164752 -0.0182309899 -0.114152972
v -0.0360176483 -0.0186118444 -0.113711919
v -0.0416379892 -0.0169500347 -0.112684638
v -0.0487252638 -0.015618621 -0.111413024
v -0.0555031069 -0.0149292269 -0.110214325
v -0.060045257 -0.0151362595 -0.109432648
v -0.0625470921 -0.0133517205 -0.108942665
v -0.0618361633 -0.0101169613 -0.108967205
v -0.0325309665 -0.0175552619 -0.112710145
v -0.0348895232 -0.0178200515 -0.111838426
v -0.0410348785 -0.0167380212 -0.110737586
v -0.0477928692 -0.015513124 -0.109550052
v -0.0547076392 -0.0146349021 -0.108087897
v -0.0584838699 -0.0143436121 -0.107164042
v -0.0617152602 -0.0129247531 -0.107146351
v -0.0316776394 -0.016209574 -0.112110297
v -0.0337797584 -0.0160974466 -0.110980296
v -0.0402673414 -0.0151628969 -0.109216601
v -0.0466856514 -0.0140323918 -0.108066354
v -0.053753827 -0.0128916612 -0.106500165
v -0.056902765 -0.0123107869 -0.106011257
v -0.0608021559 -0.0113902642 -0.105990174
v -0.0314118446 -0.0146974902 -0.112110019
v -0.0334247827 -0.0140845112 -0.110979927
v -0.0398413731 -0.0127470278 -0.109216158
v -0.0462596832 -0.0116165229 -0.10806591
v -0.0532923611 -0.0102730258 -0.106499684
v -0.056450823 -0.00974327638 -0.106010786
v -0.0604298665 -0.00927507914 -0.105989786
v -0.0314614224 -0.0135985945 -0.113056897
v -0.0336650599 -0.0125670722 -0.112195336
v -0.0390781095 -0.0123937658 -0.11179049
v -0.0469305104 -0.0110104981 -0.110384536
v -0.0536911831 -0.0091072317 -0.108657909
v -0.0570750135 -0.00793293825 -0.107634251
v -0.0608997422 -0.00797251668 -0.10746518
v -0.0317067173 -0.0133245813 -0.114298536
v -0.0341729395 -0.0121344524 -0.113833795
v -0.0384410396 -0.0139860476 -0.113149484
v -0.0477275295 -0.0123508842 -0.111486089
v -0.0543124165 -0.00976296104 -0.110262776
v -0.0580135387 -0.00759910909 -0.109553463
v -0.0615999177 -0.00797580575 -0.108941679
v -0.0328470775 -0.0132534739 -0.115461335
v -0.0353271947 -0.0119670556 -0.115579731
v -0.0401205301 -0.0126509059 -0.11370981
v -0.0480457071 -0.011323116 -0.112244942
v -0.0546894563 -0.00927058299 -0.111639544
v -0.0587293426 -0.0075052424 -0.111612232
v -0.0617143518 -0.00789668231 -0.110471037
v -0.0341172666 -0.0141442419 -0.116415484
v -0.0367099885 -0.0132710443 -0.117155238
v -0.0421915086 -0.0126691365 -0.115119552
v -0.0487302528 -0.0115698755 -0.11379774
v -0.0553600465 -0.0101671988 -0.11328778
v -0.0597022526 -0.00906473299 -0.113488475
v -0.0620357006 -0.00904370006 -0.111941697
v -0.0344099032 -0.015804502 -0.116415789
v -0.0371446164 -0.015738038 -0.11715569
v -0.0425023265 -0.0144307797 -0.115119875
v -0.0490228894 -0.0132301356 -0.113798044
v -0.055732336 -0.0122815173 -0.113288168
v -0.0601905586 -0.0118341437 -0.113488983
v -0.0623906746 -0.0110575018 -0.111942067
v -0.0340465889 -0.0173902893 -0.115663108
v -0.0367586856 -0.0177953102 -0.11581561
v -0.0422117857 -0.0160885109 -0.114298753
v -0.0490105101 -0.0147882531 -0.113007222
v -0.0557805629 -0.0141057231 -0.112162925
v -0.0603253525 -0.0141540765 -0.11196264
v -0.0626174272 -0.0126980397 -0.110790789
v -0.0473979224 -0.0269580261 -0.113075418
v -0.0481747426 -0.0299293811 -0.11303263
v -0.0505298215 -0.0303535165 -0.112636651
v -0.0555765275 -0.0287921193 -0.111711652
v -0.0619541235 -0.0275853552 -0.110567458
v -0.0680621466 -0.0270136851 -0.109488378
v -0.0721675707 -0.027297759 -0.108783847
v -0.0743964523 -0.0255616939 -0.108344138
v -0.0737002546 -0.0223252051 -0.108365211
v -0.0473368925 -0.0292458635 -0.111582002
v -0.0494623529 -0.0295504705 -0.110751889
v -0.0549942135 -0.0285757767 -0.109761999
v -0.0610763195 -0.0274703361 -0.108694951
v -0.0673013397 -0.0267133013 -0.107355016
v -0.0707006344 -0.0264886637 -0.106498771
v -0.0736053469 -0.0251278025 -0.106540022
v -0.0465312246 -0.0278889195 -0.110972618
v -0.0484141112 -0.0278174784 -0.109883357
v -0.054246607 -0.0269971894 -0.108235814
v -0.0600236922 -0.0259800821 -0.107200851
v -0.0663813219 -0.0249640001 -0.105762082
v -0.0692165795 -0.0244393935 -0.10532865
v -0.0727329692 -0.0235863892 -0.105376911
v -0.0462654262 -0.0263794349 -0.110972341
v -0.0480591372 -0.0258036766 -0.109882988
v -0.0538215046 -0.0245821875 -0.108235371
v -0.0595977232 -0.0235642134 -0.107200408
v -0.065920722 -0.0223470988 -0.105761602
v -0.068763771 -0.0218710163 -0.105328179
v -0.0723606796 -0.0214720708 -0.105376524
v -0.0463072049 -0.0252822702 -0.111920086
v -0.0482725509 -0.0242896981 -0.111101864
v -0.0531682897 -0.0242090145 -0.110790633
v -0.0602347564 -0.0229642477 -0.109524234
v -0.0662978815 -0.0211830332 -0.107923294
v -0.0693273052 -0.020071931 -0.106962913
v -0.0727898285 -0.0201755666 -0.106857985
v -0.0465473013 -0.0250082563 -0.113163458
v -0.048752703 -0.0238640063 -0.112745524
v -0.0526395348 -0.0257822537 -0.112128824
v -0.0609971149 -0.0243106925 -0.110631856
v -0.0668983182 -0.021843092 -0.109531628
v -0.0702043077 -0.0197493563 -0.108892526
v -0.0734492784 -0.0201857802 -0.108343152
v -0.0475975446 -0.0249518645 -0.114342726
v -0.0498246385 -0.0237104592 -0.11450533
v -0.0541483203 -0.0244774081 -0.112721222
v -0.061280631 -0.0232898513 -0.111398509
v -0.0672554278 -0.0213541759 -0.110911863
v -0.0708854506 -0.0196615487 -0.11095823
v -0.073577576 -0.0201040595 -0.109869909
v -0.0487793502 -0.0258573469 -0.115313344
v -0.0511259793 -0.025028296 -0.116096438
v -0.0560485939 -0.0245250695 -0.114161302
v -0.061931383 -0.0235409363 -0.112957374
v -0.0679060881 -0.022255121 -0.112564434
v -0.071825433 -0.0212270983 -0.112841407
v -0.0739119231 -0.02124848 -0.111338836
v -0.0490728532 -0.0275193394 -0.115313649
v -0.0515606071 -0.0274961573 -0.11609689
v -0.0563585466 -0.0262875801 -0.114161625
v -0.0622240198 -0.0252020635 -0.112957679
v -0.068279244 -0.0243694395 -0.112564821
v -0.0723128724 -0.0239956431 -0.112841915
v -0.0742660303 -0.0232622816 -0.111339205
v -0.048757196 -0.0290964707 -0.114551434
v -0.0512232017 -0.029544772 -0.114747277
v -0.0561087308 -0.0279375195 -0.113332701
v -0.0622246377 -0.0267584503 -0.112164257
v -0.068331804 -0.0261919122 -0.111437844
v -0.0724485329 -0.0263164422 -0.111314705
v -0.0744806516 -0.0249045499 -0.110189661
v -0.0598200514 -0.0390667212 -0.112374608
v -0.0605977388 -0.0420372114 -0.112330954
v -0.0629528176 -0.0424622118 -0.111934974
v -0.0680003904 -0.0409016799 -0.111009976
v -0.0743762532 -0.0396949156 -0.109865781
v -0.0804851425 -0.0391215154 -0.108786701
v -0.0845897008 -0.039407321 -0.10808217
v -0.0868185824 -0.0376712558 -0.107642462
v -0.0861223831 -0.0344339011 -0.107663534
v -0.0597598884 -0.0413536921 -0.110880325
v -0.061885349 -0.0416591675 -0.110050212
v -0.067416343 -0.0406853402 -0.109060323
v -0.0734984488 -0.0395798999 -0.107992408
v -0.0797234688 -0.0388228651 -0.106652473
v -0.0831236301 -0.0385973607 -0.105797095
v -0.0860283421 -0.0372373646 -0.105838346
v -0.0589533538 -0.0399993498 -0.110270942
v -0.0608371076 -0.0399270405 -0.109181681
v -0.0666696028 -0.0391067513 -0.107535004
v -0.0724458219 -0.0380896456 -0.106499175
v -0.0788034518 -0.0370735622 -0.105059539
v -0.0816395753 -0.0365472237 -0.10462784
v -0.0851559646 -0.0356942178 -0.104675235
v -0.0586875562 -0.0384889985 -0.110270665
v -0.0604821336 -0.0379132387 -0.109181311
v -0.0662445005 -0.0366900176 -0.10753456
v -0.072019853 -0.0356729086 -0.106498731
v -0.0783428518 -0.0344549283 -0.105059059
v -0.0811867674 -0.033980579 -0.104627369
v -0.0847836758 -0.0335798994 -0.104674847
v -0.058730201 -0.0373909672 -0.11121841
v -0.060694681 -0.0363992599 -0.110401055
v -0.0655904194 -0.0363177114 -0.110088957
v -0.0726577526 -0.0350729429 -0.108823424
v -0.0787208773 -0.0332917296 -0.107220751
v -0.0817503015 -0.032180628 -0.106261236
v -0.0852119578 -0.0322851284 -0.106157175
v -0.0589694315 -0.0371169514 -0.112462648
v -0.0611756991 -0.0359727019 -0.112042981
v -0.0650625306 -0.0378918156 -0.111428014
v -0.0734192447 -0.0364193876 -0.109931045
v -0.0793213139 -0.0339526549 -0.108829952
v -0.0826273034 -0.0318580523 -0.108191716
v -0.0858714078 -0.0322944763 -0.107641475
v -0.0600196742 -0.0370614248 -0.11364105
v -0.0622485013 -0.0358191545 -0.113804519
v -0.0665713165 -0.0365869703 -0.112018679
v -0.0737044938 -0.0353985468 -0.110696832
v -0.0796775573 -0.0334620061 -0.110210187
v -0.0833084471 -0.0317702449 -0.110256554
v -0.0859997062 -0.0322127558 -0.109167366
v -0.0612032123 -0.037967776 -0.114610802
v -0.0635498424 -0.0371378597 -0.115395628
v -0.0684715899 -0.0366346316 -0.113459625
v -0.0743543786 -0.0356504984 -0.112255698
v -0.080329085 -0.0343629498 -0.11186189
v -0.0842475628 -0.0333357936 -0.11213973
v -0.086334919 -0.0333580423 -0.110636293
v -0.0614958497 -0.0396280349 -0.114611106
v -0.0639844689 -0.039604851 -0.11539608
v -0.0687815424 -0.0383954088 -0.113459948
v -0.0746470158 -0.0373116256 -0.112256003
v -0.0807013736 -0.0364781365 -0.111862278
v -0.0847350017 -0.036105205 -0.112140238
v -0.086689893 -0.035371844 -0.110636662
v -0.0611793258 -0.0412051675 -0.113849758
v -0.0636453308 -0.0416543338 -0.114046466
v -0.0685317269 -0.0400462165 -0.112631024
v -0.0746476342 -0.0388671473 -0.11146258
v -0.0807556669 -0.0383006076 -0.110737034
v -0.0848715295 -0.0384242709 -0.110613029
v -0.0869036478 -0.0370132469 -0.109487984
v -0.0702910958 -0.0493207662 -0.111955117
v -0.0710679165 -0.0522912564 -0.111910597
v -0.0734238621 -0.052716257 -0.111514617
v -0.0784714346 -0.0511557283 -0.110589619
v -0.0848481638 -0.0499472307 -0.109445424
v -0.0909570536 -0.0493755607 -0.108366344
v -0.0950616105 -0.049660501 -0.10766268
v -0.0972896271 -0.0479235708 -0.107222105
v -0.0965934292 -0.0446879479 -0.107243178
v -0.0702309325 -0.0516068722 -0.110459968
v -0.0723563937 -0.0519114792 -0.109629855
v -0.0778882542 -0.0509376521 -0.108639966
v -0.0839694933 -0.0498330766 -0.107572918
v -0.0901945141 -0.0490769099 -0.106233849
v -0.0935955398 -0.0488505408 -0.105377604
v -0.0964985201 -0.0474896793 -0.105418856
v -0.0694243981 -0.0502516615 -0.109850585
v -0.0713081519 -0.0501793522 -0.108761324
v -0.0771415135 -0.0493599315 -0.107114647
v -0.0829168664 -0.0483428223 -0.106079684
v -0.0892753613 -0.0473276106 -0.104640049
v -0.0921097531 -0.0468012687 -0.104207483
v -0.0956261439 -0.0459482645 -0.104254878
v -0.0691586007 -0.0487413103 -0.109850308
v -0.0709531778 -0.0481664188 -0.108760955
v -0.0767155446 -0.0469431977 -0.107114203
v -0.0824908967 -0.0459260885 -0.106079241
v -0.0888138954 -0.044708975 -0.104639569
v -0.0916569452 -0.044233759 -0.104207012
v -0.0952538521 -0.0438330794 -0.10425449
v -0.0692012459 -0.047644147 -0.110799786
v -0.0711657256 -0.04665244 -0.109980698
v -0.0760614637 -0.0465708914 -0.1096686
v -0.0831287963 -0.0453261246 -0.108403068
v -0.0891919219 -0.0435449095 -0.10680126
v -0.0922213459 -0.0424346748 -0.105840879
v -0.0956838676 -0.0425374419 -0.105736818
v -0.0694404757 -0.0473709998 -0.112042291
v -0.07164761 -0.0462258818 -0.111624357
v -0.0755335746 -0.0481449957 -0.111007657
v -0.083891156 -0.0466725678 -0.109510689
v -0.0897914927 -0.044204968 -0.108410462
v -0.0930974813 -0.0421112306 -0.107771359
v -0.096343319 -0.0425476549 -0.107221119
v -0.0704907184 -0.0473146049 -0.113220693
v -0.0727186792 -0.0460723345 -0.113384163
v -0.0770423608 -0.0468410186 -0.111599188
v -0.084174671 -0.0456508601 -0.110276475
v -0.0901494678 -0.0437151862 -0.109790696
v -0.0937794901 -0.0420234232 -0.109837063
v -0.0964716159 -0.0424659342 -0.108747876
v -0.071674257 -0.0482200876 -0.114191311
v -0.0740208866 -0.0473910398 -0.114975271
v -0.0789426345 -0.0468878116 -0.113040135
v -0.0848254224 -0.0459028134 -0.111835341
v -0.0907992627 -0.0446169962 -0.111443267
v -0.0947186058 -0.0435889737 -0.111719373
v -0.096805962 -0.0436112222 -0.110216803
v -0.0719668939 -0.0498812148 -0.114191616
v -0.0744555137 -0.0498580311 -0.114975723
v -0.0792525865 -0.0486494538 -0.113040458
v -0.0851180604 -0.0475648057 -0.111835646
v -0.0911724182 -0.0467313131 -0.111443654
v -0.0952060479 -0.0463583851 -0.111719881
v -0.0971609376 -0.0456250239 -0.110217172
v -0.0716503703 -0.0514592127 -0.113429401
v -0.0741172414 -0.0519083822 -0.113626976
v -0.0790036374 -0.0502993965 -0.112211534
v -0.0851186788 -0.0491203242 -0.111042223
v -0.0912267114 -0.0485537877 -0.110316677
v -0.0953425725 -0.048677451 -0.110192672
v -0.0973746906 -0.0472672921 -0.109067628
f 9 2 1
f 9 10 3
f 9 3 2
f 10 11 4
f 10 4 3
f 11 12 5
f 11 5 4
f 12 13 6
f 12 6 5
f 13 14 7
f 13 7 6
f 14 8 7
f 15 9 1
f 15 16 10
f 15 10 9
f 16 17 11
f 16 11 10
f 17 18 12
f 17 12 11
f 18 19 13
f 18 13 12
f 19 20 14
f 19 14 13
f 20 8 14
f 21 15 1
f 21 22 16
f 21 16 15
f 22 23 17
f 22 17 16
f 23 24 18
f 23 18 17
f 24 25 19
f 24 19 18
f 25 26 20
f 25 20 19
f 26 8 20
f 27 21 1
f 27 28 22
f 27 22 21
f 28 29 23
f 28 23 22
f 29 30 24
f 29 24 23
f 30 31 25
f 30 25 24
f 31 32 26
f 31 26 25
f 32 8 26
f 33 27 1
f 33 34 28
f 33 28 27
f 34 35 29
f 34 29 28
f 35 36 30
f 35 30 29
f 36 37 31
f 36 31 30
f 37 38 32
f 37 32 31
f 38 8 32
f 39 33 1
f 39 40 34
f 39 34 33
f 40 41 35
f 40 35 34
f 41 42 36
f 41 36 35
f 42 43 37
f 42 37 36
f 43 44 38
f 43 38 37
f 44 8 38
f 45 39 1
f 45 46 40
f 45 40 39
f 46 47 41
f 46 41 40
f 47 48 42
f 47 42 41
f 48 49 43
f 48 43 42
f 49 50 44
f 49 44 43
f 50 8 44
f 51 45 1
f 51 52 46
f 51 46 45
f 52 53 47
f 52 47 46
f 53 54 48
f 53 48 47
f 54 55 49
f 54 49 48
f 55 56 50
f 55 50 49
f 56 8 50
f 57 51 1
f 57 58 52
f 57 52 51
f 58 59 53
f 58 53 52
f 59 60 54
f 59 54 53
f 60 61 55
f 60 55 54
f 61 62 56
f 61 56 55
f 62 8 56
f 2 57 1
f 2 3 58
f 2 58 57
f 3 4 59
f 3 59 58
f 4 5 60
f 4 60 59
f 5 6 61
f 5 61 60
f 6 7 62
f 6 62 61
f 7 8 62
f 71 64 63
f 71 72 65
f 71 65 64
f 72 73 66
f 72 66 65
f 73 74 67
f 73 67 66
f 74 75 68
f 74 68 67
f 75 76 69
f 75 69 68
f 76 70 69
f 77 71 63
f 77 78 72
f 77 72 71
f 78 79 73
f 78 73 72
f 79 80 74
f 79 74 73
f 80 81 75
f 80 75 74
f 81 82 76
f 81 76 75
f 82 70 76
f 83 77 63
f 83 84 78
f 83 78 77
f 84 85 79
f 84 79 78
f 85 86 80
f 85 80 79
f 86 87 81
f 86 81 80
f 87 88 82
f 87 82 81
f 88 70 82
f 89 83 63
f 89 90 84
f 89 84 83
f 90 91 85
f 90 85 84
f 91 92 86
f 91 86 85
f 92 93 87
f 92 87 86
f 93 94 88
f 93 88 87
f 94 70 88
f 95 89 63
f 95 96 90
f 95 90 89
f 96 97 91
f 96 91 90
f 97 98 92
f 97 92 91
f 98 99 93
f 98 93 92
f 99 100 94
f 99 94 93
f 100 70 94
f 101 95 63
f 101 102 96
f 101 96 95
f 102 103 97
f 102 97 96
f 103 104 98
f 103 98 97
f 104 105 99
f 104 99 98
f 105 106 100
f 105 100 99
f 106 70 100
f 107 101 63
f 107 108 102
f 107 102 101
f 108 109 103
f 108 103 102
f 109 110 104
f 109 104 103
f 110 111 105
f 110 105 104
f 111 112 106
f 111 106 105
f 112 70 106
f 113 107 63
f 113 114 108
f 113 108 107
f 114 115 109
f 114 109 108
f 115 116 110
f 115 110 109
f 116 117 111
f 116 111 110
f 117 118 112
f 117 112 111
f 118 70 112
f 119 113 63
f 119 120 114
f 119 114 113
f 120 121 115
f 120 115 114
f 121 122 116
f 121 116 115
f 122 123 117
f 122 117 116
f 123 124 118
f 123 118 117
f 124 70 118
f 64 119 63
f 64 65 120
f 64 120 119
f 65 66 121
f 65 121 120
f 66 67 122
f 66 122 121
f 67 68 123
f 67 123 122
f 68 69 124
f 68 124 123
f 69 70 124
f 133 126 125
f 133 134 127
f 133 127 126
f 134 135 128
f 134 128 127
f 135 136 129
f 135 129 128
f 136 137 130
f 136 130 129
f 137 138 131
f 137 131 130
f 138 132 131
f 139 133 125
f 139 140 134
f 139 134 133
f 140 141 135
f 140 135 134
f 141 142 136
f 141 136 135
f 142 143 137
f 142 137 136
f 143 144 138
f 143 138 137
f 144 132 138
f 145 139 125
f 145 146 140
f 145 140 139
f 146 147 141
f 146 141 140
f 147 148 142
f 147 142 141
f 148 149 143
f 148 143 142
f 149 150 144
f 149 144 143
f 150 132 144
f 151 145 125
f 151 152 146
f 151 146 145
f 152 153 147
f 152 147 146
f 153 154 148
f 153 148 147
f 154 155 149
f 154 149 148
f 155 156 150
f 155 150 149
f 156 132 150
f 157 151 125
f 157 158 152
f 157 152 151
f 158 159 153
f 158 153 152
f 159 160 154
f 159 154 153
f 160 161 155
f 160 155 154
f 161 162 156
f 161 156 155
f 162 132 156
f 163 157 125
f 163 164 158
f 163 158 157
f 164 165 159
f 164 159 158
f 165 166 160
f 165 160 159
f 166 167 161
f 166 161 160
f 167 168 162
f 167 162 161
f 168 132 162
f 169 163 125
f 169 170 164
f 169 164 163
f 170 171 165
f 170 165 164
f 171 172 166
f 171 166 165
f 172 173 167
f 172 167 166
f 173 174 168
f 173 168 167
f 174 132 168
f 175 169 125
f 175 176 170
f 175 170 169
f 176 177 171
f 176 171 170
f 177 178 172
f 177 172 171
f 178 179 173
f 178 173 172
f 179 180 174
f 179 174 173
f 180 132 174
f 181 175 125
f 181 182 176
f 181 176 175
f 182 183 177
f 182 177 176
f 183 184 178
f 183 178 177
f 184 185 179
f 184 179 178
f 185 186 180
f 185 180 179
f 186 132 180
f 126 181 125
f 126 127 182
f 126 182 181
f 127 128 183
f 127 183 182
f 128 129 184
f 128 184 183
f 129 130 185
f 129 185 184
f 130 131 186
f 130 186 185
f 131 132 186
f 195 188 187
f 195 196 189
f 195 189 188
f 196 197 190
f 196 190 189
f 197 198 191
f 197 191 190
f 198 199 192
f 198 192 191
f 199 200 193
f 199 193 192
f 200 194 193
f 201 195 187
f 201 202 196
f 201 196 195
f 202 203 197
f 202 197 196
f 203 204 198
f 203 198 197
f 204 205 199
f 204 199 198
f 205 206 200
f 205 200 199
f 206 194 200
f 207 201 187
f 207 208 202
f 207 202 201
f 208 209 203
f 208 203 202
f 209 210 204
f 209 204 203
f 210 211 205
f 210 205 204
f 211 212 206
f 211 206 205
f 212 194 206
f 213 207 187
f 213 214 208
f 213 208 207
f 214 215 209
f 214 209 208
f 215 216 210
f 215 210 209
f 216 217 211
f 216 211 210
f 217 218 212
f 217 212 211
f 218 194 212
f 219 213 187
f 219 220 214
f 219 214 213
f 220 221 215
f 220 215 214
f 221 222 216
f 221 216 215
f 222 223 217
f 222 217 216
f 223 224 218
f 223 218 217
f 224 194 218
f 225 219 187
f 225 226 220
f 225 220 219
f 226 227 221
f 226 221 220
f 227 228 222
f 227 222 221
f 228 229 223
f 228 223 222
f 229 230 224
f 229 224 223
f 230 194 224
f 231 225 187
f 231 232 226
f 231 226 225
f 232 233 227
f 232 227 226
f 233 234 228
f 233 228 227
f 234 235 229
f 234 229 228
f 235 236 230
f 235 230 229
f 236 194 230
f 237 231 187
f 237 238 232
f 237 232 231
f 238 239 233
f 238 233 232
f 239 240 234
f 239 234 233
f 240 241 235
f 240 235 234
f 241 242 236
f 241 236 235
f 242 194 236
f 243 237 187
f 243 244 238
f 243 238 237
f 244 245 239
f 244 239 238
f 245 246 240
f 245 240 239
f 246 247 241
f 246 241 240
f 247 248 242
f 247 242 241
f 248 194 242
f 188 243 187
f 188 189 244
f 188 244 243
f 189 190 245
f 189 245 244
f 190 191 246
f 190 246 245
f 191 192 247
f 191 247 246
f 192 193 248
f 192 248 247
f 193 194 248
f 257 250 249
f 257 258 251
f 257 251 250
f 258 259 252
f 258 252 251
f 259 260 253
f 259 253 252
f 260 261 254
f 260 254 253
f 261 262 255
f 261 255 254
f 262 256 255
f 263 257 249
f 263 264 258
f 263 258 257
f 264 265 259
f 264 259 258
f 265 266 260
f 265 260 259
f 266 267 261
f 266 261 260
f 267 268 262
f 267 262 261
f 268 256 262
f 269 263 249
f 269 270 264
f 269 264 263
f 270 271 265
f 270 265 264
f 271 272 266
f 271 266 265
f 272 273 267
f 272 267 266
f 273 274 268
f 273 268 267
f 274 256 268
f 275 269 249
f 275 276 270
f 275 270 269
f 276 277 271
f 276 271 270
f 277 278 272
f 277 272 271
f 278 279 273
f 278 273 272
f 279 280 274
f 279 274 273
f 280 256 274
f 281 275 249
f 281 282 276
f 281 276 275
f 282 283 277
f 282 277 276
f 283 284 278
f 283 278 277
f 284 285 279
f 284 279 278
f 285 286 280
f 285 280 279
f 286 256 280
f 287 281 249
f 287 288 282
f 287 282 281
f 288 289 283
f 288 283 282
f 289 290 284
f 289 284 283
f 290 291 285
f 290 285 284
f 291 292 286
f 291 286 285
f 292 256 286
f 293 287 249
f 293 294 288
f 293 288 287
f 294 295 289
f 294 289 288
f 295 296 290
f 295 290 289
f 296 297 291
f 296 291 290
f 297 298 292
f 297 292 291
f 298 256 292
f 299 293 249
f 299 300 294
f 299 294 293
f 300 301 295
f 300 295 294
f 301 302 296
f 301 296 295
f 302 303 297
f 302 297 296
f 303 304 298
f 303 298 297
f 304 256 298
f 305 299 249
f 305 306 300
f 305 300 299
f 306 307 301
f 306 301 300
f 307 308 302
f 307 302 301
f 308 309 303
f 308 303 302
f 309 310 304
f 309 304 303
f 310 256 304
f 250 305 249
f 250 251 306
f 250 306 305
f 251 252 307
f 251 307 306
f 252 253 308
f 252 308 307
f 253 254 309
f 253 309 308
f 254 255 310
f 254 310 309
f 255 256 310
f 320 312 311
f 320 321 313
f 320 313 312
f 321 322 314
f 321 314 313
f 322 323 315
f 322 315 314
f 323 324 316
f 323 316 315
f 324 325 317
f 324 317 316
f 325 326 318
f 325 318 317
f 326 319 318
f 327 320 311
f 327 328 321
f 327 321 320
f 328 329 322
f 328 322 321
f 329 330 323
f 329 323 322
f 330 331 324
f 330 324 323
f 331 332 325
f 331 325 324
f 332 333 326
f 332 326 325
f 333 319 326
f 334 327 311
f 334 335 328
f 334 328 327
f 335 336 329
f 335 329 328
f 336 337 330
f 336 330 329
f 337 338 331
f 337 331 330
f 338 339 332
f 338 332 331
f 339 340 333
f 339 333 332
f 340 319 333
f 341 334 311
f 341 342 335
f 341 335 334
f 342 343 336
f 342 336 335
f 343 344 337
f 343 337 336
f 344 345 338
f 344 338 337
f 345 346 339
f 345 339 338
f 346 347 340
f 346 340 339
f 347 319 340
f 348 341 311
f 348 349 342
f 348 342 341
f 349 350 343
f 349 343 342
f 350 351 344
f 350 344 343
f 351 352 345
f 351 345 344
f 352 353 346
f 352 346 345
f 353 354 347
f 353 347 346
f 354 319 347
f 355 348 311
f 355 356 349
f 355 349 348
f 356 357 350
f 356 350 349
f 357 358 351
f 357 351 350
f 358 359 352
f 358 352 351
f 359 360 353
f 359 353 352
f 360 361 354
f 360 354 353
f 361 319 354
f 362 355 311
f 362 363 356
f 362 356 355
f 363 364 357
f 363 357 356
f 364 365 358
f 364 358 357
f 365 366 359
f 365 359 358
f 366 367 360
f 366 360 359
f 367 368 361
f 367 361 360
f 368 319 361
f 369 362 311
f 369 370 363
f 369 363 362
f 370 371 364
f 370 364 363
f 371 372 365
f 371 365 364
f 372 373 366
f 372 366 365
f 373 374 367
f 373 367 366
f 374 375 368
f 374 368 367
f 375 319 368
f 376 369 311
f 376 377 370
f 376 370 369
f 377 378 371
f 377 371 370
f 378 379 372
f 378 372 371
f 379 380 373
f 379 373 372
f 380 381 374
f 380 374 373
f 381 382 375
f 381 375 374
f 382 319 375
f 312 376 311
f 312 313 377
f 312 377 376
f 313 314 378
f 313 378 377
f 314 315 379
f 314 379 378
f 315 316 380
f 315 380 379
f 316 317 381
f 316 381 380
f 317 318 382
f 317 382 381
f 318 319 382
f 392 384 383
f 392 393 385
f 392 385 384
f 393 394 386
f 393 386 385
f 394 395 387
f 394 387 386
f 395 396 388
f 395 388 387
f 396 397 389
f 396 389 388
f 397 398 390
f 397 390 389
f 398 391 390
f 399 392 383
f 399 400 393
f 399 393 392
f 400 401 394
f 400 394 393
f 401 402 395
f 401 395 394
f 402 403 396
f 402 396 395
f 403 404 397
f 403 397 396
f 404 405 398
f 404 398 397
f 405 391 398
f 406 399 383
f 406 407 400
f 406 400 399
f 407 408 401
f 407 401 400
f 408 409 402
f 408 402 401
f 409 410 403
f 409 403 402
f 410 411 404
f 410 404 403
f 411 412 405
f 411 405 404
f 412 391 405
f 413 406 383
f 413 414 407
f 413 407 406
f 414 415 408
f 414 408 407
f 415 416 409
f 415 409 408
f 416 417 410
f 416 410 409
f 417 418 411
f 417 411 410
f 418 419 412
f 418 412 411
f 419 391 412
f 420 413 383
f 420 421 414
f 420 414 413
f 421 422 415
f 421 415 414
f 422 423 416
f 422 416 415
f 423 424 417
f 423 417 416
f 424 425 418
f 424 418 417
f 425 426 419
f 425 419 418
f 426 391 419
f 427 420 383
f 427 428 421
f 427 421 420
f 428 429 422
f 428 422 421
f 429 430 423
f 429 423 422
f 430 431 424
f 430 424 423
f 431 432 425
f 431 425 424
f 432 433 426
f 432 426 425
f 433 391 426
f 434 427 383
f 434 435 428
f 434 428 427
f 435 436 429
f 435 429 428
f 436 437 430
f 436 430 429
f 437 438 431
f 437 431 430
f 438 439 432
f 438 432 431
f 439 440 433
f 439 433 432
f 440 391 433
f 441 434 383
f 441 442 435
f 441 435 434
f 442 443 436
f 442 436 435
f 443 444 437
f 443 437 436
f 444 445 438
f 444 438 437
f 445 446 439
f 445 439 438
f 446 447 440
f 446 440 439
f 447 391 440
f 448 441 383
f 448 449 442
f 448 442 441
f 449 450 443
f 449 443 442
f 450 451 444
f 450 444 443
f 451 452 445
f 451 445 444
f 452 453 446
f 452 446 445
f 453 454 447
f 453 447 446
f 454 391 447
f 384 448 383
f 384 385 449
f 384 449 448
f 385 386 450
f 385 450 449
f 386 387 451
f 386 451 450
f 387 388 452
f 387 452 451
f 388 389 453
f 388 453 452
f 389 390 454
f 389 454 453
f 390 391 454
f 464 456 455
f 464 465 457
f 464 457 456
f 465 466 458
f 465 458 457
f 466 467 459
f 466 459 458
f 467 468 460
f 467 460 459
f 468 469 461
f 468 461 460
f 469 470 462
f 469 462 461
f 470 463 462
f 471 464 455
f 471 472 465
f 471 465 464
f 472 473 466
f 472 466 465
f 473 474 467
f 473 467 466
f 474 475 468
f 474 468 467
f 475 476 469
f 475 469 468
f 476 477 470
f 476 470 469
f 477 463 470
f 478 471 455
f 478 479 472
f 478 472 471
f 479 480 473
f 479 473 472
f 480 481 474
f 480 474 473
f 481 482 475
f 481 475 474
f 482 483 476
f 482 476 475
f 483 484 477
f 483 477 476
f 484 463 477
f 485 478 455
f 485 486 479
f 485 479 478
f 486 487 480
f 486 480 479
f 487 488 481
f 487 481 480
f 488 489 482
f 488 482 481
f 489 490 483
f 489 483 482
f 490 491 484
f 490 484 483
f 491 463 484
f 492 485 455
f 492 493 486
f 492 486 485
f 493 494 487
f 493 487 486
f 494 495 488
f 494 488 487
f 495 496 489
f 495 489 488
f 496 497 490
f 496 490 489
f 497 498 491
f 497 491 490
f 498 463 491
f 499 492 455
f 499 500 493
f 499 493 492
f 500 501 494
f 500 494 493
f 501 502 495
f 501 495 494
f 502 503 496
f 502 496 495
f 503 504 497
f 503 497 496
f 504 505 498
f 504 498 497
f 505 463 498
f 506 499 455
f 506 507 500
f 506 500 499
f 507 508 501
f 507 501 500
f 508 509 502
f 508 502 501
f 509 510 503
f 509 503 502
f 510 511 504
f 510 504 503
f 511 512 505
f 511 505 504
f 512 463 505
f 513 506 455
f 513 514 507
f 513 507 506
f 514 515 508
f 514 508 507
f 515 516 509
f 515 509 508
f 516 517 510
f 516 510 509
f 517 518 511
f 517 511 510
f 518 519 512
f 518 512 511
f 519 463 512
f 520 513 455
f 520 521 514
f 520 514 513
f 521 522 515
f 521 515 514
f 522 523 516
f 522 516 515
f 523 524 517
f 523 517 516
f 524 525 518
f 524 518 517
f 525 526 519
f 525 519 518
f 526 463 519
f 456 520 455
f 456 457 521
f 456 521 520
f 457 458 522
f 457 522 521
f 458 459 523
f 458 523 522
f 459 460 524
f 459 524 523
f 460 461 525
f 460 525 524
f 461 462 526
f 461 526 525
f 462 463 526
f 536 528 527
f 536 537 529
f 536 529 528
f 537 538 530
f 537 530 529
f 538 539 531
f 538 531 530
f 539 540 532
f 539 532 531
f 540 541 533
f 540 533 532
f 541 542 534
f 541 534 533
f 542 535 534
f 543 536 527
f 543 544 537
f 543 537 536
f 544 545 538
f 544 538 537
f 545 546 539
f 545 539 538
f 546 547 540
f 546 540 539
f 547 548 541
f 547 541 540
f 548 549 542
f 548 542 541
f 549 535 542
f 550 543 527
f 550 551 544
f 550 544 543
f 551 552 545
f 551 545 544
f 552 553 546
f 552 546 545
f 553 554 547
f 553 547 546
f 554 555 548
f 554 548 547
f 555 556 549
f 555 549 548
f 556 535 549
f 557 550 527
f 557 558 551
f 557 551 550
f 558 559 552
f 558 552 551
f 559 560 553
f 559 553 552
f 560 561 554
f 560 554 553
f 561 562 555
f 561 555 554
f 562 563 556
f 562 556 555
f 563 535 556
f 564 557 527
f 564 565 558
f 564 558 557
f 565 566 559
f 565 559 558
f 566 567 560
f 566 560 559
f 567 568 561
f 567 561 560
f 568 569 562
f 568 562 561
f 569 570 563
f 569 563 562
f 570 535 563
f 571 564 527
f 571 572 565
f 571 565 564
f 572 573 566
f 572 566 565
f 573 574 567
f 573 567 566
f 574 575 568
f 574 568 567
f 575 576 569
f 575 569 568
f 576 577 570
f 576 570 569
f 577 535 570
f 578 571 527
f 578 579 572
f 578 572 571
f 579 580 573
f 579 573 572
f 580 581 574
f 580 574 573
f 581 582 575
f 581 575 574
f 582 583 576
f 582 576 575
f 583 584 577
f 583 577 576
f 584 535 577
f 585 578 527
f 585 586 579
f 585 579 578
f 586 587 580
f 586 580 579
f 587 588 581
f 587 581 580
f 588 589 582
f 588 582 581
f 589 590 583
f 589 583 582
f 590 591 584
f 590 584 583
f 591 535 584
f 592 585 527
f 592 593 586
f 592 586 585
f 593 594 587
f 593 587 586
f 594 595 588
f 594 588 587
f 595 596 589
f 595 589 588
f 596 597 590
f 596 590 589
f 597 598 591
f 597 591 590
f 598 535 591
f 528 592 527
f 528 529 593
f 528 593 592
f 529 530 594
f 529 594 593
f 530 531 595
f 530 595 594
f 531 532 596
f 531 596 595
f 532 533 597
f 532 597 596
f 533 534 598
f 533 598 597
f 534 535 598
f 608 600 599
f 608 609 601
f 608 601 600
f 609 610 602
f 609 602 601
f 610 611 603
f 610 603 602
f 611 612 604
f 611 604 603
f 612 613 605
f 612 605 604
f 613 614 606
f 613 606 605
f 614 607 606
f 615 608 599
f 615 616 609
f 615 609 608
f 616 617 610
f 616 610 609
f 617 618 611
f 617 611 610
f 618 619 612
f 618 612 611
f 619 620 613
f 619 613 612
f 620 621 614
f 620 614 613
f 621 607 614
f 622 615 599
f 622 623 616
f 622 616 615
f 623 624 617
f 623 617 616
f 624 625 618
f 624 618 617
f 625 626 619
f 625 619 618
f 626 627 620
f 626 620 619
f 627 628 621
f 627 621 620
f 628 607 621
f 629 622 599
f 629 630 623
f 629 623 622
f 630 631 624
f 630 624 623
f 631 632 625
f 631 625 624
f 632 633 626
f 632 626 625
f 633 634 627
f 633 627 626
f 634 635 628
f 634 628 627
f 635 607 628
f 636 629 599
f 636 637 630
f 636 630 629
f 637 638 631
f 637 631 630
f 638 639 632
f 638 632 631
f 639 640 633
f 639 633 632
f 640 641 634
f 640 634 633
f 641 642 635
f 641 635 634
f 642 607 635
f 643 636 599
f 643 644 637
f 643 637 636
f 644 645 638
f 644 638 637
f 645 646 639
f 645 639 638
f 646 647 640
f 646 640 639
f 647 648 641
f 647 641 640
f 648 649 642
f 648 642 641
f 649 607 642
f 650 643 599
f 650 651 644
f 650 644 643
f 651 652 645
f 651 645 644
f 652 653 646
f 652 646 645
f 653 654 647
f 653 647 646
f 654 655 648
f 654 648 647
f 655 656 649
f 655 649 648
f 656 607 649
f 657 650 599
f 657 658 651
f 657 651 650
f 658 659 652
f 658 652 651
f 659 660 653
f 659 653 652
f 660 661 654
f 660 654 653
f 661 662 655
f 661 655 654
f 662 663 656
f 662 656 655
f 663 607 656
f 664 657 599
f 664 665 658
f 664 658 657
f 665 666 659
f 665 659 658
f 666 667 660
f 666 660 659
f 667 668 661
f 667 661 660
f 668 669 662
f 668 662 661
f 669 670 663
f 669 663 662
f 670 607 663
f 600 664 599
f 600 601 665
f 600 665 664
f 601 602 666
f 601 666 665
f 602 603 667
f 602 667 666
f 603 604 668
f 603 668 667
f 604 605 669
f 604 669 668
f 605 606 670
f 605 670 669
f 606 607 670
f 680 672 671
f 680 681 673
f 680 673 672
f 681 682 674
f 681 674 673
f 682 683 675
f 682 675 674
f 683 684 676
f 683 676 675
f 684 685 677
f 684 677 676
f 685 686 678
f 685 678 677
f 686 679 678
f 687 680 671
f 687 688 681
f 687 681 680
f 688 689 682
f 688 682 681
f 689 690 683
f 689 683 682
f 690 691 684
f 690 684 683
f 691 692 685
f 691 685 684
f 692 693 686
f 692 686 685
f 693 679 686
f 694 687 671
f 694 695 688
f 694 688 687
f 695 696 689
f 695 689 688
f 696 697 690
f 696 690 689
f 697 698 691
f 697 691 690
f 698 699 692
f 698 692 691
f 699 700 693
f 699 693 692
f 700 679 693
f 701 694 671
f 701 702 695
f 701 695 694
f 702 703 696
f 702 696 695
f 703 704 697
f 703 697 696
f 704 705 698
f 704 698 697
f 705 706 699
f 705 699 698
f 706 707 700
f 706 700 699
f 707 679 700
f 708 701 671
f 708 709 702
f 708 702 701
f 709 710 703
f 709 703 702
f 710 711 704
f 710 704 703
f 711 712 705
f 711 705 704
f 712 713 706
f 712 706 705
f 713 714 707
f 713 707 706
f 714 679 707
f 715 708 671
f 715 716 709
f 715 709 708
f 716 717 710
f 716 710 709
f 717 718 711
f 717 711 710
f 718 719 712
f 718 712 711
f 719 720 713
f 719 713 712
f 720 721 714
f 720 714 713
f 721 679 714
f 722 715 671
f 722 723 716
f 722 716 715
f 723 724 717
f 723 717 716
f 724 725 718
f 724 718 717
f 725 726 719
f 725 719 718
f 726 727 720
f 726 720 719
f 727 728 721
f 727 721 720
f 728 679 721
f 729 722 671
f 729 730 723
f 729 723 722
f 730 731 724
f 730 724 723
f 731 732 725
f 731 725 724
f 732 733 726
f 732 726 725
f 733 734 727
f 733 727 726
f 734 735 728
f 734 728 727
f 735 679 728
f 736 729 671
f 736 737 730
f 736 730 729
f 737 738 731
f 737 731 730
f 738 739 732
f 738 732 731
f 739 740 733
f 739 733 732
f 740 741 734
f 740 734 733
f 741 742 735
f 741 735 734
f 742 679 735
f 672 736 671
f 672 673 737
f 672 737 736
f 673 674 738
f 673 738 737
f 674 675 739
f 674 739 738
f 675 676 740
f 675 740 739
f 676 677 741
f 676 741 740
f 677 678 742
f 677 742 741
f 678 679 742
f 752 744 743
f 752 753 745
f 752 745 744
f 753 754 746
f 753 746 745
f 754 755 747
f 754 747 746
f 755 756 748
f 755 748 747
f 756 757 749
f 756 749 748
f 757 758 750
f 757 750 749
f 758 751 750
f 759 752 743
f 759 760 753
f 759 753 752
f 760 761 754
f 760 754 753
f 761 762 755
f 761 755 754
f 762 763 756
f 762 756 755
f 763 764 757
f 763 757 756
f 764 765 758
f 764 758 757
f 765 751 758
f 766 759 743
f 766 767 760
f 766 760 759
f 767 768 761
f 767 761 760
f 768 769 762
f 768 762 761
f 769 770 763
f 769 763 762
f 770 771 764
f 770 764 763
f 771 772 765
f 771 765 764
f 772 751 765
f 773 766 743
f 773 774 767
f 773 767 766
f 774 775 768
f 774 768 767
f 775 776 769
f 775 769 768
f 776 777 770
f 776 770 769
f 777 778 771
f 777 771 770
f 778 779 772
f 778 772 771
f 779 751 772
f 780 773 743
f 780 781 774
f 780 774 773
f 781 782 775
f 781 775 774
f 782 783 776
f 782 776 775
f 783 784 777
f 783 777 776
f 784 785 778
f 784 778 777
f 785 786 779
f 785 779 778
f 786 751 779
f 787 780 743
f 787 788 781
f 787 781 780
f 788 789 782
f 788 782 781
f 789 790 783
f 789 783 782
f 790 791 784
f 790 784 783
f 791 792 785
f 791 785 784
f 792 793 786
f 792 786 785
f 793 751 786
f 794 787 743
f 794 795 788
f 794 788 787
f 795 796 789
f 795 789 788
f 796 797 790
f 796 790 789
f 797 798 791
f 797 791 790
f 798 799 792
f 798 792 791
f 799 800 793
f 799 793 792
f 800 751 793
f 801 794 743
f 801 802 795
f 801 795 794
f 802 803 796
f 802 796 795
f 803 804 797
f 803 797 796
f 804 805 798
f 804 798 797
f 805 806 799
f 805 799 798
f 806 807 800
f 806 800 799
f 807 751 800
f 808 801 743
f 808 809 802
f 808 802 801
f 809 810 803
f 809 803 802
f 810 811 804
f 810 804 803
f 811 812 805
f 811 805 804
f 812 813 806
f 812 806 805
f 813 814 807
f 813 807 806
f 814 751 807
f 744 808 743
f 744 745 809
f 744 809 808
f 745 746 810
f 745 810 809
f 746 747 811
f 746 811 810
f 747 748 812
f 747 812 811
f 748 749 813
f 748 813 812
f 749 750 814
f 749 814 813
f 750 751 814
f 824 816 815
f 824 825 817
f 824 817 816
f 825 826 818
f 825 818 817
f 826 827 819
f 826 819 818
f 827 828 820
f 827 820 819
f 828 829 821
f 828 821 820
f 829 830 822
f 829 822 821
f 830 823 822
f 831 824 815
f 831 832 825
f 831 825 824
f 832 833 826
f 832 826 825
f 833 834 827
f 833 827 826
f 834 835 828
f 834 828 827
f 835 836 829
f 835 829 828
f 836 837 830
f 836 830 829
f 837 823 830
f 838 831 815
f 838 839 832
f 838 832 831
f 839 840 833
f 839 833 832
f 840 841 834
f 840 834 833
f 841 842 835
f 841 835 834
f 842 843 836
f 842 836 835
f 843 844 837
f 843 837 836
f 844 823 837
f 845 838 815
f 845 846 839
f 845 839 838
f 846 847 840
f 846 840 839
f 847 848 841
f 847 841 840
f 848 849 842
f 848 842 841
f 849 850 843
f 849 843 842
f 850 851 844
f 850 844 843
f 851 823 844
f 852 845 815
f 852 853 846
f 852 846 845
f 853 854 847
f 853 847 846
f 854 855 848
f 854 848 847
f 855 856 849
f 855 849 848
f 856 857 850
f 856 850 849
f 857 858 851
f 857 851 850
f 858 823 851
f 859 852 815
f 859 860 853
f 859 853 852
f 860 861 854
f 860 854 853
f 861 862 855
f 861 855 854
f 862 863 856
f 862 856 855
f 863 864 857
f 863 857 856
f 864 865 858
f 864 858 857
f 865 823 858
f 866 859 815
f 866 867 860
f 866 860 859
f 867 868 861
f 867 861 860
f 868 869 862
f 868 862 861
f 869 870 863
f 869 863 862
f 870 871 864
f 870 864 863
f 871 872 865
f 871 865 864
f 872 823 865
f 873 866 815
f 873 874 867
f 873 867 866
f 874 875 868
f 874 868 867
f 875 876 869
f 875 869 868
f 876 877 870
f 876 870 869
f 877 878 871
f 877 871 870
f 878 879 872
f 878 872 871
f 879 823 872
f 880 873 815
f 880 881 874
f 880 874 873
f 881 882 875
f 881 875 874
f 882 883 876
f 882 876 875
f 883 884 877
f 883 877 876
f 884 885 878
f 884 878 877
f 885 886 879
f 885 879 878
f 886 823 879
f 816 880 815
f 816 817 881
f 816 881 880
f 817 818 882
f 817 882 881
f 818 819 883
f 818 883 882
f 819 820 884
f 819 884 883
f 820 821 885
f 820 885 884
f 821 822 886
f 821 886 885
f 822 823 886
f 896 888 887
f 896 897 889
f 896 889 888
f 897 898 890
f 897 890 889
f 898 899 891
f 898 891 890
f 899 900 892
f 899 892 891
f 900 901 893
f 900 893 892
f 901 902 894
f 901 894 893
f 902 895 894
f 903 896 887
f 903 904 897
f 903 897 896
f 904 905 898
f 904 898 897
f 905 906 899
f 905 899 898
f 906 907 900
f 906 900 899
f 907 908 901
f 907 901 900
f 908 909 902
f 908 902 901
f 909 895 902
f 910 903 887
f 910 911 904
f 910 904 903
f 911 912 905
f 911 905 904
f 912 913 906
f 912 906 905
f 913 914 907
f 913 907 906
f 914 915 908
f 914 908 907
f 915 916 909
f 915 909 908
f 916 895 909
f 917 910 887
f 917 918 911
f 917 911 910
f 918 919 912
f 918 912 911
f 919 920 913
f 919 913 912
f 920 921 914
f 920 914 913
f 921 922 915
f 921 915 914
f 922 923 916
f 922 916 915
f 923 895 916
f 924 917 887
f 924 925 918
f 924 918 917
f 925 926 919
f 925 919 918
f 926 927 920
f 926 920 919
f 927 928 921
f 927 921 920
f 928 929 922
f 928 922 921
f 929 930 923
f 929 923 922
f 930 895 923
f 931 924 887
f 931 932 925
f 931 925 924
f 932 933 926
f 932 926 925
f 933 934 927
f 933 927 926
f 934 935 928
f 934 928 927
f 935 936 929
f 935 929 928
f 936 937 930
f 936 930 929
f 937 895 930
f 938 931 887
f 938 939 932
f 938 932 931
f 939 940 933
f 939 933 932
f 940 941 934
f 940 934 933
f 941 942 935
f 941 935 934
f 942 943 936
f 942 936 935
f 943 944 937
f 943 937 936
f 944 895 937
f 945 938 887
f 945 946 939
f 945 939 938
f 946 947 940
f 946 940 939
f 947 948 941
f 947 941 940
f 948 949 942
f 948 942 941
f 949 950 943
f 949 943 942
f 950 951 944
f 950 944 943
f 951 895 944
f 952 945 887
f 952 953 946
f 952 946 945
f 953 954 947
f 953 947 946
f 954 955 948
f 954 948 947
f 955 956 949
f 955 949 948
f 956 957 950
f 956 950 949
f 957 958 951
f 957 951 950
f 958 895 951
f 888 952 887
f 888 889 953
f 888 953 952
f 889 890 954
f 889 954 953
f 890 891 955
f 890 955 954
f 891 892 956
f 891 956 955
f 892 893 957
f 892 957 956
f 893 894 958
f 893 958 957
f 894 895 958
