v -0.0621338742 0.0171220833 -0.107545322
v -0.0619239311 0.00937049508 -0.108112615
v -0.0655150729 0.00600774537 -0.107038682
v -0.0704842984 0.0052606402 -0.105303942
v -0.0728710891 0.008525074 -0.104241793
v -0.0778214848 0.00937231672 -0.102414038
v -0.0916790916 0.00788334085 -0.0975398434
v -0.108164605 -0.000802406947 -0.0921808225
v -0.111039619 -0.000846342156 -0.0911530761
v -0.11381613 0.00100476096 -0.0900400586
v -0.112332965 0.00286976538 -0.0904530707
v -0.112727028 0.00762671984 -0.0900111134
v -0.116382004 0.0144105735 -0.0882715258
v -0.0618565352 0.01148831 -0.103907084
v -0.0659051994 0.00865366246 -0.100725706
v -0.0697921983 0.00811989746 -0.0991200658
v -0.071314974 0.0102523111 -0.100040711
v -0.0760625936 0.010820699 -0.098887153
v -0.089489609 0.00976673926 -0.0938629839
v -0.104724304 0.00450415069 -0.0854714635
v -0.108783766 0.00413154034 -0.0839160457
v -0.112068844 0.00532592027 -0.0836488431
v -0.113040593 0.00786835367 -0.0850174085
v -0.11330101 0.0107003815 -0.0868079262
v -0.0628118735 0.0150040684 -0.101956764
v -0.0676968791 0.0136230116 -0.0973029009
v -0.0705649206 0.013364999 -0.0959918494
v -0.0707478993 0.0140385612 -0.0976779301
v -0.075152313 0.0141218264 -0.0968910027
v -0.0882778441 0.0134284259 -0.0921301914
v -0.103455002 0.0116449205 -0.0841106133
v -0.108656487 0.0111957445 -0.0817770583
v -0.112171914 0.011475101 -0.0816945856
v -0.115532511 0.0129360992 -0.0846827781
v -0.114948661 0.0136852298 -0.086737995
v -0.0632533936 0.018364228 -0.101585255
v -0.0683778127 0.0188157501 -0.0967300114
v -0.0712718849 0.0187422955 -0.0953981281
v -0.0713100042 0.0183154443 -0.0972057301
v -0.075648498 0.0179100209 -0.0964726206
v -0.0887827015 0.0172764063 -0.0917048665
v -0.104176716 0.0171435229 -0.0835038705
v -0.10941809 0.0170002108 -0.0811364631
v -0.112838111 0.0165456671 -0.0811347162
v -0.115853466 0.0153804039 -0.0844128257
v -0.115117808 0.0149684664 -0.0865956432
v -0.0636410772 0.0202804973 -0.104187854
v -0.0671783711 0.022614559 -0.100740367
v -0.0699087429 0.0230861227 -0.0992376844
v -0.0711399382 0.0223026654 -0.0994318935
v -0.0748112297 0.0220419484 -0.0981936051
v -0.0858544365 0.0200451611 -0.0955317677
v -0.104996081 0.0198104972 -0.088099271
v -0.109559934 0.0201906892 -0.0859466754
v -0.112178471 0.0201736531 -0.0849163328
v -0.114766425 0.0179907244 -0.0857901034
v -0.11565962 0.0166909896 -0.0865684412
v -0.0636697168 0.0200305683 -0.106811668
v -0.065852906 0.0235030049 -0.105809274
v -0.0686527129 0.0246574418 -0.104731913
v -0.0713873232 0.0244211766 -0.103766596
v -0.0746696683 0.0248545912 -0.102562847
v -0.0827482344 0.0205689406 -0.0999387876
v -0.104959632 0.0186631395 -0.0920966607
v -0.108994152 0.0195547687 -0.0905938617
v -0.11136421 0.0209311204 -0.0896568441
v -0.114082222 0.0196992578 -0.0887601688
v -0.116645955 0.0181780212 -0.0879372051
v -0.0650492618 0.0202031493 -0.10864598
v -0.0694021073 0.0229156122 -0.109038734
v -0.0726377084 0.0236454991 -0.108480476
v -0.0744407546 0.0228331147 -0.107361056
v -0.0802374213 0.021778992 -0.104796241
v -0.0888708824 0.0200318641 -0.100857203
v -0.108018858 0.0212819114 -0.0955152946
v -0.11297889 0.0226050704 -0.0947922393
v -0.116599213 0.0232733484 -0.0940684789
v -0.118089303 0.0215848866 -0.0924709245
v -0.118089749 0.0189945877 -0.0907557398
v -0.0661746756 0.018663579 -0.110584602
v -0.0722680902 0.0196108468 -0.111629248
v -0.0757583584 0.019738495 -0.111167278
v -0.0765623247 0.0190916203 -0.109325193
v -0.0846360562 0.0177793204 -0.104121863
v -0.0945331277 0.0175867395 -0.101383466
v -0.111087856 0.0190322589 -0.101337656
v -0.116932527 0.0197264311 -0.101788803
v -0.121574336 0.0196848155 -0.100625831
v -0.121872184 0.018646187 -0.0978939382
v -0.119286195 0.0169934536 -0.0942420184
v -0.0658051525 0.0158527576 -0.110894484
v -0.0716348531 0.0147828898 -0.112161343
v -0.0750592145 0.0144227179 -0.111754055
v -0.0759924254 0.014754086 -0.109804337
v -0.0842587128 0.0149069813 -0.104439555
v -0.0940933378 0.0142265796 -0.101754975
v -0.110164036 0.0120069405 -0.102112794
v -0.115802253 0.0111111467 -0.102740146
v -0.120403294 0.0107627989 -0.101611027
v -0.12091887 0.0113756588 -0.0986968507
v -0.118708482 0.0125943982 -0.094728106
v -0.0642951865 0.0122968532 -0.110896065
v -0.069050177 0.00958670191 -0.111364349
v -0.0732291823 0.00888229888 -0.110311561
v -0.0746643082 0.0107134667 -0.108141453
v -0.0813728096 0.0117100361 -0.104595345
v -0.0932323398 0.010508386 -0.100912595
v -0.109824066 0.0043899712 -0.0996334445
v -0.11382798 0.00323856516 -0.0990408585
v -0.11725067 0.00363893623 -0.0973267434
v -0.116819367 0.00537174916 -0.0959859505
v -0.115819004 0.00903666913 -0.0931856208
v -0.0673768361 -0.00852792889 -0.107911337
v -0.0688725521 -0.0135296476 -0.107629757
v -0.073701461 -0.0138504994 -0.105437428
v -0.0767038749 -0.0136571008 -0.104043102
v -0.0828113892 -0.0101908267 -0.100957526
v -0.111076738 -0.00713606363 -0.0877281133
v -0.118828075 -0.0091524435 -0.0843324465
v -0.122259437 -0.00871912693 -0.0827205734
v -0.126238234 -0.00961772996 -0.0809659605
v -0.130313451 -0.00882410306 -0.079029927
v -0.132206958 -0.00725359717 -0.0780339664
v -0.129609478 -0.00542730452 -0.0790786981
v -0.127943616 -0.00261862942 -0.0796154481
v -0.0663416232 -0.0123182524 -0.105821212
v -0.070272817 -0.0127135293 -0.103439159
v -0.0729719975 -0.0122869506 -0.102293485
v -0.0773782969 -0.0109959092 -0.100836524
v -0.0929147737 -0.00894758139 -0.0939504645
v -0.0973779006 -0.00990542257 -0.090891763
v -0.101608267 -0.00891938672 -0.0893161546
v -0.119323756 -0.00809352308 -0.0804095779
v -0.123633685 -0.00800098781 -0.0781677969
v -0.126827758 -0.0067876439 -0.0773053071
v -0.126787129 -0.00621826739 -0.0777237203
v -0.0644295688 -0.010093732 -0.105465583
v -0.0674639714 -0.0101683002 -0.102940522
v -0.069976871 -0.00975546931 -0.102269699
v -0.0717921304 -0.00984702647 -0.100617245
v -0.0747097147 -0.00922623456 -0.100260045
v -0.0764859956 -0.00925535664 -0.0988268045
v -0.0817345097 -0.00830577997 -0.0976826903
v -0.113350511 -0.00552491179 -0.0820062312
v -0.117570282 -0.00551745699 -0.0788286445
v -0.121856931 -0.00483030157 -0.0776300194
v -0.123707725 -0.00488545478 -0.0760616083
v -0.0642548665 -0.00778623237 -0.105358573
v -0.067239977 -0.00719185981 -0.10280306
v -0.0697744865 -0.00708143848 -0.102146158
v -0.0715525516 -0.00668948652 -0.100471084
v -0.0745168546 -0.00667438092 -0.100141725
v -0.0762654659 -0.00633957143 -0.0986910867
v -0.0815719057 -0.0061793793 -0.09758438
v -0.113148998 -0.00285174739 -0.0818826892
v -0.117312552 -0.00211556323 -0.0786703081
v -0.121635523 -0.00191364956 -0.0774951665
v -0.123453453 -0.00154334914 -0.0759067467
v -0.0651875019 -0.00608260076 -0.106547065
v -0.0679005927 -0.00522982755 -0.104753167
v -0.0702608777 -0.00550843829 -0.104106741
v -0.0722582688 -0.00445364989 -0.102401208
v -0.0758662601 -0.00511719214 -0.101628309
v -0.079553247 -0.0046804807 -0.0998361943
v -0.089980736 -0.00366303696 -0.0949642264
v -0.113246379 -0.000886204104 -0.0836387162
v -0.117454259 0.000697449443 -0.0806202687
v -0.120292984 0.00152247101 -0.0788021118
v -0.125017982 0.00166959538 -0.0768757103
v -0.066377311 -0.0056544212 -0.108137847
v -0.068787979 -0.00502244248 -0.106979145
v -0.0708432068 -0.00561472973 -0.106083235
v -0.0732904145 -0.00398889706 -0.104827296
v -0.0772934303 -0.00518384482 -0.103085736
v -0.0827575317 -0.00504560466 -0.100564898
v -0.0987455552 -0.00219942364 -0.0929915376
v -0.113691042 -0.000345997047 -0.0859772891
v -0.118216172 0.00187809836 -0.083717769
v -0.120160045 0.00424576167 -0.0826332716
v -0.127370867 0.00346338688 -0.0793846963
v -0.0683495712 -0.00527489196 -0.109660163
v -0.0716346617 -0.0038873811 -0.10886869
v -0.0743363157 -0.00419829353 -0.107205853
v -0.0763439647 -0.00420831961 -0.106124402
v -0.080086169 -0.00523704583 -0.103404538
v -0.0879556467 -0.00500239396 -0.0993559694
v -0.102490567 -0.00231339093 -0.0934515639
v -0.114398286 0.00028266375 -0.0888903294
v -0.120649717 0.00384551806 -0.0880290398
v -0.123790029 0.00480668976 -0.0870201606
v -0.127792946 0.00322933172 -0.0837761584
v -0.0704307487 -0.0066457067 -0.111212266
v -0.0748986155 -0.00546875409 -0.111338423
v -0.078340311 -0.00533536172 -0.109126986
v -0.0791954079 -0.00589221547 -0.106816105
v -0.0827513833 -0.00615246918 -0.103343978
v -0.0929587189 -0.00545921637 -0.0976696976
v -0.106043047 -0.00357728082 -0.0933685145
v -0.115389381 -0.00162144238 -0.0921201123
v -0.123915317 0.00102995855 -0.0935698896
v -0.127577109 0.00118409564 -0.0912544615
v -0.128140946 0.000127938805 -0.0876716594
v -0.0706469746 -0.00950083669 -0.111345373
v -0.0752160208 -0.00966003304 -0.111532434
v -0.0786291816 -0.00916270876 -0.109305332
v -0.0793986446 -0.00856537992 -0.106939647
v -0.0828707338 -0.00773037247 -0.103417925
v -0.0930365585 -0.00649208887 -0.0977175478
v -0.106203908 -0.00570281476 -0.0934668262
v -0.11569208 -0.00563162173 -0.0923062904
v -0.1244671 -0.00626080463 -0.0939074511
v -0.128102081 -0.00574100306 -0.0915763573
v -0.128513704 -0.00479206986 -0.0878995994
v -0.0700867889 -0.0121334195 -0.110119785
v -0.07475364 -0.0128500384 -0.108992466
v -0.0780073696 -0.0123378601 -0.107298264
v -0.0812223178 -0.0101484098 -0.104110764
v -0.0971573944 -0.00777197974 -0.0959292099
v -0.10648434 -0.00760592517 -0.0922384771
v -0.114670982 -0.00747167871 -0.0890104937
v -0.121379234 -0.00853874728 -0.0874213364
v -0.127457521 -0.00990024015 -0.0863365572
v -0.130094377 -0.00886205101 -0.0844022527
v -0.128949975 -0.00686225541 -0.0830415014
v -0.0764802482 -0.0213513057 -0.110228784
v -0.076895785 -0.0239846607 -0.110250931
v -0.0790107798 -0.0247675885 -0.109343789
v -0.0815592177 -0.0241226456 -0.10812096
v -0.0841628015 -0.0256517336 -0.10704931
v -0.0862866434 -0.0251479286 -0.106032747
v -0.0886316313 -0.0232352643 -0.104801019
v -0.112202337 -0.0202444017 -0.0937328093
v -0.124220133 -0.0232296365 -0.0884560288
v -0.129951307 -0.0217804607 -0.085706178
v -0.132458022 -0.0220297233 -0.0845745016
v -0.135260479 -0.0204706926 -0.083160861
v -0.133070649 -0.0158318718 -0.0837917299
v -0.0763152766 -0.0234120416 -0.109066331
v -0.0780220941 -0.0244723109 -0.107525841
v -0.0804214669 -0.0240326641 -0.106529212
v -0.0826091877 -0.0250462544 -0.104763409
v -0.0854011544 -0.0242020001 -0.10380655
v -0.0982323675 -0.0226643149 -0.0979855958
v -0.111278473 -0.0211058851 -0.0920641165
v -0.12267266 -0.0219570693 -0.0855513183
v -0.128156714 -0.0216680963 -0.0828398206
v -0.130488446 -0.0216036703 -0.0816509001
v -0.133407942 -0.019764589 -0.0812293493
v -0.0759593032 -0.0221678119 -0.108443092
v -0.0771445317 -0.0227195161 -0.106124403
v -0.0793255257 -0.0224721879 -0.105194537
v -0.0813019378 -0.0226790751 -0.103211095
v -0.0848763405 -0.0219648597 -0.102512457
v -0.107643612 -0.020077889 -0.0909938975
v -0.110005701 -0.0198462173 -0.0898907296
v -0.121625448 -0.0189140677 -0.0839321492
v -0.126406702 -0.0189466252 -0.0803750267
v -0.12869254 -0.0186897903 -0.0793949
v -0.131856325 -0.0175489282 -0.0801233206
v -0.0758537941 -0.0207710077 -0.108377844
v -0.07694822 -0.0201061402 -0.106003472
v -0.0791309352 -0.0199211996 -0.105076217
v -0.0810545778 -0.019399358 -0.103059713
v -0.0846782857 -0.0193514844 -0.102391526
v -0.107399717 -0.0168570945 -0.0908451254
v -0.109761805 -0.0166271556 -0.0897410911
v -0.121353018 -0.0153293411 -0.0837668466
v -0.126065944 -0.0144512033 -0.0801670953
v -0.128357842 -0.0142550236 -0.0791895784
v -0.131635789 -0.0146340091 -0.0799876029
v -0.0759622817 -0.0197544692 -0.109156635
v -0.0772179963 -0.0182992391 -0.107507371
v -0.0798755701 -0.0179619346 -0.106202278
v -0.0819933872 -0.0170483742 -0.10465014
v -0.0852054074 -0.0176373416 -0.10386944
v -0.102720907 -0.0158105202 -0.0955926279
v -0.112716112 -0.0139344081 -0.0902032097
v -0.121328409 -0.012076188 -0.085366662
v -0.124882854 -0.0112980957 -0.0833613275
v -0.127944187 -0.0111549458 -0.082057126
v -0.130984581 -0.0121917895 -0.0817002359
v -0.0762309553 -0.0194943626 -0.110192914
v -0.0777388744 -0.0179610267 -0.109376337
v -0.0809380445 -0.0173517594 -0.107857151
v -0.0832551551 -0.0165325972 -0.106726145
v -0.0859212142 -0.0174594905 -0.105577261
v -0.0980010295 -0.0169744526 -0.0999904814
v -0.116084387 -0.0129347353 -0.091357104
v -0.12205487 -0.0103713108 -0.0884068746
v -0.124233198 -0.0105546439 -0.0874216338
v -0.128014578 -0.0104836004 -0.0856798429
v -0.130872175 -0.0110951363 -0.0844165153
v -0.0782162902 -0.0184824134 -0.111053102
v -0.0809832369 -0.0169050089 -0.110554486
v -0.0837222159 -0.0169238758 -0.10910042
v -0.0855937595 -0.0173550337 -0.107853551
v -0.0899460174 -0.0180753748 -0.105127546
v -0.104526622 -0.0167755659 -0.098241654
v -0.118328611 -0.0133853258 -0.0930320729
v -0.124084258 -0.0107375315 -0.0916077441
v -0.127211619 -0.00949298936 -0.0907166538
v -0.132044873 -0.0095946947 -0.0881118282
v -0.132900598 -0.0118411334 -0.0862986398
v -0.0805618246 -0.0193871145 -0.112469069
v -0.0845747279 -0.0183973382 -0.112181954
v -0.0866178578 -0.0185305547 -0.110345802
v -0.0875543962 -0.0191376741 -0.108054859
v -0.0935929374 -0.0190821577 -0.103821812
v -0.11090221 -0.0172604034 -0.0960883038
v -0.120356819 -0.015440769 -0.0940531393
v -0.125965057 -0.0138601938 -0.0941687905
v -0.130588908 -0.0125090789 -0.0943910931
v -0.136356272 -0.0123139095 -0.0907247194
v -0.134605582 -0.014083697 -0.0873084869
v -0.0807771725 -0.0222422452 -0.112600443
v -0.0848722323 -0.0223451288 -0.112364655
v -0.0868712648 -0.0218709273 -0.110499796
v -0.0877109404 -0.021203419 -0.108149692
v -0.0936750938 -0.0201756853 -0.103872273
v -0.111003402 -0.0185974183 -0.096150074
v -0.120581685 -0.0184154767 -0.0941914683
v -0.126333485 -0.0187204144 -0.0943932542
v -0.131081015 -0.0190104566 -0.0946929803
v -0.136798216 -0.0181463463 -0.0909961552
v -0.134827855 -0.0169977498 -0.0874433377
v -0.0788835727 -0.0240185218 -0.111419791
v -0.0820028489 -0.0248119325 -0.110839293
v -0.084282678 -0.0240413595 -0.109336568
v -0.0862825764 -0.0237290348 -0.10830878
v -0.0903734257 -0.0225845848 -0.105803388
v -0.100021124 -0.0211337851 -0.100888903
v -0.11639966 -0.0203212371 -0.093862678
v -0.125554779 -0.0222898984 -0.091868963
v -0.130577806 -0.0225058546 -0.0900855978
v -0.134790772 -0.0218604614 -0.0879286303
v -0.135302297 -0.0194182708 -0.0857818303
v -0.0876796105 -0.0338865842 -0.107185935
v -0.08954644 -0.03715712 -0.106724652
v -0.093823309 -0.0381033706 -0.105250786
v -0.0952766742 -0.0363481683 -0.104618734
v -0.0976804721 -0.0353236182 -0.10369218
v -0.101307994 -0.032585409 -0.102218506
v -0.11751699 -0.0299313228 -0.0962395388
v -0.128754378 -0.0310523514 -0.0922829779
v -0.135035727 -0.0300459559 -0.0899673132
v -0.138235565 -0.0308827994 -0.0888721196
v -0.146101974 -0.0281966145 -0.0858828198
v -0.147992937 -0.0262647403 -0.0850826193
v -0.144974433 -0.0237963302 -0.0860076652
v -0.0881418069 -0.0369597154 -0.104813152
v -0.0918667397 -0.0375992969 -0.102533398
v -0.0941579738 -0.0361829248 -0.102391825
v -0.0971925383 -0.0354478881 -0.101411585
v -0.100583418 -0.0335967362 -0.101033343
v -0.120481982 -0.0305769765 -0.0933393928
v -0.129198863 -0.03061978 -0.0890153036
v -0.135644017 -0.0293629867 -0.0867186497
v -0.139533712 -0.0292443171 -0.0848858631
v -0.144653199 -0.0276145633 -0.0835007386
v -0.146464455 -0.0258392985 -0.083848685
v -0.0866906132 -0.0353584661 -0.103449018
v -0.0899407958 -0.0352493933 -0.10078181
v -0.0929364186 -0.0344128116 -0.100650724
v -0.0964423237 -0.0338269597 -0.0992571777
v -0.0993252888 -0.0330094163 -0.0991694233
v -0.122754912 -0.0291924881 -0.0895316563
v -0.129492872 -0.028254793 -0.086259374
v -0.136204055 -0.0269477415 -0.08416893
v -0.141102464 -0.0260857553 -0.0823593703
v -0.143284383 -0.0255463016 -0.0820411986
v -0.145061754 -0.0246156905 -0.0833381253
v -0.0862473252 -0.0328429474 -0.103448557
v -0.0893390801 -0.0318344228 -0.100781184
v -0.0924403129 -0.0315966094 -0.100650208
v -0.0959358327 -0.0309501009 -0.09925665
v -0.0989244334 -0.0307330577 -0.0991690057
v -0.122247556 -0.0263156275 -0.0895311286
v -0.1289024 -0.0248970124 -0.0862587581
v -0.135655145 -0.023831721 -0.0841683584
v -0.140552682 -0.022968868 -0.0823587986
v -0.142787419 -0.0227300977 -0.082040682
v -0.144776042 -0.0229961567 -0.0833378283
v -0.0868559042 -0.0312015582 -0.105156105
v -0.0903177558 -0.0294582091 -0.102941764
v -0.0927811756 -0.0297515014 -0.10263154
v -0.0959776849 -0.0297555659 -0.101917451
v -0.100358729 -0.0293890464 -0.100632232
v -0.11813281 -0.0251662321 -0.0931608087
v -0.127682711 -0.023160646 -0.0893648749
v -0.133179903 -0.0219912138 -0.087165314
v -0.137817497 -0.0210936581 -0.0853852152
v -0.141160516 -0.0204653018 -0.0841155745
v -0.143797118 -0.0216986349 -0.0845420487
v -0.0877710022 -0.0310713734 -0.106975708
v -0.0917614844 -0.0290671588 -0.105417244
v -0.0934935247 -0.0295631595 -0.104828066
v -0.0961422483 -0.0305965814 -0.103944352
v -0.10195223 -0.0295736217 -0.101796799
v -0.114418159 -0.025677058 -0.0970810664
v -0.126834443 -0.0234909377 -0.0924921669
v -0.131236465 -0.0218169448 -0.0908072441
v -0.135645322 -0.0208404795 -0.0891649118
v -0.140212809 -0.019435134 -0.0874384425
v -0.143208903 -0.0211080985 -0.0864707882
v -0.0878931432 -0.0316239007 -0.108660288
v -0.0919815918 -0.0294479331 -0.108164987
v -0.0940369881 -0.0290047158 -0.107462111
v -0.09687974 -0.030203054 -0.105224946
v -0.10211768 -0.0301297699 -0.102697195
v -0.11511296 -0.0268700505 -0.0985707885
v -0.127958383 -0.0233546435 -0.0946973559
v -0.132158612 -0.0211986353 -0.0941336024
v -0.136473088 -0.0198338741 -0.0929625754
v -0.140684475 -0.0183217643 -0.0919422957
v -0.142725697 -0.0197010356 -0.0899729371
v -0.087932833 -0.0330057751 -0.109729811
v -0.0922959006 -0.0315280364 -0.110364552
v -0.0950653557 -0.0307303966 -0.110318396
v -0.0978873894 -0.0310685688 -0.106638345
v -0.102119298 -0.0309719496 -0.103021425
v -0.115403021 -0.0284167567 -0.0987954956
v -0.129315143 -0.0250077521 -0.096681051
v -0.133644442 -0.0234415658 -0.0976216516
v -0.13808542 -0.0222569052 -0.0972495705
v -0.14207235 -0.0211544644 -0.0970464853
v -0.143228996 -0.0215996143 -0.0945674741
v -0.088218545 -0.0346253089 -0.109730108
v -0.0928231624 -0.0345244752 -0.110365101
v -0.0956991181 -0.034327339 -0.110319056
v -0.0982354398 -0.0330459773 -0.106638708
v -0.102245704 -0.0316911647 -0.103021557
v -0.115603887 -0.0295553686 -0.0987957044
v -0.129842405 -0.0280050592 -0.0966816009
v -0.134446159 -0.0279960164 -0.0976224871
v -0.139024806 -0.0275912262 -0.0972505489
v -0.143148529 -0.0272669245 -0.0970476065
v -0.144083531 -0.0264538817 -0.0945683645
v -0.0891272495 -0.0361792634 -0.10875296
v -0.09366672 -0.0369970948 -0.108409848
v -0.0956909319 -0.0364378015 -0.107493792
v -0.0981589265 -0.0346691423 -0.105480503
v -0.101845284 -0.0323219773 -0.102717546
v -0.11663231 -0.0300817192 -0.0975523433
v -0.129567337 -0.0303111277 -0.0948381281
v -0.134972528 -0.030450757 -0.0937418724
v -0.138953163 -0.0308413672 -0.0931708058
v -0.144820333 -0.0298080225 -0.0910015866
v -0.146140218 -0.0280807344 -0.089280351
v -0.0977961578 -0.0446891775 -0.106230194
v -0.100292108 -0.0476669368 -0.105709915
v -0.102302337 -0.0478952143 -0.105189999
v -0.10378417 -0.0470922646 -0.104761753
v -0.105431522 -0.0460917842 -0.104279741
v -0.107673088 -0.0464327522 -0.103704383
v -0.110059689 -0.0445425266 -0.102986494
v -0.13339078 -0.0396089151 -0.0965979024
v -0.153637972 -0.0410347735 -0.0913214545
v -0.16251737 -0.0380982182 -0.0888407144
v -0.160684925 -0.0367738596 -0.0892625056
v -0.157537776 -0.0370314599 -0.0901057511
v -0.151577687 -0.0333182404 -0.0915046234
v -0.0989795002 -0.0464382699 -0.104519148
v -0.100675174 -0.0467350327 -0.103599796
v -0.102703692 -0.0463715086 -0.102999183
v -0.104830983 -0.0460201422 -0.102348312
v -0.107693142 -0.0452182956 -0.101700801
v -0.112585525 -0.0441187909 -0.100406765
v -0.132796337 -0.039485198 -0.0951239765
v -0.144233929 -0.040050193 -0.0899230068
v -0.150354237 -0.0383616656 -0.0885205113
v -0.152768416 -0.0375241901 -0.0880861665
v -0.1523621 -0.0371176572 -0.0885392813
v -0.0980343477 -0.0450802782 -0.104771071
v -0.0993479242 -0.0450980422 -0.103483415
v -0.101704815 -0.0447944793 -0.102219063
v -0.104022707 -0.0445750023 -0.10073377
v -0.107904807 -0.0433615629 -0.100907596
v -0.114811766 -0.042269615 -0.0978562364
v -0.132071208 -0.0383501891 -0.0939817346
v -0.135431454 -0.038154459 -0.0914375508
v -0.138580387 -0.0375130165 -0.0904980507
v -0.144751691 -0.0364789177 -0.0879570926
v -0.147167611 -0.0357219256 -0.0880695247
v -0.0978499113 -0.0442120159 -0.104780444
v -0.0990387913 -0.0436509341 -0.103497015
v -0.101315155 -0.0429635015 -0.102236059
v -0.103517007 -0.0422119756 -0.100756735
v -0.107567108 -0.0417697469 -0.100922903
v -0.114318197 -0.0399551097 -0.0978792099
v -0.13169107 -0.0365660052 -0.0939996053
v -0.134833975 -0.0353581666 -0.0914639025
v -0.137974251 -0.0346690633 -0.0905252587
v -0.144032118 -0.0331037844 -0.087989404
v -0.146551082 -0.032830313 -0.0880975924
v -0.0974835259 -0.0432951277 -0.105178873
v -0.098685497 -0.0421777021 -0.104178684
v -0.100600519 -0.0417413678 -0.103628318
v -0.102303262 -0.0410485472 -0.102905475
v -0.104477376 -0.0405888627 -0.102309172
v -0.109128952 -0.0388421552 -0.100442264
v -0.119410102 -0.0376967741 -0.0984279993
v -0.126436773 -0.0358473606 -0.0962196003
v -0.135133231 -0.0336100873 -0.0935293043
v -0.141915665 -0.030781628 -0.0905885336
v -0.144960564 -0.0306019261 -0.0901153007
v -0.0973632068 -0.0426606282 -0.106249753
v -0.0987116729 -0.0412346405 -0.105826593
v -0.100213277 -0.0414879518 -0.10544187
v -0.101415131 -0.0413148838 -0.105116864
v -0.101840774 -0.0399207794 -0.104939823
v -0.104475959 -0.0387116658 -0.104188261
v -0.107478233 -0.0397069858 -0.103442304
v -0.118322627 -0.0382291233 -0.100510335
v -0.13267322 -0.034299765 -0.0965405998
v -0.140461014 -0.0301265113 -0.0942901482
v -0.143987709 -0.0297060819 -0.093339414
v -0.0988934574 -0.0427534043 -0.107111896
v -0.100991506 -0.0411307029 -0.107355883
v -0.103513074 -0.0405965655 -0.106665973
v -0.104908102 -0.0407927353 -0.105942441
v -0.105302368 -0.0406766985 -0.105856624
v -0.112714612 -0.038978927 -0.103918591
v -0.121560094 -0.0369781597 -0.101587933
v -0.133957839 -0.0318011799 -0.0999671065
v -0.142889189 -0.0292250013 -0.0979994026
v -0.148625549 -0.028077155 -0.0963838603
v -0.149478984 -0.0284534574 -0.0957634913
v -0.100439199 -0.0434926763 -0.10751838
v -0.103420167 -0.042323163 -0.108404504
v -0.107177444 -0.0413576512 -0.107917239
v -0.1085612 -0.0414083835 -0.10645542
v -0.108446724 -0.041799371 -0.105325579
v -0.120451494 -0.0393599858 -0.101729655
v -0.135820262 -0.0355214533 -0.0993793989
v -0.151305506 -0.0300911109 -0.101949704
v -0.154808915 -0.0291038409 -0.101763985
v -0.15750274 -0.0293431406 -0.0984721114
v -0.155539123 -0.0300768705 -0.0980035286
v -0.10070677 -0.0447465452 -0.107506477
v -0.103914601 -0.0446368 -0.108381531
v -0.107743749 -0.0440083671 -0.107891728
v -0.108983764 -0.0433849381 -0.106436717
v -0.108714296 -0.0430541082 -0.105313677
v -0.120677498 -0.0404206188 -0.10171945
v -0.136292179 -0.0377397713 -0.0993581405
v -0.152684042 -0.0365502278 -0.101886761
v -0.156289624 -0.0360456149 -0.101696797
v -0.158645743 -0.0346948318 -0.0984210967
v -0.156547049 -0.0348020613 -0.0979584659
v -0.100699594 -0.0463652261 -0.107216505
v -0.103355365 -0.0467988504 -0.107264167
v -0.105986979 -0.0462759955 -0.106569058
v -0.107389111 -0.0452495735 -0.105616538
v -0.108411621 -0.0448659414 -0.105207447
v -0.115510253 -0.0426691219 -0.102722566
v -0.134995625 -0.0393463315 -0.098007605
v -0.153662454 -0.0406420516 -0.0969753041
v -0.159852899 -0.0392343505 -0.095202863
v -0.160006489 -0.0374106559 -0.0937667221
v -0.157355873 -0.0373729623 -0.0940276086
v -0.120316295 0.00738130734 -0.0764371892
v -0.120109092 0.00608036243 -0.0791461245
v -0.11994053 0.00891124943 -0.0791447274
v -0.123599056 0.00999557807 -0.0791383516
v -0.127783528 0.0108969997 -0.0791311299
v -0.124602092 0.00742278819 -0.0791379425
v -0.120021557 0.0059547328 -0.0791461508
v -0.120679166 0.00475264727 -0.082936437
v -0.120023304 0.0112904986 -0.0829343566
v -0.126337732 0.0128978104 -0.0829234733
v -0.130463375 0.014449115 -0.0829161292
v -0.133726561 0.0140344541 -0.0829117792
v -0.129487826 0.00938368768 -0.0829205777
v -0.126542979 0.00611653705 -0.0829264777
v -0.120470639 0.00598132732 -0.0872687215
v -0.117996315 0.00878915278 -0.087271729
v -0.118022014 0.012698806 -0.0872701245
v -0.121374006 0.0152129071 -0.087263488
v -0.124150439 0.0163077626 -0.0872580024
v -0.126932704 0.0158082531 -0.087253684
v -0.129644199 0.0172757132 -0.0872489952
v -0.136285081 0.0173458034 -0.0872383922
v -0.137423406 0.01556671 -0.087237828
v -0.131210865 0.0115028507 -0.0872491715
v -0.128028564 0.00802777424 -0.0872559842
v -0.118878126 0.00570183322 -0.0926870552
v -0.116761645 0.00835276926 -0.0926892169
v -0.116730787 0.016651262 -0.0926850531
v -0.119930129 0.0181489796 -0.0926794794
v -0.127348805 0.0159920462 -0.0926692737
v -0.133602863 0.0195134678 -0.0926571629
v -0.137972655 0.019678335 -0.0926509398
v -0.137149979 0.0171690652 -0.0926523035
v -0.138988225 0.0139176849 -0.0926519965
v -0.137757674 0.0130964189 -0.0926530537
v -0.135204201 0.0138567121 -0.0926573179
v -0.128382558 0.010125679 -0.0926703498
v -0.122006458 0.00641813011 -0.0980972681
v -0.11805784 0.0125968617 -0.0981005496
v -0.1188842 0.016646772 -0.0980980294
v -0.124550887 0.0210001205 -0.0980866463
v -0.131522043 0.0220077172 -0.0980749895
v -0.136742805 0.0226525021 -0.0980669187
v -0.138663755 0.0220560718 -0.0980635094
v -0.137836524 0.0180052952 -0.0980668964
v -0.140133094 0.0143405258 -0.0980649215
v -0.140150136 0.0123640321 -0.0980661603
v -0.138085105 0.0112855375 -0.0980698888
v -0.136342691 0.0121332296 -0.0980723796
v -0.132363684 0.0119275784 -0.098078599
v -0.128585227 0.00840233219 -0.0980863052
v -0.124286596 0.0144091902 -0.100798314
v -0.12329919 0.017205534 -0.100797816
v -0.128370446 0.0205728902 -0.100788369
v -0.132354826 0.0219899109 -0.100781921
v -0.135821516 0.0207312447 -0.100776858
v -0.135383388 0.016969825 -0.100779314
v -0.133423116 0.0153038261 -0.100783151
v -0.127668712 0.015500491 -0.100791945
v -0.1295269 0.0180817864 -0.102142281
v -0.129006151 0.0036124492 -0.0853634817
v -0.129528448 0.000560382324 -0.0936443348
v -0.129357759 0.00155858489 -0.0888783913
v -0.12994113 -0.00184871797 -0.0835768919
v -0.130121138 -0.00290637088 -0.0809559171
v -0.129880375 -0.00149703124 -0.0783344894
v -0.129206828 0.00243710835 -0.0789888452
v -0.128513362 0.00648909452 -0.0796440412
v -0.128161134 0.00854450864 -0.084348769
v -0.128593302 0.0060204592 -0.0896522239
v -0.12916656 0.00267472177 -0.0937635236
v -0.133972737 0.00108001117 -0.0910220723
v -0.133912889 0.00143196749 -0.0872102662
v -0.134505754 -0.00203360557 -0.0807771268
v -0.134807865 -0.00379552833 -0.079287932
v -0.134636318 -0.0027989688 -0.0749985665
v -0.133519509 0.00372011127 -0.0761888106
v -0.132695315 0.00853462689 -0.0767840782
v -0.132453 0.00994425647 -0.0802983504
v -0.13235351 0.0105313649 -0.0827998346
v -0.133027185 0.00659805654 -0.0865542431
v -0.133440278 0.00419162924 -0.0906645037
v -0.138426586 0.00153924287 -0.0897714956
v -0.138385736 0.00177389288 -0.084231039
v -0.138839277 -0.000869800424 -0.0800021301
v -0.139160426 -0.00274876042 -0.0782157478
v -0.13912052 -0.00251446027 -0.0754151688
v -0.138637417 0.000304339713 -0.0754146514
v -0.138094571 0.00347487059 -0.0749972834
v -0.137400266 0.00752702515 -0.0765449779
v -0.137229795 0.00852668789 -0.0795238275
v -0.137582306 0.00647047195 -0.084348887
v -0.137843889 0.00494616567 -0.0884607191
v -0.142981842 0.00141426719 -0.0922140558
v -0.143132419 0.000532575181 -0.0898902593
v -0.143242196 -0.000114096772 -0.083992967
v -0.143655059 -0.00252288363 -0.0801807993
v -0.143694808 -0.00275733925 -0.077559675
v -0.142347662 0.00511060266 -0.0770816562
v -0.141934788 0.00751845712 -0.0805368218
v -0.142438918 0.00458433753 -0.0893540177
v -0.14269935 0.0030564341 -0.0835755974
v -0.143877753 -0.00837276494 -0.0796784581
v -0.136820826 -0.0154448956 -0.0802215592
v -0.139078834 -0.0160924994 -0.0802216158
v -0.14530345 -0.0124107679 -0.0802207413
v -0.150976428 -0.0124557814 -0.0802205854
v -0.153389316 -0.00867731621 -0.080219803
v -0.154382231 -0.00338746619 -0.0802187769
v -0.150172879 -0.00259054147 -0.0802187487
v -0.147500347 -0.00427116785 -0.080219143
v -0.141319742 -0.00321400668 -0.0802191228
v -0.136713313 -0.00391607237 -0.0802193887
v -0.135034424 -0.00718080833 -0.0802200529
v -0.136777161 -0.0117683215 -0.0802208673
v -0.135788949 -0.015516613 -0.0850956775
v -0.140001126 -0.0147746313 -0.0850954155
v -0.143906216 -0.0104028283 -0.0850944781
v -0.148102486 -0.0117525795 -0.0850946109
v -0.151086844 -0.0108960416 -0.085094363
v -0.151786576 -0.0076926855 -0.0850937387
v -0.153096276 -0.00482302109 -0.0850931597
v -0.150680511 -0.00453412608 -0.0850931753
v -0.147518801 -0.00344187554 -0.085093061
v -0.142984148 -0.00517422251 -0.085093519
v -0.137459264 -0.0056534643 -0.0850937695
v -0.13599126 -0.00668178944 -0.0850940059
v -0.1362124 -0.0113721959 -0.0850948838
v -0.135759671 -0.0153544184 -0.0905112841
v -0.139113946 -0.0150394976 -0.0905111276
v -0.144046629 -0.0112016089 -0.090510261
v -0.14651598 -0.0124159356 -0.0905104184
v -0.149244929 -0.0101192345 -0.0905099063
v -0.1518811 -0.00822630976 -0.090509473
v -0.15204792 -0.00511819185 -0.0905088822
v -0.148637369 -0.00511336531 -0.0905089801
v -0.143370447 -0.0073611747 -0.0905095566
v -0.137823825 -0.00833778537 -0.0905099014
v -0.13690933 -0.0106425478 -0.0905103625
v -0.14030086 -0.0114747264 -0.0959260575
v -0.144743558 -0.0104719606 -0.0959257397
v -0.147394088 -0.011160347 -0.0959257926
v -0.150338206 -0.00695737298 -0.0959249149
v -0.148032708 -0.00510879063 -0.0959246332
v -0.145147143 -0.00589255676 -0.0959248646
v -0.143492682 -0.00805337281 -0.0959253199
v -0.140003983 -0.00916198984 -0.0959256301
v -0.144411041 -0.00921003045 -0.0972798542
v -0.169923325 -0.0269867024 -0.0918512332
v -0.169765821 -0.0260885347 -0.0942348137
v -0.1686226 -0.0273248334 -0.0898193866
v -0.168929169 -0.0290668892 -0.0925942457
v -0.169254755 -0.0309148538 -0.0943535836
v -0.168650539 -0.0274818666 -0.0979879293
v -0.168064366 -0.0241555101 -0.0967759496
v -0.167943058 -0.0234698566 -0.0934137967
v -0.16403908 -0.0244855198 -0.0851676021
v -0.1643466 -0.0262270156 -0.0909136955
v -0.16484885 -0.0290773132 -0.0939235799
v -0.165164951 -0.0308721606 -0.0970502475
v -0.164708739 -0.0282843229 -0.0991605713
v -0.164123452 -0.0249578323 -0.0986521916
v -0.163537277 -0.0216323564 -0.0973622267
v -0.162718293 -0.0169857019 -0.0992364841
v -0.161974578 -0.0127614122 -0.0991577239
v -0.161770094 -0.0116004056 -0.0938423895
v -0.162374267 -0.0150328057 -0.0887228583
v -0.163304038 -0.0203139778 -0.0856746081
v -0.158460569 -0.0237253126 -0.0823922158
v -0.159083948 -0.0272641378 -0.0827056715
v -0.159381876 -0.0289541067 -0.085990024
v -0.159568197 -0.030007532 -0.092008072
v -0.159503394 -0.0296375085 -0.0966983792
v -0.158861907 -0.0259942443 -0.0988085094
v -0.157921657 -0.0206616845 -0.0986515613
v -0.156629094 -0.0133218288 -0.100761013
v -0.156229053 -0.011050957 -0.0992355533
v -0.156535431 -0.0127951176 -0.0954449279
v -0.156293672 -0.0114229965 -0.0884485397
v -0.15641481 -0.0121089105 -0.0858300966
v -0.157335041 -0.0173373058 -0.0823520518
v -0.152939366 -0.0232829406 -0.0851676971
v -0.153664954 -0.0274011451 -0.0872012657
v -0.154084144 -0.0297770847 -0.0921650249
v -0.154084263 -0.029776311 -0.0962687774
v -0.154009022 -0.0293520352 -0.0991610827
v -0.153441962 -0.0261318115 -0.100333736
v -0.152456667 -0.0205350959 -0.0994722727
v -0.151395249 -0.0145159473 -0.10091736
v -0.150986629 -0.0121917533 -0.101855356
v -0.15089309 -0.0116642316 -0.100838853
v -0.151125835 -0.0129849647 -0.0954451205
v -0.15101397 -0.0123526925 -0.0893084379
v -0.151125602 -0.0129864754 -0.0874325785
v -0.152139367 -0.0187424215 -0.0848150654
v -0.147239738 -0.0218367231 -0.0855193901
v -0.147696089 -0.0244253436 -0.0884512403
v -0.148207922 -0.0273272344 -0.0935719318
v -0.148459066 -0.0287522395 -0.0958389624
v -0.148486862 -0.0289110898 -0.0989661974
v -0.147464356 -0.0231028383 -0.0986523246
v -0.146653998 -0.0185083735 -0.0994720588
v -0.146133658 -0.0155517939 -0.0994715164
v -0.145928395 -0.0143902644 -0.0969307199
v -0.146235621 -0.0161336766 -0.0925144805
v -0.146217282 -0.0160298808 -0.0869255234
v -0.146569617 -0.0180352533 -0.0856746635
v -0.147258779 -0.0219433128 -0.0854804173
v -0.146507037 -0.0207668501 -0.0927891604
v -0.14432373 0.0246028704 -0.0848305146
v -0.139312993 0.0206243243 -0.0832543766
v -0.142224505 0.0219791051 -0.0786329832
v -0.148450797 0.0248822308 -0.0806503377
v -0.148785378 0.0250395989 -0.0837220468
v -0.150054098 0.025630848 -0.0862598828
v -0.14896578 0.0251237501 -0.088986025
v -0.143758644 0.0226976217 -0.0899943752
v -0.141995157 0.0218753276 -0.0887216907
v -0.141248191 0.0165957579 -0.0836943972
v -0.14239193 0.0171277202 -0.0796035077
v -0.143924757 0.017843333 -0.0755628318
v -0.146871062 0.0192154108 -0.0753761886
v -0.148486367 0.0199693107 -0.0768438549
v -0.151326154 0.0212924722 -0.0790938257
v -0.149694529 0.0205326245 -0.0828425041
v -0.149674771 0.0205250845 -0.0887884432
v -0.151283207 0.0212758951 -0.0922533948
v -0.148182739 0.0198307015 -0.0951686699
v -0.145778884 0.0187096954 -0.0946256543
v -0.143439883 0.0176189804 -0.0893549964
v -0.141456961 0.0101204777 -0.084321225
v -0.141373638 0.0100805969 -0.0795442123
v -0.141784223 0.0102718346 -0.0738919709
v -0.144829294 0.0116905882 -0.0731698182
v -0.148461052 0.0133841111 -0.0733756223
v -0.151647434 0.014869075 -0.0746524742
v -0.15193605 0.0150045665 -0.0765552775
v -0.150346098 0.0142642548 -0.0828376016
v -0.15125962 0.0146906879 -0.088737506
v -0.154237279 0.0160802441 -0.0939621647
v -0.152070066 0.0150705932 -0.0959545053
v -0.149419272 0.0138345688 -0.0964331246
v -0.145844626 0.0121673831 -0.0934987003
v -0.143696332 0.0111654375 -0.0904211376
v -0.143634509 0.00456304716 -0.0830545177
v -0.143995698 0.00473086875 -0.0772549801
v -0.146261675 0.00578631122 -0.0746300813
v -0.149691581 0.00738662288 -0.0766390953
v -0.152635294 0.0087588099 -0.0770382095
v -0.155620669 0.0101504686 -0.0796295695
v -0.154526343 0.00964029991 -0.0844517793
v -0.155154688 0.00993452442 -0.0874757964
v -0.15204906 0.00848697937 -0.0917064219
v -0.150037775 0.00754884837 -0.0917005917
v -0.148574924 0.0068673741 -0.0884305842
v -0.147134441 -0.000378354098 -0.0825215835
v -0.146703659 -0.000579124461 -0.0789620436
v -0.149116095 0.000545672045 -0.0766308728
v -0.153874408 0.00276340477 -0.0775704698
v -0.157305161 0.00436187262 -0.0789945984
v -0.159607652 0.00543541108 -0.080463918
v -0.159060924 0.00518205544 -0.082850327
v -0.154385942 0.00300248925 -0.086784792
v -0.152564482 0.00215387418 -0.0883386418
v -0.150654545 0.00126314724 -0.0870651077
v -0.152987112 -0.00422209869 -0.0827283655
v -0.153973225 -0.00376321573 -0.0815610726
v -0.157117955 -0.00229765871 -0.0809853484
v -0.160648347 -0.000651657806 -0.0818245762
v -0.157108508 -0.0023014566 -0.0838127453
v -0.153865858 -0.00381289675 -0.0845340529
v -0.155973056 -0.00447461766 -0.0830766602
v -0.229623896 -0.00288644904 -0.102204855
v -0.228795926 -0.00556256123 -0.0996881952
v -0.228034758 -0.00234152999 -0.100395543
v -0.225944773 0.00290018525 -0.104687265
v -0.225079536 0.00533375031 -0.106291593
v -0.226151502 0.000187324446 -0.105678182
v -0.227531121 -0.00435461138 -0.103556935
v -0.228713456 -0.00684042604 -0.100820957
v -0.225797781 -0.0103250228 -0.0919019275
v -0.225430041 -0.00648571319 -0.0907695635
v -0.222891813 0.00318452702 -0.0938343638
v -0.220813847 0.00754943852 -0.0986444198
v -0.218125741 0.0104315922 -0.106663429
v -0.216458878 0.011294185 -0.112230589
v -0.215887707 0.00965371001 -0.115391914
v -0.217004769 0.00484687544 -0.11440151
v -0.218990402 -0.00343753468 -0.112468982
v -0.220079122 -0.006270696 -0.110299764
v -0.222079158 -0.0102638582 -0.105535565
v -0.224861691 -0.0132387946 -0.0972332237
v -0.225636341 -0.0126087073 -0.093977635
v -0.220459685 -0.0116516378 -0.0832017883
v -0.220338732 -0.00892498819 -0.0818798609
v -0.218816673 -0.000284010944 -0.0818782759
v -0.217508005 0.00349976992 -0.0842370859
v -0.216055323 0.00577441085 -0.088104764
v -0.213561318 0.00885567122 -0.0952745579
v -0.211042297 0.0128120138 -0.101972811
v -0.209216912 0.0139216638 -0.107963649
v -0.208149195 0.0115347714 -0.113436089
v -0.208272442 0.00638827559 -0.116315575
v -0.209278546 0.00112061049 -0.116033192
v -0.210383597 -0.00275310607 -0.114476787
v -0.212230095 -0.00820255082 -0.11122318
v -0.213527388 -0.0128691804 -0.109478887
v -0.214356324 -0.0145940036 -0.107545156
v -0.21564388 -0.0140362572 -0.102449116
v -0.217433548 -0.0166915278 -0.097591089
v -0.218369096 -0.0180672819 -0.0950438058
v -0.219446081 -0.0177692774 -0.0908923079
v -0.213990907 -0.0131237275 -0.078746701
v -0.211632522 0.00048413255 -0.0786029639
v -0.210640025 0.00371835442 -0.0801594851
v -0.207022282 0.00676850005 -0.0914807295
v -0.202594707 0.0118744171 -0.104453161
v -0.201084854 0.0142487396 -0.108462061
v -0.200067591 0.0134655037 -0.112708964
v -0.200119015 0.00902084832 -0.115398556
v -0.200863742 0.00596184712 -0.114644388
v -0.203554384 -0.00428814009 -0.111390795
v -0.205740051 -0.0134165876 -0.109269523
v -0.206547887 -0.0175629691 -0.108987802
v -0.2074617 -0.0195477824 -0.106912011
v -0.208326549 -0.0181865317 -0.102854767
v -0.209860079 -0.0183013149 -0.0972883361
v -0.211295648 -0.0188743386 -0.0923822691
v -0.212663877 -0.0175343041 -0.0864845657
v -0.206487023 -0.0125753801 -0.0767928532
v -0.206396381 -0.00995185717 -0.0754241534
v -0.204408509 0.00119079553 -0.0755165607
v -0.20341859 0.00426126679 -0.0771666948
v -0.202244711 0.00509918877 -0.0809410535
v -0.19825597 0.0067642787 -0.0945267381
v -0.195291585 0.0104775364 -0.103017842
v -0.194713663 0.0102657548 -0.105282935
v -0.194966216 0.00679129352 -0.106603265
v -0.197931565 -0.00989711214 -0.106512743
v -0.198696768 -0.0154816762 -0.107316155
v -0.199295858 -0.0191712927 -0.107504864
v -0.200589152 -0.0211980103 -0.10406173
v -0.200983509 -0.0200841551 -0.101891788
v -0.202291207 -0.017819625 -0.0956169825
v -0.20472149 -0.017778342 -0.0866529433
v -0.206055993 -0.015951364 -0.0805671165
v -0.19925323 -0.013850156 -0.0750273706
v -0.198864591 -0.01083997 -0.0745077792
v -0.197476711 -0.00310968831 -0.0745999441
v -0.19713746 -9.08796248e-05 -0.0738923203
v -0.195025993 0.00657694105 -0.0773346045
v -0.193944809 0.00732208094 -0.0808264967
v -0.191367766 0.00461501928 -0.0920534792
v -0.189245424 0.00748630178 -0.0979980698
v -0.188508001 0.00664218313 -0.101252831
v -0.188938237 0.00369347678 -0.101583512
v -0.190085014 -0.00594700633 -0.103614644
v -0.190641754 -0.00881870998 -0.103425405
v -0.190976519 -0.0130487359 -0.104935639
v -0.191889319 -0.0161875863 -0.103616522
v -0.193712716 -0.019330667 -0.0989457503
v -0.19593733 -0.0219100597 -0.0924361429
v -0.197128801 -0.020656516 -0.0872472589
v -0.198899235 -0.0178162209 -0.0788961934
v -0.191012737 -0.0145877898 -0.0766108488
v -0.190775787 -0.0110535613 -0.0751951921
v -0.188343303 -0.00103511808 -0.0776464381
v -0.186819395 0.00667015241 -0.0782576468
v -0.186578131 0.0103672661 -0.0767483774
v -0.185982258 0.0120771646 -0.077832932
v -0.185003118 0.0112999616 -0.0819368604
v -0.184613604 0.00738331083 -0.0859001237
v -0.183274444 0.00297014523 -0.093685647
v -0.182752855 0.00287787885 -0.0956665038
v -0.182529123 0.00129862549 -0.0975063916
v -0.183130119 -0.00101428839 -0.0967997442
v -0.183129384 -0.0068434016 -0.100574459
v -0.183572476 -0.0108889761 -0.101566487
v -0.184526007 -0.0139654806 -0.100056727
v -0.186066924 -0.0173240564 -0.0965670453
v -0.188231332 -0.0232684807 -0.0924634839
v -0.189315881 -0.024837566 -0.0894916473
v -0.189694137 -0.0208671898 -0.0855275074
v -0.190963066 -0.0168490415 -0.0782619609
v -0.183112334 -0.0185634308 -0.0790440971
v -0.181745678 -0.0142935507 -0.0813083683
v -0.180624443 -0.00822264096 -0.0814952871
v -0.180734873 -0.00506905277 -0.0790416218
v -0.179950709 0.00128142208 -0.0778143476
v -0.180167252 0.00769776951 -0.0728593388
v -0.180145045 0.010222466 -0.0713026263
v -0.179323564 0.0161267767 -0.070499157
v -0.178569086 0.0174235376 -0.0724329668
v -0.176614866 0.0137273964 -0.0820102985
v -0.176102745 0.0131421418 -0.0842745936
v -0.176259077 0.00926662207 -0.0862102188
v -0.176653307 0.00251620003 -0.0891359234
v -0.175712935 -1.28892735e-05 -0.0942314586
v -0.175623207 -0.00387694055 -0.097062185
v -0.175667041 -0.00667283712 -0.0987142635
v -0.176944163 -0.0132680478 -0.0982908844
v -0.178800389 -0.0171753162 -0.0939989161
v -0.180439935 -0.0216706859 -0.0908863752
v -0.181589159 -0.025649274 -0.0892355393
v -0.182304813 -0.0256325447 -0.0865944186
v -0.182760244 -0.0211553926 -0.082016697
v -0.175575192 -0.0206618943 -0.0789303344
v -0.175463624 -0.0190858272 -0.078316555
v -0.174636068 -0.0132924093 -0.0776075571
v -0.174523044 -0.00951915943 -0.0755792345
v -0.173214321 -0.0061737748 -0.0782197386
v -0.171305834 0.00239821345 -0.0796808328
v -0.170066495 0.00630409976 -0.0817086135
v -0.169588995 0.00545110006 -0.0840197475
v -0.169945616 0.00276410652 -0.0844448301
v -0.169551733 -0.0014835032 -0.0886447113
v -0.16907966 -0.00739452766 -0.094213113
v -0.169489355 -0.0151855044 -0.0977524973
v -0.170232204 -0.0193994109 -0.0977532702
v -0.170874914 -0.0207168711 -0.0962431872
v -0.171722455 -0.0191918581 -0.0921391217
v -0.173147459 -0.0210869939 -0.0881292679
v -0.174738715 -0.0237776204 -0.0840251089
v -0.17518078 -0.0222150132 -0.0813837046
v -0.169114914 -0.0182243027 -0.079209075
v -0.169052347 -0.0128465304 -0.0759526154
v -0.168570147 -0.00974269534 -0.0757163539
v -0.166493304 -0.0033434865 -0.0792063454
v -0.165666134 -0.00134575105 -0.0809519942
v -0.164411581 -0.00129098345 -0.0855280162
v -0.164169749 -0.00210259381 -0.0869431735
v -0.16559128 -0.00405230918 -0.0829809863
v -0.166717082 -0.00825354021 -0.0815667485
v -0.167605228 -0.0145313236 -0.0823694212
v -0.167856972 -0.0175656539 -0.0834080547
v -0.168308076 -0.0199053012 -0.0832663761
v -0.168780223 -0.0202626532 -0.0817569838
v -0.166837183 -0.0160959007 -0.078908929
v -0.166474886 -0.0103314651 -0.0765015779
v -0.165355041 -0.00695418041 -0.0784358711
f 14 2 1
f 14 15 3
f 14 3 2
f 15 16 4
f 15 4 3
f 16 17 5
f 16 5 4
f 17 18 6
f 17 6 5
f 18 19 7
f 18 7 6
f 19 20 8
f 19 8 7
f 20 21 9
f 20 9 8
f 21 22 10
f 21 10 9
f 22 23 11
f 22 11 10
f 23 24 12
f 23 12 11
f 24 13 12
f 25 14 1
f 25 26 15
f 25 15 14
f 26 27 16
f 26 16 15
f 27 28 17
f 27 17 16
f 28 29 18
f 28 18 17
f 29 30 19
f 29 19 18
f 30 31 20
f 30 20 19
f 31 32 21
f 31 21 20
f 32 33 22
f 32 22 21
f 33 34 23
f 33 23 22
f 34 35 24
f 34 24 23
f 35 13 24
f 36 25 1
f 36 37 26
f 36 26 25
f 37 38 27
f 37 27 26
f 38 39 28
f 38 28 27
f 39 40 29
f 39 29 28
f 40 41 30
f 40 30 29
f 41 42 31
f 41 31 30
f 42 43 32
f 42 32 31
f 43 44 33
f 43 33 32
f 44 45 34
f 44 34 33
f 45 46 35
f 45 35 34
f 46 13 35
f 47 36 1
f 47 48 37
f 47 37 36
f 48 49 38
f 48 38 37
f 49 50 39
f 49 39 38
f 50 51 40
f 50 40 39
f 51 52 41
f 51 41 40
f 52 53 42
f 52 42 41
f 53 54 43
f 53 43 42
f 54 55 44
f 54 44 43
f 55 56 45
f 55 45 44
f 56 57 46
f 56 46 45
f 57 13 46
f 58 47 1
f 58 59 48
f 58 48 47
f 59 60 49
f 59 49 48
f 60 61 50
f 60 50 49
f 61 62 51
f 61 51 50
f 62 63 52
f 62 52 51
f 63 64 53
f 63 53 52
f 64 65 54
f 64 54 53
f 65 66 55
f 65 55 54
f 66 67 56
f 66 56 55
f 67 68 57
f 67 57 56
f 68 13 57
f 69 58 1
f 69 70 59
f 69 59 58
f 70 71 60
f 70 60 59
f 71 72 61
f 71 61 60
f 72 73 62
f 72 62 61
f 73 74 63
f 73 63 62
f 74 75 64
f 74 64 63
f 75 76 65
f 75 65 64
f 76 77 66
f 76 66 65
f 77 78 67
f 77 67 66
f 78 79 68
f 78 68 67
f 79 13 68
f 80 69 1
f 80 81 70
f 80 70 69
f 81 82 71
f 81 71 70
f 82 83 72
f 82 72 71
f 83 84 73
f 83 73 72
f 84 85 74
f 84 74 73
f 85 86 75
f 85 75 74
f 86 87 76
f 86 76 75
f 87 88 77
f 87 77 76
f 88 89 78
f 88 78 77
f 89 90 79
f 89 79 78
f 90 13 79
f 91 80 1
f 91 92 81
f 91 81 80
f 92 93 82
f 92 82 81
f 93 94 83
f 93 83 82
f 94 95 84
f 94 84 83
f 95 96 85
f 95 85 84
f 96 97 86
f 96 86 85
f 97 98 87
f 97 87 86
f 98 99 88
f 98 88 87
f 99 100 89
f 99 89 88
f 100 101 90
f 100 90 89
f 101 13 90
f 102 91 1
f 102 103 92
f 102 92 91
f 103 104 93
f 103 93 92
f 104 105 94
f 104 94 93
f 105 106 95
f 105 95 94
f 106 107 96
f 106 96 95
f 107 108 97
f 107 97 96
f 108 109 98
f 108 98 97
f 109 110 99
f 109 99 98
f 110 111 100
f 110 100 99
f 111 112 101
f 111 101 100
f 112 13 101
f 2 102 1
f 2 3 103
f 2 103 102
f 3 4 104
f 3 104 103
f 4 5 105
f 4 105 104
f 5 6 106
f 5 106 105
f 6 7 107
f 6 107 106
f 7 8 108
f 7 108 107
f 8 9 109
f 8 109 108
f 9 10 110
f 9 110 109
f 10 11 111
f 10 111 110
f 11 12 112
f 11 112 111
f 12 13 112
f 126 114 113
f 126 127 115
f 126 115 114
f 127 128 116
f 127 116 115
f 128 129 117
f 128 117 116
f 129 130 118
f 129 118 117
f 130 131 119
f 130 119 118
f 131 132 120
f 131 120 119
f 132 133 121
f 132 121 120
f 133 134 122
f 133 122 121
f 134 135 123
f 134 123 122
f 135 136 124
f 135 124 123
f 136 125 124
f 137 126 113
f 137 138 127
f 137 127 126
f 138 139 128
f 138 128 127
f 139 140 129
f 139 129 128
f 140 141 130
f 140 130 129
f 141 142 131
f 141 131 130
f 142 143 132
f 142 132 131
f 143 144 133
f 143 133 132
f 144 145 134
f 144 134 133
f 145 146 135
f 145 135 134
f 146 147 136
f 146 136 135
f 147 125 136
f 148 137 113
f 148 149 138
f 148 138 137
f 149 150 139
f 149 139 138
f 150 151 140
f 150 140 139
f 151 152 141
f 151 141 140
f 152 153 142
f 152 142 141
f 153 154 143
f 153 143 142
f 154 155 144
f 154 144 143
f 155 156 145
f 155 145 144
f 156 157 146
f 156 146 145
f 157 158 147
f 157 147 146
f 158 125 147
f 159 148 113
f 159 160 149
f 159 149 148
f 160 161 150
f 160 150 149
f 161 162 151
f 161 151 150
f 162 163 152
f 162 152 151
f 163 164 153
f 163 153 152
f 164 165 154
f 164 154 153
f 165 166 155
f 165 155 154
f 166 167 156
f 166 156 155
f 167 168 157
f 167 157 156
f 168 169 158
f 168 158 157
f 169 125 158
f 170 159 113
f 170 171 160
f 170 160 159
f 171 172 161
f 171 161 160
f 172 173 162
f 172 162 161
f 173 174 163
f 173 163 162
f 174 175 164
f 174 164 163
f 175 176 165
f 175 165 164
f 176 177 166
f 176 166 165
f 177 178 167
f 177 167 166
f 178 179 168
f 178 168 167
f 179 180 169
f 179 169 168
f 180 125 169
f 181 170 113
f 181 182 171
f 181 171 170
f 182 183 172
f 182 172 171
f 183 184 173
f 183 173 172
f 184 185 174
f 184 174 173
f 185 186 175
f 185 175 174
f 186 187 176
f 186 176 175
f 187 188 177
f 187 177 176
f 188 189 178
f 188 178 177
f 189 190 179
f 189 179 178
f 190 191 180
f 190 180 179
f 191 125 180
f 192 181 113
f 192 193 182
f 192 182 181
f 193 194 183
f 193 183 182
f 194 195 184
f 194 184 183
f 195 196 185
f 195 185 184
f 196 197 186
f 196 186 185
f 197 198 187
f 197 187 186
f 198 199 188
f 198 188 187
f 199 200 189
f 199 189 188
f 200 201 190
f 200 190 189
f 201 202 191
f 201 191 190
f 202 125 191
f 203 192 113
f 203 204 193
f 203 193 192
f 204 205 194
f 204 194 193
f 205 206 195
f 205 195 194
f 206 207 196
f 206 196 195
f 207 208 197
f 207 197 196
f 208 209 198
f 208 198 197
f 209 210 199
f 209 199 198
f 210 211 200
f 210 200 199
f 211 212 201
f 211 201 200
f 212 213 202
f 212 202 201
f 213 125 202
f 214 203 113
f 214 215 204
f 214 204 203
f 215 216 205
f 215 205 204
f 216 217 206
f 216 206 205
f 217 218 207
f 217 207 206
f 218 219 208
f 218 208 207
f 219 220 209
f 219 209 208
f 220 221 210
f 220 210 209
f 221 222 211
f 221 211 210
f 222 223 212
f 222 212 211
f 223 224 213
f 223 213 212
f 224 125 213
f 114 214 113
f 114 115 215
f 114 215 214
f 115 116 216
f 115 216 215
f 116 117 217
f 116 217 216
f 117 118 218
f 117 218 217
f 118 119 219
f 118 219 218
f 119 120 220
f 119 220 219
f 120 121 221
f 120 221 220
f 121 122 222
f 121 222 221
f 122 123 223
f 122 223 222
f 123 124 224
f 123 224 223
f 124 125 224
f 238 226 225
f 238 239 227
f 238 227 226
f 239 240 228
f 239 228 227
f 240 241 229
f 240 229 228
f 241 242 230
f 241 230 229
f 242 243 231
f 242 231 230
f 243 244 232
f 243 232 231
f 244 245 233
f 244 233 232
f 245 246 234
f 245 234 233
f 246 247 235
f 246 235 234
f 247 248 236
f 247 236 235
f 248 237 236
f 249 238 225
f 249 250 239
f 249 239 238
f 250 251 240
f 250 240 239
f 251 252 241
f 251 241 240
f 252 253 242
f 252 242 241
f 253 254 243
f 253 243 242
f 254 255 244
f 254 244 243
f 255 256 245
f 255 245 244
f 256 257 246
f 256 246 245
f 257 258 247
f 257 247 246
f 258 259 248
f 258 248 247
f 259 237 248
f 260 249 225
f 260 261 250
f 260 250 249
f 261 262 251
f 261 251 250
f 262 263 252
f 262 252 251
f 263 264 253
f 263 253 252
f 264 265 254
f 264 254 253
f 265 266 255
f 265 255 254
f 266 267 256
f 266 256 255
f 267 268 257
f 267 257 256
f 268 269 258
f 268 258 257
f 269 270 259
f 269 259 258
f 270 237 259
f 271 260 225
f 271 272 261
f 271 261 260
f 272 273 262
f 272 262 261
f 273 274 263
f 273 263 262
f 274 275 264
f 274 264 263
f 275 276 265
f 275 265 264
f 276 277 266
f 276 266 265
f 277 278 267
f 277 267 266
f 278 279 268
f 278 268 267
f 279 280 269
f 279 269 268
f 280 281 270
f 280 270 269
f 281 237 270
f 282 271 225
f 282 283 272
f 282 272 271
f 283 284 273
f 283 273 272
f 284 285 274
f 284 274 273
f 285 286 275
f 285 275 274
f 286 287 276
f 286 276 275
f 287 288 277
f 287 277 276
f 288 289 278
f 288 278 277
f 289 290 279
f 289 279 278
f 290 291 280
f 290 280 279
f 291 292 281
f 291 281 280
f 292 237 281
f 293 282 225
f 293 294 283
f 293 283 282
f 294 295 284
f 294 284 283
f 295 296 285
f 295 285 284
f 296 297 286
f 296 286 285
f 297 298 287
f 297 287 286
f 298 299 288
f 298 288 287
f 299 300 289
f 299 289 288
f 300 301 290
f 300 290 289
f 301 302 291
f 301 291 290
f 302 303 292
f 302 292 291
f 303 237 292
f 304 293 225
f 304 305 294
f 304 294 293
f 305 306 295
f 305 295 294
f 306 307 296
f 306 296 295
f 307 308 297
f 307 297 296
f 308 309 298
f 308 298 297
f 309 310 299
f 309 299 298
f 310 311 300
f 310 300 299
f 311 312 301
f 311 301 300
f 312 313 302
f 312 302 301
f 313 314 303
f 313 303 302
f 314 237 303
f 315 304 225
f 315 316 305
f 315 305 304
f 316 317 306
f 316 306 305
f 317 318 307
f 317 307 306
f 318 319 308
f 318 308 307
f 319 320 309
f 319 309 308
f 320 321 310
f 320 310 309
f 321 322 311
f 321 311 310
f 322 323 312
f 322 312 311
f 323 324 313
f 323 313 312
f 324 325 314
f 324 314 313
f 325 237 314
f 326 315 225
f 326 327 316
f 326 316 315
f 327 328 317
f 327 317 316
f 328 329 318
f 328 318 317
f 329 330 319
f 329 319 318
f 330 331 320
f 330 320 319
f 331 332 321
f 331 321 320
f 332 333 322
f 332 322 321
f 333 334 323
f 333 323 322
f 334 335 324
f 334 324 323
f 335 336 325
f 335 325 324
f 336 237 325
f 226 326 225
f 226 227 327
f 226 327 326
f 227 228 328
f 227 328 327
f 228 229 329
f 228 329 328
f 229 230 330
f 229 330 329
f 230 231 331
f 230 331 330
f 231 232 332
f 231 332 331
f 232 233 333
f 232 333 332
f 233 234 334
f 233 334 333
f 234 235 335
f 234 335 334
f 235 236 336
f 235 336 335
f 236 237 336
f 350 338 337
f 350 351 339
f 350 339 338
f 351 352 340
f 351 340 339
f 352 353 341
f 352 341 340
f 353 354 342
f 353 342 341
f 354 355 343
f 354 343 342
f 355 356 344
f 355 344 343
f 356 357 345
f 356 345 344
f 357 358 346
f 357 346 345
f 358 359 347
f 358 347 346
f 359 360 348
f 359 348 347
f 360 349 348
f 361 350 337
f 361 362 351
f 361 351 350
f 362 363 352
f 362 352 351
f 363 364 353
f 363 353 352
f 364 365 354
f 364 354 353
f 365 366 355
f 365 355 354
f 366 367 356
f 366 356 355
f 367 368 357
f 367 357 356
f 368 369 358
f 368 358 357
f 369 370 359
f 369 359 358
f 370 371 360
f 370 360 359
f 371 349 360
f 372 361 337
f 372 373 362
f 372 362 361
f 373 374 363
f 373 363 362
f 374 375 364
f 374 364 363
f 375 376 365
f 375 365 364
f 376 377 366
f 376 366 365
f 377 378 367
f 377 367 366
f 378 379 368
f 378 368 367
f 379 380 369
f 379 369 368
f 380 381 370
f 380 370 369
f 381 382 371
f 381 371 370
f 382 349 371
f 383 372 337
f 383 384 373
f 383 373 372
f 384 385 374
f 384 374 373
f 385 386 375
f 385 375 374
f 386 387 376
f 386 376 375
f 387 388 377
f 387 377 376
f 388 389 378
f 388 378 377
f 389 390 379
f 389 379 378
f 390 391 380
f 390 380 379
f 391 392 381
f 391 381 380
f 392 393 382
f 392 382 381
f 393 349 382
f 394 383 337
f 394 395 384
f 394 384 383
f 395 396 385
f 395 385 384
f 396 397 386
f 396 386 385
f 397 398 387
f 397 387 386
f 398 399 388
f 398 388 387
f 399 400 389
f 399 389 388
f 400 401 390
f 400 390 389
f 401 402 391
f 401 391 390
f 402 403 392
f 402 392 391
f 403 404 393
f 403 393 392
f 404 349 393
f 405 394 337
f 405 406 395
f 405 395 394
f 406 407 396
f 406 396 395
f 407 408 397
f 407 397 396
f 408 409 398
f 408 398 397
f 409 410 399
f 409 399 398
f 410 411 400
f 410 400 399
f 411 412 401
f 411 401 400
f 412 413 402
f 412 402 401
f 413 414 403
f 413 403 402
f 414 415 404
f 414 404 403
f 415 349 404
f 416 405 337
f 416 417 406
f 416 406 405
f 417 418 407
f 417 407 406
f 418 419 408
f 418 408 407
f 419 420 409
f 419 409 408
f 420 421 410
f 420 410 409
f 421 422 411
f 421 411 410
f 422 423 412
f 422 412 411
f 423 424 413
f 423 413 412
f 424 425 414
f 424 414 413
f 425 426 415
f 425 415 414
f 426 349 415
f 427 416 337
f 427 428 417
f 427 417 416
f 428 429 418
f 428 418 417
f 429 430 419
f 429 419 418
f 430 431 420
f 430 420 419
f 431 432 421
f 431 421 420
f 432 433 422
f 432 422 421
f 433 434 423
f 433 423 422
f 434 435 424
f 434 424 423
f 435 436 425
f 435 425 424
f 436 437 426
f 436 426 425
f 437 349 426
f 438 427 337
f 438 439 428
f 438 428 427
f 439 440 429
f 439 429 428
f 440 441 430
f 440 430 429
f 441 442 431
f 441 431 430
f 442 443 432
f 442 432 431
f 443 444 433
f 443 433 432
f 444 445 434
f 444 434 433
f 445 446 435
f 445 435 434
f 446 447 436
f 446 436 435
f 447 448 437
f 447 437 436
f 448 349 437
f 338 438 337
f 338 339 439
f 338 439 438
f 339 340 440
f 339 440 439
f 340 341 441
f 340 441 440
f 341 342 442
f 341 442 441
f 342 343 443
f 342 443 442
f 343 344 444
f 343 444 443
f 344 345 445
f 344 445 444
f 345 346 446
f 345 446 445
f 346 347 447
f 346 447 446
f 347 348 448
f 347 448 447
f 348 349 448
f 462 450 449
f 462 463 451
f 462 451 450
f 463 464 452
f 463 452 451
f 464 465 453
f 464 453 452
f 465 466 454
f 465 454 453
f 466 467 455
f 466 455 454
f 467 468 456
f 467 456 455
f 468 469 457
f 468 457 456
f 469 470 458
f 469 458 457
f 470 471 459
f 470 459 458
f 471 472 460
f 471 460 459
f 472 461 460
f 473 462 449
f 473 474 463
f 473 463 462
f 474 475 464
f 474 464 463
f 475 476 465
f 475 465 464
f 476 477 466
f 476 466 465
f 477 478 467
f 477 467 466
f 478 479 468
f 478 468 467
f 479 480 469
f 479 469 468
f 480 481 470
f 480 470 469
f 481 482 471
f 481 471 470
f 482 483 472
f 482 472 471
f 483 461 472
f 484 473 449
f 484 485 474
f 484 474 473
f 485 486 475
f 485 475 474
f 486 487 476
f 486 476 475
f 487 488 477
f 487 477 476
f 488 489 478
f 488 478 477
f 489 490 479
f 489 479 478
f 490 491 480
f 490 480 479
f 491 492 481
f 491 481 480
f 492 493 482
f 492 482 481
f 493 494 483
f 493 483 482
f 494 461 483
f 495 484 449
f 495 496 485
f 495 485 484
f 496 497 486
f 496 486 485
f 497 498 487
f 497 487 486
f 498 499 488
f 498 488 487
f 499 500 489
f 499 489 488
f 500 501 490
f 500 490 489
f 501 502 491
f 501 491 490
f 502 503 492
f 502 492 491
f 503 504 493
f 503 493 492
f 504 505 494
f 504 494 493
f 505 461 494
f 506 495 449
f 506 507 496
f 506 496 495
f 507 508 497
f 507 497 496
f 508 509 498
f 508 498 497
f 509 510 499
f 509 499 498
f 510 511 500
f 510 500 499
f 511 512 501
f 511 501 500
f 512 513 502
f 512 502 501
f 513 514 503
f 513 503 502
f 514 515 504
f 514 504 503
f 515 516 505
f 515 505 504
f 516 461 505
f 517 506 449
f 517 518 507
f 517 507 506
f 518 519 508
f 518 508 507
f 519 520 509
f 519 509 508
f 520 521 510
f 520 510 509
f 521 522 511
f 521 511 510
f 522 523 512
f 522 512 511
f 523 524 513
f 523 513 512
f 524 525 514
f 524 514 513
f 525 526 515
f 525 515 514
f 526 527 516
f 526 516 515
f 527 461 516
f 528 517 449
f 528 529 518
f 528 518 517
f 529 530 519
f 529 519 518
f 530 531 520
f 530 520 519
f 531 532 521
f 531 521 520
f 532 533 522
f 532 522 521
f 533 534 523
f 533 523 522
f 534 535 524
f 534 524 523
f 535 536 525
f 535 525 524
f 536 537 526
f 536 526 525
f 537 538 527
f 537 527 526
f 538 461 527
f 539 528 449
f 539 540 529
f 539 529 528
f 540 541 530
f 540 530 529
f 541 542 531
f 541 531 530
f 542 543 532
f 542 532 531
f 543 544 533
f 543 533 532
f 544 545 534
f 544 534 533
f 545 546 535
f 545 535 534
f 546 547 536
f 546 536 535
f 547 548 537
f 547 537 536
f 548 549 538
f 548 538 537
f 549 461 538
f 550 539 449
f 550 551 540
f 550 540 539
f 551 552 541
f 551 541 540
f 552 553 542
f 552 542 541
f 553 554 543
f 553 543 542
f 554 555 544
f 554 544 543
f 555 556 545
f 555 545 544
f 556 557 546
f 556 546 545
f 557 558 547
f 557 547 546
f 558 559 548
f 558 548 547
f 559 560 549
f 559 549 548
f 560 461 549
f 450 550 449
f 450 451 551
f 450 551 550
f 451 452 552
f 451 552 551
f 452 453 553
f 452 553 552
f 453 454 554
f 453 554 553
f 454 455 555
f 454 555 554
f 455 456 556
f 455 556 555
f 456 457 557
f 456 557 556
f 457 458 558
f 457 558 557
f 458 459 559
f 458 559 558
f 459 460 560
f 459 560 559
f 460 461 560
f 562 563 561
f 563 564 561
f 564 565 561
f 565 566 561
f 566 567 561
f 567 562 561
f 568 569 562
f 569 563 562
f 569 570 563
f 570 564 563
f 570 571 564
f 571 565 564
f 571 572 565
f 572 573 565
f 573 566 565
f 573 574 566
f 574 567 566
f 574 568 567
f 568 562 567
f 575 576 568
f 576 569 568
f 576 577 569
f 577 578 569
f 578 570 569
f 578 579 570
f 579 580 570
f 580 581 570
f 581 571 570
f 581 582 571
f 582 572 571
f 582 583 572
f 583 573 572
f 583 584 573
f 584 585 573
f 585 574 573
f 585 575 574
f 575 568 574
f 586 587 575
f 587 576 575
f 587 577 576
f 587 588 577
f 588 578 577
f 588 589 578
f 589 579 578
f 589 580 579
f 589 590 580
f 590 581 580
f 590 591 581
f 591 582 581
f 591 592 582
f 592 583 582
f 592 593 583
f 593 594 583
f 594 584 583
f 594 595 584
f 595 596 584
f 596 597 584
f 597 585 584
f 597 586 585
f 586 575 585
f 598 587 586
f 598 599 587
f 599 588 587
f 599 600 588
f 600 589 588
f 600 601 589
f 601 590 589
f 601 602 590
f 602 591 590
f 602 603 591
f 603 592 591
f 603 604 592
f 604 593 592
f 604 605 593
f 605 594 593
f 605 606 594
f 606 595 594
f 606 607 595
f 607 608 595
f 608 609 595
f 609 596 595
f 609 610 596
f 610 597 596
f 610 611 597
f 611 586 597
f 611 598 586
f 612 599 598
f 612 613 599
f 613 600 599
f 613 614 600
f 614 601 600
f 614 602 601
f 614 615 602
f 615 603 602
f 615 616 603
f 616 604 603
f 616 605 604
f 616 606 605
f 616 617 606
f 617 607 606
f 617 608 607
f 617 609 608
f 617 618 609
f 618 610 609
f 618 611 610
f 618 619 611
f 619 598 611
f 619 612 598
f 620 613 612
f 620 614 613
f 620 615 614
f 620 616 615
f 620 617 616
f 620 618 617
f 620 619 618
f 620 612 619
f 621 623 622
f 621 624 623
f 621 625 624
f 621 626 625
f 621 627 626
f 621 628 627
f 621 629 628
f 621 630 629
f 621 631 630
f 621 622 631
f 622 633 632
f 622 623 633
f 623 634 633
f 623 624 634
f 624 635 634
f 624 625 635
f 625 636 635
f 625 626 636
f 626 627 636
f 627 637 636
f 627 628 637
f 628 638 637
f 628 639 638
f 628 629 639
f 629 640 639
f 629 630 640
f 630 641 640
f 630 642 641
f 630 631 642
f 631 632 642
f 631 622 632
f 632 633 643
f 633 644 643
f 633 634 644
f 634 645 644
f 634 635 645
f 635 646 645
f 635 636 646
f 636 647 646
f 636 648 647
f 636 637 648
f 637 649 648
f 637 638 649
f 638 650 649
f 638 639 650
f 639 651 650
f 639 640 651
f 640 652 651
f 640 641 652
f 641 653 652
f 641 642 653
f 642 643 653
f 642 632 643
f 643 655 654
f 643 644 655
f 644 656 655
f 644 645 656
f 645 657 656
f 645 646 657
f 646 647 657
f 647 658 657
f 647 648 658
f 648 659 658
f 648 649 659
f 649 650 659
f 650 660 659
f 650 651 660
f 651 652 660
f 652 661 660
f 652 653 661
f 653 654 661
f 653 643 654
f 654 655 662
f 655 656 662
f 656 657 662
f 657 658 662
f 658 659 662
f 659 660 662
f 660 661 662
f 661 654 662
f 663 665 664
f 663 666 665
f 663 667 666
f 663 668 667
f 663 669 668
f 663 670 669
f 663 671 670
f 663 672 671
f 663 673 672
f 663 674 673
f 663 675 674
f 663 664 675
f 664 665 676
f 665 677 676
f 665 666 677
f 666 678 677
f 666 679 678
f 666 667 679
f 667 680 679
f 667 668 680
f 668 681 680
f 668 669 681
f 669 682 681
f 669 683 682
f 669 670 683
f 670 684 683
f 670 671 684
f 671 685 684
f 671 672 685
f 672 686 685
f 672 673 686
f 673 687 686
f 673 674 687
f 674 688 687
f 674 675 688
f 675 664 688
f 664 676 688
f 676 690 689
f 676 677 690
f 677 691 690
f 677 678 691
f 678 692 691
f 678 679 692
f 679 680 692
f 680 693 692
f 680 681 693
f 681 694 693
f 681 682 694
f 682 695 694
f 682 683 695
f 683 696 695
f 683 684 696
f 684 697 696
f 684 685 697
f 685 698 697
f 685 686 698
f 686 687 698
f 687 699 698
f 687 688 699
f 688 689 699
f 688 676 689
f 689 690 700
f 690 701 700
f 690 691 701
f 691 692 701
f 692 702 701
f 692 693 702
f 693 703 702
f 693 694 703
f 694 695 703
f 695 704 703
f 695 696 704
f 696 705 704
f 696 697 705
f 697 706 705
f 697 698 706
f 698 699 706
f 699 707 706
f 699 700 707
f 699 689 700
f 700 701 708
f 701 702 708
f 702 703 708
f 703 704 708
f 704 705 708
f 705 706 708
f 706 707 708
f 707 700 708
f 709 712 711
f 709 713 712
f 709 710 713
f 710 714 713
f 710 715 714
f 710 716 715
f 710 709 716
f 709 711 716
f 711 712 717
f 712 718 717
f 712 713 718
f 713 719 718
f 713 720 719
f 713 721 720
f 713 714 721
f 714 722 721
f 714 723 722
f 714 724 723
f 714 715 724
f 715 725 724
f 715 726 725
f 715 716 726
f 716 727 726
f 716 711 727
f 711 728 727
f 711 717 728
f 717 730 729
f 717 731 730
f 717 718 731
f 718 732 731
f 718 719 732
f 719 733 732
f 719 720 733
f 720 734 733
f 720 721 734
f 721 722 734
f 722 735 734
f 722 723 735
f 723 724 735
f 724 736 735
f 724 725 736
f 725 737 736
f 725 738 737
f 725 726 738
f 726 739 738
f 726 727 739
f 727 740 739
f 727 741 740
f 727 728 741
f 728 729 741
f 728 717 729
f 729 730 742
f 730 743 742
f 730 731 743
f 731 744 743
f 731 732 744
f 732 745 744
f 732 733 745
f 733 746 745
f 733 734 746
f 734 747 746
f 734 735 747
f 735 748 747
f 735 749 748
f 735 736 749
f 736 750 749
f 736 737 750
f 737 751 750
f 737 738 751
f 738 752 751
f 738 739 752
f 739 753 752
f 739 740 753
f 740 754 753
f 740 741 754
f 741 755 754
f 741 729 755
f 729 742 755
f 742 757 756
f 742 743 757
f 743 744 757
f 744 758 757
f 744 745 758
f 745 759 758
f 745 746 759
f 746 760 759
f 746 747 760
f 747 761 760
f 747 748 761
f 748 762 761
f 748 749 762
f 749 763 762
f 749 750 763
f 750 751 763
f 751 764 763
f 751 752 764
f 752 765 764
f 752 753 765
f 753 766 765
f 753 754 766
f 754 767 766
f 754 755 767
f 755 768 767
f 755 756 768
f 755 742 756
f 756 757 769
f 757 758 769
f 758 759 769
f 759 760 769
f 760 761 769
f 761 762 769
f 762 763 769
f 763 764 769
f 764 765 769
f 765 766 769
f 766 767 769
f 767 768 769
f 768 756 769
f 770 772 771
f 770 773 772
f 770 774 773
f 770 775 774
f 770 776 775
f 770 777 776
f 770 778 777
f 770 771 778
f 771 780 779
f 771 772 780
f 772 781 780
f 772 782 781
f 772 773 782
f 773 783 782
f 773 784 783
f 773 785 784
f 773 774 785
f 774 786 785
f 774 775 786
f 775 787 786
f 775 776 787
f 776 788 787
f 776 777 788
f 777 789 788
f 777 778 789
f 778 790 789
f 778 771 790
f 771 779 790
f 779 792 791
f 779 780 792
f 780 793 792
f 780 781 793
f 781 794 793
f 781 795 794
f 781 782 795
f 782 783 795
f 783 796 795
f 783 797 796
f 783 784 797
f 784 785 797
f 785 798 797
f 785 786 798
f 786 799 798
f 786 800 799
f 786 787 800
f 787 801 800
f 787 788 801
f 788 802 801
f 788 789 802
f 789 803 802
f 789 790 803
f 790 804 803
f 790 791 804
f 790 779 791
f 791 792 805
f 792 806 805
f 792 793 806
f 793 807 806
f 793 794 807
f 794 808 807
f 794 795 808
f 795 809 808
f 795 796 809
f 796 797 809
f 797 810 809
f 797 798 810
f 798 811 810
f 798 799 811
f 799 812 811
f 799 800 812
f 800 801 812
f 801 813 812
f 801 802 813
f 802 814 813
f 802 803 814
f 803 815 814
f 803 804 815
f 804 805 815
f 804 791 805
f 805 817 816
f 805 806 817
f 806 818 817
f 806 807 818
f 807 808 818
f 808 819 818
f 808 809 819
f 809 820 819
f 809 810 820
f 810 821 820
f 810 822 821
f 810 811 822
f 811 812 822
f 812 823 822
f 812 813 823
f 813 814 823
f 814 824 823
f 814 815 824
f 815 825 824
f 815 816 825
f 815 805 816
f 816 817 826
f 817 827 826
f 817 818 827
f 818 828 827
f 818 819 828
f 819 820 828
f 820 829 828
f 820 821 829
f 821 822 829
f 822 830 829
f 822 823 830
f 823 824 830
f 824 825 830
f 825 831 830
f 825 816 831
f 816 826 831
f 826 827 832
f 827 828 832
f 828 829 832
f 829 830 832
f 830 831 832
f 831 826 832
f 834 835 833
f 835 836 833
f 836 837 833
f 837 838 833
f 838 839 833
f 839 840 833
f 840 834 833
f 841 842 834
f 842 835 834
f 842 843 835
f 843 844 835
f 844 836 835
f 844 845 836
f 845 846 836
f 846 837 836
f 846 847 837
f 847 848 837
f 848 838 837
f 848 849 838
f 849 850 838
f 850 839 838
f 850 851 839
f 851 852 839
f 852 840 839
f 852 853 840
f 853 834 840
f 853 841 834
f 854 842 841
f 854 855 842
f 855 856 842
f 856 843 842
f 856 857 843
f 857 858 843
f 858 844 843
f 858 859 844
f 859 845 844
f 859 860 845
f 860 861 845
f 861 846 845
f 861 862 846
f 862 847 846
f 862 863 847
f 863 848 847
f 863 864 848
f 864 849 848
f 864 865 849
f 865 866 849
f 866 850 849
f 866 867 850
f 867 868 850
f 868 851 850
f 868 869 851
f 869 870 851
f 870 852 851
f 870 871 852
f 871 872 852
f 872 853 852
f 872 854 853
f 854 841 853
f 873 855 854
f 873 874 855
f 874 856 855
f 874 857 856
f 874 875 857
f 875 858 857
f 875 876 858
f 876 859 858
f 876 860 859
f 876 877 860
f 877 861 860
f 877 878 861
f 878 862 861
f 878 879 862
f 879 880 862
f 880 863 862
f 880 881 863
f 881 864 863
f 881 882 864
f 882 865 864
f 882 866 865
f 882 883 866
f 883 867 866
f 883 868 867
f 883 884 868
f 884 885 868
f 885 886 868
f 886 869 868
f 886 887 869
f 887 870 869
f 887 888 870
f 888 871 870
f 888 872 871
f 888 889 872
f 889 854 872
f 889 873 854
f 890 891 873
f 891 874 873
f 891 892 874
f 892 875 874
f 892 893 875
f 893 894 875
f 894 876 875
f 894 895 876
f 895 877 876
f 895 896 877
f 896 878 877
f 896 879 878
f 896 897 879
f 897 898 879
f 898 880 879
f 898 881 880
f 898 899 881
f 899 882 881
f 899 883 882
f 899 900 883
f 900 901 883
f 901 884 883
f 901 902 884
f 902 903 884
f 903 885 884
f 903 886 885
f 903 904 886
f 904 887 886
f 904 905 887
f 905 888 887
f 905 889 888
f 905 906 889
f 906 873 889
f 906 890 873
f 907 891 890
f 907 908 891
f 908 909 891
f 909 892 891
f 909 910 892
f 910 893 892
f 910 911 893
f 911 894 893
f 911 912 894
f 912 895 894
f 912 913 895
f 913 914 895
f 914 896 895
f 914 915 896
f 915 897 896
f 915 916 897
f 916 898 897
f 916 917 898
f 917 899 898
f 917 918 899
f 918 919 899
f 919 900 899
f 919 920 900
f 920 901 900
f 920 921 901
f 921 902 901
f 921 903 902
f 921 904 903
f 921 922 904
f 922 923 904
f 923 905 904
f 923 924 905
f 924 906 905
f 924 890 906
f 924 907 890
f 925 908 907
f 925 926 908
f 926 909 908
f 926 927 909
f 927 910 909
f 927 928 910
f 928 911 910
f 928 929 911
f 929 930 911
f 930 912 911
f 930 931 912
f 931 932 912
f 932 913 912
f 932 933 913
f 933 934 913
f 934 914 913
f 934 915 914
f 934 916 915
f 934 935 916
f 935 917 916
f 935 936 917
f 936 937 917
f 937 918 917
f 937 938 918
f 938 919 918
f 938 939 919
f 939 920 919
f 939 940 920
f 940 921 920
f 940 941 921
f 941 922 921
f 941 942 922
f 942 923 922
f 942 943 923
f 943 924 923
f 943 944 924
f 944 907 924
f 944 925 907
f 945 946 925
f 946 947 925
f 947 948 925
f 948 926 925
f 948 927 926
f 948 949 927
f 949 950 927
f 950 928 927
f 950 951 928
f 951 929 928
f 951 952 929
f 952 953 929
f 953 930 929
f 953 931 930
f 953 954 931
f 954 932 931
f 954 955 932
f 955 956 932
f 956 933 932
f 956 957 933
f 957 934 933
f 957 958 934
f 958 935 934
f 958 936 935
f 958 937 936
f 958 959 937
f 959 960 937
f 960 938 937
f 960 961 938
f 961 939 938
f 961 962 939
f 962 940 939
f 962 963 940
f 963 941 940
f 963 964 941
f 964 965 941
f 965 942 941
f 965 966 942
f 966 943 942
f 966 945 943
f 945 944 943
f 945 925 944
f 967 968 945
f 968 969 945
f 969 946 945
f 969 947 946
f 969 948 947
f 969 970 948
f 970 971 948
f 971 949 948
f 971 950 949
f 971 972 950
f 972 951 950
f 972 952 951
f 972 953 952
f 972 973 953
f 973 954 953
f 973 974 954
f 974 975 954
f 975 955 954
f 975 956 955
f 975 976 956
f 976 957 956
f 976 977 957
f 977 958 957
f 977 959 958
f 977 960 959
f 977 978 960
f 978 961 960
f 978 979 961
f 979 962 961
f 979 980 962
f 980 981 962
f 981 963 962
f 981 982 963
f 982 964 963
f 982 965 964
f 982 966 965
f 982 983 966
f 983 984 966
f 984 945 966
f 984 967 945
f 985 968 967
f 985 986 968
f 986 969 968
f 986 970 969
f 986 987 970
f 987 971 970
f 987 988 971
f 988 972 971
f 988 973 972
f 988 974 973
f 988 989 974
f 989 975 974
f 989 976 975
f 989 990 976
f 990 977 976
f 990 991 977
f 991 992 977
f 992 993 977
f 993 994 977
f 994 978 977
f 994 995 978
f 995 979 978
f 995 980 979
f 995 981 980
f 995 982 981
f 995 996 982
f 996 997 982
f 997 983 982
f 997 985 983
f 985 984 983
f 985 967 984
f 998 999 985
f 999 986 985
f 999 987 986
f 999 988 987
f 999 1000 988
f 1000 989 988
f 1000 990 989
f 1000 991 990
f 1000 992 991
f 1000 993 992
f 1000 994 993
f 1000 998 994
f 998 995 994
f 998 996 995
f 998 997 996
f 998 985 997
