v -0.0733269754 -0.0281426996 -0.300857785
v -0.0733269754 -0.0230770134 -0.306844664
v -0.0733269754 -0.0225704453 -0.29770675
v -0.0733269754 -0.0187711812 -0.286991878
v -0.0733269754 -0.0210507393 -0.269974936
v -0.0733269754 -0.0228237294 -0.260522726
v -0.0733269754 -0.0197843191 -0.204748578
v -0.0733269754 -0.0187711812 -0.141410621
v -0.0733269754 -0.0187711812 -0.0944592248
v -0.0733269754 -0.0202908872 -0.046563167
v -0.0733269754 -0.0228237294 -0.0147365863
v -0.0733269754 -0.0248500035 0.019610642
v -0.0733269754 -0.0243434354 0.0322148236
v -0.0733269754 -0.0281426996 0.0366257245
v -0.0699029467 -0.0234297362 -0.299912186
v -0.067967667 -0.0207664979 -0.29140373
v -0.0684141979 -0.0213809478 -0.280848326
v -0.0694564159 -0.0228152863 -0.265564958
v -0.0703494776 -0.0240441844 -0.244609901
v -0.0687866196 -0.0218922057 -0.184266334
v -0.0681158853 -0.0209700634 -0.114312025
v -0.0684141979 -0.0213809478 -0.0672030202
v -0.0691590414 -0.022405342 -0.0199354836
v -0.0694564159 -0.0228152863 0.00306649259
v -0.068488307 -0.0214831997 0.021972758
v -0.0699770558 -0.0235319882 0.0337898728
v -0.0670642865 -0.0261079824 -0.292980659
v -0.0612828376 -0.0242289889 -0.285101632
v -0.066341019 -0.0258725229 -0.274702901
v -0.0675464647 -0.0262637061 -0.261153135
v -0.0687500341 -0.0266548893 -0.228697103
v -0.066582108 -0.0259513221 -0.16378409
v -0.0653776005 -0.0255601389 -0.0872124791
v -0.066341019 -0.0258725229 -0.039945879
v -0.0673044374 -0.0261858451 0.00669127028
v -0.0658597789 -0.0257158609 0.020870501
v -0.0608015971 -0.0240723269 0.0243358035
v -0.0660999298 -0.0257946601 0.0353658655
v -0.0670642865 -0.0301774168 -0.292980659
v -0.0612828376 -0.0320554738 -0.285101632
v -0.066341019 -0.0304128764 -0.274702901
v -0.0675464647 -0.0300207548 -0.261153135
v -0.0687500341 -0.0296305099 -0.228697103
v -0.066582108 -0.0303340788 -0.16378409
v -0.0653776005 -0.0307252603 -0.0872124791
v -0.066341019 -0.0304128764 -0.039945879
v -0.0673044374 -0.0300995559 0.00669127028
v -0.0658597789 -0.0305695384 0.020870501
v -0.0608015971 -0.0322130724 0.0243358035
v -0.0660999298 -0.0304907408 0.0353658655
v -0.0681899944 -0.0352121456 -0.295658881
v -0.0657340748 -0.0385930241 -0.286204825
v -0.0698278995 -0.0329588533 -0.272025601
v -0.070052103 -0.0326502226 -0.248863207
v -0.0704986339 -0.0320357744 -0.18505526
v -0.0704235867 -0.0321389647 -0.106591544
v -0.0692331505 -0.0337778053 -0.0525500467
v -0.0681158853 -0.0353143993 -0.0161549769
v -0.0662556528 -0.0378763223 0.0122053647
v -0.0659573401 -0.0382862666 0.0252823385
v -0.0666280746 -0.0373641243 0.0301660317
v -0.0697537904 -0.0330601669 0.0378865131
v -0.0733269754 -0.0390339241 -0.298336208
v -0.0733269754 -0.0413134823 -0.287307068
v -0.0733269754 -0.0327018177 -0.269346401
v -0.0733269754 -0.0332083858 -0.236574229
v -0.0733269754 -0.0329551035 -0.141410621
v -0.0733269754 -0.0309288276 -0.0493990117
v -0.0733269754 -0.0337149539 -0.0178885648
v -0.0733269754 -0.038527356 0.00763592516
v -0.0733269754 -0.0458726021 0.0177185156
v -0.0733269754 -0.045366034 0.0296932394
v -0.0733269754 -0.0377675021 0.0359962598
v -0.0733269754 -0.0327018177 0.0404081008
v -0.0771234251 -0.033367861 -0.301330598
v -0.0795793456 -0.0367496761 -0.291090385
v -0.0786862832 -0.0355189031 -0.27895808
v -0.0790587053 -0.0360320377 -0.259106216
v -0.0773466909 -0.0336755551 -0.209948433
v -0.0756346765 -0.0313190725 -0.154646147
v -0.0759320513 -0.0317280803 -0.107537142
v -0.077494909 -0.033880059 -0.0481382092
v -0.0796543924 -0.0368519263 -0.011586474
v -0.0801009232 -0.037466378 0.00968377355
v -0.0807707198 -0.0383885203 0.0334756122
v -0.0762303636 -0.0321389647 0.0427702098
v -0.07525475 -0.0287693441 -0.304324038
v -0.081035261 -0.0306473994 -0.294870905
v -0.0863345318 -0.0323687943 -0.288567857
v -0.0870577984 -0.0326042573 -0.281635379
v -0.0817575901 -0.0308828624 -0.278485266
v -0.0781440678 -0.0297083709 -0.259893269
v -0.0764583197 -0.0291595891 -0.197186642
v -0.0769404981 -0.0293171894 -0.103913294
v -0.0769404981 -0.0293171894 -0.0408914635
v -0.0788673353 -0.0299428939 -0.0103247488
v -0.0882623055 -0.0329954388 0.030954028
v -0.0783860947 -0.0297862353 0.0451341989
v -0.07525475 -0.0275160568 -0.304324038
v -0.081035261 -0.0256379999 -0.294870905
v -0.0863345318 -0.0239166049 -0.288567857
v -0.0870577984 -0.0236811436 -0.281635379
v -0.0817575901 -0.0254025386 -0.278485266
v -0.0781440678 -0.0265770284 -0.259893269
v -0.0764583197 -0.0271258102 -0.197186642
v -0.0769404981 -0.0269682116 -0.103913294
v -0.0769404981 -0.0269682116 -0.0408914635
v -0.0788673353 -0.0263425054 -0.0103247488
v -0.0882623055 -0.0232899604 0.030954028
v -0.0783860947 -0.0264991674 0.0451341989
v -0.0754114111 -0.0252740208 -0.305584826
v -0.0773466909 -0.0226098459 -0.296289289
v -0.0801009232 -0.018819023 -0.287779881
v -0.0796543924 -0.0194334729 -0.275806094
v -0.077494909 -0.022405342 -0.269503996
v -0.0772725815 -0.0227120978 -0.232321874
v -0.0770483782 -0.0230197902 -0.169299107
v -0.0771975346 -0.0228152863 -0.0991862664
v -0.0767510038 -0.0234297362 -0.0437263717
v -0.0766018475 -0.0236351784 -0.0125311358
v -0.0789104873 -0.0204588055 0.0252823385
v -0.0760070982 -0.0244541305 0.0386745095
f 1 2 15
f 2 3 16
f 2 16 15
f 3 4 17
f 3 17 16
f 4 5 18
f 4 18 17
f 5 6 19
f 5 19 18
f 6 7 20
f 6 20 19
f 7 8 21
f 7 21 20
f 8 9 22
f 8 22 21
f 9 10 23
f 9 23 22
f 10 11 24
f 10 24 23
f 11 12 25
f 11 25 24
f 12 13 26
f 12 26 25
f 13 14 26
f 1 15 27
f 15 16 28
f 15 28 27
f 16 17 29
f 16 29 28
f 17 18 30
f 17 30 29
f 18 19 31
f 18 31 30
f 19 20 32
f 19 32 31
f 20 21 33
f 20 33 32
f 21 22 34
f 21 34 33
f 22 23 35
f 22 35 34
f 23 24 36
f 23 36 35
f 24 25 37
f 24 37 36
f 25 26 38
f 25 38 37
f 26 14 38
f 1 27 39
f 27 28 40
f 27 40 39
f 28 29 41
f 28 41 40
f 29 30 42
f 29 42 41
f 30 31 43
f 30 43 42
f 31 32 44
f 31 44 43
f 32 33 45
f 32 45 44
f 33 34 46
f 33 46 45
f 34 35 47
f 34 47 46
f 35 36 48
f 35 48 47
f 36 37 49
f 36 49 48
f 37 38 50
f 37 50 49
f 38 14 50
f 1 39 51
f 39 40 52
f 39 52 51
f 40 41 53
f 40 53 52
f 41 42 54
f 41 54 53
f 42 43 55
f 42 55 54
f 43 44 56
f 43 56 55
f 44 45 57
f 44 57 56
f 45 46 58
f 45 58 57
f 46 47 59
f 46 59 58
f 47 48 60
f 47 60 59
f 48 49 61
f 48 61 60
f 49 50 62
f 49 62 61
f 50 14 62
f 1 51 63
f 51 52 64
f 51 64 63
f 52 53 65
f 52 65 64
f 53 54 66
f 53 66 65
f 54 55 67
f 54 67 66
f 55 56 68
f 55 68 67
f 56 57 69
f 56 69 68
f 57 58 70
f 57 70 69
f 58 59 71
f 58 71 70
f 59 60 72
f 59 72 71
f 60 61 73
f 60 73 72
f 61 62 74
f 61 74 73
f 62 14 74
f 1 63 75
f 63 64 76
f 63 76 75
f 64 65 77
f 64 77 76
f 65 66 78
f 65 78 77
f 66 67 79
f 66 79 78
f 67 68 80
f 67 80 79
f 68 69 81
f 68 81 80
f 69 70 82
f 69 82 81
f 70 71 83
f 70 83 82
f 71 72 84
f 71 84 83
f 72 73 85
f 72 85 84
f 73 74 86
f 73 86 85
f 74 14 86
f 1 75 87
f 75 76 88
f 75 88 87
f 76 77 89
f 76 89 88
f 77 78 90
f 77 90 89
f 78 79 91
f 78 91 90
f 79 80 92
f 79 92 91
f 80 81 93
f 80 93 92
f 81 82 94
f 81 94 93
f 82 83 95
f 82 95 94
f 83 84 96
f 83 96 95
f 84 85 97
f 84 97 96
f 85 86 98
f 85 98 97
f 86 14 98
f 1 87 99
f 87 88 100
f 87 100 99
f 88 89 101
f 88 101 100
f 89 90 102
f 89 102 101
f 90 91 103
f 90 103 102
f 91 92 104
f 91 104 103
f 92 93 105
f 92 105 104
f 93 94 106
f 93 106 105
f 94 95 107
f 94 107 106
f 95 96 108
f 95 108 107
f 96 97 109
f 96 109 108
f 97 98 110
f 97 110 109
f 98 14 110
f 1 99 111
f 99 100 112
f 99 112 111
f 100 101 113
f 100 113 112
f 101 102 114
f 101 114 113
f 102 103 115
f 102 115 114
f 103 104 116
f 103 116 115
f 104 105 117
f 104 117 116
f 105 106 118
f 105 118 117
f 106 107 119
f 106 119 118
f 107 108 120
f 107 120 119
f 108 109 121
f 108 121 120
f 109 110 122
f 109 122 121
f 110 14 122
f 1 111 2
f 111 112 3
f 111 3 2
f 112 113 4
f 112 4 3
f 113 114 5
f 113 5 4
f 114 115 6
f 114 6 5
f 115 116 7
f 115 7 6
f 116 117 8
f 116 8 7
f 117 118 9
f 117 9 8
f 118 119 10
f 118 10 9
f 119 120 11
f 119 11 10
f 120 121 12
f 120 12 11
f 121 122 13
f 121 13 12
f 122 14 13
