v -0.0593287963 0.00208162163 -0.242691529
v -0.0813757874 0.0101688954 -0.256930777
v -0.057353179 -0.00957508489 -0.24087632
v -0.055626155 -0.00531521783 -0.252866966
v -0.0596111612 0.0031003875 -0.22798601
v -0.0601289873 0.00297093096 -0.256184067
v -0.0698635469 -0.0153452757 -0.239860353
v -0.0755277343 0.0123593363 -0.258080883
v -0.0661205677 0.0116642113 -0.240847245
v -0.0786356264 0.00930116227 -0.240340659
v -0.09205219 0.00622516508 -0.250419503
v -0.0935221776 0.00107974163 -0.260134372
v -0.0804095548 0.00297655955 -0.25896081
v -0.0742978983 0.0211717541 -0.253062108
v -0.0749564377 0.0159737969 -0.241016079
v -0.070187188 0.018032905 -0.261598717
v -0.0720399158 -0.00123546456 -0.259253495
v -0.0569976422 -0.015580737 -0.251092099
v -0.0596468084 -0.00682648121 -0.227966328
v -0.0598044079 -0.0131811024 -0.261664389
v -0.0633888498 -0.00687807589 -0.260897969
v -0.0577997098 0.00289119336 -0.193731656
v -0.0671374574 0.0113349412 -0.228259935
v -0.0657472081 0.0167721112 -0.256342613
v -0.0648644655 0.00298218813 -0.262457061
v -0.0658063076 -0.0210000825 -0.250212172
v -0.0770596354 -0.0134737869 -0.237818131
v -0.0694601682 -0.0112036093 -0.227089197
v -0.0826412711 0.00169043818 -0.238773124
v -0.0782209905 0.00588557653 -0.227092943
v -0.0742031512 0.0122533319 -0.227412858
v -0.0939124225 0.00248593845 -0.253816339
v -0.0908955248 -0.00355723731 -0.26140078
v -0.0879123994 -0.00966420303 -0.260459878
v -0.0793420085 -0.00555255488 -0.260328535
v -0.068811948 -0.0103705852 -0.258547126
v -0.0571214701 -0.0216286037 -0.259499267
v -0.0604394946 -0.00148687263 -0.19314159
v -0.0606636979 -0.0149090638 -0.26917192
v -0.0581430503 0.00315854908 -0.157677106
v -0.0636017963 0.0118630862 -0.192540285
v -0.0537105751 0.0090966584 -0.158315957
v -0.0656177516 -0.0246773954 -0.258811658
v -0.075523044 -0.021028225 -0.247174644
v -0.0842341482 -0.0118283772 -0.248907295
v -0.0816300098 -0.0053330419 -0.238047968
v -0.0765127289 -0.010698917 -0.22710421
v -0.0675530311 -0.00567638283 -0.192377993
v -0.0890606216 -0.00496155805 -0.249244068
v -0.0798063629 -0.00120169328 -0.226618285
v -0.0739564336 0.0115563312 -0.192825477
v -0.0759057846 0.00332177668 -0.192989642
v -0.0830999973 -0.0152843009 -0.259557446
v -0.072522094 -0.0173359026 -0.267340775
v -0.0601318014 -0.0217890172 -0.266503064
v -0.0644432627 -0.0020122031 -0.156799052
v -0.067592431 -0.0171961285 -0.271336092
v -0.0608691401 -0.000353659923 -0.122497799
v -0.0540426584 0.00602722811 -0.122886168
v -0.0605492513 0.0137533377 -0.158234322
v -0.0523409628 0.0136407669 -0.123365523
v -0.0634676491 -0.0239203564 -0.267304179
v -0.0738682533 -0.0249935326 -0.257124969
v -0.0750127231 -0.00527300412 -0.192289816
v -0.072115901 -0.00305817334 -0.15751856
v -0.0717453554 0.0104390656 -0.161741868
v -0.0740896425 0.00501690556 -0.158811248
v -0.0793016705 -0.0210863866 -0.263866079
v -0.0685558495 -0.0256830285 -0.266735696
v -0.0678194488 -0.00320357731 -0.122138507
v -0.0664901754 -0.00281802244 -0.0904160597
v -0.0584310441 -0.000951223304 -0.0897218669
v -0.0525257673 0.00530677518 -0.0909216807
v -0.060532366 0.0145572811 -0.124145083
v -0.0493850417 0.0127373857 -0.0912734669
v -0.0580961458 0.0145160048 -0.0909620231
v -0.0716693702 0.00328237703 -0.121494036
v -0.0676684162 0.012654834 -0.12268166
v -0.0711177732 0.00234522497 -0.0906017937
v -0.0615999123 -0.00428238095 -0.054533181
v -0.0684076312 -0.00186023245 -0.0547695736
v -0.0566027065 -0.000409007246 -0.0551344857
v -0.0522208882 0.0042720621 -0.0554168541
v -0.0667143788 0.0127936715 -0.0907284401
v -0.0492330712 0.0137092474 -0.0558540078
v -0.0604160428 0.0137073716 -0.0540932176
v -0.0704235867 0.0104653323 -0.091195606
v -0.0716440418 0.00089399976 -0.0532986442
v -0.0599873357 -0.00325517243 -0.0212928924
v -0.0653269436 -0.00529551801 -0.022197212
v -0.0738232247 0.00254316194 -0.0200517997
v -0.0546402221 0.00168856199 -0.0209223469
v -0.0485454519 0.00816607389 -0.021123094
v -0.0708213368 0.00710978436 -0.0541410524
v -0.0486139315 0.0126567107 -0.0201934592
v -0.0607349933 0.0133349494 -0.0196287225
v -0.0716918843 0.00929553412 -0.0201943958
v -0.0608700784 -0.00506756237 0.017056229
v -0.070719085 -0.0074146631 0.0162560363
v -0.0767228609 -0.00126735964 0.0165740502
v -0.075563382 0.00877114153 0.0158226359
v -0.0497593405 0.00470264542 0.0171143871
v -0.0490660912 0.0145619709 0.0166050058
v -0.0630164281 0.0166764257 0.0165599737
v -0.0718719977 0.0157542834 0.0163460936
v -0.0709282791 -0.0107214304 0.0298724105
v -0.0595107859 -0.00643529753 0.041464389
v -0.0550604862 -0.000439964206 0.0306200716
v -0.0817632191 -0.00515386643 0.042189534
v -0.0774348716 0.00592497661 0.0303574061
v -0.0436701984 0.00801691754 0.0357880062
v -0.0470698362 0.00285648398 0.0333564793
v -0.056943233 0.0170638574 0.026904293
v -0.054310952 0.0190638657 0.0339183923
v -0.0471692732 0.0156201375 0.0335168911
v -0.073511779 0.0204156534 0.0435882252
v -0.0597378032 0.0224128468 0.0459268851
v -0.0779536352 0.0164428411 0.0432242462
v -0.0718673072 -0.0131041797 0.0397505006
v -0.0615061034 -0.00984713088 0.0504747451
v -0.0501495854 -0.000540339864 0.0430375651
v -0.0857857483 0.0113368178 0.0547177242
v -0.0932332445 0.0113433843 0.0610967359
v -0.0923814602 -0.00624767941 0.0538237244
v -0.0906825778 -0.0128133718 0.0536661258
v -0.0840624775 -0.0207702511 0.0516736223
v -0.0461308078 0.0157458403 0.0419794002
v -0.0439459967 0.010213924 0.0465432099
v -0.0507133767 0.0229897711 0.0487561634
v -0.0839602256 0.0188987606 0.0535301033
v -0.0805981108 0.0283331322 0.0559550672
v -0.0603644477 0.0336277133 0.0640066919
v -0.0747969621 -0.0231079709 0.0527815057
v -0.0520032514 -0.00586869122 0.059168964
v -0.0751740745 0.0070985272 0.0785602214
v -0.066299743 0.012528192 0.0767590889
v -0.0492105569 0.00310789227 0.0553997171
v -0.0940887839 0.0128330712 0.0702853283
v -0.0926431873 0.00894750292 0.0731455658
v -0.0952163684 0.0196070194 0.068862246
v -0.0939039794 0.0237421202 0.0585986044
v -0.0904527464 0.00301220702 0.0716727633
v -0.0974293219 -0.0010600417 0.0609785396
v -0.0976216311 -0.0145797945 0.0691624354
v -0.0923720788 -0.0256576993 0.0676052072
v -0.0970644045 -0.0199006423 0.0679447936
v -0.0740061525 -0.0287449532 0.0727084155
v -0.0858889385 -0.0286680305 0.0687102774
v -0.0489966734 0.0175291501 0.0507214609
v -0.0528193902 0.0239278612 0.0684316623
v -0.0843776756 0.0346858781 0.063794685
v -0.0702547305 0.0358603661 0.0716108502
v -0.0582265403 0.0265779667 0.0748378799
v -0.0586777617 -0.0170263336 0.0666811883
v -0.0536233327 -0.00500283389 0.075764712
v -0.0703072635 0.000805819337 0.0770724094
v -0.0730502387 0.0190178987 0.0764739091
v -0.080108428 0.00579364389 0.0813594806
v -0.0759376799 -0.000178237107 0.0782600321
v -0.059438553 -0.00376361694 0.0778022442
v -0.0555060795 0.00873830835 0.0744851571
v -0.0620689574 0.0188659283 0.0759119926
v -0.0844667946 0.019996326 0.0742937879
v -0.0879433551 0.00680209068 0.0776662216
v -0.093684466 0.0259034785 0.0699898305
v -0.0900371722 0.0314372724 0.0652909366
v -0.0854893122 -0.00909384433 0.072949505
v -0.0868026377 -0.00231145369 0.0780067481
v -0.0946863459 -0.00702910844 0.0679963887
v -0.0924677642 -0.0109906624 0.0702506193
v -0.0863382833 -0.0150056876 0.0702600008
v -0.0764489387 -0.0158030636 0.0719241724
v -0.0685764875 -0.0238246727 0.0741821546
v -0.0548897547 0.0151679777 0.0730114181
v -0.0768166702 0.0323003165 0.077098677
v -0.0882623055 0.0324935606 0.0726840246
v -0.0702978826 0.0304231961 0.0785996202
v -0.0626796536 0.0242646361 0.0773538377
v -0.062788472 -0.01792221 0.0764560846
v -0.0595107859 -0.00867733269 0.076543327
v -0.0733429229 -0.00560884028 0.0807750516
v -0.0814996153 -0.0038358502 0.0810958786
v -0.0668363304 -0.00476362108 0.0784823587
v -0.0795727782 0.019896889 0.0754307521
v -0.0808166859 0.00178612333 0.0814167057
v -0.0648372609 -0.0115628977 0.0782581555
f 3 2 1
f 1 3 4
f 3 1 5
f 6 1 4
f 1 7 6
f 6 7 1
f 1 6 8
f 6 9 1
f 1 9 5
f 2 11 10
f 13 12 2
f 12 11 2
f 15 14 2
f 14 16 2
f 8 2 16
f 2 8 17
f 13 2 17
f 2 10 15
f 3 18 4
f 7 18 3
f 7 3 19
f 19 3 5
f 20 21 4
f 18 20 4
f 21 6 4
f 4 17 21
f 19 5 22
f 5 9 23
f 5 23 22
f 16 24 6
f 25 6 21
f 6 24 9
f 24 6 25
f 7 26 18
f 27 26 7
f 27 7 28
f 28 7 19
f 17 8 16
f 24 15 9
f 9 15 23
f 29 10 11
f 11 29 10
f 10 29 30
f 31 15 10
f 31 10 30
f 29 11 32
f 12 32 11
f 32 11 12
f 13 33 12
f 33 12 13
f 32 12 34
f 33 34 12
f 13 35 33
f 35 13 17
f 24 14 15
f 14 24 16
f 23 15 31
f 16 25 17
f 25 16 24
f 36 35 17
f 25 36 17
f 37 20 18
f 26 37 18
f 28 19 38
f 38 19 22
f 20 36 21
f 20 37 39
f 39 36 20
f 25 21 36
f 40 38 22
f 22 23 41
f 40 22 42
f 42 22 41
f 23 31 41
f 26 43 37
f 44 43 26
f 27 44 26
f 44 27 45
f 27 45 46
f 46 45 27
f 47 27 28
f 46 27 47
f 47 28 48
f 48 28 38
f 29 32 49
f 49 46 29
f 29 49 46
f 30 29 50
f 29 46 50
f 31 30 51
f 51 30 52
f 30 50 52
f 41 31 51
f 34 49 32
f 34 49 32
f 35 34 33
f 34 35 53
f 49 34 45
f 34 53 45
f 35 36 53
f 54 53 36
f 36 39 54
f 37 55 39
f 43 55 37
f 56 48 38
f 56 38 40
f 57 54 39
f 39 55 57
f 58 56 40
f 58 40 59
f 59 40 42
f 42 41 60
f 60 41 51
f 59 42 61
f 61 42 60
f 43 62 55
f 63 62 43
f 44 63 43
f 45 63 44
f 49 45 46
f 49 45 46
f 53 63 45
f 50 46 47
f 50 47 64
f 64 47 48
f 65 64 48
f 65 48 56
f 52 50 64
f 60 51 66
f 66 51 52
f 66 52 67
f 67 52 64
f 68 53 54
f 53 68 63
f 69 54 57
f 54 69 68
f 55 62 57
f 70 65 56
f 70 56 58
f 62 69 57
f 71 70 58
f 71 58 72
f 72 58 59
f 72 59 73
f 73 59 61
f 61 60 74
f 74 60 66
f 73 61 75
f 75 61 76
f 76 61 74
f 63 69 62
f 69 63 68
f 67 64 65
f 77 67 65
f 77 65 70
f 74 66 78
f 78 66 67
f 78 67 77
f 79 77 70
f 79 70 71
f 80 71 72
f 81 79 71
f 81 71 80
f 80 72 82
f 82 72 73
f 82 73 83
f 83 73 75
f 76 74 84
f 84 74 78
f 83 75 85
f 85 75 76
f 85 76 86
f 86 76 84
f 87 78 77
f 87 77 79
f 84 78 87
f 88 87 79
f 88 79 81
f 89 80 82
f 90 81 80
f 90 80 89
f 91 88 81
f 91 81 90
f 89 82 92
f 92 82 83
f 92 83 93
f 93 83 85
f 94 84 87
f 86 84 94
f 93 85 95
f 95 85 86
f 95 86 96
f 96 86 94
f 94 87 88
f 97 94 88
f 97 88 91
f 98 89 92
f 99 90 89
f 99 89 98
f 100 91 90
f 100 90 99
f 101 97 91
f 101 91 100
f 98 92 102
f 102 92 93
f 102 93 103
f 103 93 95
f 96 94 97
f 103 95 104
f 104 95 96
f 105 96 97
f 104 96 105
f 105 97 101
f 99 98 106
f 98 107 106
f 107 98 108
f 98 102 108
f 100 99 109
f 109 99 106
f 100 109 110
f 101 100 110
f 105 101 110
f 103 111 102
f 102 111 112
f 102 112 108
f 113 103 104
f 113 114 103
f 103 115 111
f 115 103 114
f 104 105 116
f 117 104 116
f 113 104 117
f 116 105 118
f 118 105 110
f 119 109 106
f 107 119 106
f 107 121 120
f 119 107 120
f 121 107 108
f 112 121 108
f 118 109 122
f 109 123 122
f 109 124 123
f 109 125 124
f 109 126 125
f 109 119 126
f 109 118 110
f 127 111 115
f 111 127 128
f 112 111 121
f 111 128 121
f 113 117 114
f 127 114 129
f 114 117 129
f 127 115 114
f 116 118 130
f 116 130 131
f 117 116 131
f 132 117 131
f 129 117 132
f 130 118 122
f 119 133 126
f 119 133 126
f 133 119 120
f 121 134 120
f 120 136 135
f 134 133 120
f 121 137 134
f 121 128 137
f 130 122 123
f 123 139 138
f 123 138 140
f 123 140 141
f 142 139 123
f 142 123 143
f 123 124 143
f 130 123 141
f 124 144 143
f 124 125 144
f 126 145 125
f 145 146 125
f 125 146 144
f 126 133 147
f 126 147 148
f 126 148 145
f 149 128 127
f 149 127 129
f 149 137 128
f 150 129 132
f 149 129 150
f 131 130 141
f 152 131 151
f 131 141 151
f 152 151 131
f 132 131 152
f 152 131 151
f 152 153 132
f 150 132 153
f 154 147 133
f 154 133 134
f 154 134 155
f 137 155 134
f 135 136 156
f 136 135 156
f 136 135 156
f 157 135 136
f 157 158 135
f 159 156 135
f 159 135 158
f 136 156 160
f 136 160 161
f 157 136 162
f 162 136 161
f 137 150 155
f 149 150 137
f 138 139 163
f 140 138 163
f 139 164 163
f 142 164 139
f 141 140 165
f 165 140 163
f 166 141 165
f 166 151 141
f 142 143 167
f 142 167 168
f 142 168 164
f 169 167 143
f 169 143 144
f 169 144 170
f 171 170 144
f 171 144 146
f 171 146 145
f 171 145 148
f 172 148 147
f 172 147 173
f 154 173 147
f 172 171 148
f 150 174 155
f 174 150 153
f 151 175 152
f 166 176 151
f 176 175 151
f 166 176 151
f 152 177 153
f 175 177 152
f 153 162 161
f 178 153 177
f 178 162 153
f 161 174 153
f 154 155 179
f 154 179 173
f 161 160 155
f 180 155 160
f 174 161 155
f 180 179 155
f 182 181 156
f 159 182 156
f 183 160 156
f 183 156 181
f 157 184 158
f 157 162 178
f 157 178 177
f 157 177 175
f 157 175 184
f 158 184 163
f 164 158 163
f 159 158 185
f 185 158 164
f 159 185 182
f 183 186 160
f 180 160 186
f 176 165 163
f 175 176 163
f 184 175 163
f 182 185 164
f 168 182 164
f 164 182 168
f 182 164 168
f 166 165 176
f 182 168 167
f 169 170 167
f 167 170 171
f 172 182 167
f 172 167 171
f 172 186 181
f 172 181 182
f 172 173 179
f 172 179 186
f 180 186 179
f 183 181 186
