v -0.0739532278 -0.0197831136 0.136462516
v -0.0618849498 -0.0230945042 0.130188603
v -0.0672849932 -0.0179455974 0.139872771
v -0.0666633972 -0.0140501126 0.142856886
v -0.0777941684 -0.021869494 0.128502225
v -0.0737316359 -0.0155478522 0.140111409
v -0.0804805528 -0.0176535503 0.133107944
v -0.05876447 -0.0175240044 0.13978186
v -0.0744032317 -0.0248751987 0.118966922
v -0.0644497431 -0.0256252051 0.113995291
v -0.0548951208 -0.0250138378 0.120482843
v -0.049875763 -0.0203081171 0.126245389
v -0.0517814601 -0.0174330939 0.135621601
v -0.0529757871 -0.0137057915 0.139628451
v -0.0670838552 -0.00738642296 0.145606908
v -0.0565860436 -0.00795233666 0.143843257
v -0.0819612469 -0.0204103898 0.123276047
v -0.075178238 -0.00899211743 0.143158025
v -0.0821101116 -0.0112273624 0.137164795
v -0.0858226407 -0.014726254 0.127806765
v -0.0457291388 -0.0132126056 0.13335681
v -0.0763589295 -0.0230331401 0.115172573
v -0.0646440628 -0.0245354241 0.110612309
v -0.0545553462 -0.0240581471 0.113819153
v -0.0480177935 -0.0205319834 0.117991914
v -0.0447814047 -0.0172808203 0.123731733
v -0.0481996124 -0.00710573861 0.139738678
v -0.0680315899 -0.000893188962 0.146772826
v -0.0611178982 0.000417048796 0.14664328
v -0.0536496563 0.000977280523 0.144278489
v -0.0832771676 -0.0187353779 0.116318037
v -0.0759452899 -0.00246933798 0.144368261
v -0.0834760319 -0.00459208202 0.138945491
v -0.0887465281 -0.00820347457 0.128859047
v -0.088020387 -0.0127285109 0.118751011
v -0.0420177442 -0.00622618629 0.132546576
v -0.0752509664 -0.0216206278 0.109382754
v -0.0635656451 -0.0229308652 0.107333874
v -0.0532507899 -0.0214990363 0.10950321
v -0.0448939051 -0.0166864974 0.114832798
v -0.0397881824 -0.00955803061 0.123079455
v -0.0454245897 0.0014750118 0.138785262
v -0.0700281967 0.00555686268 0.146019411
v -0.0775793941 0.00481822059 0.14359212
v -0.0626735925 0.00728528581 0.146120548
v -0.0555178535 0.00882734345 0.14409326
v -0.0819873834 -0.0168069533 0.109847531
v -0.0845430864 0.00266593037 0.13820344
v -0.0898851743 -0.00157728533 0.128776091
v -0.0899840392 -0.006362551 0.117016906
v -0.0841362645 -0.0120319141 0.107940697
v -0.0381131684 -0.00594322918 0.12104762
v -0.0402802316 0.000309093391 0.131947708
v -0.0729543568 -0.0194978832 0.105265676
v -0.0618576769 -0.0193978817 0.102819065
v -0.0496553066 -0.0167387704 0.106839552
v -0.0424018395 -0.0118694129 0.111632772
v -0.0462177781 0.0104307652 0.136840929
v -0.0797396385 0.0100364443 0.140385275
v -0.0712475246 0.0121671432 0.143485301
v -0.0870896962 0.00580800111 0.133982951
v -0.0622110889 0.0146614811 0.142819385
v -0.0538621583 0.0168342254 0.138572761
v -0.0746157337 -0.0165683148 0.10317134
v -0.0909397278 0.0018488785 0.122740816
v -0.0893272145 -0.00346593679 0.112385051
v -0.082265794 -0.0125103278 0.104907718
v -0.0714770721 -0.0156773981 0.101040641
v -0.0381643048 0.00115569101 0.116583948
v -0.040531369 0.00857734167 0.127995404
v -0.0620656331 -0.0170944549 0.100675867
v -0.049241667 -0.012534191 0.103570208
v -0.040635915 -0.00610800368 0.109905486
v -0.0477496096 0.0175785496 0.132397712
v -0.0717827563 0.0168399075 0.140451184
v -0.0796066827 0.0143648874 0.138064802
v -0.0650077021 0.0201603891 0.1390489
v -0.0865601483 0.0108898601 0.131409067
v -0.0595553857 0.0214865353 0.136726155
v -0.054571255 0.0227842739 0.13084088
v -0.0580758282 -0.0140126118 0.0995031296
v -0.0908760904 0.00681369097 0.122099902
v -0.0901613137 0.00157046718 0.113455514
v -0.0830658022 -0.0053227697 0.105340677
v -0.0732623138 -0.0100682629 0.101362236
v -0.0406006874 0.0107739497 0.115974853
v -0.0426450225 0.0155058058 0.123572641
v -0.0477121087 -0.00485572091 0.101714511
v -0.0417438802 0.00256138408 0.107280465
v -0.048447342 0.0216274456 0.121026029
v -0.072248669 0.0211240321 0.13521137
v -0.0805316902 0.0176455959 0.133528402
v -0.085732869 0.0137785199 0.125848795
v -0.0652008855 0.0244547413 0.132705669
v -0.0876067474 0.0113444095 0.117124862
v -0.0580360551 0.0250615642 0.12786472
v -0.0547860292 0.0250695186 0.119420335
v -0.0637588285 -0.00991371613 0.0989292609
v -0.0568633185 -0.00750460557 0.0981553913
v -0.0847124064 0.00278979515 0.10735092
v -0.076575977 -0.0021454718 0.102497472
v -0.0681429545 -0.00337161793 0.0996429031
v -0.044863222 0.00658755293 0.103824755
v -0.045140498 0.0166933151 0.113119148
v -0.0490018918 -0.000676141769 0.100191772
v -0.0511962282 0.0205081181 0.110921403
v -0.0795271365 0.0187126493 0.119781701
v -0.0718770752 0.0205797099 0.125643112
v -0.0840533084 0.0150887573 0.110567991
v -0.0655554338 0.0238479184 0.1230215
v -0.081610108 0.00840461275 0.102280426
v -0.0585621957 0.0265865769 0.119049877
v -0.0605963031 -0.00118978232 0.0992133547
v -0.0537280658 0.0048079929 0.100031543
v -0.0751452837 0.00471367403 0.097848571
v -0.0647372454 0.00617164051 0.0966269707
v -0.0505212224 0.0139682942 0.103714527
v -0.055131487 0.0237160992 0.110841857
v -0.0784884919 0.0287115927 0.112948692
v -0.0835430771 0.0239831475 0.104008847
v -0.0701225161 0.0313661605 0.117813504
v -0.0823464768 0.0169751356 0.0971928829
v -0.0622065433 0.0341741375 0.114090747
v -0.0798419123 0.013211469 0.0903394199
v -0.0587417429 0.0336468608 0.105411132
v -0.0565064974 0.0120148687 0.099267901
v -0.054441708 0.0181967369 0.104240668
v -0.0740418651 0.0113466817 0.087133712
v -0.0660679379 0.0147773914 0.0863405236
v -0.0590690181 0.0308025196 0.0971690196
v -0.0725475354 0.0386764473 0.116961224
v -0.0792419072 0.0342161829 0.111207769
v -0.0837226249 0.0291002325 0.101861103
v -0.0847726339 0.0244990599 0.0927780758
v -0.0658065722 0.0423867053 0.114573705
v -0.0827930728 0.0165421783 0.0835541387
v -0.0602076636 0.0434321656 0.109610029
v -0.0798169114 0.0134955628 0.0807870725
v -0.0575042329 0.0434389854 0.102649747
v -0.0603815286 0.0250263366 0.0895360038
v -0.0686543222 0.0177887783 0.0770370425
v -0.0620917696 0.0249876992 0.0782495495
v -0.0616531298 0.0348934609 0.0849655143
v -0.0603201645 0.0404435063 0.0958303724
v -0.0735350427 0.046082189 0.118421463
v -0.0672213563 0.0486662996 0.116849859
v -0.0822555684 0.0423696577 0.113244149
v -0.0843374022 0.0420435186 0.10408953
v -0.08646242 0.0357593777 0.0943917257
v -0.0880090227 0.0261911194 0.0836870945
v -0.0622872258 0.0511515454 0.112781645
v -0.0859067335 0.0199103862 0.0757097575
v -0.0609724424 0.0521935978 0.107032735
v -0.0836067145 0.0143887517 0.0707528973
v -0.0638145107 0.0442719459 0.0890110003
v -0.0628997307 0.049871991 0.0992724455
v -0.0734759519 0.0185944677 0.0689017476
v -0.0633372342 0.0262183925 0.0697767533
v -0.0630133679 0.0365139286 0.0786938701
v -0.0774453017 0.0515663217 0.120574889
v -0.0707929758 0.0564890909 0.120288523
v -0.0663929405 0.0583413751 0.113207785
v -0.0910897291 0.0395298631 0.119285106
v -0.0927272422 0.0440946714 0.108794113
v -0.0937556592 0.0424742037 0.0981053916
v -0.0953261272 0.0356355108 0.0900712349
v -0.0934147479 0.0313252519 0.081277985
v -0.06576339 0.0578516014 0.10245088
v -0.0905135893 0.0237638278 0.072219958
v -0.0888897116 0.0183876468 0.0672483278
v -0.0667122612 0.0503026761 0.0836041384
v -0.0673372662 0.054493619 0.0917587499
v -0.0866612844 0.0112671355 0.064001707
v -0.062842912 0.0374832569 0.0673267373
v -0.0649690654 0.0436821684 0.0756336212
v -0.0807396467 0.0173705942 0.0617255533
v -0.0683702289 0.0236967805 0.0604482723
v -0.0620497238 0.0300786497 0.0630823827
v -0.0776328027 0.0567856815 0.12166808
v -0.0698463772 0.0619141307 0.111140723
v -0.0685293213 0.0606448041 0.0996531308
v -0.0913022311 0.0419105628 0.122912408
v -0.0990966126 0.0359911984 0.118640783
v -0.101234127 0.0396491792 0.102489518
v -0.101439811 0.0366366567 0.0902235095
v -0.0994579771 0.034699141 0.0785018256
v -0.0963818173 0.0266581687 0.0699244834
v -0.0697429673 0.0555936256 0.0797654712
v -0.0689884159 0.060651624 0.0884712226
v -0.0964920444 0.0154387596 0.0641983023
v -0.0929181522 0.00946484892 0.0603959993
v -0.0620110873 0.0363161987 0.0601721329
v -0.064620199 0.0440889903 0.0646096666
v -0.067467949 0.0507674522 0.0720438181
v -0.0864328736 0.0106830402 0.0578868861
v -0.0620644967 0.0292581881 0.0570084725
v -0.082795344 0.0178126437 0.0565198291
v -0.0747361896 0.0223979074 0.0553152764
v -0.0681031814 0.0244070128 0.0547743642
v -0.0816964719 0.0608254864 0.119507835
v -0.094448846 0.048942439 0.122430586
v -0.0766293857 0.0650209758 0.109065706
v -0.0745464152 0.0665266697 0.0985588032
v -0.103167098 0.0403923678 0.119904429
v -0.105390979 0.0418219256 0.101431554
v -0.106437578 0.0420787483 0.0907371507
v -0.104878477 0.0420105622 0.0800359294
v -0.0970500042 0.0353605102 0.0675744626
v -0.0986875174 0.0190865169 0.0602459959
v -0.0743770952 0.0611027602 0.0780915959
v -0.0728248104 0.0664232582 0.087038257
v -0.0950954431 0.0114285011 0.0566141516
v -0.0878215205 0.0119171414 0.0536311693
v -0.061138353 0.0384866719 0.0532629849
v -0.0653327047 0.0485742546 0.0594493997
v -0.0716350278 0.0556220354 0.0658994528
v -0.082595343 0.0206217552 0.0518322926
v -0.0602735734 0.0315195697 0.0500720492
v -0.0744123228 0.0232990496 0.0488709044
v -0.0654827059 0.0254945226 0.0481936243
v -0.0851521826 0.0629380053 0.114379385
v -0.099960254 0.0550788498 0.116975997
v -0.104767111 0.0476003797 0.112888464
v -0.0800600954 0.0704198833 0.10064632
v -0.105838712 0.0491276678 0.103681572
v -0.105435298 0.0512720002 0.0913314726
v -0.102909141 0.0510708626 0.0814893504
v -0.0979727385 0.0446571778 0.0624187423
v -0.0919022362 0.040413962 0.0508947862
v -0.0934647477 0.0318525286 0.0544073143
v -0.0977011457 0.0202853905 0.0525175272
v -0.0797635017 0.0630061872 0.0764086275
v -0.0770043889 0.0703607904 0.0878257643
v -0.0933738393 0.0135546535 0.050694783
v -0.0837089893 0.0233615503 0.0462083842
v -0.0604178925 0.0427639786 0.044986784
v -0.05948834 0.0314593422 0.0427197235
v -0.0665918057 0.0514106372 0.0469140699
v -0.0713100254 0.0565345441 0.0481902207
v -0.0773839376 0.0602732119 0.0668665036
v -0.0669088538 0.0252433831 0.0414538005
v -0.0764191569 0.0240967846 0.0431708598
v -0.0874862904 0.0690323709 0.0997565402
v -0.0975352356 0.064133469 0.101558827
v -0.102259136 0.0581947838 0.0992690376
v -0.0851055907 0.0685414583 0.0845495993
v -0.100734126 0.0597561586 0.0886166794
v -0.0921783734 0.0489844843 0.0494800027
v -0.094618166 0.0523833733 0.0587130309
v -0.0976215996 0.0561084056 0.0737370142
v -0.087274925 0.0420685206 0.038028775
v -0.0900579022 0.0285138649 0.0461992911
v -0.087026061 0.0612004906 0.0724926853
v -0.0555383079 0.0405196426 0.0265945906
v -0.0556269451 0.0320798028 0.0266059528
v -0.0625633643 0.0263354374 0.0252582167
v -0.0782134902 0.0584595609 0.0471049841
v -0.0647611092 0.0519731436 0.0266457291
v -0.0849794526 0.0585141072 0.0609425927
v -0.0727304915 0.0272399917 0.0245013925
v -0.0762998377 0.0272183997 0.0344457875
v -0.0934079302 0.0656505252 0.0855700618
v -0.0868953784 0.0548708923 0.0481595376
v -0.079818048 0.0359116501 0.0208502232
v -0.0810441938 0.0528049695 0.0233093408
v -0.0526485125 0.0480537935 -0.00900342567
v -0.0490553015 0.0346707333 -0.00055676178
v -0.0561610401 0.024000193 -0.00701363058
v -0.0740259563 0.0574697772 0.0242775261
v -0.0667054429 0.0552277145 -0.00989888257
v -0.0711327509 0.0319673023 -0.0090704645
v -0.0734475421 0.0512924556 -0.0116170764
v -0.0459518685 0.0479697029 -0.04421621
v -0.0399325005 0.0352150555 -0.0414218643
v -0.0492189394 0.0204819816 -0.0416514117
v -0.0619372231 0.0283911368 -0.0452014386
v -0.0568212727 0.0510651814 -0.0465934892
v -0.0645213346 0.0445480852 -0.0480253329
v -0.0390552214 0.0451730881 -0.0812608104
v -0.034047227 0.0332695854 -0.0779778382
v -0.0431598003 0.0182512832 -0.0775619231
v -0.0564564972 0.0256615693 -0.0776380551
v -0.057951964 0.0391298568 -0.0803687656
v -0.0509962261 0.0476560648 -0.0796437675
v -0.0356892846 0.0419992 -0.113024702
v -0.0310540212 0.0260308904 -0.110778097
v -0.0431813903 0.0159683096 -0.110996282
v -0.0527189676 0.0225831362 -0.113576981
v -0.0536632929 0.0358343794 -0.115053139
v -0.0468780117 0.0439230781 -0.114895185
v -0.0316824361 0.0369241583 -0.153194355
v -0.0279869503 0.0224388161 -0.1511182
v -0.0388631748 0.0116489565 -0.150017046
v -0.0499337182 0.0174569581 -0.150562518
v -0.0511564551 0.0308957013 -0.154054582
v -0.0427779783 0.0394491803 -0.154204577
v -0.0290380959 0.0308400205 -0.190545769
v -0.0259028453 0.0185353748 -0.188674168
v -0.0368961127 0.00706028388 -0.186225312
v -0.0493428041 0.0132705608 -0.188181004
v -0.0498348533 0.0282615909 -0.191140093
v -0.0410359191 0.0344877756 -0.192634455
v -0.0407086434 0.0306718371 -0.227481302
v -0.0320528917 0.0287400025 -0.227090381
v -0.0264994384 0.0124773724 -0.225200594
v -0.0340790446 0.00204319813 -0.22365059
v -0.0448870874 0.00485572091 -0.223511974
v -0.0518223688 0.014621708 -0.225001729
v -0.0495780327 0.0268229421 -0.227326769
v -0.0429018431 0.0277581774 -0.265105478
v -0.0305960629 0.0249524716 -0.26548502
v -0.0269198958 0.008953481 -0.266249795
v -0.0360097426 -0.00463412787 -0.263129331
v -0.046898466 -0.00170796827 -0.261558838
v -0.0524201017 0.00972280511 -0.262414544
v -0.0530610155 0.0229922293 -0.264005459
v -0.045956413 0.0275593109 -0.295662552
v -0.0297869657 0.0211092599 -0.298893251
v -0.030392652 0.00259320249 -0.296959133
v -0.0356563304 -0.00933984749 -0.293498886
v -0.0479257474 -0.0114500921 -0.290345436
v -0.0548326211 0.00703755626 -0.296242076
v -0.0564814975 0.0232820042 -0.295243216
v -0.0614440373 0.0261468008 -0.310403576
v -0.0468211931 0.0291104602 -0.312009257
v -0.0304551527 0.0236195076 -0.317687728
v -0.0308847011 -0.000507958613 -0.315841121
v -0.0394268158 -0.0156455794 -0.30801717
v -0.0506939513 -0.0206774381 -0.30504555
v -0.0552383053 -0.0105080391 -0.30802059
v -0.0569428647 0.00371139332 -0.311191075
v -0.0508473615 0.0357048314 -0.326515044
v -0.0677531786 0.0324457139 -0.318353612
v -0.06497702 0.0164637687 -0.318359302
v -0.0383711257 0.0325070779 -0.330031001
v -0.0243403318 0.0239831475 -0.329825295
v -0.0269971708 0.00960007698 -0.328190083
v -0.0290687769 -0.0021329716 -0.328318471
v -0.0336972247 -0.0149285283 -0.322912761
v -0.0567439998 -0.0379616684 -0.319404762
v -0.0408427359 -0.023510415 -0.319462742
v -0.0517791868 -0.0266581687 -0.312830859
v -0.059480385 -0.0153058048 -0.317269544
v -0.0603849377 0.000252274751 -0.319344547
v -0.0751816469 0.0330991287 -0.323690032
v -0.0617872218 0.0409855573 -0.331525328
v -0.0526451036 0.0387582646 -0.335632189
v -0.0755918776 0.0163455851 -0.321985461
v -0.0721100315 0.0103478101 -0.324274128
v -0.0400006844 0.0333161751 -0.338167439
v -0.0241812394 0.0242331483 -0.339728788
v -0.0273437653 0.00998758013 -0.339035608
v -0.0302994703 -0.000263638482 -0.340270856
v -0.0271676254 -0.00889666246 -0.339012883
v -0.0349654168 -0.0204558451 -0.332945793
v -0.0427154776 -0.0312718422 -0.327043463
v -0.0446359479 -0.0344491402 -0.335602624
v -0.0511314542 -0.0419060162 -0.330652587
v -0.0611235801 -0.0426435238 -0.326287765
v -0.0654292964 -0.0295400086 -0.323234357
v -0.0665077141 -0.0188308329 -0.324646863
v -0.0667781708 -0.00220229034 -0.32687982
v -0.075560059 0.0400082746 -0.336417419
v -0.0835169406 0.0314513878 -0.329910538
v -0.0849124074 0.0250501999 -0.328257105
v -0.0668963536 0.0420832907 -0.340314036
v -0.0555167169 0.0387741734 -0.342765195
v -0.0770384808 0.00721369405 -0.333982177
v -0.083537396 0.0136944282 -0.330386667
v -0.0670531729 -0.00176705957 -0.333248052
v -0.0445961758 0.0337241337 -0.34661975
v -0.0365188372 0.0314934331 -0.348223195
v -0.0290119594 0.0255922509 -0.349136813
v -0.0306494726 0.0121250969 -0.348490233
v -0.0355290578 3.75003007e-05 -0.347740225
v -0.0307006089 -0.00694096463 -0.348647035
v -0.026568759 -0.0116216844 -0.349270925
v -0.0306040173 -0.018541058 -0.344944744
v -0.0364495188 -0.0242899679 -0.341753804
v -0.0472564238 -0.0351355093 -0.343712916
v -0.0566996812 -0.0435208028 -0.336040145
v -0.0727600369 -0.0409707831 -0.330365094
v -0.0820987483 -0.0317513904 -0.32653323
v -0.0686054583 -0.0323013958 -0.325795718
v -0.0759589264 -0.0215228995 -0.32518778
v -0.0736464075 -0.014791028 -0.331328733
v -0.0885124362 0.0338559529 -0.340422002
v -0.0787259937 0.0347695961 -0.344993614
v -0.0899249463 0.0264740765 -0.338366303
v -0.0877703842 0.0159069456 -0.339539034
v -0.0717895746 0.0367389294 -0.348690249
v -0.06077585 0.0362639257 -0.352107316
v -0.0677361331 0.00708073875 -0.342723133
v -0.0830589824 0.00998530683 -0.343244745
v -0.0598497061 -0.0020943349 -0.345124305
v -0.06564748 -0.0106875858 -0.343222021
v -0.0454029997 0.0323650311 -0.353237984
v -0.0381415782 0.0291286423 -0.357263023
v -0.0384563529 0.016339904 -0.357173243
v -0.0425734307 0.00498299457 -0.353368675
v -0.0408313715 -0.00465344661 -0.354457315
v -0.0314256155 -0.0131603326 -0.356934619
v -0.0332506287 -0.0213513083 -0.352527769
v -0.0399177283 -0.0260933911 -0.348090235
v -0.0500144 -0.0355139214 -0.34929138
v -0.0616519935 -0.0414094226 -0.346561804
v -0.0731339035 -0.0417389695 -0.343612908
v -0.0879362943 -0.0383366727 -0.342916307
v -0.0845374032 -0.023787691 -0.328492342
v -0.0835703503 -0.0149978479 -0.337039005
v -0.08860221 0.0319093461 -0.348072049
v -0.082391932 0.0361787006 -0.352894815
v -0.0892567594 0.0223354067 -0.345329976
v -0.0814760155 0.0141626131 -0.350777749
v -0.0730100387 0.0367002919 -0.358649418
v -0.0578280992 0.0339968631 -0.359378971
v -0.0706452473 0.00861711475 -0.351710705
v -0.0794850912 -0.0162399024 -0.350898212
v -0.0695600112 -0.0158262627 -0.358166447
v -0.0562167225 -0.00127841928 -0.351698208
v -0.0562667228 0.0064136879 -0.353244825
v -0.0852419543 -0.0163671761 -0.344427704
v -0.0488052997 0.0292331883 -0.359899399
v -0.0480598388 0.0201172071 -0.361049439
v -0.0495257597 -0.000237501909 -0.35400049
v -0.0502723572 0.0104284929 -0.357160746
v -0.0424757024 -0.0147444361 -0.36213012
v -0.0483757502 -0.00612618526 -0.357607345
v -0.0392859055 -0.0253115671 -0.361583514
v -0.0449461781 -0.0294741001 -0.354463005
v -0.0535905655 -0.0339991364 -0.356690306
v -0.0607872138 -0.0392662247 -0.353360717
v -0.0731214035 -0.0410139629 -0.350709576
v -0.0850260445 -0.038504854 -0.349669771
v -0.0898272181 -0.0239786009 -0.337261746
v -0.0807385101 0.0211115332 -0.355220972
v -0.0776009851 0.0279093153 -0.357998266
v -0.0751691469 0.014591026 -0.354786871
v -0.0652883862 0.0264854387 -0.361086929
v -0.0629633675 0.0123716898 -0.356788011
v -0.0808430561 -0.0209103955 -0.356852798
v -0.0686997771 -0.0183490114 -0.363189229
v -0.0572530944 -0.00864325126 -0.357710773
v -0.0882987975 -0.0262774833 -0.351219809
v -0.0573246862 0.0195126554 -0.361058515
v -0.0541417055 -0.0242183761 -0.367567665
v -0.0593053839 -0.0179626449 -0.366254016
v -0.0509382709 -0.0320286664 -0.36492787
v -0.0695009199 -0.0389798577 -0.361676715
v -0.0801078229 -0.0358764247 -0.358985781
v -0.0824623872 -0.0277263577 -0.358427795
v -0.0695293292 0.0193592463 -0.359175535
v -0.0746566434 -0.0240888302 -0.363759677
v -0.0663145307 -0.0237785999 -0.366650593
v -0.0629815495 -0.0359968795 -0.365152879
v -0.0737475447 -0.0311991138 -0.364049439
f 1 2 3
f 3 4 1
f 5 2 1
f 4 6 1
f 6 7 1
f 1 7 5
f 3 2 8
f 9 2 5
f 10 2 9
f 11 2 10
f 12 2 11
f 13 2 12
f 8 2 13
f 8 14 3
f 14 4 3
f 4 15 6
f 14 16 4
f 16 15 4
f 7 17 5
f 5 17 9
f 15 18 6
f 6 18 7
f 18 19 7
f 19 20 7
f 7 20 17
f 13 21 8
f 21 14 8
f 17 22 9
f 9 22 10
f 22 23 10
f 10 23 11
f 23 24 11
f 11 24 12
f 24 25 12
f 25 26 12
f 12 26 13
f 26 21 13
f 21 27 14
f 27 16 14
f 15 28 18
f 16 29 15
f 29 28 15
f 27 30 16
f 30 29 16
f 20 31 17
f 17 31 22
f 28 32 18
f 18 32 19
f 32 33 19
f 19 33 20
f 33 34 20
f 34 35 20
f 20 35 31
f 26 36 21
f 36 27 21
f 31 37 22
f 22 37 23
f 37 38 23
f 23 38 24
f 38 39 24
f 24 39 25
f 39 40 25
f 25 40 26
f 40 41 26
f 41 36 26
f 36 42 27
f 42 30 27
f 28 43 44
f 28 44 32
f 29 43 28
f 30 45 29
f 29 45 43
f 42 46 30
f 30 46 45
f 35 47 31
f 31 47 37
f 32 44 48
f 32 48 33
f 33 48 49
f 33 49 34
f 34 49 50
f 34 50 35
f 35 50 51
f 35 51 47
f 41 52 36
f 52 53 36
f 53 42 36
f 47 54 37
f 37 54 38
f 54 55 38
f 38 55 39
f 55 56 39
f 39 56 40
f 56 57 40
f 40 57 41
f 57 52 41
f 53 58 42
f 42 58 46
f 43 59 44
f 43 60 59
f 45 60 43
f 44 59 61
f 44 61 48
f 46 62 45
f 45 62 60
f 58 63 46
f 46 63 62
f 47 51 64
f 47 64 54
f 48 61 65
f 48 65 49
f 49 65 66
f 49 66 50
f 50 66 67
f 50 67 51
f 51 67 68
f 51 68 64
f 57 69 52
f 52 69 70
f 52 70 53
f 53 70 58
f 54 64 71
f 54 71 55
f 55 71 72
f 55 72 56
f 56 72 73
f 56 73 57
f 57 73 69
f 70 74 58
f 58 74 63
f 60 75 59
f 75 76 59
f 59 76 61
f 62 77 60
f 77 75 60
f 76 78 61
f 61 78 65
f 63 79 62
f 79 77 62
f 74 80 63
f 80 79 63
f 64 68 81
f 64 81 71
f 78 82 65
f 65 82 66
f 82 83 66
f 66 83 67
f 83 84 67
f 67 84 68
f 84 85 68
f 68 85 81
f 73 86 69
f 69 86 87
f 69 87 70
f 70 87 74
f 71 81 88
f 71 88 72
f 72 88 89
f 72 89 73
f 73 89 86
f 87 90 74
f 90 80 74
f 75 91 92
f 75 92 76
f 77 91 75
f 76 92 93
f 76 93 78
f 79 94 77
f 77 94 91
f 78 93 95
f 78 95 82
f 80 96 79
f 79 96 94
f 90 97 80
f 80 97 96
f 85 98 81
f 98 99 81
f 81 99 88
f 82 95 83
f 83 95 100
f 83 100 84
f 84 100 101
f 84 101 85
f 85 101 102
f 85 102 98
f 89 103 86
f 103 104 86
f 86 104 87
f 104 90 87
f 99 105 88
f 88 105 89
f 105 103 89
f 104 106 90
f 90 106 97
f 91 107 92
f 91 108 107
f 94 108 91
f 92 107 93
f 93 107 109
f 93 109 95
f 96 110 94
f 94 110 108
f 95 109 111
f 95 111 100
f 97 112 96
f 96 112 110
f 106 112 97
f 98 102 113
f 98 113 99
f 99 113 114
f 99 114 105
f 100 111 115
f 100 115 101
f 101 115 116
f 101 116 102
f 102 116 113
f 105 117 103
f 103 117 106
f 103 106 104
f 105 114 117
f 117 118 106
f 106 118 112
f 108 119 107
f 107 119 120
f 107 120 109
f 108 121 119
f 110 121 108
f 109 120 122
f 109 122 111
f 112 123 110
f 110 123 121
f 111 122 124
f 111 124 115
f 118 125 112
f 112 125 123
f 113 116 126
f 113 126 114
f 114 127 117
f 114 126 127
f 115 124 128
f 115 128 116
f 116 128 129
f 116 129 126
f 117 127 118
f 127 130 118
f 118 130 125
f 121 131 119
f 131 132 119
f 119 132 120
f 132 133 120
f 133 134 120
f 120 134 122
f 123 135 121
f 135 131 121
f 134 136 122
f 122 136 124
f 125 137 123
f 137 135 123
f 136 138 124
f 124 138 128
f 130 139 125
f 139 137 125
f 126 140 127
f 126 129 140
f 127 140 130
f 138 141 128
f 128 141 129
f 141 142 129
f 129 142 140
f 140 143 130
f 143 144 130
f 144 139 130
f 131 145 132
f 135 146 131
f 146 145 131
f 145 147 132
f 132 147 133
f 147 148 133
f 133 148 134
f 148 149 134
f 149 150 134
f 134 150 136
f 137 151 135
f 151 146 135
f 150 152 136
f 136 152 138
f 139 153 137
f 153 151 137
f 152 154 138
f 138 154 141
f 144 155 139
f 155 156 139
f 156 153 139
f 142 143 140
f 154 157 141
f 141 157 142
f 142 158 143
f 157 158 142
f 158 159 143
f 143 159 144
f 159 155 144
f 145 160 147
f 146 161 145
f 161 160 145
f 151 162 146
f 162 161 146
f 160 163 147
f 163 164 147
f 147 164 148
f 164 165 148
f 148 165 149
f 165 166 149
f 149 166 150
f 166 167 150
f 150 167 152
f 153 168 151
f 168 162 151
f 167 169 152
f 169 170 152
f 152 170 154
f 156 171 153
f 171 172 153
f 153 172 168
f 170 173 154
f 154 173 157
f 159 174 155
f 174 175 155
f 155 175 156
f 175 171 156
f 157 176 158
f 173 176 157
f 176 177 158
f 159 158 178
f 158 177 178
f 178 174 159
f 160 179 163
f 161 179 160
f 162 180 161
f 180 179 161
f 168 181 162
f 181 180 162
f 179 182 163
f 163 183 164
f 182 183 163
f 164 183 165
f 183 184 165
f 165 184 166
f 184 185 166
f 185 186 166
f 166 186 167
f 186 187 167
f 167 187 169
f 172 188 168
f 188 189 168
f 189 181 168
f 187 190 169
f 169 190 170
f 190 191 170
f 170 191 173
f 175 192 171
f 192 193 171
f 193 194 171
f 171 194 172
f 194 188 172
f 191 195 173
f 173 195 176
f 178 196 174
f 174 196 175
f 196 192 175
f 195 197 176
f 176 197 177
f 197 198 177
f 177 198 199
f 177 199 178
f 178 199 196
f 180 200 179
f 179 200 201
f 179 201 182
f 181 202 180
f 180 202 200
f 189 203 181
f 181 203 202
f 182 201 204
f 182 204 183
f 183 204 205
f 183 205 184
f 184 205 206
f 184 206 185
f 185 206 207
f 185 207 186
f 186 207 208
f 186 208 187
f 187 208 209
f 187 209 190
f 194 210 188
f 188 210 211
f 188 211 189
f 189 211 203
f 190 209 212
f 190 212 191
f 191 212 213
f 191 213 195
f 196 214 192
f 192 214 215
f 192 215 193
f 193 215 216
f 193 216 194
f 194 216 210
f 195 213 217
f 195 217 197
f 199 218 196
f 196 218 214
f 197 217 219
f 197 219 198
f 198 219 220
f 198 220 199
f 199 220 218
f 202 221 200
f 200 221 222
f 200 222 201
f 201 222 223
f 201 223 204
f 203 221 202
f 211 224 203
f 203 224 221
f 204 223 225
f 204 225 205
f 205 225 226
f 205 226 206
f 206 226 227
f 206 227 207
f 207 227 228
f 207 228 208
f 229 230 208
f 228 229 208
f 209 208 230
f 231 209 230
f 212 209 231
f 216 232 210
f 210 232 233
f 210 233 211
f 211 233 224
f 234 212 231
f 213 212 234
f 235 213 234
f 217 213 235
f 214 236 215
f 237 236 214
f 218 237 214
f 215 238 216
f 236 238 215
f 216 239 240
f 238 239 216
f 216 240 232
f 217 235 219
f 241 237 218
f 220 241 218
f 219 242 220
f 235 242 219
f 242 241 220
f 224 243 221
f 221 243 222
f 222 243 244
f 222 244 223
f 223 244 245
f 223 245 225
f 233 246 224
f 224 246 243
f 225 245 226
f 226 245 247
f 226 247 227
f 227 247 228
f 248 229 228
f 249 248 228
f 228 247 250
f 228 250 249
f 229 251 230
f 248 251 229
f 231 230 252
f 230 251 252
f 234 231 252
f 240 253 232
f 232 253 246
f 232 246 233
f 235 234 252
f 235 252 242
f 236 254 238
f 255 254 236
f 237 255 236
f 256 255 237
f 241 256 237
f 238 254 239
f 239 257 240
f 239 258 257
f 254 258 239
f 240 257 259
f 259 253 240
f 260 256 241
f 242 260 241
f 242 261 260
f 242 252 261
f 246 262 243
f 243 262 244
f 244 262 245
f 245 262 247
f 253 262 246
f 247 262 250
f 263 248 249
f 263 251 248
f 259 263 249
f 249 250 259
f 250 262 253
f 259 250 253
f 252 251 261
f 261 251 264
f 264 251 265
f 265 251 263
f 254 266 258
f 267 266 254
f 255 267 254
f 268 267 255
f 256 268 255
f 260 268 256
f 257 263 259
f 257 269 263
f 258 269 257
f 258 270 269
f 266 270 258
f 271 268 260
f 264 271 260
f 261 264 260
f 269 265 263
f 272 271 264
f 265 272 264
f 270 272 265
f 269 270 265
f 266 273 270
f 274 273 266
f 267 274 266
f 275 274 267
f 268 275 267
f 276 275 268
f 271 276 268
f 270 277 272
f 273 277 270
f 278 276 271
f 272 278 271
f 277 278 272
f 273 279 277
f 280 279 273
f 274 280 273
f 281 280 274
f 275 281 274
f 282 281 275
f 276 282 275
f 283 282 276
f 278 283 276
f 277 284 278
f 279 284 277
f 284 283 278
f 279 285 284
f 286 285 279
f 280 286 279
f 287 286 280
f 281 287 280
f 288 287 281
f 282 288 281
f 289 288 282
f 283 289 282
f 290 289 283
f 284 290 283
f 285 290 284
f 285 291 290
f 292 291 285
f 286 292 285
f 293 292 286
f 287 293 286
f 294 293 287
f 288 294 287
f 295 294 288
f 289 295 288
f 296 295 289
f 290 296 289
f 291 296 290
f 291 297 296
f 298 297 291
f 292 298 291
f 299 298 292
f 293 299 292
f 300 299 293
f 294 300 293
f 301 300 294
f 295 301 294
f 302 301 295
f 296 302 295
f 297 302 296
f 297 303 302
f 297 304 303
f 298 304 297
f 298 305 304
f 298 306 305
f 299 306 298
f 299 307 306
f 300 307 299
f 300 308 307
f 301 308 300
f 302 309 301
f 301 309 308
f 302 303 309
f 303 310 309
f 311 310 303
f 304 311 303
f 312 311 304
f 305 312 304
f 313 312 305
f 306 313 305
f 314 313 306
f 307 314 306
f 315 314 307
f 308 315 307
f 316 315 308
f 309 316 308
f 310 316 309
f 310 317 316
f 318 317 310
f 311 318 310
f 319 318 311
f 312 319 311
f 320 319 312
f 313 320 312
f 321 320 313
f 314 321 313
f 322 321 314
f 315 322 314
f 323 322 315
f 316 323 315
f 317 323 316
f 317 324 323
f 317 325 324
f 318 325 317
f 318 326 325
f 319 326 318
f 319 327 326
f 319 328 327
f 320 328 319
f 320 329 328
f 321 329 320
f 321 330 329
f 322 330 321
f 322 331 330
f 323 331 322
f 323 324 331
f 324 332 333
f 325 332 324
f 324 334 331
f 324 333 334
f 325 335 332
f 326 335 325
f 326 336 335
f 326 337 336
f 327 337 326
f 327 338 337
f 328 338 327
f 328 339 338
f 329 339 328
f 329 340 341
f 329 341 339
f 329 342 340
f 330 342 329
f 330 343 342
f 331 343 330
f 331 344 343
f 331 334 344
f 332 345 333
f 332 346 345
f 332 347 346
f 335 347 332
f 333 348 334
f 333 345 348
f 334 349 344
f 334 348 349
f 335 350 347
f 336 350 335
f 336 351 350
f 337 351 336
f 337 352 351
f 337 353 352
f 338 353 337
f 338 354 353
f 339 354 338
f 339 355 354
f 341 355 339
f 341 340 356
f 340 357 356
f 340 358 357
f 340 359 358
f 360 359 340
f 342 360 340
f 341 356 355
f 343 360 342
f 343 361 360
f 344 361 343
f 344 362 361
f 344 349 362
f 345 363 364
f 346 363 345
f 345 365 348
f 345 364 365
f 346 366 363
f 347 366 346
f 347 367 366
f 350 367 347
f 348 368 349
f 348 369 368
f 348 365 369
f 349 370 362
f 349 368 370
f 350 371 367
f 350 372 371
f 351 372 350
f 351 373 372
f 352 373 351
f 352 374 373
f 352 375 374
f 353 375 352
f 353 376 375
f 354 376 353
f 354 377 376
f 354 378 377
f 355 378 354
f 355 379 378
f 356 379 355
f 356 357 379
f 357 380 379
f 381 380 357
f 358 381 357
f 382 381 358
f 359 382 358
f 383 382 359
f 384 383 359
f 360 384 359
f 361 384 360
f 361 385 384
f 361 386 385
f 362 386 361
f 362 370 386
f 363 387 364
f 388 387 363
f 366 388 363
f 364 389 365
f 387 389 364
f 365 390 369
f 389 390 365
f 391 388 366
f 367 391 366
f 392 391 367
f 371 392 367
f 368 393 370
f 394 393 368
f 369 394 368
f 390 394 369
f 370 395 396
f 370 396 386
f 393 395 370
f 397 392 371
f 372 397 371
f 398 397 372
f 373 398 372
f 399 398 373
f 374 399 373
f 400 399 374
f 375 400 374
f 400 375 401
f 402 401 375
f 376 402 375
f 377 402 376
f 403 402 377
f 404 403 377
f 378 404 377
f 380 404 378
f 379 380 378
f 380 405 404
f 406 405 380
f 381 406 380
f 407 406 381
f 382 407 381
f 383 407 382
f 408 407 383
f 409 408 383
f 409 383 384
f 385 409 384
f 410 409 385
f 386 410 385
f 396 410 386
f 387 411 389
f 388 411 387
f 412 411 388
f 391 412 388
f 389 413 390
f 411 413 389
f 390 414 394
f 413 414 390
f 415 412 391
f 392 415 391
f 416 415 392
f 397 416 392
f 393 417 395
f 394 417 393
f 414 417 394
f 395 418 396
f 419 418 395
f 420 419 395
f 417 421 395
f 395 421 420
f 396 422 410
f 418 422 396
f 398 416 397
f 423 416 398
f 399 423 398
f 424 423 399
f 400 424 399
f 425 400 401
f 426 424 400
f 425 426 400
f 427 428 401
f 402 427 401
f 401 428 425
f 429 427 402
f 403 429 402
f 430 429 403
f 404 430 403
f 405 430 404
f 405 431 430
f 432 431 405
f 406 432 405
f 407 432 406
f 433 432 407
f 408 433 407
f 434 433 408
f 435 434 408
f 435 408 409
f 410 435 409
f 422 435 410
f 411 436 413
f 412 436 411
f 437 436 412
f 415 437 412
f 413 438 414
f 436 438 413
f 414 438 417
f 439 437 415
f 416 439 415
f 423 439 416
f 417 440 421
f 438 440 417
f 418 441 422
f 419 441 418
f 442 441 419
f 443 442 419
f 443 419 420
f 425 443 420
f 420 426 425
f 421 426 420
f 421 440 426
f 422 444 435
f 441 444 422
f 445 439 423
f 424 445 423
f 426 445 424
f 428 443 425
f 440 445 426
f 427 446 428
f 429 446 427
f 446 447 428
f 428 447 443
f 448 446 429
f 430 448 429
f 431 448 430
f 431 449 448
f 432 449 431
f 449 432 433
f 434 450 433
f 450 449 433
f 451 450 434
f 444 451 434
f 444 434 435
f 436 452 438
f 437 452 436
f 439 452 437
f 438 452 440
f 445 452 439
f 440 452 445
f 441 453 444
f 442 453 441
f 454 453 442
f 447 454 442
f 447 442 443
f 453 451 444
f 446 454 447
f 455 454 446
f 448 455 446
f 449 455 448
f 449 456 455
f 450 456 449
f 451 456 450
f 453 456 451
f 454 456 453
f 455 456 454
