v -0.056937462 -0.0519720296 -0.169117539
v -0.0569091992 -0.0506390382 -0.16095913
v -0.0418670163 -0.0632832984 -0.167399789
v -0.0525920247 -0.0588403016 -0.152690394
v -0.0432291808 -0.0740274566 -0.149932327
v -0.0772714869 -0.0644622047 -0.177733649
v -0.079622914 -0.0600957936 -0.162795408
v -0.0733810159 -0.0567560244 -0.169794977
v -0.0701843947 -0.050848742 -0.164648104
v -0.0864200688 -0.0735816033 -0.175192585
v -0.069042871 -0.0540335125 -0.149879446
v -0.0708344766 -0.0600702651 -0.143929313
v -0.0770517564 -0.0589196249 -0.14759914
v -0.0640072351 -0.059395565 -0.14443625
v -0.0819323936 -0.0664042441 -0.15299401
v -0.0835088269 -0.0818621934 -0.149317801
v -0.0776289005 -0.054924302 -0.152673072
v -0.0718419719 -0.0516237392 -0.156806071
v -0.0653037576 -0.0508095389 -0.156717631
v -0.0611114883 -0.0517732661 -0.152726867
v -0.0890432006 -0.0842491758 -0.15912376
v -0.0445676441 -0.0877421199 -0.148093312
v -0.0562536455 -0.0812494874 -0.140105401
v -0.0560074694 -0.063286036 -0.145598741
v -0.0595842984 -0.0559664423 -0.148684131
v -0.0660368107 -0.0709083314 -0.140378016
v -0.0802748232 -0.0914137707 -0.14817628
v -0.0165092027 -0.121204551 -0.0857901518
v -0.0257726631 -0.102655743 -0.112372456
v -0.0410847267 -0.112678702 -0.0635678737
v -0.0574845158 -0.0909660969 -0.109551477
v -0.00805902892 -0.111002892 -0.116231016
v -0.000978316347 -0.116791641 -0.0931580684
v -0.0147905383 -0.120940135 -0.0684831626
v -0.0384014248 -0.120886347 -0.0568573348
v -0.0389092721 -0.108626847 -0.0379018899
v -0.0600201182 -0.0943569199 -0.0278652562
v -0.0706740093 -0.0727865494 -0.0789127617
v -0.0580826302 -0.0918258825 -0.0215659222
v -0.0791497116 -0.069608161 -0.0180091499
v -0.0958421759 -0.0671072104 -0.0284205128
v -0.0889693457 -0.0654104301 -0.0377997688
v -0.115851622 -0.0622347793 -0.058115561
v -0.092930934 -0.0668227414 -0.108610542
v -0.12768715 -0.052762522 -0.0599445492
v -0.120524383 -0.0581564851 -0.0848072764
v -0.123733768 -0.0517978844 -0.0803724857
v -0.130158924 -0.0510484192 -0.0690484527
v -0.111080388 -0.0559910572 -0.035364467
v -0.122262187 -0.0509444775 -0.0938993275
v -0.109647106 -0.057637694 -0.109659065
v -0.118837622 -0.0520987622 -0.104464779
v -0.0537362793 -0.0566466109 -0.132612572
v -0.0763250821 -0.0554357972 -0.0928854526
v -0.0328369643 -0.0867328039 -0.120152487
v -0.0415825474 -0.0718766169 -0.13810865
v -0.0868577159 -0.0639324699 -0.114622675
v -0.0885973473 -0.0502469831 -0.0814100661
v -0.0951501533 -0.0462908667 -0.094370706
v -0.122303217 -0.0509271551 -0.09488585
v -0.108404378 -0.0539313982 -0.0837842842
v -0.0625511556 -0.0776763097 -0.0197825227
v -0.0519145869 -0.0898774576 -0.0751900537
v -0.0752346223 -0.0604276718 -0.0630974056
v -0.0217317515 -0.0974341043 -0.112040576
v 0 -0.108242084 -0.103561227
v -0.00762776729 -0.111944732 -0.0834934331
v -0.00107952151 -0.116476168 -0.0930905982
v -0.0238242365 -0.109883249 -0.0608699836
v -0.0768110488 -0.0542979248 -0.043394316
v -0.0734156676 -0.0646864934 -0.022168588
v -0.0911147101 -0.0537089267 -0.03046468
v -0.101007289 -0.0476430011 -0.0657342119
v -0.12790415 -0.0471078013 -0.0788917913
v -0.129986596 -0.0460784252 -0.069953827
v -0.11893153 -0.0400088517 -0.0706531454
v -0.125607434 -0.0471114458 -0.0552790809
v -0.123795762 -0.0517687079 -0.0806022496
v -0.0922553236 -0.061656725 -0.0239383129
v -0.110623598 -0.0445421121 -0.0532449505
v -0.087805031 -0.0367666419 -0.197296331
v -0.0972955177 -0.0329700824 -0.205487565
v -0.0593071252 -0.0173379896 -0.190988791
v -0.0427413902 -0.00219460143 -0.170021093
v -0.0239801472 -0.00439011484 -0.168871363
v -0.0228504792 -0.00202501443 -0.175616551
v -0.0507511859 0.000320027051 -0.192766715
v -0.0504922455 -0.0016402526 -0.179100378
v -0.0572191967 -0.0175449591 -0.186081708
v -0.0506946569 -0.0339702786 -0.162483589
v -0.066349539 -0.023003654 -0.210553294
v -0.0839993518 -0.0325287907 -0.213765417
v -0.108673346 -0.063344389 -0.196095544
v -0.123760207 -0.0549416244 -0.191938844
v -0.120186112 -0.063024358 -0.172712598
v -0.123644411 -0.0493862838 -0.180510869
v -0.090171043 -0.0457064268 -0.186321499
v -0.104221232 -0.0474387692 -0.208483598
v -0.101885307 -0.0660823925 -0.182541348
v -0.107917502 -0.0617843679 -0.164371841
v -0.115742212 -0.0561269095 -0.167774518
v -0.114291594 -0.0482867042 -0.153165421
v -0.101072931 -0.0616384855 -0.158205618
v -0.0814865471 -0.0609874934 -0.131181113
v -0.0935071677 -0.0653502565 -0.175965751
v -0.0960482318 -0.0688769353 -0.161745061
v -0.0736591061 -0.045508577 -0.172493778
v -0.0920592944 -0.0766405549 -0.147585462
v -0.0569775822 -0.0481964405 -0.153881151
v -0.0498193694 -0.0471871246 -0.17142064
v -0.0479812648 -0.0403498496 -0.165037425
v -0.0381816909 -0.0809941949 -0.145449214
v -0.0546288927 -0.0902640409 -0.128716629
v -0.02695339 -0.0882855292 -0.1319324
v -0.080378758 -0.0844114636 -0.132005341
v -0.0650384317 -0.0953470928 -0.142551646
v -0.0287778165 -0.0153850048 -0.179738606
v -0.039649621 -0.0589962106 -0.146959995
v -0.0381388364 -0.0549744488 -0.163335169
v -0.0480833825 -0.0546872456 -0.173605215
v -0.0200048827 -0.0217609279 -0.172436335
v -0.0395320048 -0.0380549549 -0.158028739
v -0.0493963138 -0.00513410908 -0.196584249
v -0.0330749343 -0.0332326673 -0.169890706
v -0.054004336 -0.0565162304 -0.132773953
f 3 2 1
f 5 4 3
f 8 7 6
f 9 7 8
f 6 7 10
f 11 12 13
f 12 11 14
f 12 15 13
f 15 12 16
f 1 2 9
f 17 15 7
f 18 17 7
f 18 7 9
f 19 11 18
f 20 19 2
f 7 21 10
f 15 16 7
f 7 16 21
f 3 22 5
f 23 5 22
f 24 4 5
f 24 5 23
f 25 11 20
f 25 20 4
f 26 23 27
f 26 24 23
f 20 2 4
f 25 4 24
f 14 25 24
f 14 24 26
f 19 9 2
f 19 18 9
f 17 11 13
f 18 11 17
f 16 12 26
f 26 27 16
f 16 27 21
f 20 11 19
f 14 11 25
f 13 15 17
f 30 29 28
f 31 29 30
f 32 28 29
f 33 28 32
f 28 33 34
f 35 28 34
f 35 30 28
f 35 34 36
f 37 38 30
f 35 37 30
f 37 35 36
f 37 36 39
f 41 37 40
f 41 42 37
f 40 37 39
f 42 43 38
f 37 42 38
f 31 30 38
f 44 31 38
f 44 38 43
f 45 46 43
f 47 46 48
f 74 47 48
f 48 46 45
f 49 43 41
f 41 43 42
f 49 45 43
f 50 46 47
f 50 51 46
f 52 51 50
f 51 44 43
f 43 46 51
f 53 54 55
f 55 114 56
f 55 56 53
f 57 54 53
f 59 58 54
f 59 54 51
f 59 51 52
f 60 59 52
f 59 61 58
f 44 54 57
f 51 54 44
f 62 63 64
f 63 54 64
f 114 55 65
f 66 32 65
f 68 66 67
f 32 66 68
f 54 63 55
f 55 63 65
f 65 63 66
f 67 63 69
f 69 63 62
f 68 67 34
f 34 67 69
f 36 34 69
f 36 69 62
f 36 62 39
f 64 70 62
f 71 70 72
f 73 70 64
f 58 73 64
f 58 61 73
f 74 75 76
f 77 75 45
f 75 77 76
f 73 61 76
f 76 61 78
f 78 74 76
f 76 74 78
f 61 60 78
f 79 49 41
f 79 72 49
f 40 71 79
f 40 79 41
f 39 62 40
f 71 40 62
f 77 45 49
f 72 70 80
f 73 80 70
f 80 77 49
f 76 77 80
f 60 61 59
f 76 80 73
f 58 64 54
f 62 70 71
f 79 71 72
f 67 66 63
f 83 82 81
f 84 85 86
f 87 84 86
f 84 87 88
f 87 89 90
f 88 87 90
f 90 84 88
f 82 91 92
f 95 94 93
f 96 94 95
f 82 94 96
f 82 96 81
f 96 97 81
f 94 82 98
f 94 98 93
f 100 95 99
f 100 101 95
f 100 103 102
f 104 102 57
f 100 99 103
f 103 99 105
f 106 103 105
f 107 101 102
f 21 106 10
f 108 106 21
f 104 107 102
f 110 107 109
f 110 109 111
f 111 109 90
f 114 113 112
f 65 113 114
f 31 113 65
f 115 113 31
f 113 116 112
f 115 31 57
f 31 44 57
f 108 21 27
f 115 108 27
f 115 27 116
f 108 115 57
f 108 57 103
f 10 105 6
f 97 96 101
f 107 97 101
f 86 117 87
f 119 118 112
f 90 122 121
f 90 121 85
f 90 85 84
f 123 91 87
f 82 87 91
f 98 97 93
f 81 97 98
f 81 98 92
f 92 91 81
f 121 124 117
f 117 124 119
f 119 120 117
f 90 117 111
f 111 117 110
f 110 117 120
f 121 117 86
f 121 86 85
f 93 97 99
f 97 107 6
f 97 6 105
f 99 97 105
f 83 91 123
f 89 83 123
f 83 81 91
f 89 123 117
f 123 87 117
f 109 107 125
f 122 118 119
f 122 119 124
f 122 124 121
f 112 118 56
f 56 118 125
f 109 122 90
f 112 56 114
f 57 125 104
f 125 107 104
f 109 125 122
f 125 118 122
f 90 89 117
f 98 82 92
f 87 82 83
f 95 93 99
f 103 57 102
f 95 101 96
f 106 105 10
f 113 115 116
f 14 26 12
f 3 4 2
f 1 8 6
f 8 1 9
f 22 116 23
f 27 23 116
f 112 116 22
f 3 112 22
f 112 3 119
f 1 120 3
f 3 120 119
f 107 120 6
f 110 120 107
f 102 101 100
f 106 108 103
f 65 32 29
f 31 65 29
f 49 72 80
f 89 87 83
f 45 75 48
f 48 75 74
