v -0.0959771145 0 -0.0364859239
v -0.0921422656 3.46468022e-05 -0.0384562362
v -0.0940113672 5.014669e-05 -0.04630191
v -0.0905266292 8.57052539e-05 -0.0489779229
v -0.0865085085 0.000107587446 -0.0470750833
v -0.0826736528 0.000155910623 -0.0528538057
v -0.071355095 0.000286292014 -0.0658800909
v -0.0670242391 0.000327321118 -0.0686144534
v -0.0686043203 0.000327321118 -0.0717819014
v -0.081447344 0.000238880582 -0.0732252166
v -0.0960701192 0.000145881275 -0.0767683059
v -0.105004432 9.57345886e-05 -0.0809168053
v -0.115862559 2.0058676e-05 -0.0818914746
v -0.12738991 -3.46468022e-05 -0.0900681206
v -0.13701899 -8.20582207e-05 -0.0961914872
v -0.146639864 -0.00010029338 -0.110493323
v -0.145596807 -7.47641542e-05 -0.115426845
v -0.148127844 -6.38230613e-05 -0.123426609
v -0.146999098 -3.19115306e-05 -0.129944769
v -0.145711692 -3.64703197e-06 -0.13497585
v -0.14868037 0 -0.142094856
v -0.0797806504 -0.0129196111 -0.0434462902
v -0.0806960514 -0.014207013 -0.049210421
v -0.0817263377 -0.016237498 -0.0574636553
v -0.0831103897 -0.0169003458 -0.0622631485
v -0.0848390841 -0.0174081948 -0.0672741696
v -0.0836373868 -0.0202957338 -0.0736810931
v -0.0840349138 -0.0216223414 -0.0785243528
v -0.0873400347 -0.0207251715 -0.0824066178
v -0.0957190912 -0.0158463532 -0.0843121916
v -0.102930185 -0.0129971105 -0.0900717676
v -0.110598069 -0.00971842837 -0.0954356398
v -0.118007013 -0.00620633658 -0.09956408
v -0.125973041 -0.00269333303 -0.104808512
v -0.133070173 0.000898081669 -0.108076252
v -0.138945534 0.00144422462 -0.118181266
v -0.136527548 -0.00124910841 -0.12155386
v -0.138534333 -0.00156092968 -0.126524764
v -0.14084473 -0.0010539922 -0.129609241
v -0.142487715 -0.00144422462 -0.134092356
v -0.0846840853 -0.0379564852 -0.0414668615
v -0.0854764016 -0.0403772022 -0.0448130129
v -0.0914210598 -0.0427960952 -0.0584848218
v -0.0974888093 -0.0422873342 -0.0702756785
v -0.10174581 -0.0380841314 -0.0757471376
v -0.104998054 -0.0319707931 -0.0778177403
v -0.108938671 -0.0313334756 -0.0852503903
v -0.11257476 -0.0284039976 -0.0904072946
v -0.115831555 -0.0230547128 -0.0930404513
v -0.11853401 -0.0249648449 -0.0998449015
v -0.123763848 -0.0202519691 -0.106897349
v -0.128184054 -0.0178321623 -0.113996297
v -0.131383412 -0.0128649052 -0.116791747
v -0.134130539 -0.00687739048 -0.11793965
v -0.136823878 -0.0072594168 -0.123618991
v -0.135210062 -0.0129925514 -0.124551719
v -0.136340642 -0.0127372589 -0.126634174
v -0.138815161 -0.0072594168 -0.127608843
v -0.141833075 -0.00522163809 -0.13217128
v -0.107075038 -0.0381525144 -0.0324295171
v -0.109295168 -0.0405859957 -0.0351994348
v -0.116665819 -0.0430185667 -0.048295927
v -0.122433604 -0.0425061578 -0.0602062238
v -0.124209708 -0.0382810709 -0.0666806167
v -0.12385777 -0.032135822 -0.0702054715
v -0.127420914 -0.0314948565 -0.0777885638
v -0.129331046 -0.0285507903 -0.0836447856
v -0.12943134 -0.023174153 -0.0875525809
v -0.13326072 -0.0250934031 -0.0939011507
v -0.13571062 -0.020356821 -0.102075973
v -0.138703916 -0.01792425 -0.109749329
v -0.138971973 -0.0129305522 -0.113730064
v -0.13818696 -0.00691386108 -0.116302133
v -0.141108221 -0.00729771135 -0.121890298
v -0.142873388 -0.0130591096 -0.121458124
v -0.143854438 -0.012802906 -0.123600756
v -0.143098594 -0.00729771135 -0.125879239
v -0.144913907 -0.00524899062 -0.130927642
v -0.113167399 -0.0136435469 -0.0306752941
v -0.117495518 -0.0152391224 -0.034638703
v -0.12206433 -0.0151187703 -0.0441437813
v -0.130600219 -0.0183108366 -0.0518344597
v -0.13154388 -0.0165958184 -0.058785703
v -0.134528983 -0.0165958184 -0.0647704847
v -0.140108029 -0.0187101858 -0.0697085645
v -0.141804816 -0.0181111611 -0.074873674
v -0.140335055 -0.0155983565 -0.0793449353
v -0.146223187 -0.0175121365 -0.0854965664
v -0.147254384 -0.0159174704 -0.0922709277
v -0.147592654 -0.014041985 -0.0984790878
v -0.14817526 -0.0127254066 -0.103530227
v -0.149733454 -0.0119677353 -0.108891364
v -0.149728903 -0.0100530433 -0.114532411
v -0.152590901 -0.0108107147 -0.118030826
v -0.154356068 -0.0100530433 -0.123804078
v -0.149651393 -0.00566475245 -0.127323464
v -0.150721799 -0.00426885074 -0.133588153
v -0.102087722 -4.64996568e-05 -0.0358522542
v -0.107860969 -6.83818528e-05 -0.0412763007
v -0.107939382 -4.55878985e-05 -0.0478710475
v -0.12148902 -0.000134940189 -0.0504367366
v -0.123377265 -0.000124910841 -0.0571481859
v -0.133780421 -0.000175057541 -0.0639453406
v -0.143057563 -0.000237968844 -0.0655573291
v -0.146138396 -0.000246174649 -0.0693885369
v -0.145165552 -0.000224292476 -0.0735890055
v -0.15298387 -0.000258939278 -0.0795965799
v -0.154786426 -0.000256203983 -0.0840842534
v -0.152962906 -0.000226115979 -0.0886284541
v -0.156387471 -0.000231586542 -0.0937297405
v -0.163831976 -0.000261674547 -0.100454867
v -0.159503858 -0.000206969062 -0.106711351
v -0.160091939 -0.000180528078 -0.115496139
v -0.162357664 -0.000162292925 -0.125013981
v -0.15473992 -9.11757971e-05 -0.129358508
v -0.155592417 -7.02053627e-05 -0.136626131
v -0.113361608 0.0133499607 -0.030596881
v -0.117712517 0.0149099784 -0.0345511735
v -0.122277688 0.0147932742 -0.0440571621
v -0.13086007 0.0179151336 -0.0517305215
v -0.131777292 0.016237498 -0.0586890571
v -0.134765126 0.016237498 -0.0646747492
v -0.140372431 0.0183062767 -0.0696009784
v -0.142061012 0.0177209283 -0.0747706461
v -0.140555696 0.0152610047 -0.0792555819
v -0.146472101 0.0171355799 -0.0853953607
v -0.1474805 0.0155737382 -0.092179752
v -0.147790497 0.0137392816 -0.0983979414
v -0.148354884 0.0124509669 -0.103457286
v -0.149903961 0.0117087966 -0.108822982
v -0.149871137 0.00983604541 -0.114475882
v -0.152744086 0.0105782165 -0.117968826
v -0.154499213 0.00983604541 -0.123746637
v -0.149731633 0.0055425768 -0.12729064
v -0.150781063 0.00417585156 -0.133563535
v -0.107621179 0.0379564852 -0.0322088696
v -0.109875953 0.0403772022 -0.0349651127
v -0.117283083 0.0427960952 -0.0480461064
v -0.123043559 0.0422873342 -0.059960958
v -0.124759489 0.0380841314 -0.066457235
v -0.124317284 0.0319707931 -0.0700194723
v -0.127873146 0.0313334756 -0.0776071245
v -0.129739517 0.0284039976 -0.0834806688
v -0.129763225 0.0230547128 -0.0874185525
v -0.133619954 0.0249648449 -0.0937561811
v -0.136002385 0.0202510571 -0.101958356
v -0.138960126 0.0178321623 -0.1096463
v -0.139157969 0.0128649052 -0.113654388
v -0.138285419 0.00687739048 -0.116262016
v -0.141211259 0.0072594168 -0.121847445
v -0.143061218 0.0129925514 -0.121383361
v -0.144037703 0.0127372589 -0.123528727
v -0.143202529 0.0072594168 -0.12583821
v -0.144987762 0.00522163809 -0.130897556
v -0.0852302255 0.0381525144 -0.041246214
v -0.0860571868 0.0405859957 -0.0445796011
v -0.0920364966 0.0430185667 -0.0582368251
v -0.0980978675 0.0425061578 -0.0700295024
v -0.102292868 0.0382810709 -0.0755264918
v -0.105457575 0.032135822 -0.0776308291
v -0.109389986 0.0314939462 -0.0850671271
v -0.112985052 0.0285507903 -0.0902431777
v -0.116161619 0.023174153 -0.092906423
v -0.118893244 0.0250934031 -0.0996999319
v -0.124055613 0.020356821 -0.106779733
v -0.128441174 0.01792425 -0.113892357
v -0.131567588 0.0129305522 -0.116718806
v -0.134229012 0.00691386108 -0.117899533
v -0.136929633 0.00729771135 -0.12357705
v -0.135397892 0.0130591096 -0.124476956
v -0.136524817 0.012802906 -0.126560323
v -0.138919096 0.00729771135 -0.127565991
v -0.14190693 0.00524899062 -0.13214028
v -0.0799684668 0.0132040792 -0.043370608
v -0.0809021073 0.0145206576 -0.0491256292
v -0.0819624872 0.0165958184 -0.0573697437
v -0.0833556487 0.0172732545 -0.0621646788
v -0.0850916389 0.0177920455 -0.0671720553
v -0.0839318824 0.0207434059 -0.073561653
v -0.0843494695 0.0221001019 -0.0783976186
v -0.0876399988 0.0211837856 -0.0822862657
v -0.0959488551 0.0161973812 -0.084219192
v -0.103118008 0.0132843136 -0.0899951794
v -0.110738476 0.00993269122 -0.0953791108
v -0.11809819 0.00634310047 -0.0995276094
v -0.12601225 0.00275259733 -0.1047921
v -0.133057402 -0.00091722852 -0.108080811
v -0.138924571 -0.00147613618 -0.118190384
v -0.136544871 0.00127646115 -0.121546566
v -0.13855622 0.00159557654 -0.126514734
v -0.140860231 0.00107769798 -0.129601947
v -0.142508692 0.00147613618 -0.134083236
f 22 2 1
f 22 23 3
f 22 3 2
f 23 24 4
f 23 4 3
f 24 25 5
f 24 5 4
f 25 26 6
f 25 6 5
f 26 27 7
f 26 7 6
f 27 28 8
f 27 8 7
f 28 29 9
f 28 9 8
f 29 30 10
f 29 10 9
f 30 31 11
f 30 11 10
f 31 32 12
f 31 12 11
f 32 33 13
f 32 13 12
f 33 34 14
f 33 14 13
f 34 35 15
f 34 15 14
f 35 36 16
f 35 16 15
f 36 37 17
f 36 17 16
f 37 38 18
f 37 18 17
f 38 39 19
f 38 19 18
f 39 40 20
f 39 20 19
f 40 21 20
f 41 22 1
f 41 42 23
f 41 23 22
f 42 43 24
f 42 24 23
f 43 44 25
f 43 25 24
f 44 45 26
f 44 26 25
f 45 46 27
f 45 27 26
f 46 47 28
f 46 28 27
f 47 48 29
f 47 29 28
f 48 49 30
f 48 30 29
f 49 50 31
f 49 31 30
f 50 51 32
f 50 32 31
f 51 52 33
f 51 33 32
f 52 53 34
f 52 34 33
f 53 54 35
f 53 35 34
f 54 55 36
f 54 36 35
f 55 56 37
f 55 37 36
f 56 57 38
f 56 38 37
f 57 58 39
f 57 39 38
f 58 59 40
f 58 40 39
f 59 21 40
f 60 41 1
f 60 61 42
f 60 42 41
f 61 62 43
f 61 43 42
f 62 63 44
f 62 44 43
f 63 64 45
f 63 45 44
f 64 65 46
f 64 46 45
f 65 66 47
f 65 47 46
f 66 67 48
f 66 48 47
f 67 68 49
f 67 49 48
f 68 69 50
f 68 50 49
f 69 70 51
f 69 51 50
f 70 71 52
f 70 52 51
f 71 72 53
f 71 53 52
f 72 73 54
f 72 54 53
f 73 74 55
f 73 55 54
f 74 75 56
f 74 56 55
f 75 76 57
f 75 57 56
f 76 77 58
f 76 58 57
f 77 78 59
f 77 59 58
f 78 21 59
f 79 60 1
f 79 80 61
f 79 61 60
f 80 81 62
f 80 62 61
f 81 82 63
f 81 63 62
f 82 83 64
f 82 64 63
f 83 84 65
f 83 65 64
f 84 85 66
f 84 66 65
f 85 86 67
f 85 67 66
f 86 87 68
f 86 68 67
f 87 88 69
f 87 69 68
f 88 89 70
f 88 70 69
f 89 90 71
f 89 71 70
f 90 91 72
f 90 72 71
f 91 92 73
f 91 73 72
f 92 93 74
f 92 74 73
f 93 94 75
f 93 75 74
f 94 95 76
f 94 76 75
f 95 96 77
f 95 77 76
f 96 97 78
f 96 78 77
f 97 21 78
f 98 79 1
f 98 99 80
f 98 80 79
f 99 100 81
f 99 81 80
f 100 101 82
f 100 82 81
f 101 102 83
f 101 83 82
f 102 103 84
f 102 84 83
f 103 104 85
f 103 85 84
f 104 105 86
f 104 86 85
f 105 106 87
f 105 87 86
f 106 107 88
f 106 88 87
f 107 108 89
f 107 89 88
f 108 109 90
f 108 90 89
f 109 110 91
f 109 91 90
f 110 111 92
f 110 92 91
f 111 112 93
f 111 93 92
f 112 113 94
f 112 94 93
f 113 114 95
f 113 95 94
f 114 115 96
f 114 96 95
f 115 116 97
f 115 97 96
f 116 21 97
f 117 98 1
f 117 118 99
f 117 99 98
f 118 119 100
f 118 100 99
f 119 120 101
f 119 101 100
f 120 121 102
f 120 102 101
f 121 122 103
f 121 103 102
f 122 123 104
f 122 104 103
f 123 124 105
f 123 105 104
f 124 125 106
f 124 106 105
f 125 126 107
f 125 107 106
f 126 127 108
f 126 108 107
f 127 128 109
f 127 109 108
f 128 129 110
f 128 110 109
f 129 130 111
f 129 111 110
f 130 131 112
f 130 112 111
f 131 132 113
f 131 113 112
f 132 133 114
f 132 114 113
f 133 134 115
f 133 115 114
f 134 135 116
f 134 116 115
f 135 21 116
f 136 117 1
f 136 137 118
f 136 118 117
f 137 138 119
f 137 119 118
f 138 139 120
f 138 120 119
f 139 140 121
f 139 121 120
f 140 141 122
f 140 122 121
f 141 142 123
f 141 123 122
f 142 143 124
f 142 124 123
f 143 144 125
f 143 125 124
f 144 145 126
f 144 126 125
f 145 146 127
f 145 127 126
f 146 147 128
f 146 128 127
f 147 148 129
f 147 129 128
f 148 149 130
f 148 130 129
f 149 150 131
f 149 131 130
f 150 151 132
f 150 132 131
f 151 152 133
f 151 133 132
f 152 153 134
f 152 134 133
f 153 154 135
f 153 135 134
f 154 21 135
f 155 136 1
f 155 156 137
f 155 137 136
f 156 157 138
f 156 138 137
f 157 158 139
f 157 139 138
f 158 159 140
f 158 140 139
f 159 160 141
f 159 141 140
f 160 161 142
f 160 142 141
f 161 162 143
f 161 143 142
f 162 163 144
f 162 144 143
f 163 164 145
f 163 145 144
f 164 165 146
f 164 146 145
f 165 166 147
f 165 147 146
f 166 167 148
f 166 148 147
f 167 168 149
f 167 149 148
f 168 169 150
f 168 150 149
f 169 170 151
f 169 151 150
f 170 171 152
f 170 152 151
f 171 172 153
f 171 153 152
f 172 173 154
f 172 154 153
f 173 21 154
f 174 155 1
f 174 175 156
f 174 156 155
f 175 176 157
f 175 157 156
f 176 177 158
f 176 158 157
f 177 178 159
f 177 159 158
f 178 179 160
f 178 160 159
f 179 180 161
f 179 161 160
f 180 181 162
f 180 162 161
f 181 182 163
f 181 163 162
f 182 183 164
f 182 164 163
f 183 184 165
f 183 165 164
f 184 185 166
f 184 166 165
f 185 186 167
f 185 167 166
f 186 187 168
f 186 168 167
f 187 188 169
f 187 169 168
f 188 189 170
f 188 170 169
f 189 190 171
f 189 171 170
f 190 191 172
f 190 172 171
f 191 192 173
f 191 173 172
f 192 21 173
f 2 174 1
f 2 3 175
f 2 175 174
f 3 4 176
f 3 176 175
f 4 5 177
f 4 177 176
f 5 6 178
f 5 178 177
f 6 7 179
f 6 179 178
f 7 8 180
f 7 180 179
f 8 9 181
f 8 181 180
f 9 10 182
f 9 182 181
f 10 11 183
f 10 183 182
f 11 12 184
f 11 184 183
f 12 13 185
f 12 185 184
f 13 14 186
f 13 186 185
f 14 15 187
f 14 187 186
f 15 16 188
f 15 188 187
f 16 17 189
f 16 189 188
f 17 18 190
f 17 190 189
f 18 19 191
f 18 191 190
f 19 20 192
f 19 192 191
f 20 21 192
