v -0.0621301903 -0.0170990999 -0.10754552
v -0.0619213535 -0.00934737454 -0.108111346
v -0.0655130135 -0.00598534754 -0.107036883
v -0.0704823974 -0.0052392892 -0.105302147
v -0.0728687459 -0.00850426887 -0.104240682
v -0.0778190718 -0.00935257318 -0.10241323
v -0.0916770353 -0.00786652348 -0.0975391566
v -0.108163962 0.000815825917 -0.092178976
v -0.111039012 0.000859150936 -0.0911513046
v -0.113815287 -0.000992564125 -0.0900387166
v -0.11233184 -0.0028572758 -0.0904520373
v -0.112725227 -0.00761437053 -0.0900109884
v -0.11637927 -0.0143990813 -0.0882727857
v -0.0618537727 -0.0114659726 -0.103906212
v -0.0659029395 -0.00863251131 -0.100724417
v -0.0697900622 -0.00809961204 -0.0991187892
v -0.0713125024 -0.0102320726 -0.100039881
v -0.076060073 -0.0108013656 -0.0988865673
v -0.0894873864 -0.00975029795 -0.0938625888
v -0.104723087 -0.00449149825 -0.0854705179
v -0.108782647 -0.00411976915 -0.0839151475
v -0.11206756 -0.00531467524 -0.0836482654
v -0.113038902 -0.00785699128 -0.0850173382
v -0.113298856 -0.0106887191 -0.0868083973
v -0.0628086582 -0.0149822369 -0.101956583
v -0.0676939986 -0.0136027651 -0.0973026012
v -0.0705621153 -0.0133454151 -0.0959915841
v -0.0707449476 -0.0140186859 -0.0976777971
v -0.075149372 -0.0141027375 -0.0968910131
v -0.0882751413 -0.0134121357 -0.0921304515
v -0.10345279 -0.0116323406 -0.0841109772
v -0.108654407 -0.0111843579 -0.0817774883
v -0.112169796 -0.0114642392 -0.0816951702
v -0.115530095 -0.0129251607 -0.0846837355
v -0.114946077 -0.0136738192 -0.0867390766
v -0.0632497023 -0.0183425305 -0.10158572
v -0.0683741966 -0.0187957102 -0.0967307104
v -0.0712683179 -0.0187229259 -0.0953988972
v -0.0713064467 -0.0182957394 -0.0972064197
v -0.0756450205 -0.0178910826 -0.0964733596
v -0.0887794536 -0.0172602693 -0.0917058668
v -0.104173725 -0.0171311617 -0.0835052921
v -0.109415188 -0.0169890551 -0.0811380095
v -0.112835275 -0.0165350071 -0.0811362761
v -0.115850703 -0.0153695627 -0.0844142532
v -0.115115042 -0.0149571071 -0.0865969717
v -0.063637033 -0.0202583651 -0.104188692
v -0.0671740887 -0.0225935891 -0.100741748
v -0.0699044356 -0.0230658316 -0.0992392328
v -0.0711357387 -0.022282516 -0.0994333299
v -0.0748071038 -0.0220225643 -0.0981950988
v -0.0858506768 -0.0200278783 -0.095533205
v -0.104992571 -0.0197973883 -0.088101219
v -0.109556431 -0.0201786472 -0.0859488274
v -0.112175 -0.0201621845 -0.0849185575
v -0.114763245 -0.017979466 -0.0857919915
v -0.115656605 -0.0166797138 -0.0865701101
v -0.0636656328 -0.0200079456 -0.106812459
v -0.0658483481 -0.0234808873 -0.105810783
v -0.0686480189 -0.0246359328 -0.104733721
v -0.0713826914 -0.0244002457 -0.103768438
v -0.0746650085 -0.0248343626 -0.102564867
v -0.0827442712 -0.0205503771 -0.0999402335
v -0.104956172 -0.0186492716 -0.0920983913
v -0.108990606 -0.0195417685 -0.0905958773
v -0.111360492 -0.0209186401 -0.0896591879
v -0.114078708 -0.0196873403 -0.0887623591
v -0.116642686 -0.0181666303 -0.087939183
v -0.0650450998 -0.0201803806 -0.108646844
v -0.0693975409 -0.0228933998 -0.109040236
v -0.0726330524 -0.0236238606 -0.108482209
v -0.0744362486 -0.0228119484 -0.107362688
v -0.0802331422 -0.0217591489 -0.104797843
v -0.0888669704 -0.0200140142 -0.100858725
v -0.10801492 -0.021267842 -0.0955176074
v -0.112974781 -0.0225918557 -0.0947949454
v -0.116595028 -0.0232607946 -0.0940714159
v -0.118085408 -0.0215728498 -0.0924735864
v -0.11808628 -0.0189828744 -0.0907579134
v -0.0661706803 -0.0186406078 -0.110585209
v -0.0722639275 -0.0195885612 -0.11163021
v -0.0757541905 -0.019716802 -0.111168364
v -0.0765583039 -0.0190703911 -0.109326181
v -0.084632376 -0.0177602416 -0.104122838
v -0.0945295545 -0.0175696106 -0.101384692
v -0.111084075 -0.0190175363 -0.101339634
v -0.116928632 -0.0197124701 -0.101791081
v -0.12157048 -0.019671746 -0.100628236
v -0.121868558 -0.0186336757 -0.0978961556
v -0.119282914 -0.0169812564 -0.0942438493
v -0.0658015554 -0.0158296745 -0.11089455
v -0.0716313743 -0.0147604123 -0.112161376
v -0.0750557996 -0.0144008131 -0.111754119
v -0.0759890189 -0.0147326841 -0.10980449
v -0.0842554394 -0.0148877881 -0.104439977
v -0.0940902406 -0.014209317 -0.101755554
v -0.110161249 -0.0119919382 -0.10211342
v -0.115799579 -0.0110968428 -0.102740767
v -0.120400703 -0.0107493743 -0.101611715
v -0.120916274 -0.0113628583 -0.0986976697
v -0.118705824 -0.0125820258 -0.0947290908
v -0.0642921045 -0.0122735512 -0.110895416
v -0.0690474739 -0.00956400044 -0.111363327
v -0.0732266117 -0.00886040122 -0.110310527
v -0.0746615352 -0.010692186 -0.108140807
v -0.0813699949 -0.0116903957 -0.104595081
v -0.0932298056 -0.0104911576 -0.100912448
v -0.109822454 -0.00437538733 -0.0996326249
v -0.113826552 -0.00322467297 -0.0990399379
v -0.117249234 -0.00362586296 -0.0973259975
v -0.116817719 -0.00535886616 -0.0959855188
v -0.115816906 -0.0090241691 -0.0931858511
v -0.0673768569 0.00855022118 -0.107906851
v -0.0688733055 0.01355167 -0.107624372
v -0.0737023242 0.013871409 -0.105432122
v -0.0767047504 0.0136773127 -0.10403792
v -0.082811852 0.0102095723 -0.100953174
v -0.111077141 0.00714822112 -0.0877251572
v -0.118828868 0.00916283801 -0.084329335
v -0.122260214 0.00872872055 -0.0827176429
v -0.126239192 0.00962641645 -0.080962976
v -0.13031435 0.0088318343 -0.0790272102
v -0.132207658 0.00726086641 -0.0780316007
v -0.129609884 0.00543514701 -0.0790766014
v -0.127943599 0.00262681448 -0.0796138326
v -0.0663422534 0.0123403005 -0.105815982
v -0.0702735735 0.0127345588 -0.103433969
v -0.0729727253 0.0123073731 -0.102288453
v -0.0773788799 0.0110154189 -0.100831864
v -0.0929152592 0.00896354257 -0.0939466403
v -0.0973786134 0.0099201606 -0.0908878876
v -0.101608882 0.00893321498 -0.0893125878
v -0.11932451 0.0081031062 -0.0804066804
v -0.12363449 0.00800952402 -0.0781650418
v -0.126828413 0.0067955549 -0.0773028733
v -0.126787689 0.00622626318 -0.0777213927
v -0.0644298872 0.01011599 -0.105460717
v -0.0674643736 0.0101896426 -0.10293573
v -0.0699772328 0.0097763213 -0.102265058
v -0.0717925533 0.00986730399 -0.100612638
v -0.0747100581 0.00924602216 -0.10025564
v -0.0764863847 0.00927461674 -0.0988224461
v -0.0817347943 0.00832406419 -0.097678663
v -0.113350846 0.00553566118 -0.0820036448
v -0.117570708 0.0055269961 -0.0788261819
v -0.121857292 0.00483899383 -0.0776278106
v -0.12370814 0.00489358326 -0.0760594428
v -0.0642548537 0.00780849557 -0.105354137
v -0.0672399522 0.00721320885 -0.102798823
v -0.0697744646 0.00710229657 -0.102142014
v -0.0715525214 0.00670977127 -0.100467067
v -0.0745168317 0.00669417422 -0.100137796
v -0.0762654365 0.00635883796 -0.0986872716
v -0.0815718851 0.0061976686 -0.097580749
v -0.11314895 0.00286250276 -0.081880601
v -0.11731249 0.00212510991 -0.0786684794
v -0.121635466 0.00192234854 -0.0774935012
v -0.123453388 0.00155148535 -0.0759052039
v -0.065187208 0.006104953 -0.106542977
v -0.0679002272 0.00525144863 -0.104749319
v -0.0702605712 0.00552959562 -0.104102908
v -0.0722578589 0.00447419639 -0.102397633
v -0.0758659686 0.00513707032 -0.101624713
v -0.0795529442 0.00469948697 -0.0998327873
v -0.0899804267 0.00367961439 -0.0949613135
v -0.113245995 0.000897276502 -0.0836370013
v -0.117453733 -0.000687555568 -0.0806189744
v -0.120292391 -0.00151333107 -0.0788010554
v -0.125017424 -0.00166150301 -0.0768748186
v -0.0663769089 0.00567690105 -0.108133875
v -0.0687875189 0.00504435472 -0.106975362
v -0.0708428584 0.00563617536 -0.106079399
v -0.073289867 0.00400975149 -0.104823838
v -0.0772931063 0.00520379107 -0.103082169
v -0.0827572606 0.00506428421 -0.100561515
v -0.098745091 0.00221435968 -0.0929891547
v -0.113690513 0.000357445968 -0.0859756889
v -0.118215386 -0.00186773081 -0.0837167193
v -0.120158947 -0.00423588007 -0.0826327247
v -0.127369976 -0.0034551622 -0.0793842109
v -0.0683490701 0.00529737317 -0.109656319
v -0.0716339825 0.00390923731 -0.108865202
v -0.0743357296 0.00421944492 -0.107202385
v -0.0763434114 0.00422897631 -0.106120991
v -0.0800858434 0.00525664768 -0.103401042
v -0.0879554043 0.00502009268 -0.0993527452
v -0.102490105 0.00232787128 -0.0934492681
v -0.11439758 -0.000270768025 -0.0888888682
v -0.12064852 -0.00383469008 -0.0880284315
v -0.123788723 -0.00479650681 -0.0870198246
v -0.127791962 -0.00322034023 -0.0837756411
v -0.0704304012 0.00666817906 -0.111208224
v -0.0748980938 0.00549060315 -0.111334733
v -0.0783398339 0.00535629534 -0.10912342
v -0.0791950784 0.00591258954 -0.106812459
v -0.082751192 0.00617167355 -0.103340387
v -0.0929585914 0.0054758725 -0.0976665323
v -0.106042772 0.00359123093 -0.0933660833
v -0.115388858 0.00163380345 -0.0921183208
v -0.123914368 -0.00101855898 -0.0935688451
v -0.127576204 -0.00117366298 -0.0912535522
v -0.128140299 -0.000118263343 -0.0876705674
v -0.0706470368 0.00952330275 -0.111340798
v -0.0752161006 0.00968187259 -0.111527963
v -0.0786292538 0.00918363406 -0.109301053
v -0.0793986988 0.00858574776 -0.106935503
v -0.082870769 0.00774957345 -0.103414039
v -0.0930365792 0.00650874272 -0.0977141901
v -0.106203938 0.00571676004 -0.0934639989
v -0.115692132 0.00564397393 -0.0923037516
v -0.124467197 0.00627218772 -0.0939050479
v -0.12810217 0.00575142017 -0.0915741575
v -0.128513762 0.00480173417 -0.0878975906
v -0.0700872679 0.0121557356 -0.110114698
v -0.0747542554 0.0128714659 -0.108987379
v -0.0780079598 0.0123584969 -0.107293368
v -0.0812226832 0.0101679801 -0.104106374
v -0.0971576523 0.00778769952 -0.0959257303
v -0.106484681 0.00761959819 -0.0922352992
v -0.114671396 0.00748355737 -0.0890075784
v -0.121379849 0.00854935467 -0.0874184144
v -0.127458364 0.0099097626 -0.0863335547
v -0.130095126 0.00887082687 -0.0843995223
v -0.128950474 0.00687094053 -0.0830391149
v -0.0764820592 0.0213727161 -0.110222144
v -0.0768979768 0.0240060149 -0.110243807
v -0.0790131112 0.0247884654 -0.109336579
v -0.081561491 0.0241429228 -0.108113945
v -0.0841653273 0.0256714316 -0.107042082
v -0.0862891257 0.0251671274 -0.106025676
v -0.0886338721 0.0232538912 -0.104794377
v -0.112204465 0.0202575279 -0.0937274143
v -0.124222846 0.0232400271 -0.0884504193
v -0.129953889 0.0217895028 -0.085701008
v -0.132460673 0.0220381889 -0.0845693572
v -0.135262946 0.0204784858 -0.0831560918
v -0.133072425 0.0158401013 -0.0837877718
v -0.0763174197 0.0234332566 -0.109059299
v -0.0780244354 0.0244929882 -0.107518659
v -0.0804237733 0.0240528059 -0.106522181
v -0.082611692 0.0250657465 -0.104756251
v -0.0854035641 0.0242209074 -0.103799632
v -0.0982347229 0.0226802662 -0.0979793396
v -0.111280774 0.0211188305 -0.0920585323
v -0.122675273 0.0219671364 -0.085545904
v -0.128159363 0.0216768579 -0.0828346198
v -0.13049112 0.02161187 -0.081645779
v -0.133410362 0.0197722864 -0.0812246596
v -0.0759612842 0.022188961 -0.108436284
v -0.0771466597 0.0227400563 -0.106117525
v -0.0793276447 0.0224922369 -0.105187768
v -0.0813041443 0.0226984639 -0.103204346
v -0.0848784636 0.0219835991 -0.102505945
v -0.107645795 0.0200911591 -0.0909884018
v -0.110007882 0.0198589373 -0.089885346
v -0.121627667 0.0189239813 -0.0839272783
v -0.126409028 0.0189551756 -0.0803702883
v -0.128694858 0.0186978248 -0.0793902763
v -0.131858457 0.0175566419 -0.0801190036
v -0.0758555746 0.0207921598 -0.108371296
v -0.0769499729 0.0201266862 -0.105997081
v -0.0791326882 0.0199412546 -0.105069924
v -0.0810563136 0.0194187542 -0.103053574
v -0.0846800338 0.0193702297 -0.102385501
v -0.107401437 0.016870372 -0.0908402299
v -0.109763525 0.0166398828 -0.0897363074
v -0.121354723 0.015339263 -0.0837626437
v -0.126067625 0.014459764 -0.0801631946
v -0.128359523 0.014263068 -0.0791857811
v -0.131637502 0.0146417292 -0.0799838291
v -0.0759638924 0.0197757525 -0.109150282
v -0.077219444 0.0183200296 -0.107501328
v -0.0798770066 0.0179820941 -0.106196377
v -0.0819947364 0.0170679343 -0.104644472
v -0.0852068645 0.0176562893 -0.103863754
v -0.102722339 0.0158253705 -0.095587794
v -0.112717428 0.0139467946 -0.0901990193
v -0.121329596 0.0120864153 -0.0853630717
v -0.124883986 0.0113074301 -0.0833579868
v -0.127945336 0.0111635909 -0.0820539011
v -0.130985891 0.0121999269 -0.0816969036
v -0.0762324983 0.0195158024 -0.110186618
v -0.077740219 0.0179820941 -0.109370373
v -0.0809393448 0.017372077 -0.107851395
v -0.0832563695 0.016552366 -0.10672061
v -0.085922596 0.0174786565 -0.105571629
v -0.0980025027 0.0169908157 -0.0999852912
v -0.116085525 0.0129468515 -0.0913531997
v -0.122055722 0.0103820061 -0.0884036267
v -0.124234105 0.010564838 -0.0874184144
v -0.128015525 0.0104929184 -0.0856767465
v -0.130873248 0.0111038022 -0.0844133865
v -0.0782176617 0.0185037277 -0.111047054
v -0.0809843944 0.0169258285 -0.110548816
v -0.0837234181 0.0169440246 -0.109094825
v -0.0855950603 0.0173746763 -0.107847929
v -0.0899475014 0.0180938731 -0.105121914
v -0.104528117 0.016790654 -0.0982366904
v -0.118329765 0.0133974327 -0.0930281486
v -0.12408507 0.0107485363 -0.0916044859
v -0.127212277 0.00950337326 -0.0907137209
v -0.132045621 0.00960388743 -0.0881090162
v -0.132901724 0.0118498603 -0.0862954291
v -0.0805632862 0.0194083561 -0.112462918
v -0.0845760544 0.0184179444 -0.112176106
v -0.0866192567 0.0185505188 -0.110339989
v -0.0875559493 0.0191570707 -0.108048958
v -0.093594605 0.0190998815 -0.103816096
v -0.110903838 0.0172741621 -0.0960834336
v -0.120358242 0.0154527746 -0.0940488863
v -0.125966247 0.013871409 -0.094164998
v -0.130589896 0.0125196663 -0.0943876893
v -0.136357338 0.0123229703 -0.0907215196
v -0.134607003 0.0140923673 -0.0873049028
v -0.0807790438 0.0222634803 -0.11259376
v -0.0848741252 0.0223657263 -0.112358071
v -0.0868731431 0.0218908837 -0.110493359
v -0.08771279 0.0212228107 -0.108143406
v -0.0936769183 0.0201934067 -0.103866353
v -0.111005222 0.018611174 -0.0961449547
v -0.120583535 0.0184274758 -0.0941866609
v -0.126335372 0.0187316184 -0.094388556
v -0.131082937 0.0190210294 -0.0946883651
v -0.136800119 0.0181553942 -0.0909918687
v -0.134829694 0.0170064132 -0.0874392106
v -0.0788857355 0.0240398085 -0.111412718
v -0.0820051433 0.0248326579 -0.110832162
v -0.0842849043 0.0240614714 -0.109329647
v -0.0862847873 0.0237486633 -0.108301976
v -0.0903755432 0.0226031484 -0.105796919
v -0.100023174 0.0211500248 -0.100882987
v -0.116401795 0.0203337799 -0.0938573902
v -0.125557257 0.0223007392 -0.0918635693
v -0.130580367 0.0225156316 -0.090080309
v -0.134793302 0.0218692216 -0.0879235854
v -0.135304535 0.0194265522 -0.0857772607
v -0.0876833251 0.0339057984 -0.107177257
v -0.0895506417 0.0371759767 -0.106715411
v -0.0938276904 0.03812133 -0.105241492
v -0.0952808196 0.0363657979 -0.104609812
v -0.0976844959 0.0353407251 -0.103683521
v -0.101311664 0.0326017126 -0.102210468
v -0.117520449 0.0299441516 -0.0962324715
v -0.128758113 0.0310628065 -0.0922760249
v -0.135039383 0.0300550647 -0.0899607321
v -0.138239374 0.0308912383 -0.0888654734
v -0.146105481 0.0282033504 -0.0858769082
v -0.147996187 0.0262710515 -0.0850771267
v -0.144977299 0.0238032531 -0.0860025505
v -0.0881460353 0.0369784152 -0.104803908
v -0.0918711268 0.0376170273 -0.102524142
v -0.0941621598 0.0362002966 -0.102382902
v -0.0971966462 0.0354646356 -0.101402889
v -0.100587268 0.0336129214 -0.101025094
v -0.120485618 0.030588829 -0.0933322897
v -0.129202631 0.0306295547 -0.0890084451
v -0.135647668 0.0293713949 -0.0867122151
v -0.139537399 0.0292518164 -0.0848795636
v -0.14465669 0.0276210599 -0.0834948948
v -0.146467679 0.0258455984 -0.0838432283
v -0.0866946492 0.0353771189 -0.103440034
v -0.0899448932 0.0352670725 -0.100772941
v -0.0929403986 0.0344300322 -0.100642099
v -0.0964462591 0.0338434098 -0.099248765
v -0.0993291084 0.0330254322 -0.0991612483
v -0.122758458 0.0292032935 -0.0895248801
v -0.129496376 0.0282640056 -0.08625297
v -0.136207431 0.0269555879 -0.0841629669
v -0.141105767 0.0260925511 -0.0823537118
v -0.143287617 0.0255527214 -0.082035705
v -0.145064815 0.0246220974 -0.0833328587
v -0.0862509969 0.0328616644 -0.103440034
v -0.0893426829 0.0318521891 -0.100772941
v -0.092443885 0.0316139019 -0.100642099
v -0.0959393515 0.0309666243 -0.099248765
v -0.0989279232 0.0307491317 -0.0991612483
v -0.122250685 0.0263265064 -0.0895248801
v -0.128905418 0.0249063105 -0.08625297
v -0.135658069 0.0238396469 -0.0841629669
v -0.140555534 0.0229757434 -0.0823537118
v -0.142790245 0.0227365895 -0.082035705
v -0.144778869 0.023002605 -0.0833328587
v -0.0868592886 0.031220509 -0.105147909
v -0.0903209518 0.029476241 -0.102933997
v -0.092784423 0.0297691181 -0.102623789
v -0.0959809536 0.0297725849 -0.101909792
v -0.100361982 0.0294051886 -0.10062477
v -0.118135668 0.0251783914 -0.0931546576
v -0.127685387 0.0231707064 -0.0893593788
v -0.133182473 0.0220000633 -0.0871601977
v -0.13781999 0.0211015003 -0.0853804027
v -0.141162954 0.0204724204 -0.0841109772
v -0.143799722 0.0217054521 -0.0845372954
v -0.0877743151 0.0310905348 -0.106967563
v -0.0917645521 0.0290854483 -0.105409593
v -0.0934966813 0.0295810871 -0.104820372
v -0.0961455801 0.0306139588 -0.10393654
v -0.101955476 0.0295897526 -0.101789348
v -0.114420977 0.0256904944 -0.0970747112
v -0.126837077 0.0235017106 -0.0924865839
v -0.131238906 0.0218267625 -0.0908021043
v -0.135647668 0.020849349 -0.0891600839
v -0.140215002 0.0194430164 -0.087434012
v -0.143211366 0.0211153645 -0.0864661291
v -0.0878964874 0.0316433619 -0.108652043
v -0.0919846351 0.0294667088 -0.10815727
v -0.0940399875 0.0290230613 -0.107454537
v -0.0968829778 0.030220566 -0.10521723
v -0.10212098 0.0301460466 -0.102689644
v -0.115115907 0.0268836671 -0.0985642286
v -0.127960933 0.0233656694 -0.0946918311
v -0.132160866 0.0212089466 -0.0941286059
v -0.136475178 0.0198433397 -0.0929579612
v -0.140686376 0.0183304277 -0.0919380886
v -0.142727855 0.0197090319 -0.0899685292
v -0.0879363463 0.0330254322 -0.109721306
v -0.0922991815 0.0315471813 -0.110356452
v -0.0950685224 0.0307491317 -0.110310527
v -0.0978907116 0.0310862012 -0.106630494
v -0.102122711 0.0309882872 -0.103013715
v -0.115406186 0.0284303736 -0.0987886525
v -0.129317876 0.0250189554 -0.0966752539
v -0.13364692 0.0234523194 -0.0976162752
v -0.138087737 0.0222669455 -0.0972445461
v -0.142074513 0.0211638889 -0.0970417843
v -0.143231296 0.0216084039 -0.0945627228
v -0.0882222929 0.0346449247 -0.109721306
v -0.0928268773 0.0345435438 -0.110356452
v -0.0957028058 0.0343459823 -0.110310527
v -0.0982390484 0.0330635594 -0.106630494
v -0.102249221 0.031707484 -0.103013715
v -0.115607217 0.0295689564 -0.0987886525
v -0.129845571 0.0280161862 -0.0966752539
v -0.134449297 0.028006654 -0.0976162752
v -0.139027896 0.0276011304 -0.0972445461
v -0.143151578 0.0272761932 -0.0970417843
v -0.144086534 0.0264625476 -0.0945627228
v -0.0891312508 0.0361985632 -0.108743892
v -0.0936708497 0.0370156724 -0.108400757
v -0.095695007 0.0364559132 -0.107484865
v -0.0981628037 0.0346865171 -0.105471981
v -0.101848901 0.0323382973 -0.102709573
v -0.116635752 0.0300949236 -0.0975452219
v -0.12957089 0.0303219468 -0.0948313384
v -0.134976134 0.0304605866 -0.0937352131
v -0.138956842 0.0308505126 -0.0931641882
v -0.144823925 0.0298159091 -0.0909953339
v -0.14614361 0.0280881054 -0.0892744622
v -0.0978014647 0.0447067458 -0.106219772
v -0.100297861 0.0476840455 -0.105699005
v -0.102308138 0.0479119338 -0.105179104
v -0.103789867 0.0471086887 -0.104751052
v -0.105437088 0.0461078789 -0.104269276
v -0.10767872 0.0464484137 -0.103693919
v -0.110065069 0.0445577072 -0.102976456
v -0.133395629 0.039619512 -0.0965894705
v -0.15364318 0.0410414429 -0.0913133407
v -0.162522225 0.0381031339 -0.0888334116
v -0.160689576 0.0367791203 -0.0892553994
v -0.15754244 0.0370373353 -0.0900985051
v -0.151581772 0.033325243 -0.0914979048
v -0.09898511 0.0464553442 -0.104508431
v -0.100680854 0.0467516881 -0.103589073
v -0.102709336 0.0463877569 -0.102988587
v -0.104836595 0.0460359597 -0.102337844
v -0.107698656 0.0452335765 -0.101690567
v -0.112590917 0.0441331193 -0.10039688
v -0.132801211 0.0394956031 -0.0951155508
v -0.144239036 0.0400579608 -0.0899148061
v -0.15035914 0.0383682827 -0.0885128063
v -0.15277321 0.0375303756 -0.0880786894
v -0.152366821 0.037123987 -0.0885318691
v -0.0980397535 0.0450975369 -0.104760583
v -0.0993533698 0.0451148679 -0.103472961
v -0.101710253 0.0448107252 -0.102208735
v -0.104028156 0.0445906325 -0.100723551
v -0.107910075 0.0433766636 -0.100897718
v -0.114816965 0.04228314 -0.0978467644
v -0.132075951 0.0383604839 -0.0939735019
v -0.135436243 0.0381637875 -0.0914294524
v -0.138585109 0.0375217118 -0.0904901645
v -0.144756338 0.03648624 -0.0879495803
v -0.147172145 0.0357289193 -0.0880622251
v -0.097855191 0.0442293031 -0.104770115
v -0.0990440269 0.0436678072 -0.103486825
v -0.101320327 0.0429798072 -0.102226065
v -0.103522114 0.0422276835 -0.100746946
v -0.107572145 0.0417848995 -0.100913315
v -0.114323059 0.0399687107 -0.09787016
v -0.131695554 0.0365763585 -0.093991698
v -0.134838358 0.0353675867 -0.091456314
v -0.13797856 0.0346778516 -0.0905178912
v -0.144036274 0.0331112172 -0.0879825072
v -0.146555195 0.0328374013 -0.0880908201
v -0.0974886614 0.0433125432 -0.105168705
v -0.0986904995 0.042194755 -0.104168762
v -0.100605474 0.0417580395 -0.103618534
v -0.102308138 0.041064836 -0.102895871
v -0.104482203 0.0406047242 -0.102299718
v -0.10913358 0.038856991 -0.100433273
v -0.119414622 0.0377097411 -0.0984195227
v -0.126441088 0.0358588935 -0.0962116761
v -0.1351373 0.0336198534 -0.093522054
v -0.141919409 0.0307898574 -0.0905820132
v -0.144964296 0.0306096252 -0.0901089024
v -0.0973682193 0.0426782631 -0.106239702
v -0.0987164911 0.0412520002 -0.105816849
v -0.100218143 0.0415050215 -0.105432122
v -0.101419981 0.0413317182 -0.105107184
v -0.101845428 0.0399375188 -0.104930417
v -0.104480459 0.0387278819 -0.10417916
v -0.107482899 0.0397226263 -0.103433102
v -0.118327164 0.0382426403 -0.100501726
v -0.132677302 0.0343104552 -0.0965331481
v -0.140464556 0.0301356493 -0.0942837091
v -0.143991218 0.0297145299 -0.0933331564
v -0.0988984583 0.0427709801 -0.107101871
v -0.100996265 0.0411480208 -0.107346225
v -0.103517775 0.0406133881 -0.106656489
v -0.104912853 0.0408092194 -0.10593296
v -0.105307104 0.0406931093 -0.105847176
v -0.112719158 0.0389938989 -0.103909678
v -0.121564418 0.036991411 -0.101579655
v -0.13396146 0.0318123301 -0.099960163
v -0.142892494 0.029234487 -0.0979932038
v -0.148628734 0.0280855052 -0.0963780441
v -0.149482242 0.0284615671 -0.0957576289
v -0.100444295 0.0435101047 -0.10750826
v -0.103425068 0.0423403268 -0.108394692
v -0.107182219 0.0413741789 -0.107907718
v -0.108566025 0.0414244352 -0.106445929
v -0.108451638 0.0418152263 -0.105316011
v -0.120456159 0.0393734244 -0.101720895
v -0.135824439 0.0355322229 -0.099371808
v -0.151308822 0.0301001223 -0.101943585
v -0.154812093 0.0291123099 -0.101758154
v -0.157506048 0.0293505987 -0.0984663137
v -0.155542551 0.0300845247 -0.0979975357
v -0.100712049 0.0447639326 -0.107496129
v -0.103919838 0.0446538878 -0.108371296
v -0.107748909 0.0440248079 -0.107881723
v -0.108988876 0.0434009251 -0.106426866
v -0.108719392 0.0430699225 -0.10530388
v -0.120682317 0.0404340227 -0.101710496
v -0.136296678 0.0377504684 -0.0993501451
v -0.152688295 0.0365590275 -0.101879465
v -0.156293809 0.0360538565 -0.101689701
v -0.158649828 0.0347021146 -0.0984143232
v -0.156551163 0.0348095609 -0.0979516114
v -0.100705115 0.0463825599 -0.107205851
v -0.103360947 0.0468158085 -0.107253509
v -0.105992506 0.0462924414 -0.106558574
v -0.107394517 0.0452656367 -0.105606289
v -0.108416983 0.0448817793 -0.1051973
v -0.115515369 0.0426834633 -0.102713039
v -0.135000396 0.0393569618 -0.0979992691
v -0.153667442 0.0406497835 -0.096967265
v -0.159857735 0.0392408516 -0.0951952687
v -0.160011102 0.037416864 -0.0937594761
v -0.157360473 0.0373796036 -0.0940202929
v -0.120314922 -0.00737261649 -0.076437238
v -0.120107829 -0.00607113087 -0.0791459221
v -0.119938857 -0.00890199363 -0.0791450538
v -0.123597227 -0.00998685334 -0.0791389884
v -0.127781568 -0.0108888824 -0.079132058
v -0.124600635 -0.00741420889 -0.0791381233
v -0.120020312 -0.00594548855 -0.0791459221
v -0.120677985 -0.00474278369 -0.0829360006
v -0.120021177 -0.0112805402 -0.0829351339
v -0.126335372 -0.0128887686 -0.0829247366
v -0.13046079 -0.0144406721 -0.0829178046
v -0.133724037 -0.0140264847 -0.082913471
v -0.129485975 -0.00937510281 -0.0829212698
v -0.126541601 -0.00610752463 -0.0829264684
v -0.120469155 -0.00597061669 -0.0872685107
v -0.117994424 -0.00877808312 -0.0872719759
v -0.118019557 -0.0126877402 -0.0872711092
v -0.121371186 -0.015202328 -0.0872650438
v -0.12414746 -0.0162975866 -0.0872598452
v -0.126929797 -0.015798481 -0.0872555132
v -0.129641079 -0.0172663346 -0.0872511797
v -0.136281952 -0.0173373887 -0.0872407824
v -0.137420535 -0.0155584604 -0.0872399157
v -0.131208582 -0.0114936992 -0.087250313
v -0.128026784 -0.00801816065 -0.0872563783
v -0.118876526 -0.00568987037 -0.0926867455
v -0.116759661 -0.00834049937 -0.0926893456
v -0.116727601 -0.0166389881 -0.0926867455
v -0.119926727 -0.0181371702 -0.0926815468
v -0.127345714 -0.0159813133 -0.0926711496
v -0.133599263 -0.0195036429 -0.0926598839
v -0.137969031 -0.0196691442 -0.0926538186
v -0.137146719 -0.0171597551 -0.0926546853
v -0.138985436 -0.0139086412 -0.0926538186
v -0.137755004 -0.0130871968 -0.0926546853
v -0.135201421 -0.0138471193 -0.0926590188
v -0.128380318 -0.0101150958 -0.0926711496
v -0.122004597 -0.00640560031 -0.098097184
v -0.118055085 -0.0125837592 -0.0981015159
v -0.118880858 -0.0166337895 -0.0980997833
v -0.124546915 -0.0209879608 -0.0980893852
v -0.131517925 -0.0219965694 -0.0980781204
v -0.136738593 -0.022642112 -0.0980703224
v -0.13865963 -0.0220459606 -0.0980668564
v -0.137832985 -0.0179950636 -0.0980694557
v -0.140130087 -0.0143306274 -0.0980668564
v -0.140147415 -0.0123541359 -0.0980677231
v -0.13808254 -0.0112753415 -0.0980711883
v -0.136340004 -0.0121227808 -0.0980737884
v -0.132361026 -0.0119165521 -0.0980798538
v -0.12858308 -0.00839075727 -0.0980867859
v -0.1242835 -0.0143964812 -0.100799803
v -0.123295689 -0.017192682 -0.100799803
v -0.128366457 -0.0205607744 -0.100791138
v -0.132350632 -0.0219783733 -0.100785073
v -0.135817505 -0.0207202103 -0.100779873
v -0.135379921 -0.0169587267 -0.100781607
v -0.133419891 -0.0152924433 -0.100785073
v -0.127665458 -0.015488273 -0.100793737
v -0.129523233 -0.0180695829 -0.102144614
v -0.129005066 -0.00360333414 -0.0853630717
v -0.129527565 -0.000549781732 -0.0936433644
v -0.129356869 -0.00154885812 -0.0888776042
v -0.129940887 0.00185736061 -0.0835754794
v -0.130121124 0.00291449327 -0.0809543105
v -0.129880233 0.00150469429 -0.0783331416
v -0.129206097 -0.00242922426 -0.0789882196
v -0.128512025 -0.00648098634 -0.0796441594
v -0.128159363 -0.00853546237 -0.0843492644
v -0.128591743 -0.00601047568 -0.0896522559
v -0.129165367 -0.00266404623 -0.0937629413
v -0.133971854 -0.00107054868 -0.0910213287
v -0.133912066 -0.001423215 -0.0872095873
v -0.134505619 0.0020410592 -0.0807758118
v -0.134808028 0.00380265738 -0.0792862936
v -0.134636461 0.00280531401 -0.0749971111
v -0.133518673 -0.00371337971 -0.0761885519
v -0.132693765 -0.00852766359 -0.0767847033
v -0.132451144 -0.00993659545 -0.0802992342
v -0.132351497 -0.0105232178 -0.0828008261
v -0.133025633 -0.00658929929 -0.0865545125
v -0.133438955 -0.00418215695 -0.0906643313
v -0.138425673 -0.00153066124 -0.0897709677
v -0.138384949 -0.00176634993 -0.0842305542
v -0.138838995 0.000876480299 -0.0800011601
v -0.139160469 0.00275505692 -0.078214433
v -0.13912061 0.00252023454 -0.075413897
v -0.138637099 -0.000298495489 -0.075413897
v -0.138093805 -0.00346902634 -0.0749971111
v -0.137398868 -0.00752078842 -0.0765455494
v -0.137228167 -0.00851986481 -0.0795245825
v -0.137580836 -0.00646279027 -0.0843492644
v -0.137842521 -0.00493774668 -0.0884608166
v -0.142980876 -0.00140588483 -0.0922136363
v -0.143131648 -0.000524652785 -0.089889678
v -0.14324169 0.000120891378 -0.083992267
v -0.143655012 0.00252889962 -0.0801796572
v -0.143694871 0.00276285529 -0.0775584899
v -0.142346599 -0.0051049814 -0.0770819155
v -0.141933277 -0.00751212455 -0.080537523
v -0.142437576 -0.00457641568 -0.0893541802
v -0.142698396 -0.00304963947 -0.0835754794
v -0.143878568 0.00837865381 -0.0796762196
v -0.13682265 0.0154519087 -0.0802177828
v -0.139080751 0.0160991855 -0.0802177828
v -0.145304834 0.0124165524 -0.0802177828
v -0.150977819 0.0124607441 -0.0802177828
v -0.153390159 0.00868192947 -0.0802177828
v -0.154382308 0.00339193559 -0.0802177828
v -0.150172841 0.00259562057 -0.0802177828
v -0.147500552 0.00427663407 -0.0802177828
v -0.141319794 0.00322036813 -0.0802177828
v -0.136713467 0.00392310104 -0.0802177828
v -0.135035051 0.00718808021 -0.0802177828
v -0.136778452 0.011775341 -0.0802177828
v -0.135790642 0.0155246946 -0.0850918576
v -0.140002711 0.0147821027 -0.0850918576
v -0.143907168 0.0104097341 -0.0850918576
v -0.148103634 0.0117588775 -0.0850918576
v -0.151087867 0.0109019073 -0.0850918576
v -0.151787136 0.00769844986 -0.0850918576
v -0.15309642 0.00482859573 -0.0850918576
v -0.150680613 0.00454005063 -0.0850918576
v -0.147518745 0.00344825804 -0.0850918576
v -0.142984343 0.00518126185 -0.0850918576
v -0.137459528 0.0056613039 -0.0850918576
v -0.135991673 0.00668984167 -0.0850918576
v -0.136213493 0.0113802162 -0.0850918576
v -0.135761183 0.0153635253 -0.0905074939
v -0.139115413 0.0150481186 -0.0905074939
v -0.14404754 0.0112095154 -0.0905074939
v -0.146517067 0.0124234845 -0.0905074939
v -0.149245683 0.0101263881 -0.0905074939
v -0.15188158 0.00823308149 -0.0905074939
v -0.15204795 0.0051249394 -0.0905074939
v -0.148637398 0.00512060686 -0.0905074939
v -0.143370802 0.00736917916 -0.0905074939
v -0.137824321 0.00834659324 -0.0905074939
v -0.13691016 0.0106514882 -0.0905074939
v -0.140301654 0.0114841966 -0.0959231302
v -0.144744207 0.0104807872 -0.0959231302
v -0.147394836 0.0111687897 -0.0959231302
v -0.150338345 0.00696538925 -0.0959231302
v -0.14803258 0.00511714082 -0.0959231302
v -0.145147129 0.00590132493 -0.0959231302
v -0.143492981 0.00806238063 -0.0959231302
v -0.140004441 0.00917150299 -0.0959231302
v -0.144411468 0.0092191606 -0.097277473
v -0.169926483 0.0269911133 -0.09184624
v -0.169768781 0.0260934178 -0.0942299852
v -0.168625866 0.0273290496 -0.0898142919
v -0.168932607 0.0290715842 -0.0925888314
v -0.169258409 0.0309198332 -0.0943478303
v -0.168653591 0.0274876188 -0.0979828057
v -0.168066972 0.0241611189 -0.0967714361
v -0.167945661 0.023474849 -0.0934094091
v -0.16404207 0.024489523 -0.08516291
v -0.164349676 0.0262320576 -0.0909086839
v -0.164852252 0.0290828498 -0.0939180453
v -0.165168522 0.0308782408 -0.0970443837
v -0.164711874 0.0282908671 -0.0991551821
v -0.16412612 0.0249643656 -0.0986474126
v -0.1635395 0.0216387315 -0.0973580577
v -0.162719789 0.0169925491 -0.0992331675
v -0.161975465 0.0127683524 -0.0991551821
v -0.161770966 0.0116063733 -0.0938400608
v -0.162375785 0.0150377205 -0.0887199
v -0.163306409 0.0203181831 -0.0856706812
v -0.158463529 0.0237296005 -0.0823875054
v -0.159087412 0.0272683944 -0.082700312
v -0.159385489 0.0289589393 -0.0859843544
v -0.159571788 0.0300134722 -0.0920022091
v -0.159506796 0.0296443425 -0.096692584
v -0.158864721 0.0260015691 -0.0988033825
v -0.157923702 0.020669116 -0.0986474126
v -0.156630016 0.0133298455 -0.100758211
v -0.156229689 0.0110587441 -0.0992331675
v -0.15653643 0.0128021456 -0.0954422222
v -0.156294675 0.0114287404 -0.0884460858
v -0.156415988 0.0121141432 -0.085827517
v -0.157337077 0.0173417494 -0.0823485132
v -0.152942181 0.0232885515 -0.08516291
v -0.153668307 0.0274070342 -0.0871957231
v -0.154087698 0.0297838489 -0.0921590465
v -0.154087698 0.0297838489 -0.0962627991
v -0.154012312 0.0293601293 -0.0991551821
v -0.153444751 0.0261402089 -0.100328426
v -0.15245867 0.0205434737 -0.0994679895
v -0.151396338 0.0145247516 -0.100914181
v -0.150987354 0.0122007936 -0.101852603
v -0.150893769 0.0116730938 -0.100836196
v -0.151126861 0.0129927763 -0.0954422222
v -0.151015083 0.0123593633 -0.0893056557
v -0.151126861 0.0129927763 -0.08742968
v -0.152141535 0.0187480819 -0.0848111112
v -0.147242334 0.0218432259 -0.0855147105
v -0.147698975 0.024432333 -0.0884460858
v -0.14821108 0.027335115 -0.0935662449
v -0.148462365 0.0287605111 -0.0958330141
v -0.148490093 0.028919947 -0.0989602199
v -0.147466755 0.0231117846 -0.0986474126
v -0.146655708 0.0185175919 -0.0994679895
v -0.146134939 0.0155610876 -0.0994679895
v -0.145929582 0.0143991088 -0.096927406
v -0.146237189 0.0161416438 -0.0925108469
v -0.146218996 0.0160367969 -0.0869219089
v -0.146571658 0.0180418826 -0.0856706812
v -0.147261391 0.0219498054 -0.0854757182
v -0.146509268 0.0207748297 -0.0927846612
v -0.144319619 -0.0245960738 -0.084834506
v -0.139309504 -0.0206170992 -0.0832574727
v -0.142220954 -0.0219731731 -0.0786364192
v -0.148446767 -0.0248768201 -0.0806545014
v -0.148781236 -0.0250336575 -0.0837262499
v -0.150049797 -0.0256246119 -0.086264234
v -0.148961473 -0.0251168424 -0.0889902491
v -0.143754659 -0.0226897697 -0.0899979909
v -0.141991329 -0.0218674602 -0.0887251003
v -0.141245273 -0.0165887303 -0.0836967898
v -0.142389053 -0.0171216295 -0.0796060339
v -0.143921894 -0.0178382262 -0.0755655374
v -0.146868005 -0.0192107659 -0.0753792383
v -0.148483159 -0.019964623 -0.0768470935
v -0.151322689 -0.0212877715 -0.079097396
v -0.149691066 -0.0205269807 -0.0828458838
v -0.149671136 -0.0205183169 -0.0887918208
v -0.151279363 -0.0212687071 -0.0922569605
v -0.14817902 -0.0198225148 -0.0951718732
v -0.145775343 -0.018701263 -0.0946285766
v -0.143436653 -0.017611203 -0.0893576454
v -0.141454962 -0.0101133624 -0.0843224029
v -0.141371784 -0.0100743701 -0.0795453803
v -0.141782505 -0.010266733 -0.073893187
v -0.144827392 -0.0116860637 -0.07317139
v -0.148458898 -0.0133800738 -0.0733776187
v -0.151645028 -0.0148652584 -0.0746548428
v -0.15193357 -0.015000433 -0.0765576801
v -0.150343542 -0.0142587066 -0.0828398184
v -0.151256832 -0.0146841596 -0.0887398295
v -0.154234138 -0.016073162 -0.0939648364
v -0.152067014 -0.0150628216 -0.0959569238
v -0.149416385 -0.0138263231 -0.0964352332
v -0.145842066 -0.0121591729 -0.0935003911
v -0.143694006 -0.0111574964 -0.0904225772
v -0.143633352 -0.00455648618 -0.0830547109
v -0.143994685 -0.00472545352 -0.0772552156
v -0.146260585 -0.00578171906 -0.0746305814
v -0.149690201 -0.00738214868 -0.0766399966
v -0.152633704 -0.00875468679 -0.0770394548
v -0.155618802 -0.0101462893 -0.0796311636
v -0.15452441 -0.00963505293 -0.0844532455
v -0.155152625 -0.00992879828 -0.0874773362
v -0.152047084 -0.00848000582 -0.0917075986
v -0.150035936 -0.00754158463 -0.0917015332
v -0.148573278 -0.00686051503 -0.0884313549
v -0.147134016 0.000384307528 -0.0825209465
v -0.146703366 0.000584469167 -0.0789613564
v -0.149115706 -0.000541116244 -0.0766304676
v -0.153873671 -0.00275936095 -0.0775706206
v -0.157304151 -0.00435805716 -0.07899515
v -0.159606444 -0.00543165206 -0.0804647387
v -0.159059684 -0.0051777673 -0.082851084
v -0.154384904 -0.00299678225 -0.0867850026
v -0.152563521 -0.00214761042 -0.0883386395
v -0.15065375 -0.00125684699 -0.0870648822
v -0.152987237 0.00422724329 -0.0827271735
v -0.153973318 0.00376799744 -0.0815599957
v -0.157117852 0.00230187643 -0.0809846389
v -0.160647981 0.000655522457 -0.0818242794
v -0.157108323 0.00230620877 -0.0838120348
v -0.153865872 0.00381825453 -0.0845329634
v -0.155973207 0.00447939544 -0.0830755071
v -0.229623263 0.00288416567 -0.102206136
v -0.228795753 0.00555992322 -0.0996889473
v -0.228034098 0.00233913568 -0.10039688
v -0.22594323 -0.00290146753 -0.10468953
v -0.225077594 -0.00533460473 -0.106294291
v -0.226150323 -0.000188449923 -0.105679942
v -0.227530661 0.00435288601 -0.103557878
v -0.228713436 0.00683801351 -0.100821466
v -0.225798524 0.0103213509 -0.0919016949
v -0.22543026 0.00648188116 -0.0907700441
v -0.222890544 -0.00318741331 -0.0938365939
v -0.220811806 -0.00755111682 -0.0986474126
v -0.21812305 -0.0104313692 -0.106666887
v -0.216455901 -0.0112926709 -0.112234162
v -0.215884876 -0.00965151719 -0.115395161
v -0.217002663 -0.00484503128 -0.114403882
v -0.218989552 0.00343872665 -0.11246985
v -0.220078745 0.00627132122 -0.110300129
v -0.222079498 0.0102632954 -0.105535236
v -0.224862702 0.0132362634 -0.0972324146
v -0.225637354 0.01260545 -0.0939769671
v -0.220460872 0.0116470987 -0.083201151
v -0.220339562 0.00892021745 -0.0818797343
v -0.218816252 0.00027946061 -0.0818797343
v -0.217506967 -0.00350368587 -0.0842392197
v -0.216053844 -0.00577738712 -0.0881072844
v -0.213559185 -0.00885693438 -0.0952775868
v -0.211039398 -0.0128116491 -0.101976513
v -0.209213678 -0.0139199052 -0.107967506
v -0.208146148 -0.0115318264 -0.113439466
v -0.208270058 -0.00638480572 -0.116317985
v -0.209276933 -0.00111733973 -0.116034639
v -0.210382589 0.00275592323 -0.114477535
v -0.212229971 0.00820448694 -0.111222954
v -0.21352799 0.0128705996 -0.109477819
v -0.214357233 0.0145949381 -0.107543787
v -0.215644855 0.0140360444 -0.10244789
v -0.217435048 0.0166901399 -0.0975894136
v -0.21837087 0.0180652781 -0.0950418981
v -0.219447932 0.0177663349 -0.0908904878
v -0.213992436 0.0131192853 -0.0787455988
v -0.211632085 -0.000488259833 -0.0786043589
v -0.210639073 -0.00372204439 -0.0801614611
v -0.207020562 -0.00676953144 -0.0914831755
v -0.202591871 -0.0118723612 -0.104456441
v -0.201081558 -0.0142457091 -0.108465745
v -0.200064286 -0.0134615252 -0.112712471
v -0.200116275 -0.00901637032 -0.115401226
v -0.200861467 -0.00595761927 -0.114646503
v -0.203553688 0.00429136452 -0.111391055
v -0.205740739 0.0134190952 -0.109268126
v -0.206549184 0.0175653065 -0.108985646
v -0.207463344 0.019549596 -0.106909508
v -0.208328113 0.0181874552 -0.102852546
v -0.209861822 0.0183009668 -0.0972861377
v -0.211297615 0.0188728575 -0.0923800043
v -0.212665821 0.0175315129 -0.0864825933
v -0.206488529 0.0125716564 -0.076791637
v -0.206397547 0.00994788867 -0.0754234292
v -0.204408058 -0.00119445838 -0.0755178796
v -0.203417647 -0.00426447505 -0.0771685639
v -0.202243537 -0.00510151536 -0.0809430465
v -0.198254162 -0.00676346608 -0.0945289292
v -0.195288993 -0.0104746934 -0.103020648
v -0.194711036 -0.010262401 -0.105285683
v -0.194964054 -0.00678772751 -0.106605366
v -0.197931824 0.00990023111 -0.106511783
v -0.198697811 0.0154848357 -0.107314164
v -0.199297431 0.0191744008 -0.107502195
v -0.200591118 0.0212002819 -0.104058717
v -0.200985376 0.0200859605 -0.101888996
v -0.202292929 0.017820058 -0.0956146556
v -0.204723465 0.017776733 -0.0866506948
v -0.206057879 0.0159484143 -0.0805652513
v -0.199254972 0.0138471472 -0.0750257044
v -0.198865913 0.0108369196 -0.0745066693
v -0.19747691 0.00310685653 -0.0746002514
v -0.197137242 8.79636527e-05 -0.073893187
v -0.19502471 -0.006578902 -0.077336667
v -0.193943317 -0.00732322692 -0.0808286682
v -0.19136634 -0.00461367534 -0.0920550655
v -0.18924341 -0.00748352957 -0.0980001358
v -0.188506016 -0.00663869048 -0.101254717
v -0.188936669 -0.00368998418 -0.101584854
v -0.190084784 0.00595071551 -0.103614201
v -0.190641945 0.00882230275 -0.103424437
v -0.19097728 0.0130525648 -0.104933883
v -0.191890573 0.0161910342 -0.103614201
v -0.19371456 0.0193329701 -0.0989428898
v -0.195939736 0.0219108132 -0.0924328607
v -0.197131175 0.0206561186 -0.0872442476
v -0.19890144 0.0178139926 -0.0788937691
v -0.19101454 0.014586273 -0.0766088047
v -0.190777119 0.0110518121 -0.0751938075
v -0.188343113 0.00103418363 -0.0776468717
v -0.186818071 -0.00667075069 -0.078259489
v -0.186576316 -0.0103681138 -0.0767509097
v -0.185980164 -0.0120777215 -0.0778357694
v -0.185001017 -0.011299603 -0.0819395228
v -0.184611956 -0.00738214868 -0.0859020363
v -0.18327321 -0.00296732137 -0.0936866886
v -0.182751577 -0.00287460597 -0.0956675128
v -0.18252802 -0.00129497336 -0.0975070963
v -0.183129372 0.00101772017 -0.0968000303
v -0.183129372 0.006847545 -0.100573646
v -0.183573021 0.0108932422 -0.101564924
v -0.184527041 0.0139693239 -0.100054612
v -0.186068546 0.0173270185 -0.0965643416
v -0.188233934 0.0232703555 -0.0924597223
v -0.189318796 0.0248387233 -0.0894876213
v -0.189696592 0.0208675451 -0.085524241
v -0.190965149 0.0168478432 -0.078259489
v -0.183114643 0.018563517 -0.0790410744
v -0.181747303 0.0142942619 -0.0813061109
v -0.180625183 0.00822354997 -0.0814941419
v -0.180735228 0.00506948326 -0.0790410744
v -0.179950179 -0.00128110922 -0.0778149748
v -0.180165936 -0.00769842205 -0.072861182
v -0.180143408 -0.0102234087 -0.0713049449
v -0.179321096 -0.0161277518 -0.070502565
v -0.178566373 -0.0174240388 -0.0724365973
v -0.176612412 -0.0137258089 -0.0820131754
v -0.17610031 -0.0131400532 -0.0842773452
v -0.176257148 -0.00926419134 -0.0862122443
v -0.176652271 -0.00251327497 -0.0891366876
v -0.175712118 1.69111695e-05 -0.0942317186
v -0.175622867 0.00388150904 -0.0970617138
v -0.175667058 0.00667771066 -0.0987132664
v -0.176945148 0.0132726563 -0.0982886809
v -0.178802064 0.0171788466 -0.0939960299
v -0.180442351 0.0216733919 -0.090882689
v -0.181592199 0.0256515021 -0.0892311364
v -0.182307928 0.0256341712 -0.0865900396
v -0.182762842 0.0211560902 -0.0820131754
v -0.175577808 0.0206630507 -0.0789266977
v -0.17546603 0.0190868841 -0.0783132121
v -0.174637655 0.0132934525 -0.0776052826
v -0.174524144 0.00951983672 -0.0755776681
v -0.173214859 0.00617513958 -0.0782187649
v -0.171305088 -0.00239629653 -0.0796814199
v -0.170065125 -0.00630162091 -0.0817099011
v -0.169587682 -0.00544811633 -0.0840208604
v -0.169944679 -0.00276109437 -0.0844454467
v -0.16955129 0.00148736412 -0.0886445156
v -0.169079912 0.00739950666 -0.0942117891
v -0.169490633 0.0151910911 -0.0977497163
v -0.170234093 0.0194048901 -0.0977497163
v -0.170877037 0.0207219724 -0.0962394035
v -0.171724476 0.0191960629 -0.0921356501
v -0.17314987 0.0210902363 -0.0881254805
v -0.174741635 0.0237798584 -0.0840208604
v -0.17518355 0.0222166892 -0.0813797636
v -0.16911717 0.0182264474 -0.0792057106
v -0.169053917 0.0128480704 -0.0759502631
v -0.168571274 0.00974426069 -0.0757145728
v -0.166493404 0.00334601085 -0.0792057106
v -0.165665894 0.00134872438 -0.080951712
v -0.164411201 0.00129500126 -0.0855277079
v -0.164169445 0.00210691343 -0.0869427051
v -0.165591373 0.00405567583 -0.0829801916
v -0.166717825 0.00825647704 -0.0815651943
v -0.167606857 0.0145342829 -0.0823667092
v -0.16785901 0.0175687726 -0.0834047779
v -0.168310458 0.0199083277 -0.0832626713
v -0.1687827 0.0202653267 -0.0817532253
v -0.166839139 0.0160983188 -0.0789058999
v -0.166476076 0.010333482 -0.076499625
v -0.165355686 0.00695672426 -0.0784345225
f 1 2 14
f 2 3 15
f 2 15 14
f 3 4 16
f 3 16 15
f 4 5 17
f 4 17 16
f 5 6 18
f 5 18 17
f 6 7 19
f 6 19 18
f 7 8 20
f 7 20 19
f 8 9 21
f 8 21 20
f 9 10 22
f 9 22 21
f 10 11 23
f 10 23 22
f 11 12 24
f 11 24 23
f 12 13 24
f 1 14 25
f 14 15 26
f 14 26 25
f 15 16 27
f 15 27 26
f 16 17 28
f 16 28 27
f 17 18 29
f 17 29 28
f 18 19 30
f 18 30 29
f 19 20 31
f 19 31 30
f 20 21 32
f 20 32 31
f 21 22 33
f 21 33 32
f 22 23 34
f 22 34 33
f 23 24 35
f 23 35 34
f 24 13 35
f 1 25 36
f 25 26 37
f 25 37 36
f 26 27 38
f 26 38 37
f 27 28 39
f 27 39 38
f 28 29 40
f 28 40 39
f 29 30 41
f 29 41 40
f 30 31 42
f 30 42 41
f 31 32 43
f 31 43 42
f 32 33 44
f 32 44 43
f 33 34 45
f 33 45 44
f 34 35 46
f 34 46 45
f 35 13 46
f 1 36 47
f 36 37 48
f 36 48 47
f 37 38 49
f 37 49 48
f 38 39 50
f 38 50 49
f 39 40 51
f 39 51 50
f 40 41 52
f 40 52 51
f 41 42 53
f 41 53 52
f 42 43 54
f 42 54 53
f 43 44 55
f 43 55 54
f 44 45 56
f 44 56 55
f 45 46 57
f 45 57 56
f 46 13 57
f 1 47 58
f 47 48 59
f 47 59 58
f 48 49 60
f 48 60 59
f 49 50 61
f 49 61 60
f 50 51 62
f 50 62 61
f 51 52 63
f 51 63 62
f 52 53 64
f 52 64 63
f 53 54 65
f 53 65 64
f 54 55 66
f 54 66 65
f 55 56 67
f 55 67 66
f 56 57 68
f 56 68 67
f 57 13 68
f 1 58 69
f 58 59 70
f 58 70 69
f 59 60 71
f 59 71 70
f 60 61 72
f 60 72 71
f 61 62 73
f 61 73 72
f 62 63 74
f 62 74 73
f 63 64 75
f 63 75 74
f 64 65 76
f 64 76 75
f 65 66 77
f 65 77 76
f 66 67 78
f 66 78 77
f 67 68 79
f 67 79 78
f 68 13 79
f 1 69 80
f 69 70 81
f 69 81 80
f 70 71 82
f 70 82 81
f 71 72 83
f 71 83 82
f 72 73 84
f 72 84 83
f 73 74 85
f 73 85 84
f 74 75 86
f 74 86 85
f 75 76 87
f 75 87 86
f 76 77 88
f 76 88 87
f 77 78 89
f 77 89 88
f 78 79 90
f 78 90 89
f 79 13 90
f 1 80 91
f 80 81 92
f 80 92 91
f 81 82 93
f 81 93 92
f 82 83 94
f 82 94 93
f 83 84 95
f 83 95 94
f 84 85 96
f 84 96 95
f 85 86 97
f 85 97 96
f 86 87 98
f 86 98 97
f 87 88 99
f 87 99 98
f 88 89 100
f 88 100 99
f 89 90 101
f 89 101 100
f 90 13 101
f 1 91 102
f 91 92 103
f 91 103 102
f 92 93 104
f 92 104 103
f 93 94 105
f 93 105 104
f 94 95 106
f 94 106 105
f 95 96 107
f 95 107 106
f 96 97 108
f 96 108 107
f 97 98 109
f 97 109 108
f 98 99 110
f 98 110 109
f 99 100 111
f 99 111 110
f 100 101 112
f 100 112 111
f 101 13 112
f 1 102 2
f 102 103 3
f 102 3 2
f 103 104 4
f 103 4 3
f 104 105 5
f 104 5 4
f 105 106 6
f 105 6 5
f 106 107 7
f 106 7 6
f 107 108 8
f 107 8 7
f 108 109 9
f 108 9 8
f 109 110 10
f 109 10 9
f 110 111 11
f 110 11 10
f 111 112 12
f 111 12 11
f 112 13 12
f 113 114 126
f 114 115 127
f 114 127 126
f 115 116 128
f 115 128 127
f 116 117 129
f 116 129 128
f 117 118 130
f 117 130 129
f 118 119 131
f 118 131 130
f 119 120 132
f 119 132 131
f 120 121 133
f 120 133 132
f 121 122 134
f 121 134 133
f 122 123 135
f 122 135 134
f 123 124 136
f 123 136 135
f 124 125 136
f 113 126 137
f 126 127 138
f 126 138 137
f 127 128 139
f 127 139 138
f 128 129 140
f 128 140 139
f 129 130 141
f 129 141 140
f 130 131 142
f 130 142 141
f 131 132 143
f 131 143 142
f 132 133 144
f 132 144 143
f 133 134 145
f 133 145 144
f 134 135 146
f 134 146 145
f 135 136 147
f 135 147 146
f 136 125 147
f 113 137 148
f 137 138 149
f 137 149 148
f 138 139 150
f 138 150 149
f 139 140 151
f 139 151 150
f 140 141 152
f 140 152 151
f 141 142 153
f 141 153 152
f 142 143 154
f 142 154 153
f 143 144 155
f 143 155 154
f 144 145 156
f 144 156 155
f 145 146 157
f 145 157 156
f 146 147 158
f 146 158 157
f 147 125 158
f 113 148 159
f 148 149 160
f 148 160 159
f 149 150 161
f 149 161 160
f 150 151 162
f 150 162 161
f 151 152 163
f 151 163 162
f 152 153 164
f 152 164 163
f 153 154 165
f 153 165 164
f 154 155 166
f 154 166 165
f 155 156 167
f 155 167 166
f 156 157 168
f 156 168 167
f 157 158 169
f 157 169 168
f 158 125 169
f 113 159 170
f 159 160 171
f 159 171 170
f 160 161 172
f 160 172 171
f 161 162 173
f 161 173 172
f 162 163 174
f 162 174 173
f 163 164 175
f 163 175 174
f 164 165 176
f 164 176 175
f 165 166 177
f 165 177 176
f 166 167 178
f 166 178 177
f 167 168 179
f 167 179 178
f 168 169 180
f 168 180 179
f 169 125 180
f 113 170 181
f 170 171 182
f 170 182 181
f 171 172 183
f 171 183 182
f 172 173 184
f 172 184 183
f 173 174 185
f 173 185 184
f 174 175 186
f 174 186 185
f 175 176 187
f 175 187 186
f 176 177 188
f 176 188 187
f 177 178 189
f 177 189 188
f 178 179 190
f 178 190 189
f 179 180 191
f 179 191 190
f 180 125 191
f 113 181 192
f 181 182 193
f 181 193 192
f 182 183 194
f 182 194 193
f 183 184 195
f 183 195 194
f 184 185 196
f 184 196 195
f 185 186 197
f 185 197 196
f 186 187 198
f 186 198 197
f 187 188 199
f 187 199 198
f 188 189 200
f 188 200 199
f 189 190 201
f 189 201 200
f 190 191 202
f 190 202 201
f 191 125 202
f 113 192 203
f 192 193 204
f 192 204 203
f 193 194 205
f 193 205 204
f 194 195 206
f 194 206 205
f 195 196 207
f 195 207 206
f 196 197 208
f 196 208 207
f 197 198 209
f 197 209 208
f 198 199 210
f 198 210 209
f 199 200 211
f 199 211 210
f 200 201 212
f 200 212 211
f 201 202 213
f 201 213 212
f 202 125 213
f 113 203 214
f 203 204 215
f 203 215 214
f 204 205 216
f 204 216 215
f 205 206 217
f 205 217 216
f 206 207 218
f 206 218 217
f 207 208 219
f 207 219 218
f 208 209 220
f 208 220 219
f 209 210 221
f 209 221 220
f 210 211 222
f 210 222 221
f 211 212 223
f 211 223 222
f 212 213 224
f 212 224 223
f 213 125 224
f 113 214 114
f 214 215 115
f 214 115 114
f 215 216 116
f 215 116 115
f 216 217 117
f 216 117 116
f 217 218 118
f 217 118 117
f 218 219 119
f 218 119 118
f 219 220 120
f 219 120 119
f 220 221 121
f 220 121 120
f 221 222 122
f 221 122 121
f 222 223 123
f 222 123 122
f 223 224 124
f 223 124 123
f 224 125 124
f 225 226 238
f 226 227 239
f 226 239 238
f 227 228 240
f 227 240 239
f 228 229 241
f 228 241 240
f 229 230 242
f 229 242 241
f 230 231 243
f 230 243 242
f 231 232 244
f 231 244 243
f 232 233 245
f 232 245 244
f 233 234 246
f 233 246 245
f 234 235 247
f 234 247 246
f 235 236 248
f 235 248 247
f 236 237 248
f 225 238 249
f 238 239 250
f 238 250 249
f 239 240 251
f 239 251 250
f 240 241 252
f 240 252 251
f 241 242 253
f 241 253 252
f 242 243 254
f 242 254 253
f 243 244 255
f 243 255 254
f 244 245 256
f 244 256 255
f 245 246 257
f 245 257 256
f 246 247 258
f 246 258 257
f 247 248 259
f 247 259 258
f 248 237 259
f 225 249 260
f 249 250 261
f 249 261 260
f 250 251 262
f 250 262 261
f 251 252 263
f 251 263 262
f 252 253 264
f 252 264 263
f 253 254 265
f 253 265 264
f 254 255 266
f 254 266 265
f 255 256 267
f 255 267 266
f 256 257 268
f 256 268 267
f 257 258 269
f 257 269 268
f 258 259 270
f 258 270 269
f 259 237 270
f 225 260 271
f 260 261 272
f 260 272 271
f 261 262 273
f 261 273 272
f 262 263 274
f 262 274 273
f 263 264 275
f 263 275 274
f 264 265 276
f 264 276 275
f 265 266 277
f 265 277 276
f 266 267 278
f 266 278 277
f 267 268 279
f 267 279 278
f 268 269 280
f 268 280 279
f 269 270 281
f 269 281 280
f 270 237 281
f 225 271 282
f 271 272 283
f 271 283 282
f 272 273 284
f 272 284 283
f 273 274 285
f 273 285 284
f 274 275 286
f 274 286 285
f 275 276 287
f 275 287 286
f 276 277 288
f 276 288 287
f 277 278 289
f 277 289 288
f 278 279 290
f 278 290 289
f 279 280 291
f 279 291 290
f 280 281 292
f 280 292 291
f 281 237 292
f 225 282 293
f 282 283 294
f 282 294 293
f 283 284 295
f 283 295 294
f 284 285 296
f 284 296 295
f 285 286 297
f 285 297 296
f 286 287 298
f 286 298 297
f 287 288 299
f 287 299 298
f 288 289 300
f 288 300 299
f 289 290 301
f 289 301 300
f 290 291 302
f 290 302 301
f 291 292 303
f 291 303 302
f 292 237 303
f 225 293 304
f 293 294 305
f 293 305 304
f 294 295 306
f 294 306 305
f 295 296 307
f 295 307 306
f 296 297 308
f 296 308 307
f 297 298 309
f 297 309 308
f 298 299 310
f 298 310 309
f 299 300 311
f 299 311 310
f 300 301 312
f 300 312 311
f 301 302 313
f 301 313 312
f 302 303 314
f 302 314 313
f 303 237 314
f 225 304 315
f 304 305 316
f 304 316 315
f 305 306 317
f 305 317 316
f 306 307 318
f 306 318 317
f 307 308 319
f 307 319 318
f 308 309 320
f 308 320 319
f 309 310 321
f 309 321 320
f 310 311 322
f 310 322 321
f 311 312 323
f 311 323 322
f 312 313 324
f 312 324 323
f 313 314 325
f 313 325 324
f 314 237 325
f 225 315 326
f 315 316 327
f 315 327 326
f 316 317 328
f 316 328 327
f 317 318 329
f 317 329 328
f 318 319 330
f 318 330 329
f 319 320 331
f 319 331 330
f 320 321 332
f 320 332 331
f 321 322 333
f 321 333 332
f 322 323 334
f 322 334 333
f 323 324 335
f 323 335 334
f 324 325 336
f 324 336 335
f 325 237 336
f 225 326 226
f 326 327 227
f 326 227 226
f 327 328 228
f 327 228 227
f 328 329 229
f 328 229 228
f 329 330 230
f 329 230 229
f 330 331 231
f 330 231 230
f 331 332 232
f 331 232 231
f 332 333 233
f 332 233 232
f 333 334 234
f 333 234 233
f 334 335 235
f 334 235 234
f 335 336 236
f 335 236 235
f 336 237 236
f 337 338 350
f 338 339 351
f 338 351 350
f 339 340 352
f 339 352 351
f 340 341 353
f 340 353 352
f 341 342 354
f 341 354 353
f 342 343 355
f 342 355 354
f 343 344 356
f 343 356 355
f 344 345 357
f 344 357 356
f 345 346 358
f 345 358 357
f 346 347 359
f 346 359 358
f 347 348 360
f 347 360 359
f 348 349 360
f 337 350 361
f 350 351 362
f 350 362 361
f 351 352 363
f 351 363 362
f 352 353 364
f 352 364 363
f 353 354 365
f 353 365 364
f 354 355 366
f 354 366 365
f 355 356 367
f 355 367 366
f 356 357 368
f 356 368 367
f 357 358 369
f 357 369 368
f 358 359 370
f 358 370 369
f 359 360 371
f 359 371 370
f 360 349 371
f 337 361 372
f 361 362 373
f 361 373 372
f 362 363 374
f 362 374 373
f 363 364 375
f 363 375 374
f 364 365 376
f 364 376 375
f 365 366 377
f 365 377 376
f 366 367 378
f 366 378 377
f 367 368 379
f 367 379 378
f 368 369 380
f 368 380 379
f 369 370 381
f 369 381 380
f 370 371 382
f 370 382 381
f 371 349 382
f 337 372 383
f 372 373 384
f 372 384 383
f 373 374 385
f 373 385 384
f 374 375 386
f 374 386 385
f 375 376 387
f 375 387 386
f 376 377 388
f 376 388 387
f 377 378 389
f 377 389 388
f 378 379 390
f 378 390 389
f 379 380 391
f 379 391 390
f 380 381 392
f 380 392 391
f 381 382 393
f 381 393 392
f 382 349 393
f 337 383 394
f 383 384 395
f 383 395 394
f 384 385 396
f 384 396 395
f 385 386 397
f 385 397 396
f 386 387 398
f 386 398 397
f 387 388 399
f 387 399 398
f 388 389 400
f 388 400 399
f 389 390 401
f 389 401 400
f 390 391 402
f 390 402 401
f 391 392 403
f 391 403 402
f 392 393 404
f 392 404 403
f 393 349 404
f 337 394 405
f 394 395 406
f 394 406 405
f 395 396 407
f 395 407 406
f 396 397 408
f 396 408 407
f 397 398 409
f 397 409 408
f 398 399 410
f 398 410 409
f 399 400 411
f 399 411 410
f 400 401 412
f 400 412 411
f 401 402 413
f 401 413 412
f 402 403 414
f 402 414 413
f 403 404 415
f 403 415 414
f 404 349 415
f 337 405 416
f 405 406 417
f 405 417 416
f 406 407 418
f 406 418 417
f 407 408 419
f 407 419 418
f 408 409 420
f 408 420 419
f 409 410 421
f 409 421 420
f 410 411 422
f 410 422 421
f 411 412 423
f 411 423 422
f 412 413 424
f 412 424 423
f 413 414 425
f 413 425 424
f 414 415 426
f 414 426 425
f 415 349 426
f 337 416 427
f 416 417 428
f 416 428 427
f 417 418 429
f 417 429 428
f 418 419 430
f 418 430 429
f 419 420 431
f 419 431 430
f 420 421 432
f 420 432 431
f 421 422 433
f 421 433 432
f 422 423 434
f 422 434 433
f 423 424 435
f 423 435 434
f 424 425 436
f 424 436 435
f 425 426 437
f 425 437 436
f 426 349 437
f 337 427 438
f 427 428 439
f 427 439 438
f 428 429 440
f 428 440 439
f 429 430 441
f 429 441 440
f 430 431 442
f 430 442 441
f 431 432 443
f 431 443 442
f 432 433 444
f 432 444 443
f 433 434 445
f 433 445 444
f 434 435 446
f 434 446 445
f 435 436 447
f 435 447 446
f 436 437 448
f 436 448 447
f 437 349 448
f 337 438 338
f 438 439 339
f 438 339 338
f 439 440 340
f 439 340 339
f 440 441 341
f 440 341 340
f 441 442 342
f 441 342 341
f 442 443 343
f 442 343 342
f 443 444 344
f 443 344 343
f 444 445 345
f 444 345 344
f 445 446 346
f 445 346 345
f 446 447 347
f 446 347 346
f 447 448 348
f 447 348 347
f 448 349 348
f 449 450 462
f 450 451 463
f 450 463 462
f 451 452 464
f 451 464 463
f 452 453 465
f 452 465 464
f 453 454 466
f 453 466 465
f 454 455 467
f 454 467 466
f 455 456 468
f 455 468 467
f 456 457 469
f 456 469 468
f 457 458 470
f 457 470 469
f 458 459 471
f 458 471 470
f 459 460 472
f 459 472 471
f 460 461 472
f 449 462 473
f 462 463 474
f 462 474 473
f 463 464 475
f 463 475 474
f 464 465 476
f 464 476 475
f 465 466 477
f 465 477 476
f 466 467 478
f 466 478 477
f 467 468 479
f 467 479 478
f 468 469 480
f 468 480 479
f 469 470 481
f 469 481 480
f 470 471 482
f 470 482 481
f 471 472 483
f 471 483 482
f 472 461 483
f 449 473 484
f 473 474 485
f 473 485 484
f 474 475 486
f 474 486 485
f 475 476 487
f 475 487 486
f 476 477 488
f 476 488 487
f 477 478 489
f 477 489 488
f 478 479 490
f 478 490 489
f 479 480 491
f 479 491 490
f 480 481 492
f 480 492 491
f 481 482 493
f 481 493 492
f 482 483 494
f 482 494 493
f 483 461 494
f 449 484 495
f 484 485 496
f 484 496 495
f 485 486 497
f 485 497 496
f 486 487 498
f 486 498 497
f 487 488 499
f 487 499 498
f 488 489 500
f 488 500 499
f 489 490 501
f 489 501 500
f 490 491 502
f 490 502 501
f 491 492 503
f 491 503 502
f 492 493 504
f 492 504 503
f 493 494 505
f 493 505 504
f 494 461 505
f 449 495 506
f 495 496 507
f 495 507 506
f 496 497 508
f 496 508 507
f 497 498 509
f 497 509 508
f 498 499 510
f 498 510 509
f 499 500 511
f 499 511 510
f 500 501 512
f 500 512 511
f 501 502 513
f 501 513 512
f 502 503 514
f 502 514 513
f 503 504 515
f 503 515 514
f 504 505 516
f 504 516 515
f 505 461 516
f 449 506 517
f 506 507 518
f 506 518 517
f 507 508 519
f 507 519 518
f 508 509 520
f 508 520 519
f 509 510 521
f 509 521 520
f 510 511 522
f 510 522 521
f 511 512 523
f 511 523 522
f 512 513 524
f 512 524 523
f 513 514 525
f 513 525 524
f 514 515 526
f 514 526 525
f 515 516 527
f 515 527 526
f 516 461 527
f 449 517 528
f 517 518 529
f 517 529 528
f 518 519 530
f 518 530 529
f 519 520 531
f 519 531 530
f 520 521 532
f 520 532 531
f 521 522 533
f 521 533 532
f 522 523 534
f 522 534 533
f 523 524 535
f 523 535 534
f 524 525 536
f 524 536 535
f 525 526 537
f 525 537 536
f 526 527 538
f 526 538 537
f 527 461 538
f 449 528 539
f 528 529 540
f 528 540 539
f 529 530 541
f 529 541 540
f 530 531 542
f 530 542 541
f 531 532 543
f 531 543 542
f 532 533 544
f 532 544 543
f 533 534 545
f 533 545 544
f 534 535 546
f 534 546 545
f 535 536 547
f 535 547 546
f 536 537 548
f 536 548 547
f 537 538 549
f 537 549 548
f 538 461 549
f 449 539 550
f 539 540 551
f 539 551 550
f 540 541 552
f 540 552 551
f 541 542 553
f 541 553 552
f 542 543 554
f 542 554 553
f 543 544 555
f 543 555 554
f 544 545 556
f 544 556 555
f 545 546 557
f 545 557 556
f 546 547 558
f 546 558 557
f 547 548 559
f 547 559 558
f 548 549 560
f 548 560 559
f 549 461 560
f 449 550 450
f 550 551 451
f 550 451 450
f 551 552 452
f 551 452 451
f 552 553 453
f 552 453 452
f 553 554 454
f 553 454 453
f 554 555 455
f 554 455 454
f 555 556 456
f 555 456 455
f 556 557 457
f 556 457 456
f 557 558 458
f 557 458 457
f 558 559 459
f 558 459 458
f 559 560 460
f 559 460 459
f 560 461 460
f 561 563 562
f 561 564 563
f 561 565 564
f 561 566 565
f 561 567 566
f 561 562 567
f 562 569 568
f 562 563 569
f 563 570 569
f 563 564 570
f 564 571 570
f 564 565 571
f 565 572 571
f 565 573 572
f 565 566 573
f 566 574 573
f 566 567 574
f 567 568 574
f 567 562 568
f 568 576 575
f 568 569 576
f 569 577 576
f 569 578 577
f 569 570 578
f 570 579 578
f 570 580 579
f 570 581 580
f 570 571 581
f 571 582 581
f 571 572 582
f 572 583 582
f 572 573 583
f 573 584 583
f 573 585 584
f 573 574 585
f 574 575 585
f 574 568 575
f 575 587 586
f 575 576 587
f 576 577 587
f 577 588 587
f 577 578 588
f 578 589 588
f 578 579 589
f 579 580 589
f 580 590 589
f 580 581 590
f 581 591 590
f 581 582 591
f 582 592 591
f 582 583 592
f 583 593 592
f 583 594 593
f 583 584 594
f 584 595 594
f 584 596 595
f 584 597 596
f 584 585 597
f 585 586 597
f 585 575 586
f 586 587 598
f 587 599 598
f 587 588 599
f 588 600 599
f 588 589 600
f 589 601 600
f 589 590 601
f 590 602 601
f 590 591 602
f 591 603 602
f 591 592 603
f 592 604 603
f 592 593 604
f 593 605 604
f 593 594 605
f 594 606 605
f 594 595 606
f 595 607 606
f 595 608 607
f 595 609 608
f 595 596 609
f 596 610 609
f 596 597 610
f 597 611 610
f 597 586 611
f 586 598 611
f 598 599 612
f 599 613 612
f 599 600 613
f 600 614 613
f 600 601 614
f 601 602 614
f 602 615 614
f 602 603 615
f 603 616 615
f 603 604 616
f 604 605 616
f 605 606 616
f 606 617 616
f 606 607 617
f 607 608 617
f 608 609 617
f 609 618 617
f 609 610 618
f 610 611 618
f 611 619 618
f 611 598 619
f 598 612 619
f 612 613 620
f 613 614 620
f 614 615 620
f 615 616 620
f 616 617 620
f 617 618 620
f 618 619 620
f 619 612 620
f 622 623 621
f 623 624 621
f 624 625 621
f 625 626 621
f 626 627 621
f 627 628 621
f 628 629 621
f 629 630 621
f 630 631 621
f 631 622 621
f 632 633 622
f 633 623 622
f 633 634 623
f 634 624 623
f 634 635 624
f 635 625 624
f 635 636 625
f 636 626 625
f 636 627 626
f 636 637 627
f 637 628 627
f 637 638 628
f 638 639 628
f 639 629 628
f 639 640 629
f 640 630 629
f 640 641 630
f 641 642 630
f 642 631 630
f 642 632 631
f 632 622 631
f 643 633 632
f 643 644 633
f 644 634 633
f 644 645 634
f 645 635 634
f 645 646 635
f 646 636 635
f 646 647 636
f 647 648 636
f 648 637 636
f 648 649 637
f 649 638 637
f 649 650 638
f 650 639 638
f 650 651 639
f 651 640 639
f 651 652 640
f 652 641 640
f 652 653 641
f 653 642 641
f 653 643 642
f 643 632 642
f 654 655 643
f 655 644 643
f 655 656 644
f 656 645 644
f 656 657 645
f 657 646 645
f 657 647 646
f 657 658 647
f 658 648 647
f 658 659 648
f 659 649 648
f 659 650 649
f 659 660 650
f 660 651 650
f 660 652 651
f 660 661 652
f 661 653 652
f 661 654 653
f 654 643 653
f 662 655 654
f 662 656 655
f 662 657 656
f 662 658 657
f 662 659 658
f 662 660 659
f 662 661 660
f 662 654 661
f 664 665 663
f 665 666 663
f 666 667 663
f 667 668 663
f 668 669 663
f 669 670 663
f 670 671 663
f 671 672 663
f 672 673 663
f 673 674 663
f 674 675 663
f 675 664 663
f 676 665 664
f 676 677 665
f 677 666 665
f 677 678 666
f 678 679 666
f 679 667 666
f 679 680 667
f 680 668 667
f 680 681 668
f 681 669 668
f 681 682 669
f 682 683 669
f 683 670 669
f 683 684 670
f 684 671 670
f 684 685 671
f 685 672 671
f 685 686 672
f 686 673 672
f 686 687 673
f 687 674 673
f 687 688 674
f 688 675 674
f 688 664 675
f 688 676 664
f 689 690 676
f 690 677 676
f 690 691 677
f 691 678 677
f 691 692 678
f 692 679 678
f 692 680 679
f 692 693 680
f 693 681 680
f 693 694 681
f 694 682 681
f 694 695 682
f 695 683 682
f 695 696 683
f 696 684 683
f 696 697 684
f 697 685 684
f 697 698 685
f 698 686 685
f 698 687 686
f 698 699 687
f 699 688 687
f 699 689 688
f 689 676 688
f 700 690 689
f 700 701 690
f 701 691 690
f 701 692 691
f 701 702 692
f 702 693 692
f 702 703 693
f 703 694 693
f 703 695 694
f 703 704 695
f 704 696 695
f 704 705 696
f 705 697 696
f 705 706 697
f 706 698 697
f 706 699 698
f 706 707 699
f 707 700 699
f 700 689 699
f 708 701 700
f 708 702 701
f 708 703 702
f 708 704 703
f 708 705 704
f 708 706 705
f 708 707 706
f 708 700 707
f 711 712 709
f 712 713 709
f 713 710 709
f 713 714 710
f 714 715 710
f 715 716 710
f 716 709 710
f 716 711 709
f 717 712 711
f 717 718 712
f 718 713 712
f 718 719 713
f 719 720 713
f 720 721 713
f 721 714 713
f 721 722 714
f 722 723 714
f 723 724 714
f 724 715 714
f 724 725 715
f 725 726 715
f 726 716 715
f 726 727 716
f 727 711 716
f 727 728 711
f 728 717 711
f 729 730 717
f 730 731 717
f 731 718 717
f 731 732 718
f 732 719 718
f 732 733 719
f 733 720 719
f 733 734 720
f 734 721 720
f 734 722 721
f 734 735 722
f 735 723 722
f 735 724 723
f 735 736 724
f 736 725 724
f 736 737 725
f 737 738 725
f 738 726 725
f 738 739 726
f 739 727 726
f 739 740 727
f 740 741 727
f 741 728 727
f 741 729 728
f 729 717 728
f 742 730 729
f 742 743 730
f 743 731 730
f 743 744 731
f 744 732 731
f 744 745 732
f 745 733 732
f 745 746 733
f 746 734 733
f 746 747 734
f 747 735 734
f 747 748 735
f 748 749 735
f 749 736 735
f 749 750 736
f 750 737 736
f 750 751 737
f 751 738 737
f 751 752 738
f 752 739 738
f 752 753 739
f 753 740 739
f 753 754 740
f 754 741 740
f 754 755 741
f 755 729 741
f 755 742 729
f 756 757 742
f 757 743 742
f 757 744 743
f 757 758 744
f 758 745 744
f 758 759 745
f 759 746 745
f 759 760 746
f 760 747 746
f 760 761 747
f 761 748 747
f 761 762 748
f 762 749 748
f 762 763 749
f 763 750 749
f 763 751 750
f 763 764 751
f 764 752 751
f 764 765 752
f 765 753 752
f 765 766 753
f 766 754 753
f 766 767 754
f 767 755 754
f 767 768 755
f 768 756 755
f 756 742 755
f 769 757 756
f 769 758 757
f 769 759 758
f 769 760 759
f 769 761 760
f 769 762 761
f 769 763 762
f 769 764 763
f 769 765 764
f 769 766 765
f 769 767 766
f 769 768 767
f 769 756 768
f 771 772 770
f 772 773 770
f 773 774 770
f 774 775 770
f 775 776 770
f 776 777 770
f 777 778 770
f 778 771 770
f 779 780 771
f 780 772 771
f 780 781 772
f 781 782 772
f 782 773 772
f 782 783 773
f 783 784 773
f 784 785 773
f 785 774 773
f 785 786 774
f 786 775 774
f 786 787 775
f 787 776 775
f 787 788 776
f 788 777 776
f 788 789 777
f 789 778 777
f 789 790 778
f 790 771 778
f 790 779 771
f 791 792 779
f 792 780 779
f 792 793 780
f 793 781 780
f 793 794 781
f 794 795 781
f 795 782 781
f 795 783 782
f 795 796 783
f 796 797 783
f 797 784 783
f 797 785 784
f 797 798 785
f 798 786 785
f 798 799 786
f 799 800 786
f 800 787 786
f 800 801 787
f 801 788 787
f 801 802 788
f 802 789 788
f 802 803 789
f 803 790 789
f 803 804 790
f 804 791 790
f 791 779 790
f 805 792 791
f 805 806 792
f 806 793 792
f 806 807 793
f 807 794 793
f 807 808 794
f 808 795 794
f 808 809 795
f 809 796 795
f 809 797 796
f 809 810 797
f 810 798 797
f 810 811 798
f 811 799 798
f 811 812 799
f 812 800 799
f 812 801 800
f 812 813 801
f 813 802 801
f 813 814 802
f 814 803 802
f 814 815 803
f 815 804 803
f 815 805 804
f 805 791 804
f 816 817 805
f 817 806 805
f 817 818 806
f 818 807 806
f 818 808 807
f 818 819 808
f 819 809 808
f 819 820 809
f 820 810 809
f 820 821 810
f 821 822 810
f 822 811 810
f 822 812 811
f 822 823 812
f 823 813 812
f 823 814 813
f 823 824 814
f 824 815 814
f 824 825 815
f 825 816 815
f 816 805 815
f 826 817 816
f 826 827 817
f 827 818 817
f 827 828 818
f 828 819 818
f 828 820 819
f 828 829 820
f 829 821 820
f 829 822 821
f 829 830 822
f 830 823 822
f 830 824 823
f 830 825 824
f 830 831 825
f 831 816 825
f 831 826 816
f 832 827 826
f 832 828 827
f 832 829 828
f 832 830 829
f 832 831 830
f 832 826 831
f 833 835 834
f 833 836 835
f 833 837 836
f 833 838 837
f 833 839 838
f 833 840 839
f 833 834 840
f 834 842 841
f 834 835 842
f 835 843 842
f 835 844 843
f 835 836 844
f 836 845 844
f 836 846 845
f 836 837 846
f 837 847 846
f 837 848 847
f 837 838 848
f 838 849 848
f 838 850 849
f 838 839 850
f 839 851 850
f 839 852 851
f 839 840 852
f 840 853 852
f 840 834 853
f 834 841 853
f 841 842 854
f 842 855 854
f 842 856 855
f 842 843 856
f 843 857 856
f 843 858 857
f 843 844 858
f 844 859 858
f 844 845 859
f 845 860 859
f 845 861 860
f 845 846 861
f 846 862 861
f 846 847 862
f 847 863 862
f 847 848 863
f 848 864 863
f 848 849 864
f 849 865 864
f 849 866 865
f 849 850 866
f 850 867 866
f 850 868 867
f 850 851 868
f 851 869 868
f 851 870 869
f 851 852 870
f 852 871 870
f 852 872 871
f 852 853 872
f 853 854 872
f 853 841 854
f 854 855 873
f 855 874 873
f 855 856 874
f 856 857 874
f 857 875 874
f 857 858 875
f 858 876 875
f 858 859 876
f 859 860 876
f 860 877 876
f 860 861 877
f 861 878 877
f 861 862 878
f 862 879 878
f 862 880 879
f 862 863 880
f 863 881 880
f 863 864 881
f 864 882 881
f 864 865 882
f 865 866 882
f 866 883 882
f 866 867 883
f 867 868 883
f 868 884 883
f 868 885 884
f 868 886 885
f 868 869 886
f 869 887 886
f 869 870 887
f 870 888 887
f 870 871 888
f 871 872 888
f 872 889 888
f 872 854 889
f 854 873 889
f 873 891 890
f 873 874 891
f 874 892 891
f 874 875 892
f 875 893 892
f 875 894 893
f 875 876 894
f 876 895 894
f 876 877 895
f 877 896 895
f 877 878 896
f 878 879 896
f 879 897 896
f 879 898 897
f 879 880 898
f 880 881 898
f 881 899 898
f 881 882 899
f 882 883 899
f 883 900 899
f 883 901 900
f 883 884 901
f 884 902 901
f 884 903 902
f 884 885 903
f 885 886 903
f 886 904 903
f 886 887 904
f 887 905 904
f 887 888 905
f 888 889 905
f 889 906 905
f 889 873 906
f 873 890 906
f 890 891 907
f 891 908 907
f 891 909 908
f 891 892 909
f 892 910 909
f 892 893 910
f 893 911 910
f 893 894 911
f 894 912 911
f 894 895 912
f 895 913 912
f 895 914 913
f 895 896 914
f 896 915 914
f 896 897 915
f 897 916 915
f 897 898 916
f 898 917 916
f 898 899 917
f 899 918 917
f 899 919 918
f 899 900 919
f 900 920 919
f 900 901 920
f 901 921 920
f 901 902 921
f 902 903 921
f 903 904 921
f 904 922 921
f 904 923 922
f 904 905 923
f 905 924 923
f 905 906 924
f 906 890 924
f 890 907 924
f 907 908 925
f 908 926 925
f 908 909 926
f 909 927 926
f 909 910 927
f 910 928 927
f 910 911 928
f 911 929 928
f 911 930 929
f 911 912 930
f 912 931 930
f 912 932 931
f 912 913 932
f 913 933 932
f 913 934 933
f 913 914 934
f 914 915 934
f 915 916 934
f 916 935 934
f 916 917 935
f 917 936 935
f 917 937 936
f 917 918 937
f 918 938 937
f 918 919 938
f 919 939 938
f 919 920 939
f 920 940 939
f 920 921 940
f 921 941 940
f 921 922 941
f 922 942 941
f 922 923 942
f 923 943 942
f 923 924 943
f 924 944 943
f 924 907 944
f 907 925 944
f 925 946 945
f 925 947 946
f 925 948 947
f 925 926 948
f 926 927 948
f 927 949 948
f 927 950 949
f 927 928 950
f 928 951 950
f 928 929 951
f 929 952 951
f 929 953 952
f 929 930 953
f 930 931 953
f 931 954 953
f 931 932 954
f 932 955 954
f 932 956 955
f 932 933 956
f 933 957 956
f 933 934 957
f 934 958 957
f 934 935 958
f 935 936 958
f 936 937 958
f 937 959 958
f 937 960 959
f 937 938 960
f 938 961 960
f 938 939 961
f 939 962 961
f 939 940 962
f 940 963 962
f 940 941 963
f 941 964 963
f 941 965 964
f 941 942 965
f 942 966 965
f 942 943 966
f 943 945 966
f 943 944 945
f 944 925 945
f 945 968 967
f 945 969 968
f 945 946 969
f 946 947 969
f 947 948 969
f 948 970 969
f 948 971 970
f 948 949 971
f 949 950 971
f 950 972 971
f 950 951 972
f 951 952 972
f 952 953 972
f 953 973 972
f 953 954 973
f 954 974 973
f 954 975 974
f 954 955 975
f 955 956 975
f 956 976 975
f 956 957 976
f 957 977 976
f 957 958 977
f 958 959 977
f 959 960 977
f 960 978 977
f 960 961 978
f 961 979 978
f 961 962 979
f 962 980 979
f 962 981 980
f 962 963 981
f 963 982 981
f 963 964 982
f 964 965 982
f 965 966 982
f 966 983 982
f 966 984 983
f 966 945 984
f 945 967 984
f 967 968 985
f 968 986 985
f 968 969 986
f 969 970 986
f 970 987 986
f 970 971 987
f 971 988 987
f 971 972 988
f 972 973 988
f 973 974 988
f 974 989 988
f 974 975 989
f 975 976 989
f 976 990 989
f 976 977 990
f 977 991 990
f 977 992 991
f 977 993 992
f 977 994 993
f 977 978 994
f 978 995 994
f 978 979 995
f 979 980 995
f 980 981 995
f 981 982 995
f 982 996 995
f 982 997 996
f 982 983 997
f 983 985 997
f 983 984 985
f 984 967 985
f 985 999 998
f 985 986 999
f 986 987 999
f 987 988 999
f 988 1000 999
f 988 989 1000
f 989 990 1000
f 990 991 1000
f 991 992 1000
f 992 993 1000
f 993 994 1000
f 994 998 1000
f 994 995 998
f 995 996 998
f 996 997 998
f 997 985 998
