v -0.188110621 -0.00176754879 -0.0695481465
v -0.185787012 -0.00530687485 -0.0652519036
v -0.185314468 -0.00811571275 -0.0679518556
v -0.185573469 -0.00683868005 -0.073373959
v -0.186642244 -0.000792859789 -0.0752429943
v -0.187434046 0.00383955558 -0.0726815281
v -0.187771276 0.00594221999 -0.067997313
v -0.186920273 0.00120514682 -0.0644135866
v -0.179947336 -0.00955026072 -0.0545630964
v -0.178653389 -0.0172653151 -0.0630614963
v -0.178147015 -0.0202718397 -0.0659591345
v -0.178196701 -0.0203077815 -0.0743497054
v -0.17962702 -0.0122533832 -0.0780761465
v -0.181999257 0.00142714765 -0.0751467935
v -0.183095517 0.0079655978 -0.0681643419
v -0.183528947 0.0106592071 -0.0624906373
v -0.182084886 0.0026132658 -0.0565854178
v -0.172114938 -0.0159607959 -0.0538548084
v -0.171497564 -0.0196185217 -0.0571467622
v -0.171529279 -0.0196417806 -0.0626957237
v -0.171115935 -0.0223491316 -0.0718051537
v -0.172695311 -0.0133760728 -0.0738158461
v -0.173786286 -0.0071283379 -0.0739025323
v -0.175222948 0.00121888982 -0.0701634059
v -0.176871039 0.0108029791 -0.0663619074
v -0.177451413 0.0141964187 -0.0643903293
v -0.177304469 0.0134955305 -0.0604905163
v -0.175973522 0.00602890566 -0.0565019029
v -0.173845487 -0.00606907753 -0.0544150958
v -0.165109229 -0.0176152301 -0.0523018601
v -0.164918943 -0.0187971203 -0.0548749548
v -0.164960171 -0.0188277771 -0.0620106929
v -0.16460497 -0.0210636417 -0.0676199116
v -0.164947485 -0.0192601495 -0.0718537823
v -0.166942321 -0.00779856888 -0.0705027498
v -0.168180239 -0.000630059238 -0.068346171
v -0.169553472 0.00709979497 -0.0720704982
v -0.170719505 0.0137333885 -0.0730832438
v -0.170970048 0.015239822 -0.0709742372
v -0.170503847 0.0127914711 -0.0651514747
v -0.170751219 0.0145188481 -0.0566995895
v -0.170593704 0.0138274745 -0.0510153137
v -0.169874845 0.0097289181 -0.0505395977
v -0.168414926 0.00125377555 -0.0535524647
v -0.166629405 -0.0089646016 -0.0536518367
v -0.15814052 -0.0190043196 -0.0494940796
v -0.157875176 -0.020716897 -0.0546423828
v -0.158136291 -0.0195138646 -0.0623764655
v -0.159225153 -0.0133380162 -0.0642465574
v -0.160192441 -0.00802691227 -0.0704086638
v -0.160988472 -0.00354355456 -0.0721413263
v -0.16278245 0.00666742201 -0.0738253608
v -0.164491856 0.0162071112 -0.0805963839
v -0.165317487 0.0210350978 -0.0776374306
v -0.165378801 0.0215763569 -0.0724859562
v -0.164725485 0.0180898887 -0.0657350195
v -0.164930571 0.0195561508 -0.0578783076
v -0.164755085 0.0188806333 -0.0487572486
v -0.162917764 0.00833137028 -0.0495828796
v -0.161282359 -0.00111423227 -0.051865259
v -0.15966704 -0.0102849769 -0.0501167389
v -0.1517987 -0.0170359144 -0.0529742054
v -0.151229954 -0.0204356974 -0.0567957898
v -0.151126354 -0.0213141846 -0.0643913865
v -0.152516501 -0.0135959599 -0.0709573227
v -0.153093703 -0.0104213491 -0.0742714765
v -0.154643479 -0.00142714765 -0.0711285803
v -0.156802172 0.0109435789 -0.0705080353
v -0.157931205 0.0173805442 -0.071651868
v -0.157790605 0.0166764848 -0.0687426012
v -0.157490375 0.0150632785 -0.0657646196
v -0.157710262 0.0164428544 -0.0625308089
v -0.157968206 0.018163889 -0.055929987
v -0.157765233 0.0172113995 -0.0501780534
v -0.157423774 0.0152588503 -0.0501727673
v -0.15523971 0.00268832328 -0.0521802886
v -0.145530878 -0.0146784772 -0.0569850188
v -0.144749646 -0.0194662934 -0.0656906195
v -0.144821534 -0.0192252632 -0.0701190054
v -0.145492822 -0.0154597082 -0.0723104701
v -0.146061565 -0.0122068694 -0.0725853282
v -0.146620796 -0.00909145915 -0.074842336
v -0.147536285 -0.00381418412 -0.0736044172
v -0.149974063 0.0102585488 -0.070345235
v -0.150397981 0.0126635561 -0.0710799517
v -0.150596723 0.0139109895 -0.0682436277
v -0.15034618 0.0125546705 -0.0660585063
v -0.150279579 0.0123844693 -0.0601120579
v -0.150255265 0.0124003274 -0.0560822158
v -0.149613576 0.00875845772 -0.0553422136
v -0.1475236 -0.00321795346 -0.0556350431
v -0.145888193 -0.0125916706 -0.0558686726
v -0.139376173 -0.0115990098 -0.0593456269
v -0.140811776 -0.00369578381 -0.0679603128
v -0.1435001 0.0118104397 -0.0645753299
v -0.142376353 0.00551196133 -0.0608541747
v -0.141764266 0.00214177862 -0.0574089345
v -0.139332829 -0.00249063688 -0.065926363
v -0.140848777 0.00623610645 -0.0644347295
f 1 3 2
f 1 4 3
f 1 5 4
f 1 6 5
f 1 7 6
f 1 8 7
f 1 2 8
f 2 10 9
f 2 3 10
f 3 11 10
f 3 4 11
f 4 12 11
f 4 13 12
f 4 5 13
f 5 14 13
f 5 6 14
f 6 15 14
f 6 7 15
f 7 16 15
f 7 17 16
f 7 8 17
f 8 9 17
f 8 2 9
f 9 19 18
f 9 10 19
f 10 20 19
f 10 11 20
f 11 12 20
f 12 21 20
f 12 13 21
f 13 22 21
f 13 23 22
f 13 14 23
f 14 24 23
f 14 25 24
f 14 15 25
f 15 26 25
f 15 16 26
f 16 27 26
f 16 28 27
f 16 17 28
f 17 29 28
f 17 9 29
f 9 18 29
f 18 19 30
f 19 31 30
f 19 20 31
f 20 32 31
f 20 33 32
f 20 21 33
f 21 34 33
f 21 22 34
f 22 35 34
f 22 23 35
f 23 36 35
f 23 24 36
f 24 37 36
f 24 25 37
f 25 38 37
f 25 39 38
f 25 40 39
f 25 26 40
f 26 41 40
f 26 27 41
f 27 28 41
f 28 42 41
f 28 43 42
f 28 44 43
f 28 29 44
f 29 45 44
f 29 18 45
f 18 30 45
f 30 47 46
f 30 31 47
f 31 48 47
f 31 32 48
f 32 49 48
f 32 50 49
f 32 33 50
f 33 34 50
f 34 35 50
f 35 51 50
f 35 36 51
f 36 52 51
f 36 37 52
f 37 53 52
f 37 38 53
f 38 54 53
f 38 39 54
f 39 55 54
f 39 40 55
f 40 56 55
f 40 41 56
f 41 57 56
f 41 42 57
f 42 58 57
f 42 43 58
f 43 59 58
f 43 44 59
f 44 60 59
f 44 45 60
f 45 61 60
f 45 30 61
f 30 46 61
f 46 47 62
f 47 63 62
f 47 48 63
f 48 64 63
f 48 49 64
f 49 50 64
f 50 65 64
f 50 51 65
f 51 66 65
f 51 67 66
f 51 52 67
f 52 68 67
f 52 53 68
f 53 69 68
f 53 54 69
f 54 70 69
f 54 55 70
f 55 71 70
f 55 56 71
f 56 72 71
f 56 57 72
f 57 73 72
f 57 58 73
f 58 74 73
f 58 75 74
f 58 59 75
f 59 76 75
f 59 60 76
f 60 62 76
f 60 61 62
f 61 46 62
f 62 63 77
f 63 78 77
f 63 64 78
f 64 79 78
f 64 65 79
f 65 80 79
f 65 81 80
f 65 66 81
f 66 82 81
f 66 83 82
f 66 67 83
f 67 68 83
f 68 84 83
f 68 85 84
f 68 69 85
f 69 70 85
f 70 86 85
f 70 71 86
f 71 87 86
f 71 72 87
f 72 88 87
f 72 73 88
f 73 89 88
f 73 74 89
f 74 75 89
f 75 90 89
f 75 76 90
f 76 91 90
f 76 62 91
f 62 92 91
f 62 77 92
f 77 78 93
f 78 79 93
f 79 94 93
f 79 80 94
f 80 81 94
f 81 82 94
f 82 83 94
f 83 95 94
f 83 84 95
f 84 85 95
f 85 86 95
f 86 87 95
f 87 96 95
f 87 88 96
f 88 89 96
f 89 90 96
f 90 97 96
f 90 91 97
f 91 92 97
f 92 93 97
f 92 77 93
f 93 94 98
f 94 95 98
f 95 99 98
f 95 96 99
f 96 97 99
f 97 93 99
f 93 98 99
