v 0.107444425 -0.0170990999 -0.0441826243
v 0.107653262 -0.00934737454 -0.0447484503
v 0.104061602 -0.00598534754 -0.0436739873
v 0.0990922176 -0.0052392892 -0.0419392513
v 0.0967058691 -0.00850426887 -0.0408777863
v 0.0917555432 -0.00935257318 -0.0390503343
v 0.0778975797 -0.00786652348 -0.0341762609
v 0.061410653 0.000815825917 -0.0288160803
v 0.058535603 0.000859150936 -0.0277884089
v 0.055759328 -0.000992564125 -0.0266758209
v 0.057242775 -0.0028572758 -0.0270891416
v 0.056849388 -0.00761437053 -0.0266480927
v 0.053195345 -0.0143990813 -0.02490989
v 0.107720842 -0.0114659726 -0.0405433163
v 0.103671676 -0.00863251131 -0.0373615213
v 0.0997845528 -0.00809961204 -0.0357558935
v 0.0982621126 -0.0102320726 -0.0366769853
v 0.093514542 -0.0108013656 -0.0355236716
v 0.0800872286 -0.00975029795 -0.0304996931
v 0.064851528 -0.00449149825 -0.0221076222
v 0.060791968 -0.00411976915 -0.0205522518
v 0.057507055 -0.00531467524 -0.0202853697
v 0.056535713 -0.00785699128 -0.0216544425
v 0.056275759 -0.0106887191 -0.0234455016
v 0.106765957 -0.0149822369 -0.0385936873
v 0.101880616 -0.0136027651 -0.0339397055
v 0.0990124997 -0.0133454151 -0.0326286884
v 0.0988296674 -0.0140186859 -0.0343149014
v 0.094425243 -0.0141027375 -0.0335281174
v 0.0812994737 -0.0134121357 -0.0287675558
v 0.066121825 -0.0116323406 -0.0207480815
v 0.060920208 -0.0111843579 -0.0184145926
v 0.057404819 -0.0114642392 -0.0183322745
v 0.05404452 -0.0129251607 -0.0213208398
v 0.054628538 -0.0136738192 -0.0233761809
v 0.106324913 -0.0183425305 -0.0382228243
v 0.101200418 -0.0187957102 -0.0333678147
v 0.0983062971 -0.0187229259 -0.0320360015
v 0.0982681683 -0.0182957394 -0.033843524
v 0.0939295945 -0.0178910826 -0.0331104639
v 0.0807951614 -0.0172602693 -0.0283429711
v 0.06540089 -0.0171311617 -0.0201423964
v 0.060159427 -0.0169890551 -0.0177751138
v 0.05673934 -0.0165350071 -0.0177733804
v 0.053723912 -0.0153695627 -0.0210513575
v 0.054459573 -0.0149571071 -0.023234076
v 0.105937582 -0.0202583651 -0.0408257963
v 0.102400526 -0.0225935891 -0.0373788523
v 0.0996701794 -0.0230658316 -0.0358763371
v 0.0984388763 -0.022282516 -0.0360704342
v 0.0947675112 -0.0220225643 -0.0348322031
v 0.0837239382 -0.0200278783 -0.0321703093
v 0.064582044 -0.0197973883 -0.0247383233
v 0.060018184 -0.0201786472 -0.0225859317
v 0.057399615 -0.0201621845 -0.0215556618
v 0.05481137 -0.017979466 -0.0224290958
v 0.05391801 -0.0166797138 -0.0232072144
v 0.105908982 -0.0200079456 -0.0434495633
v 0.103726267 -0.0234808873 -0.0424478873
v 0.100926596 -0.0246359328 -0.0413708253
v 0.0981919236 -0.0244002457 -0.0404055423
v 0.0949096065 -0.0248343626 -0.0392019713
v 0.0868303438 -0.0205503771 -0.0365773378
v 0.064618443 -0.0186492716 -0.0287354956
v 0.060584009 -0.0195417685 -0.0272329816
v 0.058214123 -0.0209186401 -0.0262962922
v 0.055495907 -0.0196873403 -0.0253994634
v 0.052931929 -0.0181666303 -0.0245762873
v 0.104529515 -0.0201803806 -0.0452839483
v 0.100177074 -0.0228933998 -0.0456773403
v 0.0969415626 -0.0236238606 -0.0451193133
v 0.0951383664 -0.0228119484 -0.0439997923
v 0.0893414728 -0.0217591489 -0.0414349473
v 0.0807076446 -0.0200140142 -0.0374958293
v 0.061559695 -0.021267842 -0.0321547117
v 0.056599834 -0.0225918557 -0.0314320497
v 0.052979587 -0.0232607946 -0.0307085202
v 0.051489207 -0.0215728498 -0.0291106907
v 0.051488335 -0.0189828744 -0.0273950177
v 0.103403935 -0.0186406078 -0.0472223133
v 0.0973106875 -0.0195885612 -0.0482673143
v 0.0938204245 -0.019716802 -0.0478054683
v 0.0930163111 -0.0190703911 -0.0459632853
v 0.084942239 -0.0177602416 -0.0407599423
v 0.0750450605 -0.0175696106 -0.0380217963
v 0.05849054 -0.0190175363 -0.0379767383
v 0.052645983 -0.0197124701 -0.0384281853
v 0.048004135 -0.019671746 -0.0372653403
v 0.047706057 -0.0186336757 -0.0345332599
v 0.050291701 -0.0169812564 -0.0308809536
v 0.10377306 -0.0158296745 -0.0475316543
v 0.0979432407 -0.0147604123 -0.0487984803
v 0.0945188154 -0.0144008131 -0.0483912233
v 0.0935855961 -0.0147326841 -0.0464415943
v 0.0853191756 -0.0148877881 -0.0410770813
v 0.0754843744 -0.014209317 -0.0383926583
v 0.059413366 -0.0119919382 -0.0387505243
v 0.053775036 -0.0110968428 -0.0393778713
v 0.049173912 -0.0107493743 -0.0382488193
v 0.048658341 -0.0113628583 -0.035334774
v 0.050868791 -0.0125820258 -0.0313661951
v 0.105282511 -0.0122735512 -0.0475325203
v 0.100527141 -0.00956400044 -0.0480004313
v 0.0963480033 -0.00886040122 -0.0469476313
v 0.0949130798 -0.010692186 -0.0447779113
v 0.0882046201 -0.0116903957 -0.0412321853
v 0.0763448094 -0.0104911576 -0.0375495523
v 0.059752161 -0.00437538733 -0.0362697292
v 0.055748063 -0.00322467297 -0.0356770422
v 0.052325381 -0.00362586296 -0.0339631018
v 0.052756896 -0.00535886616 -0.0326226231
v 0.053757709 -0.0090241691 -0.0298229554
v 0.102197758 0.00855022118 -0.0445439553
v 0.10070131 0.01355167 -0.0442614763
v 0.0958722908 0.013871409 -0.0420692263
v 0.0928698646 0.0136773127 -0.0406750243
v 0.086762763 0.0102095723 -0.0375902783
v 0.058497474 0.00714822112 -0.0243622615
v 0.050745747 0.00916283801 -0.0209664393
v 0.047314401 0.00872872055 -0.0193547472
v 0.043335423 0.00962641645 -0.0176000803
v 0.039260265 0.0088318343 -0.0156643145
v 0.037366957 0.00726086641 -0.014668705
v 0.039964731 0.00543514701 -0.0157137057
v 0.041631016 0.00262681448 -0.0162509369
v 0.103232362 0.0123403005 -0.0424530863
v 0.0993010415 0.0127345588 -0.0400710733
v 0.0966018897 0.0123073731 -0.0389255573
v 0.0921957351 0.0110154189 -0.0374689683
v 0.0766593558 0.00896354257 -0.0305837446
v 0.0721960016 0.0099201606 -0.0275249919
v 0.067965733 0.00893321498 -0.0259496921
v 0.050250105 0.0081031062 -0.0170437847
v 0.045940125 0.00800952402 -0.0148021461
v 0.042746202 0.0067955549 -0.0139399776
v 0.042786926 0.00622626318 -0.014358497
v 0.105144728 0.01011599 -0.0420978213
v 0.102110241 0.0101896426 -0.0395728343
v 0.0995973822 0.0097763213 -0.0389021623
v 0.0977820617 0.00986730399 -0.0372497423
v 0.0948645569 0.00924602216 -0.0368927443
v 0.0930882303 0.00927461674 -0.0354595504
v 0.0878398207 0.00832406419 -0.0343157673
v 0.056223769 0.00553566118 -0.0186407491
v 0.052003907 0.0055269961 -0.0154632862
v 0.047717323 0.00483899383 -0.0142649149
v 0.045866475 0.00489358326 -0.0126965471
v 0.105319761 0.00780849557 -0.0419912413
v 0.102334663 0.00721320885 -0.0394359273
v 0.0998001504 0.00710229657 -0.0387791183
v 0.0980220936 0.00670977127 -0.0371041713
v 0.0950577833 0.00669417422 -0.0367749003
v 0.0933091785 0.00635883796 -0.0353243759
v 0.0880027299 0.0061976686 -0.0342178533
v 0.056425665 0.00286250276 -0.0185177053
v 0.052262125 0.00212510991 -0.0153055837
v 0.047939149 0.00192234854 -0.0141306055
v 0.046121227 0.00155148535 -0.0125423082
v 0.104387407 0.006104953 -0.0431800813
v 0.101674388 0.00525144863 -0.0413864233
v 0.0993140438 0.00552959562 -0.0407400123
v 0.0973167561 0.00447419639 -0.0390347373
v 0.0937086464 0.00513707032 -0.0382618173
v 0.0900216708 0.00469948697 -0.0364698916
v 0.0795941883 0.00367961439 -0.0315984178
v 0.05632862 0.000897276502 -0.0202741056
v 0.052120882 -0.000687555568 -0.0172560787
v 0.049282224 -0.00151333107 -0.0154381597
v 0.044557191 -0.00166150301 -0.0135119229
v 0.103197706 0.00567690105 -0.0447709793
v 0.100787096 0.00504435472 -0.0436124663
v 0.0987317566 0.00563617536 -0.0427165033
v 0.096284748 0.00400975149 -0.0414609423
v 0.0922815087 0.00520379107 -0.0397192733
v 0.0868173544 0.00506428421 -0.0371986193
v 0.070829524 0.00221435968 -0.029626259
v 0.055884102 0.000357445968 -0.0226127932
v 0.051359229 -0.00186773081 -0.0203538236
v 0.049415668 -0.00423588007 -0.019269829
v 0.042204639 -0.0034551622 -0.0160213152
v 0.101225545 0.00529737317 -0.0462934233
v 0.0979406325 0.00390923731 -0.0455023063
v 0.0952388854 0.00421944492 -0.0438394893
v 0.0932312036 0.00422897631 -0.0427580953
v 0.0894887716 0.00525664768 -0.0400381463
v 0.0816192107 0.00502009268 -0.0359898495
v 0.06708451 0.00232787128 -0.0300863724
v 0.055177035 -0.000270768025 -0.0255259725
v 0.048926095 -0.00383469008 -0.0246655358
v 0.045785892 -0.00479650681 -0.0236569289
v 0.041782653 -0.00322034023 -0.0204127454
v 0.0991442138 0.00666817906 -0.0478453283
v 0.0946765212 0.00549060315 -0.0479718373
v 0.0912347811 0.00535629534 -0.0457605243
v 0.0903795366 0.00591258954 -0.0434495633
v 0.086823423 0.00617167355 -0.0399774913
v 0.0766160236 0.0054758725 -0.0343036366
v 0.063531843 0.00359123093 -0.0300031876
v 0.054185757 0.00163380345 -0.0287554251
v 0.045660247 -0.00101855898 -0.0302059494
v 0.041998411 -0.00117366298 -0.0278906565
v 0.041434316 -0.000118263343 -0.0243076717
v 0.0989275782 0.00952330275 -0.0479779023
v 0.0943585144 0.00968187259 -0.0481650673
v 0.0909453612 0.00918363406 -0.0459381573
v 0.0901759162 0.00858574776 -0.0435726073
v 0.086703846 0.00774957345 -0.0400511433
v 0.0765380358 0.00650874272 -0.0343512944
v 0.063370677 0.00571676004 -0.0301011032
v 0.053882483 0.00564397393 -0.0289408559
v 0.045107418 0.00627218772 -0.0305421522
v 0.041472445 0.00575142017 -0.0282112618
v 0.041060853 0.00480173417 -0.0245346949
v 0.0994873471 0.0121557356 -0.0467518023
v 0.0948203596 0.0128714659 -0.0456244833
v 0.0915666552 0.0123584969 -0.0439304723
v 0.0883519318 0.0101679801 -0.0407434783
v 0.0724169627 0.00778769952 -0.0325628346
v 0.063089934 0.00761959819 -0.0288724035
v 0.054903219 0.00748355737 -0.0256446827
v 0.048194766 0.00854935467 -0.0240555187
v 0.042116251 0.0099097626 -0.022970659
v 0.039479489 0.00887082687 -0.0210366266
v 0.040624141 0.00687094053 -0.0196762192
v 0.0930925558 0.0213727161 -0.0468592483
v 0.0926766382 0.0240060149 -0.0468809113
v 0.0905615038 0.0247884654 -0.0459736833
v 0.088013124 0.0241429228 -0.0447510493
v 0.0854092877 0.0256714316 -0.0436791863
v 0.0832854893 0.0251671274 -0.0426627803
v 0.0809407429 0.0232538912 -0.0414314813
v 0.05737015 0.0202575279 -0.0303645186
v 0.045351769 0.0232400271 -0.0250875236
v 0.039620726 0.0217895028 -0.0223381123
v 0.037113942 0.0220381889 -0.0212064615
v 0.034311669 0.0204784858 -0.0197931961
v 0.03650219 0.0158401013 -0.0204248761
v 0.0932571953 0.0234332566 -0.0456964033
v 0.0915501796 0.0244929882 -0.0441557633
v 0.0891508417 0.0240528059 -0.0431592853
v 0.086962923 0.0250657465 -0.0413933553
v 0.0841710509 0.0242209074 -0.0404367363
v 0.0713398921 0.0226802662 -0.0346164439
v 0.058293841 0.0211188305 -0.0286956366
v 0.046899342 0.0219671364 -0.0221830083
v 0.041415252 0.0216768579 -0.0194717241
v 0.039083495 0.02161187 -0.0182828833
v 0.036164253 0.0197722864 -0.0178617639
v 0.0936133308 0.022188961 -0.0450733883
v 0.0924279553 0.0227400563 -0.0427546293
v 0.0902469703 0.0224922369 -0.0418248723
v 0.0882704707 0.0226984639 -0.0398414503
v 0.0846961514 0.0219835991 -0.0391430493
v 0.06192882 0.0200911591 -0.0276255061
v 0.059566733 0.0198589373 -0.0265224503
v 0.047946948 0.0189239813 -0.0205643826
v 0.043165587 0.0189551756 -0.0170073926
v 0.040879757 0.0186978248 -0.0160273806
v 0.037716158 0.0175566419 -0.0167561079
v 0.0937190404 0.0207921598 -0.0450084003
v 0.0926246421 0.0201266862 -0.0426341853
v 0.0904419268 0.0199412546 -0.0417070283
v 0.0885183014 0.0194187542 -0.0396906783
v 0.0848945812 0.0193702297 -0.0390226053
v 0.062173178 0.016870372 -0.0274773342
v 0.05981109 0.0166398828 -0.0263734117
v 0.048219892 0.015339263 -0.020399748
v 0.04350699 0.014459764 -0.0168002989
v 0.041215092 0.014263068 -0.0158228854
v 0.037937113 0.0146417292 -0.0166209334
v 0.0936107226 0.0197757525 -0.0457873863
v 0.092355171 0.0183200296 -0.0441384323
v 0.0896976084 0.0179820941 -0.0428334813
v 0.0875798786 0.0170679343 -0.0412815763
v 0.0843677505 0.0176562893 -0.0405008583
v 0.066852276 0.0158253705 -0.0322248983
v 0.056857187 0.0139467946 -0.0268361236
v 0.048245019 0.0120864153 -0.022000176
v 0.044690629 0.0113074301 -0.0199950911
v 0.041629279 0.0111635909 -0.0186910054
v 0.038588724 0.0121999269 -0.0183340079
v 0.0933421167 0.0195158024 -0.0468237223
v 0.091834396 0.0179820941 -0.0460074773
v 0.0886352702 0.017372077 -0.0444884993
v 0.0863182455 0.016552366 -0.0433577143
v 0.083652019 0.0174786565 -0.0422087333
v 0.0715721123 0.0169908157 -0.0366223955
v 0.05348909 0.0129468515 -0.027990304
v 0.047518893 0.0103820061 -0.025040731
v 0.04534051 0.010564838 -0.0240555187
v 0.04155909 0.0104929184 -0.0223138508
v 0.038701367 0.0111038022 -0.0210504908
v 0.0913569533 0.0185037277 -0.0476841583
v 0.0885902206 0.0169258285 -0.0471859203
v 0.0858511969 0.0169440246 -0.0457319293
v 0.0839795547 0.0173746763 -0.0444850333
v 0.0796271136 0.0180938731 -0.0417590183
v 0.065046498 0.016790654 -0.0348737947
v 0.05124485 0.0133974327 -0.0296652529
v 0.045489545 0.0107485363 -0.0282415902
v 0.042362338 0.00950337326 -0.0273508252
v 0.037528994 0.00960388743 -0.0247461205
v 0.036672891 0.0118498603 -0.0229325334
v 0.0890113288 0.0194083561 -0.0491000223
v 0.0849985606 0.0184179444 -0.0488132103
v 0.0829553583 0.0185505188 -0.0469770933
v 0.0820186657 0.0191570707 -0.0446860623
v 0.07598001 0.0190998815 -0.0404532003
v 0.058670777 0.0172741621 -0.0327205379
v 0.049216373 0.0154527746 -0.0306859906
v 0.043608368 0.013871409 -0.0308021023
v 0.038984719 0.0125196663 -0.0310247936
v 0.033217277 0.0123229703 -0.0273586239
v 0.034967612 0.0140923673 -0.0239420071
v 0.0887955712 0.0222634803 -0.0492308643
v 0.0847004898 0.0223657263 -0.0489951753
v 0.0827014719 0.0218908837 -0.0471304633
v 0.081861825 0.0212228107 -0.0447805103
v 0.0758976967 0.0201934067 -0.0405034573
v 0.058569393 0.018611174 -0.032782059
v 0.04899108 0.0184274758 -0.0308237652
v 0.043239243 0.0187316184 -0.0310256603
v 0.038491678 0.0190210294 -0.0313254694
v 0.032774496 0.0181553942 -0.027628973
v 0.034744921 0.0170064132 -0.0240763149
v 0.0906888795 0.0240398085 -0.0480498223
v 0.0875694717 0.0248326579 -0.0474692663
v 0.0852897107 0.0240614714 -0.0459667513
v 0.0832898277 0.0237486633 -0.0449390803
v 0.0791990718 0.0226031484 -0.0424340233
v 0.069551441 0.0211500248 -0.0375200913
v 0.05317282 0.0203337799 -0.0304944945
v 0.044017358 0.0223007392 -0.0285006736
v 0.038994248 0.0225156316 -0.0267174133
v 0.034781313 0.0218692216 -0.0245606897
v 0.03427008 0.0194265522 -0.022414365
v 0.0818912899 0.0339057984 -0.0438143613
v 0.0800239733 0.0371759767 -0.0433525153
v 0.0757469246 0.03812133 -0.0418785963
v 0.0742937954 0.0363657979 -0.0412469163
v 0.0718901191 0.0353407251 -0.0403206253
v 0.068262951 0.0326017126 -0.0388475723
v 0.052054166 0.0299441516 -0.0328695758
v 0.040816502 0.0310628065 -0.0289131292
v 0.034535232 0.0300550647 -0.0265978364
v 0.031335241 0.0308912383 -0.0255025777
v 0.023469134 0.0282033504 -0.0225140125
v 0.021578428 0.0262710515 -0.021714231
v 0.024597316 0.0238032531 -0.0226396548
v 0.0814285797 0.0369784152 -0.0414410123
v 0.0777034882 0.0376170273 -0.0391612463
v 0.0754124552 0.0362002966 -0.0390200063
v 0.0723779688 0.0354646356 -0.0380399933
v 0.068987347 0.0336129214 -0.0376621983
v 0.049088997 0.030588829 -0.029969394
v 0.040371984 0.0306295547 -0.0256455494
v 0.033926947 0.0293713949 -0.0233493194
v 0.030037216 0.0292518164 -0.0215166679
v 0.024917925 0.0276210599 -0.0201319991
v 0.023106936 0.0258455984 -0.0204803326
v 0.0828799658 0.0353771189 -0.0400771383
v 0.0796297218 0.0352670725 -0.0374100453
v 0.0766342164 0.0344300322 -0.0372792033
v 0.0731283559 0.0338434098 -0.0358858693
v 0.0702455066 0.0330254322 -0.0357983526
v 0.046816157 0.0292032935 -0.0261619844
v 0.040078239 0.0282640056 -0.0228900743
v 0.033367184 0.0269555879 -0.0208000712
v 0.028468848 0.0260925511 -0.0189908161
v 0.026286998 0.0255527214 -0.0186728093
v 0.0245098 0.0246220974 -0.019969963
v 0.0833236181 0.0328616644 -0.0400771383
v 0.0802319321 0.0318521891 -0.0374100453
v 0.07713073 0.0316139019 -0.0372792033
v 0.0736352635 0.0309666243 -0.0358858693
v 0.0706466918 0.0307491317 -0.0357983526
v 0.04732393 0.0263265064 -0.0261619844
v 0.040669197 0.0249063105 -0.0228900743
v 0.033916546 0.0238396469 -0.0208000712
v 0.029019081 0.0229757434 -0.0189908161
v 0.02678437 0.0227365895 -0.0186728093
v 0.024795746 0.023002605 -0.019969963
v 0.0827153264 0.031220509 -0.0417850133
v 0.0792536632 0.029476241 -0.0395711013
v 0.076790192 0.0297691181 -0.0392608933
v 0.0735936614 0.0297725849 -0.0385468963
v 0.069212633 0.0294051886 -0.0372618743
v 0.051438947 0.0251783914 -0.0297917619
v 0.041889228 0.0231707064 -0.0259964831
v 0.036392142 0.0220000633 -0.023797302
v 0.031754625 0.0211015003 -0.022017507
v 0.028411661 0.0204724204 -0.0207480815
v 0.025774893 0.0217054521 -0.0211743997
v 0.0818002999 0.0310905348 -0.0436046673
v 0.0778100629 0.0290854483 -0.0420466973
v 0.0760779337 0.0295810871 -0.0414574763
v 0.0734290349 0.0306139588 -0.0405736443
v 0.067619139 0.0295897526 -0.0384264523
v 0.055153638 0.0256904944 -0.0337118155
v 0.042737538 0.0235017106 -0.0291236882
v 0.038335709 0.0218267625 -0.0274392086
v 0.033926947 0.020849349 -0.0257971882
v 0.029359613 0.0194430164 -0.0240711163
v 0.026363249 0.0211153645 -0.0231032334
v 0.0816781276 0.0316433619 -0.0452891473
v 0.0775899799 0.0294667088 -0.0447943743
v 0.0755346275 0.0290230613 -0.0440916413
v 0.0726916372 0.030220566 -0.0418543343
v 0.067453635 0.0301460466 -0.0393267483
v 0.054458708 0.0268836671 -0.0352013329
v 0.041613682 0.0233656694 -0.0313289354
v 0.037413749 0.0212089466 -0.0307657102
v 0.033099437 0.0198433397 -0.0295950655
v 0.028888239 0.0183304277 -0.0285751929
v 0.02684676 0.0197090319 -0.0266056335
v 0.0816382687 0.0330254322 -0.0463584103
v 0.0772754335 0.0315471813 -0.0469935563
v 0.0745060926 0.0307491317 -0.0469476313
v 0.0716839034 0.0310862012 -0.0432675983
v 0.067451904 0.0309882872 -0.0396508193
v 0.054168429 0.0284303736 -0.0354257568
v 0.040256739 0.0250189554 -0.0333123582
v 0.035927695 0.0234523194 -0.0342533795
v 0.031486878 0.0222669455 -0.0338816504
v 0.027500102 0.0211638889 -0.0336788886
v 0.026343319 0.0216084039 -0.0311998271
v 0.0813523221 0.0346449247 -0.0463584103
v 0.0767477377 0.0345435438 -0.0469935563
v 0.0738718092 0.0343459823 -0.0469476313
v 0.0713355666 0.0330635594 -0.0432675983
v 0.067325394 0.031707484 -0.0396508193
v 0.053967398 0.0295689564 -0.0354257568
v 0.039729044 0.0280161862 -0.0333123582
v 0.035125318 0.028006654 -0.0342533795
v 0.030546719 0.0276011304 -0.0338816504
v 0.026423037 0.0272761932 -0.0336788886
v 0.025488081 0.0264625476 -0.0311998271
v 0.0804433642 0.0361985632 -0.0453809963
v 0.0759037653 0.0370156724 -0.0450378613
v 0.073879608 0.0364559132 -0.0441219693
v 0.0714118113 0.0346865171 -0.0421090853
v 0.067725714 0.0323382973 -0.0393466773
v 0.052938863 0.0300949236 -0.0341823262
v 0.040003725 0.0303219468 -0.0314684427
v 0.034598481 0.0304605866 -0.0303723174
v 0.030617773 0.0308505126 -0.0298012925
v 0.02475069 0.0298159091 -0.0276324382
v 0.023431005 0.0280881054 -0.0259115665
v 0.0717731503 0.0447067458 -0.0428568763
v 0.069276754 0.0476840455 -0.0423361093
v 0.067266477 0.0479119338 -0.0418162083
v 0.065784748 0.0471086887 -0.0413881563
v 0.064137527 0.0461078789 -0.0409063803
v 0.061895895 0.0464484137 -0.0403310233
v 0.059509546 0.0445577072 -0.0396135603
v 0.036178986 0.039619512 -0.0332265748
v 0.015931435 0.0410414429 -0.027950445
v 0.00705239 0.0381031339 -0.0254705159
v 0.008885039 0.0367791203 -0.0258925037
v 0.012032175 0.0370373353 -0.0267356094
v 0.017992843 0.033325243 -0.0281350091
v 0.070589505 0.0464553442 -0.0411455353
v 0.068893761 0.0467516881 -0.0402261773
v 0.066865279 0.0463877569 -0.0396256913
v 0.06473802 0.0460359597 -0.0389749483
v 0.061875959 0.0452335765 -0.0383276713
v 0.056983698 0.0441331193 -0.0370339843
v 0.036773404 0.0394956031 -0.0317526551
v 0.025335579 0.0400579608 -0.0265519104
v 0.019215475 0.0383682827 -0.0251499106
v 0.016801405 0.0375303756 -0.0247157937
v 0.017207794 0.037123987 -0.0251689734
v 0.0715348615 0.0450975369 -0.0413976873
v 0.0702212452 0.0451148679 -0.0401100653
v 0.067864362 0.0448107252 -0.0388458393
v 0.065546459 0.0445906325 -0.0373606553
v 0.06166454 0.0433766636 -0.0375348223
v 0.05475765 0.04228314 -0.0344838687
v 0.037498664 0.0383604839 -0.0306106062
v 0.034138372 0.0381637875 -0.0280665567
v 0.030989506 0.0375217118 -0.0271272688
v 0.024818277 0.03648624 -0.0245866846
v 0.02240247 0.0357289193 -0.0246993294
v 0.071719424 0.0442293031 -0.0414072193
v 0.0705305881 0.0436678072 -0.0401239293
v 0.068254288 0.0429798072 -0.0388631693
v 0.066052501 0.0422276835 -0.0373840503
v 0.06200247 0.0417848995 -0.0375504193
v 0.055251556 0.0399687107 -0.0345072643
v 0.037879061 0.0365763585 -0.0306288023
v 0.034736257 0.0353675867 -0.0280934183
v 0.031596055 0.0346778516 -0.0271549955
v 0.025538341 0.0331112172 -0.0246196115
v 0.02301942 0.0328374013 -0.0247279244
v 0.0720859536 0.0433125432 -0.0418058093
v 0.0708841155 0.042194755 -0.0408058663
v 0.068969141 0.0417580395 -0.0402556383
v 0.067266477 0.041064836 -0.0395329753
v 0.065092412 0.0406047242 -0.0389368223
v 0.060441035 0.038856991 -0.0370703773
v 0.050159993 0.0377097411 -0.035056627
v 0.043133527 0.0358588935 -0.0328487804
v 0.034437315 0.0336198534 -0.0301591583
v 0.027655206 0.0307898574 -0.0272191175
v 0.024610319 0.0306096252 -0.0267460067
v 0.0722063957 0.0426782631 -0.0428768063
v 0.0708581239 0.0412520002 -0.0424539533
v 0.069356472 0.0415050215 -0.0420692263
v 0.068154634 0.0413317182 -0.0417442883
v 0.067729187 0.0399375188 -0.0415675213
v 0.065094156 0.0387278819 -0.0408162643
v 0.062091716 0.0397226263 -0.0400702063
v 0.051247451 0.0382426403 -0.0371388303
v 0.036897313 0.0343104552 -0.0331702524
v 0.029110059 0.0301356493 -0.0309208134
v 0.025583397 0.0297145299 -0.0299702607
v 0.0706761567 0.0427709801 -0.0437389753
v 0.06857835 0.0411480208 -0.0439833293
v 0.06605684 0.0406133881 -0.0432935933
v 0.064661762 0.0408092194 -0.0425700643
v 0.064267511 0.0406931093 -0.0424842803
v 0.056855457 0.0389938989 -0.0405467823
v 0.048010197 0.036991411 -0.0382167593
v 0.035613155 0.0318123301 -0.0365972673
v 0.026682121 0.029234487 -0.0346303081
v 0.020945881 0.0280855052 -0.0330151484
v 0.020092373 0.0284615671 -0.0323947332
v 0.06913032 0.0435101047 -0.0441453643
v 0.066149547 0.0423403268 -0.0450317963
v 0.062392396 0.0413741789 -0.0445448223
v 0.06100859 0.0414244352 -0.0430830333
v 0.061122977 0.0418152263 -0.0419531153
v 0.049118456 0.0393734244 -0.0383579993
v 0.033750176 0.0355322229 -0.0360089123
v 0.018265793 0.0301001223 -0.0385806893
v 0.014762522 0.0291123099 -0.0383952583
v 0.012068567 0.0293505987 -0.035103418
v 0.014032064 0.0300845247 -0.03463464
v 0.068862566 0.0447639326 -0.0441332333
v 0.065654777 0.0446538878 -0.0450084003
v 0.061825706 0.0440248079 -0.0445188273
v 0.060585739 0.0434009251 -0.0430639703
v 0.060855223 0.0430699225 -0.0419409843
v 0.048892298 0.0404340227 -0.0383476003
v 0.033277937 0.0377504684 -0.0359872494
v 0.01688632 0.0365590275 -0.0385165693
v 0.013280806 0.0360538565 -0.0383268053
v 0.010924787 0.0347021146 -0.0350514275
v 0.013023452 0.0348095609 -0.0345887157
v 0.0688695 0.0463825599 -0.0438429553
v 0.066213668 0.0468158085 -0.0438906133
v 0.063582109 0.0462924414 -0.0431956783
v 0.062180098 0.0452656367 -0.0422433933
v 0.061157632 0.0448817793 -0.0418344043
v 0.054059246 0.0426834633 -0.0393501433
v 0.034574219 0.0393569618 -0.0346363734
v 0.015907173 0.0406497835 -0.0336043693
v 0.00971688 0.0392408516 -0.031832373
v 0.009563513 0.037416864 -0.0303965804
v 0.012214142 0.0373796036 -0.0306573972
v 0.049259693 -0.00737261649 -0.0130743423
v 0.049466786 -0.00607113087 -0.0157830264
v 0.049635758 -0.00890199363 -0.0157821581
v 0.045977388 -0.00998685334 -0.0157760927
v 0.041793047 -0.0108888824 -0.0157691623
v 0.04497398 -0.00741420889 -0.0157752276
v 0.049554303 -0.00594548855 -0.0157830264
v 0.04889663 -0.00474278369 -0.0195731049
v 0.049553438 -0.0112805402 -0.0195722382
v 0.043239243 -0.0128887686 -0.0195618409
v 0.039113825 -0.0144406721 -0.0195549089
v 0.035850578 -0.0140264847 -0.0195505753
v 0.04008864 -0.00937510281 -0.0195583741
v 0.043033014 -0.00610752463 -0.0195635727
v 0.04910546 -0.00597061669 -0.023905615
v 0.051580191 -0.00877808312 -0.0239090802
v 0.051555058 -0.0126877402 -0.0239082135
v 0.048203429 -0.015202328 -0.0239021481
v 0.045427155 -0.0162975866 -0.0238969495
v 0.042644818 -0.015798481 -0.0238926175
v 0.039933536 -0.0172663346 -0.023888284
v 0.033292663 -0.0173373887 -0.0238778867
v 0.03215408 -0.0155584604 -0.02387702
v 0.038366033 -0.0114936992 -0.0238874173
v 0.041547831 -0.00801816065 -0.0238934826
v 0.050698089 -0.00568987037 -0.0293238498
v 0.052814954 -0.00834049937 -0.0293264499
v 0.052847014 -0.0166389881 -0.0293238498
v 0.049647888 -0.0181371702 -0.0293186511
v 0.042228901 -0.0159813133 -0.0293082539
v 0.035975352 -0.0195036429 -0.0292969882
v 0.031605584 -0.0196691442 -0.0292909229
v 0.032427896 -0.0171597551 -0.0292917896
v 0.030589179 -0.0139086412 -0.0292909229
v 0.031819611 -0.0130871968 -0.0292917896
v 0.034373194 -0.0138471193 -0.0292961231
v 0.041194297 -0.0101150958 -0.0293082539
v 0.047570018 -0.00640560031 -0.0347342883
v 0.05151953 -0.0125837592 -0.0347386202
v 0.050693757 -0.0166337895 -0.0347368876
v 0.0450277 -0.0209879608 -0.0347264895
v 0.03805669 -0.0219965694 -0.0347152247
v 0.032836022 -0.022642112 -0.0347074267
v 0.030914985 -0.0220459606 -0.0347039607
v 0.03174163 -0.0179950636 -0.03470656
v 0.029444528 -0.0143306274 -0.0347039607
v 0.0294272 -0.0123541359 -0.0347048274
v 0.031492075 -0.0112753415 -0.0347082926
v 0.033234611 -0.0121227808 -0.0347108927
v 0.037213589 -0.0119165521 -0.0347169581
v 0.040991535 -0.00839075727 -0.0347238902
v 0.045291115 -0.0143964812 -0.0374369073
v 0.046278926 -0.017192682 -0.0374369073
v 0.041208158 -0.0205607744 -0.0374282423
v 0.037223983 -0.0219783733 -0.0374221773
v 0.03375711 -0.0207202103 -0.0374169773
v 0.034194694 -0.0169587267 -0.0374187113
v 0.036154724 -0.0152924433 -0.0374221773
v 0.041909157 -0.015488273 -0.0374308413
v 0.040051382 -0.0180695829 -0.0387817183
v 0.040569549 -0.00360333414 -0.022000176
v 0.04004705 -0.000549781732 -0.0302804687
v 0.040217746 -0.00154885812 -0.0255147085
v 0.039633728 0.00185736061 -0.0202125837
v 0.039453491 0.00291449327 -0.0175914148
v 0.039694382 0.00150469429 -0.0149702459
v 0.040368518 -0.00242922426 -0.0156253239
v 0.04106259 -0.00648098634 -0.0162812637
v 0.041415252 -0.00853546237 -0.0209863687
v 0.040982872 -0.00601047568 -0.0262893602
v 0.040409248 -0.00266404623 -0.0304000456
v 0.035602761 -0.00107054868 -0.027658433
v 0.035662549 -0.001423215 -0.0238466916
v 0.035068996 0.0020410592 -0.0174129161
v 0.034766587 0.00380265738 -0.0159233979
v 0.034938154 0.00280531401 -0.0116342154
v 0.036055942 -0.00371337971 -0.0128256562
v 0.03688085 -0.00852766359 -0.0134218076
v 0.037123471 -0.00993659545 -0.0169363385
v 0.037223118 -0.0105232178 -0.0194379304
v 0.036548982 -0.00658929929 -0.0231916168
v 0.03613566 -0.00418215695 -0.0273014356
v 0.031148942 -0.00153066124 -0.026408072
v 0.031189666 -0.00176634993 -0.0208676585
v 0.03073562 0.000876480299 -0.0166382644
v 0.030414146 0.00275505692 -0.0148515373
v 0.030454005 0.00252023454 -0.0120510013
v 0.030937516 -0.000298495489 -0.0120510013
v 0.03148081 -0.00346902634 -0.0116342154
v 0.032175747 -0.00752078842 -0.0131826537
v 0.032346448 -0.00851986481 -0.0161616868
v 0.031993779 -0.00646279027 -0.0209863687
v 0.031732094 -0.00493774668 -0.0250979209
v 0.026593739 -0.00140588483 -0.0288507406
v 0.026442967 -0.000524652785 -0.0265267823
v 0.026332925 0.000120891378 -0.0206293713
v 0.025919603 0.00252889962 -0.0168167615
v 0.025879744 0.00276285529 -0.0141955942
v 0.027228016 -0.0051049814 -0.0137190198
v 0.027641338 -0.00751212455 -0.0171746273
v 0.027137039 -0.00457641568 -0.0259912845
v 0.026876219 -0.00304963947 -0.0202125837
v 0.025696047 0.00837865381 -0.0163133239
v 0.032751965 0.0154519087 -0.0168548871
v 0.030493864 0.0160991855 -0.0168548871
v 0.024269781 0.0124165524 -0.0168548871
v 0.018596796 0.0124607441 -0.0168548871
v 0.016184456 0.00868192947 -0.0168548871
v 0.015192307 0.00339193559 -0.0168548871
v 0.019401774 0.00259562057 -0.0168548871
v 0.022074063 0.00427663407 -0.0168548871
v 0.028254821 0.00322036813 -0.0168548871
v 0.032861148 0.00392310104 -0.0168548871
v 0.034539564 0.00718808021 -0.0168548871
v 0.032796163 0.011775341 -0.0168548871
v 0.033783973 0.0155246946 -0.0217289619
v 0.029571904 0.0147821027 -0.0217289619
v 0.025667447 0.0104097341 -0.0217289619
v 0.021470981 0.0117588775 -0.0217289619
v 0.018486748 0.0109019073 -0.0217289619
v 0.017787479 0.00769844986 -0.0217289619
v 0.016478195 0.00482859573 -0.0217289619
v 0.018894002 0.00454005063 -0.0217289619
v 0.02205587 0.00344825804 -0.0217289619
v 0.026590272 0.00518126185 -0.0217289619
v 0.032115087 0.0056613039 -0.0217289619
v 0.033582942 0.00668984167 -0.0217289619
v 0.033361122 0.0113802162 -0.0217289619
v 0.033813432 0.0153635253 -0.0271445982
v 0.030459202 0.0150481186 -0.0271445982
v 0.025527075 0.0112095154 -0.0271445982
v 0.023057548 0.0124234845 -0.0271445982
v 0.020328932 0.0101263881 -0.0271445982
v 0.017693035 0.00823308149 -0.0271445982
v 0.017526665 0.0051249394 -0.0271445982
v 0.020937217 0.00512060686 -0.0271445982
v 0.026203813 0.00736917916 -0.0271445982
v 0.031750294 0.00834659324 -0.0271445982
v 0.032664455 0.0106514882 -0.0271445982
v 0.029272961 0.0114841966 -0.0325602345
v 0.024830408 0.0104807872 -0.0325602345
v 0.022179779 0.0111687897 -0.0325602345
v 0.01923627 0.00696538925 -0.0325602345
v 0.021542035 0.00511714082 -0.0325602345
v 0.024427486 0.00590132493 -0.0325602345
v 0.026081634 0.00806238063 -0.0325602345
v 0.029570174 0.00917150299 -0.0325602345
v 0.025163147 0.0092191606 -0.0339145773
v -0.000351868 0.0269911133 -0.0284833443
v -0.000194166 0.0260934178 -0.0308670895
v 0.000948749 0.0273290496 -0.0264513962
v 0.000642008 0.0290715842 -0.0292259357
v 0.000316206 0.0309198332 -0.0309849346
v 0.000921024 0.0274876188 -0.03461991
v 0.001507643 0.0241611189 -0.0334085404
v 0.001628954 0.023474849 -0.0300465134
v 0.005532545 0.024489523 -0.0218000143
v 0.005224939 0.0262320576 -0.0275457882
v 0.004722363 0.0290828498 -0.0305551496
v 0.004406093 0.0308782408 -0.033681488
v 0.004862741 0.0282908671 -0.0357922864
v 0.005448495 0.0249643656 -0.0352845169
v 0.006035115 0.0216387315 -0.033995162
v 0.006854826 0.0169925491 -0.0358702718
v 0.00759915 0.0127683524 -0.0357922864
v 0.007803649 0.0116063733 -0.0304771651
v 0.00719883 0.0150377205 -0.0253570043
v 0.006268206 0.0203181831 -0.0223077855
v 0.011111086 0.0237296005 -0.0190246097
v 0.010487203 0.0272683944 -0.0193374163
v 0.010189126 0.0289589393 -0.0226214587
v 0.010002827 0.0300134722 -0.0286393134
v 0.010067819 0.0296443425 -0.0333296883
v 0.010709894 0.0260015691 -0.0354404868
v 0.011650913 0.020669116 -0.0352845169
v 0.012944599 0.0133298455 -0.0373953153
v 0.013344926 0.0110587441 -0.0358702718
v 0.013038185 0.0128021456 -0.0320793265
v 0.01327994 0.0114287404 -0.0250831901
v 0.013158627 0.0121141432 -0.0224646213
v 0.012237538 0.0173417494 -0.0189856175
v 0.016632434 0.0232885515 -0.0218000143
v 0.015906308 0.0274070342 -0.0238328274
v 0.015486917 0.0297838489 -0.0287961508
v 0.015486917 0.0297838489 -0.0328999034
v 0.015562303 0.0293601293 -0.0357922864
v 0.016129864 0.0261402089 -0.0369655303
v 0.017115945 0.0205434737 -0.0361050938
v 0.018178277 0.0145247516 -0.0375512853
v 0.018587261 0.0122007936 -0.0384897073
v 0.018680846 0.0116730938 -0.0374733003
v 0.018447754 0.0129927763 -0.0320793265
v 0.018559532 0.0123593633 -0.02594276
v 0.018447754 0.0129927763 -0.0240667843
v 0.01743308 0.0187480819 -0.0214482155
v 0.022332281 0.0218432259 -0.0221518148
v 0.02187564 0.024432333 -0.0250831901
v 0.021363535 0.027335115 -0.0302033492
v 0.02111225 0.0287605111 -0.0324701184
v 0.021084522 0.028919947 -0.0355973242
v 0.02210786 0.0231117846 -0.0352845169
v 0.022918907 0.0185175919 -0.0361050938
v 0.023439676 0.0155610876 -0.0361050938
v 0.023645033 0.0143991088 -0.0335645103
v 0.023337426 0.0161416438 -0.0291479512
v 0.023355619 0.0160367969 -0.0235590132
v 0.023002957 0.0180418826 -0.0223077855
v 0.022313224 0.0219498054 -0.0221128225
v 0.023065347 0.0207748297 -0.0294217655
v 0.025254996 -0.0245960738 -0.0214716103
v 0.030265111 -0.0206170992 -0.019894577
v 0.027353661 -0.0219731731 -0.0152735235
v 0.021127848 -0.0248768201 -0.0172916057
v 0.020793379 -0.0250336575 -0.0203633542
v 0.019524818 -0.0256246119 -0.0229013383
v 0.020613142 -0.0251168424 -0.0256273534
v 0.025819956 -0.0226897697 -0.0266350952
v 0.027583286 -0.0218674602 -0.0253622046
v 0.028329342 -0.0165887303 -0.0203338941
v 0.027185562 -0.0171216295 -0.0162431382
v 0.025652721 -0.0178382262 -0.0122026417
v 0.02270661 -0.0192107659 -0.0120163426
v 0.021091456 -0.019964623 -0.0134841978
v 0.018251926 -0.0212877715 -0.0157345003
v 0.019883549 -0.0205269807 -0.0194829881
v 0.019903479 -0.0205183169 -0.0254289251
v 0.018295252 -0.0212687071 -0.0288940648
v 0.021395595 -0.0198225148 -0.0318089775
v 0.023799272 -0.018701263 -0.0312656809
v 0.026137962 -0.017611203 -0.0259947497
v 0.028119653 -0.0101133624 -0.0209595072
v 0.028202831 -0.0100743701 -0.0161824846
v 0.02779211 -0.010266733 -0.0105302913
v 0.024747223 -0.0116860637 -0.0098084943
v 0.021115717 -0.0133800738 -0.010014723
v 0.017929587 -0.0148652584 -0.0112919471
v 0.017641045 -0.015000433 -0.0131947844
v 0.019231073 -0.0142587066 -0.0194769227
v 0.018317783 -0.0146841596 -0.0253769338
v 0.015340477 -0.016073162 -0.0306019407
v 0.017507601 -0.0150628216 -0.0325940281
v 0.02015823 -0.0138263231 -0.0330723375
v 0.023732549 -0.0121591729 -0.0301374954
v 0.025880609 -0.0111574964 -0.0270596815
v 0.025941263 -0.00455648618 -0.0196918152
v 0.02557993 -0.00472545352 -0.0138923199
v 0.02331403 -0.00578171906 -0.0112676857
v 0.019884414 -0.00738214868 -0.0132771009
v 0.016940911 -0.00875468679 -0.0136765591
v 0.013955813 -0.0101462893 -0.0162682679
v 0.015050205 -0.00963505293 -0.0210903498
v 0.01442199 -0.00992879828 -0.0241144405
v 0.017527531 -0.00848000582 -0.0283447029
v 0.019538679 -0.00754158463 -0.0283386375
v 0.021001337 -0.00686051503 -0.0250684592
v 0.022440599 0.000384307528 -0.0191580508
v 0.022871249 0.000584469167 -0.0155984607
v 0.020458909 -0.000541116244 -0.0132675719
v 0.015700944 -0.00275936095 -0.0142077249
v 0.012270464 -0.00435805716 -0.0156322543
v 0.009968171 -0.00543165206 -0.017101843
v 0.010514931 -0.0051777673 -0.0194881883
v 0.015189711 -0.00299678225 -0.0234221069
v 0.017011094 -0.00214761042 -0.0249757438
v 0.018920865 -0.00125684699 -0.0237019865
v 0.016587378 0.00422724329 -0.0193642778
v 0.015601297 0.00376799744 -0.0181971
v 0.012456763 0.00230187643 -0.0176217432
v 0.008926634 0.000655522457 -0.0184613837
v 0.012466292 0.00230620877 -0.0204491391
v 0.015708743 0.00381825453 -0.0211700677
v 0.013601408 0.00447939544 -0.0197126114
v -0.060048648 0.00288416567 -0.0388432403
v -0.059221138 0.00555992322 -0.0363260516
v -0.058459483 0.00233913568 -0.0370339843
v -0.056368615 -0.00290146753 -0.0413266343
v -0.055502979 -0.00533460473 -0.0429313953
v -0.056575708 -0.000188449923 -0.0423170463
v -0.057956046 0.00435288601 -0.0401949823
v -0.059138821 0.00683801351 -0.0374585703
v -0.056223909 0.0103213509 -0.0285387992
v -0.055855645 0.00648188116 -0.0274071484
v -0.053315929 -0.00318741331 -0.0304736982
v -0.051237191 -0.00755111682 -0.0352845169
v -0.048548435 -0.0104313692 -0.0433039913
v -0.046881286 -0.0112926709 -0.0488712663
v -0.046310261 -0.00965151719 -0.0520322653
v -0.047428048 -0.00484503128 -0.0510409863
v -0.049414937 0.00343872665 -0.0491069543
v -0.05050413 0.00627132122 -0.0469372333
v -0.052504883 0.0102632954 -0.0421723403
v -0.055288087 0.0132362634 -0.0338695189
v -0.056062739 0.01260545 -0.0306140714
v -0.050886257 0.0116470987 -0.0198382553
v -0.050764947 0.00892021745 -0.0185168386
v -0.049241637 0.00027946061 -0.0185168386
v -0.047932352 -0.00350368587 -0.020876324
v -0.046479229 -0.00577738712 -0.0247443887
v -0.04398457 -0.00885693438 -0.0319146911
v -0.041464783 -0.0128116491 -0.0386136173
v -0.039639063 -0.0139199052 -0.0446046103
v -0.038571533 -0.0115318264 -0.0500765703
v -0.038695443 -0.00638480572 -0.0529550893
v -0.039702318 -0.00111733973 -0.0526717433
v -0.040807974 0.00275592323 -0.0511146393
v -0.042655356 0.00820448694 -0.0478600583
v -0.043953375 0.0128705996 -0.0461149233
v -0.044782618 0.0145949381 -0.0441808913
v -0.04607024 0.0140360444 -0.0390849943
v -0.047860433 0.0166901399 -0.0342265179
v -0.048796255 0.0180652781 -0.0316790024
v -0.049873317 0.0177663349 -0.0275275921
v -0.044417821 0.0131192853 -0.0153827031
v -0.04205747 -0.000488259833 -0.0152414632
v -0.041064458 -0.00372204439 -0.0167985654
v -0.037445947 -0.00676953144 -0.0281202798
v -0.033017256 -0.0118723612 -0.0410935453
v -0.031506943 -0.0142457091 -0.0451028493
v -0.030489671 -0.0134615252 -0.0493495753
v -0.03054166 -0.00901637032 -0.0520383303
v -0.031286852 -0.00595761927 -0.0512836073
v -0.033979073 0.00429136452 -0.0480281593
v -0.036166124 0.0134190952 -0.0459052303
v -0.036974569 0.0175653065 -0.0456227503
v -0.037888729 0.019549596 -0.0435466123
v -0.038753498 0.0181874552 -0.0394896503
v -0.040287207 0.0183009668 -0.033923242
v -0.041723 0.0188728575 -0.0290171086
v -0.043091206 0.0175315129 -0.0231196976
v -0.036913914 0.0125716564 -0.0134287413
v -0.036822932 0.00994788867 -0.0120605335
v -0.034833443 -0.00119445838 -0.0121549839
v -0.033843032 -0.00426447505 -0.0138056682
v -0.032668922 -0.00510151536 -0.0175801508
v -0.028679547 -0.00676346608 -0.0311660335
v -0.025714378 -0.0104746934 -0.0396577523
v -0.025136421 -0.010262401 -0.0419227873
v -0.025389439 -0.00678772751 -0.0432424703
v -0.028357209 0.00990023111 -0.0431488873
v -0.029123196 0.0154848357 -0.0439512683
v -0.029722816 0.0191744008 -0.0441392993
v -0.031016503 0.0212002819 -0.0406958213
v -0.031410761 0.0200859605 -0.0385261003
v -0.032718314 0.017820058 -0.0322517599
v -0.03514885 0.017776733 -0.0232877991
v -0.036483264 0.0159484143 -0.0172023556
v -0.029680357 0.0138471472 -0.0116628087
v -0.029291298 0.0108369196 -0.0111437736
v -0.027902295 0.00310685653 -0.0112373557
v -0.027562627 8.79636527e-05 -0.0105302913
v -0.025450095 -0.006578902 -0.0139737713
v -0.024368702 -0.00732322692 -0.0174657725
v -0.021791725 -0.00461367534 -0.0286921698
v -0.019668795 -0.00748352957 -0.0346372401
v -0.018931401 -0.00663869048 -0.0378918213
v -0.019362054 -0.00368998418 -0.0382219583
v -0.020510169 0.00595071551 -0.0402513053
v -0.02106733 0.00882230275 -0.0400615413
v -0.021402665 0.0130525648 -0.0415709873
v -0.022315958 0.0161910342 -0.0402513053
v -0.024139945 0.0193329701 -0.0355799941
v -0.026365121 0.0219108132 -0.029069965
v -0.02755656 0.0206561186 -0.0238813519
v -0.029326825 0.0178139926 -0.0155308734
v -0.021439925 0.014586273 -0.013245909
v -0.021202504 0.0110518121 -0.0118309118
v -0.018768498 0.00103418363 -0.014283976
v -0.017243456 -0.00667075069 -0.0148965933
v -0.017001701 -0.0103681138 -0.013388014
v -0.016405549 -0.0120777215 -0.0144728737
v -0.015426402 -0.011299603 -0.0185766271
v -0.015037341 -0.00738214868 -0.0225391406
v -0.013698595 -0.00296732137 -0.0303237929
v -0.013176962 -0.00287460597 -0.0323046171
v -0.012953405 -0.00129497336 -0.0341442006
v -0.013554757 0.00101772017 -0.0334371346
v -0.013554757 0.006847545 -0.0372107503
v -0.013998406 0.0108932422 -0.0382020283
v -0.014952426 0.0139693239 -0.0366917163
v -0.016493931 0.0173270185 -0.0332014459
v -0.018659319 0.0232703555 -0.0290968266
v -0.019744181 0.0248387233 -0.0261247256
v -0.020121977 0.0208675451 -0.0221613453
v -0.021390534 0.0168478432 -0.0148965933
v -0.013540028 0.018563517 -0.0156781787
v -0.012172688 0.0142942619 -0.0179432152
v -0.011050568 0.00822354997 -0.0181312462
v -0.011160613 0.00506948326 -0.0156781787
v -0.010375564 -0.00128110922 -0.0144520791
v -0.010591321 -0.00769842205 -0.0094982863
v -0.010568793 -0.0102234087 -0.0079420492
v -0.009746481 -0.0161277518 -0.0071396693
v -0.008991758 -0.0174240388 -0.0090737016
v -0.007037797 -0.0137258089 -0.0186502797
v -0.006525695 -0.0131400532 -0.0209144495
v -0.006682533 -0.00926419134 -0.0228493486
v -0.007077656 -0.00251327497 -0.0257737919
v -0.006137503 1.69111695e-05 -0.0308688229
v -0.006048252 0.00388150904 -0.0336988181
v -0.006092443 0.00667771066 -0.0353503707
v -0.007370533 0.0132726563 -0.0349257852
v -0.009227449 0.0171788466 -0.0306331342
v -0.010867736 0.0216733919 -0.0275197933
v -0.012017584 0.0256515021 -0.0258682407
v -0.012733313 0.0256341712 -0.0232271439
v -0.013188227 0.0211560902 -0.0186502797
v -0.006003193 0.0206630507 -0.015563802
v -0.005891415 0.0190868841 -0.0149503164
v -0.00506304 0.0132934525 -0.0142423869
v -0.004949529 0.00951983672 -0.0122147724
v -0.003640244 0.00617513958 -0.0148558692
v -0.001730473 -0.00239629653 -0.0163185242
v -0.00049051 -0.00630162091 -0.0183470054
v -1.3067e-05 -0.00544811633 -0.0206579647
v -0.000370064 -0.00276109437 -0.021082551
v 2.3325e-05 0.00148736412 -0.0252816199
v 0.000494703 0.00739950666 -0.0308488934
v 8.3982e-05 0.0151910911 -0.0343868206
v -0.000659478 0.0194048901 -0.0343868206
v -0.001302422 0.0207219724 -0.0328765078
v -0.002149861 0.0191960629 -0.0287727544
v -0.003575255 0.0210902363 -0.0247625848
v -0.00516702 0.0237798584 -0.0206579647
v -0.005608935 0.0222166892 -0.0180168679
v 0.000457445 0.0182264474 -0.0158428149
v 0.000520698 0.0128480704 -0.0125873674
v 0.001003341 0.00974426069 -0.0123516771
v 0.003081211 0.00334601085 -0.0158428149
v 0.003908721 0.00134872438 -0.0175888163
v 0.005163414 0.00129500126 -0.0221648122
v 0.00540517 0.00210691343 -0.0235798094
v 0.003983242 0.00405567583 -0.0196172959
v 0.00285679 0.00825647704 -0.0182022986
v 0.001967758 0.0145342829 -0.0190038135
v 0.001715605 0.0175687726 -0.0200418822
v 0.001264157 0.0199083277 -0.0198997756
v 0.000791915 0.0202653267 -0.0183903296
v 0.002735476 0.0160983188 -0.0155430042
v 0.003098539 0.010333482 -0.0131367293
v 0.004218929 0.00695672426 -0.0150716268
f 1 2 14
f 2 3 15
f 2 15 14
f 3 4 16
f 3 16 15
f 4 5 17
f 4 17 16
f 5 6 18
f 5 18 17
f 6 7 19
f 6 19 18
f 7 8 20
f 7 20 19
f 8 9 21
f 8 21 20
f 9 10 22
f 9 22 21
f 10 11 23
f 10 23 22
f 11 12 24
f 11 24 23
f 12 13 24
f 1 14 25
f 14 15 26
f 14 26 25
f 15 16 27
f 15 27 26
f 16 17 28
f 16 28 27
f 17 18 29
f 17 29 28
f 18 19 30
f 18 30 29
f 19 20 31
f 19 31 30
f 20 21 32
f 20 32 31
f 21 22 33
f 21 33 32
f 22 23 34
f 22 34 33
f 23 24 35
f 23 35 34
f 24 13 35
f 1 25 36
f 25 26 37
f 25 37 36
f 26 27 38
f 26 38 37
f 27 28 39
f 27 39 38
f 28 29 40
f 28 40 39
f 29 30 41
f 29 41 40
f 30 31 42
f 30 42 41
f 31 32 43
f 31 43 42
f 32 33 44
f 32 44 43
f 33 34 45
f 33 45 44
f 34 35 46
f 34 46 45
f 35 13 46
f 1 36 47
f 36 37 48
f 36 48 47
f 37 38 49
f 37 49 48
f 38 39 50
f 38 50 49
f 39 40 51
f 39 51 50
f 40 41 52
f 40 52 51
f 41 42 53
f 41 53 52
f 42 43 54
f 42 54 53
f 43 44 55
f 43 55 54
f 44 45 56
f 44 56 55
f 45 46 57
f 45 57 56
f 46 13 57
f 1 47 58
f 47 48 59
f 47 59 58
f 48 49 60
f 48 60 59
f 49 50 61
f 49 61 60
f 50 51 62
f 50 62 61
f 51 52 63
f 51 63 62
f 52 53 64
f 52 64 63
f 53 54 65
f 53 65 64
f 54 55 66
f 54 66 65
f 55 56 67
f 55 67 66
f 56 57 68
f 56 68 67
f 57 13 68
f 1 58 69
f 58 59 70
f 58 70 69
f 59 60 71
f 59 71 70
f 60 61 72
f 60 72 71
f 61 62 73
f 61 73 72
f 62 63 74
f 62 74 73
f 63 64 75
f 63 75 74
f 64 65 76
f 64 76 75
f 65 66 77
f 65 77 76
f 66 67 78
f 66 78 77
f 67 68 79
f 67 79 78
f 68 13 79
f 1 69 80
f 69 70 81
f 69 81 80
f 70 71 82
f 70 82 81
f 71 72 83
f 71 83 82
f 72 73 84
f 72 84 83
f 73 74 85
f 73 85 84
f 74 75 86
f 74 86 85
f 75 76 87
f 75 87 86
f 76 77 88
f 76 88 87
f 77 78 89
f 77 89 88
f 78 79 90
f 78 90 89
f 79 13 90
f 1 80 91
f 80 81 92
f 80 92 91
f 81 82 93
f 81 93 92
f 82 83 94
f 82 94 93
f 83 84 95
f 83 95 94
f 84 85 96
f 84 96 95
f 85 86 97
f 85 97 96
f 86 87 98
f 86 98 97
f 87 88 99
f 87 99 98
f 88 89 100
f 88 100 99
f 89 90 101
f 89 101 100
f 90 13 101
f 1 91 102
f 91 92 103
f 91 103 102
f 92 93 104
f 92 104 103
f 93 94 105
f 93 105 104
f 94 95 106
f 94 106 105
f 95 96 107
f 95 107 106
f 96 97 108
f 96 108 107
f 97 98 109
f 97 109 108
f 98 99 110
f 98 110 109
f 99 100 111
f 99 111 110
f 100 101 112
f 100 112 111
f 101 13 112
f 1 102 2
f 102 103 3
f 102 3 2
f 103 104 4
f 103 4 3
f 104 105 5
f 104 5 4
f 105 106 6
f 105 6 5
f 106 107 7
f 106 7 6
f 107 108 8
f 107 8 7
f 108 109 9
f 108 9 8
f 109 110 10
f 109 10 9
f 110 111 11
f 110 11 10
f 111 112 12
f 111 12 11
f 112 13 12
f 113 114 126
f 114 115 127
f 114 127 126
f 115 116 128
f 115 128 127
f 116 117 129
f 116 129 128
f 117 118 130
f 117 130 129
f 118 119 131
f 118 131 130
f 119 120 132
f 119 132 131
f 120 121 133
f 120 133 132
f 121 122 134
f 121 134 133
f 122 123 135
f 122 135 134
f 123 124 136
f 123 136 135
f 124 125 136
f 113 126 137
f 126 127 138
f 126 138 137
f 127 128 139
f 127 139 138
f 128 129 140
f 128 140 139
f 129 130 141
f 129 141 140
f 130 131 142
f 130 142 141
f 131 132 143
f 131 143 142
f 132 133 144
f 132 144 143
f 133 134 145
f 133 145 144
f 134 135 146
f 134 146 145
f 135 136 147
f 135 147 146
f 136 125 147
f 113 137 148
f 137 138 149
f 137 149 148
f 138 139 150
f 138 150 149
f 139 140 151
f 139 151 150
f 140 141 152
f 140 152 151
f 141 142 153
f 141 153 152
f 142 143 154
f 142 154 153
f 143 144 155
f 143 155 154
f 144 145 156
f 144 156 155
f 145 146 157
f 145 157 156
f 146 147 158
f 146 158 157
f 147 125 158
f 113 148 159
f 148 149 160
f 148 160 159
f 149 150 161
f 149 161 160
f 150 151 162
f 150 162 161
f 151 152 163
f 151 163 162
f 152 153 164
f 152 164 163
f 153 154 165
f 153 165 164
f 154 155 166
f 154 166 165
f 155 156 167
f 155 167 166
f 156 157 168
f 156 168 167
f 157 158 169
f 157 169 168
f 158 125 169
f 113 159 170
f 159 160 171
f 159 171 170
f 160 161 172
f 160 172 171
f 161 162 173
f 161 173 172
f 162 163 174
f 162 174 173
f 163 164 175
f 163 175 174
f 164 165 176
f 164 176 175
f 165 166 177
f 165 177 176
f 166 167 178
f 166 178 177
f 167 168 179
f 167 179 178
f 168 169 180
f 168 180 179
f 169 125 180
f 113 170 181
f 170 171 182
f 170 182 181
f 171 172 183
f 171 183 182
f 172 173 184
f 172 184 183
f 173 174 185
f 173 185 184
f 174 175 186
f 174 186 185
f 175 176 187
f 175 187 186
f 176 177 188
f 176 188 187
f 177 178 189
f 177 189 188
f 178 179 190
f 178 190 189
f 179 180 191
f 179 191 190
f 180 125 191
f 113 181 192
f 181 182 193
f 181 193 192
f 182 183 194
f 182 194 193
f 183 184 195
f 183 195 194
f 184 185 196
f 184 196 195
f 185 186 197
f 185 197 196
f 186 187 198
f 186 198 197
f 187 188 199
f 187 199 198
f 188 189 200
f 188 200 199
f 189 190 201
f 189 201 200
f 190 191 202
f 190 202 201
f 191 125 202
f 113 192 203
f 192 193 204
f 192 204 203
f 193 194 205
f 193 205 204
f 194 195 206
f 194 206 205
f 195 196 207
f 195 207 206
f 196 197 208
f 196 208 207
f 197 198 209
f 197 209 208
f 198 199 210
f 198 210 209
f 199 200 211
f 199 211 210
f 200 201 212
f 200 212 211
f 201 202 213
f 201 213 212
f 202 125 213
f 113 203 214
f 203 204 215
f 203 215 214
f 204 205 216
f 204 216 215
f 205 206 217
f 205 217 216
f 206 207 218
f 206 218 217
f 207 208 219
f 207 219 218
f 208 209 220
f 208 220 219
f 209 210 221
f 209 221 220
f 210 211 222
f 210 222 221
f 211 212 223
f 211 223 222
f 212 213 224
f 212 224 223
f 213 125 224
f 113 214 114
f 214 215 115
f 214 115 114
f 215 216 116
f 215 116 115
f 216 217 117
f 216 117 116
f 217 218 118
f 217 118 117
f 218 219 119
f 218 119 118
f 219 220 120
f 219 120 119
f 220 221 121
f 220 121 120
f 221 222 122
f 221 122 121
f 222 223 123
f 222 123 122
f 223 224 124
f 223 124 123
f 224 125 124
f 225 226 238
f 226 227 239
f 226 239 238
f 227 228 240
f 227 240 239
f 228 229 241
f 228 241 240
f 229 230 242
f 229 242 241
f 230 231 243
f 230 243 242
f 231 232 244
f 231 244 243
f 232 233 245
f 232 245 244
f 233 234 246
f 233 246 245
f 234 235 247
f 234 247 246
f 235 236 248
f 235 248 247
f 236 237 248
f 225 238 249
f 238 239 250
f 238 250 249
f 239 240 251
f 239 251 250
f 240 241 252
f 240 252 251
f 241 242 253
f 241 253 252
f 242 243 254
f 242 254 253
f 243 244 255
f 243 255 254
f 244 245 256
f 244 256 255
f 245 246 257
f 245 257 256
f 246 247 258
f 246 258 257
f 247 248 259
f 247 259 258
f 248 237 259
f 225 249 260
f 249 250 261
f 249 261 260
f 250 251 262
f 250 262 261
f 251 252 263
f 251 263 262
f 252 253 264
f 252 264 263
f 253 254 265
f 253 265 264
f 254 255 266
f 254 266 265
f 255 256 267
f 255 267 266
f 256 257 268
f 256 268 267
f 257 258 269
f 257 269 268
f 258 259 270
f 258 270 269
f 259 237 270
f 225 260 271
f 260 261 272
f 260 272 271
f 261 262 273
f 261 273 272
f 262 263 274
f 262 274 273
f 263 264 275
f 263 275 274
f 264 265 276
f 264 276 275
f 265 266 277
f 265 277 276
f 266 267 278
f 266 278 277
f 267 268 279
f 267 279 278
f 268 269 280
f 268 280 279
f 269 270 281
f 269 281 280
f 270 237 281
f 225 271 282
f 271 272 283
f 271 283 282
f 272 273 284
f 272 284 283
f 273 274 285
f 273 285 284
f 274 275 286
f 274 286 285
f 275 276 287
f 275 287 286
f 276 277 288
f 276 288 287
f 277 278 289
f 277 289 288
f 278 279 290
f 278 290 289
f 279 280 291
f 279 291 290
f 280 281 292
f 280 292 291
f 281 237 292
f 225 282 293
f 282 283 294
f 282 294 293
f 283 284 295
f 283 295 294
f 284 285 296
f 284 296 295
f 285 286 297
f 285 297 296
f 286 287 298
f 286 298 297
f 287 288 299
f 287 299 298
f 288 289 300
f 288 300 299
f 289 290 301
f 289 301 300
f 290 291 302
f 290 302 301
f 291 292 303
f 291 303 302
f 292 237 303
f 225 293 304
f 293 294 305
f 293 305 304
f 294 295 306
f 294 306 305
f 295 296 307
f 295 307 306
f 296 297 308
f 296 308 307
f 297 298 309
f 297 309 308
f 298 299 310
f 298 310 309
f 299 300 311
f 299 311 310
f 300 301 312
f 300 312 311
f 301 302 313
f 301 313 312
f 302 303 314
f 302 314 313
f 303 237 314
f 225 304 315
f 304 305 316
f 304 316 315
f 305 306 317
f 305 317 316
f 306 307 318
f 306 318 317
f 307 308 319
f 307 319 318
f 308 309 320
f 308 320 319
f 309 310 321
f 309 321 320
f 310 311 322
f 310 322 321
f 311 312 323
f 311 323 322
f 312 313 324
f 312 324 323
f 313 314 325
f 313 325 324
f 314 237 325
f 225 315 326
f 315 316 327
f 315 327 326
f 316 317 328
f 316 328 327
f 317 318 329
f 317 329 328
f 318 319 330
f 318 330 329
f 319 320 331
f 319 331 330
f 320 321 332
f 320 332 331
f 321 322 333
f 321 333 332
f 322 323 334
f 322 334 333
f 323 324 335
f 323 335 334
f 324 325 336
f 324 336 335
f 325 237 336
f 225 326 226
f 326 327 227
f 326 227 226
f 327 328 228
f 327 228 227
f 328 329 229
f 328 229 228
f 329 330 230
f 329 230 229
f 330 331 231
f 330 231 230
f 331 332 232
f 331 232 231
f 332 333 233
f 332 233 232
f 333 334 234
f 333 234 233
f 334 335 235
f 334 235 234
f 335 336 236
f 335 236 235
f 336 237 236
f 337 338 350
f 338 339 351
f 338 351 350
f 339 340 352
f 339 352 351
f 340 341 353
f 340 353 352
f 341 342 354
f 341 354 353
f 342 343 355
f 342 355 354
f 343 344 356
f 343 356 355
f 344 345 357
f 344 357 356
f 345 346 358
f 345 358 357
f 346 347 359
f 346 359 358
f 347 348 360
f 347 360 359
f 348 349 360
f 337 350 361
f 350 351 362
f 350 362 361
f 351 352 363
f 351 363 362
f 352 353 364
f 352 364 363
f 353 354 365
f 353 365 364
f 354 355 366
f 354 366 365
f 355 356 367
f 355 367 366
f 356 357 368
f 356 368 367
f 357 358 369
f 357 369 368
f 358 359 370
f 358 370 369
f 359 360 371
f 359 371 370
f 360 349 371
f 337 361 372
f 361 362 373
f 361 373 372
f 362 363 374
f 362 374 373
f 363 364 375
f 363 375 374
f 364 365 376
f 364 376 375
f 365 366 377
f 365 377 376
f 366 367 378
f 366 378 377
f 367 368 379
f 367 379 378
f 368 369 380
f 368 380 379
f 369 370 381
f 369 381 380
f 370 371 382
f 370 382 381
f 371 349 382
f 337 372 383
f 372 373 384
f 372 384 383
f 373 374 385
f 373 385 384
f 374 375 386
f 374 386 385
f 375 376 387
f 375 387 386
f 376 377 388
f 376 388 387
f 377 378 389
f 377 389 388
f 378 379 390
f 378 390 389
f 379 380 391
f 379 391 390
f 380 381 392
f 380 392 391
f 381 382 393
f 381 393 392
f 382 349 393
f 337 383 394
f 383 384 395
f 383 395 394
f 384 385 396
f 384 396 395
f 385 386 397
f 385 397 396
f 386 387 398
f 386 398 397
f 387 388 399
f 387 399 398
f 388 389 400
f 388 400 399
f 389 390 401
f 389 401 400
f 390 391 402
f 390 402 401
f 391 392 403
f 391 403 402
f 392 393 404
f 392 404 403
f 393 349 404
f 337 394 405
f 394 395 406
f 394 406 405
f 395 396 407
f 395 407 406
f 396 397 408
f 396 408 407
f 397 398 409
f 397 409 408
f 398 399 410
f 398 410 409
f 399 400 411
f 399 411 410
f 400 401 412
f 400 412 411
f 401 402 413
f 401 413 412
f 402 403 414
f 402 414 413
f 403 404 415
f 403 415 414
f 404 349 415
f 337 405 416
f 405 406 417
f 405 417 416
f 406 407 418
f 406 418 417
f 407 408 419
f 407 419 418
f 408 409 420
f 408 420 419
f 409 410 421
f 409 421 420
f 410 411 422
f 410 422 421
f 411 412 423
f 411 423 422
f 412 413 424
f 412 424 423
f 413 414 425
f 413 425 424
f 414 415 426
f 414 426 425
f 415 349 426
f 337 416 427
f 416 417 428
f 416 428 427
f 417 418 429
f 417 429 428
f 418 419 430
f 418 430 429
f 419 420 431
f 419 431 430
f 420 421 432
f 420 432 431
f 421 422 433
f 421 433 432
f 422 423 434
f 422 434 433
f 423 424 435
f 423 435 434
f 424 425 436
f 424 436 435
f 425 426 437
f 425 437 436
f 426 349 437
f 337 427 438
f 427 428 439
f 427 439 438
f 428 429 440
f 428 440 439
f 429 430 441
f 429 441 440
f 430 431 442
f 430 442 441
f 431 432 443
f 431 443 442
f 432 433 444
f 432 444 443
f 433 434 445
f 433 445 444
f 434 435 446
f 434 446 445
f 435 436 447
f 435 447 446
f 436 437 448
f 436 448 447
f 437 349 448
f 337 438 338
f 438 439 339
f 438 339 338
f 439 440 340
f 439 340 339
f 440 441 341
f 440 341 340
f 441 442 342
f 441 342 341
f 442 443 343
f 442 343 342
f 443 444 344
f 443 344 343
f 444 445 345
f 444 345 344
f 445 446 346
f 445 346 345
f 446 447 347
f 446 347 346
f 447 448 348
f 447 348 347
f 448 349 348
f 449 450 462
f 450 451 463
f 450 463 462
f 451 452 464
f 451 464 463
f 452 453 465
f 452 465 464
f 453 454 466
f 453 466 465
f 454 455 467
f 454 467 466
f 455 456 468
f 455 468 467
f 456 457 469
f 456 469 468
f 457 458 470
f 457 470 469
f 458 459 471
f 458 471 470
f 459 460 472
f 459 472 471
f 460 461 472
f 449 462 473
f 462 463 474
f 462 474 473
f 463 464 475
f 463 475 474
f 464 465 476
f 464 476 475
f 465 466 477
f 465 477 476
f 466 467 478
f 466 478 477
f 467 468 479
f 467 479 478
f 468 469 480
f 468 480 479
f 469 470 481
f 469 481 480
f 470 471 482
f 470 482 481
f 471 472 483
f 471 483 482
f 472 461 483
f 449 473 484
f 473 474 485
f 473 485 484
f 474 475 486
f 474 486 485
f 475 476 487
f 475 487 486
f 476 477 488
f 476 488 487
f 477 478 489
f 477 489 488
f 478 479 490
f 478 490 489
f 479 480 491
f 479 491 490
f 480 481 492
f 480 492 491
f 481 482 493
f 481 493 492
f 482 483 494
f 482 494 493
f 483 461 494
f 449 484 495
f 484 485 496
f 484 496 495
f 485 486 497
f 485 497 496
f 486 487 498
f 486 498 497
f 487 488 499
f 487 499 498
f 488 489 500
f 488 500 499
f 489 490 501
f 489 501 500
f 490 491 502
f 490 502 501
f 491 492 503
f 491 503 502
f 492 493 504
f 492 504 503
f 493 494 505
f 493 505 504
f 494 461 505
f 449 495 506
f 495 496 507
f 495 507 506
f 496 497 508
f 496 508 507
f 497 498 509
f 497 509 508
f 498 499 510
f 498 510 509
f 499 500 511
f 499 511 510
f 500 501 512
f 500 512 511
f 501 502 513
f 501 513 512
f 502 503 514
f 502 514 513
f 503 504 515
f 503 515 514
f 504 505 516
f 504 516 515
f 505 461 516
f 449 506 517
f 506 507 518
f 506 518 517
f 507 508 519
f 507 519 518
f 508 509 520
f 508 520 519
f 509 510 521
f 509 521 520
f 510 511 522
f 510 522 521
f 511 512 523
f 511 523 522
f 512 513 524
f 512 524 523
f 513 514 525
f 513 525 524
f 514 515 526
f 514 526 525
f 515 516 527
f 515 527 526
f 516 461 527
f 449 517 528
f 517 518 529
f 517 529 528
f 518 519 530
f 518 530 529
f 519 520 531
f 519 531 530
f 520 521 532
f 520 532 531
f 521 522 533
f 521 533 532
f 522 523 534
f 522 534 533
f 523 524 535
f 523 535 534
f 524 525 536
f 524 536 535
f 525 526 537
f 525 537 536
f 526 527 538
f 526 538 537
f 527 461 538
f 449 528 539
f 528 529 540
f 528 540 539
f 529 530 541
f 529 541 540
f 530 531 542
f 530 542 541
f 531 532 543
f 531 543 542
f 532 533 544
f 532 544 543
f 533 534 545
f 533 545 544
f 534 535 546
f 534 546 545
f 535 536 547
f 535 547 546
f 536 537 548
f 536 548 547
f 537 538 549
f 537 549 548
f 538 461 549
f 449 539 550
f 539 540 551
f 539 551 550
f 540 541 552
f 540 552 551
f 541 542 553
f 541 553 552
f 542 543 554
f 542 554 553
f 543 544 555
f 543 555 554
f 544 545 556
f 544 556 555
f 545 546 557
f 545 557 556
f 546 547 558
f 546 558 557
f 547 548 559
f 547 559 558
f 548 549 560
f 548 560 559
f 549 461 560
f 449 550 450
f 550 551 451
f 550 451 450
f 551 552 452
f 551 452 451
f 552 553 453
f 552 453 452
f 553 554 454
f 553 454 453
f 554 555 455
f 554 455 454
f 555 556 456
f 555 456 455
f 556 557 457
f 556 457 456
f 557 558 458
f 557 458 457
f 558 559 459
f 558 459 458
f 559 560 460
f 559 460 459
f 560 461 460
f 561 563 562
f 561 564 563
f 561 565 564
f 561 566 565
f 561 567 566
f 561 562 567
f 562 569 568
f 562 563 569
f 563 570 569
f 563 564 570
f 564 571 570
f 564 565 571
f 565 572 571
f 565 573 572
f 565 566 573
f 566 574 573
f 566 567 574
f 567 568 574
f 567 562 568
f 568 576 575
f 568 569 576
f 569 577 576
f 569 578 577
f 569 570 578
f 570 579 578
f 570 580 579
f 570 581 580
f 570 571 581
f 571 582 581
f 571 572 582
f 572 583 582
f 572 573 583
f 573 584 583
f 573 585 584
f 573 574 585
f 574 575 585
f 574 568 575
f 575 587 586
f 575 576 587
f 576 577 587
f 577 588 587
f 577 578 588
f 578 589 588
f 578 579 589
f 579 580 589
f 580 590 589
f 580 581 590
f 581 591 590
f 581 582 591
f 582 592 591
f 582 583 592
f 583 593 592
f 583 594 593
f 583 584 594
f 584 595 594
f 584 596 595
f 584 597 596
f 584 585 597
f 585 586 597
f 585 575 586
f 586 587 598
f 587 599 598
f 587 588 599
f 588 600 599
f 588 589 600
f 589 601 600
f 589 590 601
f 590 602 601
f 590 591 602
f 591 603 602
f 591 592 603
f 592 604 603
f 592 593 604
f 593 605 604
f 593 594 605
f 594 606 605
f 594 595 606
f 595 607 606
f 595 608 607
f 595 609 608
f 595 596 609
f 596 610 609
f 596 597 610
f 597 611 610
f 597 586 611
f 586 598 611
f 598 599 612
f 599 613 612
f 599 600 613
f 600 614 613
f 600 601 614
f 601 602 614
f 602 615 614
f 602 603 615
f 603 616 615
f 603 604 616
f 604 605 616
f 605 606 616
f 606 617 616
f 606 607 617
f 607 608 617
f 608 609 617
f 609 618 617
f 609 610 618
f 610 611 618
f 611 619 618
f 611 598 619
f 598 612 619
f 612 613 620
f 613 614 620
f 614 615 620
f 615 616 620
f 616 617 620
f 617 618 620
f 618 619 620
f 619 612 620
f 622 623 621
f 623 624 621
f 624 625 621
f 625 626 621
f 626 627 621
f 627 628 621
f 628 629 621
f 629 630 621
f 630 631 621
f 631 622 621
f 632 633 622
f 633 623 622
f 633 634 623
f 634 624 623
f 634 635 624
f 635 625 624
f 635 636 625
f 636 626 625
f 636 627 626
f 636 637 627
f 637 628 627
f 637 638 628
f 638 639 628
f 639 629 628
f 639 640 629
f 640 630 629
f 640 641 630
f 641 642 630
f 642 631 630
f 642 632 631
f 632 622 631
f 643 633 632
f 643 644 633
f 644 634 633
f 644 645 634
f 645 635 634
f 645 646 635
f 646 636 635
f 646 647 636
f 647 648 636
f 648 637 636
f 648 649 637
f 649 638 637
f 649 650 638
f 650 639 638
f 650 651 639
f 651 640 639
f 651 652 640
f 652 641 640
f 652 653 641
f 653 642 641
f 653 643 642
f 643 632 642
f 654 655 643
f 655 644 643
f 655 656 644
f 656 645 644
f 656 657 645
f 657 646 645
f 657 647 646
f 657 658 647
f 658 648 647
f 658 659 648
f 659 649 648
f 659 650 649
f 659 660 650
f 660 651 650
f 660 652 651
f 660 661 652
f 661 653 652
f 661 654 653
f 654 643 653
f 662 655 654
f 662 656 655
f 662 657 656
f 662 658 657
f 662 659 658
f 662 660 659
f 662 661 660
f 662 654 661
f 664 665 663
f 665 666 663
f 666 667 663
f 667 668 663
f 668 669 663
f 669 670 663
f 670 671 663
f 671 672 663
f 672 673 663
f 673 674 663
f 674 675 663
f 675 664 663
f 676 665 664
f 676 677 665
f 677 666 665
f 677 678 666
f 678 679 666
f 679 667 666
f 679 680 667
f 680 668 667
f 680 681 668
f 681 669 668
f 681 682 669
f 682 683 669
f 683 670 669
f 683 684 670
f 684 671 670
f 684 685 671
f 685 672 671
f 685 686 672
f 686 673 672
f 686 687 673
f 687 674 673
f 687 688 674
f 688 675 674
f 688 664 675
f 688 676 664
f 689 690 676
f 690 677 676
f 690 691 677
f 691 678 677
f 691 692 678
f 692 679 678
f 692 680 679
f 692 693 680
f 693 681 680
f 693 694 681
f 694 682 681
f 694 695 682
f 695 683 682
f 695 696 683
f 696 684 683
f 696 697 684
f 697 685 684
f 697 698 685
f 698 686 685
f 698 687 686
f 698 699 687
f 699 688 687
f 699 689 688
f 689 676 688
f 700 690 689
f 700 701 690
f 701 691 690
f 701 692 691
f 701 702 692
f 702 693 692
f 702 703 693
f 703 694 693
f 703 695 694
f 703 704 695
f 704 696 695
f 704 705 696
f 705 697 696
f 705 706 697
f 706 698 697
f 706 699 698
f 706 707 699
f 707 700 699
f 700 689 699
f 708 701 700
f 708 702 701
f 708 703 702
f 708 704 703
f 708 705 704
f 708 706 705
f 708 707 706
f 708 700 707
f 711 712 709
f 712 713 709
f 713 710 709
f 713 714 710
f 714 715 710
f 715 716 710
f 716 709 710
f 716 711 709
f 717 712 711
f 717 718 712
f 718 713 712
f 718 719 713
f 719 720 713
f 720 721 713
f 721 714 713
f 721 722 714
f 722 723 714
f 723 724 714
f 724 715 714
f 724 725 715
f 725 726 715
f 726 716 715
f 726 727 716
f 727 711 716
f 727 728 711
f 728 717 711
f 729 730 717
f 730 731 717
f 731 718 717
f 731 732 718
f 732 719 718
f 732 733 719
f 733 720 719
f 733 734 720
f 734 721 720
f 734 722 721
f 734 735 722
f 735 723 722
f 735 724 723
f 735 736 724
f 736 725 724
f 736 737 725
f 737 738 725
f 738 726 725
f 738 739 726
f 739 727 726
f 739 740 727
f 740 741 727
f 741 728 727
f 741 729 728
f 729 717 728
f 742 730 729
f 742 743 730
f 743 731 730
f 743 744 731
f 744 732 731
f 744 745 732
f 745 733 732
f 745 746 733
f 746 734 733
f 746 747 734
f 747 735 734
f 747 748 735
f 748 749 735
f 749 736 735
f 749 750 736
f 750 737 736
f 750 751 737
f 751 738 737
f 751 752 738
f 752 739 738
f 752 753 739
f 753 740 739
f 753 754 740
f 754 741 740
f 754 755 741
f 755 729 741
f 755 742 729
f 756 757 742
f 757 743 742
f 757 744 743
f 757 758 744
f 758 745 744
f 758 759 745
f 759 746 745
f 759 760 746
f 760 747 746
f 760 761 747
f 761 748 747
f 761 762 748
f 762 749 748
f 762 763 749
f 763 750 749
f 763 751 750
f 763 764 751
f 764 752 751
f 764 765 752
f 765 753 752
f 765 766 753
f 766 754 753
f 766 767 754
f 767 755 754
f 767 768 755
f 768 756 755
f 756 742 755
f 769 757 756
f 769 758 757
f 769 759 758
f 769 760 759
f 769 761 760
f 769 762 761
f 769 763 762
f 769 764 763
f 769 765 764
f 769 766 765
f 769 767 766
f 769 768 767
f 769 756 768
f 771 772 770
f 772 773 770
f 773 774 770
f 774 775 770
f 775 776 770
f 776 777 770
f 777 778 770
f 778 771 770
f 779 780 771
f 780 772 771
f 780 781 772
f 781 782 772
f 782 773 772
f 782 783 773
f 783 784 773
f 784 785 773
f 785 774 773
f 785 786 774
f 786 775 774
f 786 787 775
f 787 776 775
f 787 788 776
f 788 777 776
f 788 789 777
f 789 778 777
f 789 790 778
f 790 771 778
f 790 779 771
f 791 792 779
f 792 780 779
f 792 793 780
f 793 781 780
f 793 794 781
f 794 795 781
f 795 782 781
f 795 783 782
f 795 796 783
f 796 797 783
f 797 784 783
f 797 785 784
f 797 798 785
f 798 786 785
f 798 799 786
f 799 800 786
f 800 787 786
f 800 801 787
f 801 788 787
f 801 802 788
f 802 789 788
f 802 803 789
f 803 790 789
f 803 804 790
f 804 791 790
f 791 779 790
f 805 792 791
f 805 806 792
f 806 793 792
f 806 807 793
f 807 794 793
f 807 808 794
f 808 795 794
f 808 809 795
f 809 796 795
f 809 797 796
f 809 810 797
f 810 798 797
f 810 811 798
f 811 799 798
f 811 812 799
f 812 800 799
f 812 801 800
f 812 813 801
f 813 802 801
f 813 814 802
f 814 803 802
f 814 815 803
f 815 804 803
f 815 805 804
f 805 791 804
f 816 817 805
f 817 806 805
f 817 818 806
f 818 807 806
f 818 808 807
f 818 819 808
f 819 809 808
f 819 820 809
f 820 810 809
f 820 821 810
f 821 822 810
f 822 811 810
f 822 812 811
f 822 823 812
f 823 813 812
f 823 814 813
f 823 824 814
f 824 815 814
f 824 825 815
f 825 816 815
f 816 805 815
f 826 817 816
f 826 827 817
f 827 818 817
f 827 828 818
f 828 819 818
f 828 820 819
f 828 829 820
f 829 821 820
f 829 822 821
f 829 830 822
f 830 823 822
f 830 824 823
f 830 825 824
f 830 831 825
f 831 816 825
f 831 826 816
f 832 827 826
f 832 828 827
f 832 829 828
f 832 830 829
f 832 831 830
f 832 826 831
f 833 835 834
f 833 836 835
f 833 837 836
f 833 838 837
f 833 839 838
f 833 840 839
f 833 834 840
f 834 842 841
f 834 835 842
f 835 843 842
f 835 844 843
f 835 836 844
f 836 845 844
f 836 846 845
f 836 837 846
f 837 847 846
f 837 848 847
f 837 838 848
f 838 849 848
f 838 850 849
f 838 839 850
f 839 851 850
f 839 852 851
f 839 840 852
f 840 853 852
f 840 834 853
f 834 841 853
f 841 842 854
f 842 855 854
f 842 856 855
f 842 843 856
f 843 857 856
f 843 858 857
f 843 844 858
f 844 859 858
f 844 845 859
f 845 860 859
f 845 861 860
f 845 846 861
f 846 862 861
f 846 847 862
f 847 863 862
f 847 848 863
f 848 864 863
f 848 849 864
f 849 865 864
f 849 866 865
f 849 850 866
f 850 867 866
f 850 868 867
f 850 851 868
f 851 869 868
f 851 870 869
f 851 852 870
f 852 871 870
f 852 872 871
f 852 853 872
f 853 854 872
f 853 841 854
f 854 855 873
f 855 874 873
f 855 856 874
f 856 857 874
f 857 875 874
f 857 858 875
f 858 876 875
f 858 859 876
f 859 860 876
f 860 877 876
f 860 861 877
f 861 878 877
f 861 862 878
f 862 879 878
f 862 880 879
f 862 863 880
f 863 881 880
f 863 864 881
f 864 882 881
f 864 865 882
f 865 866 882
f 866 883 882
f 866 867 883
f 867 868 883
f 868 884 883
f 868 885 884
f 868 886 885
f 868 869 886
f 869 887 886
f 869 870 887
f 870 888 887
f 870 871 888
f 871 872 888
f 872 889 888
f 872 854 889
f 854 873 889
f 873 891 890
f 873 874 891
f 874 892 891
f 874 875 892
f 875 893 892
f 875 894 893
f 875 876 894
f 876 895 894
f 876 877 895
f 877 896 895
f 877 878 896
f 878 879 896
f 879 897 896
f 879 898 897
f 879 880 898
f 880 881 898
f 881 899 898
f 881 882 899
f 882 883 899
f 883 900 899
f 883 901 900
f 883 884 901
f 884 902 901
f 884 903 902
f 884 885 903
f 885 886 903
f 886 904 903
f 886 887 904
f 887 905 904
f 887 888 905
f 888 889 905
f 889 906 905
f 889 873 906
f 873 890 906
f 890 891 907
f 891 908 907
f 891 909 908
f 891 892 909
f 892 910 909
f 892 893 910
f 893 911 910
f 893 894 911
f 894 912 911
f 894 895 912
f 895 913 912
f 895 914 913
f 895 896 914
f 896 915 914
f 896 897 915
f 897 916 915
f 897 898 916
f 898 917 916
f 898 899 917
f 899 918 917
f 899 919 918
f 899 900 919
f 900 920 919
f 900 901 920
f 901 921 920
f 901 902 921
f 902 903 921
f 903 904 921
f 904 922 921
f 904 923 922
f 904 905 923
f 905 924 923
f 905 906 924
f 906 890 924
f 890 907 924
f 907 908 925
f 908 926 925
f 908 909 926
f 909 927 926
f 909 910 927
f 910 928 927
f 910 911 928
f 911 929 928
f 911 930 929
f 911 912 930
f 912 931 930
f 912 932 931
f 912 913 932
f 913 933 932
f 913 934 933
f 913 914 934
f 914 915 934
f 915 916 934
f 916 935 934
f 916 917 935
f 917 936 935
f 917 937 936
f 917 918 937
f 918 938 937
f 918 919 938
f 919 939 938
f 919 920 939
f 920 940 939
f 920 921 940
f 921 941 940
f 921 922 941
f 922 942 941
f 922 923 942
f 923 943 942
f 923 924 943
f 924 944 943
f 924 907 944
f 907 925 944
f 925 946 945
f 925 947 946
f 925 948 947
f 925 926 948
f 926 927 948
f 927 949 948
f 927 950 949
f 927 928 950
f 928 951 950
f 928 929 951
f 929 952 951
f 929 953 952
f 929 930 953
f 930 931 953
f 931 954 953
f 931 932 954
f 932 955 954
f 932 956 955
f 932 933 956
f 933 957 956
f 933 934 957
f 934 958 957
f 934 935 958
f 935 936 958
f 936 937 958
f 937 959 958
f 937 960 959
f 937 938 960
f 938 961 960
f 938 939 961
f 939 962 961
f 939 940 962
f 940 963 962
f 940 941 963
f 941 964 963
f 941 965 964
f 941 942 965
f 942 966 965
f 942 943 966
f 943 945 966
f 943 944 945
f 944 925 945
f 945 968 967
f 945 969 968
f 945 946 969
f 946 947 969
f 947 948 969
f 948 970 969
f 948 971 970
f 948 949 971
f 949 950 971
f 950 972 971
f 950 951 972
f 951 952 972
f 952 953 972
f 953 973 972
f 953 954 973
f 954 974 973
f 954 975 974
f 954 955 975
f 955 956 975
f 956 976 975
f 956 957 976
f 957 977 976
f 957 958 977
f 958 959 977
f 959 960 977
f 960 978 977
f 960 961 978
f 961 979 978
f 961 962 979
f 962 980 979
f 962 981 980
f 962 963 981
f 963 982 981
f 963 964 982
f 964 965 982
f 965 966 982
f 966 983 982
f 966 984 983
f 966 945 984
f 945 967 984
f 967 968 985
f 968 986 985
f 968 969 986
f 969 970 986
f 970 987 986
f 970 971 987
f 971 988 987
f 971 972 988
f 972 973 988
f 973 974 988
f 974 989 988
f 974 975 989
f 975 976 989
f 976 990 989
f 976 977 990
f 977 991 990
f 977 992 991
f 977 993 992
f 977 994 993
f 977 978 994
f 978 995 994
f 978 979 995
f 979 980 995
f 980 981 995
f 981 982 995
f 982 996 995
f 982 997 996
f 982 983 997
f 983 985 997
f 983 984 985
f 984 967 985
f 985 999 998
f 985 986 999
f 986 987 999
f 987 988 999
f 988 1000 999
f 988 989 1000
f 989 990 1000
f 990 991 1000
f 991 992 1000
f 992 993 1000
f 993 994 1000
f 994 998 1000
f 994 995 998
f 995 996 998
f 996 997 998
f 997 985 998
