v -0.0352296199 -0.0519720296 -0.0712250295
v -0.0389836019 -0.0506390382 -0.0639815458
v -0.0226691068 -0.0632832984 -0.0627219413
v -0.038987639 -0.0588403016 -0.0546536321
v -0.0319673713 -0.0740274566 -0.0478723622
v -0.0492596147 -0.0644622047 -0.0882799163
v -0.0582630613 -0.0600957936 -0.0761300931
v -0.04948893 -0.0567560244 -0.0794421738
v -0.0490399898 -0.050848742 -0.0734000598
v -0.0585445858 -0.0735816033 -0.0902655823
v -0.0548692559 -0.0540335125 -0.0597825713
v -0.0592132084 -0.0600702651 -0.0553391482
v -0.0630233857 -0.0589196249 -0.0614714191
v -0.0529277472 -0.059395565 -0.052625997
v -0.0648499117 -0.0664042441 -0.068513368
v -0.0679498708 -0.0818621934 -0.0659855414
v -0.0611846004 -0.054924302 -0.0662355297
v -0.0541415005 -0.0516237392 -0.0672178569
v -0.0483879723 -0.0508095389 -0.0641109321
v -0.0465211213 -0.0517732661 -0.0586322291
v -0.0683125248 -0.0842491758 -0.0772396342
v -0.0340054288 -0.0877421199 -0.0468625199
v -0.0480622048 -0.0812494874 -0.0451962661
v -0.0452994791 -0.063286036 -0.0499507097
v -0.0470402713 -0.0559664423 -0.0543419487
v -0.0566062604 -0.0709083314 -0.0499694991
v -0.0656124944 -0.0914137707 -0.0634758558
v -0.0379978705 -0.121204551 0.021350531
v -0.0338945127 -0.102655743 -0.00649894027
v -0.0700714438 -0.112678702 0.0296614828
v -0.0633058469 -0.0909660969 -0.0186879903
v -0.0164084888 -0.111002892 -0.00171351562
v -0.0208207499 -0.116791641 0.022014724
v -0.0444914175 -0.120940135 0.0374849516
v -0.0708017335 -0.120886347 0.0368516232
v -0.0800321029 -0.108626847 0.053415653
v -0.103390632 -0.0943569199 0.0525319363
v -0.089187098 -0.0727865494 0.00235611713
v -0.104591427 -0.0918258825 0.0590121802
v -0.124909654 -0.069608161 0.0524059569
v -0.134880742 -0.0671072104 0.035446822
v -0.124445159 -0.0654104301 0.0303179951
v -0.138859172 -0.0622347793 -0.000138932269
v -0.0951560918 -0.0668227414 -0.0342731057
v -0.148501213 -0.052762522 -0.0072421697
v -0.130636626 -0.0581564851 -0.0259589264
v -0.135535169 -0.0517978844 -0.0235152007
v -0.146474834 -0.0510484192 -0.0164554489
v -0.145169125 -0.0559910572 0.0222342985
v -0.127965256 -0.0509444775 -0.0348217216
v -0.109485121 -0.057637694 -0.0429454028
v -0.120036246 -0.0520987622 -0.0425990742
v -0.0493019171 -0.0566466109 -0.0373896835
v -0.0877231184 -0.0554357972 -0.0126447988
v -0.0365514888 -0.0867328039 -0.0166662266
v -0.0359848487 -0.0718766169 -0.0366308937
v -0.0869888403 -0.0639324699 -0.0367882047
v -0.103914893 -0.0502469831 -0.00815933025
v -0.103718863 -0.0462908667 -0.0226810046
v -0.127544655 -0.0509271551 -0.0357150328
v -0.120369125 -0.0539313982 -0.0194382315
v -0.109377741 -0.0776763097 0.0585228675
v -0.0742859383 -0.0898774576 0.0143448587
v -0.100554722 -0.0604276718 0.014259974
v -0.0304669827 -0.0974341043 -0.00433303411
v -0.0151349037 -0.108242084 0.0132480846
v -0.0311905516 -0.111944732 0.0274999391
v -0.0209416956 -0.116476168 0.0220276405
v -0.0560240106 -0.109883249 0.0400476638
v -0.111078434 -0.0542979248 0.030991631
v -0.117901176 -0.0646864934 0.0513757015
v -0.129744152 -0.0537089267 0.0358249723
v -0.122174368 -0.0476430011 -1.49687724e-05
v -0.139917039 -0.0471078013 -0.0241346839
v -0.145902732 -0.0460784252 -0.0171780136
v -0.135781248 -0.0400088517 -0.0126770038
v -0.14881914 -0.0471114458 -0.00214405875
v -0.135483683 -0.0517687079 -0.023747545
v -0.133778078 -0.061656725 0.041080627
v -0.136481934 -0.0445421121 0.00659930344
v -0.0495334051 -0.0367666419 -0.110496557
v -0.0541501168 -0.0329700824 -0.122152097
v -0.0271988235 -0.0173379896 -0.0917060763
v -0.0222298152 -0.00219460143 -0.0654500885
v -0.00613522133 -0.00439011484 -0.0557408061
v -0.00200963633 -0.00202501443 -0.0611954609
v -0.0187925737 0.000320027051 -0.0893185933
v -0.0248934269 -0.0016402526 -0.0770868556
v -0.0276213902 -0.0175449591 -0.0863900301
v -0.0327698225 -0.0339702786 -0.0624539802
v -0.0243777553 -0.023003654 -0.112307216
v -0.0385320295 -0.0325287907 -0.123329472
v -0.0685841674 -0.063344389 -0.119098703
v -0.0838803133 -0.0549416244 -0.122403162
v -0.0896184971 -0.063024358 -0.103708351
v -0.089071204 -0.0493862838 -0.112221479
v -0.0567138999 -0.0457064268 -0.101866062
v -0.0589002503 -0.0474387692 -0.12801537
v -0.0688466608 -0.0660823925 -0.103942028
v -0.082608933 -0.0617843679 -0.0906334507
v -0.0879674415 -0.0561269095 -0.0972735324
v -0.0934488628 -0.0482867042 -0.0836542803
v -0.0793991661 -0.0616384855 -0.0819981826
v -0.0745586607 -0.0609874934 -0.0489751632
v -0.0644673934 -0.0653502565 -0.0942335928
v -0.0733065313 -0.0688769353 -0.0828075405
v -0.0484852848 -0.045508577 -0.0819628002
v -0.076330156 -0.0766405549 -0.0684108895
v -0.0423227738 -0.0481964405 -0.0577403605
v -0.0278543966 -0.0471871246 -0.069969005
v -0.029182124 -0.0403498496 -0.0634604566
v -0.0295706401 -0.0809941949 -0.0415611709
v -0.0518976229 -0.0902640409 -0.0343503675
v -0.0258806346 -0.0882855292 -0.0243808664
v -0.0731950943 -0.0844114636 -0.0491925001
v -0.0547146067 -0.0953470928 -0.0514334234
v -0.00535337698 -0.0153850048 -0.0675942158
v -0.0301717896 -0.0589962106 -0.0435800561
v -0.0212477657 -0.0549744488 -0.0573927528
v -0.0253039679 -0.0546872456 -0.0711009644
v -0.000960823113 -0.0217609279 -0.0570588942
v -0.0249404356 -0.0380549549 -0.0533352527
v -0.0158235105 -0.00513410908 -0.0920742979
v -0.0137233123 -0.0332326673 -0.0608569656
v -0.0494647296 -0.0565162304 -0.0376568731
f 3 2 1
f 5 4 3
f 8 7 6
f 9 7 8
f 6 7 10
f 11 12 13
f 12 11 14
f 12 15 13
f 15 12 16
f 1 2 9
f 17 15 7
f 18 17 7
f 18 7 9
f 19 11 18
f 20 19 2
f 7 21 10
f 15 16 7
f 7 16 21
f 3 22 5
f 23 5 22
f 24 4 5
f 24 5 23
f 25 11 20
f 25 20 4
f 26 23 27
f 26 24 23
f 20 2 4
f 25 4 24
f 14 25 24
f 14 24 26
f 19 9 2
f 19 18 9
f 17 11 13
f 18 11 17
f 16 12 26
f 26 27 16
f 16 27 21
f 20 11 19
f 14 11 25
f 13 15 17
f 30 29 28
f 31 29 30
f 32 28 29
f 33 28 32
f 28 33 34
f 35 28 34
f 35 30 28
f 35 34 36
f 37 38 30
f 35 37 30
f 37 35 36
f 37 36 39
f 41 37 40
f 41 42 37
f 40 37 39
f 42 43 38
f 37 42 38
f 31 30 38
f 44 31 38
f 44 38 43
f 45 46 43
f 47 46 48
f 74 47 48
f 48 46 45
f 49 43 41
f 41 43 42
f 49 45 43
f 50 46 47
f 50 51 46
f 52 51 50
f 51 44 43
f 43 46 51
f 53 54 55
f 55 114 56
f 55 56 53
f 57 54 53
f 59 58 54
f 59 54 51
f 59 51 52
f 60 59 52
f 59 61 58
f 44 54 57
f 51 54 44
f 62 63 64
f 63 54 64
f 114 55 65
f 66 32 65
f 68 66 67
f 32 66 68
f 54 63 55
f 55 63 65
f 65 63 66
f 67 63 69
f 69 63 62
f 68 67 34
f 34 67 69
f 36 34 69
f 36 69 62
f 36 62 39
f 64 70 62
f 71 70 72
f 73 70 64
f 58 73 64
f 58 61 73
f 74 75 76
f 77 75 45
f 75 77 76
f 73 61 76
f 76 61 78
f 78 74 76
f 76 74 78
f 61 60 78
f 79 49 41
f 79 72 49
f 40 71 79
f 40 79 41
f 39 62 40
f 71 40 62
f 77 45 49
f 72 70 80
f 73 80 70
f 80 77 49
f 76 77 80
f 60 61 59
f 76 80 73
f 58 64 54
f 62 70 71
f 79 71 72
f 67 66 63
f 83 82 81
f 84 85 86
f 87 84 86
f 84 87 88
f 87 89 90
f 88 87 90
f 90 84 88
f 82 91 92
f 95 94 93
f 96 94 95
f 82 94 96
f 82 96 81
f 96 97 81
f 94 82 98
f 94 98 93
f 100 95 99
f 100 101 95
f 100 103 102
f 104 102 57
f 100 99 103
f 103 99 105
f 106 103 105
f 107 101 102
f 21 106 10
f 108 106 21
f 104 107 102
f 110 107 109
f 110 109 111
f 111 109 90
f 114 113 112
f 65 113 114
f 31 113 65
f 115 113 31
f 113 116 112
f 115 31 57
f 31 44 57
f 108 21 27
f 115 108 27
f 115 27 116
f 108 115 57
f 108 57 103
f 10 105 6
f 97 96 101
f 107 97 101
f 86 117 87
f 119 118 112
f 90 122 121
f 90 121 85
f 90 85 84
f 123 91 87
f 82 87 91
f 98 97 93
f 81 97 98
f 81 98 92
f 92 91 81
f 121 124 117
f 117 124 119
f 119 120 117
f 90 117 111
f 111 117 110
f 110 117 120
f 121 117 86
f 121 86 85
f 93 97 99
f 97 107 6
f 97 6 105
f 99 97 105
f 83 91 123
f 89 83 123
f 83 81 91
f 89 123 117
f 123 87 117
f 109 107 125
f 122 118 119
f 122 119 124
f 122 124 121
f 112 118 56
f 56 118 125
f 109 122 90
f 112 56 114
f 57 125 104
f 125 107 104
f 109 125 122
f 125 118 122
f 90 89 117
f 98 82 92
f 87 82 83
f 95 93 99
f 103 57 102
f 95 101 96
f 106 105 10
f 113 115 116
f 14 26 12
f 3 4 2
f 1 8 6
f 8 1 9
f 22 116 23
f 27 23 116
f 112 116 22
f 3 112 22
f 112 3 119
f 1 120 3
f 3 120 119
f 107 120 6
f 110 120 107
f 102 101 100
f 106 108 103
f 65 32 29
f 31 65 29
f 49 72 80
f 89 87 83
f 45 75 48
f 48 75 74
