v -0.0224445972 0.045421305 -0.125655114
v -0.0261441123 0.0441657261 -0.118369895
v -0.0103114735 0.0574403115 -0.117509895
v -0.0264507398 0.0526351817 -0.109289972
v -0.0199988975 0.0682682188 -0.102973221
v -0.0369352592 0.0568674466 -0.143053992
v -0.0457661189 0.0525325642 -0.130766986
v -0.0368747027 0.0494245586 -0.133990701
v -0.0362042148 0.0437205513 -0.127776248
v -0.0465540378 0.0655718052 -0.145296809
v -0.0421438829 0.0470900955 -0.114251249
v -0.0467082943 0.0530905802 -0.109983152
v -0.0504748499 0.0516169013 -0.116073103
v -0.0404012355 0.0527313427 -0.107260031
v -0.0525810199 0.0588154199 -0.123331901
v -0.0562537696 0.0742156745 -0.121260447
v -0.0484899966 0.0475527428 -0.120718903
v -0.0413291581 0.0444888221 -0.121612615
v -0.0355483474 0.0439821666 -0.118490994
v -0.0337170082 0.0451773629 -0.113046015
v -0.0567085161 0.0762514498 -0.132580016
v -0.02254602 0.081921505 -0.102368745
v -0.0363507217 0.0749626791 -0.100490293
v -0.0329223381 0.056980939 -0.104712399
v -0.0343906557 0.0494741602 -0.108881585
v -0.0445051643 0.0641731945 -0.104941836
v -0.0542729854 0.083918097 -0.119039193
v -0.0277610923 0.117227801 -0.0351752727
v -0.0229782723 0.0980238018 -0.0624666621
v -0.0594923324 0.107765304 -0.0265691302
v -0.051937561 0.0848899695 -0.074261127
v -0.00581379742 0.107154713 -0.0579562879
v -0.0104313325 0.11347898 -0.0344044506
v -0.0342353491 0.117202275 -0.0190309565
v -0.0605256004 0.11615047 -0.0196251952
v -0.069287905 0.104054418 -0.00269091965
v -0.0920990291 0.0889050348 -0.00311689773
v -0.0771173375 0.0663942362 -0.0526491797
v -0.093202742 0.0865250774 0.00343743212
v -0.112681418 0.0633797453 -0.00247649131
v -0.122557631 0.0600057113 -0.0193396436
v -0.112067664 0.0585465856 -0.024430503
v -0.126362721 0.0539314747 -0.0547591204
v -0.082871282 0.0591247167 -0.0890763958
v -0.135647461 0.0438996797 -0.0615639189
v -0.118001889 0.0493952673 -0.0804580339
v -0.122659466 0.0429343179 -0.0778193923
v -0.133561467 0.0419886939 -0.0707250126
v -0.132428909 0.0481259791 -0.0322012259
v -0.115066481 0.0420270621 -0.0891062326
v -0.0968509351 0.0491586577 -0.09745147
v -0.107188342 0.0432436334 -0.0969256745
v -0.0366708773 0.0505739947 -0.0919538582
v -0.0750127534 0.048671158 -0.067129599
v -0.025043483 0.0817174206 -0.0721522214
v -0.023930042 0.0663049209 -0.091667098
v -0.0746028217 0.0564668346 -0.0915159895
v -0.090998669 0.0430191267 -0.0624689311
v -0.0906598775 0.0386425387 -0.0768668131
v -0.1146458 0.0419988225 -0.0899992276
v -0.107582158 0.0457512203 -0.0738291181
v -0.0974588994 0.0721988786 0.00337583842
v -0.0628593813 0.0843771863 -0.0411950182
v -0.0880131384 0.0539806566 -0.0403670342
v -0.0193579835 0.0930001352 -0.0601512995
v -0.00443369472 0.104889801 -0.0429210277
v -0.0206117429 0.108414908 -0.0287628794
v -0.0105404409 0.113159748 -0.0343819882
v -0.0453473543 0.105805012 -0.016124297
v -0.0982961331 0.0479642463 -0.0234456428
v -0.105494816 0.0586938465 -0.0033698577
v -0.116925484 0.0468250833 -0.0185705317
v -0.109146 0.0399809473 -0.0542249267
v -0.126863808 0.0380680381 -0.0782929457
v -0.132804882 0.0370241314 -0.071300285
v -0.122462988 0.0314721397 -0.0666351075
v -0.135753139 0.038394946 -0.0562995847
v -0.122607 0.0429001746 -0.078050839
v -0.121251011 0.0547701584 -0.0135478264
v -0.123326126 0.0365479633 -0.0475011471
v -0.0361841658 0.028531847 -0.164436881
v -0.0406598417 0.0242208279 -0.175967837
v -0.0131357319 0.010515858 -0.14510861
v -0.00759813807 -0.00364383016 -0.118421001
v 0.00840649 -0.000562783995 -0.108804067
v 0.0126156291 -0.00293401682 -0.114191813
v -0.00407693011 -0.00673816017 -0.142209018
v -0.0102428161 -0.00464307273 -0.130032361
v -0.0135640871 0.0108651063 -0.139800476
v -0.0193133667 0.0277926439 -0.116356154
v -0.0105339362 0.0156668516 -0.165873076
v -0.0250365158 0.0243262701 -0.177153657
v -0.0562142018 0.0541142991 -0.173798552
v -0.0711877937 0.0450534224 -0.176830061
v -0.0772173086 0.0534698895 -0.158375758
v -0.0761650645 0.0396142733 -0.166480362
v -0.0436899904 0.0374511294 -0.156065877
v -0.0459473442 0.0383217518 -0.182252015
v -0.0565738494 0.0572905865 -0.158729637
v -0.0701624253 0.0528813896 -0.145279694
v -0.0753085415 0.0468332714 -0.151741032
v -0.0804899923 0.0392033659 -0.137886937
v -0.06694681 0.0531121788 -0.136648454
v -0.0620753132 0.0536250691 -0.103627559
v -0.0521673823 0.0570112598 -0.149009928
v -0.0611282385 0.0605450695 -0.137681303
v -0.0354536259 0.0381522146 -0.13617719
v -0.0644345079 0.0686158744 -0.123517605
v -0.0293880858 0.0417874051 -0.112054124
v -0.0148958982 0.0409537182 -0.124267799
v -0.0159660658 0.0342685346 -0.117556953
v -0.017861367 0.0755041068 -0.0968753699
v -0.0405158975 0.0841470886 -0.0899118218
v -0.0144402229 0.0834358933 -0.0799247034
v -0.0615851602 0.0770667034 -0.104543232
v -0.0435254667 0.0886110147 -0.107134466
v 0.00877467199 0.0100958745 -0.120980259
v -0.0176434256 0.0534486489 -0.098238407
v -0.00858003371 0.0493524354 -0.111938017
v -0.0126269195 0.0485065449 -0.125625877
v 0.0129299373 0.0169416383 -0.110645404
v -0.0116387514 0.0324355102 -0.107373997
v -0.00131390369 -0.00126174617 -0.145129877
v -0.000252111589 0.0278122879 -0.114764852
v -0.0368288027 0.0504297494 -0.0922168223
f 1 2 3
f 3 4 5
f 6 7 8
f 8 7 9
f 10 7 6
f 13 12 11
f 14 11 12
f 13 15 12
f 16 12 15
f 9 2 1
f 7 15 17
f 7 17 18
f 9 7 18
f 18 11 19
f 2 19 20
f 10 21 7
f 7 16 15
f 21 16 7
f 5 22 3
f 22 5 23
f 5 4 24
f 23 5 24
f 20 11 25
f 4 20 25
f 27 23 26
f 23 24 26
f 4 2 20
f 24 4 25
f 24 25 14
f 26 24 14
f 2 9 19
f 9 18 19
f 13 11 17
f 17 11 18
f 26 12 16
f 16 27 26
f 21 27 16
f 19 11 20
f 25 11 14
f 17 15 13
f 28 29 30
f 30 29 31
f 29 28 32
f 32 28 33
f 34 33 28
f 34 28 35
f 28 30 35
f 36 34 35
f 30 38 37
f 30 37 35
f 36 35 37
f 39 36 37
f 40 37 41
f 37 42 41
f 39 37 40
f 38 43 42
f 38 42 37
f 38 30 31
f 38 31 44
f 43 38 44
f 43 46 45
f 48 46 47
f 48 47 74
f 45 46 48
f 41 43 49
f 42 43 41
f 43 45 49
f 47 46 50
f 46 51 50
f 50 51 52
f 43 44 51
f 51 46 43
f 55 54 53
f 56 114 55
f 53 56 55
f 53 54 57
f 54 58 59
f 51 54 59
f 52 51 59
f 52 59 60
f 58 61 59
f 57 54 44
f 44 54 51
f 64 63 62
f 64 54 63
f 65 55 114
f 65 32 66
f 67 66 68
f 68 66 32
f 55 63 54
f 65 63 55
f 66 63 65
f 69 63 67
f 62 63 69
f 34 67 68
f 69 67 34
f 69 34 36
f 62 69 36
f 39 62 36
f 62 70 64
f 72 70 71
f 64 70 73
f 64 73 58
f 73 61 58
f 76 75 74
f 45 75 77
f 76 77 75
f 76 61 73
f 78 61 76
f 76 74 78
f 78 74 76
f 78 60 61
f 41 49 79
f 49 72 79
f 79 71 40
f 41 79 40
f 40 62 39
f 62 40 71
f 49 45 77
f 80 70 72
f 70 80 73
f 49 77 80
f 80 77 76
f 59 61 60
f 73 80 76
f 54 64 58
f 71 70 62
f 72 71 79
f 63 66 67
f 81 82 83
f 86 85 84
f 86 84 87
f 88 87 84
f 90 89 87
f 90 87 88
f 88 84 90
f 92 91 82
f 93 94 95
f 95 94 96
f 96 94 82
f 81 96 82
f 81 97 96
f 98 82 94
f 93 98 94
f 99 95 100
f 95 101 100
f 102 103 100
f 57 102 104
f 103 99 100
f 105 99 103
f 105 103 106
f 102 101 107
f 10 106 21
f 21 106 108
f 102 107 104
f 109 107 110
f 111 109 110
f 90 109 111
f 112 113 114
f 114 113 65
f 65 113 31
f 31 113 115
f 112 116 113
f 57 31 115
f 57 44 31
f 27 21 108
f 27 108 115
f 116 27 115
f 57 115 108
f 103 57 108
f 6 105 10
f 101 96 97
f 101 97 107
f 87 117 86
f 112 118 119
f 121 122 90
f 85 121 90
f 84 85 90
f 87 91 123
f 91 87 82
f 93 97 98
f 98 97 81
f 92 98 81
f 81 91 92
f 117 124 121
f 119 124 117
f 117 120 119
f 111 117 90
f 110 117 111
f 120 117 110
f 86 117 121
f 85 86 121
f 99 97 93
f 6 107 97
f 105 6 97
f 105 97 99
f 123 91 83
f 123 83 89
f 91 81 83
f 117 123 89
f 117 87 123
f 125 107 109
f 119 118 122
f 124 119 122
f 121 124 122
f 56 118 112
f 125 118 56
f 90 122 109
f 114 56 112
f 104 125 57
f 104 107 125
f 122 125 109
f 122 118 125
f 117 89 90
f 92 82 98
f 83 82 87
f 99 93 95
f 102 57 103
f 96 101 95
f 10 105 106
f 116 115 113
f 12 26 14
f 2 4 3
f 6 8 1
f 9 1 8
f 23 116 22
f 116 23 27
f 22 116 112
f 22 112 3
f 119 3 112
f 3 120 1
f 119 120 3
f 6 120 107
f 107 120 110
f 100 101 102
f 103 108 106
f 29 32 65
f 29 65 31
f 80 72 49
f 83 87 89
f 48 75 45
f 74 75 48
