v -0.0037523602 0.0281426996 -0.414101948
v -0.0037523602 0.0230770134 -0.420088827
v -0.0037523602 0.0225704453 -0.410950914
v -0.0037523602 0.0187711812 -0.400236041
v -0.0037523602 0.0210507393 -0.383219099
v -0.0037523602 0.0228237294 -0.373766889
v -0.0037523602 0.0197843191 -0.317992741
v -0.0037523602 0.0187711812 -0.254654784
v -0.0037523602 0.0187711812 -0.207703388
v -0.0037523602 0.0202908872 -0.159807331
v -0.0037523602 0.0228237294 -0.12798075
v -0.0037523602 0.0248500035 -0.0936335215
v -0.0037523602 0.0243434354 -0.0810293399
v -0.0037523602 0.0281426996 -0.076618439
v -0.0003283315 0.0234297362 -0.41315635
v 0.0016069482 0.0207664979 -0.404647894
v 0.0011604173 0.0213809478 -0.394092489
v 0.0001181993 0.0228152863 -0.378809122
v -0.0007748624 0.0240441844 -0.357854064
v 0.0007879956 0.0218922057 -0.297510497
v 0.0014587299 0.0209700634 -0.227556188
v 0.0011604173 0.0213809478 -0.180447184
v 0.0004155738 0.022405342 -0.133179647
v 0.0001181993 0.0228152863 -0.110177671
v 0.0010863082 0.0214831997 -0.0912714055
v -0.0004024406 0.0235319882 -0.0794542907
v 0.0025103287 0.0261079824 -0.406224822
v 0.0082917776 0.0242289889 -0.398345795
v 0.0032335962 0.0258725229 -0.387947064
v 0.0020281505 0.0262637061 -0.374397298
v 0.0008245811 0.0266548893 -0.341941267
v 0.0029925072 0.0259513221 -0.277028253
v 0.0041970147 0.0255601389 -0.200456643
v 0.0032335962 0.0258725229 -0.153190042
v 0.0022701778 0.0261858451 -0.106552893
v 0.0037148363 0.0257158609 -0.0923736625
v 0.0087730181 0.0240723269 -0.08890836
v 0.0034746854 0.0257946601 -0.077878298
v 0.0025103287 0.0301774168 -0.406224822
v 0.0082917776 0.0320554738 -0.398345795
v 0.0032335962 0.0304128764 -0.387947064
v 0.0020281505 0.0300207548 -0.374397298
v 0.0008245811 0.0296305099 -0.341941267
v 0.0029925072 0.0303340788 -0.277028253
v 0.0041970147 0.0307252603 -0.200456643
v 0.0032335962 0.0304128764 -0.153190042
v 0.0022701778 0.0300995559 -0.106552893
v 0.0037148363 0.0305695384 -0.0923736625
v 0.0087730181 0.0322130724 -0.08890836
v 0.0034746854 0.0304907408 -0.077878298
v 0.0013846208 0.0352121456 -0.408903044
v 0.0038405404 0.0385930241 -0.399448988
v -0.0002532843 0.0329588533 -0.385269765
v -0.0004774878 0.0326502226 -0.36210737
v -0.0009240187 0.0320357744 -0.298299423
v -0.0008489715 0.0321389647 -0.219835707
v 0.0003414647 0.0337778053 -0.16579421
v 0.0014587299 0.0353143993 -0.12939914
v 0.0033189624 0.0378763223 -0.101038799
v 0.0036172751 0.0382862666 -0.087961825
v 0.0029465406 0.0373641243 -0.0830781318
v -0.0001791752 0.0330601669 -0.0753576504
v -0.0037523602 0.0390339241 -0.411580371
v -0.0037523602 0.0413134823 -0.400551231
v -0.0037523602 0.0327018177 -0.382590565
v -0.0037523602 0.0332083858 -0.349818392
v -0.0037523602 0.0329551035 -0.254654784
v -0.0037523602 0.0309288276 -0.162643175
v -0.0037523602 0.0337149539 -0.131132728
v -0.0037523602 0.038527356 -0.105608238
v -0.0037523602 0.0458726021 -0.0955256479
v -0.0037523602 0.045366034 -0.0835509241
v -0.0037523602 0.0377675021 -0.0772479037
v -0.0037523602 0.0327018177 -0.0728360627
v -0.0075488099 0.033367861 -0.414574761
v -0.0100047304 0.0367496761 -0.404334549
v -0.009111668 0.0355189031 -0.392202243
v -0.0094840901 0.0360320377 -0.372350379
v -0.0077720757 0.0336755551 -0.323192596
v -0.0060600613 0.0313190725 -0.267890311
v -0.0063574361 0.0317280803 -0.220781305
v -0.0079202938 0.033880059 -0.161382373
v -0.0100797772 0.0368519263 -0.124830637
v -0.010526308 0.037466378 -0.10356039
v -0.0111961046 0.0383885203 -0.0797685513
v -0.0066557484 0.0321389647 -0.0704739537
v -0.0056801348 0.0287693441 -0.417568202
v -0.0114606458 0.0306473994 -0.408115069
v -0.0167599166 0.0323687943 -0.40181202
v -0.0174831832 0.0326042573 -0.394879543
v -0.0121829749 0.0308828624 -0.39172943
v -0.0085694526 0.0297083709 -0.373137432
v -0.0068837045 0.0291595891 -0.310430805
v -0.0073658829 0.0293171894 -0.217157457
v -0.0073658829 0.0293171894 -0.154135627
v -0.0092927201 0.0299428939 -0.123568912
v -0.0186876903 0.0329954388 -0.0822901355
v -0.0088114795 0.0297862353 -0.0681099646
v -0.0056801348 0.0275160568 -0.417568202
v -0.0114606458 0.0256379999 -0.408115069
v -0.0167599166 0.0239166049 -0.40181202
v -0.0174831832 0.0236811436 -0.394879543
v -0.0121829749 0.0254025386 -0.39172943
v -0.0085694526 0.0265770284 -0.373137432
v -0.0068837045 0.0271258102 -0.310430805
v -0.0073658829 0.0269682116 -0.217157457
v -0.0073658829 0.0269682116 -0.154135627
v -0.0092927201 0.0263425054 -0.123568912
v -0.0186876903 0.0232899604 -0.0822901355
v -0.0088114795 0.0264991674 -0.0681099646
v -0.0058367959 0.0252740208 -0.418828989
v -0.0077720757 0.0226098459 -0.409533453
v -0.010526308 0.018819023 -0.401024045
v -0.0100797772 0.0194334729 -0.389050257
v -0.0079202938 0.022405342 -0.38274816
v -0.0076979663 0.0227120978 -0.345566037
v -0.007473763 0.0230197902 -0.28254327
v -0.0076229194 0.0228152863 -0.21243043
v -0.0071763886 0.0234297362 -0.156970535
v -0.0070272323 0.0236351784 -0.125775299
v -0.0093358721 0.0204588055 -0.087961825
v -0.006432483 0.0244541305 -0.074569654
f 15 2 1
f 15 16 3
f 15 3 2
f 16 17 4
f 16 4 3
f 17 18 5
f 17 5 4
f 18 19 6
f 18 6 5
f 19 20 7
f 19 7 6
f 20 21 8
f 20 8 7
f 21 22 9
f 21 9 8
f 22 23 10
f 22 10 9
f 23 24 11
f 23 11 10
f 24 25 12
f 24 12 11
f 25 26 13
f 25 13 12
f 26 14 13
f 27 15 1
f 27 28 16
f 27 16 15
f 28 29 17
f 28 17 16
f 29 30 18
f 29 18 17
f 30 31 19
f 30 19 18
f 31 32 20
f 31 20 19
f 32 33 21
f 32 21 20
f 33 34 22
f 33 22 21
f 34 35 23
f 34 23 22
f 35 36 24
f 35 24 23
f 36 37 25
f 36 25 24
f 37 38 26
f 37 26 25
f 38 14 26
f 39 27 1
f 39 40 28
f 39 28 27
f 40 41 29
f 40 29 28
f 41 42 30
f 41 30 29
f 42 43 31
f 42 31 30
f 43 44 32
f 43 32 31
f 44 45 33
f 44 33 32
f 45 46 34
f 45 34 33
f 46 47 35
f 46 35 34
f 47 48 36
f 47 36 35
f 48 49 37
f 48 37 36
f 49 50 38
f 49 38 37
f 50 14 38
f 51 39 1
f 51 52 40
f 51 40 39
f 52 53 41
f 52 41 40
f 53 54 42
f 53 42 41
f 54 55 43
f 54 43 42
f 55 56 44
f 55 44 43
f 56 57 45
f 56 45 44
f 57 58 46
f 57 46 45
f 58 59 47
f 58 47 46
f 59 60 48
f 59 48 47
f 60 61 49
f 60 49 48
f 61 62 50
f 61 50 49
f 62 14 50
f 63 51 1
f 63 64 52
f 63 52 51
f 64 65 53
f 64 53 52
f 65 66 54
f 65 54 53
f 66 67 55
f 66 55 54
f 67 68 56
f 67 56 55
f 68 69 57
f 68 57 56
f 69 70 58
f 69 58 57
f 70 71 59
f 70 59 58
f 71 72 60
f 71 60 59
f 72 73 61
f 72 61 60
f 73 74 62
f 73 62 61
f 74 14 62
f 75 63 1
f 75 76 64
f 75 64 63
f 76 77 65
f 76 65 64
f 77 78 66
f 77 66 65
f 78 79 67
f 78 67 66
f 79 80 68
f 79 68 67
f 80 81 69
f 80 69 68
f 81 82 70
f 81 70 69
f 82 83 71
f 82 71 70
f 83 84 72
f 83 72 71
f 84 85 73
f 84 73 72
f 85 86 74
f 85 74 73
f 86 14 74
f 87 75 1
f 87 88 76
f 87 76 75
f 88 89 77
f 88 77 76
f 89 90 78
f 89 78 77
f 90 91 79
f 90 79 78
f 91 92 80
f 91 80 79
f 92 93 81
f 92 81 80
f 93 94 82
f 93 82 81
f 94 95 83
f 94 83 82
f 95 96 84
f 95 84 83
f 96 97 85
f 96 85 84
f 97 98 86
f 97 86 85
f 98 14 86
f 99 87 1
f 99 100 88
f 99 88 87
f 100 101 89
f 100 89 88
f 101 102 90
f 101 90 89
f 102 103 91
f 102 91 90
f 103 104 92
f 103 92 91
f 104 105 93
f 104 93 92
f 105 106 94
f 105 94 93
f 106 107 95
f 106 95 94
f 107 108 96
f 107 96 95
f 108 109 97
f 108 97 96
f 109 110 98
f 109 98 97
f 110 14 98
f 111 99 1
f 111 112 100
f 111 100 99
f 112 113 101
f 112 101 100
f 113 114 102
f 113 102 101
f 114 115 103
f 114 103 102
f 115 116 104
f 115 104 103
f 116 117 105
f 116 105 104
f 117 118 106
f 117 106 105
f 118 119 107
f 118 107 106
f 119 120 108
f 119 108 107
f 120 121 109
f 120 109 108
f 121 122 110
f 121 110 109
f 122 14 110
f 2 111 1
f 2 3 112
f 2 112 111
f 3 4 113
f 3 113 112
f 4 5 114
f 4 114 113
f 5 6 115
f 5 115 114
f 6 7 116
f 6 116 115
f 7 8 117
f 7 117 116
f 8 9 118
f 8 118 117
f 9 10 119
f 9 119 118
f 10 11 120
f 10 120 119
f 11 12 121
f 11 121 120
f 12 13 122
f 12 122 121
f 13 14 122
