v -0.116446646 -0.00710528406 -0.0245566281
v -0.112139621 -0.00690932021 -0.0245336309
v -0.110166286 -0.00705297844 -0.0323524345
v -0.105842948 -0.00687893037 -0.03311674
v -0.103164884 -0.00665174004 -0.02957514
v -0.0970965378 -0.00647692766 -0.0329287499
v -0.0810495307 -0.00593636571 -0.0392542706
v -0.0759499311 -0.0057178113 -0.0396797732
v -0.0758842246 -0.00582066988 -0.0432173551
v -0.0865892887 -0.00652290876 -0.0504244837
v -0.0978992608 -0.00733213937 -0.0603147496
v -0.103892048 -0.00783803421 -0.068116357
v -0.113056214 -0.0084303997 -0.0739918824
v -0.119482207 -0.0090989533 -0.0865616873
v -0.125176904 -0.00965266449 -0.0964349281
v -0.127081943 -0.010251608 -0.113555563
v -0.12387666 -0.0102224183 -0.117448322
v -0.122418198 -0.0104029993 -0.125709241
v -0.118404177 -0.0103779117 -0.130967424
v -0.114937425 -0.0103354527 -0.134833924
v -0.114273795 -0.0105357382 -0.142515902
v -0.0983990486 -0.0193162839 -0.0228642342
v -0.0964953734 -0.0206977287 -0.0283586129
v -0.0935142911 -0.0228495387 -0.0360905659
v -0.0924952521 -0.0236202416 -0.0409647508
v -0.0916894064 -0.0242541753 -0.0461902047
v -0.0875534936 -0.027140792 -0.0512292816
v -0.0856156453 -0.0285287578 -0.0556670034
v -0.0867806691 -0.0278226852 -0.0606614905
v -0.0935028062 -0.0233587422 -0.0663648888
v -0.0973318834 -0.020902669 -0.0748852553
v -0.101764627 -0.0180353927 -0.0832785167
v -0.106548229 -0.0149115674 -0.0904639273
v -0.111309044 -0.0118230892 -0.0988959383
v -0.116217576 -0.00859757915 -0.105176707
v -0.116767454 -0.00841923427 -0.116864106
v -0.112965138 -0.0110272395 -0.118657367
v -0.112431478 -0.0114780086 -0.123981493
v -0.113069932 -0.0111079063 -0.127797816
v -0.112436764 -0.0116155226 -0.132519195
v -0.102725639 -0.0445359631 -0.0226291337
v -0.10178932 -0.0470215756 -0.0258894103
v -0.100640101 -0.0498407428 -0.0406826504
v -0.100579105 -0.0497241462 -0.0539522928
v -0.101975228 -0.0457748462 -0.0608934529
v -0.104125786 -0.0398394986 -0.0644125638
v -0.104201582 -0.0394551611 -0.0728402243
v -0.105145794 -0.0367462215 -0.079177949
v -0.107011681 -0.0315794144 -0.0831751537
v -0.106186478 -0.0336759771 -0.0903984406
v -0.107731913 -0.0292775374 -0.0992055276
v -0.108453279 -0.0271321175 -0.107611808
v -0.110178983 -0.022345701 -0.111715007
v -0.112304287 -0.0165039738 -0.114179155
v -0.112048414 -0.0170634561 -0.120446247
v -0.109973915 -0.0227231195 -0.120357472
v -0.110021492 -0.0225400333 -0.122733229
v -0.111966484 -0.0171930654 -0.124902772
v -0.11260493 -0.0153404639 -0.130401538
v -0.126732534 -0.0456964492 -0.0249505639
v -0.127327039 -0.0482563271 -0.0283589128
v -0.127706571 -0.0511505956 -0.0433001701
v -0.127324755 -0.0510174169 -0.0565372981
v -0.1260602 -0.0469393867 -0.0632226731
v -0.124346687 -0.04081688 -0.0663677216
v -0.124018665 -0.0404126184 -0.0747545622
v -0.123111094 -0.0376147715 -0.0809157172
v -0.121592377 -0.0322846557 -0.0845862101
v -0.121975936 -0.0344388684 -0.0919254377
v -0.120540621 -0.0298969833 -0.100444598
v -0.11973281 -0.0276773235 -0.108701605
v -0.118314689 -0.0227382256 -0.112502838
v -0.116653552 -0.016715165 -0.114599435
v -0.116641678 -0.0172862963 -0.120890887
v -0.118190575 -0.0231197595 -0.121151508
v -0.118077897 -0.0229293194 -0.123511595
v -0.116559364 -0.0174158547 -0.125346184
v -0.115908167 -0.0155005168 -0.130720792
v -0.133853347 -0.0214842527 -0.0269373254
v -0.135794141 -0.0233166834 -0.0324019939
v -0.135448388 -0.0234970504 -0.0429415842
v -0.139332581 -0.0271550384 -0.0536059825
v -0.137016585 -0.0255496479 -0.0602550764
v -0.136892076 -0.0257439766 -0.0669390263
v -0.139470694 -0.0281620286 -0.0738299398
v -0.138606526 -0.0276902624 -0.0792101743
v -0.135329764 -0.0251524398 -0.082570062
v -0.137628228 -0.0273956823 -0.0906854883
v -0.135467115 -0.0259129846 -0.097214615
v -0.132964614 -0.0241122008 -0.10293019
v -0.131192979 -0.022870541 -0.107716253
v -0.130121273 -0.022235618 -0.113210991
v -0.127578924 -0.0203744534 -0.118266682
v -0.128467381 -0.0212971068 -0.122667063
v -0.127388356 -0.0206756316 -0.128622716
v -0.121756382 -0.0161044464 -0.129700806
v -0.119858378 -0.0148174622 -0.135790296
v -0.122150695 -0.00743174937 -0.0268150503
v -0.124754449 -0.00777321936 -0.0342886708
v -0.121773931 -0.0078144014 -0.0401718817
v -0.132585638 -0.008560861 -0.0487002595
v -0.131153765 -0.00870051102 -0.0555222355
v -0.137222314 -0.00929931925 -0.0663501447
v -0.144691722 -0.0098108131 -0.0720610244
v -0.145647977 -0.00999813011 -0.0768797631
v -0.142843872 -0.00996916649 -0.0801549732
v -0.14698868 -0.0104243745 -0.0890898265
v -0.146509383 -0.0105469749 -0.0939006137
v -0.14279306 -0.0104731682 -0.0970879927
v -0.14346633 -0.0106854402 -0.103191471
v -0.146948243 -0.0111251694 -0.112589971
v -0.140222195 -0.0109252779 -0.11613955
v -0.136680121 -0.0110066748 -0.124199706
v -0.134284639 -0.0111814374 -0.13368413
v -0.125529825 -0.0107938104 -0.134020244
v -0.122923623 -0.0108791708 -0.140857345
v -0.135066992 0.00547021583 -0.0277601302
v -0.137149717 0.00678881013 -0.0333210707
v -0.136791489 0.00637181812 -0.043852738
v -0.140960032 0.00901856522 -0.0547109935
v -0.138490888 0.00723632686 -0.0612534644
v -0.138368377 0.00704186206 -0.0679394824
v -0.141133305 0.00880098952 -0.0749573233
v -0.140215649 0.00809007054 -0.0803025927
v -0.136715863 0.00566235335 -0.083510323
v -0.139185947 0.00720194744 -0.0917409426
v -0.136882439 0.00553269864 -0.0981745764
v -0.134212082 0.00362898664 -0.103775673
v -0.132323497 0.0022694904 -0.108483143
v -0.131185745 0.00140666083 -0.113933115
v -0.128471811 -0.00051410021 -0.11887364
v -0.129428359 6.09224467e-05 -0.123318826
v -0.128282472 -0.000815312612 -0.129229286
v -0.122260047 -0.00491330478 -0.130042004
v -0.120236776 -0.00638490238 -0.136046937
v -0.130152967 0.0303025419 -0.0272702137
v -0.130965274 0.0325898512 -0.0308267747
v -0.131564976 0.0345399695 -0.0459153933
v -0.131136546 0.0336534389 -0.05912282
v -0.129494664 0.0293153707 -0.0655491979
v -0.127227343 0.0231970996 -0.0683212006
v -0.126843152 0.0223248297 -0.0766707118
v -0.125670051 0.0192576948 -0.0826523689
v -0.123670102 0.0138773832 -0.0859952402
v -0.124225568 0.0155470223 -0.0934512621
v -0.122365869 0.0106521815 -0.101682513
v -0.121339127 0.00802741769 -0.109791779
v -0.119475173 0.00301991319 -0.113288653
v -0.117272964 -0.00294382265 -0.115019413
v -0.117294936 -0.00275013678 -0.121333326
v -0.119361803 0.00289419762 -0.121946598
v -0.119224767 0.0025739114 -0.124291791
v -0.117212573 -0.00287975379 -0.125790655
v -0.116377471 -0.00504496497 -0.131039564
v -0.106146071 0.031463028 -0.0249487831
v -0.105427134 0.0338245943 -0.0283580793
v -0.104496043 0.0358498911 -0.0432986468
v -0.104390523 0.0349467598 -0.0565365937
v -0.105406014 0.0304800135 -0.0632211457
v -0.10700687 0.0241744891 -0.0663652375
v -0.107026067 0.0232814372 -0.0747543065
v -0.107706365 0.0201261597 -0.0809154415
v -0.109087793 0.0145827098 -0.084583343
v -0.108436111 0.0163099137 -0.091924265
v -0.109557194 0.0112725383 -0.100443471
v -0.110060824 0.00857258952 -0.108701594
v -0.11133659 0.00341249795 -0.112502406
v -0.112923712 -0.00273263208 -0.114599139
v -0.112703656 -0.00252743196 -0.120890749
v -0.111145143 0.00329083769 -0.121152562
v -0.11117001 0.00296317162 -0.123512231
v -0.112620536 -0.00265694778 -0.125345626
v -0.113074658 -0.00488490379 -0.1307195
v -0.0995733727 0.00676962978 -0.0236606445
v -0.0977870504 0.00798843653 -0.029232798
v -0.0949897536 0.00993628298 -0.0370926419
v -0.0940308097 0.0105039567 -0.0420068453
v -0.0932713486 0.0108951885 -0.0472629638
v -0.0893980648 0.0138390333 -0.0524796651
v -0.0875812964 0.0151304505 -0.0569999705
v -0.0886629014 0.0140257217 -0.0619394543
v -0.0949427835 0.00863868503 -0.0673413468
v -0.0985125072 0.00534080716 -0.0756855557
v -0.102647033 0.00158734729 -0.0838775555
v -0.107113254 -0.00238032126 -0.09084685
v -0.111554194 -0.0063850308 -0.0990614266
v -0.116136546 -0.010410271 -0.105120874
v -0.116635902 -0.0113353796 -0.116775673
v -0.113077918 -0.00850528329 -0.118733997
v -0.112573066 -0.0083260211 -0.124076565
v -0.113166429 -0.00897929666 -0.127861892
v -0.11256833 -0.00869937791 -0.132607632
f 22 2 1
f 22 23 3
f 22 3 2
f 23 24 4
f 23 4 3
f 24 25 5
f 24 5 4
f 25 26 6
f 25 6 5
f 26 27 7
f 26 7 6
f 27 28 8
f 27 8 7
f 28 29 9
f 28 9 8
f 29 30 10
f 29 10 9
f 30 31 11
f 30 11 10
f 31 32 12
f 31 12 11
f 32 33 13
f 32 13 12
f 33 34 14
f 33 14 13
f 34 35 15
f 34 15 14
f 35 36 16
f 35 16 15
f 36 37 17
f 36 17 16
f 37 38 18
f 37 18 17
f 38 39 19
f 38 19 18
f 39 40 20
f 39 20 19
f 40 21 20
f 41 22 1
f 41 42 23
f 41 23 22
f 42 43 24
f 42 24 23
f 43 44 25
f 43 25 24
f 44 45 26
f 44 26 25
f 45 46 27
f 45 27 26
f 46 47 28
f 46 28 27
f 47 48 29
f 47 29 28
f 48 49 30
f 48 30 29
f 49 50 31
f 49 31 30
f 50 51 32
f 50 32 31
f 51 52 33
f 51 33 32
f 52 53 34
f 52 34 33
f 53 54 35
f 53 35 34
f 54 55 36
f 54 36 35
f 55 56 37
f 55 37 36
f 56 57 38
f 56 38 37
f 57 58 39
f 57 39 38
f 58 59 40
f 58 40 39
f 59 21 40
f 60 41 1
f 60 61 42
f 60 42 41
f 61 62 43
f 61 43 42
f 62 63 44
f 62 44 43
f 63 64 45
f 63 45 44
f 64 65 46
f 64 46 45
f 65 66 47
f 65 47 46
f 66 67 48
f 66 48 47
f 67 68 49
f 67 49 48
f 68 69 50
f 68 50 49
f 69 70 51
f 69 51 50
f 70 71 52
f 70 52 51
f 71 72 53
f 71 53 52
f 72 73 54
f 72 54 53
f 73 74 55
f 73 55 54
f 74 75 56
f 74 56 55
f 75 76 57
f 75 57 56
f 76 77 58
f 76 58 57
f 77 78 59
f 77 59 58
f 78 21 59
f 79 60 1
f 79 80 61
f 79 61 60
f 80 81 62
f 80 62 61
f 81 82 63
f 81 63 62
f 82 83 64
f 82 64 63
f 83 84 65
f 83 65 64
f 84 85 66
f 84 66 65
f 85 86 67
f 85 67 66
f 86 87 68
f 86 68 67
f 87 88 69
f 87 69 68
f 88 89 70
f 88 70 69
f 89 90 71
f 89 71 70
f 90 91 72
f 90 72 71
f 91 92 73
f 91 73 72
f 92 93 74
f 92 74 73
f 93 94 75
f 93 75 74
f 94 95 76
f 94 76 75
f 95 96 77
f 95 77 76
f 96 97 78
f 96 78 77
f 97 21 78
f 98 79 1
f 98 99 80
f 98 80 79
f 99 100 81
f 99 81 80
f 100 101 82
f 100 82 81
f 101 102 83
f 101 83 82
f 102 103 84
f 102 84 83
f 103 104 85
f 103 85 84
f 104 105 86
f 104 86 85
f 105 106 87
f 105 87 86
f 106 107 88
f 106 88 87
f 107 108 89
f 107 89 88
f 108 109 90
f 108 90 89
f 109 110 91
f 109 91 90
f 110 111 92
f 110 92 91
f 111 112 93
f 111 93 92
f 112 113 94
f 112 94 93
f 113 114 95
f 113 95 94
f 114 115 96
f 114 96 95
f 115 116 97
f 115 97 96
f 116 21 97
f 117 98 1
f 117 118 99
f 117 99 98
f 118 119 100
f 118 100 99
f 119 120 101
f 119 101 100
f 120 121 102
f 120 102 101
f 121 122 103
f 121 103 102
f 122 123 104
f 122 104 103
f 123 124 105
f 123 105 104
f 124 125 106
f 124 106 105
f 125 126 107
f 125 107 106
f 126 127 108
f 126 108 107
f 127 128 109
f 127 109 108
f 128 129 110
f 128 110 109
f 129 130 111
f 129 111 110
f 130 131 112
f 130 112 111
f 131 132 113
f 131 113 112
f 132 133 114
f 132 114 113
f 133 134 115
f 133 115 114
f 134 135 116
f 134 116 115
f 135 21 116
f 136 117 1
f 136 137 118
f 136 118 117
f 137 138 119
f 137 119 118
f 138 139 120
f 138 120 119
f 139 140 121
f 139 121 120
f 140 141 122
f 140 122 121
f 141 142 123
f 141 123 122
f 142 143 124
f 142 124 123
f 143 144 125
f 143 125 124
f 144 145 126
f 144 126 125
f 145 146 127
f 145 127 126
f 146 147 128
f 146 128 127
f 147 148 129
f 147 129 128
f 148 149 130
f 148 130 129
f 149 150 131
f 149 131 130
f 150 151 132
f 150 132 131
f 151 152 133
f 151 133 132
f 152 153 134
f 152 134 133
f 153 154 135
f 153 135 134
f 154 21 135
f 155 136 1
f 155 156 137
f 155 137 136
f 156 157 138
f 156 138 137
f 157 158 139
f 157 139 138
f 158 159 140
f 158 140 139
f 159 160 141
f 159 141 140
f 160 161 142
f 160 142 141
f 161 162 143
f 161 143 142
f 162 163 144
f 162 144 143
f 163 164 145
f 163 145 144
f 164 165 146
f 164 146 145
f 165 166 147
f 165 147 146
f 166 167 148
f 166 148 147
f 167 168 149
f 167 149 148
f 168 169 150
f 168 150 149
f 169 170 151
f 169 151 150
f 170 171 152
f 170 152 151
f 171 172 153
f 171 153 152
f 172 173 154
f 172 154 153
f 173 21 154
f 174 155 1
f 174 175 156
f 174 156 155
f 175 176 157
f 175 157 156
f 176 177 158
f 176 158 157
f 177 178 159
f 177 159 158
f 178 179 160
f 178 160 159
f 179 180 161
f 179 161 160
f 180 181 162
f 180 162 161
f 181 182 163
f 181 163 162
f 182 183 164
f 182 164 163
f 183 184 165
f 183 165 164
f 184 185 166
f 184 166 165
f 185 186 167
f 185 167 166
f 186 187 168
f 186 168 167
f 187 188 169
f 187 169 168
f 188 189 170
f 188 170 169
f 189 190 171
f 189 171 170
f 190 191 172
f 190 172 171
f 191 192 173
f 191 173 172
f 192 21 173
f 2 174 1
f 2 3 175
f 2 175 174
f 3 4 176
f 3 176 175
f 4 5 177
f 4 177 176
f 5 6 178
f 5 178 177
f 6 7 179
f 6 179 178
f 7 8 180
f 7 180 179
f 8 9 181
f 8 181 180
f 9 10 182
f 9 182 181
f 10 11 183
f 10 183 182
f 11 12 184
f 11 184 183
f 12 13 185
f 12 185 184
f 13 14 186
f 13 186 185
f 14 15 187
f 14 187 186
f 15 16 188
f 15 188 187
f 16 17 189
f 16 189 188
f 17 18 190
f 17 190 189
f 18 19 191
f 18 191 190
f 19 20 192
f 19 192 191
f 20 21 192
