v -0.0028238864 0.0179455974 0.0199661124
v 0.002576157 0.0230945042 0.00950106505
v -0.009492121 0.0197831136 0.0162808727
v 0.0056966368 0.0175240044 0.0198678708
v -0.0022022904 0.0140501126 0.0231908504
v 0.0114853197 0.0137057915 0.0197020917
v -0.0133330616 0.021869494 0.00767870658
v -0.0099421249 0.0248751987 -0.00262547208
v 1.13637e-05 0.0256252051 -0.00799798873
v 0.009565986 0.0250138378 -0.000987315349
v 0.0145853438 0.0203081171 0.00523989144
v 0.0126796467 0.0174330939 0.0153721509
v -0.0092705291 0.0155478522 0.0202239929
v -0.016019446 0.0176535503 0.012655806
v 0.018731968 0.0132126056 0.0129247393
v -0.0026227484 0.00738642296 0.0261626194
v 0.0078750632 0.00795233666 0.0242567571
v 0.0162614944 0.00710573861 0.0198212069
v -0.0175001401 0.0204103898 0.00203111763
v -0.0118978227 0.0230331401 -0.00672577703
v -0.000182956 0.0245354241 -0.0116537562
v 0.0099057606 0.0240581471 -0.00818832955
v 0.0164433133 0.0205319834 -0.0036790995
v 0.0196797021 0.0172808203 0.00252354771
v -0.0107171312 0.00899211743 0.0235162716
v -0.0176490048 0.0112273624 0.0170397797
v -0.0213615339 0.014726254 0.00692716842
v 0.0224433626 0.00622618629 0.0120491723
v -0.0035704831 0.000893188962 0.0274225508
v 0.0033432086 -0.000417048796 0.0272825589
v 0.0108114505 -0.000977280523 0.0247270838
v 0.0190365171 -0.0014750118 0.0187909125
v -0.0188160608 0.0187353779 -0.00548794896
v -0.0107898596 0.0216206278 -0.012982456
v 0.0008954617 0.0229308652 -0.0151965466
v 0.0112103169 0.0214990363 -0.012852287
v 0.0195672017 0.0166864974 -0.00709294966
v 0.0246729244 0.00955803061 0.00181867351
v -0.0114841831 0.00246933798 0.0248240946
v -0.0190149251 0.00459208202 0.0189640615
v -0.0242854213 0.00820347457 0.00806430079
v -0.0235592802 0.0127285109 -0.00285879299
v 0.0263479384 0.00594322918 -0.000376997763
v 0.0241808752 -0.000309093391 0.0114020148
v -0.0131182873 -0.00481822059 0.0239853697
v -0.0055670899 -0.00555686268 0.0266083845
v 0.0017875143 -0.00728528581 0.0267176766
v 0.0089432533 -0.00882734345 0.024526919
v 0.0182433287 -0.0104307652 0.0166897989
v -0.0175262766 0.0168069533 -0.0124802018
v -0.00849325 0.0194978832 -0.017431513
v 0.0026034299 0.0193978817 -0.0200754056
v 0.0148058002 0.0167387704 -0.0157307281
v 0.0220592673 0.0118694129 -0.0105510086
v -0.0200819796 -0.00266593037 0.0181621755
v -0.0254240675 0.00157728533 0.00797465567
v -0.0255229324 0.006362551 -0.00473272691
v -0.0196751577 0.0120319141 -0.0145407927
v 0.026296802 -0.00115569101 -0.00520059632
v 0.0239297378 -0.00857734167 0.00713101826
v -0.0152785317 -0.0100364443 0.020519942
v -0.0226285894 -0.00580800111 0.0136013689
v -0.0067864178 -0.0121671432 0.0238699374
v 0.0022500179 -0.0146614811 0.0231503255
v 0.0105989485 -0.0168342254 0.0185612766
v 0.0167114972 -0.0175785496 0.0118883047
v -0.0101546269 0.0165683148 -0.0196947251
v 0.0023954737 0.0170944549 -0.0223914196
v 0.0152194398 0.012534191 -0.0192636945
v 0.0238251918 0.00610800368 -0.0124175737
v -0.026478621 -0.0018488785 0.00145272848
v -0.0248661077 0.00346593679 -0.00973806984
v -0.0178046872 0.0125103278 -0.0178183348
v -0.0070159653 0.0156773981 -0.0219972322
v 0.0238604194 -0.0107739497 -0.00585880547
v 0.0218160843 -0.0155058058 0.00235162738
v -0.0073216495 -0.0168399075 0.0205911655
v -0.0151455759 -0.0143648874 0.0180123585
v -0.0220990415 -0.0108898601 0.0108199407
v -0.0005465953 -0.0201603891 0.0190758089
v 0.0049057211 -0.0214865353 0.0165657702
v 0.0098898518 -0.0227842739 0.0102059382
v 0.0160137648 -0.0216274456 -0.000400329745
v 0.0063852786 0.0140126118 -0.0236587203
v 0.0167489981 0.00485572091 -0.0212690249
v 0.0227172266 -0.00256138408 -0.0152542623
v -0.0264149836 -0.00681369097 0.000760134611
v -0.0257002069 -0.00157046718 -0.00858129045
v -0.0186046954 0.0053227697 -0.0173504644
v -0.008801207 0.0100682629 -0.0216497055
v 0.0195978848 -0.00658755293 -0.0189886222
v 0.0193206088 -0.0166933151 -0.0089447792
v -0.0160705834 -0.0176455959 0.0131101675
v -0.0077875622 -0.0211240321 0.014928841
v -0.0212717622 -0.0137785199 0.00481131822
v -0.0231456406 -0.0113444095 -0.00461606592
v -0.0007397787 -0.0244547413 0.0122210937
v 0.0064250517 -0.0250615642 0.0069897966
v 0.0096750776 -0.0250695186 -0.00213549829
v 0.0132648786 -0.0205081181 -0.0113197386
v 0.0007022783 0.00991371613 -0.0242788626
v 0.0075977883 0.00750460557 -0.0251151329
v 0.015459215 0.000676141769 -0.0229145494
v -0.0202512996 -0.00278979515 -0.0151781261
v -0.0121148702 0.0021454718 -0.0204229302
v -0.0036818477 0.00337161793 -0.0235076762
v 0.0139398844 -0.0139682942 -0.0191077384
v -0.0150660297 -0.0187126493 -0.00174499368
v -0.0074159684 -0.0205797099 0.00458905005
v -0.0195922016 -0.0150887573 -0.0117016478
v -0.0171490012 -0.00840461275 -0.0206574776
v -0.001094327 -0.0238479184 0.00175604533
v 0.0058989111 -0.0265865769 -0.00253582804
v 0.0093296198 -0.0237160992 -0.0114056987
v 0.0038648037 0.00118978232 -0.023971861
v 0.010733041 -0.0048079929 -0.0230876984
v -0.0106841769 -0.00471367403 -0.0254466936
v -0.0002761386 -0.00617164051 -0.0267667972
v 0.0100193988 -0.0181967369 -0.0185391722
v -0.0140273851 -0.0287115927 -0.00912897986
v -0.0190819703 -0.0239831475 -0.018789686
v -0.0056614093 -0.0313661605 -0.00387189552
v -0.01788537 -0.0169751356 -0.0261552529
v -0.0153808055 -0.013211469 -0.0335613423
v 0.0022545635 -0.0341741375 -0.00789483567
v 0.0057193639 -0.0336468608 -0.0172743282
v 0.0053920887 -0.0308025196 -0.0261810404
v 0.0079546094 -0.0120148687 -0.0239129164
v -0.0095807583 -0.0113466817 -0.0370255413
v -0.0016068311 -0.0147773914 -0.0378826882
v 0.0040795782 -0.0250263366 -0.0344295416
v -0.0080864286 -0.0386764473 -0.00479289881
v -0.0147808004 -0.0342161829 -0.0110102815
v -0.0192615181 -0.0291002325 -0.0211106125
v -0.0203115271 -0.0244990599 -0.0309260463
v -0.0013454654 -0.0423867053 -0.00737293453
v -0.018331966 -0.0165421783 -0.0408937522
v -0.0153558046 -0.0134955628 -0.0438839398
v 0.0042534432 -0.0434321656 -0.0127368547
v 0.0069568739 -0.0434389854 -0.0202583765
v 0.002807977 -0.0348934609 -0.0393685708
v 0.0041409423 -0.0404435063 -0.0276276289
v -0.0041932154 -0.0177887783 -0.0479363521
v 0.0023693372 -0.0249876992 -0.046626075
v -0.0090739359 -0.046082189 -0.00321491397
v -0.0027602495 -0.0486662996 -0.00491324368
v -0.0177944616 -0.0423696577 -0.00880969879
v -0.0198762954 -0.0420435186 -0.0187024971
v -0.0220013132 -0.0357593777 -0.0291822803
v -0.0235479159 -0.0261911194 -0.0407500756
v 0.002173881 -0.0511515454 -0.00930949663
v -0.0214456267 -0.0199103862 -0.0493706622
v -0.0191456077 -0.0143887517 -0.054727217
v 0.0034886644 -0.0521935978 -0.0155219679
v 0.0006465961 -0.0442719459 -0.0349968786
v 0.0015613761 -0.049871991 -0.0239080055
v 0.0011238726 -0.0262183925 -0.055782072
v 0.0014477389 -0.0365139286 -0.0461459268
v -0.0090148451 -0.0185944677 -0.0567276335
v -0.0129841949 -0.0515663217 -0.000887847254
v -0.006331869 -0.0564890909 -0.00119730427
v -0.0019318337 -0.0583413751 -0.00884899499
v -0.0266286223 -0.0395298631 -0.00228163143
v -0.0282661354 -0.0440946714 -0.0136185618
v -0.0292945524 -0.0424742037 -0.0251691643
v -0.0308650204 -0.0356355108 -0.0338511523
v -0.0289536411 -0.0313252519 -0.0433534427
v -0.0013022832 -0.0578516014 -0.0204732791
v -0.0260524825 -0.0237638278 -0.0531418604
v -0.0244286048 -0.0183876468 -0.0585143762
v -0.0222001776 -0.0112671355 -0.0620227871
v -0.0022511544 -0.0503026761 -0.0408397208
v -0.0028761594 -0.054493619 -0.0320275652
v 0.0016181948 -0.0374832569 -0.0584296442
v -0.0005079586 -0.0436821684 -0.0494529377
v -0.0162785399 -0.0173705942 -0.0644824776
v -0.0039091221 -0.0236967805 -0.0658627517
v 0.002411383 -0.0300786497 -0.0630162407
v -0.0131716959 -0.0567856815 0.000293492802
v -0.0053852704 -0.0619141307 -0.0110827338
v -0.0040682145 -0.0606448041 -0.0234966238
v -0.0268411243 -0.0419105628 0.00163815673
v -0.0346355058 -0.0359911984 -0.00297790918
v -0.0367730202 -0.0396491792 -0.0204315255
v -0.0369787042 -0.0366366567 -0.0336865991
v -0.0349968703 -0.034699141 -0.0463534567
v -0.0319207105 -0.0266581687 -0.0556224298
v -0.0052818605 -0.0555936256 -0.0449879175
v -0.0045273091 -0.060651624 -0.035580181
v -0.0320309376 -0.0154387596 -0.0618103394
v -0.0284570454 -0.00946484892 -0.0659192397
v -0.0219717668 -0.0106830402 -0.0686306743
v 0.0024500195 -0.0363161987 -0.0661611575
v -0.0001590922 -0.0440889903 -0.0613658049
v -0.0030068422 -0.0507674522 -0.0533322033
v 0.0023966101 -0.0292581881 -0.0695799185
v -0.0183342372 -0.0178126437 -0.0701079634
v -0.0102750828 -0.0223979074 -0.0714096448
v -0.0036420746 -0.0244070128 -0.0719941733
v -0.0172353651 -0.0608254864 -0.00204094276
v -0.0299877392 -0.048942439 0.00111748319
v -0.0121682789 -0.0650209758 -0.013325069
v -0.0100853084 -0.0665266697 -0.0246791921
v -0.0387059912 -0.0403923678 -0.00161236955
v -0.0409298722 -0.0418219256 -0.0215747981
v -0.0419764712 -0.0420787483 -0.0331315407
v -0.0404173702 -0.0420105622 -0.044695651
v -0.0325888974 -0.0353605102 -0.0581619436
v -0.0342264106 -0.0190865169 -0.0660813385
v -0.0099159884 -0.0611027602 -0.0467967651
v -0.0083637036 -0.0664232582 -0.0371286933
v -0.0306343363 -0.0114285011 -0.0700060353
v -0.0233604137 -0.0119171414 -0.0732295493
v -0.0181342362 -0.0206217552 -0.0751734777
v 0.0033227538 -0.0384866719 -0.0736274221
v -0.0008715979 -0.0485742546 -0.066942168
v -0.007173921 -0.0556220354 -0.0599720172
v 0.0041875334 -0.0315195697 -0.0770756577
v -0.009951216 -0.0232990496 -0.0783736564
v -0.0010215991 -0.0254945226 -0.0791055487
v -0.0206910758 -0.0629380053 -0.00758292345
v -0.0354991472 -0.0550788498 -0.00477693459
v -0.0403060042 -0.0476003797 -0.00919406432
v -0.0155989886 -0.0704198833 -0.0224233491
v -0.0413776052 -0.0491276678 -0.0191433507
v -0.0409741912 -0.0512720002 -0.0324892958
v -0.0384480342 -0.0510708626 -0.0431250339
v -0.0335116317 -0.0446571778 -0.0637333935
v -0.0290036409 -0.0318525286 -0.0723908201
v -0.0274411294 -0.040413962 -0.0761865796
v -0.0332400389 -0.0202853905 -0.0744329895
v -0.0153023949 -0.0630061872 -0.0486154391
v -0.0125432821 -0.0703607904 -0.0362776856
v -0.0289127325 -0.0135546535 -0.07640271
v -0.0192478825 -0.0233615503 -0.0812508679
v 0.0040432143 -0.0427639786 -0.0825709714
v 0.0049727668 -0.0314593422 -0.0850208355
v -0.0021306989 -0.0514106372 -0.0804882795
v -0.0129228308 -0.0602732119 -0.0589269886
v -0.0068489186 -0.0565345441 -0.0791092268
v -0.002447747 -0.0252433831 -0.0863888357
v -0.0119580501 -0.0240967846 -0.084533322
v -0.0230251836 -0.0690323709 -0.023384876
v -0.0330741288 -0.064133469 -0.0214372624
v -0.0377980292 -0.0581947838 -0.0239116882
v -0.0206444839 -0.0685414583 -0.039818023
v -0.0362730192 -0.0597561586 -0.0354229954
v -0.0277172666 -0.0489844843 -0.0777154437
v -0.0301570592 -0.0523833733 -0.0677379136
v -0.0331604928 -0.0561084056 -0.0515024769
v -0.0255967954 -0.0285138649 -0.0812606942
v -0.0228138182 -0.0420685206 -0.0900900369
v -0.0225649542 -0.0612004906 -0.0528471418
v 0.0089227989 -0.0405196426 -0.102446213
v 0.0088341617 -0.0320798028 -0.102433934
v 0.0018977425 -0.0263354374 -0.103890345
v -0.0205183458 -0.0585141072 -0.0653285719
v -0.0137523834 -0.0584595609 -0.080281971
v -0.0003000024 -0.0519731436 -0.102390951
v -0.0082693847 -0.0272399917 -0.104708195
v -0.0118387309 -0.0272183997 -0.0939619373
v -0.0289468234 -0.0656505252 -0.0387152759
v -0.0224342716 -0.0548708923 -0.079142384
v -0.0153569412 -0.0359116501 -0.108653775
v -0.016583087 -0.0528049695 -0.105996367
v 0.0118125943 -0.0480537935 -0.140914662
v 0.0154058053 -0.0346707333 -0.131786904
v 0.0083000667 -0.024000193 -0.13876442
v -0.0095648495 -0.0574697772 -0.104950113
v -0.0022443361 -0.0552277145 -0.141882324
v -0.0066716441 -0.0319673023 -0.140987106
v -0.0089864353 -0.0512924556 -0.143739063
v 0.0185092383 -0.0479697029 -0.178966816
v 0.0245286063 -0.0352150555 -0.175947149
v 0.0152421674 -0.0204819816 -0.176195206
v 0.0025238837 -0.0283911368 -0.180031488
v 0.0076398341 -0.0510651814 -0.181535786
v -6.02278e-05 -0.0445480852 -0.183083086
v 0.0254058854 -0.0451730881 -0.218998494
v 0.0304138798 -0.0332695854 -0.215450801
v 0.0213013065 -0.0182512832 -0.215001349
v 0.0080046096 -0.0256615693 -0.215083619
v 0.0065091428 -0.0391298568 -0.21803452
v 0.0134648807 -0.0476560648 -0.217251062
v 0.0287718222 -0.0419992 -0.253323656
v 0.0334070856 -0.0260308904 -0.250895897
v 0.0212797165 -0.0159683096 -0.251131675
v 0.0117421392 -0.0225831362 -0.253920468
v 0.0107978139 -0.0358343794 -0.255515655
v 0.0175830951 -0.0439230781 -0.255344964
v 0.0327786707 -0.0369241583 -0.296732374
v 0.0364741565 -0.0224388161 -0.294488809
v 0.025597932 -0.0116489565 -0.293298864
v 0.0145273886 -0.0174569581 -0.29388832
v 0.0133046517 -0.0308957013 -0.297661965
v 0.0216831285 -0.0394491803 -0.297824055
v 0.0354230109 -0.0308400205 -0.337095606
v 0.0385582615 -0.0185353748 -0.335073089
v 0.0275649941 -0.00706028388 -0.33242677
v 0.0151183027 -0.0132705608 -0.334540159
v 0.0146262535 -0.0282615909 -0.337737853
v 0.0234251877 -0.0344877756 -0.339352712
v 0.0237524634 -0.0306718371 -0.377009422
v 0.0324082151 -0.0287400025 -0.376586979
v 0.0379616684 -0.0124773724 -0.37454481
v 0.0303820622 -0.00204319813 -0.372869822
v 0.0195740194 -0.00485572091 -0.372720028
v 0.012638738 -0.014621708 -0.374329909
v 0.0148830741 -0.0268229421 -0.376842428
v 0.0215592637 -0.0277581774 -0.417667409
v 0.0338650439 -0.0249524716 -0.418077556
v 0.037541211 -0.008953481 -0.418903998
v 0.0284513642 0.00463412787 -0.415531916
v 0.0175626408 0.00170796827 -0.413834787
v 0.0120410051 -0.00972280511 -0.414759493
v 0.0114000913 -0.0229922293 -0.416478691
v 0.0185046938 -0.0275593109 -0.450688442
v 0.0346741411 -0.0211092599 -0.454179647
v 0.0340684548 -0.00259320249 -0.452089572
v 0.0288047764 0.00933984749 -0.448350309
v 0.0165353594 0.0114500921 -0.444942582
v 0.0096284857 -0.00703755626 -0.451314696
v 0.0079796093 -0.0232820042 -0.450235293
v 0.0030170695 -0.0261468008 -0.466618103
v 0.0176399137 -0.0291104602 -0.468353257
v 0.0340059541 -0.0236195076 -0.47448961
v 0.0335764057 0.000507958613 -0.472494102
v 0.025034291 0.0156455794 -0.46403927
v 0.0137671555 0.0206774381 -0.460828034
v 0.0092228015 0.0105080391 -0.464042966
v 0.0075182421 -0.00371139332 -0.467469102
v -0.0032920718 -0.0324457139 -0.475209187
v 0.0136137453 -0.0357048314 -0.484028713
v -0.0005159132 -0.0164637687 -0.475215336
v 0.0260899811 -0.0325070779 -0.487828178
v 0.040120775 -0.0239831475 -0.487605885
v 0.037463936 -0.00960007698 -0.485838818
v 0.0353923299 0.0021329716 -0.485977559
v 0.0307638821 0.0149285283 -0.480135961
v 0.0236183709 0.023510415 -0.476407751
v 0.007717107 0.0379616684 -0.476345096
v 0.01268192 0.0266581687 -0.469241109
v 0.0049807218 0.0153058048 -0.474037706
v 0.0040761691 -0.000252274751 -0.476280026
v -0.0107205401 -0.0330991287 -0.480975907
v -0.0111307708 -0.0163455851 -0.479133889
v 0.002673885 -0.0409855573 -0.489443
v 0.0118160032 -0.0387582646 -0.493881016
v -0.0076489247 -0.0103478101 -0.481607102
v 0.0244604224 -0.0333161751 -0.496620695
v 0.0402798674 -0.0242331483 -0.498307943
v 0.0371173415 -0.00998758013 -0.497558868
v 0.0341616365 0.000263638482 -0.49889372
v 0.0372934814 0.00889666246 -0.497534311
v 0.02949569 0.0204558451 -0.490978003
v 0.0217456292 0.0312718422 -0.484599741
v 0.0198251589 0.0344491402 -0.493849067
v 0.0133296526 0.0419060162 -0.488499885
v 0.0033375267 0.0426435238 -0.483783108
v -0.0009681896 0.0295400086 -0.480483489
v -0.0020466073 0.0188308329 -0.482009892
v -0.002317064 0.00220229034 -0.484422903
v -0.0190558338 -0.0314513878 -0.487698002
v -0.0110989522 -0.0400082746 -0.494729563
v -0.0204513006 -0.0250501999 -0.485911245
v -0.012577374 -0.00721369405 -0.492097956
v -0.0190762892 -0.0136944282 -0.488212523
v -0.0024352468 -0.0420832907 -0.498940382
v 0.0089443899 -0.0387741734 -0.501589189
v -0.0025920661 0.00176705957 -0.491304635
v 0.019864931 -0.0337241337 -0.505754555
v 0.0279422696 -0.0314934331 -0.507487293
v 0.0354491474 -0.0255922509 -0.50847458
v 0.0338116342 -0.0121250969 -0.507775864
v 0.028932049 -3.75003007e-05 -0.506965379
v 0.0337604979 0.00694096463 -0.507945309
v 0.0378923478 0.0116216844 -0.508619506
v 0.0338570895 0.018541058 -0.503944485
v 0.028011588 0.0242899679 -0.500496245
v 0.017204683 0.0351355093 -0.502613329
v 0.0077614256 0.0435208028 -0.494321867
v -0.0082989301 0.0409707831 -0.488189211
v -0.0176376415 0.0317513904 -0.484048366
v -0.0041443515 0.0323013958 -0.483251385
v -0.0114978196 0.0215228995 -0.482594426
v -0.0091853007 0.014791028 -0.489230552
v -0.0254638395 -0.0264740765 -0.496835594
v -0.0240513294 -0.0338559529 -0.499057054
v -0.0142648869 -0.0347695961 -0.503997296
v -0.0233092774 -0.0159069456 -0.498102888
v -0.0032750263 -0.00708073875 -0.501543736
v -0.0185978756 -0.00998530683 -0.502107408
v -0.0073284678 -0.0367389294 -0.507992008
v 0.0036852568 -0.0362639257 -0.511684609
v -0.0011863732 0.0106875858 -0.502082851
v 0.0046114007 0.0020943349 -0.504138525
v 0.0190581071 -0.0323650311 -0.512906448
v 0.0263195286 -0.0291286423 -0.517256044
v 0.0260047539 -0.016339904 -0.517159025
v 0.0218876761 -0.00498299457 -0.513047677
v 0.0236297353 0.00465344661 -0.514224099
v 0.0330354913 0.0131603326 -0.51690116
v 0.0312104781 0.0213513083 -0.512138965
v 0.0245433785 0.0260933911 -0.507343612
v 0.0144467068 0.0355139214 -0.508641611
v 0.0028091133 0.0414094226 -0.505691936
v -0.0086727967 0.0417389695 -0.502505257
v -0.0234751875 0.0383366727 -0.501752486
v -0.0200762964 0.023787691 -0.48616545
v -0.0191092435 0.0149978479 -0.49540127
v -0.0247956526 -0.0223354067 -0.50436078
v -0.0241411032 -0.0319093461 -0.507323959
v -0.0179308252 -0.0361787006 -0.512535607
v -0.0170149087 -0.0141626131 -0.510247833
v -0.0061841405 -0.00861711475 -0.511256017
v -0.0085489319 -0.0367002919 -0.518754231
v 0.0066330076 -0.0339968631 -0.519542611
v -0.0207808475 0.0163671761 -0.503385754
v -0.0150239844 0.0162399024 -0.510378009
v -0.0050989044 0.0158262627 -0.518232316
v 0.0082443843 0.00127841928 -0.511242512
v 0.008194384 -0.0064136879 -0.51291384
v 0.0156558071 -0.0292331883 -0.520105003
v 0.016401268 -0.0201172071 -0.521347777
v 0.0149353471 0.000237501909 -0.513730438
v 0.0141887496 -0.0104284929 -0.51714552
v 0.0160853566 0.00612618526 -0.517628131
v 0.0219854044 0.0147444361 -0.522515598
v 0.0251752013 0.0253115671 -0.521924916
v 0.0195149287 0.0294741001 -0.514230248
v 0.0108705413 0.0339991364 -0.516637146
v 0.003673893 0.0392662247 -0.513039077
v -0.0086602967 0.0410139629 -0.510174162
v -0.0205649377 0.038504854 -0.509050513
v -0.0253661113 0.0239786009 -0.495641972
v -0.0107080401 -0.014591026 -0.514580229
v -0.0162774033 -0.0211115332 -0.515049333
v -0.0131398783 -0.0279093153 -0.518050573
v 0.0014977393 -0.0123716898 -0.51674273
v -0.0008272794 -0.0264854387 -0.52138829
v -0.0238376907 0.0262774833 -0.510725538
v -0.0163819493 0.0209103955 -0.516812741
v -0.0042386703 0.0183490114 -0.523660108
v 0.0072080124 0.00864325126 -0.517739898
v 0.0071364206 -0.0195126554 -0.521357584
v 0.0051557229 0.0179626449 -0.526972023
v 0.0103194013 0.0242183761 -0.528391597
v 0.0135228359 0.0320286664 -0.525538943
v -0.0050398131 0.0389798577 -0.522025633
v -0.0156467161 0.0358764247 -0.519117716
v -0.0180012804 0.0277263577 -0.518514737
v -0.0050682224 -0.0193592463 -0.519322771
v -0.0101955366 0.0240888302 -0.524276554
v -0.0018534239 0.0237785999 -0.527400578
v 0.0014795573 0.0359968795 -0.525782096
v -0.0092864379 0.0311991138 -0.52458968
f 1 2 3
f 4 2 1
f 3 5 1
f 1 6 4
f 1 5 6
f 3 2 7
f 7 2 8
f 8 2 9
f 9 2 10
f 10 2 11
f 11 2 12
f 12 2 4
f 3 13 5
f 3 14 13
f 7 14 3
f 4 15 12
f 4 6 15
f 13 16 5
f 5 17 6
f 5 16 17
f 6 18 15
f 6 17 18
f 7 19 14
f 8 19 7
f 8 20 19
f 9 20 8
f 9 21 20
f 10 21 9
f 10 22 21
f 11 22 10
f 11 23 22
f 11 24 23
f 12 24 11
f 12 15 24
f 13 25 16
f 14 25 13
f 14 26 25
f 14 27 26
f 19 27 14
f 15 28 24
f 15 18 28
f 25 29 16
f 16 30 17
f 16 29 30
f 17 31 18
f 17 30 31
f 18 32 28
f 18 31 32
f 19 33 27
f 20 33 19
f 20 34 33
f 21 34 20
f 21 35 34
f 22 35 21
f 22 36 35
f 23 36 22
f 23 37 36
f 24 37 23
f 24 38 37
f 24 28 38
f 25 39 29
f 26 39 25
f 26 40 39
f 27 40 26
f 27 41 40
f 27 42 41
f 33 42 27
f 28 43 38
f 28 44 43
f 28 32 44
f 45 46 29
f 39 45 29
f 29 46 30
f 30 47 31
f 46 47 30
f 31 48 32
f 47 48 31
f 32 49 44
f 48 49 32
f 33 50 42
f 34 50 33
f 34 51 50
f 35 51 34
f 35 52 51
f 36 52 35
f 36 53 52
f 37 53 36
f 37 54 53
f 38 54 37
f 38 43 54
f 55 45 39
f 40 55 39
f 56 55 40
f 41 56 40
f 57 56 41
f 42 57 41
f 58 57 42
f 50 58 42
f 43 59 54
f 60 59 43
f 44 60 43
f 49 60 44
f 45 61 46
f 62 61 45
f 55 62 45
f 61 63 46
f 46 63 47
f 47 64 48
f 63 64 47
f 48 65 49
f 64 65 48
f 49 66 60
f 65 66 49
f 67 58 50
f 51 67 50
f 68 67 51
f 52 68 51
f 69 68 52
f 53 69 52
f 70 69 53
f 54 70 53
f 59 70 54
f 71 62 55
f 56 71 55
f 72 71 56
f 57 72 56
f 73 72 57
f 58 73 57
f 74 73 58
f 67 74 58
f 59 75 70
f 76 75 59
f 60 76 59
f 66 76 60
f 61 77 63
f 61 78 77
f 62 78 61
f 62 79 78
f 71 79 62
f 63 80 64
f 63 77 80
f 64 81 65
f 64 80 81
f 65 82 66
f 65 81 82
f 66 83 76
f 66 82 83
f 84 74 67
f 68 84 67
f 85 84 68
f 69 85 68
f 86 85 69
f 70 86 69
f 75 86 70
f 71 87 79
f 72 87 71
f 72 88 87
f 73 88 72
f 73 89 88
f 74 89 73
f 74 90 89
f 84 90 74
f 75 91 86
f 75 92 91
f 76 92 75
f 76 83 92
f 93 94 77
f 78 93 77
f 77 94 80
f 95 93 78
f 79 95 78
f 96 95 79
f 87 96 79
f 80 97 81
f 94 97 80
f 81 98 82
f 97 98 81
f 82 99 83
f 98 99 82
f 83 100 92
f 99 100 83
f 84 101 90
f 84 102 101
f 85 102 84
f 85 103 102
f 86 103 85
f 86 91 103
f 88 96 87
f 104 96 88
f 89 104 88
f 105 104 89
f 90 105 89
f 106 105 90
f 101 106 90
f 91 107 103
f 100 107 91
f 92 100 91
f 93 108 94
f 95 108 93
f 108 109 94
f 94 109 97
f 110 108 95
f 96 110 95
f 111 110 96
f 104 111 96
f 97 112 98
f 109 112 97
f 98 113 99
f 112 113 98
f 99 113 100
f 100 114 107
f 113 114 100
f 115 106 101
f 102 115 101
f 116 115 102
f 103 116 102
f 107 116 103
f 117 111 104
f 105 117 104
f 118 117 105
f 106 118 105
f 115 118 106
f 107 119 116
f 114 119 107
f 108 120 109
f 121 120 108
f 110 121 108
f 120 122 109
f 109 122 112
f 123 121 110
f 111 123 110
f 124 123 111
f 117 124 111
f 112 125 113
f 122 125 112
f 113 126 114
f 125 126 113
f 114 127 119
f 126 127 114
f 128 118 115
f 116 128 115
f 119 128 116
f 129 124 117
f 118 129 117
f 130 129 118
f 128 130 118
f 119 131 128
f 127 131 119
f 120 132 122
f 120 133 132
f 121 133 120
f 121 134 133
f 121 135 134
f 123 135 121
f 122 136 125
f 122 132 136
f 123 137 135
f 124 137 123
f 124 138 137
f 129 138 124
f 125 139 126
f 125 136 139
f 126 140 127
f 126 139 140
f 127 141 131
f 127 142 141
f 127 140 142
f 131 130 128
f 129 143 138
f 130 143 129
f 130 144 143
f 131 144 130
f 131 141 144
f 133 145 132
f 132 146 136
f 132 145 146
f 133 147 145
f 134 147 133
f 134 148 147
f 135 148 134
f 135 149 148
f 135 150 149
f 137 150 135
f 136 151 139
f 136 146 151
f 137 152 150
f 138 152 137
f 138 153 152
f 143 153 138
f 139 154 140
f 139 151 154
f 140 155 142
f 140 156 155
f 140 154 156
f 141 157 144
f 141 158 157
f 142 158 141
f 142 155 158
f 143 159 153
f 144 159 143
f 144 157 159
f 147 160 145
f 145 161 146
f 145 160 161
f 146 162 151
f 146 161 162
f 147 163 160
f 147 164 163
f 148 164 147
f 148 165 164
f 149 165 148
f 149 166 165
f 150 166 149
f 150 167 166
f 152 167 150
f 151 168 154
f 151 162 168
f 152 169 167
f 152 170 169
f 153 170 152
f 153 171 170
f 159 171 153
f 154 172 156
f 154 173 172
f 168 173 154
f 155 174 158
f 155 175 174
f 156 175 155
f 156 172 175
f 157 176 159
f 157 177 176
f 178 157 158
f 178 177 157
f 158 174 178
f 159 176 171
f 163 179 160
f 160 179 161
f 161 180 162
f 161 179 180
f 162 181 168
f 162 180 181
f 163 182 179
f 164 183 163
f 163 183 182
f 165 183 164
f 165 184 183
f 166 184 165
f 166 185 184
f 166 186 185
f 167 186 166
f 167 187 186
f 169 187 167
f 168 188 173
f 168 189 188
f 168 181 189
f 169 190 187
f 170 190 169
f 170 191 190
f 171 191 170
f 171 192 191
f 176 192 171
f 172 193 175
f 172 194 193
f 172 195 194
f 173 195 172
f 173 188 195
f 174 196 178
f 175 196 174
f 175 193 196
f 176 197 192
f 177 197 176
f 177 198 197
f 199 198 177
f 178 199 177
f 196 199 178
f 179 200 180
f 201 200 179
f 182 201 179
f 180 202 181
f 200 202 180
f 181 203 189
f 202 203 181
f 204 201 182
f 183 204 182
f 205 204 183
f 184 205 183
f 206 205 184
f 185 206 184
f 207 206 185
f 186 207 185
f 208 207 186
f 187 208 186
f 209 208 187
f 190 209 187
f 188 210 195
f 211 210 188
f 189 211 188
f 203 211 189
f 212 209 190
f 191 212 190
f 213 212 191
f 192 213 191
f 214 213 192
f 197 214 192
f 193 215 196
f 216 215 193
f 194 216 193
f 217 216 194
f 195 217 194
f 210 217 195
f 196 218 199
f 215 218 196
f 219 214 197
f 198 219 197
f 220 219 198
f 199 220 198
f 218 220 199
f 200 221 202
f 222 221 200
f 201 222 200
f 223 222 201
f 204 223 201
f 202 221 203
f 203 224 211
f 221 224 203
f 225 223 204
f 205 225 204
f 226 225 205
f 206 226 205
f 227 226 206
f 207 227 206
f 228 227 207
f 208 228 207
f 208 229 230
f 208 230 228
f 229 208 209
f 229 209 231
f 231 209 212
f 210 232 217
f 233 232 210
f 211 233 210
f 224 233 211
f 231 212 234
f 234 212 213
f 234 213 235
f 235 213 214
f 219 235 214
f 216 236 215
f 215 236 237
f 215 237 218
f 217 238 216
f 216 238 236
f 239 240 217
f 217 240 238
f 232 239 217
f 218 237 241
f 218 241 220
f 220 242 219
f 219 242 235
f 220 241 242
f 221 243 224
f 222 243 221
f 244 243 222
f 223 244 222
f 245 244 223
f 225 245 223
f 224 246 233
f 243 246 224
f 226 245 225
f 247 245 226
f 227 247 226
f 228 247 227
f 228 230 248
f 228 248 249
f 250 247 228
f 249 250 228
f 251 229 231
f 251 252 229
f 229 252 230
f 230 252 248
f 251 231 234
f 232 253 239
f 246 253 232
f 233 246 232
f 251 234 235
f 242 251 235
f 238 254 236
f 236 254 255
f 236 255 237
f 237 255 256
f 237 256 241
f 240 254 238
f 257 258 239
f 239 258 240
f 239 253 257
f 258 259 240
f 240 259 254
f 241 256 260
f 241 260 242
f 260 261 242
f 261 251 242
f 243 262 246
f 244 262 243
f 245 262 244
f 247 262 245
f 246 262 253
f 250 262 247
f 249 248 263
f 248 252 263
f 249 263 257
f 257 250 249
f 253 262 250
f 253 250 257
f 261 252 251
f 264 252 261
f 265 252 264
f 263 252 265
f 259 266 254
f 254 266 267
f 254 267 255
f 255 267 268
f 255 268 256
f 256 268 260
f 257 263 258
f 263 269 258
f 258 269 259
f 269 270 259
f 259 270 266
f 260 268 271
f 260 271 264
f 260 264 261
f 263 265 269
f 264 271 272
f 264 272 265
f 265 272 270
f 265 270 269
f 270 273 266
f 266 273 274
f 266 274 267
f 267 274 275
f 267 275 268
f 268 275 276
f 268 276 271
f 272 277 270
f 270 277 273
f 271 276 278
f 271 278 272
f 272 278 277
f 277 279 273
f 273 279 280
f 273 280 274
f 274 280 281
f 274 281 275
f 275 281 282
f 275 282 276
f 276 282 283
f 276 283 278
f 278 284 277
f 277 284 279
f 278 283 284
f 284 285 279
f 279 285 286
f 279 286 280
f 280 286 287
f 280 287 281
f 281 287 288
f 281 288 282
f 282 288 289
f 282 289 283
f 283 289 290
f 283 290 284
f 284 290 285
f 290 291 285
f 285 291 292
f 285 292 286
f 286 292 293
f 286 293 287
f 287 293 294
f 287 294 288
f 288 294 295
f 288 295 289
f 289 295 296
f 289 296 290
f 290 296 291
f 296 297 291
f 291 297 298
f 291 298 292
f 292 298 299
f 292 299 293
f 293 299 300
f 293 300 294
f 294 300 301
f 294 301 295
f 295 301 302
f 295 302 296
f 296 302 297
f 302 303 297
f 303 304 297
f 297 304 298
f 304 305 298
f 305 306 298
f 298 306 299
f 306 307 299
f 299 307 300
f 307 308 300
f 300 308 301
f 301 309 302
f 308 309 301
f 309 303 302
f 309 310 303
f 303 310 311
f 303 311 304
f 304 311 312
f 304 312 305
f 305 312 313
f 305 313 306
f 306 313 314
f 306 314 307
f 307 314 315
f 307 315 308
f 308 315 316
f 308 316 309
f 309 316 310
f 316 317 310
f 310 317 318
f 310 318 311
f 311 318 319
f 311 319 312
f 312 319 320
f 312 320 313
f 313 320 321
f 313 321 314
f 314 321 322
f 314 322 315
f 315 322 323
f 315 323 316
f 316 323 317
f 323 324 317
f 324 325 317
f 317 325 318
f 325 326 318
f 318 326 319
f 326 327 319
f 327 328 319
f 319 328 320
f 328 329 320
f 320 329 321
f 329 330 321
f 321 330 322
f 330 331 322
f 322 331 323
f 331 324 323
f 332 333 324
f 324 333 325
f 331 334 324
f 334 332 324
f 333 335 325
f 325 335 326
f 335 336 326
f 336 337 326
f 326 337 327
f 337 338 327
f 327 338 328
f 338 339 328
f 328 339 329
f 340 341 329
f 339 340 329
f 341 342 329
f 329 342 330
f 342 343 330
f 330 343 331
f 343 344 331
f 344 334 331
f 332 345 333
f 334 346 332
f 346 345 332
f 345 347 333
f 347 348 333
f 333 348 335
f 344 349 334
f 349 346 334
f 348 350 335
f 335 350 336
f 350 351 336
f 336 351 337
f 351 352 337
f 352 353 337
f 337 353 338
f 353 354 338
f 338 354 339
f 354 355 339
f 339 355 340
f 355 356 340
f 356 341 340
f 356 357 341
f 357 358 341
f 358 359 341
f 341 359 360
f 341 360 342
f 342 360 343
f 360 361 343
f 343 361 344
f 361 362 344
f 362 349 344
f 363 364 345
f 345 364 347
f 346 365 345
f 365 363 345
f 349 366 346
f 366 367 346
f 367 365 346
f 364 368 347
f 347 368 348
f 368 369 348
f 348 369 350
f 362 370 349
f 370 366 349
f 369 371 350
f 371 372 350
f 350 372 351
f 372 373 351
f 351 373 352
f 373 374 352
f 374 375 352
f 352 375 353
f 375 376 353
f 353 376 354
f 376 377 354
f 377 378 354
f 354 378 355
f 378 379 355
f 355 379 356
f 379 357 356
f 379 380 357
f 357 380 381
f 357 381 358
f 358 381 382
f 358 382 359
f 359 382 383
f 359 383 384
f 359 384 360
f 360 384 361
f 384 385 361
f 385 386 361
f 361 386 362
f 386 370 362
f 365 387 363
f 363 387 388
f 363 388 364
f 364 388 389
f 364 389 368
f 367 390 365
f 365 390 387
f 370 391 366
f 366 391 392
f 366 392 367
f 367 392 390
f 368 389 393
f 368 393 369
f 369 393 394
f 369 394 371
f 395 396 370
f 386 395 370
f 370 396 391
f 371 394 397
f 371 397 372
f 372 397 398
f 372 398 373
f 373 398 399
f 373 399 374
f 374 399 400
f 374 400 375
f 401 375 400
f 375 401 402
f 375 402 376
f 376 402 377
f 377 402 403
f 377 403 404
f 377 404 378
f 378 404 380
f 378 380 379
f 404 405 380
f 380 405 406
f 380 406 381
f 381 406 407
f 381 407 382
f 382 407 383
f 383 407 408
f 383 408 409
f 384 383 409
f 384 409 385
f 385 409 410
f 385 410 386
f 386 410 395
f 390 411 387
f 387 411 412
f 387 412 388
f 388 412 389
f 389 412 413
f 389 413 393
f 392 414 390
f 390 414 411
f 396 415 391
f 391 415 392
f 392 415 414
f 393 413 416
f 393 416 394
f 394 416 417
f 394 417 397
f 410 418 395
f 395 418 419
f 395 419 396
f 396 419 420
f 396 420 421
f 396 422 415
f 421 422 396
f 397 417 398
f 398 417 423
f 398 423 399
f 399 423 424
f 399 424 400
f 401 400 425
f 400 424 426
f 400 426 425
f 401 427 428
f 401 428 402
f 425 427 401
f 402 428 429
f 402 429 403
f 403 429 430
f 403 430 404
f 404 430 405
f 430 431 405
f 405 431 432
f 405 432 406
f 406 432 407
f 407 432 433
f 407 433 408
f 408 433 434
f 408 434 435
f 409 408 435
f 409 435 410
f 410 435 418
f 414 436 411
f 411 436 437
f 411 437 412
f 412 437 413
f 413 437 438
f 413 438 416
f 415 436 414
f 422 439 415
f 415 439 436
f 416 438 440
f 416 440 417
f 417 440 423
f 435 441 418
f 418 441 442
f 418 442 419
f 419 442 420
f 420 442 443
f 420 443 444
f 421 420 444
f 421 444 425
f 425 426 421
f 421 426 422
f 426 439 422
f 423 440 445
f 423 445 424
f 424 445 426
f 425 444 427
f 426 445 439
f 427 446 447
f 427 447 428
f 444 446 427
f 428 447 429
f 429 447 448
f 429 448 430
f 430 448 431
f 448 449 431
f 431 449 432
f 433 432 449
f 433 450 434
f 433 449 450
f 434 450 451
f 434 451 441
f 435 434 441
f 439 452 436
f 436 452 437
f 437 452 438
f 438 452 440
f 445 452 439
f 440 452 445
f 441 451 453
f 441 453 442
f 442 453 443
f 443 453 454
f 443 454 446
f 444 443 446
f 446 454 447
f 447 454 455
f 447 455 448
f 448 455 449
f 455 456 449
f 449 456 450
f 450 456 451
f 451 456 453
f 453 456 454
f 454 456 455
