v -0.018536006 -0.00176754879 -0.0061852508
v -0.016212397 -0.00530687485 -0.0018890079
v -0.015739853 -0.00811571275 -0.0045889599
v -0.015998854 -0.00683868005 -0.0100110633
v -0.017067629 -0.000792859789 -0.0118800986
v -0.017859431 0.00383955558 -0.0093186324
v -0.018196661 0.00594221999 -0.0046344173
v -0.017345658 0.00120514682 -0.0010506909
v -0.010372721 -0.00955026072 0.0087997993
v -0.009078774 -0.0172653151 0.000301399404
v -0.0085724 -0.0202718397 -0.0025962388
v -0.008622086 -0.0203077815 -0.0109868097
v -0.010052405 -0.0122533832 -0.0147132508
v -0.012424642 0.00142714765 -0.0117838978
v -0.013520902 0.0079655978 -0.0048014462
v -0.013954332 0.0106592071 0.000872258404
v -0.012510271 0.0026132658 0.0067774779
v -0.002540323 -0.0159607959 0.0095080873
v -0.001922949 -0.0196185217 0.0062161335
v -0.001954664 -0.0196417806 0.000667172004
v -0.00154132 -0.0223491316 -0.008442258
v -0.003120696 -0.0133760728 -0.0104529504
v -0.004211671 -0.0071283379 -0.0105396366
v -0.005648333 0.00121888982 -0.0068005102
v -0.007296424 0.0108029791 -0.0029990117
v -0.007876798 0.0141964187 -0.0010274336
v -0.007729854 0.0134955305 0.0028723794
v -0.006398907 0.00602890566 0.0068609928
v -0.004270872 -0.00606907753 0.0089477999
v 0.004465386 -0.0176152301 0.0110610356
v 0.004655672 -0.0187971203 0.0084879409
v 0.004614444 -0.0188277771 0.0013522028
v 0.004969645 -0.0210636417 -0.0042570159
v 0.00462713 -0.0192601495 -0.0084908866
v 0.002632294 -0.00779856888 -0.0071398541
v 0.001394376 -0.000630059238 -0.0049832753
v 2.1143e-05 0.00709979497 -0.0087076025
v -0.00114489 0.0137333885 -0.0097203481
v -0.001395433 0.015239822 -0.0076113415
v -0.000929232 0.0127914711 -0.001788579
v -0.001176604 0.0145188481 0.0066633062
v -0.001019089 0.0138274745 0.012347582
v -0.00030023 0.0097289181 0.012823298
v 0.001159689 0.00125377555 0.009810431
v 0.00294521 -0.0089646016 0.009711059
v 0.011434095 -0.0190043196 0.0138688161
v 0.011699439 -0.020716897 0.0087205129
v 0.011438324 -0.0195138646 0.000986430204
v 0.010349462 -0.0133380162 -0.000883661696
v 0.009382174 -0.00802691227 -0.0070457681
v 0.008586143 -0.00354355456 -0.0087784306
v 0.006792165 0.00666742201 -0.0104624651
v 0.005082759 0.0162071112 -0.0172334882
v 0.004257128 0.0210350978 -0.0142745349
v 0.004195814 0.0215763569 -0.0091230605
v 0.00484913 0.0180898887 -0.0023721238
v 0.004644044 0.0195561508 0.0054845881
v 0.00481953 0.0188806333 0.0146056471
v 0.006656851 0.00833137028 0.0137800161
v 0.008292256 -0.00111423227 0.0114976367
v 0.009907575 -0.0102849769 0.0132461568
v 0.017775915 -0.0170359144 0.0103886903
v 0.018344661 -0.0204356974 0.0065671059
v 0.018448261 -0.0213141846 -0.0010284908
v 0.017058114 -0.0135959599 -0.007594427
v 0.016480912 -0.0104213491 -0.0109085808
v 0.014931136 -0.00142714765 -0.0077656846
v 0.012772443 0.0109435789 -0.0071451396
v 0.01164341 0.0173805442 -0.0082889723
v 0.01178401 0.0166764848 -0.0053797055
v 0.01208424 0.0150632785 -0.0024017239
v 0.011864353 0.0164428544 0.000832086804
v 0.011606409 0.018163889 0.0074329087
v 0.011809382 0.0172113995 0.0131848423
v 0.012150841 0.0152588503 0.0131901284
v 0.014334905 0.00268832328 0.0111826071
v 0.024043737 -0.0146784772 0.0063778769
v 0.024824969 -0.0194662934 -0.0023277238
v 0.024753081 -0.0192252632 -0.0067561097
v 0.024081793 -0.0154597082 -0.0089475744
v 0.02351305 -0.0122068694 -0.0092224325
v 0.022953819 -0.00909145915 -0.0114794403
v 0.02203833 -0.00381418412 -0.0102415215
v 0.019600552 0.0102585488 -0.0069823393
v 0.019176634 0.0126635561 -0.007717056
v 0.018977892 0.0139109895 -0.004880732
v 0.019228435 0.0125546705 -0.0026956106
v 0.019295036 0.0123844693 0.0032508378
v 0.01931935 0.0124003274 0.0072806799
v 0.019961039 0.00875845772 0.0080206821
v 0.022051015 -0.00321795346 0.0077278526
v 0.023686422 -0.0125916706 0.0074942231
v 0.030198442 -0.0115990098 0.0040172688
v 0.028762839 -0.00369578381 -0.0045974171
v 0.026074515 0.0118104397 -0.0012124342
v 0.027198262 0.00551196133 0.002508721
v 0.027810349 0.00214177862 0.0059539612
v 0.030241786 -0.00249063688 -0.0025634673
v 0.028725838 0.00623610645 -0.0010718338
f 1 3 2
f 1 4 3
f 1 5 4
f 1 6 5
f 1 7 6
f 1 8 7
f 1 2 8
f 2 10 9
f 2 3 10
f 3 11 10
f 3 4 11
f 4 12 11
f 4 13 12
f 4 5 13
f 5 14 13
f 5 6 14
f 6 15 14
f 6 7 15
f 7 16 15
f 7 17 16
f 7 8 17
f 8 9 17
f 8 2 9
f 9 19 18
f 9 10 19
f 10 20 19
f 10 11 20
f 11 12 20
f 12 21 20
f 12 13 21
f 13 22 21
f 13 23 22
f 13 14 23
f 14 24 23
f 14 25 24
f 14 15 25
f 15 26 25
f 15 16 26
f 16 27 26
f 16 28 27
f 16 17 28
f 17 29 28
f 17 9 29
f 9 18 29
f 18 19 30
f 19 31 30
f 19 20 31
f 20 32 31
f 20 33 32
f 20 21 33
f 21 34 33
f 21 22 34
f 22 35 34
f 22 23 35
f 23 36 35
f 23 24 36
f 24 37 36
f 24 25 37
f 25 38 37
f 25 39 38
f 25 40 39
f 25 26 40
f 26 41 40
f 26 27 41
f 27 28 41
f 28 42 41
f 28 43 42
f 28 44 43
f 28 29 44
f 29 45 44
f 29 18 45
f 18 30 45
f 30 47 46
f 30 31 47
f 31 48 47
f 31 32 48
f 32 49 48
f 32 50 49
f 32 33 50
f 33 34 50
f 34 35 50
f 35 51 50
f 35 36 51
f 36 52 51
f 36 37 52
f 37 53 52
f 37 38 53
f 38 54 53
f 38 39 54
f 39 55 54
f 39 40 55
f 40 56 55
f 40 41 56
f 41 57 56
f 41 42 57
f 42 58 57
f 42 43 58
f 43 59 58
f 43 44 59
f 44 60 59
f 44 45 60
f 45 61 60
f 45 30 61
f 30 46 61
f 46 47 62
f 47 63 62
f 47 48 63
f 48 64 63
f 48 49 64
f 49 50 64
f 50 65 64
f 50 51 65
f 51 66 65
f 51 67 66
f 51 52 67
f 52 68 67
f 52 53 68
f 53 69 68
f 53 54 69
f 54 70 69
f 54 55 70
f 55 71 70
f 55 56 71
f 56 72 71
f 56 57 72
f 57 73 72
f 57 58 73
f 58 74 73
f 58 75 74
f 58 59 75
f 59 76 75
f 59 60 76
f 60 62 76
f 60 61 62
f 61 46 62
f 62 63 77
f 63 78 77
f 63 64 78
f 64 79 78
f 64 65 79
f 65 80 79
f 65 81 80
f 65 66 81
f 66 82 81
f 66 83 82
f 66 67 83
f 67 68 83
f 68 84 83
f 68 85 84
f 68 69 85
f 69 70 85
f 70 86 85
f 70 71 86
f 71 87 86
f 71 72 87
f 72 88 87
f 72 73 88
f 73 89 88
f 73 74 89
f 74 75 89
f 75 90 89
f 75 76 90
f 76 91 90
f 76 62 91
f 62 92 91
f 62 77 92
f 77 78 93
f 78 79 93
f 79 94 93
f 79 80 94
f 80 81 94
f 81 82 94
f 82 83 94
f 83 95 94
f 83 84 95
f 84 85 95
f 85 86 95
f 86 87 95
f 87 96 95
f 87 88 96
f 88 89 96
f 89 90 96
f 90 97 96
f 90 91 97
f 91 92 97
f 92 93 97
f 92 77 93
f 93 94 98
f 94 95 98
f 95 99 98
f 95 96 99
f 96 97 99
f 97 93 99
f 93 98 99
