v 0.170024117 -0.00411803336 -0.0487638283
v 0.166721877 -8.10005069e-05 -0.0487638283
v 0.159975295 0.00224902238 -0.0487638283
v 0.159562844 -0.00112340272 -0.0487638283
v 0.154857737 0.000246536866 -0.0487638283
v 0.149561676 0.00415272714 -0.0487638283
v 0.147435283 0.000698850651 -0.0487638283
v 0.149079902 -0.00781106457 -0.0487638283
v 0.167662036 -0.00133049643 -0.0475134663
v 0.161043695 -0.000540247166 -0.0467492113
v 0.157540423 -0.00231484277 -0.0472006593
v 0.152934102 -0.000279429532 -0.0460898033
v 0.148757563 0.000140824045 -0.0456392223
v 0.14769783 -0.00120312069 -0.0460898033
v 0.168733897 -0.00332518397 -0.0470784823
v 0.16224033 -0.00406344353 -0.0464043433
v 0.155793558 -0.00506425334 -0.0461790533
v 0.151628285 -0.00430346415 -0.0437069233
v 0.148241995 -0.00551136767 -0.0447189973
v 0.14836937 -0.00542038569 -0.0446063523
v 0.169082233 -0.00530340725 -0.0470784823
v 0.162728173 -0.00683191607 -0.0464043433
v 0.156328191 -0.00809614283 -0.0461790533
v 0.15267415 -0.0102355355 -0.0437069233
v 0.149079036 -0.0102580651 -0.0447189973
v 0.149229805 -0.0102987908 -0.0446063523
v 0.169200074 -0.00719931404 -0.0476174463
v 0.164626678 -0.00942882356 -0.0470628853
v 0.158603626 -0.00915760783 -0.0475827863
v 0.154818743 -0.0117813753 -0.0468185313
v 0.151161239 -0.0134944498 -0.0464017443
v 0.149673454 -0.013223234 -0.0466105713
v 0.169165412 -0.00822871721 -0.0487638283
v 0.166331085 -0.0109278707 -0.0487638283
v 0.160524656 -0.00821225456 -0.0487638283
v 0.15619475 -0.00897564226 -0.0487638283
v 0.152796329 -0.0141945838 -0.0487638283
v 0.149601535 -0.0132180354 -0.0487638283
v 0.168547598 -0.00758144124 -0.0500133233
v 0.164301738 -0.0112666737 -0.0511597053
v 0.161100882 -0.00862730868 -0.0499102103
v 0.156669591 -0.0100319086 -0.0501528303
v 0.153195784 -0.0148262638 -0.0517844533
v 0.149689052 -0.013309019 -0.0509517453
v 0.167720953 -0.00574792306 -0.0507871103
v 0.16170397 -0.00837255721 -0.0533718853
v 0.161343502 -0.00714299079 -0.0512368243
v 0.156678258 -0.0084427446 -0.0520227413
v 0.152790264 -0.0108949438 -0.0549445853
v 0.149241936 -0.0103655113 -0.0530339493
v 0.167302434 -0.00337457435 -0.0507871103
v 0.160750815 -0.00296558558 -0.0533718853
v 0.160832269 -0.00424280896 -0.0512368243
v 0.156004119 -0.00461887081 -0.0520227413
v 0.151511306 -0.00364318995 -0.0549445853
v 0.148358105 -0.00535453185 -0.0530339493
v 0.166918576 -0.00119532191 -0.0501181703
v 0.160111334 0.0010749125 -0.0514725133
v 0.160069745 -0.00195871042 -0.0502923373
v 0.15527279 -0.00129063744 -0.0508824253
v 0.150213287 0.00208785302 -0.0525487083
v 0.1476831 -0.00111647065 -0.0514725133
v 0.16517777 0.0207514373 -0.0487638283
v 0.164087717 0.0220841164 -0.0487638283
v 0.161861669 0.0228527036 -0.0487638283
v 0.16172563 0.0217401156 -0.0487638283
v 0.160172859 0.0221915627 -0.0487638283
v 0.158425126 0.0234809184 -0.0487638283
v 0.157723255 0.022341468 -0.0487638283
v 0.15826569 0.0195331357 -0.0487638283
v 0.164397918 0.0216716616 -0.0483513733
v 0.162214338 0.0219324793 -0.0480992213
v 0.161058421 0.0213467236 -0.0482473933
v 0.159537711 0.0220182626 -0.0478817293
v 0.158159974 0.0221560364 -0.0477326913
v 0.157809907 0.0217141207 -0.0478817293
v 0.164751452 0.0210122541 -0.0482075343
v 0.162609461 0.0207696334 -0.0479848433
v 0.160481331 0.0204403626 -0.0479103233
v 0.159107061 0.0206899154 -0.0470958123
v 0.157989272 0.0202921906 -0.0474285483
v 0.158031733 0.0203216523 -0.0473921553
v 0.164866697 0.0203606446 -0.0482075343
v 0.162769762 0.0198563403 -0.0479848433
v 0.160658101 0.0194386869 -0.0479103233
v 0.159451931 0.0187324875 -0.0470958123
v 0.15826569 0.0187246887 -0.0474285483
v 0.158315943 0.0187116913 -0.0473921553
v 0.164905691 0.0197350299 -0.0483860333
v 0.163396247 0.0189985038 -0.0482023353
v 0.161408488 0.0190894866 -0.0483739023
v 0.160159863 0.0182229846 -0.0481226163
v 0.158952822 0.0176571584 -0.0479848433
v 0.158462383 0.0177472753 -0.0480532963
v 0.164894425 0.0193962278 -0.0487638283
v 0.163958604 0.0185045976 -0.0487638283
v 0.162042771 0.0194005605 -0.0487638283
v 0.16061391 0.0191484084 -0.0487638283
v 0.159492655 0.0174266692 -0.0487638283
v 0.158438122 0.0177481412 -0.0487638283
v 0.164690798 0.0196085209 -0.0491762833
v 0.163289665 0.0183919527 -0.0495549443
v 0.162233402 0.0192636534 -0.0491424893
v 0.160770744 0.0188000748 -0.0492222073
v 0.159624362 0.0172169761 -0.0497611723
v 0.158466715 0.0177186803 -0.0494856243
v 0.164417854 0.0202133394 -0.0494319013
v 0.162431826 0.0193477041 -0.0502845393
v 0.16231312 0.0197540935 -0.0495800733
v 0.160773346 0.0193243086 -0.0498391573
v 0.159490925 0.0185149957 -0.0508035733
v 0.15831941 0.0186900292 -0.0501727603
v 0.164279213 0.0209966566 -0.0494319013
v 0.162117286 0.0211326978 -0.0502845393
v 0.162144149 0.0207107116 -0.0495800733
v 0.160550655 0.0205868019 -0.0498391573
v 0.159068932 0.0209091406 -0.0508035733
v 0.158028266 0.0203433144 -0.0501727603
v 0.164152702 0.0217167201 -0.0492109433
v 0.161906732 0.0224653777 -0.0496571913
v 0.161892864 0.0214645679 -0.0492681323
v 0.160309764 0.0216846591 -0.0494622283
v 0.158640019 0.0227998472 -0.0500124573
v 0.157805575 0.0217418482 -0.0496571913
v 0.147266314 0.0318911853 -0.0487638283
v 0.146176255 0.0332238644 -0.0487638283
v 0.14395021 0.0339924524 -0.0487638283
v 0.143813302 0.0328789977 -0.0487638283
v 0.142260532 0.0333313107 -0.0487638283
v 0.140512799 0.0346206656 -0.0487638283
v 0.139811796 0.0334803493 -0.0487638283
v 0.140354228 0.0306720162 -0.0487638283
v 0.146486463 0.0328105437 -0.0483513733
v 0.144302011 0.0330722273 -0.0480992213
v 0.143146097 0.0324864716 -0.0482473933
v 0.141626252 0.0331580106 -0.0478817293
v 0.140247647 0.0332966504 -0.0477326913
v 0.139898448 0.0328530012 -0.0478817293
v 0.146839993 0.0321528689 -0.0482075343
v 0.144697134 0.0319093814 -0.0479848433
v 0.142569872 0.0315792439 -0.0479103233
v 0.141194733 0.0318305301 -0.0470958123
v 0.140077814 0.031431072 -0.0474285483
v 0.140120271 0.0314614004 -0.0473921553
v 0.146955238 0.0315003926 -0.0482075343
v 0.144858303 0.0309960883 -0.0479848433
v 0.142746639 0.0305784341 -0.0479103233
v 0.141540469 0.0298722347 -0.0470958123
v 0.140354228 0.0298644376 -0.0474285483
v 0.140403619 0.0298514402 -0.0473921553
v 0.146994232 0.030874778 -0.0483860333
v 0.145484784 0.0301382518 -0.0482023353
v 0.143497029 0.030227502 -0.0483739023
v 0.142248401 0.0293618667 -0.0481226163
v 0.141041363 0.0287969072 -0.0479848433
v 0.140550056 0.0288861558 -0.0480532963
v 0.146982966 0.0305342432 -0.0487638283
v 0.146047145 0.0296434797 -0.0487638283
v 0.144131309 0.0305403085 -0.0487638283
v 0.142702448 0.0302881572 -0.0487638283
v 0.141581196 0.0285655505 -0.0487638283
v 0.140525795 0.0288887559 -0.0487638283
v 0.146778471 0.0307482689 -0.0491762833
v 0.145377338 0.0295325667 -0.0495549443
v 0.144321072 0.0304034006 -0.0491424893
v 0.142859285 0.029939822 -0.0492222073
v 0.141712904 0.0283575901 -0.0497611723
v 0.140555256 0.0288584291 -0.0494856243
v 0.146505524 0.0313530874 -0.0494319013
v 0.14452037 0.0304874521 -0.0502845393
v 0.144401658 0.030892974 -0.0495800733
v 0.142861884 0.0304640558 -0.0498391573
v 0.141578594 0.0296547437 -0.0508035733
v 0.140407951 0.0298289105 -0.0501727603
v 0.146367751 0.0321364046 -0.0494319013
v 0.14420583 0.0322707124 -0.0502845393
v 0.14423269 0.0318495929 -0.0495800733
v 0.142639192 0.0317265491 -0.0498391573
v 0.141156608 0.0320471544 -0.0508035733
v 0.140115939 0.0314830633 -0.0501727603
v 0.14624124 0.0328556014 -0.0492109433
v 0.143994401 0.0336042598 -0.0496571913
v 0.143980537 0.03260345 -0.0492681323
v 0.142398305 0.0328244079 -0.0494622283
v 0.140728556 0.033939596 -0.0500124573
v 0.139893248 0.0328815962 -0.0496571913
v 0.133087742 0.043688609 -0.0487638283
v 0.131997682 0.0450212865 -0.0487638283
v 0.12977164 0.0457898761 -0.0487638283
v 0.129634733 0.0446772849 -0.0487638283
v 0.128082828 0.0451296011 -0.0487638283
v 0.126335093 0.0464180877 -0.0487638283
v 0.125633228 0.0452777714 -0.0487638283
v 0.126175658 0.042470305 -0.0487638283
v 0.132307891 0.0446079675 -0.0483513733
v 0.13012344 0.0448696494 -0.0480992213
v 0.128967526 0.0442838953 -0.0482473933
v 0.127447683 0.0449554327 -0.0478817293
v 0.126069078 0.0450949392 -0.0477326913
v 0.125719878 0.0446512901 -0.0478817293
v 0.132661424 0.043950291 -0.0482075343
v 0.130518565 0.0437068051 -0.0479848433
v 0.128391303 0.0433775327 -0.0479103233
v 0.127017031 0.0436279522 -0.0470958123
v 0.125899243 0.0432302275 -0.0474285483
v 0.125941702 0.0432596892 -0.0473921553
v 0.132776669 0.0432978147 -0.0482075343
v 0.130679734 0.0427935121 -0.0479848433
v 0.12856807 0.0423767229 -0.0479103233
v 0.127361898 0.0416705235 -0.0470958123
v 0.126175658 0.0416635931 -0.0474285483
v 0.126225049 0.0416488639 -0.0473921553
v 0.13281566 0.0426722017 -0.0483860333
v 0.131306216 0.0419365406 -0.0482023353
v 0.12931846 0.0420266559 -0.0483739023
v 0.128069831 0.0411601555 -0.0481226163
v 0.126862794 0.040595196 -0.0479848433
v 0.126371487 0.0406844462 -0.0480532963
v 0.132804398 0.042332532 -0.0487638283
v 0.131868577 0.0414417669 -0.0487638283
v 0.129952739 0.0423377322 -0.0487638283
v 0.128523877 0.0420864444 -0.0487638283
v 0.127402624 0.0403638409 -0.0487638283
v 0.126348091 0.0406861796 -0.0487638283
v 0.132599902 0.0425465594 -0.0491762833
v 0.131198769 0.0413308571 -0.0495549443
v 0.13014337 0.0422008243 -0.0491424893
v 0.128680715 0.0417381108 -0.0492222073
v 0.127534333 0.0401541454 -0.0497611723
v 0.126376686 0.0406558496 -0.0494856243
v 0.132326955 0.0431513778 -0.0494319013
v 0.1303418 0.0422857425 -0.0502845393
v 0.130223088 0.0426912628 -0.0495800733
v 0.128683315 0.0422623462 -0.0498391573
v 0.127400025 0.0414521675 -0.0508035733
v 0.126229381 0.0416272009 -0.0501727603
v 0.132189182 0.0439346934 -0.0494319013
v 0.130027258 0.0440690028 -0.0502845393
v 0.13005412 0.0436487501 -0.0495800733
v 0.128460624 0.0435239728 -0.0498391573
v 0.126978906 0.0438454432 -0.0508035733
v 0.12593737 0.0432804838 -0.0501727603
v 0.132062671 0.0446538918 -0.0492109433
v 0.129815832 0.0454025487 -0.0496571913
v 0.129801968 0.0444017388 -0.0492681323
v 0.128219736 0.0446218316 -0.0494622283
v 0.126549986 0.0457370181 -0.0500124573
v 0.125714679 0.0446790183 -0.0496571913
v 0.120351899 0.0535424682 -0.0487638283
v 0.119261839 0.0548742806 -0.0487638283
v 0.117035797 0.0556428669 -0.0487638283
v 0.116899755 0.0545294139 -0.0487638283
v 0.115346984 0.0549817268 -0.0487638283
v 0.11359925 0.0562710817 -0.0487638283
v 0.112897384 0.0551316306 -0.0487638283
v 0.113439813 0.0523232991 -0.0487638283
v 0.119572047 0.0544618266 -0.0483513733
v 0.117388462 0.0547226434 -0.0480992213
v 0.116232549 0.0541368861 -0.0482473933
v 0.114711838 0.0548084268 -0.0478817293
v 0.113334101 0.0549461998 -0.0477326913
v 0.112984034 0.054503419 -0.0478817293
v 0.119925579 0.0538024167 -0.0482075343
v 0.117782722 0.0535597959 -0.0479848433
v 0.115655459 0.0532296584 -0.0479103233
v 0.114281187 0.053480078 -0.0470958123
v 0.113163399 0.0530814881 -0.0474285483
v 0.113205858 0.0531109498 -0.0473921553
v 0.120040824 0.0531508088 -0.0482075343
v 0.117943891 0.0526465029 -0.0479848433
v 0.115832225 0.0522288486 -0.0479103233
v 0.114626055 0.0515226525 -0.0470958123
v 0.113439813 0.0515157188 -0.0474285483
v 0.113490071 0.0515018547 -0.0473921553
v 0.120079817 0.0525251925 -0.0483860333
v 0.118570371 0.0517886664 -0.0482023353
v 0.116582616 0.0518779165 -0.0483739023
v 0.115333987 0.0510131463 -0.0481226163
v 0.114126949 0.0504473218 -0.0479848433
v 0.113636509 0.0505365719 -0.0480532963
v 0.120068553 0.0521846577 -0.0487638283
v 0.11913273 0.051294761 -0.0487638283
v 0.117216895 0.052189858 -0.0487638283
v 0.1157889 0.051937705 -0.0487638283
v 0.11466678 0.0502159666 -0.0487638283
v 0.113612248 0.0505383054 -0.0487638283
v 0.119864924 0.0523986851 -0.0491762833
v 0.118463791 0.0511829828 -0.0495549443
v 0.117407525 0.0520538151 -0.0491424893
v 0.115944871 0.0515893714 -0.0492222073
v 0.114798488 0.0500071395 -0.0497611723
v 0.113640842 0.0505088437 -0.0494856243
v 0.119591977 0.0530043687 -0.0494319013
v 0.117605955 0.0521378683 -0.0502845393
v 0.117487244 0.0525425235 -0.0495800733
v 0.11594747 0.0521144719 -0.0498391573
v 0.114665047 0.0513051583 -0.0508035733
v 0.113493537 0.0514801918 -0.0501727603
v 0.119453337 0.0537868191 -0.0494319013
v 0.117291415 0.0539219937 -0.0502845393
v 0.117318276 0.0535000075 -0.0495800733
v 0.115724779 0.0533769637 -0.0498391573
v 0.114243061 0.0536975722 -0.0508035733
v 0.113201525 0.0531343429 -0.0501727603
v 0.119326826 0.0545060175 -0.0492109433
v 0.117079987 0.0552546744 -0.0496571913
v 0.11706699 0.0542547329 -0.0492681323
v 0.115483891 0.0544748224 -0.0494622283
v 0.113814142 0.0555900121 -0.0500124573
v 0.112978834 0.0545320124 -0.0496571913
v 0.156584673 0.0187532837 -0.0487638283
v 0.155914869 0.0217427149 -0.0487638283
v 0.154524133 0.0223371353 -0.0487638283
v 0.151726199 0.0211725568 -0.0487638283
v 0.148135413 0.0204559601 -0.0487638283
v 0.144651209 0.0203450479 -0.0487638283
v 0.142259667 0.0209316695 -0.0487638283
v 0.141102885 0.019384097 -0.0487638283
v 0.141747562 0.0161373143 -0.0487638283
v 0.156300463 0.0209793272 -0.0473678933
v 0.155004174 0.0214307743 -0.0469511063
v 0.151883901 0.0208805457 -0.0469511063
v 0.148457752 0.0202428003 -0.0469719023
v 0.14489903 0.0199542552 -0.0467630753
v 0.142928606 0.0199811167 -0.0465343193
v 0.141409626 0.018864196 -0.0470559533
v 0.1567987 0.0195703945 -0.0467414133
v 0.15564452 0.0196258511 -0.0460664083
v 0.152281626 0.0192402579 -0.0455274433
v 0.149022712 0.018665767 -0.0455274433
v 0.145399869 0.0181320018 -0.0452579613
v 0.14380897 0.0178243939 -0.0453255483
v 0.141907867 0.0172551017 -0.0459321003
v 0.157065582 0.0180592159 -0.0467414133
v 0.155998919 0.0176129675 -0.0460664083
v 0.152707944 0.0168244508 -0.0455274433
v 0.149449033 0.01624996 -0.0455274433
v 0.145860846 0.0155125667 -0.0452579613
v 0.144262152 0.0152569485 -0.0453255483
v 0.142280462 0.0151408372 -0.0459321003
v 0.157216354 0.0169960175 -0.0476174463
v 0.156113298 0.0161572438 -0.0472214553
v 0.153344823 0.0164492549 -0.0477014973
v 0.149358914 0.0157465224 -0.0477014973
v 0.145944031 0.0144320389 -0.0472639133
v 0.144240489 0.0135534058 -0.0469095143
v 0.142281327 0.0139216693 -0.0473470973
v 0.157220686 0.016766395 -0.0487638283
v 0.15603358 0.0158011118 -0.0487638283
v 0.153646367 0.0179838299 -0.0487638283
v 0.148932596 0.0171519882 -0.0487638283
v 0.145709209 0.0151564343 -0.0487638283
v 0.143957144 0.013335914 -0.0487638283
v 0.14205084 0.014007453 -0.0487638283
v 0.156748444 0.0168123193 -0.0499717313
v 0.155610726 0.0157621191 -0.0504933653
v 0.152957498 0.0168227174 -0.0495558113
v 0.148925663 0.0161797734 -0.0495142193
v 0.145678014 0.0147249164 -0.0500557823
v 0.143777775 0.0133367803 -0.0507013263
v 0.142131423 0.0139632613 -0.0501389663
v 0.156107233 0.0178139958 -0.0509890053
v 0.154930521 0.0171901146 -0.0520669333
v 0.152025141 0.0170410759 -0.0511241793
v 0.148688242 0.0165055781 -0.0509890053
v 0.145400734 0.0156910662 -0.0515955563
v 0.143308131 0.0149848669 -0.0524724563
v 0.141994515 0.0151434369 -0.0514612483
v 0.155814353 0.0194742131 -0.0509890053
v 0.154495539 0.0196570454 -0.0520669333
v 0.151714933 0.0188035408 -0.0511241793
v 0.148395365 0.0181666621 -0.0509890053
v 0.145027271 0.0178053303 -0.0515955563
v 0.142820291 0.0177542073 -0.0524724563
v 0.141639251 0.0171563209 -0.0514612483
v 0.155797025 0.0209923246 -0.0502230173
v 0.154397622 0.0216292033 -0.0507637143
v 0.151648214 0.0203979043 -0.0503053353
v 0.148198669 0.019687373 -0.0502438133
v 0.144749127 0.0195885914 -0.0505557543
v 0.142419968 0.0200270411 -0.0510765213
v 0.141283119 0.0187740799 -0.0504309773
v 0.138839583 0.030376539 -0.0487638283
v 0.138296287 0.0327975463 -0.0487638283
v 0.137168966 0.033279321 -0.0487638283
v 0.134903066 0.0323348344 -0.0487638283
v 0.131995084 0.0317542774 -0.0487638283
v 0.129172888 0.0316650272 -0.0487638283
v 0.127237123 0.0321398714 -0.0487638283
v 0.126299568 0.030886042 -0.0487638283
v 0.126821202 0.0282570759 -0.0487638283
v 0.138608228 0.0321797304 -0.0476330433
v 0.137559761 0.0325445267 -0.0472951073
v 0.135032172 0.0320991457 -0.0472951073
v 0.132257634 0.0315827107 -0.0473124373
v 0.129373917 0.0313496206 -0.0471434693
v 0.127776954 0.0313704168 -0.0469580383
v 0.126547387 0.0304657892 -0.0473800243
v 0.139012015 0.0310376808 -0.0471252733
v 0.138077927 0.0310827384 -0.0465793773
v 0.135352781 0.0307707986 -0.0461426603
v 0.132714282 0.0303054866 -0.0461426603
v 0.129779439 0.0298722347 -0.0459234353
v 0.12849095 0.0296235502 -0.0459780243
v 0.126950311 0.0291634369 -0.0464693313
v 0.139227776 0.0298150464 -0.0471252733
v 0.138365607 0.0294511153 -0.0465793773
v 0.135698512 0.0288142366 -0.0461426603
v 0.133059149 0.0283489246 -0.0461426603
v 0.130152902 0.0277519049 -0.0459234353
v 0.128857482 0.0275448112 -0.0459780243
v 0.12725272 0.0274503624 -0.0464693313
v 0.13935082 0.0289528763 -0.0478358043
v 0.138456588 0.0282726734 -0.0475151993
v 0.136214949 0.0285100939 -0.0479033913
v 0.132985496 0.0279408025 -0.0479033913
v 0.130220489 0.0268750056 -0.0475481263
v 0.128840151 0.0261644743 -0.0472613143
v 0.127253587 0.02646255 -0.0476157133
v 0.139354283 0.0287665788 -0.0487638283
v 0.138392467 0.0279841283 -0.0487638283
v 0.136459303 0.0297526578 -0.0487638283
v 0.132639761 0.0290785203 -0.0487638283
v 0.130029858 0.027461628 -0.0487638283
v 0.128610527 0.0259877074 -0.0487638283
v 0.127067288 0.0265318707 -0.0487638283
v 0.138971291 0.0288038393 -0.0497429753
v 0.138050199 0.0279529332 -0.0501649613
v 0.135901274 0.0288125032 -0.0494050393
v 0.132634561 0.0282917362 -0.0493712463
v 0.13000473 0.0271124277 -0.0498105623
v 0.128465822 0.0259885741 -0.0503330633
v 0.12713141 0.0264954785 -0.0498772833
v 0.138453124 0.0296148848 -0.0505661523
v 0.137499104 0.0291105805 -0.0514404523
v 0.135145684 0.0289892701 -0.0506753313
v 0.132443065 0.0285551532 -0.0505661523
v 0.129780305 0.0278966116 -0.0510574583
v 0.128086295 0.0273238533 -0.0517679903
v 0.127021363 0.0274512291 -0.0509482793
v 0.1382157 0.0309596946 -0.0505661523
v 0.137146438 0.0311078665 -0.0514404523
v 0.134893534 0.0304172647 -0.0506753313
v 0.13220651 0.029899963 -0.0505661523
v 0.129477896 0.0296088194 -0.0510574583
v 0.127690304 0.0295663603 -0.0517679903
v 0.126733685 0.0290828522 -0.0509482793
v 0.138200971 0.032189261 -0.0499448703
v 0.137067585 0.032705696 -0.0503841863
v 0.134840676 0.0317074863 -0.0500124573
v 0.132046209 0.0311329963 -0.0499622003
v 0.12925174 0.0310524116 -0.0502152183
v 0.127366232 0.0314076772 -0.0506372053
v 0.126444273 0.0303921366 -0.0501138383
v 0.12427282 0.042252814 -0.0487638283
v 0.123794511 0.0444337991 -0.0487638283
v 0.122870821 0.0448835135 -0.0487638283
v 0.121044234 0.0440724664 -0.0487638283
v 0.118689081 0.0435950269 -0.0487638283
v 0.116398051 0.0435577665 -0.0487638283
v 0.114816685 0.0440135463 -0.0487638283
v 0.114074093 0.0429035568 -0.0487638283
v 0.114538538 0.0405362726 -0.0487638283
v 0.124057928 0.0438740398 -0.0477465553
v 0.123199225 0.0442189066 -0.0474424123
v 0.121152547 0.0438575772 -0.0474424123
v 0.11890484 0.0434364561 -0.0474580103
v 0.116565286 0.0432709548 -0.0473055053
v 0.115267266 0.0433151457 -0.0471382703
v 0.114282053 0.0425214296 -0.0475186653
v 0.124403661 0.0428437683 -0.0472899083
v 0.123643739 0.0428983566 -0.0467977353
v 0.12143416 0.0426609361 -0.0464043433
v 0.119295633 0.0422840091 -0.0464043433
v 0.116917085 0.0419400075 -0.0462076473
v 0.115873817 0.0417372457 -0.0462570383
v 0.114630387 0.0413473197 -0.0466998203
v 0.124597758 0.041742446 -0.0472899083
v 0.123901957 0.0414305045 -0.0467977353
v 0.121744367 0.0408984704 -0.0464043433
v 0.119605841 0.0405215434 -0.0464043433
v 0.117253288 0.0400311049 -0.0462076473
v 0.116203954 0.0398656003 -0.0462570383
v 0.114901602 0.0398058119 -0.0466998203
v 0.124710402 0.0409686594 -0.0479285203
v 0.123993806 0.0403716397 -0.0476399753
v 0.122168953 0.0406185924 -0.0479891753
v 0.119552984 0.0401576123 -0.0479891753
v 0.117321741 0.0392443192 -0.0476703023
v 0.116210886 0.03862737 -0.0474120853
v 0.114917199 0.0389185137 -0.0477309583
v 0.124716469 0.0408005563 -0.0487638283
v 0.123946148 0.0401134214 -0.0487638283
v 0.122347452 0.0417294469 -0.0487638283
v 0.119254907 0.0411835518 -0.0487638283
v 0.117157974 0.0397737517 -0.0487638283
v 0.116027188 0.038472266 -0.0487638283
v 0.114765561 0.0389843675 -0.0487638283
v 0.124404528 0.0408395502 -0.0496441943
v 0.123669735 0.0400908934 -0.0500245883
v 0.121909003 0.0408941384 -0.0493409183
v 0.119261839 0.0404782176 -0.0493105903
v 0.117143243 0.03946008 -0.0497048493
v 0.11591021 0.0384748646 -0.0501770923
v 0.114817552 0.0389514422 -0.0497655043
v 0.123970411 0.0415752112 -0.0503859193
v 0.12320269 0.0411367592 -0.0511727033
v 0.121292921 0.04106484 -0.0504847003
v 0.119102403 0.0407173715 -0.0503859193
v 0.11694828 0.0401662762 -0.0508287023
v 0.115580073 0.0396801696 -0.0514673143
v 0.114712705 0.0398101438 -0.0507299203
v 0.123756385 0.0427865784 -0.0503859193
v 0.12288555 0.042935617 -0.0511727033
v 0.121066762 0.042349863 -0.0504847003
v 0.118889244 0.0419278768 -0.0503859193
v 0.116676198 0.0417086523 -0.0508287023
v 0.115224807 0.0416982518 -0.0514673143
v 0.114453621 0.041277999 -0.0507299203
v 0.123726057 0.0438905025 -0.0498270253
v 0.122797166 0.0443696786 -0.0502212843
v 0.121002642 0.0435083753 -0.0498876813
v 0.118741072 0.0430352645 -0.0498426233
v 0.116470837 0.0430066711 -0.0500705133
v 0.114932796 0.0433550047 -0.0504491743
v 0.114199736 0.0424581743 -0.0499786633
v 0.111958096 0.0521794607 -0.0487638283
v 0.111497116 0.0543639093 -0.0487638283
v 0.110729396 0.054840487 -0.0487638283
v 0.109265008 0.0540935635 -0.0487638283
v 0.10735957 0.0536949705 -0.0487638283
v 0.105491392 0.053733096 -0.0487638283
v 0.10418644 0.054238267 -0.0487638283
v 0.103618015 0.0531586076 -0.0487638283
v 0.104072928 0.0507887249 -0.0487638283
v 0.111730205 0.0537980848 -0.0478479353
v 0.111018807 0.0541680812 -0.0475741213
v 0.109360323 0.0538760693 -0.0475741213
v 0.107540669 0.0535303343 -0.0475879853
v 0.105637831 0.0534428207 -0.0474519443
v 0.104578099 0.0535294692 -0.0473011733
v 0.103799114 0.0527712801 -0.0476425743
v 0.112045612 0.0527634813 -0.0474372143
v 0.111423464 0.0528423342 -0.0469944313
v 0.109629805 0.0526768329 -0.0466400323
v 0.107896801 0.0523709568 -0.0466400323
v 0.105967968 0.0521075383 -0.0464641323
v 0.105123995 0.0519394384 -0.0465074573
v 0.104120586 0.05159197 -0.0469051813
v 0.112239709 0.0516612906 -0.0474372143
v 0.111682548 0.0513736139 -0.0469944313
v 0.109940013 0.0509161006 -0.0466400323
v 0.108207875 0.0506110896 -0.0466400323
v 0.106305037 0.0501986357 -0.0464641323
v 0.105454132 0.050066928 -0.0465074573
v 0.104392668 0.0500504653 -0.0469051813
v 0.112357552 0.0508883724 -0.0480117043
v 0.111792594 0.0503173475 -0.0477517543
v 0.110295278 0.0506232236 -0.0480662943
v 0.108175815 0.0502497603 -0.0480662943
v 0.106386488 0.0494135867 -0.0477803483
v 0.105500057 0.0488364965 -0.0475472593
v 0.10443426 0.0491683642 -0.0478349383
v 0.11236795 0.0507202693 -0.0487638283
v 0.111761399 0.0500634611 -0.0487638283
v 0.110404457 0.0517219474 -0.0487638283
v 0.107899401 0.0512800318 -0.0487638283
v 0.106235717 0.0499464827 -0.0487638283
v 0.105355351 0.0486883229 -0.0487638283
v 0.104308617 0.0492385532 -0.0487638283
v 0.112111466 0.0507705288 -0.0495566773
v 0.111535242 0.050049597 -0.0498980793
v 0.11007432 0.0509057033 -0.0492837293
v 0.107927995 0.050577296 -0.0492551343
v 0.106233984 0.0496345445 -0.0496121333
v 0.105259169 0.0486943883 -0.0500358533
v 0.104352808 0.0492047595 -0.0496667233
v 0.111733671 0.0515157188 -0.0502238843
v 0.111121921 0.0511041299 -0.0509309493
v 0.109565684 0.0510945977 -0.0503122673
v 0.107790221 0.0508207851 -0.0502238843
v 0.106050286 0.0503433424 -0.0506216083
v 0.104950695 0.0499040252 -0.0511969653
v 0.104239297 0.0500617277 -0.0505332253
v 0.111520512 0.0527270892 -0.0502238843
v 0.110804781 0.0529029878 -0.0509309493
v 0.109339526 0.052380489 -0.0503122673
v 0.107577062 0.0520312871 -0.0502238843
v 0.10577907 0.0518839819 -0.0506216083
v 0.104595429 0.0519221075 -0.0511969653
v 0.103980213 0.0515304481 -0.0505332253
v 0.11145899 0.053825813 -0.0497213123
v 0.110685204 0.0543335825 -0.0500765783
v 0.10924941 0.0535346694 -0.0497750353
v 0.107420225 0.0531369447 -0.0497343103
v 0.105569377 0.053182869 -0.0499396713
v 0.104302551 0.0535788603 -0.0502810733
v 0.103734126 0.0527114916 -0.0498573533
v 0.144790716 -0.00972256731 -0.0503417283
v 0.141796088 -0.0027922855 -0.0500332533
v 0.136104901 -0.00318134478 -0.0490333103
v 0.131008138 -0.0044317066 -0.0481104853
v 0.12499115 -0.00549230488 -0.0470325573
v 0.114808886 -0.00202369835 -0.0453714733
v 0.110608951 -0.00434245643 -0.0445716923
v 0.110182633 -0.00845400861 -0.0443706633
v 0.112990099 -0.0153297014 -0.0446479443
v 0.143024786 -0.0049576738 -0.0473444983
v 0.137854371 -0.00569246652 -0.0463254923
v 0.130468309 -0.00706587295 -0.0450396033
v 0.12409692 -0.00691163565 -0.0432242813
v 0.116625074 -0.00663175443 -0.0410432963
v 0.111715475 -0.00792284275 -0.0403882213
v 0.110060456 -0.0101679482 -0.0411238813
v 0.144117445 -0.0082685762 -0.0465464503
v 0.13937768 -0.00915847454 -0.0458246543
v 0.129763843 -0.0107996282 -0.0439764053
v 0.123453976 -0.0109356695 -0.0405658543
v 0.117947356 -0.0123142745 -0.0405303273
v 0.112568979 -0.0130984584 -0.0391872493
v 0.110021464 -0.0137916604 -0.0393007613
v 0.144654676 -0.0113177967 -0.0465464503
v 0.139896715 -0.0121028473 -0.0458246543
v 0.130301939 -0.0138488487 -0.0439764053
v 0.124325677 -0.0158790633 -0.0405658543
v 0.11867955 -0.0164682842 -0.0405303273
v 0.113357496 -0.0175687415 -0.0391872493
v 0.11072593 -0.0177896993 -0.0393007613
v 0.14374485 -0.0145559148 -0.0474138183
v 0.139027613 -0.0154224168 -0.0465481833
v 0.132131124 -0.0157508209 -0.0458367853
v 0.123401985 -0.0188884232 -0.0433317283
v 0.118916106 -0.0201049938 -0.0422780613
v 0.114244794 -0.0214610676 -0.0411282133
v 0.11148152 -0.020279159 -0.0416160543
v 0.142362778 -0.0165549343 -0.0497100483
v 0.137680203 -0.0176441275 -0.0488643423
v 0.133579049 -0.0159986403 -0.0482032013
v 0.121938463 -0.0188399003 -0.0460950023
v 0.118562572 -0.0218050693 -0.0454173983
v 0.114486548 -0.0233127835 -0.0446626743
v 0.111767465 -0.0204576593 -0.0442788143
v 0.141063026 -0.0149926318 -0.0521119913
v 0.137176765 -0.0159977736 -0.0515842913
v 0.134176937 -0.0143973439 -0.0499223413
v 0.12412638 -0.0162403943 -0.0481598763
v 0.118358078 -0.0199195598 -0.0485333383
v 0.115015114 -0.0217513462 -0.0485913943
v 0.111370607 -0.0196960034 -0.0465135223
v 0.139797067 -0.0121479065 -0.0530590773
v 0.136666397 -0.012861903 -0.0528779793
v 0.134893534 -0.0122804809 -0.0504699703
v 0.126600244 -0.0135533716 -0.0485420033
v 0.118137987 -0.0163469738 -0.0500679133
v 0.115314057 -0.017548812 -0.0512099623
v 0.110821245 -0.0173113899 -0.0479978403
v 0.1392685 -0.00914980905 -0.0530590773
v 0.136082373 -0.00955013394 -0.0528779793
v 0.134615386 -0.0107025809 -0.0504699703
v 0.126387085 -0.0123437346 -0.0485420033
v 0.117479446 -0.0126123502 -0.0500679133
v 0.114413762 -0.0124477156 -0.0512099623
v 0.110274482 -0.0142084479 -0.0479978403
v 0.140273642 -0.00547930746 -0.0525036503
v 0.135811159 -0.00580511141 -0.0519768173
v 0.132592972 -0.00768542065 -0.0506268073
v 0.125482456 -0.00918706952 -0.0492066103
v 0.115742109 -0.00707193831 -0.0497221793
v 0.112100201 -0.00742980247 -0.0492378043
v 0.109968607 -0.0107866308 -0.0470984113
v 0.136961007 0.0152933419 -0.0508313013
v 0.136156894 0.0182593775 -0.0507827773
v 0.133555653 0.0186397721 -0.0503417283
v 0.127935523 0.0169769547 -0.0493149233
v 0.120848405 0.0156442748 -0.0480437653
v 0.114070627 0.014953673 -0.0468453933
v 0.109528424 0.0151599004 -0.0460638083
v 0.107026833 0.0133749067 -0.0455742343
v 0.107738231 0.0101402551 -0.0455993633
v 0.137042459 0.0175835058 -0.0493400523
v 0.134683839 0.0178477894 -0.0484683513
v 0.128538608 0.0167646615 -0.0473678933
v 0.121780761 0.0155385616 -0.0461807863
v 0.114866075 0.0146590625 -0.0447189973
v 0.11108986 0.0143670514 -0.0437953063
v 0.107858675 0.012947721 -0.0437779763
v 0.137895963 0.0162378284 -0.0487404323
v 0.135793828 0.0161251835 -0.0476105143
v 0.129306329 0.0151893617 -0.0458471833
v 0.12288815 0.0140577101 -0.0446973353
v 0.115820094 0.0129156604 -0.0431315663
v 0.112671226 0.0123342379 -0.0426428593
v 0.108771968 0.0114131465 -0.0426220633
v 0.138161977 0.0147257831 -0.0487404323
v 0.136149095 0.0141122995 -0.0476105143
v 0.129732648 0.0127735542 -0.0458471833
v 0.123314468 0.0116419029 -0.0446973353
v 0.116281939 0.0102970919 -0.0431315663
v 0.11312354 0.00976679284 -0.0426428593
v 0.109144564 0.00929801532 -0.0426220633
v 0.138112586 0.0136270588 -0.0496875193
v 0.135909073 0.0125950549 -0.0488262163
v 0.130496037 0.0124208881 -0.0484215603
v 0.122643796 0.0110362181 -0.0470160943
v 0.115883349 0.00913164696 -0.0452900223
v 0.112499659 0.00795667043 -0.0442666833
v 0.10867492 0.00799566301 -0.0440977153
v 0.137867367 0.0133532442 -0.0509292163
v 0.135401304 0.0121626704 -0.0504647713
v 0.131132916 0.0140135184 -0.0497802343
v 0.121846614 0.0123766964 -0.0481174173
v 0.115262067 0.00978758889 -0.0468947833
v 0.111561238 0.0076230672 -0.0461859853
v 0.107974786 0.00799912904 -0.0455742343
v 0.136727051 0.0132821909 -0.0520920623
v 0.134247123 0.0119954357 -0.0522107723
v 0.129453635 0.0126782391 -0.0503408613
v 0.121528608 0.0113490252 -0.0488764733
v 0.114885138 0.00929541581 -0.0482716553
v 0.110845507 0.00752948499 -0.0482447933
v 0.107860408 0.00792027738 -0.0471036103
v 0.13545676 0.0141729547 -0.0530460803
v 0.132864186 0.013299521 -0.0537860733
v 0.127382694 0.0126964356 -0.0517506603
v 0.120844071 0.0115959783 -0.0504292443
v 0.114214466 0.0101922452 -0.0499197413
v 0.109872425 0.00908918836 -0.0501207703
v 0.107538936 0.00906752583 -0.0485740643
v 0.135163883 0.0158331724 -0.0530460803
v 0.132429201 0.0157664519 -0.0537860733
v 0.127071621 0.0144580338 -0.0517506603
v 0.120551194 0.013256196 -0.0504292443
v 0.11384187 0.0123065098 -0.0499197413
v 0.109383718 0.0118585284 -0.0501207703
v 0.10718367 0.0110812761 -0.0485740643
v 0.135526946 0.0174188704 -0.0522930903
v 0.132814795 0.0178235272 -0.0524455943
v 0.127361898 0.0161156522 -0.0509292163
v 0.120563325 0.0148141661 -0.0496381283
v 0.113793346 0.0141304964 -0.0487941553
v 0.109248544 0.0141781538 -0.0485939933
v 0.106956646 0.0127215641 -0.0474224833
v 0.122174152 0.0269841852 -0.0497039823
v 0.1213969 0.0299554196 -0.0496606573
v 0.119041748 0.0303791392 -0.0492646663
v 0.113995242 0.0288168367 -0.0483401083
v 0.107617787 0.0276089332 -0.0471963263
v 0.101509816 0.0270361749 -0.0461175313
v 0.0974043301 0.0273195214 -0.0454130653
v 0.0951756873 0.0255830506 -0.0449737493
v 0.0958723544 0.0223466667 -0.0449954113
v 0.122234807 0.0292717498 -0.0482101333
v 0.120109278 0.0295758925 -0.0473800243
v 0.11457753 0.0286002108 -0.0463904793
v 0.108495554 0.0274936882 -0.0453238153
v 0.102270604 0.0267354991 -0.0439842043
v 0.0988713174 0.0265102077 -0.0431281003
v 0.0959668033 0.0251489336 -0.0431696923
v 0.123040654 0.0279148077 -0.0476009823
v 0.121157746 0.0278428885 -0.0465117903
v 0.115325321 0.0270214441 -0.0448645693
v 0.109548354 0.0260033049 -0.0438299663
v 0.103190829 0.0249860309 -0.0423915733
v 0.100355635 0.024460932 -0.0419583223
v 0.0968393706 0.0236074274 -0.0420068463
v 0.123306671 0.0264053616 -0.0476009823
v 0.121513012 0.0258291381 -0.0465117903
v 0.115750774 0.0246065038 -0.0448645693
v 0.109974673 0.0235874979 -0.0438299663
v 0.103651808 0.0223691963 -0.0423915733
v 0.100808816 0.0218926203 -0.0419583223
v 0.0972119664 0.0214931629 -0.0420068463
v 0.123265078 0.0253083696 -0.0485489353
v 0.121299853 0.0243153586 -0.0477309583
v 0.116404116 0.0242339072 -0.0474198833
v 0.109337793 0.0229878781 -0.0461539243
v 0.10327488 0.0212054837 -0.0445534953
v 0.10024559 0.0200937616 -0.0435934113
v 0.0967830482 0.0201968759 -0.0434885653
v 0.123025058 0.0250345553 -0.0497923663
v 0.12081981 0.0238899071 -0.0493747123
v 0.116932682 0.0258074752 -0.0487577623
v 0.108575272 0.0243344213 -0.0472613143
v 0.102674394 0.0218657587 -0.0461617233
v 0.0993686897 0.0197714237 -0.0455231113
v 0.0961236399 0.020207274 -0.0449737493
v 0.121974857 0.0249782337 -0.0509716743
v 0.119747947 0.0237365366 -0.0511345773
v 0.115424103 0.0245025228 -0.0493504503
v 0.108291926 0.0233136837 -0.0480281683
v 0.102317396 0.0213770512 -0.0475420603
v 0.0986876192 0.019683907 -0.0475888513
v 0.0959953982 0.0201258226 -0.0465005253
v 0.120792948 0.025883728 -0.0519421573
v 0.118446462 0.0250544848 -0.0527254743
v 0.113523864 0.0245501805 -0.0507905763
v 0.107641183 0.0235649683 -0.0495870043
v 0.101666653 0.0222782135 -0.0491944793
v 0.0977474646 0.0212496754 -0.0494717603
v 0.095660928 0.0212704716 -0.0479692463
v 0.120499204 0.0275456779 -0.0519421573
v 0.118011477 0.0275222832 -0.0527254743
v 0.113213656 0.0263126462 -0.0507905763
v 0.107348305 0.0252260531 -0.0495870043
v 0.10129319 0.024392478 -0.0491944793
v 0.0972596242 0.0240181496 -0.0494717603
v 0.0953065291 0.023284222 -0.0479692463
v 0.120814611 0.0291227112 -0.0511796353
v 0.118348546 0.0295706922 -0.0513754653
v 0.113463209 0.0279624654 -0.0499613333
v 0.107347439 0.0267822902 -0.0487932893
v 0.101240334 0.0262147306 -0.0480671603
v 0.0971235834 0.0263386411 -0.0479441173
v 0.0950916366 0.0249262424 -0.0468193983
v 0.109750249 0.0390909486 -0.0490012493
v 0.10897213 0.0420613179 -0.0489570583
v 0.106616978 0.0424859026 -0.0485610663
v 0.101569604 0.0409244652 -0.0476365093
v 0.0951938834 0.0397165617 -0.0464927263
v 0.0890850459 0.0391420732 -0.0454139323
v 0.0849804258 0.0394271515 -0.0447094663
v 0.082751783 0.0376906807 -0.0442701493
v 0.0834484518 0.0344534309 -0.0442918123
v 0.109810037 0.0413776465 -0.0475065343
v 0.107684508 0.0416826575 -0.0466764253
v 0.102153627 0.0407078425 -0.0456868803
v 0.0960716502 0.0396013199 -0.0446193493
v 0.089846701 0.0388431309 -0.0432797383
v 0.0864465476 0.0386169728 -0.0424245003
v 0.0835420339 0.0372565638 -0.0424660923
v 0.11061675 0.0400233061 -0.0468973833
v 0.108732975 0.0399505186 -0.0458081903
v 0.102900551 0.0391290742 -0.0441618373
v 0.0971244497 0.0381109367 -0.0431263673
v 0.0907669253 0.037093661 -0.0416871073
v 0.0879308655 0.0365668303 -0.0412555893
v 0.0844146012 0.0357133241 -0.0413032473
v 0.110882767 0.0385129934 -0.0468973833
v 0.109088241 0.0379367683 -0.0458081903
v 0.103326004 0.0367124021 -0.0441618373
v 0.0975507686 0.0356942613 -0.0431263673
v 0.0912279046 0.0344750938 -0.0416871073
v 0.0883840452 0.0340002512 -0.0412555893
v 0.0847871963 0.0335990596 -0.0413032473
v 0.110840308 0.0374151346 -0.0478453363
v 0.108875948 0.0364229887 -0.0470282253
v 0.103980213 0.0363406722 -0.0467162843
v 0.0969130232 0.0350946415 -0.0454511913
v 0.0908501101 0.0333122479 -0.0438490293
v 0.0878208192 0.0322005266 -0.0428898123
v 0.0843591447 0.032304506 -0.0427858313
v 0.110601154 0.0371413187 -0.0490896333
v 0.10839504 0.0359966705 -0.0486702463
v 0.104507912 0.0379151053 -0.0480550293
v 0.0961513682 0.0364411847 -0.0465585813
v 0.0902496244 0.0339733896 -0.0454581233
v 0.0869439199 0.0318781879 -0.0448203783
v 0.0836997364 0.0323140382 -0.0442701493
v 0.109550953 0.0370858622 -0.0502680753
v 0.107322311 0.0358433 -0.0504318443
v 0.102999333 0.0366101529 -0.0486459843
v 0.0958662891 0.0354204471 -0.0473245683
v 0.0898934921 0.0334829495 -0.0468384613
v 0.0862628487 0.0317906712 -0.0468852523
v 0.083571494 0.0322325868 -0.0457960593
v 0.108367312 0.0379922248 -0.0512376913
v 0.106020825 0.0371621165 -0.0520227413
v 0.101099094 0.0366578106 -0.0500869763
v 0.095216413 0.0356725984 -0.0488834053
v 0.0892418817 0.0343841102 -0.0484900133
v 0.0853235608 0.0333564388 -0.0487681603
v 0.0832361578 0.0333781017 -0.0472647803
v 0.108074434 0.0396524413 -0.0512376913
v 0.105585841 0.0396290449 -0.0520227413
v 0.100788886 0.0384185429 -0.0500869763
v 0.0949235351 0.0373336832 -0.0488834053
v 0.0888692867 0.036499243 -0.0484900133
v 0.0848357207 0.0361257797 -0.0487681603
v 0.0828808922 0.0353918521 -0.0472647803
v 0.108390707 0.0412294762 -0.0504760363
v 0.105924643 0.0416783223 -0.0506727313
v 0.101038439 0.0400692304 -0.0492577343
v 0.0949226684 0.0388890552 -0.0480896893
v 0.0888146969 0.038321494 -0.0473644273
v 0.0846988128 0.0384445378 -0.0472405183
v 0.0826668664 0.0370330074 -0.0461157983
v 0.0992777069 0.0493433977 -0.0485801293
v 0.0985004546 0.0523137669 -0.0485350713
v 0.0961444361 0.0527383516 -0.0481390803
v 0.0910970628 0.0511769174 -0.0472145233
v 0.0847204757 0.0499672805 -0.0460707403
v 0.0786116375 0.0493945223 -0.0449919453
v 0.074507019 0.0496787354 -0.0442883463
v 0.0722792413 0.0479413995 -0.0438481633
v 0.0729759084 0.0447058815 -0.0438698253
v 0.0993374957 0.0516292304 -0.0470845473
v 0.0972119664 0.0519333731 -0.0462544383
v 0.0916802184 0.0509585581 -0.0452648933
v 0.0855991084 0.0498529006 -0.0441982293
v 0.0793741585 0.0490955799 -0.0428594843
v 0.0759731408 0.0488685567 -0.0420033803
v 0.0730703588 0.0475072826 -0.0420449733
v 0.100144209 0.0502740217 -0.0464753963
v 0.098260434 0.0502012342 -0.0453862043
v 0.0924271434 0.0493806581 -0.0437398503
v 0.0866519079 0.0483625173 -0.0427052473
v 0.0802935185 0.0473461132 -0.0412659873
v 0.0774591905 0.0468192793 -0.0408336033
v 0.0739429246 0.0459657747 -0.0408812603
v 0.100410225 0.0487637089 -0.0464753963
v 0.0986156996 0.0481883522 -0.0453862043
v 0.0928534624 0.046963986 -0.0437398503
v 0.0870782277 0.0459458452 -0.0427052473
v 0.0807553637 0.0447275444 -0.0412659873
v 0.0779123702 0.0442518351 -0.0408336033
v 0.0743155228 0.0438506435 -0.0408812603
v 0.100367766 0.0476667185 -0.0474250823
v 0.0984034065 0.0466745726 -0.0466062383
v 0.0935076712 0.0465922561 -0.0462942983
v 0.0864404823 0.045346227 -0.0450292053
v 0.0803775684 0.0435638318 -0.0434279093
v 0.0773482774 0.0424529773 -0.0424678253
v 0.0738857379 0.0425552232 -0.0423638453
v 0.100128612 0.047393771 -0.0486676463
v 0.0979216314 0.0462482545 -0.0482499923
v 0.094035371 0.0481666893 -0.0476330433
v 0.0856779597 0.0466927687 -0.0461365943
v 0.0797779486 0.0442241068 -0.0450370033
v 0.0764722448 0.0421297702 -0.0443983923
v 0.0732263279 0.0425656205 -0.0438481633
v 0.0990784115 0.0473374461 -0.0498460893
v 0.0968506354 0.0460948839 -0.0500098573
v 0.0925267909 0.0468626051 -0.0482248643
v 0.0853946148 0.0456711643 -0.0469025823
v 0.0794200844 0.0437345334 -0.0464173413
v 0.0757903085 0.0420422535 -0.0464641323
v 0.0730980871 0.0424841691 -0.0453749393
v 0.0978947699 0.0482429404 -0.0508165713
v 0.0955482831 0.0474137005 -0.0516007553
v 0.0906265522 0.0469093946 -0.0496658563
v 0.084743872 0.0459233172 -0.0484614193
v 0.0787702067 0.0446365608 -0.0480697603
v 0.0748510206 0.0436080227 -0.0483461743
v 0.0727636177 0.0436296857 -0.0468436603
v 0.0976018924 0.0499040252 -0.0508165713
v 0.0951132987 0.0498806289 -0.0516007553
v 0.090316345 0.0486709919 -0.0496658563
v 0.0844509934 0.0475852671 -0.0484614193
v 0.078396745 0.0467508237 -0.0480697603
v 0.0743631774 0.0463773636 -0.0483461743
v 0.0724083504 0.045643436 -0.0468436603
v 0.0979181654 0.0514819252 -0.0500540493
v 0.095451235 0.0519307746 -0.0502516113
v 0.0905650311 0.0503208144 -0.0488366143
v 0.0844501267 0.0491406359 -0.0476677033
v 0.0783421552 0.0485730779 -0.0469424413
v 0.0742262727 0.0486961217 -0.0468185313
v 0.0721943263 0.0472854564 -0.0456938123
f 1 2 9
f 2 3 10
f 2 10 9
f 3 4 11
f 3 11 10
f 4 5 12
f 4 12 11
f 5 6 13
f 5 13 12
f 6 7 14
f 6 14 13
f 7 8 14
f 1 9 15
f 9 10 16
f 9 16 15
f 10 11 17
f 10 17 16
f 11 12 18
f 11 18 17
f 12 13 19
f 12 19 18
f 13 14 20
f 13 20 19
f 14 8 20
f 1 15 21
f 15 16 22
f 15 22 21
f 16 17 23
f 16 23 22
f 17 18 24
f 17 24 23
f 18 19 25
f 18 25 24
f 19 20 26
f 19 26 25
f 20 8 26
f 1 21 27
f 21 22 28
f 21 28 27
f 22 23 29
f 22 29 28
f 23 24 30
f 23 30 29
f 24 25 31
f 24 31 30
f 25 26 32
f 25 32 31
f 26 8 32
f 1 27 33
f 27 28 34
f 27 34 33
f 28 29 35
f 28 35 34
f 29 30 36
f 29 36 35
f 30 31 37
f 30 37 36
f 31 32 38
f 31 38 37
f 32 8 38
f 1 33 39
f 33 34 40
f 33 40 39
f 34 35 41
f 34 41 40
f 35 36 42
f 35 42 41
f 36 37 43
f 36 43 42
f 37 38 44
f 37 44 43
f 38 8 44
f 1 39 45
f 39 40 46
f 39 46 45
f 40 41 47
f 40 47 46
f 41 42 48
f 41 48 47
f 42 43 49
f 42 49 48
f 43 44 50
f 43 50 49
f 44 8 50
f 1 45 51
f 45 46 52
f 45 52 51
f 46 47 53
f 46 53 52
f 47 48 54
f 47 54 53
f 48 49 55
f 48 55 54
f 49 50 56
f 49 56 55
f 50 8 56
f 1 51 57
f 51 52 58
f 51 58 57
f 52 53 59
f 52 59 58
f 53 54 60
f 53 60 59
f 54 55 61
f 54 61 60
f 55 56 62
f 55 62 61
f 56 8 62
f 1 57 2
f 57 58 3
f 57 3 2
f 58 59 4
f 58 4 3
f 59 60 5
f 59 5 4
f 60 61 6
f 60 6 5
f 61 62 7
f 61 7 6
f 62 8 7
f 63 64 71
f 64 65 72
f 64 72 71
f 65 66 73
f 65 73 72
f 66 67 74
f 66 74 73
f 67 68 75
f 67 75 74
f 68 69 76
f 68 76 75
f 69 70 76
f 63 71 77
f 71 72 78
f 71 78 77
f 72 73 79
f 72 79 78
f 73 74 80
f 73 80 79
f 74 75 81
f 74 81 80
f 75 76 82
f 75 82 81
f 76 70 82
f 63 77 83
f 77 78 84
f 77 84 83
f 78 79 85
f 78 85 84
f 79 80 86
f 79 86 85
f 80 81 87
f 80 87 86
f 81 82 88
f 81 88 87
f 82 70 88
f 63 83 89
f 83 84 90
f 83 90 89
f 84 85 91
f 84 91 90
f 85 86 92
f 85 92 91
f 86 87 93
f 86 93 92
f 87 88 94
f 87 94 93
f 88 70 94
f 63 89 95
f 89 90 96
f 89 96 95
f 90 91 97
f 90 97 96
f 91 92 98
f 91 98 97
f 92 93 99
f 92 99 98
f 93 94 100
f 93 100 99
f 94 70 100
f 63 95 101
f 95 96 102
f 95 102 101
f 96 97 103
f 96 103 102
f 97 98 104
f 97 104 103
f 98 99 105
f 98 105 104
f 99 100 106
f 99 106 105
f 100 70 106
f 63 101 107
f 101 102 108
f 101 108 107
f 102 103 109
f 102 109 108
f 103 104 110
f 103 110 109
f 104 105 111
f 104 111 110
f 105 106 112
f 105 112 111
f 106 70 112
f 63 107 113
f 107 108 114
f 107 114 113
f 108 109 115
f 108 115 114
f 109 110 116
f 109 116 115
f 110 111 117
f 110 117 116
f 111 112 118
f 111 118 117
f 112 70 118
f 63 113 119
f 113 114 120
f 113 120 119
f 114 115 121
f 114 121 120
f 115 116 122
f 115 122 121
f 116 117 123
f 116 123 122
f 117 118 124
f 117 124 123
f 118 70 124
f 63 119 64
f 119 120 65
f 119 65 64
f 120 121 66
f 120 66 65
f 121 122 67
f 121 67 66
f 122 123 68
f 122 68 67
f 123 124 69
f 123 69 68
f 124 70 69
f 125 126 133
f 126 127 134
f 126 134 133
f 127 128 135
f 127 135 134
f 128 129 136
f 128 136 135
f 129 130 137
f 129 137 136
f 130 131 138
f 130 138 137
f 131 132 138
f 125 133 139
f 133 134 140
f 133 140 139
f 134 135 141
f 134 141 140
f 135 136 142
f 135 142 141
f 136 137 143
f 136 143 142
f 137 138 144
f 137 144 143
f 138 132 144
f 125 139 145
f 139 140 146
f 139 146 145
f 140 141 147
f 140 147 146
f 141 142 148
f 141 148 147
f 142 143 149
f 142 149 148
f 143 144 150
f 143 150 149
f 144 132 150
f 125 145 151
f 145 146 152
f 145 152 151
f 146 147 153
f 146 153 152
f 147 148 154
f 147 154 153
f 148 149 155
f 148 155 154
f 149 150 156
f 149 156 155
f 150 132 156
f 125 151 157
f 151 152 158
f 151 158 157
f 152 153 159
f 152 159 158
f 153 154 160
f 153 160 159
f 154 155 161
f 154 161 160
f 155 156 162
f 155 162 161
f 156 132 162
f 125 157 163
f 157 158 164
f 157 164 163
f 158 159 165
f 158 165 164
f 159 160 166
f 159 166 165
f 160 161 167
f 160 167 166
f 161 162 168
f 161 168 167
f 162 132 168
f 125 163 169
f 163 164 170
f 163 170 169
f 164 165 171
f 164 171 170
f 165 166 172
f 165 172 171
f 166 167 173
f 166 173 172
f 167 168 174
f 167 174 173
f 168 132 174
f 125 169 175
f 169 170 176
f 169 176 175
f 170 171 177
f 170 177 176
f 171 172 178
f 171 178 177
f 172 173 179
f 172 179 178
f 173 174 180
f 173 180 179
f 174 132 180
f 125 175 181
f 175 176 182
f 175 182 181
f 176 177 183
f 176 183 182
f 177 178 184
f 177 184 183
f 178 179 185
f 178 185 184
f 179 180 186
f 179 186 185
f 180 132 186
f 125 181 126
f 181 182 127
f 181 127 126
f 182 183 128
f 182 128 127
f 183 184 129
f 183 129 128
f 184 185 130
f 184 130 129
f 185 186 131
f 185 131 130
f 186 132 131
f 187 188 195
f 188 189 196
f 188 196 195
f 189 190 197
f 189 197 196
f 190 191 198
f 190 198 197
f 191 192 199
f 191 199 198
f 192 193 200
f 192 200 199
f 193 194 200
f 187 195 201
f 195 196 202
f 195 202 201
f 196 197 203
f 196 203 202
f 197 198 204
f 197 204 203
f 198 199 205
f 198 205 204
f 199 200 206
f 199 206 205
f 200 194 206
f 187 201 207
f 201 202 208
f 201 208 207
f 202 203 209
f 202 209 208
f 203 204 210
f 203 210 209
f 204 205 211
f 204 211 210
f 205 206 212
f 205 212 211
f 206 194 212
f 187 207 213
f 207 208 214
f 207 214 213
f 208 209 215
f 208 215 214
f 209 210 216
f 209 216 215
f 210 211 217
f 210 217 216
f 211 212 218
f 211 218 217
f 212 194 218
f 187 213 219
f 213 214 220
f 213 220 219
f 214 215 221
f 214 221 220
f 215 216 222
f 215 222 221
f 216 217 223
f 216 223 222
f 217 218 224
f 217 224 223
f 218 194 224
f 187 219 225
f 219 220 226
f 219 226 225
f 220 221 227
f 220 227 226
f 221 222 228
f 221 228 227
f 222 223 229
f 222 229 228
f 223 224 230
f 223 230 229
f 224 194 230
f 187 225 231
f 225 226 232
f 225 232 231
f 226 227 233
f 226 233 232
f 227 228 234
f 227 234 233
f 228 229 235
f 228 235 234
f 229 230 236
f 229 236 235
f 230 194 236
f 187 231 237
f 231 232 238
f 231 238 237
f 232 233 239
f 232 239 238
f 233 234 240
f 233 240 239
f 234 235 241
f 234 241 240
f 235 236 242
f 235 242 241
f 236 194 242
f 187 237 243
f 237 238 244
f 237 244 243
f 238 239 245
f 238 245 244
f 239 240 246
f 239 246 245
f 240 241 247
f 240 247 246
f 241 242 248
f 241 248 247
f 242 194 248
f 187 243 188
f 243 244 189
f 243 189 188
f 244 245 190
f 244 190 189
f 245 246 191
f 245 191 190
f 246 247 192
f 246 192 191
f 247 248 193
f 247 193 192
f 248 194 193
f 249 250 257
f 250 251 258
f 250 258 257
f 251 252 259
f 251 259 258
f 252 253 260
f 252 260 259
f 253 254 261
f 253 261 260
f 254 255 262
f 254 262 261
f 255 256 262
f 249 257 263
f 257 258 264
f 257 264 263
f 258 259 265
f 258 265 264
f 259 260 266
f 259 266 265
f 260 261 267
f 260 267 266
f 261 262 268
f 261 268 267
f 262 256 268
f 249 263 269
f 263 264 270
f 263 270 269
f 264 265 271
f 264 271 270
f 265 266 272
f 265 272 271
f 266 267 273
f 266 273 272
f 267 268 274
f 267 274 273
f 268 256 274
f 249 269 275
f 269 270 276
f 269 276 275
f 270 271 277
f 270 277 276
f 271 272 278
f 271 278 277
f 272 273 279
f 272 279 278
f 273 274 280
f 273 280 279
f 274 256 280
f 249 275 281
f 275 276 282
f 275 282 281
f 276 277 283
f 276 283 282
f 277 278 284
f 277 284 283
f 278 279 285
f 278 285 284
f 279 280 286
f 279 286 285
f 280 256 286
f 249 281 287
f 281 282 288
f 281 288 287
f 282 283 289
f 282 289 288
f 283 284 290
f 283 290 289
f 284 285 291
f 284 291 290
f 285 286 292
f 285 292 291
f 286 256 292
f 249 287 293
f 287 288 294
f 287 294 293
f 288 289 295
f 288 295 294
f 289 290 296
f 289 296 295
f 290 291 297
f 290 297 296
f 291 292 298
f 291 298 297
f 292 256 298
f 249 293 299
f 293 294 300
f 293 300 299
f 294 295 301
f 294 301 300
f 295 296 302
f 295 302 301
f 296 297 303
f 296 303 302
f 297 298 304
f 297 304 303
f 298 256 304
f 249 299 305
f 299 300 306
f 299 306 305
f 300 301 307
f 300 307 306
f 301 302 308
f 301 308 307
f 302 303 309
f 302 309 308
f 303 304 310
f 303 310 309
f 304 256 310
f 249 305 250
f 305 306 251
f 305 251 250
f 306 307 252
f 306 252 251
f 307 308 253
f 307 253 252
f 308 309 254
f 308 254 253
f 309 310 255
f 309 255 254
f 310 256 255
f 311 312 320
f 312 313 321
f 312 321 320
f 313 314 322
f 313 322 321
f 314 315 323
f 314 323 322
f 315 316 324
f 315 324 323
f 316 317 325
f 316 325 324
f 317 318 326
f 317 326 325
f 318 319 326
f 311 320 327
f 320 321 328
f 320 328 327
f 321 322 329
f 321 329 328
f 322 323 330
f 322 330 329
f 323 324 331
f 323 331 330
f 324 325 332
f 324 332 331
f 325 326 333
f 325 333 332
f 326 319 333
f 311 327 334
f 327 328 335
f 327 335 334
f 328 329 336
f 328 336 335
f 329 330 337
f 329 337 336
f 330 331 338
f 330 338 337
f 331 332 339
f 331 339 338
f 332 333 340
f 332 340 339
f 333 319 340
f 311 334 341
f 334 335 342
f 334 342 341
f 335 336 343
f 335 343 342
f 336 337 344
f 336 344 343
f 337 338 345
f 337 345 344
f 338 339 346
f 338 346 345
f 339 340 347
f 339 347 346
f 340 319 347
f 311 341 348
f 341 342 349
f 341 349 348
f 342 343 350
f 342 350 349
f 343 344 351
f 343 351 350
f 344 345 352
f 344 352 351
f 345 346 353
f 345 353 352
f 346 347 354
f 346 354 353
f 347 319 354
f 311 348 355
f 348 349 356
f 348 356 355
f 349 350 357
f 349 357 356
f 350 351 358
f 350 358 357
f 351 352 359
f 351 359 358
f 352 353 360
f 352 360 359
f 353 354 361
f 353 361 360
f 354 319 361
f 311 355 362
f 355 356 363
f 355 363 362
f 356 357 364
f 356 364 363
f 357 358 365
f 357 365 364
f 358 359 366
f 358 366 365
f 359 360 367
f 359 367 366
f 360 361 368
f 360 368 367
f 361 319 368
f 311 362 369
f 362 363 370
f 362 370 369
f 363 364 371
f 363 371 370
f 364 365 372
f 364 372 371
f 365 366 373
f 365 373 372
f 366 367 374
f 366 374 373
f 367 368 375
f 367 375 374
f 368 319 375
f 311 369 376
f 369 370 377
f 369 377 376
f 370 371 378
f 370 378 377
f 371 372 379
f 371 379 378
f 372 373 380
f 372 380 379
f 373 374 381
f 373 381 380
f 374 375 382
f 374 382 381
f 375 319 382
f 311 376 312
f 376 377 313
f 376 313 312
f 377 378 314
f 377 314 313
f 378 379 315
f 378 315 314
f 379 380 316
f 379 316 315
f 380 381 317
f 380 317 316
f 381 382 318
f 381 318 317
f 382 319 318
f 383 384 392
f 384 385 393
f 384 393 392
f 385 386 394
f 385 394 393
f 386 387 395
f 386 395 394
f 387 388 396
f 387 396 395
f 388 389 397
f 388 397 396
f 389 390 398
f 389 398 397
f 390 391 398
f 383 392 399
f 392 393 400
f 392 400 399
f 393 394 401
f 393 401 400
f 394 395 402
f 394 402 401
f 395 396 403
f 395 403 402
f 396 397 404
f 396 404 403
f 397 398 405
f 397 405 404
f 398 391 405
f 383 399 406
f 399 400 407
f 399 407 406
f 400 401 408
f 400 408 407
f 401 402 409
f 401 409 408
f 402 403 410
f 402 410 409
f 403 404 411
f 403 411 410
f 404 405 412
f 404 412 411
f 405 391 412
f 383 406 413
f 406 407 414
f 406 414 413
f 407 408 415
f 407 415 414
f 408 409 416
f 408 416 415
f 409 410 417
f 409 417 416
f 410 411 418
f 410 418 417
f 411 412 419
f 411 419 418
f 412 391 419
f 383 413 420
f 413 414 421
f 413 421 420
f 414 415 422
f 414 422 421
f 415 416 423
f 415 423 422
f 416 417 424
f 416 424 423
f 417 418 425
f 417 425 424
f 418 419 426
f 418 426 425
f 419 391 426
f 383 420 427
f 420 421 428
f 420 428 427
f 421 422 429
f 421 429 428
f 422 423 430
f 422 430 429
f 423 424 431
f 423 431 430
f 424 425 432
f 424 432 431
f 425 426 433
f 425 433 432
f 426 391 433
f 383 427 434
f 427 428 435
f 427 435 434
f 428 429 436
f 428 436 435
f 429 430 437
f 429 437 436
f 430 431 438
f 430 438 437
f 431 432 439
f 431 439 438
f 432 433 440
f 432 440 439
f 433 391 440
f 383 434 441
f 434 435 442
f 434 442 441
f 435 436 443
f 435 443 442
f 436 437 444
f 436 444 443
f 437 438 445
f 437 445 444
f 438 439 446
f 438 446 445
f 439 440 447
f 439 447 446
f 440 391 447
f 383 441 448
f 441 442 449
f 441 449 448
f 442 443 450
f 442 450 449
f 443 444 451
f 443 451 450
f 444 445 452
f 444 452 451
f 445 446 453
f 445 453 452
f 446 447 454
f 446 454 453
f 447 391 454
f 383 448 384
f 448 449 385
f 448 385 384
f 449 450 386
f 449 386 385
f 450 451 387
f 450 387 386
f 451 452 388
f 451 388 387
f 452 453 389
f 452 389 388
f 453 454 390
f 453 390 389
f 454 391 390
f 455 456 464
f 456 457 465
f 456 465 464
f 457 458 466
f 457 466 465
f 458 459 467
f 458 467 466
f 459 460 468
f 459 468 467
f 460 461 469
f 460 469 468
f 461 462 470
f 461 470 469
f 462 463 470
f 455 464 471
f 464 465 472
f 464 472 471
f 465 466 473
f 465 473 472
f 466 467 474
f 466 474 473
f 467 468 475
f 467 475 474
f 468 469 476
f 468 476 475
f 469 470 477
f 469 477 476
f 470 463 477
f 455 471 478
f 471 472 479
f 471 479 478
f 472 473 480
f 472 480 479
f 473 474 481
f 473 481 480
f 474 475 482
f 474 482 481
f 475 476 483
f 475 483 482
f 476 477 484
f 476 484 483
f 477 463 484
f 455 478 485
f 478 479 486
f 478 486 485
f 479 480 487
f 479 487 486
f 480 481 488
f 480 488 487
f 481 482 489
f 481 489 488
f 482 483 490
f 482 490 489
f 483 484 491
f 483 491 490
f 484 463 491
f 455 485 492
f 485 486 493
f 485 493 492
f 486 487 494
f 486 494 493
f 487 488 495
f 487 495 494
f 488 489 496
f 488 496 495
f 489 490 497
f 489 497 496
f 490 491 498
f 490 498 497
f 491 463 498
f 455 492 499
f 492 493 500
f 492 500 499
f 493 494 501
f 493 501 500
f 494 495 502
f 494 502 501
f 495 496 503
f 495 503 502
f 496 497 504
f 496 504 503
f 497 498 505
f 497 505 504
f 498 463 505
f 455 499 506
f 499 500 507
f 499 507 506
f 500 501 508
f 500 508 507
f 501 502 509
f 501 509 508
f 502 503 510
f 502 510 509
f 503 504 511
f 503 511 510
f 504 505 512
f 504 512 511
f 505 463 512
f 455 506 513
f 506 507 514
f 506 514 513
f 507 508 515
f 507 515 514
f 508 509 516
f 508 516 515
f 509 510 517
f 509 517 516
f 510 511 518
f 510 518 517
f 511 512 519
f 511 519 518
f 512 463 519
f 455 513 520
f 513 514 521
f 513 521 520
f 514 515 522
f 514 522 521
f 515 516 523
f 515 523 522
f 516 517 524
f 516 524 523
f 517 518 525
f 517 525 524
f 518 519 526
f 518 526 525
f 519 463 526
f 455 520 456
f 520 521 457
f 520 457 456
f 521 522 458
f 521 458 457
f 522 523 459
f 522 459 458
f 523 524 460
f 523 460 459
f 524 525 461
f 524 461 460
f 525 526 462
f 525 462 461
f 526 463 462
f 527 528 536
f 528 529 537
f 528 537 536
f 529 530 538
f 529 538 537
f 530 531 539
f 530 539 538
f 531 532 540
f 531 540 539
f 532 533 541
f 532 541 540
f 533 534 542
f 533 542 541
f 534 535 542
f 527 536 543
f 536 537 544
f 536 544 543
f 537 538 545
f 537 545 544
f 538 539 546
f 538 546 545
f 539 540 547
f 539 547 546
f 540 541 548
f 540 548 547
f 541 542 549
f 541 549 548
f 542 535 549
f 527 543 550
f 543 544 551
f 543 551 550
f 544 545 552
f 544 552 551
f 545 546 553
f 545 553 552
f 546 547 554
f 546 554 553
f 547 548 555
f 547 555 554
f 548 549 556
f 548 556 555
f 549 535 556
f 527 550 557
f 550 551 558
f 550 558 557
f 551 552 559
f 551 559 558
f 552 553 560
f 552 560 559
f 553 554 561
f 553 561 560
f 554 555 562
f 554 562 561
f 555 556 563
f 555 563 562
f 556 535 563
f 527 557 564
f 557 558 565
f 557 565 564
f 558 559 566
f 558 566 565
f 559 560 567
f 559 567 566
f 560 561 568
f 560 568 567
f 561 562 569
f 561 569 568
f 562 563 570
f 562 570 569
f 563 535 570
f 527 564 571
f 564 565 572
f 564 572 571
f 565 566 573
f 565 573 572
f 566 567 574
f 566 574 573
f 567 568 575
f 567 575 574
f 568 569 576
f 568 576 575
f 569 570 577
f 569 577 576
f 570 535 577
f 527 571 578
f 571 572 579
f 571 579 578
f 572 573 580
f 572 580 579
f 573 574 581
f 573 581 580
f 574 575 582
f 574 582 581
f 575 576 583
f 575 583 582
f 576 577 584
f 576 584 583
f 577 535 584
f 527 578 585
f 578 579 586
f 578 586 585
f 579 580 587
f 579 587 586
f 580 581 588
f 580 588 587
f 581 582 589
f 581 589 588
f 582 583 590
f 582 590 589
f 583 584 591
f 583 591 590
f 584 535 591
f 527 585 592
f 585 586 593
f 585 593 592
f 586 587 594
f 586 594 593
f 587 588 595
f 587 595 594
f 588 589 596
f 588 596 595
f 589 590 597
f 589 597 596
f 590 591 598
f 590 598 597
f 591 535 598
f 527 592 528
f 592 593 529
f 592 529 528
f 593 594 530
f 593 530 529
f 594 595 531
f 594 531 530
f 595 596 532
f 595 532 531
f 596 597 533
f 596 533 532
f 597 598 534
f 597 534 533
f 598 535 534
f 599 600 608
f 600 601 609
f 600 609 608
f 601 602 610
f 601 610 609
f 602 603 611
f 602 611 610
f 603 604 612
f 603 612 611
f 604 605 613
f 604 613 612
f 605 606 614
f 605 614 613
f 606 607 614
f 599 608 615
f 608 609 616
f 608 616 615
f 609 610 617
f 609 617 616
f 610 611 618
f 610 618 617
f 611 612 619
f 611 619 618
f 612 613 620
f 612 620 619
f 613 614 621
f 613 621 620
f 614 607 621
f 599 615 622
f 615 616 623
f 615 623 622
f 616 617 624
f 616 624 623
f 617 618 625
f 617 625 624
f 618 619 626
f 618 626 625
f 619 620 627
f 619 627 626
f 620 621 628
f 620 628 627
f 621 607 628
f 599 622 629
f 622 623 630
f 622 630 629
f 623 624 631
f 623 631 630
f 624 625 632
f 624 632 631
f 625 626 633
f 625 633 632
f 626 627 634
f 626 634 633
f 627 628 635
f 627 635 634
f 628 607 635
f 599 629 636
f 629 630 637
f 629 637 636
f 630 631 638
f 630 638 637
f 631 632 639
f 631 639 638
f 632 633 640
f 632 640 639
f 633 634 641
f 633 641 640
f 634 635 642
f 634 642 641
f 635 607 642
f 599 636 643
f 636 637 644
f 636 644 643
f 637 638 645
f 637 645 644
f 638 639 646
f 638 646 645
f 639 640 647
f 639 647 646
f 640 641 648
f 640 648 647
f 641 642 649
f 641 649 648
f 642 607 649
f 599 643 650
f 643 644 651
f 643 651 650
f 644 645 652
f 644 652 651
f 645 646 653
f 645 653 652
f 646 647 654
f 646 654 653
f 647 648 655
f 647 655 654
f 648 649 656
f 648 656 655
f 649 607 656
f 599 650 657
f 650 651 658
f 650 658 657
f 651 652 659
f 651 659 658
f 652 653 660
f 652 660 659
f 653 654 661
f 653 661 660
f 654 655 662
f 654 662 661
f 655 656 663
f 655 663 662
f 656 607 663
f 599 657 664
f 657 658 665
f 657 665 664
f 658 659 666
f 658 666 665
f 659 660 667
f 659 667 666
f 660 661 668
f 660 668 667
f 661 662 669
f 661 669 668
f 662 663 670
f 662 670 669
f 663 607 670
f 599 664 600
f 664 665 601
f 664 601 600
f 665 666 602
f 665 602 601
f 666 667 603
f 666 603 602
f 667 668 604
f 667 604 603
f 668 669 605
f 668 605 604
f 669 670 606
f 669 606 605
f 670 607 606
f 671 672 680
f 672 673 681
f 672 681 680
f 673 674 682
f 673 682 681
f 674 675 683
f 674 683 682
f 675 676 684
f 675 684 683
f 676 677 685
f 676 685 684
f 677 678 686
f 677 686 685
f 678 679 686
f 671 680 687
f 680 681 688
f 680 688 687
f 681 682 689
f 681 689 688
f 682 683 690
f 682 690 689
f 683 684 691
f 683 691 690
f 684 685 692
f 684 692 691
f 685 686 693
f 685 693 692
f 686 679 693
f 671 687 694
f 687 688 695
f 687 695 694
f 688 689 696
f 688 696 695
f 689 690 697
f 689 697 696
f 690 691 698
f 690 698 697
f 691 692 699
f 691 699 698
f 692 693 700
f 692 700 699
f 693 679 700
f 671 694 701
f 694 695 702
f 694 702 701
f 695 696 703
f 695 703 702
f 696 697 704
f 696 704 703
f 697 698 705
f 697 705 704
f 698 699 706
f 698 706 705
f 699 700 707
f 699 707 706
f 700 679 707
f 671 701 708
f 701 702 709
f 701 709 708
f 702 703 710
f 702 710 709
f 703 704 711
f 703 711 710
f 704 705 712
f 704 712 711
f 705 706 713
f 705 713 712
f 706 707 714
f 706 714 713
f 707 679 714
f 671 708 715
f 708 709 716
f 708 716 715
f 709 710 717
f 709 717 716
f 710 711 718
f 710 718 717
f 711 712 719
f 711 719 718
f 712 713 720
f 712 720 719
f 713 714 721
f 713 721 720
f 714 679 721
f 671 715 722
f 715 716 723
f 715 723 722
f 716 717 724
f 716 724 723
f 717 718 725
f 717 725 724
f 718 719 726
f 718 726 725
f 719 720 727
f 719 727 726
f 720 721 728
f 720 728 727
f 721 679 728
f 671 722 729
f 722 723 730
f 722 730 729
f 723 724 731
f 723 731 730
f 724 725 732
f 724 732 731
f 725 726 733
f 725 733 732
f 726 727 734
f 726 734 733
f 727 728 735
f 727 735 734
f 728 679 735
f 671 729 736
f 729 730 737
f 729 737 736
f 730 731 738
f 730 738 737
f 731 732 739
f 731 739 738
f 732 733 740
f 732 740 739
f 733 734 741
f 733 741 740
f 734 735 742
f 734 742 741
f 735 679 742
f 671 736 672
f 736 737 673
f 736 673 672
f 737 738 674
f 737 674 673
f 738 739 675
f 738 675 674
f 739 740 676
f 739 676 675
f 740 741 677
f 740 677 676
f 741 742 678
f 741 678 677
f 742 679 678
f 743 744 752
f 744 745 753
f 744 753 752
f 745 746 754
f 745 754 753
f 746 747 755
f 746 755 754
f 747 748 756
f 747 756 755
f 748 749 757
f 748 757 756
f 749 750 758
f 749 758 757
f 750 751 758
f 743 752 759
f 752 753 760
f 752 760 759
f 753 754 761
f 753 761 760
f 754 755 762
f 754 762 761
f 755 756 763
f 755 763 762
f 756 757 764
f 756 764 763
f 757 758 765
f 757 765 764
f 758 751 765
f 743 759 766
f 759 760 767
f 759 767 766
f 760 761 768
f 760 768 767
f 761 762 769
f 761 769 768
f 762 763 770
f 762 770 769
f 763 764 771
f 763 771 770
f 764 765 772
f 764 772 771
f 765 751 772
f 743 766 773
f 766 767 774
f 766 774 773
f 767 768 775
f 767 775 774
f 768 769 776
f 768 776 775
f 769 770 777
f 769 777 776
f 770 771 778
f 770 778 777
f 771 772 779
f 771 779 778
f 772 751 779
f 743 773 780
f 773 774 781
f 773 781 780
f 774 775 782
f 774 782 781
f 775 776 783
f 775 783 782
f 776 777 784
f 776 784 783
f 777 778 785
f 777 785 784
f 778 779 786
f 778 786 785
f 779 751 786
f 743 780 787
f 780 781 788
f 780 788 787
f 781 782 789
f 781 789 788
f 782 783 790
f 782 790 789
f 783 784 791
f 783 791 790
f 784 785 792
f 784 792 791
f 785 786 793
f 785 793 792
f 786 751 793
f 743 787 794
f 787 788 795
f 787 795 794
f 788 789 796
f 788 796 795
f 789 790 797
f 789 797 796
f 790 791 798
f 790 798 797
f 791 792 799
f 791 799 798
f 792 793 800
f 792 800 799
f 793 751 800
f 743 794 801
f 794 795 802
f 794 802 801
f 795 796 803
f 795 803 802
f 796 797 804
f 796 804 803
f 797 798 805
f 797 805 804
f 798 799 806
f 798 806 805
f 799 800 807
f 799 807 806
f 800 751 807
f 743 801 808
f 801 802 809
f 801 809 808
f 802 803 810
f 802 810 809
f 803 804 811
f 803 811 810
f 804 805 812
f 804 812 811
f 805 806 813
f 805 813 812
f 806 807 814
f 806 814 813
f 807 751 814
f 743 808 744
f 808 809 745
f 808 745 744
f 809 810 746
f 809 746 745
f 810 811 747
f 810 747 746
f 811 812 748
f 811 748 747
f 812 813 749
f 812 749 748
f 813 814 750
f 813 750 749
f 814 751 750
f 815 816 824
f 816 817 825
f 816 825 824
f 817 818 826
f 817 826 825
f 818 819 827
f 818 827 826
f 819 820 828
f 819 828 827
f 820 821 829
f 820 829 828
f 821 822 830
f 821 830 829
f 822 823 830
f 815 824 831
f 824 825 832
f 824 832 831
f 825 826 833
f 825 833 832
f 826 827 834
f 826 834 833
f 827 828 835
f 827 835 834
f 828 829 836
f 828 836 835
f 829 830 837
f 829 837 836
f 830 823 837
f 815 831 838
f 831 832 839
f 831 839 838
f 832 833 840
f 832 840 839
f 833 834 841
f 833 841 840
f 834 835 842
f 834 842 841
f 835 836 843
f 835 843 842
f 836 837 844
f 836 844 843
f 837 823 844
f 815 838 845
f 838 839 846
f 838 846 845
f 839 840 847
f 839 847 846
f 840 841 848
f 840 848 847
f 841 842 849
f 841 849 848
f 842 843 850
f 842 850 849
f 843 844 851
f 843 851 850
f 844 823 851
f 815 845 852
f 845 846 853
f 845 853 852
f 846 847 854
f 846 854 853
f 847 848 855
f 847 855 854
f 848 849 856
f 848 856 855
f 849 850 857
f 849 857 856
f 850 851 858
f 850 858 857
f 851 823 858
f 815 852 859
f 852 853 860
f 852 860 859
f 853 854 861
f 853 861 860
f 854 855 862
f 854 862 861
f 855 856 863
f 855 863 862
f 856 857 864
f 856 864 863
f 857 858 865
f 857 865 864
f 858 823 865
f 815 859 866
f 859 860 867
f 859 867 866
f 860 861 868
f 860 868 867
f 861 862 869
f 861 869 868
f 862 863 870
f 862 870 869
f 863 864 871
f 863 871 870
f 864 865 872
f 864 872 871
f 865 823 872
f 815 866 873
f 866 867 874
f 866 874 873
f 867 868 875
f 867 875 874
f 868 869 876
f 868 876 875
f 869 870 877
f 869 877 876
f 870 871 878
f 870 878 877
f 871 872 879
f 871 879 878
f 872 823 879
f 815 873 880
f 873 874 881
f 873 881 880
f 874 875 882
f 874 882 881
f 875 876 883
f 875 883 882
f 876 877 884
f 876 884 883
f 877 878 885
f 877 885 884
f 878 879 886
f 878 886 885
f 879 823 886
f 815 880 816
f 880 881 817
f 880 817 816
f 881 882 818
f 881 818 817
f 882 883 819
f 882 819 818
f 883 884 820
f 883 820 819
f 884 885 821
f 884 821 820
f 885 886 822
f 885 822 821
f 886 823 822
f 887 888 896
f 888 889 897
f 888 897 896
f 889 890 898
f 889 898 897
f 890 891 899
f 890 899 898
f 891 892 900
f 891 900 899
f 892 893 901
f 892 901 900
f 893 894 902
f 893 902 901
f 894 895 902
f 887 896 903
f 896 897 904
f 896 904 903
f 897 898 905
f 897 905 904
f 898 899 906
f 898 906 905
f 899 900 907
f 899 907 906
f 900 901 908
f 900 908 907
f 901 902 909
f 901 909 908
f 902 895 909
f 887 903 910
f 903 904 911
f 903 911 910
f 904 905 912
f 904 912 911
f 905 906 913
f 905 913 912
f 906 907 914
f 906 914 913
f 907 908 915
f 907 915 914
f 908 909 916
f 908 916 915
f 909 895 916
f 887 910 917
f 910 911 918
f 910 918 917
f 911 912 919
f 911 919 918
f 912 913 920
f 912 920 919
f 913 914 921
f 913 921 920
f 914 915 922
f 914 922 921
f 915 916 923
f 915 923 922
f 916 895 923
f 887 917 924
f 917 918 925
f 917 925 924
f 918 919 926
f 918 926 925
f 919 920 927
f 919 927 926
f 920 921 928
f 920 928 927
f 921 922 929
f 921 929 928
f 922 923 930
f 922 930 929
f 923 895 930
f 887 924 931
f 924 925 932
f 924 932 931
f 925 926 933
f 925 933 932
f 926 927 934
f 926 934 933
f 927 928 935
f 927 935 934
f 928 929 936
f 928 936 935
f 929 930 937
f 929 937 936
f 930 895 937
f 887 931 938
f 931 932 939
f 931 939 938
f 932 933 940
f 932 940 939
f 933 934 941
f 933 941 940
f 934 935 942
f 934 942 941
f 935 936 943
f 935 943 942
f 936 937 944
f 936 944 943
f 937 895 944
f 887 938 945
f 938 939 946
f 938 946 945
f 939 940 947
f 939 947 946
f 940 941 948
f 940 948 947
f 941 942 949
f 941 949 948
f 942 943 950
f 942 950 949
f 943 944 951
f 943 951 950
f 944 895 951
f 887 945 952
f 945 946 953
f 945 953 952
f 946 947 954
f 946 954 953
f 947 948 955
f 947 955 954
f 948 949 956
f 948 956 955
f 949 950 957
f 949 957 956
f 950 951 958
f 950 958 957
f 951 895 958
f 887 952 888
f 952 953 889
f 952 889 888
f 953 954 890
f 953 890 889
f 954 955 891
f 954 891 890
f 955 956 892
f 955 892 891
f 956 957 893
f 956 893 892
f 957 958 894
f 957 894 893
f 958 895 894
