v 0.17002218 0.00415094525 -0.0486855445
v 0.166720524 0.000113434194 -0.0486862095
v 0.15997428 -0.00221756584 -0.0486864535
v 0.159561341 0.00115479942 -0.0486858055
v 0.154856432 -0.000215821641 -0.0486859275
v 0.149560937 -0.00412277892 -0.0486865115
v 0.147434043 -0.000669210524 -0.0486857985
v 0.14907743 0.00784094268 -0.0486842415
v 0.167660539 0.00136283052 -0.0474356395
v 0.161042334 0.000571478553 -0.0466713415
v 0.157538793 0.00234565179 -0.0471223535
v 0.152932799 0.000309361964 -0.0460117485
v 0.148756333 -0.000111581505 -0.0455611255
v 0.147696392 0.00123229464 -0.0460114225
v 0.168732123 0.00335759125 -0.0470003105
v 0.162238469 0.00409478312 -0.0463258445
v 0.155791559 0.00509461664 -0.0461001785
v 0.151626467 0.00433275807 -0.0436280715
v 0.148239973 0.00554036187 -0.0446398205
v 0.148367365 0.00544937711 -0.0445271955
v 0.169080173 0.00533586493 -0.0469999475
v 0.162725911 0.00686332625 -0.0463253365
v 0.156325753 0.00812658349 -0.0460996225
v 0.152671474 0.0102649807 -0.0436269835
v 0.149076327 0.0102871804 -0.0446389495
v 0.149227094 0.0103279067 -0.0445263005
v 0.169197724 0.00723189035 -0.0475385575
v 0.164624021 0.00946063282 -0.0469834435
v 0.158600994 0.00918864269 -0.0475032215
v 0.154815753 0.0118117177 -0.0467383625
v 0.151158013 0.0135241839 -0.0463211465
v 0.149670261 0.013252792 -0.0465299815
v 0.169162879 0.00826150461 -0.0486847445
v 0.166328162 0.0109602475 -0.0486841535
v 0.160522126 0.00824379038 -0.0486844975
v 0.156192109 0.00900655089 -0.0486842275
v 0.152792933 0.014225 -0.0486831455
v 0.14959828 0.0132479889 -0.0486832375
v 0.168545123 0.00761437474 -0.0499343435
v 0.164298696 0.0112992082 -0.0510799085
v 0.161098258 0.00865914409 -0.0498308175
v 0.156666757 0.0100631479 -0.0500730445
v 0.153192209 0.0148573074 -0.0517036635
v 0.14968572 0.0133393977 -0.0508711395
v 0.167718721 0.00578088276 -0.0507084515
v 0.161701283 0.00840513263 -0.0532925575
v 0.161341055 0.00717511149 -0.0511577185
v 0.1566756 0.0084743377 -0.0519432555
v 0.152787166 0.0109265245 -0.0548645245
v 0.14923897 0.0103962179 -0.0529538855
v 0.167300545 0.00340747349 -0.0507088875
v 0.160748911 0.00299802309 -0.0532935495
v 0.160830242 0.0042748557 -0.0511582505
v 0.156002015 0.00465036637 -0.0519439575
v 0.151509259 0.00367458564 -0.0548658545
v 0.148355865 0.00538511055 -0.0529548055
v 0.166917023 0.0012280394 -0.0500403475
v 0.160110071 -0.0010429256 -0.0513949215
v 0.160068076 0.0019904687 -0.0502141725
v 0.155271201 0.00132181217 -0.0508042465
v 0.15021214 -0.00205709689 -0.0524710205
v 0.14768152 0.00114665731 -0.0513941485
v 0.165179435 -0.0207192267 -0.0486900925
v 0.164089575 -0.0220520637 -0.0486903125
v 0.161863639 -0.0228209732 -0.0486903925
v 0.161727438 -0.021708405 -0.0486901795
v 0.160174733 -0.0221600769 -0.0486902195
v 0.158427186 -0.0234496858 -0.0486904115
v 0.157725151 -0.0223103371 -0.0486901765
v 0.158267179 -0.0195019263 -0.0486896625
v 0.164399728 -0.0216396417 -0.0482777885
v 0.162216193 -0.0219008232 -0.0480256225
v 0.161060187 -0.021315207 -0.0481736505
v 0.159539585 -0.0219870352 -0.0478080695
v 0.158161872 -0.0221250367 -0.0476590175
v 0.157811737 -0.0216831436 -0.0478079615
v 0.164753171 -0.0209802101 -0.0481338355
v 0.162611151 -0.0207379416 -0.0479110365
v 0.160482975 -0.0204089932 -0.0478363935
v 0.159108765 -0.0206588986 -0.0470218895
v 0.15799091 -0.020261273 -0.0473545185
v 0.158033376 -0.0202907354 -0.0473181325
v 0.164868322 -0.0203285839 -0.0481337155
v 0.16277132 -0.0198246254 -0.0479108695
v 0.1606596 -0.0194072919 -0.0478362095
v 0.159453352 -0.0187014208 -0.0470215305
v 0.1582671 -0.0186937311 -0.0473542315
v 0.158317353 -0.0186807333 -0.0473178365
v 0.16490722 -0.01970293 -0.0483120985
v 0.163397674 -0.0189666571 -0.0481282175
v 0.161409923 -0.0190578955 -0.0482997445
v 0.160161181 -0.0181916218 -0.0480482595
v 0.158954061 -0.0176259964 -0.0479103435
v 0.158463634 -0.0177161714 -0.0479788005
v 0.164895894 -0.0193640582 -0.0486898295
v 0.163959944 -0.0184725637 -0.0486896335
v 0.162044241 -0.019368804 -0.0486897475
v 0.160615343 -0.0191168588 -0.0486896585
v 0.159493838 -0.0173952821 -0.0486893015
v 0.158439352 -0.0177169069 -0.0486893315
v 0.164692286 -0.0195763031 -0.0491023175
v 0.163290966 -0.0183598665 -0.0494807095
v 0.162234841 -0.0192317979 -0.0490683885
v 0.160772113 -0.0187684161 -0.0491479765
v 0.159625487 -0.017185382 -0.0496866095
v 0.15846792 -0.0176873057 -0.0494111225
v 0.164419422 -0.0201811129 -0.0493580425
v 0.162433243 -0.0193156045 -0.0502104595
v 0.162314617 -0.019722144 -0.0495060665
v 0.160774773 -0.0192925332 -0.0497650245
v 0.159492207 -0.0184832243 -0.0507292515
v 0.158320736 -0.0186585464 -0.0500984375
v 0.164280894 -0.0209644502 -0.0493581855
v 0.162118962 -0.0211006438 -0.0502107865
v 0.162145784 -0.0206787865 -0.0495062425
v 0.160552265 -0.0205550588 -0.0497652565
v 0.159070561 -0.0208774303 -0.0507296905
v 0.158029832 -0.0203118738 -0.0500987405
v 0.164154494 -0.0216845736 -0.0491373595
v 0.161908619 -0.0224334724 -0.0495836845
v 0.161894618 -0.021432738 -0.0491944365
v 0.160311544 -0.0216530218 -0.0493885285
v 0.158641944 -0.022768348 -0.0499389185
v 0.157807358 -0.021710537 -0.0495834295
v 0.147269593 -0.0318615688 -0.0486916745
v 0.146179726 -0.0331944058 -0.0486918945
v 0.143953793 -0.0339633161 -0.0486919745
v 0.143816724 -0.0328498813 -0.0486917605
v 0.142264019 -0.0333024192 -0.0486918005
v 0.140516473 -0.0345920272 -0.0486919935
v 0.139815305 -0.0334518125 -0.0486917585
v 0.14035733 -0.0306434009 -0.0486912445
v 0.146489886 -0.0327811179 -0.0482793705
v 0.14430548 -0.0330431654 -0.0480272045
v 0.143149477 -0.0324575492 -0.0481752325
v 0.14162974 -0.0331293773 -0.0478096505
v 0.140251159 -0.0332682448 -0.0476605985
v 0.139901892 -0.0328246182 -0.0478095435
v 0.146843326 -0.032123419 -0.0481354175
v 0.144700438 -0.0318802839 -0.0479126185
v 0.14257313 -0.0315504686 -0.0478379755
v 0.141198052 -0.0318021075 -0.0470234715
v 0.140081064 -0.0314027484 -0.0473561005
v 0.140123527 -0.0314330775 -0.0473197135
v 0.146958476 -0.0314709261 -0.0481352975
v 0.144861475 -0.0309669675 -0.0479124505
v 0.142749752 -0.0305496332 -0.0478377915
v 0.141543503 -0.0298437621 -0.0470231115
v 0.140357252 -0.029836074 -0.0473558125
v 0.140406642 -0.0298230763 -0.0473194185
v 0.146997374 -0.0308452721 -0.0483136805
v 0.145487825 -0.0301089993 -0.0481297995
v 0.143500078 -0.030198505 -0.0483013255
v 0.142251332 -0.029333098 -0.0480498405
v 0.141044216 -0.0287683393 -0.0479119255
v 0.14055292 -0.0288576461 -0.0479803815
v 0.146986049 -0.0305046677 -0.0486914105
v 0.146050098 -0.0296140399 -0.0486912155
v 0.144134392 -0.0305111461 -0.0486913285
v 0.142705494 -0.0302592018 -0.0486912405
v 0.141583993 -0.0285367575 -0.0486908825
v 0.140528638 -0.0288601158 -0.0486909135
v 0.146781572 -0.0307186453 -0.0491038995
v 0.145380252 -0.0295030746 -0.0494822905
v 0.144324124 -0.0303741393 -0.0490699695
v 0.142862268 -0.0299107574 -0.0491495585
v 0.141715642 -0.02832859 -0.0496881915
v 0.140558075 -0.0288296487 -0.0494127045
v 0.146508705 -0.0313234551 -0.0493596235
v 0.144523401 -0.0304579467 -0.0502120415
v 0.144404769 -0.0308636186 -0.0495076485
v 0.142864924 -0.0304348745 -0.0497666065
v 0.14158149 -0.0296255665 -0.0507308335
v 0.14041089 -0.0298000218 -0.0501000185
v 0.146371045 -0.0321067923 -0.0493597675
v 0.14420912 -0.0322412525 -0.0502123685
v 0.144235939 -0.0318202619 -0.0495078235
v 0.142642416 -0.0316974001 -0.0497668385
v 0.14115985 -0.0320180383 -0.0507312725
v 0.140119118 -0.0314542168 -0.0501003225
v 0.146244645 -0.032826049 -0.0491389415
v 0.143997902 -0.0335749488 -0.0495852665
v 0.143983904 -0.0325742143 -0.0491960175
v 0.142401699 -0.0327953648 -0.0493901095
v 0.140732096 -0.033910691 -0.0499405005
v 0.139896644 -0.0328528792 -0.0495850115
v 0.13309273 -0.0436610459 -0.0486934885
v 0.132002863 -0.0449938812 -0.0486937075
v 0.129776932 -0.0457627932 -0.0486937885
v 0.129639864 -0.0446502219 -0.0486935745
v 0.128088025 -0.0451027628 -0.0486936145
v 0.126340476 -0.0463915025 -0.0486938075
v 0.125638446 -0.045251288 -0.0486935715
v 0.126180469 -0.0424437431 -0.0486930585
v 0.132313023 -0.044580595 -0.0482811835
v 0.130128618 -0.0448426409 -0.0480290185
v 0.128972615 -0.0442570263 -0.0481770455
v 0.12745288 -0.0449288528 -0.0478114645
v 0.126074299 -0.045068587 -0.0476624125
v 0.12572503 -0.0446249604 -0.0478113575
v 0.132666466 -0.0439228944 -0.0481372305
v 0.130523578 -0.043679761 -0.0479144315
v 0.12839627 -0.0433508107 -0.0478397895
v 0.127022059 -0.0436015829 -0.0470252845
v 0.125904203 -0.0432039573 -0.0473579145
v 0.125946667 -0.0432334197 -0.0473215275
v 0.132781616 -0.0432704015 -0.0481371115
v 0.130684615 -0.0427664446 -0.0479142645
v 0.128572892 -0.0423499753 -0.0478396055
v 0.127366642 -0.0416441043 -0.0470249255
v 0.126180391 -0.0416372829 -0.0473576265
v 0.126229781 -0.0416225534 -0.0473212325
v 0.132820511 -0.0426447492 -0.0483154935
v 0.131310966 -0.0419093414 -0.0481316125
v 0.129323218 -0.0419997123 -0.0483031395
v 0.128074471 -0.0411334401 -0.0480516545
v 0.126867356 -0.0405686815 -0.0479137395
v 0.12637606 -0.0406579899 -0.0479821955
v 0.132809189 -0.0423050099 -0.0486932245
v 0.131873239 -0.0414143804 -0.0486930295
v 0.129957531 -0.0423106232 -0.0486931425
v 0.128528633 -0.0420595423 -0.0486930535
v 0.12740713 -0.0403371013 -0.0486926965
v 0.126352644 -0.0406595928 -0.0486927265
v 0.132604713 -0.0425189891 -0.0491057135
v 0.131203393 -0.0413034184 -0.0494841045
v 0.130148131 -0.0421736163 -0.0490717835
v 0.128685407 -0.0417110996 -0.0491513725
v 0.12753878 -0.0401271987 -0.0496900045
v 0.126381213 -0.0406291225 -0.0494145185
v 0.132331845 -0.0431237989 -0.0493614375
v 0.13034654 -0.0422582904 -0.0502138545
v 0.130227907 -0.0426639608 -0.0495094625
v 0.128688065 -0.0422352183 -0.0497684205
v 0.12740463 -0.0414250436 -0.0507326465
v 0.126234029 -0.0416003656 -0.0501018325
v 0.132194186 -0.0439071344 -0.0493615815
v 0.130032257 -0.0440415962 -0.0502141825
v 0.130059078 -0.0436214724 -0.0495096375
v 0.128465556 -0.0434968772 -0.0497686515
v 0.126983857 -0.0438183803 -0.0507330855
v 0.125942258 -0.0432536907 -0.0501021355
v 0.132067786 -0.0446263928 -0.0491407555
v 0.129821042 -0.0453752909 -0.0495870805
v 0.129807044 -0.0443745565 -0.0491978315
v 0.128224839 -0.0445948418 -0.0493919235
v 0.126555234 -0.0457101664 -0.0499423145
v 0.125719784 -0.0446523547 -0.0495868245
v 0.120358314 -0.0535167495 -0.0486949775
v 0.119268447 -0.0548487197 -0.0486951965
v 0.117042516 -0.0556176285 -0.0486952775
v 0.116906313 -0.0545041952 -0.0486950635
v 0.115353608 -0.054956733 -0.0486951035
v 0.11360606 -0.0562463411 -0.0486952965
v 0.112904029 -0.0551069916 -0.0486950605
v 0.113446052 -0.0522985816 -0.0486945475
v 0.119578607 -0.0544362986 -0.0482826725
v 0.117395067 -0.0546974792 -0.0480305065
v 0.116239065 -0.0541118615 -0.0481785345
v 0.114718462 -0.0547836913 -0.0478129535
v 0.113340749 -0.054921692 -0.0476639015
v 0.112990613 -0.0544789338 -0.0478128465
v 0.119932048 -0.0537768646 -0.0481387195
v 0.117789162 -0.0535345962 -0.0479159205
v 0.115661853 -0.0532047809 -0.0478412775
v 0.114287641 -0.0534555531 -0.0470267735
v 0.113169786 -0.0530570624 -0.0473594025
v 0.11321225 -0.0530865248 -0.0473230165
v 0.120047199 -0.05312524 -0.0481386005
v 0.117950199 -0.0526212799 -0.0479157535
v 0.115838474 -0.0522039455 -0.0478410945
v 0.114632226 -0.0514980777 -0.0470264145
v 0.113445974 -0.0514912531 -0.0473591155
v 0.11349623 -0.0514773886 -0.0473227215
v 0.120086095 -0.0524995845 -0.0483169825
v 0.118576548 -0.0517633116 -0.0481331015
v 0.116588801 -0.0518528174 -0.0483046285
v 0.115340054 -0.0509882754 -0.0480531435
v 0.114132938 -0.0504226517 -0.0479152285
v 0.113642509 -0.05051196 -0.0479836845
v 0.120074771 -0.0521589801 -0.0486947135
v 0.119138819 -0.0512692189 -0.0486945185
v 0.117223114 -0.0521645934 -0.0486946315
v 0.115795082 -0.0519126473 -0.0486945425
v 0.114672713 -0.0501910715 -0.0486941855
v 0.113618228 -0.0505135629 -0.0486942155
v 0.119871162 -0.0523729592 -0.0491072025
v 0.118469841 -0.0511573885 -0.0494855935
v 0.117413713 -0.0520284516 -0.0490732725
v 0.115950989 -0.0515642047 -0.0491528605
v 0.114804362 -0.0499820372 -0.0496914935
v 0.113646796 -0.050483961 -0.0494160075
v 0.119598294 -0.0529786341 -0.0493629265
v 0.117612122 -0.0521122606 -0.0502153435
v 0.117493491 -0.0525170658 -0.0495109505
v 0.115953647 -0.0520891885 -0.0497699095
v 0.114671079 -0.0512798788 -0.0507341355
v 0.113499612 -0.0514552009 -0.0501033215
v 0.119459768 -0.0537611046 -0.0493630705
v 0.117297841 -0.0538964315 -0.0502156705
v 0.117324661 -0.0534745743 -0.0495111265
v 0.115731139 -0.0533517124 -0.0497701405
v 0.114249439 -0.0536723538 -0.0507345745
v 0.11320784 -0.0531093943 -0.0501036255
v 0.119333368 -0.054480363 -0.0491422445
v 0.117086625 -0.0552292611 -0.0495885685
v 0.117073494 -0.0542293949 -0.0491993205
v 0.115490421 -0.0544496771 -0.0493934125
v 0.113820817 -0.0555650049 -0.0499438035
v 0.112985367 -0.0545071932 -0.0495883135
v 0.156586048 -0.0187223178 -0.0486894675
v 0.155916677 -0.021711846 -0.0486900115
v 0.154526028 -0.0223064678 -0.0486900835
v 0.151727925 -0.0211422946 -0.0486897825
v 0.148137036 -0.020426218 -0.0486895435
v 0.144652816 -0.0203158104 -0.0486894215
v 0.142261358 -0.0209027784 -0.0486894635
v 0.141104352 -0.0193553736 -0.0486891375
v 0.141748559 -0.0161084975 -0.0486885445
v 0.156302201 -0.0209486656 -0.0472939445
v 0.15500599 -0.021400379 -0.0468772045
v 0.151885637 -0.0208506024 -0.0468770105
v 0.148459396 -0.0202133493 -0.0468975865
v 0.144900638 -0.0199253591 -0.0466886025
v 0.142930224 -0.0199525492 -0.0464597935
v 0.141411067 -0.0188357502 -0.0469811735
v 0.156800253 -0.0195397789 -0.0466672125
v 0.1556461 -0.0195955299 -0.0459921845
v 0.152283166 -0.0192105254 -0.0454530495
v 0.149024168 -0.0186365066 -0.0454528475
v 0.145401257 -0.018103317 -0.0451831595
v 0.143810311 -0.0177959268 -0.0452506425
v 0.141909107 -0.0172267956 -0.0458570315
v 0.157066916 -0.0180285617 -0.0466669345
v 0.156000207 -0.017582595 -0.0459918145
v 0.152709134 -0.0167946567 -0.0454526065
v 0.14945014 -0.0162206379 -0.0454524045
v 0.145861854 -0.0154838152 -0.0451826795
v 0.144263121 -0.0152284158 -0.0452501715
v 0.142281396 -0.0151124772 -0.0458566435
v 0.157217509 -0.0169651763 -0.0475427725
v 0.156114343 -0.016126637 -0.0471465905
v 0.153345895 -0.0164189586 -0.0476266075
v 0.149359885 -0.0157168035 -0.0476263595
v 0.145944824 -0.0144028972 -0.0471884295
v 0.144241165 -0.0135245777 -0.0468338155
v 0.142282044 -0.0138930424 -0.0472714115
v 0.157221774 -0.016735337 -0.0486891105
v 0.156034529 -0.0157702258 -0.0486888945
v 0.153647631 -0.0179532896 -0.0486892375
v 0.14893374 -0.0171221307 -0.0486889435
v 0.145710064 -0.0151270438 -0.0486884745
v 0.143957735 -0.0133067773 -0.0486880805
v 0.142051528 -0.0139785924 -0.0486881515
v 0.156749503 -0.016781102 -0.0498970095
v 0.155611618 -0.0157309683 -0.0504184125
v 0.152958572 -0.0167921276 -0.0494809805
v 0.148926644 -0.0161497755 -0.0494391505
v 0.145678769 -0.0146952868 -0.0499803465
v 0.14377831 -0.0133073043 -0.0506255735
v 0.142132065 -0.0139341298 -0.0500632835
v 0.156108408 -0.0177826796 -0.0509144535
v 0.154931575 -0.0171587656 -0.0519922295
v 0.1520262 -0.0170103255 -0.0510493635
v 0.148689228 -0.0164753366 -0.0509139915
v 0.145401585 -0.0156611865 -0.0515202935
v 0.143308854 -0.0149551249 -0.0523970005
v 0.14199529 -0.0151140759 -0.0513857845
v 0.155815768 -0.0194429393 -0.0509147575
v 0.15449695 -0.0196257593 -0.0519926825
v 0.151716248 -0.0187728353 -0.0510496865
v 0.148396591 -0.0181364629 -0.0509142965
v 0.145028428 -0.0177755046 -0.0515206815
v 0.142821415 -0.017724536 -0.0523975085
v 0.141640317 -0.0171270113 -0.0513861535
v 0.155798683 -0.0209611977 -0.0501490555
v 0.154399356 -0.0215981771 -0.0506898325
v 0.151649783 -0.0203673627 -0.0502311405
v 0.148200137 -0.0196573427 -0.0501693855
v 0.144750571 -0.019559002 -0.0504812075
v 0.142421461 -0.0199976908 -0.0510019905
v 0.141284449 -0.0187450161 -0.0503561775
v 0.138842643 -0.0303481431 -0.0486911445
v 0.138299697 -0.032769229 -0.0486915855
v 0.137172446 -0.033251167 -0.0486916435
v 0.134906409 -0.0323070087 -0.0486914005
v 0.131998343 -0.0317268728 -0.0486912065
v 0.129176134 -0.0316380315 -0.0486911075
v 0.127240437 -0.032113156 -0.0486911415
v 0.126302701 -0.0308594624 -0.0486908775
v 0.126823954 -0.0282304208 -0.0486903975
v 0.138611581 -0.0321515812 -0.0475606935
v 0.137563176 -0.032516593 -0.0472227955
v 0.135035524 -0.0320715782 -0.0472226385
v 0.13226091 -0.0315555418 -0.0472397915
v 0.129377164 -0.0313229012 -0.0470706955
v 0.12778021 -0.0313439637 -0.0468852225
v 0.1265505 -0.0304394347 -0.0473070025
v 0.139015218 -0.0310095688 -0.0470527195
v 0.138081152 -0.0310548646 -0.0465068045
v 0.135355973 -0.0307434019 -0.0460699505
v 0.132717407 -0.030278472 -0.0460697855
v 0.129782507 -0.0298456867 -0.0458503945
v 0.128493982 -0.0295971785 -0.0459048995
v 0.126953261 -0.0291371957 -0.0463960745
v 0.139230801 -0.0297869032 -0.0470524955
v 0.138368596 -0.0294231999 -0.0465065055
v 0.135701422 -0.0287867899 -0.0460695915
v 0.133061991 -0.0283218602 -0.0460694275
v 0.130155664 -0.0277253028 -0.0458500055
v 0.128860212 -0.0275183864 -0.0459045185
v 0.127255422 -0.0274240774 -0.0463957605
v 0.1393537 -0.0289245814 -0.0477628675
v 0.138459379 -0.0282445685 -0.0474421075
v 0.136217763 -0.0284822405 -0.0478302805
v 0.132988228 -0.0279134168 -0.0478300795
v 0.130223077 -0.0268480874 -0.0474745325
v 0.128842644 -0.0261378102 -0.0471875465
v 0.127256113 -0.0264360488 -0.0475419565
v 0.139357109 -0.0287381084 -0.0486908565
v 0.13839518 -0.0279557973 -0.0486906805
v 0.136462272 -0.0297246067 -0.0486909585
v 0.132642633 -0.0290510224 -0.0486907205
v 0.130032495 -0.0274345082 -0.0486903405
v 0.128612951 -0.0259607932 -0.0486900215
v 0.12706979 -0.02650518 -0.0486900795
v 0.138974094 -0.0287752397 -0.0496699985
v 0.138052867 -0.0279243876 -0.0500917985
v 0.135904089 -0.028784412 -0.0493319765
v 0.132637301 -0.0282641246 -0.0492979895
v 0.130007286 -0.0270851142 -0.0497370075
v 0.128468201 -0.025961385 -0.0502592525
v 0.127133875 -0.0264685687 -0.0498035285
v 0.138456021 -0.029586205 -0.0504933135
v 0.137501902 -0.0290818741 -0.0513674915
v 0.135148487 -0.0289610489 -0.0506022795
v 0.132445808 -0.028527344 -0.0504929405
v 0.129782939 -0.0278690955 -0.0509840455
v 0.128088825 -0.0272964487 -0.0516944195
v 0.127023936 -0.0274241332 -0.0508747025
v 0.138218792 -0.0309310492 -0.0504935605
v 0.137149526 -0.0310792112 -0.0513678575
v 0.134896544 -0.03038908 -0.0506025415
v 0.132209448 -0.0298721881 -0.0504931865
v 0.129480778 -0.0295813471 -0.0509843595
v 0.127693159 -0.0295390129 -0.0516948315
v 0.126736494 -0.029055798 -0.0508750015
v 0.138204259 -0.0321607349 -0.0498725105
v 0.137070935 -0.0326772512 -0.0503118905
v 0.134843892 -0.0316794342 -0.0499399095
v 0.132049343 -0.0311053584 -0.0498894625
v 0.129254855 -0.0310251308 -0.0501423855
v 0.127369386 -0.03138059 -0.0505643845
v 0.126447296 -0.0303652816 -0.0500407985
v 0.1242776 -0.0422265277 -0.0486929625
v 0.123799606 -0.044407582 -0.0486933595
v 0.122875981 -0.0448574302 -0.0486934175
v 0.121049278 -0.0440466477 -0.0486932115
v 0.118694055 -0.0435695494 -0.0486930535
v 0.11640302 -0.0435326207 -0.0486929805
v 0.11482172 -0.0439886296 -0.0486930205
v 0.114078967 -0.0428787477 -0.0486927895
v 0.114543069 -0.0405113964 -0.0486923565
v 0.124062972 -0.0438479764 -0.0476759885
v 0.123204327 -0.0441930248 -0.0473718865
v 0.121157598 -0.0438319919 -0.0473717595
v 0.118909829 -0.0434111935 -0.0473872115
v 0.116570255 -0.0432460598 -0.0472346085
v 0.115272247 -0.0432904703 -0.0470673445
v 0.114286908 -0.0424968252 -0.0474475605
v 0.124408569 -0.0428177409 -0.0472191575
v 0.123648669 -0.042872532 -0.0467269725
v 0.121439068 -0.0426355057 -0.0463334725
v 0.119300485 -0.0422588886 -0.0463333395
v 0.116921893 -0.0419152685 -0.0461365095
v 0.115878595 -0.0417126486 -0.0461858315
v 0.114635095 -0.0413228192 -0.0466285045
v 0.124602506 -0.0417163905 -0.0472189555
v 0.123906675 -0.0414046426 -0.0467267035
v 0.121749019 -0.0408729952 -0.0463331495
v 0.119610438 -0.040496378 -0.0463330165
v 0.11725782 -0.0400063173 -0.0461361595
v 0.116208461 -0.0398409555 -0.0461854885
v 0.114906087 -0.0397812721 -0.0466282225
v 0.12471502 -0.0409424672 -0.0478574245
v 0.123998346 -0.0403456057 -0.0475687465
v 0.122173519 -0.0405927569 -0.0479179405
v 0.119557483 -0.0401321557 -0.0479177775
v 0.117326117 -0.039219246 -0.0475986685
v 0.11621518 -0.0386025064 -0.0473403025
v 0.114921526 -0.0388937773 -0.0476591925
v 0.124721039 -0.0407742058 -0.0486927015
v 0.123950618 -0.0400871824 -0.0486925495
v 0.122352156 -0.0417034395 -0.0486928075
v 0.119259532 -0.0411579924 -0.0486926155
v 0.117162394 -0.039748496 -0.0486922885
v 0.11603142 -0.0384471742 -0.0486920105
v 0.114769868 -0.0389594584 -0.0486920705
v 0.124409077 -0.0408130789 -0.0495730655
v 0.123674165 -0.0400644568 -0.0499532975
v 0.121913569 -0.0408680857 -0.0492697275
v 0.119266346 -0.0404525541 -0.0492392455
v 0.117147591 -0.0394346491 -0.0496332505
v 0.115914402 -0.0384495232 -0.0501052725
v 0.114821824 -0.0389263367 -0.0496937425
v 0.123975046 -0.0415486629 -0.0503149165
v 0.123207238 -0.0411101737 -0.0511015955
v 0.121297478 -0.0410386609 -0.0504135245
v 0.119106914 -0.0406915283 -0.0503146145
v 0.116952697 -0.0401406615 -0.0507572305
v 0.115584402 -0.0396546327 -0.0513957115
v 0.114717074 -0.0397848716 -0.0506583175
v 0.123761195 -0.042760061 -0.0503151395
v 0.122890359 -0.0429090775 -0.0511019255
v 0.121071506 -0.0423237166 -0.0504137605
v 0.11889393 -0.0419020644 -0.0503148365
v 0.116680839 -0.0416830771 -0.0507575135
v 0.115229428 -0.0416727664 -0.0513960815
v 0.114458202 -0.0412527644 -0.0506585865
v 0.123731043 -0.0438640949 -0.0497564525
v 0.12280221 -0.0443433312 -0.0501507745
v 0.121007571 -0.0434823507 -0.0498169575
v 0.118745934 -0.043009576 -0.0497717445
v 0.116475688 -0.0429812685 -0.0499995635
v 0.114937687 -0.0433297535 -0.0503782455
v 0.11420451 -0.042433118 -0.0499075445
v 0.111964313 -0.0521549578 -0.0486944775
v 0.11150365 -0.0543394732 -0.0486948755
v 0.110735999 -0.054816162 -0.0486949435
v 0.109271502 -0.0540694507 -0.0486947605
v 0.107366007 -0.0536711336 -0.0486946295
v 0.105497835 -0.0537095298 -0.0486945825
v 0.104192956 -0.0542148898 -0.0486946405
v 0.103624374 -0.0531353127 -0.0486944205
v 0.104078945 -0.0507653642 -0.0486939865
v 0.111736684 -0.0537737875 -0.0477788835
v 0.111025347 -0.0541439387 -0.0475051175
v 0.109366821 -0.053852167 -0.0475050145
v 0.107547116 -0.0535066929 -0.0475187605
v 0.105644269 -0.0534194806 -0.0473826485
v 0.104584555 -0.053506311 -0.0472318625
v 0.10380545 -0.0527481704 -0.0475730995
v 0.112051952 -0.0527392159 -0.0473679755
v 0.111429829 -0.0528182424 -0.0469251895
v 0.109636156 -0.0526530677 -0.0465707075
v 0.107903108 -0.0523474426 -0.0465705995
v 0.105974242 -0.0520843366 -0.0463945945
v 0.105130243 -0.0519163509 -0.0464378635
v 0.104126772 -0.0515689528 -0.0468354925
v 0.11224589 -0.0516369971 -0.0473677735
v 0.1116887 -0.0513494845 -0.0469249205
v 0.109946109 -0.0508922905 -0.0465703845
v 0.108213927 -0.0505875304 -0.0465702765
v 0.106311034 -0.0501753852 -0.0463942445
v 0.10546011 -0.0500437927 -0.0464375195
v 0.104398631 -0.0500274088 -0.0468352105
v 0.112363605 -0.0508639535 -0.0479421215
v 0.111798571 -0.0502930595 -0.0476820475
v 0.110301291 -0.0505990931 -0.0479966015
v 0.108181773 -0.0502259368 -0.0479964695
v 0.106392334 -0.0493900763 -0.0477103145
v 0.105505826 -0.0488131585 -0.0474770915
v 0.104440068 -0.0491451263 -0.0477648015
v 0.112373957 -0.0506957071 -0.0486942135
v 0.11176731 -0.0500389868 -0.0486940725
v 0.110410608 -0.0516976696 -0.0486943455
v 0.107905488 -0.0512561168 -0.0486941905
v 0.106241611 -0.0499228088 -0.0486938905
v 0.105361063 -0.0486647765 -0.0486936275
v 0.104314409 -0.0492151584 -0.0486937015
v 0.112117457 -0.0507458543 -0.0494870645
v 0.111541118 -0.0500249416 -0.0498283145
v 0.110080338 -0.0508813753 -0.0492140835
v 0.107933967 -0.0505532843 -0.0491853645
v 0.106239808 -0.0496107109 -0.0495421365
v 0.105264845 -0.048670616 -0.0499656505
v 0.104358569 -0.0491811881 -0.0495965915
v 0.11173975 -0.0514909732 -0.0501544015
v 0.11112792 -0.0510793396 -0.0508613715
v 0.109571699 -0.0510701495 -0.0502426425
v 0.1077962 -0.0507966107 -0.0501541555
v 0.106056183 -0.050319345 -0.0505517395
v 0.104956512 -0.0498800787 -0.0511269825
v 0.104245156 -0.0500380094 -0.0504632515
v 0.111526767 -0.0527023744 -0.0501546235
v 0.110811041 -0.0528782434 -0.0508617015
v 0.109345728 -0.0523560735 -0.0502428775
v 0.107583216 -0.0520071436 -0.0501543785
v 0.105785191 -0.0518600238 -0.0505520225
v 0.104601539 -0.0518982123 -0.0511273525
v 0.103986285 -0.0515067672 -0.0504635205
v 0.111465418 -0.0538012019 -0.0496522575
v 0.110691696 -0.0543090165 -0.0500075965
v 0.109255795 -0.0535103682 -0.0497058615
v 0.107426553 -0.0531129161 -0.0496650085
v 0.105575706 -0.0531590698 -0.0498703245
v 0.104308928 -0.0535551803 -0.0502117645
v 0.103740389 -0.0526879738 -0.0497878645
v 0.144787921 0.00975212158 -0.0502616565
v 0.141794307 0.00282134805 -0.0499544015
v 0.136103092 0.00320939444 -0.0489542205
v 0.131006175 0.004458844 -0.0480310125
v 0.124989065 0.00551836749 -0.0469527105
v 0.114807351 0.00204797303 -0.0452919855
v 0.110607104 0.00436597191 -0.0444916455
v 0.110180196 0.00847742432 -0.0442898295
v 0.112986658 0.0153535758 -0.0445658955
v 0.143022769 0.00498640734 -0.0472652745
v 0.137852277 0.005720259 -0.0462459795
v 0.130466053 0.00709235311 -0.0449596185
v 0.124094739 0.0069368507 -0.0431441415
v 0.116622997 0.00665547603 -0.0409629925
v 0.11171323 0.00794572968 -0.0403075315
v 0.110057865 0.0101907341 -0.0410427205
v 0.144114971 0.00829731744 -0.0464666335
v 0.139375098 0.00918639314 -0.0457445325
v 0.129761077 0.0108258058 -0.0438956965
v 0.12345129 0.0109602901 -0.0404849365
v 0.117944471 0.0123380908 -0.0404489905
v 0.112566019 0.0131212424 -0.0391056085
v 0.1100184 0.0138140967 -0.0392189155
v 0.144651761 0.0113466156 -0.0464660735
v 0.139893707 0.012130841 -0.0457439925
v 0.130298732 0.0138751041 -0.0438951365
v 0.124322274 0.01590381 -0.0404840295
v 0.118676064 0.0164922064 -0.0404482285
v 0.113353889 0.0175916396 -0.0391047885
v 0.110722287 0.0178122376 -0.0392181825
v 0.14374144 0.0145847654 -0.0473328055
v 0.139024103 0.0154504209 -0.0464668705
v 0.132127587 0.0157776919 -0.0457552105
v 0.123398066 0.0189135575 -0.0432493095
v 0.118912042 0.0201292797 -0.0421952835
v 0.114240566 0.02148446 -0.0410450445
v 0.111477449 0.0203022431 -0.0415330285
v 0.142359012 0.0165840176 -0.0496286185
v 0.137676304 0.0176723731 -0.0487825715
v 0.133575408 0.0160261672 -0.0481216225
v 0.121934471 0.0188653436 -0.0460125505
v 0.11855817 0.0218298958 -0.0453342895
v 0.11448195 0.0233368773 -0.0445791635
v 0.111763291 0.0204812869 -0.0441957635
v 0.141059417 0.0150219797 -0.0520308185
v 0.137173026 0.0160264591 -0.0515028165
v 0.134173478 0.0144252816 -0.0498410815
v 0.124122705 0.0162665439 -0.0480779775
v 0.11835386 0.0199449442 -0.0484505795
v 0.115010629 0.0217762572 -0.0485081925
v 0.11136648 0.0197199949 -0.0464306035
v 0.139793843 0.0121772497 -0.0529784045
v 0.136663074 0.0128907586 -0.0527970805
v 0.134890365 0.0123086257 -0.0503891305
v 0.126596947 0.0135799516 -0.0484606835
v 0.118134242 0.0163726158 -0.0499858215
v 0.115310105 0.0175742602 -0.0511275625
v 0.110817419 0.0173355817 -0.0479153545
v 0.13926571 0.00917907578 -0.0529789545
v 0.13607953 0.00957890502 -0.0527976875
v 0.134612446 0.0107306855 -0.0503894195
v 0.126383963 0.0123702838 -0.0484609055
v 0.117476241 0.0126378969 -0.0499865065
v 0.114410548 0.0124730335 -0.0511284985
v 0.110271106 0.0142325606 -0.0479159245
v 0.140271399 0.00550861517 -0.0524242475
v 0.135808885 0.00583367341 -0.0518972245
v 0.132590465 0.00771326193 -0.0505467665
v 0.125479772 0.00921361307 -0.0491260815
v 0.115739717 0.00709716827 -0.0496417665
v 0.112097771 0.00745441359 -0.0491572195
v 0.109965753 0.0108105297 -0.0470171315
v 0.136961822 -0.0152648287 -0.0507557205
v 0.13615814 -0.0182309899 -0.0507077315
v 0.133556967 -0.0186118444 -0.0502666785
v 0.127936626 -0.0169500347 -0.0492393975
v 0.120849351 -0.015618621 -0.0479677835
v 0.114071508 -0.0149292269 -0.0467690845
v 0.109529358 -0.0151362595 -0.0459874075
v 0.107027523 -0.0133517205 -0.0454974245
v 0.107738452 -0.0101169613 -0.0455219645
v 0.137043649 -0.0175552619 -0.0492649045
v 0.134685092 -0.0178200515 -0.0483931855
v 0.128539737 -0.0167380212 -0.0472923455
v 0.121781746 -0.015513124 -0.0461048115
v 0.114866976 -0.0146349021 -0.0446426565
v 0.111090745 -0.0143436121 -0.0437188015
v 0.107859355 -0.0129247531 -0.0437011105
v 0.137896976 -0.016209574 -0.0486650565
v 0.135794857 -0.0160974466 -0.0475350555
v 0.129307274 -0.0151628969 -0.0457713605
v 0.122888964 -0.0140323918 -0.0446211135
v 0.115820788 -0.0128916612 -0.0430549245
v 0.11267185 -0.0123107869 -0.0425660165
v 0.108772459 -0.0113902642 -0.0425449335
v 0.13816277 -0.0146974902 -0.0486647785
v 0.136149832 -0.0140845112 -0.0475346865
v 0.129733242 -0.0127470278 -0.0457709175
v 0.123314932 -0.0116165229 -0.0446206695
v 0.116282254 -0.0102730258 -0.0430544435
v 0.113123792 -0.00974327638 -0.0425655455
v 0.109144749 -0.00927507914 -0.0425445455
v 0.138113193 -0.0135985945 -0.0496116565
v 0.135909555 -0.0125670722 -0.0487500955
v 0.130496506 -0.0123937658 -0.0483452495
v 0.122644105 -0.0110104981 -0.0469392955
v 0.115883432 -0.0091072317 -0.0452126685
v 0.112499602 -0.00793293825 -0.0441890105
v 0.108674873 -0.00797251668 -0.0440199395
v 0.137867898 -0.0133245813 -0.0508532955
v 0.135401676 -0.0121344524 -0.0503885545
v 0.131133575 -0.0139860476 -0.0497042435
v 0.121847086 -0.0123508842 -0.0480408485
v 0.115262199 -0.00976296104 -0.0468175355
v 0.111561076 -0.00759910909 -0.0461082225
v 0.107974697 -0.00797580575 -0.0454964385
v 0.136727537 -0.0132534739 -0.0520160945
v 0.13424742 -0.0119670556 -0.0521344905
v 0.129454085 -0.0126509059 -0.0502645695
v 0.121528908 -0.011323116 -0.0487997015
v 0.114885159 -0.00927058299 -0.0481943035
v 0.110845272 -0.0075052424 -0.0481669915
v 0.107860263 -0.00789668231 -0.0470257965
v 0.135457348 -0.0141442419 -0.0529702435
v 0.132864627 -0.0132710443 -0.0537099975
v 0.127383106 -0.0126691365 -0.0516743115
v 0.120844362 -0.0115698755 -0.0503524995
v 0.114214569 -0.0101671988 -0.0498425395
v 0.109872362 -0.00906473299 -0.0500432345
v 0.107538914 -0.00904370006 -0.0484964565
v 0.135164712 -0.015804502 -0.0529705485
v 0.132429999 -0.015738038 -0.0537104495
v 0.127072289 -0.0144307797 -0.0516746345
v 0.120551726 -0.0132301356 -0.0503528035
v 0.113842279 -0.0122815173 -0.0498429275
v 0.109384056 -0.0118341437 -0.0500437425
v 0.10718394 -0.0110575018 -0.0484968265
v 0.135528026 -0.0173902893 -0.0522178675
v 0.132815929 -0.0177953102 -0.0523703695
v 0.127362829 -0.0160885109 -0.0508535125
v 0.120564105 -0.0147882531 -0.0495619815
v 0.113794052 -0.0141057231 -0.0487176845
v 0.109249263 -0.0141540765 -0.0485173995
v 0.106957188 -0.0126980397 -0.0473455485
v 0.122176693 -0.0269580261 -0.0496301775
v 0.121399872 -0.0299293811 -0.0495873895
v 0.119044794 -0.0303535165 -0.0491914105
v 0.113998088 -0.0287921193 -0.0482664115
v 0.107620492 -0.0275853552 -0.0471222175
v 0.101512468 -0.0270136851 -0.0460431375
v 0.0974070443 -0.027297759 -0.0453386065
v 0.0951781627 -0.0255616939 -0.0448988975
v 0.0958743604 -0.0223252051 -0.0449199705
v 0.122237723 -0.0292458635 -0.0481367615
v 0.120112262 -0.0295504705 -0.0473066485
v 0.114580402 -0.0285757767 -0.0463167585
v 0.108498296 -0.0274703361 -0.0452497105
v 0.102273275 -0.0267133013 -0.0439097755
v 0.0988739806 -0.0264886637 -0.0430535305
v 0.0959692681 -0.0251278025 -0.0430947815
v 0.12304339 -0.0278889195 -0.0475273775
v 0.121160504 -0.0278174784 -0.0464381165
v 0.115328008 -0.0269971894 -0.0447905735
v 0.109550923 -0.0259800821 -0.0437556105
v 0.103193293 -0.0249640001 -0.0423168415
v 0.100358036 -0.0244393935 -0.0418834095
v 0.0968416458 -0.0235863892 -0.0419316705
v 0.123309189 -0.0263794349 -0.0475271005
v 0.121515478 -0.0258036766 -0.0464377475
v 0.11575311 -0.0245821875 -0.0447901305
v 0.109976892 -0.0235642134 -0.0437551675
v 0.103653893 -0.0223470988 -0.0423163615
v 0.100810844 -0.0218710163 -0.0418829385
v 0.0972139354 -0.0214720708 -0.0419312835
v 0.12326741 -0.0252822702 -0.0484748455
v 0.121302064 -0.0242896981 -0.0476566235
v 0.116406325 -0.0242090145 -0.0473453925
v 0.109339859 -0.0229642477 -0.0460789935
v 0.103276734 -0.0211830332 -0.0444780535
v 0.10024731 -0.020071931 -0.0435176725
v 0.0967847865 -0.0201755666 -0.0434127445
v 0.123027314 -0.0250082563 -0.0497182175
v 0.120821912 -0.0238640063 -0.0493002835
v 0.11693508 -0.0257822537 -0.0486835835
v 0.1085775 -0.0243106925 -0.0471866155
v 0.102676297 -0.021843092 -0.0460863875
v 0.0993703073 -0.0197493563 -0.0454472855
v 0.0961253366 -0.0201857802 -0.0448979115
v 0.12197707 -0.0249518645 -0.0508974855
v 0.119749977 -0.0237104592 -0.0510600895
v 0.115426295 -0.0244774081 -0.0492759815
v 0.108293984 -0.0232898513 -0.0479532685
v 0.102319187 -0.0213541759 -0.0474666225
v 0.0986891644 -0.0196615487 -0.0475129895
v 0.095997039 -0.0201040595 -0.0464246685
v 0.120795265 -0.0258573469 -0.0518681035
v 0.118448636 -0.025028296 -0.0526511975
v 0.113526021 -0.0245250695 -0.0507160615
v 0.107643232 -0.0235409363 -0.0495121335
v 0.101668527 -0.022255121 -0.0491191935
v 0.097749182 -0.0212270983 -0.0493961665
v 0.0956626919 -0.02124848 -0.0478935955
v 0.120501762 -0.0275193394 -0.0518684085
v 0.118014008 -0.0274961573 -0.0526516495
v 0.113216068 -0.0262875801 -0.0507163845
v 0.107350595 -0.0252020635 -0.0495124385
v 0.101295371 -0.0243694395 -0.0491195805
v 0.0972617426 -0.0239956431 -0.0493966745
v 0.0953085847 -0.0232622816 -0.0478939645
v 0.120817419 -0.0290964707 -0.0511061935
v 0.118351413 -0.029544772 -0.0513020365
v 0.113465884 -0.0279375195 -0.0498874605
v 0.107349977 -0.0267584503 -0.0487190165
v 0.101242811 -0.0261919122 -0.0479926035
v 0.0971260821 -0.0263164422 -0.0478694645
v 0.0950939634 -0.0249045499 -0.0467444205
v 0.109754564 -0.0390667212 -0.0489293675
v 0.108976876 -0.0420372114 -0.0488857135
v 0.106621797 -0.0424622118 -0.0484897335
v 0.101574225 -0.0409016799 -0.0475647355
v 0.0951983618 -0.0396949156 -0.0464205405
v 0.0890894725 -0.0391215154 -0.0453414605
v 0.0849849142 -0.039407321 -0.0446369295
v 0.0827560326 -0.0376712558 -0.0441972215
v 0.0834522319 -0.0344339011 -0.0442182935
v 0.109814727 -0.0413536921 -0.0474350845
v 0.107689266 -0.0416591675 -0.0466049715
v 0.102158272 -0.0406853402 -0.0456150825
v 0.0960761662 -0.0395798999 -0.0445471675
v 0.0898511462 -0.0388228651 -0.0432072325
v 0.0864509849 -0.0385973607 -0.0423518545
v 0.0835462729 -0.0372373646 -0.0423931055
v 0.110621261 -0.0399993498 -0.0468257015
v 0.108737507 -0.0399270405 -0.0457364405
v 0.102905012 -0.0391067513 -0.0440897635
v 0.0971287931 -0.0380896456 -0.0430539345
v 0.0907711632 -0.0370735622 -0.0416142985
v 0.0879350397 -0.0365472237 -0.0411825995
v 0.0844186504 -0.0356942178 -0.0412299945
v 0.110887059 -0.0384889985 -0.0468254245
v 0.109092481 -0.0379132387 -0.0457360705
v 0.103330115 -0.0366900176 -0.0440893195
v 0.097554762 -0.0356729086 -0.0430534905
v 0.0912317632 -0.0344549283 -0.0416138185
v 0.0883878476 -0.033980579 -0.0411821285
v 0.0847909392 -0.0335798994 -0.0412296065
v 0.110844414 -0.0373909672 -0.0477731695
v 0.108879934 -0.0363992599 -0.0469558145
v 0.103984196 -0.0363177114 -0.0466437165
v 0.0969168624 -0.0350729429 -0.0453781835
v 0.0908537377 -0.0332917296 -0.0437755105
v 0.0878243135 -0.032180628 -0.0428159955
v 0.0843626572 -0.0322851284 -0.0427119345
v 0.110605184 -0.0371169514 -0.0490174075
v 0.108398916 -0.0359727019 -0.0485977405
v 0.104512084 -0.0378918156 -0.0479827735
v 0.0961553703 -0.0364193876 -0.0464858045
v 0.0902533011 -0.0339526549 -0.0453847115
v 0.0869473116 -0.0318580523 -0.0447464755
v 0.0837032072 -0.0322944763 -0.0441962345
v 0.109554941 -0.0370614248 -0.0501958095
v 0.107326114 -0.0358191545 -0.0503592785
v 0.103003299 -0.0365869703 -0.0485734385
v 0.0958701212 -0.0353985468 -0.0472515915
v 0.0898970577 -0.0334620061 -0.0467649465
v 0.0862661679 -0.0317702449 -0.0468113135
v 0.0835749088 -0.0322127558 -0.0457221255
v 0.108371403 -0.037967776 -0.0511655615
v 0.106024773 -0.0371378597 -0.0519503875
v 0.101103025 -0.0366346316 -0.0500143845
v 0.0952202364 -0.0356504984 -0.0488104575
v 0.08924553 -0.0343629498 -0.0484166495
v 0.0853270522 -0.0333357936 -0.0486944895
v 0.083239696 -0.0333580423 -0.0471910525
v 0.108078765 -0.0396280349 -0.0511658655
v 0.105590146 -0.039604851 -0.0519508395
v 0.100793073 -0.0383954088 -0.0500147075
v 0.0949275992 -0.0373116256 -0.0488107625
v 0.0888732414 -0.0364781365 -0.0484170375
v 0.0848396133 -0.036105205 -0.0486949975
v 0.082884722 -0.035371844 -0.0471914215
v 0.108395289 -0.0412051675 -0.0504045175
v 0.105929284 -0.0416543338 -0.0506012255
v 0.101042888 -0.0400462165 -0.0491857835
v 0.0949269808 -0.0388671473 -0.0480173395
v 0.0888189481 -0.0383006076 -0.0472917935
v 0.0847030855 -0.0384242709 -0.0471677885
v 0.0826709672 -0.0370132469 -0.0460427435
v 0.0992835192 -0.0493207662 -0.0485098765
v 0.0985066985 -0.0522912564 -0.0484653565
v 0.0961507529 -0.052716257 -0.0480693765
v 0.0911031804 -0.0511557283 -0.0471443785
v 0.0847264512 -0.0499472307 -0.0460001835
v 0.0786175614 -0.0493755607 -0.0449211035
v 0.0745130045 -0.049660501 -0.0442174395
v 0.0722849879 -0.0479235708 -0.0437768645
v 0.0729811858 -0.0446879479 -0.0437979375
v 0.0993436825 -0.0516068722 -0.0470147275
v 0.0972182213 -0.0519114792 -0.0461846145
v 0.0916863608 -0.0509376521 -0.0451947255
v 0.0856051217 -0.0498330766 -0.0441276775
v 0.0793801009 -0.0490769099 -0.0427886085
v 0.0759790752 -0.0488505408 -0.0419323635
v 0.0730760949 -0.0474896793 -0.0419736155
v 0.100150217 -0.0502516615 -0.0464053445
v 0.0982664631 -0.0501793522 -0.0453160835
v 0.0924331015 -0.0493599315 -0.0436694065
v 0.0866577486 -0.0483428223 -0.0426344435
v 0.0802992537 -0.0473276106 -0.0411948085
v 0.0774648619 -0.0468012687 -0.0407622425
v 0.0739484711 -0.0459482645 -0.0408096375
v 0.100416014 -0.0487413103 -0.0464050675
v 0.0986214372 -0.0481664188 -0.0453157145
v 0.0928590704 -0.0469431977 -0.0436689625
v 0.0870837183 -0.0459260885 -0.0426340005
v 0.0807607196 -0.044708975 -0.0411943285
v 0.0779176698 -0.044233759 -0.0407617715
v 0.0743207629 -0.0438330794 -0.0408092495
v 0.100373369 -0.047644147 -0.0473545455
v 0.0984088894 -0.04665244 -0.0465354575
v 0.0935131513 -0.0465708914 -0.0462233595
v 0.0864458187 -0.0453261246 -0.0449578275
v 0.0803826931 -0.0435449095 -0.0433560195
v 0.0773532691 -0.0424346748 -0.0423956385
v 0.0738907474 -0.0425374419 -0.0422915775
v 0.100134139 -0.0473709998 -0.0485970505
v 0.097927005 -0.0462258818 -0.0481791165
v 0.0940410404 -0.0481449957 -0.0475624165
v 0.085683459 -0.0466725678 -0.0460654485
v 0.0797831223 -0.044204968 -0.0449652215
v 0.0764771337 -0.0421112306 -0.0443261185
v 0.073231296 -0.0425476549 -0.0437758785
v 0.0990838966 -0.0473146049 -0.0497754525
v 0.0968559358 -0.0460723345 -0.0499389225
v 0.0925322542 -0.0468410186 -0.0481539475
v 0.085399944 -0.0456508601 -0.0468312345
v 0.0794251472 -0.0437151862 -0.0463454555
v 0.0757951249 -0.0420234232 -0.0463918225
v 0.0731029991 -0.0424659342 -0.0453026355
v 0.097900358 -0.0482200876 -0.0507460705
v 0.0955537284 -0.0473910398 -0.0515300305
v 0.0906319805 -0.0468878116 -0.0495948945
v 0.0847491926 -0.0459028134 -0.0483901005
v 0.0787753523 -0.0446169962 -0.0479980265
v 0.0748560092 -0.0435889737 -0.0482741325
v 0.072768653 -0.0436112222 -0.0467715625
v 0.0976077211 -0.0498812148 -0.0507463755
v 0.0951191013 -0.0498580311 -0.0515304825
v 0.0903220285 -0.0486494538 -0.0495952175
v 0.0844565546 -0.0475648057 -0.0483904055
v 0.0784021968 -0.0467313131 -0.0479984135
v 0.0743685671 -0.0463583851 -0.0482746405
v 0.0724136774 -0.0456250239 -0.0467719315
v 0.0979242447 -0.0514592127 -0.0499841605
v 0.0954573736 -0.0519083822 -0.0501817355
v 0.0905709776 -0.0502993965 -0.0487662935
v 0.0844559362 -0.0491203242 -0.0475969825
v 0.0783479036 -0.0485537877 -0.0468714365
v 0.0742320425 -0.048677451 -0.0467474315
v 0.0721999244 -0.0472672921 -0.0456223875
f 9 2 1
f 9 10 3
f 9 3 2
f 10 11 4
f 10 4 3
f 11 12 5
f 11 5 4
f 12 13 6
f 12 6 5
f 13 14 7
f 13 7 6
f 14 8 7
f 15 9 1
f 15 16 10
f 15 10 9
f 16 17 11
f 16 11 10
f 17 18 12
f 17 12 11
f 18 19 13
f 18 13 12
f 19 20 14
f 19 14 13
f 20 8 14
f 21 15 1
f 21 22 16
f 21 16 15
f 22 23 17
f 22 17 16
f 23 24 18
f 23 18 17
f 24 25 19
f 24 19 18
f 25 26 20
f 25 20 19
f 26 8 20
f 27 21 1
f 27 28 22
f 27 22 21
f 28 29 23
f 28 23 22
f 29 30 24
f 29 24 23
f 30 31 25
f 30 25 24
f 31 32 26
f 31 26 25
f 32 8 26
f 33 27 1
f 33 34 28
f 33 28 27
f 34 35 29
f 34 29 28
f 35 36 30
f 35 30 29
f 36 37 31
f 36 31 30
f 37 38 32
f 37 32 31
f 38 8 32
f 39 33 1
f 39 40 34
f 39 34 33
f 40 41 35
f 40 35 34
f 41 42 36
f 41 36 35
f 42 43 37
f 42 37 36
f 43 44 38
f 43 38 37
f 44 8 38
f 45 39 1
f 45 46 40
f 45 40 39
f 46 47 41
f 46 41 40
f 47 48 42
f 47 42 41
f 48 49 43
f 48 43 42
f 49 50 44
f 49 44 43
f 50 8 44
f 51 45 1
f 51 52 46
f 51 46 45
f 52 53 47
f 52 47 46
f 53 54 48
f 53 48 47
f 54 55 49
f 54 49 48
f 55 56 50
f 55 50 49
f 56 8 50
f 57 51 1
f 57 58 52
f 57 52 51
f 58 59 53
f 58 53 52
f 59 60 54
f 59 54 53
f 60 61 55
f 60 55 54
f 61 62 56
f 61 56 55
f 62 8 56
f 2 57 1
f 2 3 58
f 2 58 57
f 3 4 59
f 3 59 58
f 4 5 60
f 4 60 59
f 5 6 61
f 5 61 60
f 6 7 62
f 6 62 61
f 7 8 62
f 71 64 63
f 71 72 65
f 71 65 64
f 72 73 66
f 72 66 65
f 73 74 67
f 73 67 66
f 74 75 68
f 74 68 67
f 75 76 69
f 75 69 68
f 76 70 69
f 77 71 63
f 77 78 72
f 77 72 71
f 78 79 73
f 78 73 72
f 79 80 74
f 79 74 73
f 80 81 75
f 80 75 74
f 81 82 76
f 81 76 75
f 82 70 76
f 83 77 63
f 83 84 78
f 83 78 77
f 84 85 79
f 84 79 78
f 85 86 80
f 85 80 79
f 86 87 81
f 86 81 80
f 87 88 82
f 87 82 81
f 88 70 82
f 89 83 63
f 89 90 84
f 89 84 83
f 90 91 85
f 90 85 84
f 91 92 86
f 91 86 85
f 92 93 87
f 92 87 86
f 93 94 88
f 93 88 87
f 94 70 88
f 95 89 63
f 95 96 90
f 95 90 89
f 96 97 91
f 96 91 90
f 97 98 92
f 97 92 91
f 98 99 93
f 98 93 92
f 99 100 94
f 99 94 93
f 100 70 94
f 101 95 63
f 101 102 96
f 101 96 95
f 102 103 97
f 102 97 96
f 103 104 98
f 103 98 97
f 104 105 99
f 104 99 98
f 105 106 100
f 105 100 99
f 106 70 100
f 107 101 63
f 107 108 102
f 107 102 101
f 108 109 103
f 108 103 102
f 109 110 104
f 109 104 103
f 110 111 105
f 110 105 104
f 111 112 106
f 111 106 105
f 112 70 106
f 113 107 63
f 113 114 108
f 113 108 107
f 114 115 109
f 114 109 108
f 115 116 110
f 115 110 109
f 116 117 111
f 116 111 110
f 117 118 112
f 117 112 111
f 118 70 112
f 119 113 63
f 119 120 114
f 119 114 113
f 120 121 115
f 120 115 114
f 121 122 116
f 121 116 115
f 122 123 117
f 122 117 116
f 123 124 118
f 123 118 117
f 124 70 118
f 64 119 63
f 64 65 120
f 64 120 119
f 65 66 121
f 65 121 120
f 66 67 122
f 66 122 121
f 67 68 123
f 67 123 122
f 68 69 124
f 68 124 123
f 69 70 124
f 133 126 125
f 133 134 127
f 133 127 126
f 134 135 128
f 134 128 127
f 135 136 129
f 135 129 128
f 136 137 130
f 136 130 129
f 137 138 131
f 137 131 130
f 138 132 131
f 139 133 125
f 139 140 134
f 139 134 133
f 140 141 135
f 140 135 134
f 141 142 136
f 141 136 135
f 142 143 137
f 142 137 136
f 143 144 138
f 143 138 137
f 144 132 138
f 145 139 125
f 145 146 140
f 145 140 139
f 146 147 141
f 146 141 140
f 147 148 142
f 147 142 141
f 148 149 143
f 148 143 142
f 149 150 144
f 149 144 143
f 150 132 144
f 151 145 125
f 151 152 146
f 151 146 145
f 152 153 147
f 152 147 146
f 153 154 148
f 153 148 147
f 154 155 149
f 154 149 148
f 155 156 150
f 155 150 149
f 156 132 150
f 157 151 125
f 157 158 152
f 157 152 151
f 158 159 153
f 158 153 152
f 159 160 154
f 159 154 153
f 160 161 155
f 160 155 154
f 161 162 156
f 161 156 155
f 162 132 156
f 163 157 125
f 163 164 158
f 163 158 157
f 164 165 159
f 164 159 158
f 165 166 160
f 165 160 159
f 166 167 161
f 166 161 160
f 167 168 162
f 167 162 161
f 168 132 162
f 169 163 125
f 169 170 164
f 169 164 163
f 170 171 165
f 170 165 164
f 171 172 166
f 171 166 165
f 172 173 167
f 172 167 166
f 173 174 168
f 173 168 167
f 174 132 168
f 175 169 125
f 175 176 170
f 175 170 169
f 176 177 171
f 176 171 170
f 177 178 172
f 177 172 171
f 178 179 173
f 178 173 172
f 179 180 174
f 179 174 173
f 180 132 174
f 181 175 125
f 181 182 176
f 181 176 175
f 182 183 177
f 182 177 176
f 183 184 178
f 183 178 177
f 184 185 179
f 184 179 178
f 185 186 180
f 185 180 179
f 186 132 180
f 126 181 125
f 126 127 182
f 126 182 181
f 127 128 183
f 127 183 182
f 128 129 184
f 128 184 183
f 129 130 185
f 129 185 184
f 130 131 186
f 130 186 185
f 131 132 186
f 195 188 187
f 195 196 189
f 195 189 188
f 196 197 190
f 196 190 189
f 197 198 191
f 197 191 190
f 198 199 192
f 198 192 191
f 199 200 193
f 199 193 192
f 200 194 193
f 201 195 187
f 201 202 196
f 201 196 195
f 202 203 197
f 202 197 196
f 203 204 198
f 203 198 197
f 204 205 199
f 204 199 198
f 205 206 200
f 205 200 199
f 206 194 200
f 207 201 187
f 207 208 202
f 207 202 201
f 208 209 203
f 208 203 202
f 209 210 204
f 209 204 203
f 210 211 205
f 210 205 204
f 211 212 206
f 211 206 205
f 212 194 206
f 213 207 187
f 213 214 208
f 213 208 207
f 214 215 209
f 214 209 208
f 215 216 210
f 215 210 209
f 216 217 211
f 216 211 210
f 217 218 212
f 217 212 211
f 218 194 212
f 219 213 187
f 219 220 214
f 219 214 213
f 220 221 215
f 220 215 214
f 221 222 216
f 221 216 215
f 222 223 217
f 222 217 216
f 223 224 218
f 223 218 217
f 224 194 218
f 225 219 187
f 225 226 220
f 225 220 219
f 226 227 221
f 226 221 220
f 227 228 222
f 227 222 221
f 228 229 223
f 228 223 222
f 229 230 224
f 229 224 223
f 230 194 224
f 231 225 187
f 231 232 226
f 231 226 225
f 232 233 227
f 232 227 226
f 233 234 228
f 233 228 227
f 234 235 229
f 234 229 228
f 235 236 230
f 235 230 229
f 236 194 230
f 237 231 187
f 237 238 232
f 237 232 231
f 238 239 233
f 238 233 232
f 239 240 234
f 239 234 233
f 240 241 235
f 240 235 234
f 241 242 236
f 241 236 235
f 242 194 236
f 243 237 187
f 243 244 238
f 243 238 237
f 244 245 239
f 244 239 238
f 245 246 240
f 245 240 239
f 246 247 241
f 246 241 240
f 247 248 242
f 247 242 241
f 248 194 242
f 188 243 187
f 188 189 244
f 188 244 243
f 189 190 245
f 189 245 244
f 190 191 246
f 190 246 245
f 191 192 247
f 191 247 246
f 192 193 248
f 192 248 247
f 193 194 248
f 257 250 249
f 257 258 251
f 257 251 250
f 258 259 252
f 258 252 251
f 259 260 253
f 259 253 252
f 260 261 254
f 260 254 253
f 261 262 255
f 261 255 254
f 262 256 255
f 263 257 249
f 263 264 258
f 263 258 257
f 264 265 259
f 264 259 258
f 265 266 260
f 265 260 259
f 266 267 261
f 266 261 260
f 267 268 262
f 267 262 261
f 268 256 262
f 269 263 249
f 269 270 264
f 269 264 263
f 270 271 265
f 270 265 264
f 271 272 266
f 271 266 265
f 272 273 267
f 272 267 266
f 273 274 268
f 273 268 267
f 274 256 268
f 275 269 249
f 275 276 270
f 275 270 269
f 276 277 271
f 276 271 270
f 277 278 272
f 277 272 271
f 278 279 273
f 278 273 272
f 279 280 274
f 279 274 273
f 280 256 274
f 281 275 249
f 281 282 276
f 281 276 275
f 282 283 277
f 282 277 276
f 283 284 278
f 283 278 277
f 284 285 279
f 284 279 278
f 285 286 280
f 285 280 279
f 286 256 280
f 287 281 249
f 287 288 282
f 287 282 281
f 288 289 283
f 288 283 282
f 289 290 284
f 289 284 283
f 290 291 285
f 290 285 284
f 291 292 286
f 291 286 285
f 292 256 286
f 293 287 249
f 293 294 288
f 293 288 287
f 294 295 289
f 294 289 288
f 295 296 290
f 295 290 289
f 296 297 291
f 296 291 290
f 297 298 292
f 297 292 291
f 298 256 292
f 299 293 249
f 299 300 294
f 299 294 293
f 300 301 295
f 300 295 294
f 301 302 296
f 301 296 295
f 302 303 297
f 302 297 296
f 303 304 298
f 303 298 297
f 304 256 298
f 305 299 249
f 305 306 300
f 305 300 299
f 306 307 301
f 306 301 300
f 307 308 302
f 307 302 301
f 308 309 303
f 308 303 302
f 309 310 304
f 309 304 303
f 310 256 304
f 250 305 249
f 250 251 306
f 250 306 305
f 251 252 307
f 251 307 306
f 252 253 308
f 252 308 307
f 253 254 309
f 253 309 308
f 254 255 310
f 254 310 309
f 255 256 310
f 320 312 311
f 320 321 313
f 320 313 312
f 321 322 314
f 321 314 313
f 322 323 315
f 322 315 314
f 323 324 316
f 323 316 315
f 324 325 317
f 324 317 316
f 325 326 318
f 325 318 317
f 326 319 318
f 327 320 311
f 327 328 321
f 327 321 320
f 328 329 322
f 328 322 321
f 329 330 323
f 329 323 322
f 330 331 324
f 330 324 323
f 331 332 325
f 331 325 324
f 332 333 326
f 332 326 325
f 333 319 326
f 334 327 311
f 334 335 328
f 334 328 327
f 335 336 329
f 335 329 328
f 336 337 330
f 336 330 329
f 337 338 331
f 337 331 330
f 338 339 332
f 338 332 331
f 339 340 333
f 339 333 332
f 340 319 333
f 341 334 311
f 341 342 335
f 341 335 334
f 342 343 336
f 342 336 335
f 343 344 337
f 343 337 336
f 344 345 338
f 344 338 337
f 345 346 339
f 345 339 338
f 346 347 340
f 346 340 339
f 347 319 340
f 348 341 311
f 348 349 342
f 348 342 341
f 349 350 343
f 349 343 342
f 350 351 344
f 350 344 343
f 351 352 345
f 351 345 344
f 352 353 346
f 352 346 345
f 353 354 347
f 353 347 346
f 354 319 347
f 355 348 311
f 355 356 349
f 355 349 348
f 356 357 350
f 356 350 349
f 357 358 351
f 357 351 350
f 358 359 352
f 358 352 351
f 359 360 353
f 359 353 352
f 360 361 354
f 360 354 353
f 361 319 354
f 362 355 311
f 362 363 356
f 362 356 355
f 363 364 357
f 363 357 356
f 364 365 358
f 364 358 357
f 365 366 359
f 365 359 358
f 366 367 360
f 366 360 359
f 367 368 361
f 367 361 360
f 368 319 361
f 369 362 311
f 369 370 363
f 369 363 362
f 370 371 364
f 370 364 363
f 371 372 365
f 371 365 364
f 372 373 366
f 372 366 365
f 373 374 367
f 373 367 366
f 374 375 368
f 374 368 367
f 375 319 368
f 376 369 311
f 376 377 370
f 376 370 369
f 377 378 371
f 377 371 370
f 378 379 372
f 378 372 371
f 379 380 373
f 379 373 372
f 380 381 374
f 380 374 373
f 381 382 375
f 381 375 374
f 382 319 375
f 312 376 311
f 312 313 377
f 312 377 376
f 313 314 378
f 313 378 377
f 314 315 379
f 314 379 378
f 315 316 380
f 315 380 379
f 316 317 381
f 316 381 380
f 317 318 382
f 317 382 381
f 318 319 382
f 392 384 383
f 392 393 385
f 392 385 384
f 393 394 386
f 393 386 385
f 394 395 387
f 394 387 386
f 395 396 388
f 395 388 387
f 396 397 389
f 396 389 388
f 397 398 390
f 397 390 389
f 398 391 390
f 399 392 383
f 399 400 393
f 399 393 392
f 400 401 394
f 400 394 393
f 401 402 395
f 401 395 394
f 402 403 396
f 402 396 395
f 403 404 397
f 403 397 396
f 404 405 398
f 404 398 397
f 405 391 398
f 406 399 383
f 406 407 400
f 406 400 399
f 407 408 401
f 407 401 400
f 408 409 402
f 408 402 401
f 409 410 403
f 409 403 402
f 410 411 404
f 410 404 403
f 411 412 405
f 411 405 404
f 412 391 405
f 413 406 383
f 413 414 407
f 413 407 406
f 414 415 408
f 414 408 407
f 415 416 409
f 415 409 408
f 416 417 410
f 416 410 409
f 417 418 411
f 417 411 410
f 418 419 412
f 418 412 411
f 419 391 412
f 420 413 383
f 420 421 414
f 420 414 413
f 421 422 415
f 421 415 414
f 422 423 416
f 422 416 415
f 423 424 417
f 423 417 416
f 424 425 418
f 424 418 417
f 425 426 419
f 425 419 418
f 426 391 419
f 427 420 383
f 427 428 421
f 427 421 420
f 428 429 422
f 428 422 421
f 429 430 423
f 429 423 422
f 430 431 424
f 430 424 423
f 431 432 425
f 431 425 424
f 432 433 426
f 432 426 425
f 433 391 426
f 434 427 383
f 434 435 428
f 434 428 427
f 435 436 429
f 435 429 428
f 436 437 430
f 436 430 429
f 437 438 431
f 437 431 430
f 438 439 432
f 438 432 431
f 439 440 433
f 439 433 432
f 440 391 433
f 441 434 383
f 441 442 435
f 441 435 434
f 442 443 436
f 442 436 435
f 443 444 437
f 443 437 436
f 444 445 438
f 444 438 437
f 445 446 439
f 445 439 438
f 446 447 440
f 446 440 439
f 447 391 440
f 448 441 383
f 448 449 442
f 448 442 441
f 449 450 443
f 449 443 442
f 450 451 444
f 450 444 443
f 451 452 445
f 451 445 444
f 452 453 446
f 452 446 445
f 453 454 447
f 453 447 446
f 454 391 447
f 384 448 383
f 384 385 449
f 384 449 448
f 385 386 450
f 385 450 449
f 386 387 451
f 386 451 450
f 387 388 452
f 387 452 451
f 388 389 453
f 388 453 452
f 389 390 454
f 389 454 453
f 390 391 454
f 464 456 455
f 464 465 457
f 464 457 456
f 465 466 458
f 465 458 457
f 466 467 459
f 466 459 458
f 467 468 460
f 467 460 459
f 468 469 461
f 468 461 460
f 469 470 462
f 469 462 461
f 470 463 462
f 471 464 455
f 471 472 465
f 471 465 464
f 472 473 466
f 472 466 465
f 473 474 467
f 473 467 466
f 474 475 468
f 474 468 467
f 475 476 469
f 475 469 468
f 476 477 470
f 476 470 469
f 477 463 470
f 478 471 455
f 478 479 472
f 478 472 471
f 479 480 473
f 479 473 472
f 480 481 474
f 480 474 473
f 481 482 475
f 481 475 474
f 482 483 476
f 482 476 475
f 483 484 477
f 483 477 476
f 484 463 477
f 485 478 455
f 485 486 479
f 485 479 478
f 486 487 480
f 486 480 479
f 487 488 481
f 487 481 480
f 488 489 482
f 488 482 481
f 489 490 483
f 489 483 482
f 490 491 484
f 490 484 483
f 491 463 484
f 492 485 455
f 492 493 486
f 492 486 485
f 493 494 487
f 493 487 486
f 494 495 488
f 494 488 487
f 495 496 489
f 495 489 488
f 496 497 490
f 496 490 489
f 497 498 491
f 497 491 490
f 498 463 491
f 499 492 455
f 499 500 493
f 499 493 492
f 500 501 494
f 500 494 493
f 501 502 495
f 501 495 494
f 502 503 496
f 502 496 495
f 503 504 497
f 503 497 496
f 504 505 498
f 504 498 497
f 505 463 498
f 506 499 455
f 506 507 500
f 506 500 499
f 507 508 501
f 507 501 500
f 508 509 502
f 508 502 501
f 509 510 503
f 509 503 502
f 510 511 504
f 510 504 503
f 511 512 505
f 511 505 504
f 512 463 505
f 513 506 455
f 513 514 507
f 513 507 506
f 514 515 508
f 514 508 507
f 515 516 509
f 515 509 508
f 516 517 510
f 516 510 509
f 517 518 511
f 517 511 510
f 518 519 512
f 518 512 511
f 519 463 512
f 520 513 455
f 520 521 514
f 520 514 513
f 521 522 515
f 521 515 514
f 522 523 516
f 522 516 515
f 523 524 517
f 523 517 516
f 524 525 518
f 524 518 517
f 525 526 519
f 525 519 518
f 526 463 519
f 456 520 455
f 456 457 521
f 456 521 520
f 457 458 522
f 457 522 521
f 458 459 523
f 458 523 522
f 459 460 524
f 459 524 523
f 460 461 525
f 460 525 524
f 461 462 526
f 461 526 525
f 462 463 526
f 536 528 527
f 536 537 529
f 536 529 528
f 537 538 530
f 537 530 529
f 538 539 531
f 538 531 530
f 539 540 532
f 539 532 531
f 540 541 533
f 540 533 532
f 541 542 534
f 541 534 533
f 542 535 534
f 543 536 527
f 543 544 537
f 543 537 536
f 544 545 538
f 544 538 537
f 545 546 539
f 545 539 538
f 546 547 540
f 546 540 539
f 547 548 541
f 547 541 540
f 548 549 542
f 548 542 541
f 549 535 542
f 550 543 527
f 550 551 544
f 550 544 543
f 551 552 545
f 551 545 544
f 552 553 546
f 552 546 545
f 553 554 547
f 553 547 546
f 554 555 548
f 554 548 547
f 555 556 549
f 555 549 548
f 556 535 549
f 557 550 527
f 557 558 551
f 557 551 550
f 558 559 552
f 558 552 551
f 559 560 553
f 559 553 552
f 560 561 554
f 560 554 553
f 561 562 555
f 561 555 554
f 562 563 556
f 562 556 555
f 563 535 556
f 564 557 527
f 564 565 558
f 564 558 557
f 565 566 559
f 565 559 558
f 566 567 560
f 566 560 559
f 567 568 561
f 567 561 560
f 568 569 562
f 568 562 561
f 569 570 563
f 569 563 562
f 570 535 563
f 571 564 527
f 571 572 565
f 571 565 564
f 572 573 566
f 572 566 565
f 573 574 567
f 573 567 566
f 574 575 568
f 574 568 567
f 575 576 569
f 575 569 568
f 576 577 570
f 576 570 569
f 577 535 570
f 578 571 527
f 578 579 572
f 578 572 571
f 579 580 573
f 579 573 572
f 580 581 574
f 580 574 573
f 581 582 575
f 581 575 574
f 582 583 576
f 582 576 575
f 583 584 577
f 583 577 576
f 584 535 577
f 585 578 527
f 585 586 579
f 585 579 578
f 586 587 580
f 586 580 579
f 587 588 581
f 587 581 580
f 588 589 582
f 588 582 581
f 589 590 583
f 589 583 582
f 590 591 584
f 590 584 583
f 591 535 584
f 592 585 527
f 592 593 586
f 592 586 585
f 593 594 587
f 593 587 586
f 594 595 588
f 594 588 587
f 595 596 589
f 595 589 588
f 596 597 590
f 596 590 589
f 597 598 591
f 597 591 590
f 598 535 591
f 528 592 527
f 528 529 593
f 528 593 592
f 529 530 594
f 529 594 593
f 530 531 595
f 530 595 594
f 531 532 596
f 531 596 595
f 532 533 597
f 532 597 596
f 533 534 598
f 533 598 597
f 534 535 598
f 608 600 599
f 608 609 601
f 608 601 600
f 609 610 602
f 609 602 601
f 610 611 603
f 610 603 602
f 611 612 604
f 611 604 603
f 612 613 605
f 612 605 604
f 613 614 606
f 613 606 605
f 614 607 606
f 615 608 599
f 615 616 609
f 615 609 608
f 616 617 610
f 616 610 609
f 617 618 611
f 617 611 610
f 618 619 612
f 618 612 611
f 619 620 613
f 619 613 612
f 620 621 614
f 620 614 613
f 621 607 614
f 622 615 599
f 622 623 616
f 622 616 615
f 623 624 617
f 623 617 616
f 624 625 618
f 624 618 617
f 625 626 619
f 625 619 618
f 626 627 620
f 626 620 619
f 627 628 621
f 627 621 620
f 628 607 621
f 629 622 599
f 629 630 623
f 629 623 622
f 630 631 624
f 630 624 623
f 631 632 625
f 631 625 624
f 632 633 626
f 632 626 625
f 633 634 627
f 633 627 626
f 634 635 628
f 634 628 627
f 635 607 628
f 636 629 599
f 636 637 630
f 636 630 629
f 637 638 631
f 637 631 630
f 638 639 632
f 638 632 631
f 639 640 633
f 639 633 632
f 640 641 634
f 640 634 633
f 641 642 635
f 641 635 634
f 642 607 635
f 643 636 599
f 643 644 637
f 643 637 636
f 644 645 638
f 644 638 637
f 645 646 639
f 645 639 638
f 646 647 640
f 646 640 639
f 647 648 641
f 647 641 640
f 648 649 642
f 648 642 641
f 649 607 642
f 650 643 599
f 650 651 644
f 650 644 643
f 651 652 645
f 651 645 644
f 652 653 646
f 652 646 645
f 653 654 647
f 653 647 646
f 654 655 648
f 654 648 647
f 655 656 649
f 655 649 648
f 656 607 649
f 657 650 599
f 657 658 651
f 657 651 650
f 658 659 652
f 658 652 651
f 659 660 653
f 659 653 652
f 660 661 654
f 660 654 653
f 661 662 655
f 661 655 654
f 662 663 656
f 662 656 655
f 663 607 656
f 664 657 599
f 664 665 658
f 664 658 657
f 665 666 659
f 665 659 658
f 666 667 660
f 666 660 659
f 667 668 661
f 667 661 660
f 668 669 662
f 668 662 661
f 669 670 663
f 669 663 662
f 670 607 663
f 600 664 599
f 600 601 665
f 600 665 664
f 601 602 666
f 601 666 665
f 602 603 667
f 602 667 666
f 603 604 668
f 603 668 667
f 604 605 669
f 604 669 668
f 605 606 670
f 605 670 669
f 606 607 670
f 680 672 671
f 680 681 673
f 680 673 672
f 681 682 674
f 681 674 673
f 682 683 675
f 682 675 674
f 683 684 676
f 683 676 675
f 684 685 677
f 684 677 676
f 685 686 678
f 685 678 677
f 686 679 678
f 687 680 671
f 687 688 681
f 687 681 680
f 688 689 682
f 688 682 681
f 689 690 683
f 689 683 682
f 690 691 684
f 690 684 683
f 691 692 685
f 691 685 684
f 692 693 686
f 692 686 685
f 693 679 686
f 694 687 671
f 694 695 688
f 694 688 687
f 695 696 689
f 695 689 688
f 696 697 690
f 696 690 689
f 697 698 691
f 697 691 690
f 698 699 692
f 698 692 691
f 699 700 693
f 699 693 692
f 700 679 693
f 701 694 671
f 701 702 695
f 701 695 694
f 702 703 696
f 702 696 695
f 703 704 697
f 703 697 696
f 704 705 698
f 704 698 697
f 705 706 699
f 705 699 698
f 706 707 700
f 706 700 699
f 707 679 700
f 708 701 671
f 708 709 702
f 708 702 701
f 709 710 703
f 709 703 702
f 710 711 704
f 710 704 703
f 711 712 705
f 711 705 704
f 712 713 706
f 712 706 705
f 713 714 707
f 713 707 706
f 714 679 707
f 715 708 671
f 715 716 709
f 715 709 708
f 716 717 710
f 716 710 709
f 717 718 711
f 717 711 710
f 718 719 712
f 718 712 711
f 719 720 713
f 719 713 712
f 720 721 714
f 720 714 713
f 721 679 714
f 722 715 671
f 722 723 716
f 722 716 715
f 723 724 717
f 723 717 716
f 724 725 718
f 724 718 717
f 725 726 719
f 725 719 718
f 726 727 720
f 726 720 719
f 727 728 721
f 727 721 720
f 728 679 721
f 729 722 671
f 729 730 723
f 729 723 722
f 730 731 724
f 730 724 723
f 731 732 725
f 731 725 724
f 732 733 726
f 732 726 725
f 733 734 727
f 733 727 726
f 734 735 728
f 734 728 727
f 735 679 728
f 736 729 671
f 736 737 730
f 736 730 729
f 737 738 731
f 737 731 730
f 738 739 732
f 738 732 731
f 739 740 733
f 739 733 732
f 740 741 734
f 740 734 733
f 741 742 735
f 741 735 734
f 742 679 735
f 672 736 671
f 672 673 737
f 672 737 736
f 673 674 738
f 673 738 737
f 674 675 739
f 674 739 738
f 675 676 740
f 675 740 739
f 676 677 741
f 676 741 740
f 677 678 742
f 677 742 741
f 678 679 742
f 752 744 743
f 752 753 745
f 752 745 744
f 753 754 746
f 753 746 745
f 754 755 747
f 754 747 746
f 755 756 748
f 755 748 747
f 756 757 749
f 756 749 748
f 757 758 750
f 757 750 749
f 758 751 750
f 759 752 743
f 759 760 753
f 759 753 752
f 760 761 754
f 760 754 753
f 761 762 755
f 761 755 754
f 762 763 756
f 762 756 755
f 763 764 757
f 763 757 756
f 764 765 758
f 764 758 757
f 765 751 758
f 766 759 743
f 766 767 760
f 766 760 759
f 767 768 761
f 767 761 760
f 768 769 762
f 768 762 761
f 769 770 763
f 769 763 762
f 770 771 764
f 770 764 763
f 771 772 765
f 771 765 764
f 772 751 765
f 773 766 743
f 773 774 767
f 773 767 766
f 774 775 768
f 774 768 767
f 775 776 769
f 775 769 768
f 776 777 770
f 776 770 769
f 777 778 771
f 777 771 770
f 778 779 772
f 778 772 771
f 779 751 772
f 780 773 743
f 780 781 774
f 780 774 773
f 781 782 775
f 781 775 774
f 782 783 776
f 782 776 775
f 783 784 777
f 783 777 776
f 784 785 778
f 784 778 777
f 785 786 779
f 785 779 778
f 786 751 779
f 787 780 743
f 787 788 781
f 787 781 780
f 788 789 782
f 788 782 781
f 789 790 783
f 789 783 782
f 790 791 784
f 790 784 783
f 791 792 785
f 791 785 784
f 792 793 786
f 792 786 785
f 793 751 786
f 794 787 743
f 794 795 788
f 794 788 787
f 795 796 789
f 795 789 788
f 796 797 790
f 796 790 789
f 797 798 791
f 797 791 790
f 798 799 792
f 798 792 791
f 799 800 793
f 799 793 792
f 800 751 793
f 801 794 743
f 801 802 795
f 801 795 794
f 802 803 796
f 802 796 795
f 803 804 797
f 803 797 796
f 804 805 798
f 804 798 797
f 805 806 799
f 805 799 798
f 806 807 800
f 806 800 799
f 807 751 800
f 808 801 743
f 808 809 802
f 808 802 801
f 809 810 803
f 809 803 802
f 810 811 804
f 810 804 803
f 811 812 805
f 811 805 804
f 812 813 806
f 812 806 805
f 813 814 807
f 813 807 806
f 814 751 807
f 744 808 743
f 744 745 809
f 744 809 808
f 745 746 810
f 745 810 809
f 746 747 811
f 746 811 810
f 747 748 812
f 747 812 811
f 748 749 813
f 748 813 812
f 749 750 814
f 749 814 813
f 750 751 814
f 824 816 815
f 824 825 817
f 824 817 816
f 825 826 818
f 825 818 817
f 826 827 819
f 826 819 818
f 827 828 820
f 827 820 819
f 828 829 821
f 828 821 820
f 829 830 822
f 829 822 821
f 830 823 822
f 831 824 815
f 831 832 825
f 831 825 824
f 832 833 826
f 832 826 825
f 833 834 827
f 833 827 826
f 834 835 828
f 834 828 827
f 835 836 829
f 835 829 828
f 836 837 830
f 836 830 829
f 837 823 830
f 838 831 815
f 838 839 832
f 838 832 831
f 839 840 833
f 839 833 832
f 840 841 834
f 840 834 833
f 841 842 835
f 841 835 834
f 842 843 836
f 842 836 835
f 843 844 837
f 843 837 836
f 844 823 837
f 845 838 815
f 845 846 839
f 845 839 838
f 846 847 840
f 846 840 839
f 847 848 841
f 847 841 840
f 848 849 842
f 848 842 841
f 849 850 843
f 849 843 842
f 850 851 844
f 850 844 843
f 851 823 844
f 852 845 815
f 852 853 846
f 852 846 845
f 853 854 847
f 853 847 846
f 854 855 848
f 854 848 847
f 855 856 849
f 855 849 848
f 856 857 850
f 856 850 849
f 857 858 851
f 857 851 850
f 858 823 851
f 859 852 815
f 859 860 853
f 859 853 852
f 860 861 854
f 860 854 853
f 861 862 855
f 861 855 854
f 862 863 856
f 862 856 855
f 863 864 857
f 863 857 856
f 864 865 858
f 864 858 857
f 865 823 858
f 866 859 815
f 866 867 860
f 866 860 859
f 867 868 861
f 867 861 860
f 868 869 862
f 868 862 861
f 869 870 863
f 869 863 862
f 870 871 864
f 870 864 863
f 871 872 865
f 871 865 864
f 872 823 865
f 873 866 815
f 873 874 867
f 873 867 866
f 874 875 868
f 874 868 867
f 875 876 869
f 875 869 868
f 876 877 870
f 876 870 869
f 877 878 871
f 877 871 870
f 878 879 872
f 878 872 871
f 879 823 872
f 880 873 815
f 880 881 874
f 880 874 873
f 881 882 875
f 881 875 874
f 882 883 876
f 882 876 875
f 883 884 877
f 883 877 876
f 884 885 878
f 884 878 877
f 885 886 879
f 885 879 878
f 886 823 879
f 816 880 815
f 816 817 881
f 816 881 880
f 817 818 882
f 817 882 881
f 818 819 883
f 818 883 882
f 819 820 884
f 819 884 883
f 820 821 885
f 820 885 884
f 821 822 886
f 821 886 885
f 822 823 886
f 896 888 887
f 896 897 889
f 896 889 888
f 897 898 890
f 897 890 889
f 898 899 891
f 898 891 890
f 899 900 892
f 899 892 891
f 900 901 893
f 900 893 892
f 901 902 894
f 901 894 893
f 902 895 894
f 903 896 887
f 903 904 897
f 903 897 896
f 904 905 898
f 904 898 897
f 905 906 899
f 905 899 898
f 906 907 900
f 906 900 899
f 907 908 901
f 907 901 900
f 908 909 902
f 908 902 901
f 909 895 902
f 910 903 887
f 910 911 904
f 910 904 903
f 911 912 905
f 911 905 904
f 912 913 906
f 912 906 905
f 913 914 907
f 913 907 906
f 914 915 908
f 914 908 907
f 915 916 909
f 915 909 908
f 916 895 909
f 917 910 887
f 917 918 911
f 917 911 910
f 918 919 912
f 918 912 911
f 919 920 913
f 919 913 912
f 920 921 914
f 920 914 913
f 921 922 915
f 921 915 914
f 922 923 916
f 922 916 915
f 923 895 916
f 924 917 887
f 924 925 918
f 924 918 917
f 925 926 919
f 925 919 918
f 926 927 920
f 926 920 919
f 927 928 921
f 927 921 920
f 928 929 922
f 928 922 921
f 929 930 923
f 929 923 922
f 930 895 923
f 931 924 887
f 931 932 925
f 931 925 924
f 932 933 926
f 932 926 925
f 933 934 927
f 933 927 926
f 934 935 928
f 934 928 927
f 935 936 929
f 935 929 928
f 936 937 930
f 936 930 929
f 937 895 930
f 938 931 887
f 938 939 932
f 938 932 931
f 939 940 933
f 939 933 932
f 940 941 934
f 940 934 933
f 941 942 935
f 941 935 934
f 942 943 936
f 942 936 935
f 943 944 937
f 943 937 936
f 944 895 937
f 945 938 887
f 945 946 939
f 945 939 938
f 946 947 940
f 946 940 939
f 947 948 941
f 947 941 940
f 948 949 942
f 948 942 941
f 949 950 943
f 949 943 942
f 950 951 944
f 950 944 943
f 951 895 944
f 952 945 887
f 952 953 946
f 952 946 945
f 953 954 947
f 953 947 946
f 954 955 948
f 954 948 947
f 955 956 949
f 955 949 948
f 956 957 950
f 956 950 949
f 957 958 951
f 957 951 950
f 958 895 951
f 888 952 887
f 888 889 953
f 888 953 952
f 889 890 954
f 889 954 953
f 890 891 955
f 890 955 954
f 891 892 956
f 891 956 955
f 892 893 957
f 892 957 956
f 893 894 958
f 893 958 957
f 894 895 958
