v 0.107440741 0.0171220833 -0.0441000815
v 0.107650684 0.00937049508 -0.0446673745
v 0.104059542 0.00600774537 -0.0435934415
v 0.0990903166 0.0052606402 -0.0418587015
v 0.0967035259 0.008525074 -0.0407965525
v 0.0917531302 0.00937231672 -0.0389687975
v 0.0778955234 0.00788334085 -0.0340946029
v 0.06141001 -0.000802406947 -0.028735582
v 0.058534996 -0.000846342156 -0.0277078356
v 0.055758485 0.00100476096 -0.0265948181
v 0.05724165 0.00286976538 -0.0270078302
v 0.056847587 0.00762671984 -0.0265658729
v 0.053192611 0.0144105735 -0.0248262853
v 0.10771808 0.01148831 -0.0404618435
v 0.103669416 0.00865366246 -0.0372804655
v 0.0997824167 0.00811989746 -0.0356748253
v 0.098259641 0.0102523111 -0.0365954705
v 0.0935120214 0.010820699 -0.0354419125
v 0.080085006 0.00976673926 -0.0304177434
v 0.064850311 0.00450415069 -0.022026223
v 0.060790849 0.00413154034 -0.0204708052
v 0.057505771 0.00532592027 -0.0202036026
v 0.056534022 0.00786835367 -0.021572168
v 0.056273605 0.0107003815 -0.0233626857
v 0.106762742 0.0150040684 -0.0385115235
v 0.101877736 0.0136230116 -0.0338576604
v 0.0990096944 0.013364999 -0.0325466089
v 0.0988267157 0.0140385612 -0.0342326896
v 0.094422302 0.0141218264 -0.0334457622
v 0.0812967709 0.0134284259 -0.0286849509
v 0.066119613 0.0116449205 -0.0206653728
v 0.060918128 0.0111957445 -0.0183318178
v 0.057402701 0.011475101 -0.0182493451
v 0.054042104 0.0129360992 -0.0212375376
v 0.054625954 0.0136852298 -0.0232927545
v 0.106321221 0.018364228 -0.0381400145
v 0.101196802 0.0188157501 -0.0332847709
v 0.0983027301 0.0187422955 -0.0319528876
v 0.0982646108 0.0183154443 -0.0337604896
v 0.093926117 0.0179100209 -0.0330273801
v 0.0807919135 0.0172764063 -0.028259626
v 0.065397899 0.0171435229 -0.02005863
v 0.060156525 0.0170002108 -0.0176912226
v 0.056736504 0.0165456671 -0.0176894757
v 0.053721149 0.0153804039 -0.0209675852
v 0.054456807 0.0149684664 -0.0231504027
v 0.105933538 0.0202804973 -0.0407426135
v 0.102396244 0.022614559 -0.0372951265
v 0.0996658721 0.0230861227 -0.0357924439
v 0.0984346768 0.0223026654 -0.035986653
v 0.0947633853 0.0220419484 -0.0347483646
v 0.0837201785 0.0200451611 -0.0320865272
v 0.064578534 0.0198104972 -0.0246540305
v 0.060014681 0.0201906892 -0.0225014349
v 0.057396144 0.0201736531 -0.0214710923
v 0.05480819 0.0179907244 -0.0223448629
v 0.053914995 0.0166909896 -0.0231232007
v 0.105904898 0.0200305683 -0.0433664275
v 0.103721709 0.0235030049 -0.0423640335
v 0.100921902 0.0246574418 -0.0412866725
v 0.0981872918 0.0244211766 -0.0403213555
v 0.0949049467 0.0248545912 -0.0391176065
v 0.0868263806 0.0205689406 -0.0364935471
v 0.064614983 0.0186631395 -0.0286514202
v 0.060580463 0.0195547687 -0.0271486212
v 0.058210405 0.0209311204 -0.0262116036
v 0.055492393 0.0196992578 -0.0253149283
v 0.05292866 0.0181780212 -0.0244919646
v 0.104525353 0.0202031493 -0.0452007395
v 0.100172508 0.0229156122 -0.0455934935
v 0.0969369066 0.0236454991 -0.0450352355
v 0.0951338604 0.0228331147 -0.0439158155
v 0.0893371937 0.021778992 -0.0413510005
v 0.0807037326 0.0200318641 -0.0374119625
v 0.061555757 0.0212819114 -0.0320700541
v 0.056595725 0.0226050704 -0.0313469988
v 0.052975402 0.0232733484 -0.0306232384
v 0.051485312 0.0215848866 -0.029025684
v 0.051484866 0.0189945877 -0.0273104993
v 0.103399939 0.018663579 -0.0471393615
v 0.0973065248 0.0196108468 -0.0481840075
v 0.0938162566 0.019738495 -0.0477220375
v 0.0930122903 0.0190916203 -0.0458799525
v 0.0849385588 0.0177793204 -0.0406766225
v 0.0750414873 0.0175867395 -0.0379382255
v 0.058486759 0.0190322589 -0.0378924155
v 0.052642088 0.0197264311 -0.0383435625
v 0.048000279 0.0196848155 -0.0371805905
v 0.047702431 0.018646187 -0.0344486977
v 0.05028842 0.0169934536 -0.0307967779
v 0.103769463 0.0158527576 -0.0474492435
v 0.0979397619 0.0147828898 -0.0487161025
v 0.0945154005 0.0144227179 -0.0483088145
v 0.0935821896 0.014754086 -0.0463590965
v 0.0853159022 0.0149069813 -0.0409943145
v 0.0754812772 0.0142265796 -0.0383097345
v 0.059410579 0.0120069405 -0.0386675535
v 0.053772362 0.0111111467 -0.0392949055
v 0.049171321 0.0107627989 -0.0381657865
v 0.048655745 0.0113756588 -0.0352516102
v 0.050866133 0.0125943982 -0.0312828655
v 0.105279429 0.0122968532 -0.0474508245
v 0.100524438 0.00958670191 -0.0479191085
v 0.0963454327 0.00888229888 -0.0468663205
v 0.0949103068 0.0107134667 -0.0446962125
v 0.0882018054 0.0117100361 -0.0411501045
v 0.0763422752 0.010508386 -0.0374673545
v 0.059750549 0.0043899712 -0.036188204
v 0.055746635 0.00323856516 -0.035595618
v 0.052323945 0.00363893623 -0.0338815029
v 0.052755248 0.00537174916 -0.03254071
v 0.053755611 0.00903666913 -0.0297403803
v 0.102197779 -0.00852792889 -0.0444660965
v 0.100702063 -0.0135296476 -0.0441845165
v 0.095873154 -0.0138504994 -0.0419921875
v 0.0928707401 -0.0136571008 -0.0405978615
v 0.0867632258 -0.0101908267 -0.0375122855
v 0.058497877 -0.00713606363 -0.0242828728
v 0.05074654 -0.0091524435 -0.020887206
v 0.047315178 -0.00871912693 -0.0192753329
v 0.043336381 -0.00961772996 -0.01752072
v 0.039261164 -0.00882410306 -0.0155846865
v 0.037367657 -0.00725359717 -0.0145887259
v 0.039965137 -0.00542730452 -0.0156334576
v 0.041630999 -0.00261862942 -0.0161702076
v 0.103232992 -0.0123182524 -0.0423759715
v 0.099301798 -0.0127135293 -0.0399939185
v 0.0966026175 -0.0122869506 -0.0388482445
v 0.0921963181 -0.0109959092 -0.0373912835
v 0.0766598413 -0.00894758139 -0.030505224
v 0.0721967144 -0.00990542257 -0.0274465225
v 0.067966348 -0.00891938672 -0.0258709141
v 0.050250859 -0.00809352308 -0.0169643374
v 0.04594093 -0.00800098781 -0.0147225564
v 0.042746857 -0.0067876439 -0.0138600666
v 0.042787486 -0.00621826739 -0.0142784798
v 0.105145046 -0.010093732 -0.0420203425
v 0.102110644 -0.0101683002 -0.0394952815
v 0.099597744 -0.00975546931 -0.0388244585
v 0.0977824846 -0.00984702647 -0.0371720045
v 0.0948649003 -0.00922623456 -0.0368148045
v 0.0930886194 -0.00925535664 -0.035381564
v 0.0878401053 -0.00830577997 -0.0342374498
v 0.056224104 -0.00552491179 -0.0185609907
v 0.052004333 -0.00551745699 -0.015383404
v 0.047717684 -0.00483030157 -0.0141847789
v 0.04586689 -0.00488545478 -0.0126163678
v 0.105319749 -0.00778623237 -0.0419133325
v 0.102334638 -0.00719185981 -0.0393578195
v 0.0998001285 -0.00708143848 -0.0387009175
v 0.0980220634 -0.00668948652 -0.0370258435
v 0.0950577604 -0.00667438092 -0.0366964845
v 0.0933091491 -0.00633957143 -0.0352458462
v 0.0880027093 -0.0061793793 -0.0341391395
v 0.056425617 -0.00285174739 -0.0184374487
v 0.052262063 -0.00211556323 -0.0152250676
v 0.047939092 -0.00191364956 -0.014049926
v 0.046121162 -0.00154334914 -0.0124615062
v 0.104387113 -0.00608260076 -0.0431018245
v 0.101674022 -0.00522982755 -0.0413079265
v 0.0993137373 -0.00550843829 -0.0406615005
v 0.0973163462 -0.00445364989 -0.0389559675
v 0.0937083549 -0.00511719214 -0.0381830685
v 0.090021368 -0.0046804807 -0.0363909538
v 0.079593879 -0.00366303696 -0.0315189859
v 0.056328236 -0.000886204104 -0.0201934757
v 0.052120356 0.000697449443 -0.0171750282
v 0.049281631 0.00152247101 -0.0153568713
v 0.044556633 0.00166959538 -0.0134304698
v 0.103197304 -0.0056544212 -0.0446926065
v 0.100786636 -0.00502244248 -0.0435339045
v 0.0987314082 -0.00561472973 -0.0426379945
v 0.0962842005 -0.00398889706 -0.0413820555
v 0.0922811847 -0.00518384482 -0.0396404955
v 0.0868170833 -0.00504560466 -0.0371196575
v 0.0708290598 -0.00219942364 -0.0295462971
v 0.055883573 -0.000345997047 -0.0225320486
v 0.051358443 0.00187809836 -0.0202725285
v 0.04941457 0.00424576167 -0.0191880311
v 0.042203748 0.00346338688 -0.0159394558
v 0.101225044 -0.00527489196 -0.0462149225
v 0.0979399533 -0.0038873811 -0.0454234495
v 0.0952382993 -0.00419829353 -0.0437606125
v 0.0932306503 -0.00420831961 -0.0426791615
v 0.089488446 -0.00523704583 -0.0399592975
v 0.0816189683 -0.00500239396 -0.0359107289
v 0.067084048 -0.00231339093 -0.0300063234
v 0.055176329 0.00028266375 -0.0254450889
v 0.048924898 0.00384551806 -0.0245837993
v 0.045784586 0.00480668976 -0.0235749201
v 0.041781669 0.00322933172 -0.0203309179
v 0.0991438663 -0.0066457067 -0.0477670255
v 0.0946759995 -0.00546875409 -0.0478931825
v 0.091234304 -0.00533536172 -0.0456817455
v 0.0903792071 -0.00589221547 -0.0433708645
v 0.0868232317 -0.00615246918 -0.0398987375
v 0.0766158961 -0.00545921637 -0.0342244571
v 0.063531568 -0.00357728082 -0.029923274
v 0.054185234 -0.00162144238 -0.0286748718
v 0.045659298 0.00102995855 -0.0301246491
v 0.041997506 0.00118409564 -0.027809221
v 0.041433669 0.000127938805 -0.0242264189
v 0.0989276404 -0.00950083669 -0.0479001325
v 0.0943585942 -0.00966003304 -0.0480871935
v 0.0909454334 -0.00916270876 -0.0458600915
v 0.0901759704 -0.00856537992 -0.0434944065
v 0.0867038812 -0.00773037247 -0.0399726845
v 0.0765380565 -0.00649208887 -0.0342723073
v 0.063370707 -0.00570281476 -0.0300215857
v 0.053882535 -0.00563162173 -0.0288610499
v 0.045107515 -0.00626080463 -0.0304622106
v 0.041472534 -0.00574100306 -0.0281311168
v 0.041060911 -0.00479206986 -0.0244543589
v 0.0994878261 -0.0121334195 -0.0466745445
v 0.094820975 -0.0128500384 -0.0455472255
v 0.0915672454 -0.0123378601 -0.0438530235
v 0.0883522972 -0.0101484098 -0.0406655235
v 0.0724172206 -0.00777197974 -0.0324839694
v 0.063090275 -0.00760592517 -0.0287932366
v 0.054903633 -0.00747167871 -0.0255652532
v 0.048195381 -0.00853874728 -0.0239760959
v 0.042117094 -0.00990024015 -0.0228913167
v 0.039480238 -0.00886205101 -0.0209570122
v 0.04062464 -0.00686225541 -0.0195962609
v 0.0930943668 -0.0213513057 -0.0467835435
v 0.09267883 -0.0239846607 -0.0468056905
v 0.0905638352 -0.0247675885 -0.0458985485
v 0.0880153973 -0.0241226456 -0.0446757195
v 0.0854118135 -0.0256517336 -0.0436040695
v 0.0832879716 -0.0251479286 -0.0425875065
v 0.0809429837 -0.0232352643 -0.0413557785
v 0.057372278 -0.0202444017 -0.0302875688
v 0.045354482 -0.0232296365 -0.0250107883
v 0.039623308 -0.0217804607 -0.0222609375
v 0.037116593 -0.0220297233 -0.0211292611
v 0.034314136 -0.0204706926 -0.0197156205
v 0.036503966 -0.0158318718 -0.0203464894
v 0.0932593384 -0.0234120416 -0.0456210905
v 0.0915525209 -0.0244723109 -0.0440806005
v 0.0891531481 -0.0240326641 -0.0430839715
v 0.0869654273 -0.0250462544 -0.0413181685
v 0.0841734606 -0.0242020001 -0.0403613095
v 0.0713422475 -0.0226643149 -0.0345403553
v 0.058296142 -0.0211058851 -0.028618876
v 0.046901955 -0.0219570693 -0.0221060778
v 0.041417901 -0.0216680963 -0.0193945801
v 0.039086169 -0.0216036703 -0.0182056596
v 0.036166673 -0.019764589 -0.0177841088
v 0.0936153118 -0.0221678119 -0.0449978515
v 0.0924300833 -0.0227195161 -0.0426791625
v 0.0902490893 -0.0224721879 -0.0417492965
v 0.0882726772 -0.0226790751 -0.0397658545
v 0.0846982745 -0.0219648597 -0.0390672165
v 0.061931003 -0.020077889 -0.027548657
v 0.059568914 -0.0198462173 -0.0264454891
v 0.047949167 -0.0189140677 -0.0204869087
v 0.043167913 -0.0189466252 -0.0169297862
v 0.040882075 -0.0186897903 -0.0159496595
v 0.03771829 -0.0175489282 -0.0166780801
v 0.0937208209 -0.0207710077 -0.0449326035
v 0.092626395 -0.0201061402 -0.0425582315
v 0.0904436798 -0.0199211996 -0.0416309765
v 0.0885200372 -0.019399358 -0.0396144725
v 0.0848963293 -0.0193514844 -0.0389462855
v 0.062174898 -0.0168570945 -0.0273998849
v 0.05981281 -0.0166271556 -0.0262958506
v 0.048221597 -0.0153293411 -0.0203216061
v 0.043508671 -0.0144512033 -0.0167218548
v 0.041216773 -0.0142550236 -0.0157443379
v 0.037938826 -0.0146340091 -0.0165423624
v 0.0936123333 -0.0197544692 -0.0457113945
v 0.0923566187 -0.0182992391 -0.0440621305
v 0.0896990449 -0.0179619346 -0.0427570375
v 0.0875812278 -0.0170483742 -0.0412048995
v 0.0843692076 -0.0176373416 -0.0404241995
v 0.066853708 -0.0158105202 -0.0321473874
v 0.056858503 -0.0139344081 -0.0267579692
v 0.048246206 -0.012076188 -0.0219214215
v 0.044691761 -0.0112980957 -0.019916087
v 0.041630428 -0.0111549458 -0.0186118855
v 0.038590034 -0.0121917895 -0.0182549954
v 0.0933436597 -0.0194943626 -0.0467476735
v 0.0918357406 -0.0179610267 -0.0459310965
v 0.0886365705 -0.0173517594 -0.0444119105
v 0.0863194599 -0.0165325972 -0.0432809045
v 0.0836534008 -0.0174594905 -0.0421320205
v 0.0715735855 -0.0169744526 -0.0365452409
v 0.053490228 -0.0129347353 -0.0279118635
v 0.047519745 -0.0103713108 -0.0249616341
v 0.045341417 -0.0105546439 -0.0239763933
v 0.041560037 -0.0104836004 -0.0222346024
v 0.03870244 -0.0110951363 -0.0209712748
v 0.0913583248 -0.0184824134 -0.0476078615
v 0.0885913781 -0.0169050089 -0.0471092455
v 0.0858523991 -0.0169238758 -0.0456551795
v 0.0839808555 -0.0173550337 -0.0444083105
v 0.0796285976 -0.0180753748 -0.0416823055
v 0.065047993 -0.0167755659 -0.0347964135
v 0.051246004 -0.0133853258 -0.0295868324
v 0.045490357 -0.0107375315 -0.0281625036
v 0.042362996 -0.00949298936 -0.0272714133
v 0.037529742 -0.0095946947 -0.0246665877
v 0.036674017 -0.0118411334 -0.0228533993
v 0.0890127904 -0.0193871145 -0.0490238285
v 0.0849998871 -0.0183973382 -0.0487367135
v 0.0829567572 -0.0185305547 -0.0469005615
v 0.0820202188 -0.0191376741 -0.0446096185
v 0.0759816776 -0.0190821577 -0.0403765715
v 0.058672405 -0.0172604034 -0.0326430633
v 0.049217796 -0.015440769 -0.0306078988
v 0.043609558 -0.0138601938 -0.03072355
v 0.038985707 -0.0125090789 -0.0309458526
v 0.033218343 -0.0123139095 -0.0272794789
v 0.034969033 -0.014083697 -0.0238632464
v 0.0887974425 -0.0222422452 -0.0491552025
v 0.0847023827 -0.0223451288 -0.0489194145
v 0.0827033502 -0.0218709273 -0.0470545555
v 0.0818636746 -0.021203419 -0.0447044515
v 0.0758995212 -0.0201756853 -0.0404270325
v 0.058571213 -0.0185974183 -0.0327048335
v 0.04899293 -0.0184154767 -0.0307462278
v 0.04324113 -0.0187204144 -0.0309480137
v 0.0384936 -0.0190104566 -0.0312477398
v 0.032776399 -0.0181463463 -0.0275509147
v 0.03474676 -0.0169977498 -0.0239980972
v 0.0906910423 -0.0240185218 -0.0479745505
v 0.0875717661 -0.0248119325 -0.0473940525
v 0.085291937 -0.0240413595 -0.0458913275
v 0.0832920386 -0.0237290348 -0.0448635395
v 0.0792011893 -0.0225845848 -0.0423581475
v 0.069553491 -0.0211337851 -0.0374436625
v 0.053174955 -0.0203212371 -0.0304174375
v 0.044019836 -0.0222898984 -0.0284237225
v 0.038996809 -0.0225058546 -0.0266403573
v 0.034783843 -0.0218604614 -0.0244833898
v 0.034272318 -0.0194182708 -0.0223365898
v 0.0818950045 -0.0338865842 -0.0437406945
v 0.080028175 -0.03715712 -0.0432794115
v 0.075751306 -0.0381033706 -0.0418055455
v 0.0742979408 -0.0363481683 -0.0411734935
v 0.0718941429 -0.0353236182 -0.0402469395
v 0.068266621 -0.032585409 -0.0387732655
v 0.052057625 -0.0299313228 -0.0327942983
v 0.040820237 -0.0310523514 -0.0288377374
v 0.034538888 -0.0300459559 -0.0265220727
v 0.03133905 -0.0308827994 -0.0254268791
v 0.023472641 -0.0281966145 -0.0224375793
v 0.021581678 -0.0262647403 -0.0216373788
v 0.024600182 -0.0237963302 -0.0225624247
v 0.0814328081 -0.0369597154 -0.0413679115
v 0.0777078753 -0.0375992969 -0.0390881575
v 0.0754166412 -0.0361829248 -0.0389465845
v 0.0723820767 -0.0354478881 -0.0379663445
v 0.068991197 -0.0335967362 -0.0375881025
v 0.049092633 -0.0305769765 -0.0298941523
v 0.040375752 -0.03061978 -0.0255700631
v 0.033930598 -0.0293629867 -0.0232734092
v 0.030040903 -0.0292443171 -0.0214406226
v 0.024921416 -0.0276145633 -0.0200554981
v 0.02311016 -0.0258392985 -0.0204034445
v 0.0828840018 -0.0353584661 -0.0400037775
v 0.0796338192 -0.0352493933 -0.0373365695
v 0.0766381964 -0.0344128116 -0.0372054835
v 0.0731322913 -0.0338269597 -0.0358119372
v 0.0702493262 -0.0330094163 -0.0357241828
v 0.046819703 -0.0291924881 -0.0260864158
v 0.040081743 -0.028254793 -0.0228141335
v 0.03337056 -0.0269477415 -0.0207236895
v 0.028472151 -0.0260857553 -0.0189141298
v 0.026290232 -0.0255463016 -0.0185959581
v 0.024512861 -0.0246156905 -0.0198928848
v 0.0833272898 -0.0328429474 -0.0400033165
v 0.0802355349 -0.0318344228 -0.0373359435
v 0.0771343021 -0.0315966094 -0.0372049675
v 0.0736387823 -0.0309501009 -0.0358114095
v 0.0706501816 -0.0307330577 -0.0357237652
v 0.047327059 -0.0263156275 -0.0260858881
v 0.040672215 -0.0248970124 -0.0228135176
v 0.03391947 -0.023831721 -0.0207231179
v 0.029021933 -0.022968868 -0.0189135581
v 0.026787196 -0.0227300977 -0.0185954415
v 0.024798573 -0.0229961567 -0.0198925878
v 0.0827187108 -0.0312015582 -0.0417108645
v 0.0792568592 -0.0294582091 -0.0394965235
v 0.0767934394 -0.0297515014 -0.0391862995
v 0.0735969301 -0.0297555659 -0.0384722105
v 0.069215886 -0.0293890464 -0.0371869915
v 0.051441805 -0.0251662321 -0.0297155682
v 0.041891904 -0.023160646 -0.0259196344
v 0.036394712 -0.0219912138 -0.0237200735
v 0.031757118 -0.0210936581 -0.0219399747
v 0.028414099 -0.0204653018 -0.020670334
v 0.025777497 -0.0216986349 -0.0210968082
v 0.0818036128 -0.0310713734 -0.0435304675
v 0.0778131306 -0.0290671588 -0.0419720035
v 0.0760810903 -0.0295631595 -0.0413828255
v 0.0734323667 -0.0305965814 -0.0404991115
v 0.067622385 -0.0295736217 -0.0383515585
v 0.055156456 -0.025677058 -0.0336358259
v 0.042740172 -0.0234909377 -0.0290469264
v 0.03833815 -0.0218169448 -0.0273620036
v 0.033929293 -0.0208404795 -0.0257196713
v 0.029361806 -0.019435134 -0.023993202
v 0.026365712 -0.0211080985 -0.0230255477
v 0.0816814718 -0.0316239007 -0.0452150475
v 0.0775930232 -0.0294479331 -0.0447197465
v 0.0755376269 -0.0290047158 -0.0440168705
v 0.072694875 -0.030203054 -0.0417797055
v 0.067456935 -0.0301297699 -0.0392519545
v 0.054461655 -0.0268700505 -0.035125548
v 0.041616232 -0.0233546435 -0.0312521154
v 0.037416003 -0.0211986353 -0.0306883619
v 0.033101527 -0.0198338741 -0.0295173349
v 0.02889014 -0.0183217643 -0.0284970552
v 0.026848918 -0.0197010356 -0.0265276966
v 0.081641782 -0.0330057751 -0.0462845705
v 0.0772787144 -0.0315280364 -0.0469193115
v 0.0745092593 -0.0307303966 -0.0468731555
v 0.0716872256 -0.0310685688 -0.0431931045
v 0.067455317 -0.0309719496 -0.0395761845
v 0.054171594 -0.0284167567 -0.0353502551
v 0.040259472 -0.0250077521 -0.0332358105
v 0.035930173 -0.0234415658 -0.0341764111
v 0.031489195 -0.0222569052 -0.03380433
v 0.027502265 -0.0211544644 -0.0336012448
v 0.026345619 -0.0215996143 -0.0311222336
v 0.08135607 -0.0346253089 -0.0462848675
v 0.0767514526 -0.0345244752 -0.0469198605
v 0.0738754969 -0.034327339 -0.0468738155
v 0.0713391752 -0.0330459773 -0.0431934675
v 0.067328911 -0.0316911647 -0.0395763165
v 0.053970728 -0.0295553686 -0.0353504639
v 0.03973221 -0.0280050592 -0.0332363604
v 0.035128456 -0.0279960164 -0.0341772466
v 0.030549809 -0.0275912262 -0.0338053084
v 0.026426086 -0.0272669245 -0.033602366
v 0.025491084 -0.0264538817 -0.031123124
v 0.0804473655 -0.0361792634 -0.0453077195
v 0.075907895 -0.0369970948 -0.0449646075
v 0.0738836831 -0.0364378015 -0.0440485515
v 0.0714156885 -0.0346691423 -0.0420352625
v 0.067729331 -0.0323219773 -0.0392723055
v 0.052942305 -0.0300817192 -0.0341071028
v 0.040007278 -0.0303111277 -0.0313928876
v 0.034602087 -0.030450757 -0.0302966319
v 0.030621452 -0.0308413672 -0.0297255653
v 0.024754282 -0.0298080225 -0.0275563461
v 0.023434397 -0.0280807344 -0.0258351105
v 0.0717784572 -0.0446891775 -0.0427849535
v 0.069282507 -0.0476669368 -0.0422646745
v 0.067272278 -0.0478952143 -0.0417447585
v 0.065790445 -0.0470922646 -0.0413165125
v 0.064143093 -0.0460917842 -0.0408345005
v 0.061901527 -0.0464327522 -0.0402591425
v 0.059514926 -0.0445425266 -0.0395412535
v 0.036183835 -0.0396089151 -0.0331526619
v 0.015936643 -0.0410347735 -0.027876214
v 0.007057245 -0.0380982182 -0.0253954739
v 0.00888969 -0.0367738596 -0.0258172651
v 0.012036839 -0.0370314599 -0.0266605106
v 0.017996928 -0.0333182404 -0.0280593829
v 0.0705951148 -0.0464382699 -0.0410739075
v 0.068899441 -0.0467350327 -0.0401545555
v 0.066870923 -0.0463715086 -0.0395539425
v 0.064743632 -0.0460201422 -0.0389030715
v 0.061881473 -0.0452182956 -0.0382555605
v 0.05698909 -0.0441187909 -0.0369615245
v 0.036778278 -0.039485198 -0.031678736
v 0.025340686 -0.040050193 -0.0264777663
v 0.019220378 -0.0383616656 -0.0250752708
v 0.016806199 -0.0375241901 -0.024640926
v 0.017212515 -0.0371176572 -0.0250940408
v 0.0715402673 -0.0450802782 -0.0413258305
v 0.0702266908 -0.0450980422 -0.0400381745
v 0.0678698 -0.0447944793 -0.0387738225
v 0.065551908 -0.0445750023 -0.0372885295
v 0.061669808 -0.0433615629 -0.0374623555
v 0.054762849 -0.042269615 -0.0344109959
v 0.037503407 -0.0383501891 -0.0305364941
v 0.034143161 -0.038154459 -0.0279923103
v 0.030994228 -0.0375130165 -0.0270528102
v 0.024822924 -0.0364789177 -0.0245118521
v 0.022407004 -0.0357219256 -0.0246242842
v 0.0717247037 -0.0442120159 -0.0413352035
v 0.0705358237 -0.0436509341 -0.0400517745
v 0.06825946 -0.0429635015 -0.0387908185
v 0.066057608 -0.0422119756 -0.0373114945
v 0.062007507 -0.0417697469 -0.0374776625
v 0.055256418 -0.0399551097 -0.0344339694
v 0.037883545 -0.0365660052 -0.0305543648
v 0.03474064 -0.0353581666 -0.028018662
v 0.031600364 -0.0346690633 -0.0270800182
v 0.025542497 -0.0331037844 -0.0245441635
v 0.023023533 -0.032830313 -0.0246523519
v 0.0720910891 -0.0432951277 -0.0417336325
v 0.070889118 -0.0421777021 -0.0407334435
v 0.068974096 -0.0417413678 -0.0401830775
v 0.067271353 -0.0410485472 -0.0394602345
v 0.065097239 -0.0405888627 -0.0388639315
v 0.060445663 -0.0388421552 -0.0369970235
v 0.050164513 -0.0376967741 -0.0349827588
v 0.043137842 -0.0358473606 -0.0327743598
v 0.034441384 -0.0336100873 -0.0300840638
v 0.02765895 -0.030781628 -0.0271432931
v 0.024614051 -0.0306019261 -0.0266700602
v 0.0722114082 -0.0426606282 -0.0428045125
v 0.0708629421 -0.0412346405 -0.0423813525
v 0.069361338 -0.0414879518 -0.0419966295
v 0.068159484 -0.0413148838 -0.0416716235
v 0.067733841 -0.0399207794 -0.0414945825
v 0.065098656 -0.0387116658 -0.0407430205
v 0.062096382 -0.0397069858 -0.0399970635
v 0.051251988 -0.0382291233 -0.0370650945
v 0.036901395 -0.034299765 -0.0330953593
v 0.029113601 -0.0301265113 -0.0308449077
v 0.025586906 -0.0297060819 -0.0298941735
v 0.0706811576 -0.0427534043 -0.0436666555
v 0.068583109 -0.0411307029 -0.0439106425
v 0.066061541 -0.0405965655 -0.0432207325
v 0.064666513 -0.0407927353 -0.0424972005
v 0.064272247 -0.0406766985 -0.0424113835
v 0.056860003 -0.038978927 -0.0404733505
v 0.048014521 -0.0369781597 -0.0381426925
v 0.035616776 -0.0318011799 -0.036521866
v 0.026685426 -0.0292250013 -0.0345541621
v 0.020949066 -0.028077155 -0.0329386198
v 0.020095631 -0.0284534574 -0.0323182508
v 0.069135416 -0.0434926763 -0.0440731395
v 0.066154448 -0.042323163 -0.0449592635
v 0.062397171 -0.0413576512 -0.0444719985
v 0.061013415 -0.0414083835 -0.0430101795
v 0.061127891 -0.041799371 -0.0418803385
v 0.049123121 -0.0393599858 -0.0382844145
v 0.033754353 -0.0355214533 -0.0359341584
v 0.018269109 -0.0300911109 -0.0385044635
v 0.0147657 -0.0291038409 -0.0383187445
v 0.012071875 -0.0293431406 -0.0350268709
v 0.014035492 -0.0300768705 -0.0345582881
v 0.068867845 -0.0447465452 -0.0440612365
v 0.065660014 -0.0446368 -0.0449362905
v 0.061830866 -0.0440083671 -0.0444464875
v 0.060590851 -0.0433849381 -0.0429914765
v 0.060860319 -0.0430541082 -0.0418684365
v 0.048897117 -0.0404206188 -0.0382742095
v 0.033282436 -0.0377397713 -0.0359129
v 0.016890573 -0.0365502278 -0.0384415205
v 0.013284991 -0.0360456149 -0.0382515565
v 0.010928872 -0.0346948318 -0.0349758562
v 0.013027566 -0.0348020613 -0.0345132254
v 0.068875021 -0.0463652261 -0.0437712645
v 0.06621925 -0.0467988504 -0.0438189265
v 0.063587636 -0.0462759955 -0.0431238175
v 0.062185504 -0.0452495735 -0.0421712975
v 0.061162994 -0.0448659414 -0.0417622065
v 0.054064362 -0.0426691219 -0.0392773255
v 0.03457899 -0.0393463315 -0.0345623645
v 0.015912161 -0.0406420516 -0.0335300636
v 0.009721716 -0.0392343505 -0.0317576225
v 0.009568126 -0.0374106559 -0.0303214816
v 0.012218742 -0.0373729623 -0.0305823681
v 0.04925832 0.00738130734 -0.0129919487
v 0.049465523 0.00608036243 -0.015700884
v 0.049634085 0.00891124943 -0.0156994869
v 0.045975559 0.00999557807 -0.0156931111
v 0.041791087 0.0108969997 -0.0156858894
v 0.044972523 0.00742278819 -0.015692702
v 0.049553058 0.0059547328 -0.0157009103
v 0.048895449 0.00475264727 -0.0194911965
v 0.049551311 0.0112904986 -0.0194891161
v 0.043236883 0.0128978104 -0.0194782328
v 0.03911124 0.014449115 -0.0194708887
v 0.035848054 0.0140344541 -0.0194665387
v 0.040086789 0.00938368768 -0.0194753372
v 0.043031636 0.00611653705 -0.0194812372
v 0.049103976 0.00598132732 -0.023823481
v 0.0515783 0.00878915278 -0.0238264885
v 0.051552601 0.012698806 -0.023824884
v 0.048200609 0.0152129071 -0.0238182475
v 0.045424176 0.0163077626 -0.0238127619
v 0.042641911 0.0158082531 -0.0238084435
v 0.039930416 0.0172757132 -0.0238037547
v 0.033289534 0.0173458034 -0.0237931517
v 0.032151209 0.01556671 -0.0237925875
v 0.03836375 0.0115028507 -0.023803931
v 0.041546051 0.00802777424 -0.0238107437
v 0.050696489 0.00570183322 -0.0292418147
v 0.05281297 0.00835276926 -0.0292439764
v 0.052843828 0.016651262 -0.0292398126
v 0.049644486 0.0181489796 -0.0292342389
v 0.04222581 0.0159920462 -0.0292240332
v 0.035971752 0.0195134678 -0.0292119224
v 0.03160196 0.019678335 -0.0292056993
v 0.032424636 0.0171690652 -0.029207063
v 0.03058639 0.0139176849 -0.029206756
v 0.031816941 0.0130964189 -0.0292078132
v 0.034370414 0.0138567121 -0.0292120774
v 0.041192057 0.010125679 -0.0292251093
v 0.047568157 0.00641813011 -0.0346520276
v 0.051516775 0.0125968617 -0.0346553091
v 0.050690415 0.016646772 -0.0346527889
v 0.045023728 0.0210001205 -0.0346414058
v 0.038052572 0.0220077172 -0.034629749
v 0.03283181 0.0226525021 -0.0346216782
v 0.03091086 0.0220560718 -0.0346182689
v 0.031738091 0.0180052952 -0.0346216559
v 0.029441521 0.0143405258 -0.034619681
v 0.029424479 0.0123640321 -0.0346209198
v 0.03148951 0.0112855375 -0.0346246483
v 0.033231924 0.0121332296 -0.0346271391
v 0.037210931 0.0119275784 -0.0346333585
v 0.040989388 0.00840233219 -0.0346410647
v 0.045288019 0.0144091902 -0.0373530735
v 0.046275425 0.017205534 -0.0373525755
v 0.041204169 0.0205728902 -0.0373431285
v 0.037219789 0.0219899109 -0.0373366805
v 0.033753099 0.0207312447 -0.0373316175
v 0.034191227 0.016969825 -0.0373340735
v 0.036151499 0.0153038261 -0.0373379105
v 0.041905903 0.015500491 -0.0373467045
v 0.040047715 0.0180817864 -0.0386970405
v 0.040568464 0.0036124492 -0.0219182412
v 0.040046167 0.000560382324 -0.0301990943
v 0.040216856 0.00155858489 -0.0254331508
v 0.039633485 -0.00184871797 -0.0201316514
v 0.039453477 -0.00290637088 -0.0175106766
v 0.03969424 -0.00149703124 -0.0148892489
v 0.040367787 0.00243710835 -0.0155436047
v 0.041061253 0.00648909452 -0.0161988007
v 0.041413481 0.00854450864 -0.0209035285
v 0.040981313 0.0060204592 -0.0262069834
v 0.040408055 0.00267472177 -0.0303182831
v 0.035601878 0.00108001117 -0.0275768318
v 0.035661726 0.00143196749 -0.0237650257
v 0.035068861 -0.00203360557 -0.0173318863
v 0.03476675 -0.00379552833 -0.0158426915
v 0.034938297 -0.0027989688 -0.011553326
v 0.036055106 0.00372011127 -0.0127435701
v 0.0368793 0.00853462689 -0.0133388377
v 0.037121615 0.00994425647 -0.0168531099
v 0.037221105 0.0105313649 -0.0193545941
v 0.03654743 0.00659805654 -0.0231090026
v 0.036134337 0.00419162924 -0.0272192632
v 0.031148029 0.00153924287 -0.0263262551
v 0.031188879 0.00177389288 -0.0207857985
v 0.030735338 -0.000869800424 -0.0165568896
v 0.030414189 -0.00274876042 -0.0147705073
v 0.030454095 -0.00251446027 -0.0119699283
v 0.030937198 0.000304339713 -0.0119694109
v 0.031480044 0.00347487059 -0.0115520429
v 0.032174349 0.00752702515 -0.0130997374
v 0.03234482 0.00852668789 -0.016078587
v 0.031992309 0.00647047195 -0.0209036465
v 0.031730726 0.00494616567 -0.0250154786
v 0.026592773 0.00141426719 -0.0287688153
v 0.026442196 0.000532575181 -0.0264450188
v 0.026332419 -0.000114096772 -0.0205477265
v 0.025919556 -0.00252288363 -0.0167355588
v 0.025879807 -0.00275733925 -0.0141144345
v 0.027226953 0.00511060266 -0.0136364157
v 0.027639827 0.00751845712 -0.0170915813
v 0.027135697 0.00458433753 -0.0259087772
v 0.026875265 0.0030564341 -0.0201303569
v 0.025696862 -0.00837276494 -0.0162332176
v 0.032753789 -0.0154448956 -0.0167763187
v 0.030495781 -0.0160924994 -0.0167763753
v 0.024271165 -0.0124107679 -0.0167755008
v 0.018598187 -0.0124557814 -0.0167753449
v 0.016185299 -0.00867731621 -0.0167745625
v 0.015192384 -0.00338746619 -0.0167735364
v 0.019401736 -0.00259054147 -0.0167735082
v 0.022074268 -0.00427116785 -0.0167739025
v 0.028254873 -0.00321400668 -0.0167738823
v 0.032861302 -0.00391607237 -0.0167741482
v 0.034540191 -0.00718080833 -0.0167748124
v 0.032797454 -0.0117683215 -0.0167756268
v 0.033785666 -0.015516613 -0.021650437
v 0.029573489 -0.0147746313 -0.021650175
v 0.025668399 -0.0104028283 -0.0216492376
v 0.021472129 -0.0117525795 -0.0216493704
v 0.018487771 -0.0108960416 -0.0216491225
v 0.017788039 -0.0076926855 -0.0216484982
v 0.016478339 -0.00482302109 -0.0216479192
v 0.018894104 -0.00453412608 -0.0216479348
v 0.022055814 -0.00344187554 -0.0216478205
v 0.026590467 -0.00517422251 -0.0216482785
v 0.032115351 -0.0056534643 -0.021648529
v 0.033583355 -0.00668178944 -0.0216487654
v 0.033362215 -0.0113721959 -0.0216496433
v 0.033814944 -0.0153544184 -0.0270660436
v 0.030460669 -0.0150394976 -0.0270658871
v 0.025527986 -0.0112016089 -0.0270650205
v 0.023058635 -0.0124159356 -0.0270651779
v 0.020329686 -0.0101192345 -0.0270646658
v 0.017693515 -0.00822630976 -0.0270642325
v 0.017526695 -0.00511819185 -0.0270636417
v 0.020937246 -0.00511336531 -0.0270637396
v 0.026204168 -0.0073611747 -0.0270643161
v 0.03175079 -0.00833778537 -0.0270646609
v 0.032665285 -0.0106425478 -0.027065122
v 0.029273755 -0.0114747264 -0.032480817
v 0.024831057 -0.0104719606 -0.0324804992
v 0.022180527 -0.011160347 -0.0324805521
v 0.019236409 -0.00695737298 -0.0324796744
v 0.021541907 -0.00510879063 -0.0324793927
v 0.024427472 -0.00589255676 -0.0324796241
v 0.026081933 -0.00805337281 -0.0324800794
v 0.029570632 -0.00916198984 -0.0324803896
v 0.025163574 -0.00921003045 -0.0338346137
v -0.00034871 -0.0269867024 -0.0284059927
v -0.000191206 -0.0260885347 -0.0307895732
v 0.000952015 -0.0273248334 -0.0263741461
v 0.000645446 -0.0290668892 -0.0291490052
v 0.00031986 -0.0309148538 -0.0309083431
v 0.000924076 -0.0274818666 -0.0345426888
v 0.001510249 -0.0241555101 -0.0333307091
v 0.001631557 -0.0234698566 -0.0299685562
v 0.005535535 -0.0244855198 -0.0217223616
v 0.005228015 -0.0262270156 -0.027468455
v 0.004725765 -0.0290773132 -0.0304783394
v 0.004409664 -0.0308721606 -0.033605007
v 0.004865876 -0.0282843229 -0.0357153308
v 0.005451163 -0.0249578323 -0.0352069511
v 0.006037338 -0.0216323564 -0.0339169862
v 0.006856322 -0.0169857019 -0.0357912436
v 0.007600037 -0.0127614122 -0.0357124834
v 0.007804521 -0.0116004056 -0.030397149
v 0.007200348 -0.0150328057 -0.0252776178
v 0.006270577 -0.0203139778 -0.0222293676
v 0.011114046 -0.0237253126 -0.0189469753
v 0.010490667 -0.0272641378 -0.019260431
v 0.010192739 -0.0289541067 -0.0225447835
v 0.010006418 -0.030007532 -0.0285628315
v 0.010071221 -0.0296375085 -0.0332531387
v 0.010712708 -0.0259942443 -0.0353632689
v 0.011652958 -0.0206616845 -0.0352063208
v 0.012945521 -0.0133218288 -0.0373157725
v 0.013345562 -0.011050957 -0.0357903128
v 0.013039184 -0.0127951176 -0.0319996874
v 0.013280943 -0.0114229965 -0.0250032992
v 0.013159805 -0.0121089105 -0.0223848561
v 0.012239574 -0.0173373058 -0.0189068113
v 0.016635249 -0.0232829406 -0.0217224566
v 0.015909661 -0.0274011451 -0.0237560252
v 0.015490471 -0.0297770847 -0.0287197844
v 0.015490352 -0.029776311 -0.0328235369
v 0.015565593 -0.0293520352 -0.0357158422
v 0.016132653 -0.0261318115 -0.0368884955
v 0.017117948 -0.0205350959 -0.0360270322
v 0.018179366 -0.0145159473 -0.0374721195
v 0.018587986 -0.0121917533 -0.0384101155
v 0.018681525 -0.0116642316 -0.0373936125
v 0.01844878 -0.0129849647 -0.03199988
v 0.018560645 -0.0123526925 -0.0258631974
v 0.018449013 -0.0129864754 -0.023987338
v 0.017435248 -0.0187424215 -0.0213698249
v 0.022334877 -0.0218367231 -0.0220741496
v 0.021878526 -0.0244253436 -0.0250059998
v 0.021366693 -0.0273272344 -0.0301266913
v 0.021115549 -0.0287522395 -0.0323937219
v 0.021087753 -0.0289110898 -0.0355209569
v 0.022110259 -0.0231028383 -0.0352070841
v 0.022920617 -0.0185083735 -0.0360268183
v 0.023440957 -0.0155517939 -0.0360262759
v 0.02364622 -0.0143902644 -0.0334854794
v 0.023338994 -0.0161336766 -0.02906924
v 0.023357333 -0.0160298808 -0.0234802829
v 0.023004998 -0.0180352533 -0.022229423
v 0.022315836 -0.0219433128 -0.0220351768
v 0.023067578 -0.0207668501 -0.0293439199
v 0.025250885 0.0246028704 -0.0213852741
v 0.030261622 0.0206243243 -0.0198091361
v 0.02735011 0.0219791051 -0.0151877427
v 0.021123818 0.0248822308 -0.0172050972
v 0.020789237 0.0250395989 -0.0202768063
v 0.019520517 0.025630848 -0.0228146423
v 0.020608835 0.0251237501 -0.0255407845
v 0.025815971 0.0226976217 -0.0265491347
v 0.027579458 0.0218753276 -0.0252764502
v 0.028326424 0.0165957579 -0.0202491567
v 0.027182685 0.0171277202 -0.0161582672
v 0.025649858 0.017843333 -0.0121175913
v 0.022703553 0.0192154108 -0.0119309481
v 0.021088248 0.0199693107 -0.0133986144
v 0.018248461 0.0212924722 -0.0156485852
v 0.019880086 0.0205326245 -0.0193972636
v 0.019899844 0.0205250845 -0.0253432027
v 0.018291408 0.0212758951 -0.0288081543
v 0.021391876 0.0198307015 -0.0317234294
v 0.023795731 0.0187096954 -0.0311804138
v 0.026134732 0.0176189804 -0.0259097559
v 0.028117654 0.0101204777 -0.0208759845
v 0.028200977 0.0100805969 -0.0160989718
v 0.027790392 0.0102718346 -0.0104467304
v 0.024745321 0.0116905882 -0.0097245777
v 0.021113563 0.0133841111 -0.0099303818
v 0.017927181 0.014869075 -0.0112072337
v 0.017638565 0.0150045665 -0.013110037
v 0.019228517 0.0142642548 -0.0193923611
v 0.018314995 0.0146906879 -0.0252922655
v 0.015337336 0.0160802441 -0.0305169242
v 0.017504549 0.0150705932 -0.0325092648
v 0.020155343 0.0138345688 -0.0329878841
v 0.023729989 0.0121673831 -0.0300534598
v 0.025878283 0.0111654375 -0.0269758971
v 0.025940106 0.00456304716 -0.0196092772
v 0.025578917 0.00473086875 -0.0138097396
v 0.02331294 0.00578631122 -0.0111848408
v 0.019883034 0.00738662288 -0.0131938548
v 0.016939321 0.0087588099 -0.013592969
v 0.013953946 0.0101504686 -0.016184329
v 0.015048272 0.00964029991 -0.0210065388
v 0.014419927 0.00993452442 -0.0240305559
v 0.017525555 0.00848697937 -0.0282611814
v 0.01953684 0.00754884837 -0.0282553512
v 0.020999691 0.0068673741 -0.0249853437
v 0.022440174 -0.000378354098 -0.019076343
v 0.022870956 -0.000579124461 -0.0155168031
v 0.02045852 0.000545672045 -0.0131856323
v 0.015700207 0.00276340477 -0.0141252293
v 0.012269454 0.00436187262 -0.0155493579
v 0.009966963 0.00543541108 -0.0170186775
v 0.010513691 0.00518205544 -0.0194050865
v 0.015188673 0.00300248925 -0.0233395515
v 0.017010133 0.00215387418 -0.0248934013
v 0.01892007 0.00126314724 -0.0236198672
v 0.016587503 -0.00422209869 -0.019283125
v 0.01560139 -0.00376321573 -0.0181158321
v 0.01245666 -0.00229765871 -0.0175401079
v 0.008926268 -0.000651657806 -0.0183793357
v 0.012466107 -0.0023014566 -0.0203675048
v 0.015708757 -0.00381289675 -0.0210888124
v 0.013601559 -0.00447461766 -0.0196314197
v -0.060049281 -0.00288644904 -0.0387596145
v -0.059221311 -0.00556256123 -0.0362429547
v -0.058460143 -0.00234152999 -0.0369503025
v -0.056370158 0.00290018525 -0.0412420245
v -0.055504921 0.00533375031 -0.0428463525
v -0.056576887 0.000187324446 -0.0422329415
v -0.057956506 -0.00435461138 -0.0401116945
v -0.059138841 -0.00684042604 -0.0373757165
v -0.056223166 -0.0103250228 -0.028456687
v -0.055855426 -0.00648571319 -0.027324323
v -0.053317198 0.00318452702 -0.0303891233
v -0.051239232 0.00754943852 -0.0351991793
v -0.048551126 0.0104315922 -0.0432181885
v -0.046884263 0.011294185 -0.0487853485
v -0.046313092 0.00965371001 -0.0519466735
v -0.047430154 0.00484687544 -0.0509562695
v -0.049415787 -0.00343753468 -0.0490237415
v -0.050504507 -0.006270696 -0.0468545235
v -0.052504543 -0.0102638582 -0.0420903245
v -0.055287076 -0.0132387946 -0.0337879832
v -0.056061726 -0.0126087073 -0.0305323945
v -0.05088507 -0.0116516378 -0.0197565478
v -0.050764117 -0.00892498819 -0.0184346204
v -0.049242058 -0.000284010944 -0.0184330354
v -0.04793339 0.00349976992 -0.0207918454
v -0.046480708 0.00577441085 -0.0246595235
v -0.043986703 0.00885567122 -0.0318293174
v -0.041467682 0.0128120138 -0.0385275705
v -0.039642297 0.0139216638 -0.0445184085
v -0.03857458 0.0115347714 -0.0499908485
v -0.038697827 0.00638827559 -0.0528703345
v -0.039703931 0.00112061049 -0.0525879515
v -0.040808982 -0.00275310607 -0.0510315465
v -0.04265548 -0.00820255082 -0.0477779395
v -0.043952773 -0.0128691804 -0.0460336465
v -0.044781709 -0.0145940036 -0.0440999155
v -0.046069265 -0.0140362572 -0.0390038755
v -0.047858933 -0.0166915278 -0.0341458485
v -0.048794481 -0.0180672819 -0.0315985653
v -0.049871466 -0.0177692774 -0.0274470674
v -0.044416292 -0.0131237275 -0.0153014605
v -0.042057907 0.00048413255 -0.0151577234
v -0.04106541 0.00371835442 -0.0167142446
v -0.037447667 0.00676850005 -0.028035489
v -0.033020092 0.0118744171 -0.0410079205
v -0.031510239 0.0142487396 -0.0450168205
v -0.030492976 0.0134655037 -0.0492637235
v -0.0305444 0.00902084832 -0.0519533155
v -0.031289127 0.00596184712 -0.0511991475
v -0.033979769 -0.00428814009 -0.0479455545
v -0.036165436 -0.0134165876 -0.0458242825
v -0.036973272 -0.0175629691 -0.0455425615
v -0.037887085 -0.0195477824 -0.0434667705
v -0.038751934 -0.0181865317 -0.0394095265
v -0.040285464 -0.0183013149 -0.0338430956
v -0.041721033 -0.0188743386 -0.0289370286
v -0.043089262 -0.0175343041 -0.0230393252
v -0.036912408 -0.0125753801 -0.0133476127
v -0.036821766 -0.00995185717 -0.0119789129
v -0.034833894 0.00119079553 -0.0120713202
v -0.033843975 0.00426126679 -0.0137214543
v -0.032670096 0.00509918877 -0.017495813
v -0.028681355 0.0067642787 -0.0310814976
v -0.02571697 0.0104775364 -0.0395726015
v -0.025139048 0.0102657548 -0.0418376945
v -0.025391601 0.00679129352 -0.0431580245
v -0.02835695 -0.00989711214 -0.0430675025
v -0.029122153 -0.0154816762 -0.0438709145
v -0.029721243 -0.0191712927 -0.0440596235
v -0.031014537 -0.0211980103 -0.0406164895
v -0.031408894 -0.0200841551 -0.0384465475
v -0.032716592 -0.017819625 -0.032171742
v -0.035146875 -0.017778342 -0.0232077028
v -0.036481378 -0.015951364 -0.017121876
v -0.029678615 -0.013850156 -0.0115821301
v -0.029289976 -0.01083997 -0.0110625387
v -0.027902096 -0.00310968831 -0.0111547036
v -0.027562845 -9.08796248e-05 -0.0104470798
v -0.025451378 0.00657694105 -0.013889364
v -0.024370194 0.00732208094 -0.0173812562
v -0.021793151 0.00461501928 -0.0286082387
v -0.019670809 0.00748630178 -0.0345528293
v -0.018933386 0.00664218313 -0.0378075905
v -0.019363622 0.00369347678 -0.0381382715
v -0.020510399 -0.00594700633 -0.0401694035
v -0.021067139 -0.00881870998 -0.0399801645
v -0.021401904 -0.0130487359 -0.0414903985
v -0.022314704 -0.0161875863 -0.0401712815
v -0.024138101 -0.019330667 -0.0355005098
v -0.026362715 -0.0219100597 -0.0289909024
v -0.027554186 -0.020656516 -0.0238020184
v -0.02932462 -0.0178162209 -0.0154509529
v -0.021438122 -0.0145877898 -0.0131656083
v -0.021201172 -0.0110535613 -0.0117499516
v -0.018768688 -0.00103511808 -0.0142011976
v -0.01724478 0.00667015241 -0.0148124063
v -0.017003516 0.0103672661 -0.0133031369
v -0.016407643 0.0120771646 -0.0143876915
v -0.015428503 0.0112999616 -0.0184916199
v -0.015038989 0.00738331083 -0.0224548832
v -0.013699829 0.00297014523 -0.0302404065
v -0.01317824 0.00287787885 -0.0322212633
v -0.012954508 0.00129862549 -0.0340611511
v -0.013555504 -0.00101428839 -0.0333545037
v -0.013554769 -0.0068434016 -0.0371292185
v -0.013997861 -0.0108889761 -0.0381212465
v -0.014951392 -0.0139654806 -0.0366114865
v -0.016492309 -0.0173240564 -0.0331218048
v -0.018656717 -0.0232684807 -0.0290182434
v -0.019741266 -0.024837566 -0.0260464068
v -0.020119522 -0.0208671898 -0.0220822669
v -0.021388451 -0.0168490415 -0.0148167204
v -0.013537719 -0.0185634308 -0.0155988566
v -0.012171063 -0.0142935507 -0.0178631278
v -0.011049828 -0.00822264096 -0.0180500466
v -0.011160258 -0.00506905277 -0.0155963813
v -0.010376094 0.00128142208 -0.0143691071
v -0.010592637 0.00769776951 -0.0094140983
v -0.01057043 0.010222466 -0.0078573858
v -0.009748949 0.0161267767 -0.0070539165
v -0.008994471 0.0174235376 -0.0089877263
v -0.007040251 0.0137273964 -0.018565058
v -0.00652813 0.0131421418 -0.0208293531
v -0.006684462 0.00926662207 -0.0227649783
v -0.007078692 0.00251620003 -0.0256906829
v -0.00613832 -1.28892735e-05 -0.0307862181
v -0.006048592 -0.00387694055 -0.0336169445
v -0.006092426 -0.00667283712 -0.035269023
v -0.007369548 -0.0132680478 -0.0348456439
v -0.009225774 -0.0171753162 -0.0305536756
v -0.01086532 -0.0216706859 -0.0274411347
v -0.012014544 -0.025649274 -0.0257902988
v -0.012730198 -0.0256325447 -0.0231491781
v -0.013185629 -0.0211553926 -0.0185714565
v -0.006000577 -0.0206618943 -0.0154850939
v -0.005889009 -0.0190858272 -0.0148713145
v -0.005061453 -0.0132924093 -0.0141623166
v -0.004948429 -0.00951915943 -0.012133994
v -0.003639706 -0.0061737748 -0.0147744981
v -0.001731219 0.00239821345 -0.0162355923
v -0.00049188 0.00630409976 -0.018263373
v -1.438e-05 0.00545110006 -0.020574507
v -0.000371001 0.00276410652 -0.0209995896
v 2.2882e-05 -0.0014835032 -0.0251994708
v 0.000494955 -0.00739452766 -0.0307678725
v 8.526e-05 -0.0151855044 -0.0343072568
v -0.000657589 -0.0193994109 -0.0343080297
v -0.001300299 -0.0207168711 -0.0327979467
v -0.00214784 -0.0191918581 -0.0286938812
v -0.003572844 -0.0210869939 -0.0246840274
v -0.0051641 -0.0237776204 -0.0205798684
v -0.005606165 -0.0222150132 -0.0179384641
v 0.000459701 -0.0182243027 -0.0157638345
v 0.000522268 -0.0128465304 -0.0125073749
v 0.001004468 -0.00974269534 -0.0122711134
v 0.003081311 -0.0033434865 -0.0157611049
v 0.003908481 -0.00134575105 -0.0175067537
v 0.005163034 -0.00129098345 -0.0220827757
v 0.005404866 -0.00210259381 -0.023497933
v 0.003983335 -0.00405230918 -0.0195357458
v 0.002857533 -0.00825354021 -0.018121508
v 0.001969387 -0.0145313236 -0.0189241807
v 0.001717643 -0.0175656539 -0.0199628142
v 0.001266539 -0.0199053012 -0.0198211356
v 0.000794392 -0.0202626532 -0.0183117433
v 0.002737432 -0.0160959007 -0.0154636885
v 0.003099729 -0.0103314651 -0.0130563374
v 0.004219574 -0.00695418041 -0.0149906306
f 14 2 1
f 14 15 3
f 14 3 2
f 15 16 4
f 15 4 3
f 16 17 5
f 16 5 4
f 17 18 6
f 17 6 5
f 18 19 7
f 18 7 6
f 19 20 8
f 19 8 7
f 20 21 9
f 20 9 8
f 21 22 10
f 21 10 9
f 22 23 11
f 22 11 10
f 23 24 12
f 23 12 11
f 24 13 12
f 25 14 1
f 25 26 15
f 25 15 14
f 26 27 16
f 26 16 15
f 27 28 17
f 27 17 16
f 28 29 18
f 28 18 17
f 29 30 19
f 29 19 18
f 30 31 20
f 30 20 19
f 31 32 21
f 31 21 20
f 32 33 22
f 32 22 21
f 33 34 23
f 33 23 22
f 34 35 24
f 34 24 23
f 35 13 24
f 36 25 1
f 36 37 26
f 36 26 25
f 37 38 27
f 37 27 26
f 38 39 28
f 38 28 27
f 39 40 29
f 39 29 28
f 40 41 30
f 40 30 29
f 41 42 31
f 41 31 30
f 42 43 32
f 42 32 31
f 43 44 33
f 43 33 32
f 44 45 34
f 44 34 33
f 45 46 35
f 45 35 34
f 46 13 35
f 47 36 1
f 47 48 37
f 47 37 36
f 48 49 38
f 48 38 37
f 49 50 39
f 49 39 38
f 50 51 40
f 50 40 39
f 51 52 41
f 51 41 40
f 52 53 42
f 52 42 41
f 53 54 43
f 53 43 42
f 54 55 44
f 54 44 43
f 55 56 45
f 55 45 44
f 56 57 46
f 56 46 45
f 57 13 46
f 58 47 1
f 58 59 48
f 58 48 47
f 59 60 49
f 59 49 48
f 60 61 50
f 60 50 49
f 61 62 51
f 61 51 50
f 62 63 52
f 62 52 51
f 63 64 53
f 63 53 52
f 64 65 54
f 64 54 53
f 65 66 55
f 65 55 54
f 66 67 56
f 66 56 55
f 67 68 57
f 67 57 56
f 68 13 57
f 69 58 1
f 69 70 59
f 69 59 58
f 70 71 60
f 70 60 59
f 71 72 61
f 71 61 60
f 72 73 62
f 72 62 61
f 73 74 63
f 73 63 62
f 74 75 64
f 74 64 63
f 75 76 65
f 75 65 64
f 76 77 66
f 76 66 65
f 77 78 67
f 77 67 66
f 78 79 68
f 78 68 67
f 79 13 68
f 80 69 1
f 80 81 70
f 80 70 69
f 81 82 71
f 81 71 70
f 82 83 72
f 82 72 71
f 83 84 73
f 83 73 72
f 84 85 74
f 84 74 73
f 85 86 75
f 85 75 74
f 86 87 76
f 86 76 75
f 87 88 77
f 87 77 76
f 88 89 78
f 88 78 77
f 89 90 79
f 89 79 78
f 90 13 79
f 91 80 1
f 91 92 81
f 91 81 80
f 92 93 82
f 92 82 81
f 93 94 83
f 93 83 82
f 94 95 84
f 94 84 83
f 95 96 85
f 95 85 84
f 96 97 86
f 96 86 85
f 97 98 87
f 97 87 86
f 98 99 88
f 98 88 87
f 99 100 89
f 99 89 88
f 100 101 90
f 100 90 89
f 101 13 90
f 102 91 1
f 102 103 92
f 102 92 91
f 103 104 93
f 103 93 92
f 104 105 94
f 104 94 93
f 105 106 95
f 105 95 94
f 106 107 96
f 106 96 95
f 107 108 97
f 107 97 96
f 108 109 98
f 108 98 97
f 109 110 99
f 109 99 98
f 110 111 100
f 110 100 99
f 111 112 101
f 111 101 100
f 112 13 101
f 2 102 1
f 2 3 103
f 2 103 102
f 3 4 104
f 3 104 103
f 4 5 105
f 4 105 104
f 5 6 106
f 5 106 105
f 6 7 107
f 6 107 106
f 7 8 108
f 7 108 107
f 8 9 109
f 8 109 108
f 9 10 110
f 9 110 109
f 10 11 111
f 10 111 110
f 11 12 112
f 11 112 111
f 12 13 112
f 126 114 113
f 126 127 115
f 126 115 114
f 127 128 116
f 127 116 115
f 128 129 117
f 128 117 116
f 129 130 118
f 129 118 117
f 130 131 119
f 130 119 118
f 131 132 120
f 131 120 119
f 132 133 121
f 132 121 120
f 133 134 122
f 133 122 121
f 134 135 123
f 134 123 122
f 135 136 124
f 135 124 123
f 136 125 124
f 137 126 113
f 137 138 127
f 137 127 126
f 138 139 128
f 138 128 127
f 139 140 129
f 139 129 128
f 140 141 130
f 140 130 129
f 141 142 131
f 141 131 130
f 142 143 132
f 142 132 131
f 143 144 133
f 143 133 132
f 144 145 134
f 144 134 133
f 145 146 135
f 145 135 134
f 146 147 136
f 146 136 135
f 147 125 136
f 148 137 113
f 148 149 138
f 148 138 137
f 149 150 139
f 149 139 138
f 150 151 140
f 150 140 139
f 151 152 141
f 151 141 140
f 152 153 142
f 152 142 141
f 153 154 143
f 153 143 142
f 154 155 144
f 154 144 143
f 155 156 145
f 155 145 144
f 156 157 146
f 156 146 145
f 157 158 147
f 157 147 146
f 158 125 147
f 159 148 113
f 159 160 149
f 159 149 148
f 160 161 150
f 160 150 149
f 161 162 151
f 161 151 150
f 162 163 152
f 162 152 151
f 163 164 153
f 163 153 152
f 164 165 154
f 164 154 153
f 165 166 155
f 165 155 154
f 166 167 156
f 166 156 155
f 167 168 157
f 167 157 156
f 168 169 158
f 168 158 157
f 169 125 158
f 170 159 113
f 170 171 160
f 170 160 159
f 171 172 161
f 171 161 160
f 172 173 162
f 172 162 161
f 173 174 163
f 173 163 162
f 174 175 164
f 174 164 163
f 175 176 165
f 175 165 164
f 176 177 166
f 176 166 165
f 177 178 167
f 177 167 166
f 178 179 168
f 178 168 167
f 179 180 169
f 179 169 168
f 180 125 169
f 181 170 113
f 181 182 171
f 181 171 170
f 182 183 172
f 182 172 171
f 183 184 173
f 183 173 172
f 184 185 174
f 184 174 173
f 185 186 175
f 185 175 174
f 186 187 176
f 186 176 175
f 187 188 177
f 187 177 176
f 188 189 178
f 188 178 177
f 189 190 179
f 189 179 178
f 190 191 180
f 190 180 179
f 191 125 180
f 192 181 113
f 192 193 182
f 192 182 181
f 193 194 183
f 193 183 182
f 194 195 184
f 194 184 183
f 195 196 185
f 195 185 184
f 196 197 186
f 196 186 185
f 197 198 187
f 197 187 186
f 198 199 188
f 198 188 187
f 199 200 189
f 199 189 188
f 200 201 190
f 200 190 189
f 201 202 191
f 201 191 190
f 202 125 191
f 203 192 113
f 203 204 193
f 203 193 192
f 204 205 194
f 204 194 193
f 205 206 195
f 205 195 194
f 206 207 196
f 206 196 195
f 207 208 197
f 207 197 196
f 208 209 198
f 208 198 197
f 209 210 199
f 209 199 198
f 210 211 200
f 210 200 199
f 211 212 201
f 211 201 200
f 212 213 202
f 212 202 201
f 213 125 202
f 214 203 113
f 214 215 204
f 214 204 203
f 215 216 205
f 215 205 204
f 216 217 206
f 216 206 205
f 217 218 207
f 217 207 206
f 218 219 208
f 218 208 207
f 219 220 209
f 219 209 208
f 220 221 210
f 220 210 209
f 221 222 211
f 221 211 210
f 222 223 212
f 222 212 211
f 223 224 213
f 223 213 212
f 224 125 213
f 114 214 113
f 114 115 215
f 114 215 214
f 115 116 216
f 115 216 215
f 116 117 217
f 116 217 216
f 117 118 218
f 117 218 217
f 118 119 219
f 118 219 218
f 119 120 220
f 119 220 219
f 120 121 221
f 120 221 220
f 121 122 222
f 121 222 221
f 122 123 223
f 122 223 222
f 123 124 224
f 123 224 223
f 124 125 224
f 238 226 225
f 238 239 227
f 238 227 226
f 239 240 228
f 239 228 227
f 240 241 229
f 240 229 228
f 241 242 230
f 241 230 229
f 242 243 231
f 242 231 230
f 243 244 232
f 243 232 231
f 244 245 233
f 244 233 232
f 245 246 234
f 245 234 233
f 246 247 235
f 246 235 234
f 247 248 236
f 247 236 235
f 248 237 236
f 249 238 225
f 249 250 239
f 249 239 238
f 250 251 240
f 250 240 239
f 251 252 241
f 251 241 240
f 252 253 242
f 252 242 241
f 253 254 243
f 253 243 242
f 254 255 244
f 254 244 243
f 255 256 245
f 255 245 244
f 256 257 246
f 256 246 245
f 257 258 247
f 257 247 246
f 258 259 248
f 258 248 247
f 259 237 248
f 260 249 225
f 260 261 250
f 260 250 249
f 261 262 251
f 261 251 250
f 262 263 252
f 262 252 251
f 263 264 253
f 263 253 252
f 264 265 254
f 264 254 253
f 265 266 255
f 265 255 254
f 266 267 256
f 266 256 255
f 267 268 257
f 267 257 256
f 268 269 258
f 268 258 257
f 269 270 259
f 269 259 258
f 270 237 259
f 271 260 225
f 271 272 261
f 271 261 260
f 272 273 262
f 272 262 261
f 273 274 263
f 273 263 262
f 274 275 264
f 274 264 263
f 275 276 265
f 275 265 264
f 276 277 266
f 276 266 265
f 277 278 267
f 277 267 266
f 278 279 268
f 278 268 267
f 279 280 269
f 279 269 268
f 280 281 270
f 280 270 269
f 281 237 270
f 282 271 225
f 282 283 272
f 282 272 271
f 283 284 273
f 283 273 272
f 284 285 274
f 284 274 273
f 285 286 275
f 285 275 274
f 286 287 276
f 286 276 275
f 287 288 277
f 287 277 276
f 288 289 278
f 288 278 277
f 289 290 279
f 289 279 278
f 290 291 280
f 290 280 279
f 291 292 281
f 291 281 280
f 292 237 281
f 293 282 225
f 293 294 283
f 293 283 282
f 294 295 284
f 294 284 283
f 295 296 285
f 295 285 284
f 296 297 286
f 296 286 285
f 297 298 287
f 297 287 286
f 298 299 288
f 298 288 287
f 299 300 289
f 299 289 288
f 300 301 290
f 300 290 289
f 301 302 291
f 301 291 290
f 302 303 292
f 302 292 291
f 303 237 292
f 304 293 225
f 304 305 294
f 304 294 293
f 305 306 295
f 305 295 294
f 306 307 296
f 306 296 295
f 307 308 297
f 307 297 296
f 308 309 298
f 308 298 297
f 309 310 299
f 309 299 298
f 310 311 300
f 310 300 299
f 311 312 301
f 311 301 300
f 312 313 302
f 312 302 301
f 313 314 303
f 313 303 302
f 314 237 303
f 315 304 225
f 315 316 305
f 315 305 304
f 316 317 306
f 316 306 305
f 317 318 307
f 317 307 306
f 318 319 308
f 318 308 307
f 319 320 309
f 319 309 308
f 320 321 310
f 320 310 309
f 321 322 311
f 321 311 310
f 322 323 312
f 322 312 311
f 323 324 313
f 323 313 312
f 324 325 314
f 324 314 313
f 325 237 314
f 326 315 225
f 326 327 316
f 326 316 315
f 327 328 317
f 327 317 316
f 328 329 318
f 328 318 317
f 329 330 319
f 329 319 318
f 330 331 320
f 330 320 319
f 331 332 321
f 331 321 320
f 332 333 322
f 332 322 321
f 333 334 323
f 333 323 322
f 334 335 324
f 334 324 323
f 335 336 325
f 335 325 324
f 336 237 325
f 226 326 225
f 226 227 327
f 226 327 326
f 227 228 328
f 227 328 327
f 228 229 329
f 228 329 328
f 229 230 330
f 229 330 329
f 230 231 331
f 230 331 330
f 231 232 332
f 231 332 331
f 232 233 333
f 232 333 332
f 233 234 334
f 233 334 333
f 234 235 335
f 234 335 334
f 235 236 336
f 235 336 335
f 236 237 336
f 350 338 337
f 350 351 339
f 350 339 338
f 351 352 340
f 351 340 339
f 352 353 341
f 352 341 340
f 353 354 342
f 353 342 341
f 354 355 343
f 354 343 342
f 355 356 344
f 355 344 343
f 356 357 345
f 356 345 344
f 357 358 346
f 357 346 345
f 358 359 347
f 358 347 346
f 359 360 348
f 359 348 347
f 360 349 348
f 361 350 337
f 361 362 351
f 361 351 350
f 362 363 352
f 362 352 351
f 363 364 353
f 363 353 352
f 364 365 354
f 364 354 353
f 365 366 355
f 365 355 354
f 366 367 356
f 366 356 355
f 367 368 357
f 367 357 356
f 368 369 358
f 368 358 357
f 369 370 359
f 369 359 358
f 370 371 360
f 370 360 359
f 371 349 360
f 372 361 337
f 372 373 362
f 372 362 361
f 373 374 363
f 373 363 362
f 374 375 364
f 374 364 363
f 375 376 365
f 375 365 364
f 376 377 366
f 376 366 365
f 377 378 367
f 377 367 366
f 378 379 368
f 378 368 367
f 379 380 369
f 379 369 368
f 380 381 370
f 380 370 369
f 381 382 371
f 381 371 370
f 382 349 371
f 383 372 337
f 383 384 373
f 383 373 372
f 384 385 374
f 384 374 373
f 385 386 375
f 385 375 374
f 386 387 376
f 386 376 375
f 387 388 377
f 387 377 376
f 388 389 378
f 388 378 377
f 389 390 379
f 389 379 378
f 390 391 380
f 390 380 379
f 391 392 381
f 391 381 380
f 392 393 382
f 392 382 381
f 393 349 382
f 394 383 337
f 394 395 384
f 394 384 383
f 395 396 385
f 395 385 384
f 396 397 386
f 396 386 385
f 397 398 387
f 397 387 386
f 398 399 388
f 398 388 387
f 399 400 389
f 399 389 388
f 400 401 390
f 400 390 389
f 401 402 391
f 401 391 390
f 402 403 392
f 402 392 391
f 403 404 393
f 403 393 392
f 404 349 393
f 405 394 337
f 405 406 395
f 405 395 394
f 406 407 396
f 406 396 395
f 407 408 397
f 407 397 396
f 408 409 398
f 408 398 397
f 409 410 399
f 409 399 398
f 410 411 400
f 410 400 399
f 411 412 401
f 411 401 400
f 412 413 402
f 412 402 401
f 413 414 403
f 413 403 402
f 414 415 404
f 414 404 403
f 415 349 404
f 416 405 337
f 416 417 406
f 416 406 405
f 417 418 407
f 417 407 406
f 418 419 408
f 418 408 407
f 419 420 409
f 419 409 408
f 420 421 410
f 420 410 409
f 421 422 411
f 421 411 410
f 422 423 412
f 422 412 411
f 423 424 413
f 423 413 412
f 424 425 414
f 424 414 413
f 425 426 415
f 425 415 414
f 426 349 415
f 427 416 337
f 427 428 417
f 427 417 416
f 428 429 418
f 428 418 417
f 429 430 419
f 429 419 418
f 430 431 420
f 430 420 419
f 431 432 421
f 431 421 420
f 432 433 422
f 432 422 421
f 433 434 423
f 433 423 422
f 434 435 424
f 434 424 423
f 435 436 425
f 435 425 424
f 436 437 426
f 436 426 425
f 437 349 426
f 438 427 337
f 438 439 428
f 438 428 427
f 439 440 429
f 439 429 428
f 440 441 430
f 440 430 429
f 441 442 431
f 441 431 430
f 442 443 432
f 442 432 431
f 443 444 433
f 443 433 432
f 444 445 434
f 444 434 433
f 445 446 435
f 445 435 434
f 446 447 436
f 446 436 435
f 447 448 437
f 447 437 436
f 448 349 437
f 338 438 337
f 338 339 439
f 338 439 438
f 339 340 440
f 339 440 439
f 340 341 441
f 340 441 440
f 341 342 442
f 341 442 441
f 342 343 443
f 342 443 442
f 343 344 444
f 343 444 443
f 344 345 445
f 344 445 444
f 345 346 446
f 345 446 445
f 346 347 447
f 346 447 446
f 347 348 448
f 347 448 447
f 348 349 448
f 462 450 449
f 462 463 451
f 462 451 450
f 463 464 452
f 463 452 451
f 464 465 453
f 464 453 452
f 465 466 454
f 465 454 453
f 466 467 455
f 466 455 454
f 467 468 456
f 467 456 455
f 468 469 457
f 468 457 456
f 469 470 458
f 469 458 457
f 470 471 459
f 470 459 458
f 471 472 460
f 471 460 459
f 472 461 460
f 473 462 449
f 473 474 463
f 473 463 462
f 474 475 464
f 474 464 463
f 475 476 465
f 475 465 464
f 476 477 466
f 476 466 465
f 477 478 467
f 477 467 466
f 478 479 468
f 478 468 467
f 479 480 469
f 479 469 468
f 480 481 470
f 480 470 469
f 481 482 471
f 481 471 470
f 482 483 472
f 482 472 471
f 483 461 472
f 484 473 449
f 484 485 474
f 484 474 473
f 485 486 475
f 485 475 474
f 486 487 476
f 486 476 475
f 487 488 477
f 487 477 476
f 488 489 478
f 488 478 477
f 489 490 479
f 489 479 478
f 490 491 480
f 490 480 479
f 491 492 481
f 491 481 480
f 492 493 482
f 492 482 481
f 493 494 483
f 493 483 482
f 494 461 483
f 495 484 449
f 495 496 485
f 495 485 484
f 496 497 486
f 496 486 485
f 497 498 487
f 497 487 486
f 498 499 488
f 498 488 487
f 499 500 489
f 499 489 488
f 500 501 490
f 500 490 489
f 501 502 491
f 501 491 490
f 502 503 492
f 502 492 491
f 503 504 493
f 503 493 492
f 504 505 494
f 504 494 493
f 505 461 494
f 506 495 449
f 506 507 496
f 506 496 495
f 507 508 497
f 507 497 496
f 508 509 498
f 508 498 497
f 509 510 499
f 509 499 498
f 510 511 500
f 510 500 499
f 511 512 501
f 511 501 500
f 512 513 502
f 512 502 501
f 513 514 503
f 513 503 502
f 514 515 504
f 514 504 503
f 515 516 505
f 515 505 504
f 516 461 505
f 517 506 449
f 517 518 507
f 517 507 506
f 518 519 508
f 518 508 507
f 519 520 509
f 519 509 508
f 520 521 510
f 520 510 509
f 521 522 511
f 521 511 510
f 522 523 512
f 522 512 511
f 523 524 513
f 523 513 512
f 524 525 514
f 524 514 513
f 525 526 515
f 525 515 514
f 526 527 516
f 526 516 515
f 527 461 516
f 528 517 449
f 528 529 518
f 528 518 517
f 529 530 519
f 529 519 518
f 530 531 520
f 530 520 519
f 531 532 521
f 531 521 520
f 532 533 522
f 532 522 521
f 533 534 523
f 533 523 522
f 534 535 524
f 534 524 523
f 535 536 525
f 535 525 524
f 536 537 526
f 536 526 525
f 537 538 527
f 537 527 526
f 538 461 527
f 539 528 449
f 539 540 529
f 539 529 528
f 540 541 530
f 540 530 529
f 541 542 531
f 541 531 530
f 542 543 532
f 542 532 531
f 543 544 533
f 543 533 532
f 544 545 534
f 544 534 533
f 545 546 535
f 545 535 534
f 546 547 536
f 546 536 535
f 547 548 537
f 547 537 536
f 548 549 538
f 548 538 537
f 549 461 538
f 550 539 449
f 550 551 540
f 550 540 539
f 551 552 541
f 551 541 540
f 552 553 542
f 552 542 541
f 553 554 543
f 553 543 542
f 554 555 544
f 554 544 543
f 555 556 545
f 555 545 544
f 556 557 546
f 556 546 545
f 557 558 547
f 557 547 546
f 558 559 548
f 558 548 547
f 559 560 549
f 559 549 548
f 560 461 549
f 450 550 449
f 450 451 551
f 450 551 550
f 451 452 552
f 451 552 551
f 452 453 553
f 452 553 552
f 453 454 554
f 453 554 553
f 454 455 555
f 454 555 554
f 455 456 556
f 455 556 555
f 456 457 557
f 456 557 556
f 457 458 558
f 457 558 557
f 458 459 559
f 458 559 558
f 459 460 560
f 459 560 559
f 460 461 560
f 562 563 561
f 563 564 561
f 564 565 561
f 565 566 561
f 566 567 561
f 567 562 561
f 568 569 562
f 569 563 562
f 569 570 563
f 570 564 563
f 570 571 564
f 571 565 564
f 571 572 565
f 572 573 565
f 573 566 565
f 573 574 566
f 574 567 566
f 574 568 567
f 568 562 567
f 575 576 568
f 576 569 568
f 576 577 569
f 577 578 569
f 578 570 569
f 578 579 570
f 579 580 570
f 580 581 570
f 581 571 570
f 581 582 571
f 582 572 571
f 582 583 572
f 583 573 572
f 583 584 573
f 584 585 573
f 585 574 573
f 585 575 574
f 575 568 574
f 586 587 575
f 587 576 575
f 587 577 576
f 587 588 577
f 588 578 577
f 588 589 578
f 589 579 578
f 589 580 579
f 589 590 580
f 590 581 580
f 590 591 581
f 591 582 581
f 591 592 582
f 592 583 582
f 592 593 583
f 593 594 583
f 594 584 583
f 594 595 584
f 595 596 584
f 596 597 584
f 597 585 584
f 597 586 585
f 586 575 585
f 598 587 586
f 598 599 587
f 599 588 587
f 599 600 588
f 600 589 588
f 600 601 589
f 601 590 589
f 601 602 590
f 602 591 590
f 602 603 591
f 603 592 591
f 603 604 592
f 604 593 592
f 604 605 593
f 605 594 593
f 605 606 594
f 606 595 594
f 606 607 595
f 607 608 595
f 608 609 595
f 609 596 595
f 609 610 596
f 610 597 596
f 610 611 597
f 611 586 597
f 611 598 586
f 612 599 598
f 612 613 599
f 613 600 599
f 613 614 600
f 614 601 600
f 614 602 601
f 614 615 602
f 615 603 602
f 615 616 603
f 616 604 603
f 616 605 604
f 616 606 605
f 616 617 606
f 617 607 606
f 617 608 607
f 617 609 608
f 617 618 609
f 618 610 609
f 618 611 610
f 618 619 611
f 619 598 611
f 619 612 598
f 620 613 612
f 620 614 613
f 620 615 614
f 620 616 615
f 620 617 616
f 620 618 617
f 620 619 618
f 620 612 619
f 621 623 622
f 621 624 623
f 621 625 624
f 621 626 625
f 621 627 626
f 621 628 627
f 621 629 628
f 621 630 629
f 621 631 630
f 621 622 631
f 622 633 632
f 622 623 633
f 623 634 633
f 623 624 634
f 624 635 634
f 624 625 635
f 625 636 635
f 625 626 636
f 626 627 636
f 627 637 636
f 627 628 637
f 628 638 637
f 628 639 638
f 628 629 639
f 629 640 639
f 629 630 640
f 630 641 640
f 630 642 641
f 630 631 642
f 631 632 642
f 631 622 632
f 632 633 643
f 633 644 643
f 633 634 644
f 634 645 644
f 634 635 645
f 635 646 645
f 635 636 646
f 636 647 646
f 636 648 647
f 636 637 648
f 637 649 648
f 637 638 649
f 638 650 649
f 638 639 650
f 639 651 650
f 639 640 651
f 640 652 651
f 640 641 652
f 641 653 652
f 641 642 653
f 642 643 653
f 642 632 643
f 643 655 654
f 643 644 655
f 644 656 655
f 644 645 656
f 645 657 656
f 645 646 657
f 646 647 657
f 647 658 657
f 647 648 658
f 648 659 658
f 648 649 659
f 649 650 659
f 650 660 659
f 650 651 660
f 651 652 660
f 652 661 660
f 652 653 661
f 653 654 661
f 653 643 654
f 654 655 662
f 655 656 662
f 656 657 662
f 657 658 662
f 658 659 662
f 659 660 662
f 660 661 662
f 661 654 662
f 663 665 664
f 663 666 665
f 663 667 666
f 663 668 667
f 663 669 668
f 663 670 669
f 663 671 670
f 663 672 671
f 663 673 672
f 663 674 673
f 663 675 674
f 663 664 675
f 664 665 676
f 665 677 676
f 665 666 677
f 666 678 677
f 666 679 678
f 666 667 679
f 667 680 679
f 667 668 680
f 668 681 680
f 668 669 681
f 669 682 681
f 669 683 682
f 669 670 683
f 670 684 683
f 670 671 684
f 671 685 684
f 671 672 685
f 672 686 685
f 672 673 686
f 673 687 686
f 673 674 687
f 674 688 687
f 674 675 688
f 675 664 688
f 664 676 688
f 676 690 689
f 676 677 690
f 677 691 690
f 677 678 691
f 678 692 691
f 678 679 692
f 679 680 692
f 680 693 692
f 680 681 693
f 681 694 693
f 681 682 694
f 682 695 694
f 682 683 695
f 683 696 695
f 683 684 696
f 684 697 696
f 684 685 697
f 685 698 697
f 685 686 698
f 686 687 698
f 687 699 698
f 687 688 699
f 688 689 699
f 688 676 689
f 689 690 700
f 690 701 700
f 690 691 701
f 691 692 701
f 692 702 701
f 692 693 702
f 693 703 702
f 693 694 703
f 694 695 703
f 695 704 703
f 695 696 704
f 696 705 704
f 696 697 705
f 697 706 705
f 697 698 706
f 698 699 706
f 699 707 706
f 699 700 707
f 699 689 700
f 700 701 708
f 701 702 708
f 702 703 708
f 703 704 708
f 704 705 708
f 705 706 708
f 706 707 708
f 707 700 708
f 709 712 711
f 709 713 712
f 709 710 713
f 710 714 713
f 710 715 714
f 710 716 715
f 710 709 716
f 709 711 716
f 711 712 717
f 712 718 717
f 712 713 718
f 713 719 718
f 713 720 719
f 713 721 720
f 713 714 721
f 714 722 721
f 714 723 722
f 714 724 723
f 714 715 724
f 715 725 724
f 715 726 725
f 715 716 726
f 716 727 726
f 716 711 727
f 711 728 727
f 711 717 728
f 717 730 729
f 717 731 730
f 717 718 731
f 718 732 731
f 718 719 732
f 719 733 732
f 719 720 733
f 720 734 733
f 720 721 734
f 721 722 734
f 722 735 734
f 722 723 735
f 723 724 735
f 724 736 735
f 724 725 736
f 725 737 736
f 725 738 737
f 725 726 738
f 726 739 738
f 726 727 739
f 727 740 739
f 727 741 740
f 727 728 741
f 728 729 741
f 728 717 729
f 729 730 742
f 730 743 742
f 730 731 743
f 731 744 743
f 731 732 744
f 732 745 744
f 732 733 745
f 733 746 745
f 733 734 746
f 734 747 746
f 734 735 747
f 735 748 747
f 735 749 748
f 735 736 749
f 736 750 749
f 736 737 750
f 737 751 750
f 737 738 751
f 738 752 751
f 738 739 752
f 739 753 752
f 739 740 753
f 740 754 753
f 740 741 754
f 741 755 754
f 741 729 755
f 729 742 755
f 742 757 756
f 742 743 757
f 743 744 757
f 744 758 757
f 744 745 758
f 745 759 758
f 745 746 759
f 746 760 759
f 746 747 760
f 747 761 760
f 747 748 761
f 748 762 761
f 748 749 762
f 749 763 762
f 749 750 763
f 750 751 763
f 751 764 763
f 751 752 764
f 752 765 764
f 752 753 765
f 753 766 765
f 753 754 766
f 754 767 766
f 754 755 767
f 755 768 767
f 755 756 768
f 755 742 756
f 756 757 769
f 757 758 769
f 758 759 769
f 759 760 769
f 760 761 769
f 761 762 769
f 762 763 769
f 763 764 769
f 764 765 769
f 765 766 769
f 766 767 769
f 767 768 769
f 768 756 769
f 770 772 771
f 770 773 772
f 770 774 773
f 770 775 774
f 770 776 775
f 770 777 776
f 770 778 777
f 770 771 778
f 771 780 779
f 771 772 780
f 772 781 780
f 772 782 781
f 772 773 782
f 773 783 782
f 773 784 783
f 773 785 784
f 773 774 785
f 774 786 785
f 774 775 786
f 775 787 786
f 775 776 787
f 776 788 787
f 776 777 788
f 777 789 788
f 777 778 789
f 778 790 789
f 778 771 790
f 771 779 790
f 779 792 791
f 779 780 792
f 780 793 792
f 780 781 793
f 781 794 793
f 781 795 794
f 781 782 795
f 782 783 795
f 783 796 795
f 783 797 796
f 783 784 797
f 784 785 797
f 785 798 797
f 785 786 798
f 786 799 798
f 786 800 799
f 786 787 800
f 787 801 800
f 787 788 801
f 788 802 801
f 788 789 802
f 789 803 802
f 789 790 803
f 790 804 803
f 790 791 804
f 790 779 791
f 791 792 805
f 792 806 805
f 792 793 806
f 793 807 806
f 793 794 807
f 794 808 807
f 794 795 808
f 795 809 808
f 795 796 809
f 796 797 809
f 797 810 809
f 797 798 810
f 798 811 810
f 798 799 811
f 799 812 811
f 799 800 812
f 800 801 812
f 801 813 812
f 801 802 813
f 802 814 813
f 802 803 814
f 803 815 814
f 803 804 815
f 804 805 815
f 804 791 805
f 805 817 816
f 805 806 817
f 806 818 817
f 806 807 818
f 807 808 818
f 808 819 818
f 808 809 819
f 809 820 819
f 809 810 820
f 810 821 820
f 810 822 821
f 810 811 822
f 811 812 822
f 812 823 822
f 812 813 823
f 813 814 823
f 814 824 823
f 814 815 824
f 815 825 824
f 815 816 825
f 815 805 816
f 816 817 826
f 817 827 826
f 817 818 827
f 818 828 827
f 818 819 828
f 819 820 828
f 820 829 828
f 820 821 829
f 821 822 829
f 822 830 829
f 822 823 830
f 823 824 830
f 824 825 830
f 825 831 830
f 825 816 831
f 816 826 831
f 826 827 832
f 827 828 832
f 828 829 832
f 829 830 832
f 830 831 832
f 831 826 832
f 834 835 833
f 835 836 833
f 836 837 833
f 837 838 833
f 838 839 833
f 839 840 833
f 840 834 833
f 841 842 834
f 842 835 834
f 842 843 835
f 843 844 835
f 844 836 835
f 844 845 836
f 845 846 836
f 846 837 836
f 846 847 837
f 847 848 837
f 848 838 837
f 848 849 838
f 849 850 838
f 850 839 838
f 850 851 839
f 851 852 839
f 852 840 839
f 852 853 840
f 853 834 840
f 853 841 834
f 854 842 841
f 854 855 842
f 855 856 842
f 856 843 842
f 856 857 843
f 857 858 843
f 858 844 843
f 858 859 844
f 859 845 844
f 859 860 845
f 860 861 845
f 861 846 845
f 861 862 846
f 862 847 846
f 862 863 847
f 863 848 847
f 863 864 848
f 864 849 848
f 864 865 849
f 865 866 849
f 866 850 849
f 866 867 850
f 867 868 850
f 868 851 850
f 868 869 851
f 869 870 851
f 870 852 851
f 870 871 852
f 871 872 852
f 872 853 852
f 872 854 853
f 854 841 853
f 873 855 854
f 873 874 855
f 874 856 855
f 874 857 856
f 874 875 857
f 875 858 857
f 875 876 858
f 876 859 858
f 876 860 859
f 876 877 860
f 877 861 860
f 877 878 861
f 878 862 861
f 878 879 862
f 879 880 862
f 880 863 862
f 880 881 863
f 881 864 863
f 881 882 864
f 882 865 864
f 882 866 865
f 882 883 866
f 883 867 866
f 883 868 867
f 883 884 868
f 884 885 868
f 885 886 868
f 886 869 868
f 886 887 869
f 887 870 869
f 887 888 870
f 888 871 870
f 888 872 871
f 888 889 872
f 889 854 872
f 889 873 854
f 890 891 873
f 891 874 873
f 891 892 874
f 892 875 874
f 892 893 875
f 893 894 875
f 894 876 875
f 894 895 876
f 895 877 876
f 895 896 877
f 896 878 877
f 896 879 878
f 896 897 879
f 897 898 879
f 898 880 879
f 898 881 880
f 898 899 881
f 899 882 881
f 899 883 882
f 899 900 883
f 900 901 883
f 901 884 883
f 901 902 884
f 902 903 884
f 903 885 884
f 903 886 885
f 903 904 886
f 904 887 886
f 904 905 887
f 905 888 887
f 905 889 888
f 905 906 889
f 906 873 889
f 906 890 873
f 907 891 890
f 907 908 891
f 908 909 891
f 909 892 891
f 909 910 892
f 910 893 892
f 910 911 893
f 911 894 893
f 911 912 894
f 912 895 894
f 912 913 895
f 913 914 895
f 914 896 895
f 914 915 896
f 915 897 896
f 915 916 897
f 916 898 897
f 916 917 898
f 917 899 898
f 917 918 899
f 918 919 899
f 919 900 899
f 919 920 900
f 920 901 900
f 920 921 901
f 921 902 901
f 921 903 902
f 921 904 903
f 921 922 904
f 922 923 904
f 923 905 904
f 923 924 905
f 924 906 905
f 924 890 906
f 924 907 890
f 925 908 907
f 925 926 908
f 926 909 908
f 926 927 909
f 927 910 909
f 927 928 910
f 928 911 910
f 928 929 911
f 929 930 911
f 930 912 911
f 930 931 912
f 931 932 912
f 932 913 912
f 932 933 913
f 933 934 913
f 934 914 913
f 934 915 914
f 934 916 915
f 934 935 916
f 935 917 916
f 935 936 917
f 936 937 917
f 937 918 917
f 937 938 918
f 938 919 918
f 938 939 919
f 939 920 919
f 939 940 920
f 940 921 920
f 940 941 921
f 941 922 921
f 941 942 922
f 942 923 922
f 942 943 923
f 943 924 923
f 943 944 924
f 944 907 924
f 944 925 907
f 945 946 925
f 946 947 925
f 947 948 925
f 948 926 925
f 948 927 926
f 948 949 927
f 949 950 927
f 950 928 927
f 950 951 928
f 951 929 928
f 951 952 929
f 952 953 929
f 953 930 929
f 953 931 930
f 953 954 931
f 954 932 931
f 954 955 932
f 955 956 932
f 956 933 932
f 956 957 933
f 957 934 933
f 957 958 934
f 958 935 934
f 958 936 935
f 958 937 936
f 958 959 937
f 959 960 937
f 960 938 937
f 960 961 938
f 961 939 938
f 961 962 939
f 962 940 939
f 962 963 940
f 963 941 940
f 963 964 941
f 964 965 941
f 965 942 941
f 965 966 942
f 966 943 942
f 966 945 943
f 945 944 943
f 945 925 944
f 967 968 945
f 968 969 945
f 969 946 945
f 969 947 946
f 969 948 947
f 969 970 948
f 970 971 948
f 971 949 948
f 971 950 949
f 971 972 950
f 972 951 950
f 972 952 951
f 972 953 952
f 972 973 953
f 973 954 953
f 973 974 954
f 974 975 954
f 975 955 954
f 975 956 955
f 975 976 956
f 976 957 956
f 976 977 957
f 977 958 957
f 977 959 958
f 977 960 959
f 977 978 960
f 978 961 960
f 978 979 961
f 979 962 961
f 979 980 962
f 980 981 962
f 981 963 962
f 981 982 963
f 982 964 963
f 982 965 964
f 982 966 965
f 982 983 966
f 983 984 966
f 984 945 966
f 984 967 945
f 985 968 967
f 985 986 968
f 986 969 968
f 986 970 969
f 986 987 970
f 987 971 970
f 987 988 971
f 988 972 971
f 988 973 972
f 988 974 973
f 988 989 974
f 989 975 974
f 989 976 975
f 989 990 976
f 990 977 976
f 990 991 977
f 991 992 977
f 992 993 977
f 993 994 977
f 994 978 977
f 994 995 978
f 995 979 978
f 995 980 979
f 995 981 980
f 995 982 981
f 995 996 982
f 996 997 982
f 997 983 982
f 997 985 983
f 985 984 983
f 985 967 984
f 998 999 985
f 999 986 985
f 999 987 986
f 999 988 987
f 999 1000 988
f 1000 989 988
f 1000 990 989
f 1000 991 990
f 1000 992 991
f 1000 993 992
f 1000 994 993
f 1000 998 994
f 998 995 994
f 998 996 995
f 998 997 996
f 998 985 997
