v -0.009492121 -0.0197831136 0.015066029
v 0.002576157 -0.0230945042 0.008792116
v -0.0028238864 -0.0179455974 0.018476284
v -0.0022022904 -0.0140501126 0.021460399
v -0.0133330616 -0.021869494 0.007105738
v -0.0092705291 -0.0155478522 0.018714922
v -0.016019446 -0.0176535503 0.011711457
v 0.0056966368 -0.0175240044 0.018385373
v -0.0099421249 -0.0248751987 -0.002429565
v 1.13637e-05 -0.0256252051 -0.007401196
v 0.009565986 -0.0250138378 -0.000913644
v 0.0145853438 -0.0203081171 0.004848902
v 0.0126796467 -0.0174330939 0.014225114
v 0.0114853197 -0.0137057915 0.018231964
v -0.0026227484 -0.00738642296 0.024210421
v 0.0078750632 -0.00795233666 0.02244677
v -0.0175001401 -0.0204103898 0.00187956
v -0.0107171312 -0.00899211743 0.021761538
v -0.0176490048 -0.0112273624 0.015768308
v -0.0213615339 -0.014726254 0.006410278
v 0.018731968 -0.0132126056 0.011960323
v -0.0118978227 -0.0230331401 -0.006223914
v -0.000182956 -0.0245354241 -0.010784178
v 0.0099057606 -0.0240581471 -0.007577334
v 0.0164433133 -0.0205319834 -0.003404573
v 0.0196797021 -0.0172808203 0.002335246
v 0.0162614944 -0.00710573861 0.018342191
v -0.0035704831 -0.000893188962 0.025376339
v 0.0033432086 0.000417048796 0.025246793
v 0.0108114505 0.000977280523 0.022882002
v -0.0188160608 -0.0187353779 -0.00507845
v -0.0114841831 -0.00246933798 0.022971774
v -0.0190149251 -0.00459208202 0.017549004
v -0.0242854213 -0.00820347457 0.00746256
v -0.0235592802 -0.0127285109 -0.002645476
v 0.0224433626 -0.00622618629 0.011150089
v -0.0107898596 -0.0216206278 -0.012013733
v 0.0008954617 -0.0229308652 -0.014062613
v 0.0112103169 -0.0214990363 -0.011893277
v 0.0195672017 -0.0166864974 -0.006563689
v 0.0246729244 -0.00955803061 0.001682968
v 0.0190365171 0.0014750118 0.017388775
v -0.0055670899 0.00555686268 0.024622924
v -0.0131182873 0.00481822059 0.022195633
v 0.0017875143 0.00728528581 0.024724061
v 0.0089432533 0.00882734345 0.022696773
v -0.0175262766 -0.0168069533 -0.011548956
v -0.0200819796 0.00266593037 0.016806953
v -0.0254240675 -0.00157728533 0.007379604
v -0.0255229324 -0.006362551 -0.004379581
v -0.0196751577 -0.0120319141 -0.01345579
v 0.0263479384 -0.00594322918 -0.000348867
v 0.0241808752 0.000309093391 0.010551221
v -0.00849325 -0.0194978832 -0.016130811
v 0.0026034299 -0.0193978817 -0.018577422
v 0.0148058002 -0.0167387704 -0.014556935
v 0.0220592673 -0.0118694129 -0.009763715
v 0.0182433287 0.0104307652 0.015444442
v -0.0152785317 0.0100364443 0.018988788
v -0.0067864178 0.0121671432 0.022088814
v -0.0226285894 0.00580800111 0.012586464
v 0.0022500179 0.0146614811 0.021422898
v 0.0105989485 0.0168342254 0.017176274
v -0.0101546269 -0.0165683148 -0.018225147
v -0.026478621 0.0018488785 0.001344329
v -0.0248661077 -0.00346593679 -0.009011436
v -0.0178046872 -0.0125103278 -0.016488769
v -0.0070159653 -0.0156773981 -0.020355846
v 0.026296802 0.00115569101 -0.004812539
v 0.0239297378 0.00857734167 0.006598917
v 0.0023954737 -0.0170944549 -0.02072062
v 0.0152194398 -0.012534191 -0.017826279
v 0.0238251918 -0.00610800368 -0.011491001
v 0.0167114972 0.0175785496 0.011001225
v -0.0073216495 0.0168399075 0.019054697
v -0.0151455759 0.0143648874 0.016668315
v -0.0005465953 0.0201603891 0.017652413
v -0.0220990415 0.0108898601 0.01001258
v 0.0049057211 0.0214865353 0.015329668
v 0.0098898518 0.0227842739 0.009444393
v 0.0063852786 -0.0140126118 -0.0218933574
v -0.0264149836 0.00681369097 0.000703415
v -0.0257002069 0.00157046718 -0.007940973
v -0.0186046954 -0.0053227697 -0.01605581
v -0.008801207 -0.0100682629 -0.020034251
v 0.0238604194 0.0107739497 -0.005421634
v 0.0218160843 0.0155058058 0.002176154
v 0.0167489981 -0.00485572091 -0.019681976
v 0.0227172266 0.00256138408 -0.014116022
v 0.0160137648 0.0216274456 -0.000370458
v -0.0077875622 0.0211240321 0.013814883
v -0.0160705834 0.0176455959 0.012131915
v -0.0212717622 0.0137785199 0.004452308
v -0.0007397787 0.0244547413 0.011309182
v -0.0231456406 0.0113444095 -0.004271625
v 0.0064250517 0.0250615642 0.006468233
v 0.0096750776 0.0250695186 -0.001976152
v 0.0007022783 -0.00991371613 -0.0224672261
v 0.0075977883 -0.00750460557 -0.0232410957
v -0.0202512996 0.00278979515 -0.014045567
v -0.0121148702 -0.0021454718 -0.018899015
v -0.0036818477 -0.00337161793 -0.0217535839
v 0.0195978848 0.00658755293 -0.017571732
v 0.0193206088 0.0166933151 -0.008277339
v 0.015459215 -0.000676141769 -0.021204715
v 0.0132648786 0.0205081181 -0.010475084
v -0.0150660297 0.0187126493 -0.001614786
v -0.0074159684 0.0205797099 0.004246625
v -0.0195922016 0.0150887573 -0.010828496
v -0.001094327 0.0238479184 0.001625013
v -0.0171490012 0.00840461275 -0.019116061
v 0.0058989111 0.0265865769 -0.00234661
v 0.0038648037 -0.00118978232 -0.0221831323
v 0.010733041 0.0048079929 -0.021364944
v -0.0106841769 0.00471367403 -0.023547916
v -0.0002761386 0.00617164051 -0.0247695163
v 0.0139398844 0.0139682942 -0.01768196
v 0.0093296198 0.0237160992 -0.01055463
v -0.0140273851 0.0287115927 -0.008447795
v -0.0190819703 0.0239831475 -0.01738764
v -0.0056614093 0.0313661605 -0.003582983
v -0.01788537 0.0169751356 -0.0242036041
v 0.0022545635 0.0341741375 -0.00730574
v -0.0153808055 0.013211469 -0.0310570671
v 0.0057193639 0.0336468608 -0.015985355
v 0.0079546094 0.0120148687 -0.022128586
v 0.0100193988 0.0181967369 -0.017155819
v -0.0095807583 0.0113466817 -0.034262775
v -0.0016068311 0.0147773914 -0.0350559634
v 0.0053920887 0.0308025196 -0.0242274674
v -0.0080864286 0.0386764473 -0.004435263
v -0.0147808004 0.0342161829 -0.010188718
v -0.0192615181 0.0291002325 -0.019535384
v -0.0203115271 0.0244990599 -0.0286184112
v -0.0013454654 0.0423867053 -0.006822782
v -0.018331966 0.0165421783 -0.0378423483
v 0.0042534432 0.0434321656 -0.011786458
v -0.0153558046 0.0134955628 -0.0406094145
v 0.0069568739 0.0434389854 -0.01874674
v 0.0040795782 0.0250263366 -0.0318604832
v -0.0041932154 0.0177887783 -0.0443594445
v 0.0023693372 0.0249876992 -0.0431469375
v 0.002807977 0.0348934609 -0.0364309727
v 0.0041409423 0.0404435063 -0.0255661146
v -0.0090739359 0.046082189 -0.002975024
v -0.0027602495 0.0486662996 -0.004546628
v -0.0177944616 0.0423696577 -0.008152338
v -0.0198762954 0.0420435186 -0.017306957
v -0.0220013132 0.0357593777 -0.0270047613
v -0.0235479159 0.0261911194 -0.0377093925
v 0.002173881 0.0511515454 -0.008614842
v -0.0214456267 0.0199103862 -0.0456867295
v 0.0034886644 0.0521935978 -0.014363752
v -0.0191456077 0.0143887517 -0.0506435897
v 0.0006465961 0.0442719459 -0.0323854867
v 0.0015613761 0.049871991 -0.0221240415
v -0.0090148451 0.0185944677 -0.0524947394
v 0.0011238726 0.0262183925 -0.0516197337
v 0.0014477389 0.0365139286 -0.0427026169
v -0.0129841949 0.0515663217 -0.000821598
v -0.006331869 0.0564890909 -0.001107964
v -0.0019318337 0.0583413751 -0.008188702
v -0.0266286223 0.0395298631 -0.002111381
v -0.0282661354 0.0440946714 -0.012602374
v -0.0292945524 0.0424742037 -0.0232910954
v -0.0308650204 0.0356355108 -0.0313252521
v -0.0289536411 0.0313252519 -0.040118502
v -0.0013022832 0.0578516014 -0.018945607
v -0.0260524825 0.0237638278 -0.049176529
v -0.0244286048 0.0183876468 -0.0541481592
v -0.0022511544 0.0503026761 -0.0377923486
v -0.0028761594 0.054493619 -0.0296377371
v -0.0222001776 0.0112671355 -0.05739478
v 0.0016181948 0.0374832569 -0.0540697497
v -0.0005079586 0.0436821684 -0.0457628658
v -0.0162785399 0.0173705942 -0.0596709337
v -0.0039091221 0.0236967805 -0.0609482147
v 0.002411383 0.0300786497 -0.0583141043
v -0.0131716959 0.0567856815 0.000271593
v -0.0053852704 0.0619141307 -0.010255764
v -0.0040682145 0.0606448041 -0.0217433562
v -0.0268411243 0.0419105628 0.001515921
v -0.0346355058 0.0359911984 -0.002755704
v -0.0367730202 0.0396491792 -0.018906969
v -0.0369787042 0.0366366567 -0.0311729775
v -0.0349968703 0.034699141 -0.0428946614
v -0.0319207105 0.0266581687 -0.0514720036
v -0.0052818605 0.0555936256 -0.0416310158
v -0.0045273091 0.060651624 -0.0329252644
v -0.0320309376 0.0154387596 -0.0571981847
v -0.0284570454 0.00946484892 -0.0610004877
v 0.0024500195 0.0363161987 -0.0612243541
v -0.0001590922 0.0440889903 -0.0567868204
v -0.0030068422 0.0507674522 -0.0493526689
v -0.0219717668 0.0106830402 -0.0635096009
v 0.0023966101 0.0292581881 -0.0643880145
v -0.0183342372 0.0178126437 -0.0648766579
v -0.0102750828 0.0223979074 -0.0660812106
v -0.0036420746 0.0244070128 -0.0666221228
v -0.0172353651 0.0608254864 -0.001888652
v -0.0299877392 0.048942439 0.001034099
v -0.0121682789 0.0650209758 -0.012330781
v -0.0100853084 0.0665266697 -0.0228376838
v -0.0387059912 0.0403923678 -0.001492058
v -0.0409298722 0.0418219256 -0.019964933
v -0.0419764712 0.0420787483 -0.0306593363
v -0.0404173702 0.0420105622 -0.0413605576
v -0.0325888974 0.0353605102 -0.0538220244
v -0.0342264106 0.0190865169 -0.0611504911
v -0.0099159884 0.0611027602 -0.0433048911
v -0.0083637036 0.0664232582 -0.03435823
v -0.0306343363 0.0114285011 -0.0647823354
v -0.0233604137 0.0119171414 -0.0677653177
v 0.0033227538 0.0384866719 -0.0681335021
v -0.0008715979 0.0485742546 -0.0619470873
v -0.007173921 0.0556220354 -0.0554970342
v -0.0181342362 0.0206217552 -0.0695641944
v 0.0041875334 0.0315195697 -0.0713244378
v -0.009951216 0.0232990496 -0.0725255826
v -0.0010215991 0.0254945226 -0.0732028627
v -0.0206910758 0.0629380053 -0.007017102
v -0.0354991472 0.0550788498 -0.00442049
v -0.0403060042 0.0476003797 -0.008508023
v -0.0155989886 0.0704198833 -0.020750167
v -0.0413776052 0.0491276678 -0.017714915
v -0.0409741912 0.0512720002 -0.0300650144
v -0.0384480342 0.0510708626 -0.0399071366
v -0.0335116317 0.0446571778 -0.0589777447
v -0.0274411294 0.040413962 -0.0705017008
v -0.0290036409 0.0318525286 -0.0669891727
v -0.0332400389 0.0202853905 -0.0688789598
v -0.0153023949 0.0630061872 -0.0449878595
v -0.0125432821 0.0703607904 -0.0335707227
v -0.0289127325 0.0135546535 -0.070701704
v -0.0192478825 0.0233615503 -0.0751881028
v 0.0040432143 0.0427639786 -0.076409703
v 0.0049727668 0.0314593422 -0.0786767635
v -0.0021306989 0.0514106372 -0.0744824171
v -0.0068489186 0.0565345441 -0.0732062663
v -0.0129228308 0.0602732119 -0.0545299834
v -0.002447747 0.0252433831 -0.0799426865
v -0.0119580501 0.0240967846 -0.0782256272
v -0.0230251836 0.0690323709 -0.0216399468
v -0.0330741288 0.064133469 -0.01983766
v -0.0377980292 0.0581947838 -0.0221274494
v -0.0206444839 0.0685414583 -0.0368468877
v -0.0362730192 0.0597561586 -0.0327798076
v -0.0277172666 0.0489844843 -0.0719164843
v -0.0301570592 0.0523833733 -0.0626834561
v -0.0331604928 0.0561084056 -0.0476594728
v -0.0228138182 0.0420685206 -0.083367712
v -0.0255967954 0.0285138649 -0.0751971959
v -0.0225649542 0.0612004906 -0.0489038017
v 0.0089227989 0.0405196426 -0.0948018964
v 0.0088341617 0.0320798028 -0.0947905342
v 0.0018977425 0.0263354374 -0.0961382703
v -0.0137523834 0.0584595609 -0.0742915029
v -0.0003000024 0.0519731436 -0.0947507579
v -0.0205183458 0.0585141072 -0.0604538943
v -0.0082693847 0.0272399917 -0.0968950945
v -0.0118387309 0.0272183997 -0.0869506995
v -0.0289468234 0.0656505252 -0.0358264252
v -0.0224342716 0.0548708923 -0.0732369494
v -0.0153569412 0.0359116501 -0.100546264
v -0.016583087 0.0528049695 -0.0980871462
v 0.0118125943 0.0480537935 -0.130399913
v 0.0154058053 0.0346707333 -0.121953249
v 0.0083000667 0.024000193 -0.128410118
v -0.0095648495 0.0574697772 -0.0971189609
v -0.0022443361 0.0552277145 -0.13129537
v -0.0066716441 0.0319673023 -0.130466951
v -0.0089864353 0.0512924556 -0.133013563
v 0.0185092383 0.0479697029 -0.165612697
v 0.0245286063 0.0352150555 -0.162818351
v 0.0152421674 0.0204819816 -0.163047899
v 0.0025238837 0.0283911368 -0.166597926
v 0.0076398341 0.0510651814 -0.167989976
v -6.02278e-05 0.0445480852 -0.16942182
v 0.0254058854 0.0451730881 -0.202657297
v 0.0304138798 0.0332695854 -0.199374325
v 0.0213013065 0.0182512832 -0.19895841
v 0.0080046096 0.0256615693 -0.199034542
v 0.0065091428 0.0391298568 -0.201765253
v 0.0134648807 0.0476560648 -0.201040255
v 0.0287718222 0.0419992 -0.234421189
v 0.0334070856 0.0260308904 -0.232174584
v 0.0212797165 0.0159683096 -0.232392769
v 0.0117421392 0.0225831362 -0.234973468
v 0.0107978139 0.0358343794 -0.236449626
v 0.0175830951 0.0439230781 -0.236291672
v 0.0327786707 0.0369241583 -0.274590842
v 0.0364741565 0.0224388161 -0.272514687
v 0.025597932 0.0116489565 -0.271413533
v 0.0145273886 0.0174569581 -0.271959005
v 0.0133046517 0.0308957013 -0.275451069
v 0.0216831285 0.0394491803 -0.275601064
v 0.0354230109 0.0308400205 -0.311942256
v 0.0385582615 0.0185353748 -0.310070655
v 0.0275649941 0.00706028388 -0.307621799
v 0.0151183027 0.0132705608 -0.309577491
v 0.0146262535 0.0282615909 -0.31253658
v 0.0234251877 0.0344877756 -0.314030942
v 0.0237524634 0.0306718371 -0.348877789
v 0.0324082151 0.0287400025 -0.348486868
v 0.0379616684 0.0124773724 -0.346597081
v 0.0303820622 0.00204319813 -0.345047077
v 0.0195740194 0.00485572091 -0.344908461
v 0.012638738 0.014621708 -0.346398216
v 0.0148830741 0.0268229421 -0.348723256
v 0.0215592637 0.0277581774 -0.386501965
v 0.0338650439 0.0249524716 -0.386881507
v 0.037541211 0.008953481 -0.387646282
v 0.0284513642 -0.00463412787 -0.384525818
v 0.0175626408 -0.00170796827 -0.382955325
v 0.0120410051 0.00972280511 -0.383811031
v 0.0114000913 0.0229922293 -0.385401946
v 0.0185046938 0.0275593109 -0.417059039
v 0.0346741411 0.0211092599 -0.420289738
v 0.0340684548 0.00259320249 -0.41835562
v 0.0288047764 -0.00933984749 -0.414895373
v 0.0165353594 -0.0114500921 -0.411741923
v 0.0096284857 0.00703755626 -0.417638563
v 0.0079796093 0.0232820042 -0.416639703
v 0.0030170695 0.0261468008 -0.431800063
v 0.0176399137 0.0291104602 -0.433405744
v 0.0340059541 0.0236195076 -0.439084215
v 0.0335764057 -0.000507958613 -0.437237608
v 0.025034291 -0.0156455794 -0.429413657
v 0.0137671555 -0.0206774381 -0.426442037
v 0.0092228015 -0.0105080391 -0.429417077
v 0.0075182421 0.00371139332 -0.432587562
v 0.0136137453 0.0357048314 -0.447911531
v -0.0032920718 0.0324457139 -0.439750099
v -0.0005159132 0.0164637687 -0.439755789
v 0.0260899811 0.0325070779 -0.451427488
v 0.040120775 0.0239831475 -0.451221782
v 0.037463936 0.00960007698 -0.44958657
v 0.0353923299 -0.0021329716 -0.449714958
v 0.0307638821 -0.0149285283 -0.444309248
v 0.007717107 -0.0379616684 -0.440801249
v 0.0236183709 -0.023510415 -0.440859229
v 0.01268192 -0.0266581687 -0.434227346
v 0.0049807218 -0.0153058048 -0.438666031
v 0.0040761691 0.000252274751 -0.440741034
v -0.0107205401 0.0330991287 -0.445086519
v 0.002673885 0.0409855573 -0.452921815
v 0.0118160032 0.0387582646 -0.457028676
v -0.0111307708 0.0163455851 -0.443381948
v -0.0076489247 0.0103478101 -0.445670615
v 0.0244604224 0.0333161751 -0.459563926
v 0.0402798674 0.0242331483 -0.461125275
v 0.0371173415 0.00998758013 -0.460432095
v 0.0341616365 -0.000263638482 -0.461667343
v 0.0372934814 -0.00889666246 -0.46040937
v 0.02949569 -0.0204558451 -0.45434228
v 0.0217456292 -0.0312718422 -0.44843995
v 0.0198251589 -0.0344491402 -0.456999111
v 0.0133296526 -0.0419060162 -0.452049074
v 0.0033375267 -0.0426435238 -0.447684252
v -0.0009681896 -0.0295400086 -0.444630844
v -0.0020466073 -0.0188308329 -0.44604335
v -0.002317064 -0.00220229034 -0.448276307
v -0.0110989522 0.0400082746 -0.457813906
v -0.0190558338 0.0314513878 -0.451307025
v -0.0204513006 0.0250501999 -0.449653592
v -0.0024352468 0.0420832907 -0.461710523
v 0.0089443899 0.0387741734 -0.464161682
v -0.012577374 0.00721369405 -0.455378664
v -0.0190762892 0.0136944282 -0.451783154
v -0.0025920661 -0.00176705957 -0.454644539
v 0.019864931 0.0337241337 -0.468016237
v 0.0279422696 0.0314934331 -0.469619682
v 0.0354491474 0.0255922509 -0.4705333
v 0.0338116342 0.0121250969 -0.46988672
v 0.028932049 3.75003007e-05 -0.469136712
v 0.0337604979 -0.00694096463 -0.470043522
v 0.0378923478 -0.0116216844 -0.470667412
v 0.0338570895 -0.018541058 -0.466341231
v 0.028011588 -0.0242899679 -0.463150291
v 0.017204683 -0.0351355093 -0.465109403
v 0.0077614256 -0.0435208028 -0.457436632
v -0.0082989301 -0.0409707831 -0.451761581
v -0.0176376415 -0.0317513904 -0.447929717
v -0.0041443515 -0.0323013958 -0.447192205
v -0.0114978196 -0.0215228995 -0.446584267
v -0.0091853007 -0.014791028 -0.45272522
v -0.0240513294 0.0338559529 -0.461818489
v -0.0142648869 0.0347695961 -0.466390101
v -0.0254638395 0.0264740765 -0.45976279
v -0.0233092774 0.0159069456 -0.460935521
v -0.0073284678 0.0367389294 -0.470086736
v 0.0036852568 0.0362639257 -0.473503803
v -0.0032750263 0.00708073875 -0.46411962
v -0.0185978756 0.00998530683 -0.464641232
v 0.0046114007 -0.0020943349 -0.466520792
v -0.0011863732 -0.0106875858 -0.464618508
v 0.0190581071 0.0323650311 -0.474634471
v 0.0263195286 0.0291286423 -0.47865951
v 0.0260047539 0.016339904 -0.47856973
v 0.0218876761 0.00498299457 -0.474765162
v 0.0236297353 -0.00465344661 -0.475853802
v 0.0330354913 -0.0131603326 -0.478331106
v 0.0312104781 -0.0213513083 -0.473924256
v 0.0245433785 -0.0260933911 -0.469486722
v 0.0144467068 -0.0355139214 -0.470687867
v 0.0028091133 -0.0414094226 -0.467958291
v -0.0086727967 -0.0417389695 -0.465009395
v -0.0234751875 -0.0383366727 -0.464312794
v -0.0200762964 -0.023787691 -0.449888829
v -0.0191092435 -0.0149978479 -0.458435492
v -0.0241411032 0.0319093461 -0.469468536
v -0.0179308252 0.0361787006 -0.474291302
v -0.0247956526 0.0223354067 -0.466726463
v -0.0170149087 0.0141626131 -0.472174236
v -0.0085489319 0.0367002919 -0.480045905
v 0.0066330076 0.0339968631 -0.480775458
v -0.0061841405 0.00861711475 -0.473107192
v -0.0150239844 -0.0162399024 -0.472294699
v -0.0050989044 -0.0158262627 -0.479562934
v 0.0082443843 -0.00127841928 -0.473094695
v 0.008194384 0.0064136879 -0.474641312
v -0.0207808475 -0.0163671761 -0.465824191
v 0.0156558071 0.0292331883 -0.481295886
v 0.016401268 0.0201172071 -0.482445926
v 0.0149353471 -0.000237501909 -0.475396977
v 0.0141887496 0.0104284929 -0.478557233
v 0.0219854044 -0.0147444361 -0.483526607
v 0.0160853566 -0.00612618526 -0.479003832
v 0.0251752013 -0.0253115671 -0.482980001
v 0.0195149287 -0.0294741001 -0.475859492
v 0.0108705413 -0.0339991364 -0.478086793
v 0.003673893 -0.0392662247 -0.474757204
v -0.0086602967 -0.0410139629 -0.472106063
v -0.0205649377 -0.038504854 -0.471066258
v -0.0253661113 -0.0239786009 -0.458658233
v -0.0162774033 0.0211115332 -0.476617459
v -0.0131398783 0.0279093153 -0.479394753
v -0.0107080401 0.014591026 -0.476183358
v -0.0008272794 0.0264854387 -0.482483416
v 0.0014977393 0.0123716898 -0.478184498
v -0.0163819493 -0.0209103955 -0.478249285
v -0.0042386703 -0.0183490114 -0.484585716
v 0.0072080124 -0.00864325126 -0.47910726
v -0.0238376907 -0.0262774833 -0.472616296
v 0.0071364206 0.0195126554 -0.482455002
v 0.0103194013 -0.0242183761 -0.488964152
v 0.0051557229 -0.0179626449 -0.487650503
v 0.0135228359 -0.0320286664 -0.486324357
v -0.0050398131 -0.0389798577 -0.483073202
v -0.0156467161 -0.0358764247 -0.480382268
v -0.0180012804 -0.0277263577 -0.479824282
v -0.0050682224 0.0193592463 -0.480572022
v -0.0101955366 -0.0240888302 -0.485156164
v -0.0018534239 -0.0237785999 -0.48804708
v 0.0014795573 -0.0359968795 -0.486549366
v -0.0092864379 -0.0311991138 -0.485445926
f 1 2 3
f 3 4 1
f 5 2 1
f 4 6 1
f 6 7 1
f 1 7 5
f 3 2 8
f 9 2 5
f 10 2 9
f 11 2 10
f 12 2 11
f 13 2 12
f 8 2 13
f 8 14 3
f 14 4 3
f 4 15 6
f 14 16 4
f 16 15 4
f 7 17 5
f 5 17 9
f 15 18 6
f 6 18 7
f 18 19 7
f 19 20 7
f 7 20 17
f 13 21 8
f 21 14 8
f 17 22 9
f 9 22 10
f 22 23 10
f 10 23 11
f 23 24 11
f 11 24 12
f 24 25 12
f 25 26 12
f 12 26 13
f 26 21 13
f 21 27 14
f 27 16 14
f 15 28 18
f 16 29 15
f 29 28 15
f 27 30 16
f 30 29 16
f 20 31 17
f 17 31 22
f 28 32 18
f 18 32 19
f 32 33 19
f 19 33 20
f 33 34 20
f 34 35 20
f 20 35 31
f 26 36 21
f 36 27 21
f 31 37 22
f 22 37 23
f 37 38 23
f 23 38 24
f 38 39 24
f 24 39 25
f 39 40 25
f 25 40 26
f 40 41 26
f 41 36 26
f 36 42 27
f 42 30 27
f 28 43 44
f 28 44 32
f 29 43 28
f 30 45 29
f 29 45 43
f 42 46 30
f 30 46 45
f 35 47 31
f 31 47 37
f 32 44 48
f 32 48 33
f 33 48 49
f 33 49 34
f 34 49 50
f 34 50 35
f 35 50 51
f 35 51 47
f 41 52 36
f 52 53 36
f 53 42 36
f 47 54 37
f 37 54 38
f 54 55 38
f 38 55 39
f 55 56 39
f 39 56 40
f 56 57 40
f 40 57 41
f 57 52 41
f 53 58 42
f 42 58 46
f 43 59 44
f 43 60 59
f 45 60 43
f 44 59 61
f 44 61 48
f 46 62 45
f 45 62 60
f 58 63 46
f 46 63 62
f 47 51 64
f 47 64 54
f 48 61 65
f 48 65 49
f 49 65 66
f 49 66 50
f 50 66 67
f 50 67 51
f 51 67 68
f 51 68 64
f 57 69 52
f 52 69 70
f 52 70 53
f 53 70 58
f 54 64 71
f 54 71 55
f 55 71 72
f 55 72 56
f 56 72 73
f 56 73 57
f 57 73 69
f 70 74 58
f 58 74 63
f 60 75 59
f 75 76 59
f 59 76 61
f 62 77 60
f 77 75 60
f 76 78 61
f 61 78 65
f 63 79 62
f 79 77 62
f 74 80 63
f 80 79 63
f 64 68 81
f 64 81 71
f 78 82 65
f 65 82 66
f 82 83 66
f 66 83 67
f 83 84 67
f 67 84 68
f 84 85 68
f 68 85 81
f 73 86 69
f 69 86 87
f 69 87 70
f 70 87 74
f 71 81 88
f 71 88 72
f 72 88 89
f 72 89 73
f 73 89 86
f 87 90 74
f 90 80 74
f 75 91 92
f 75 92 76
f 77 91 75
f 76 92 93
f 76 93 78
f 79 94 77
f 77 94 91
f 78 93 95
f 78 95 82
f 80 96 79
f 79 96 94
f 90 97 80
f 80 97 96
f 85 98 81
f 98 99 81
f 81 99 88
f 82 95 83
f 83 95 100
f 83 100 84
f 84 100 101
f 84 101 85
f 85 101 102
f 85 102 98
f 89 103 86
f 103 104 86
f 86 104 87
f 104 90 87
f 99 105 88
f 88 105 89
f 105 103 89
f 104 106 90
f 90 106 97
f 91 107 92
f 91 108 107
f 94 108 91
f 92 107 93
f 93 107 109
f 93 109 95
f 96 110 94
f 94 110 108
f 95 109 111
f 95 111 100
f 97 112 96
f 96 112 110
f 106 112 97
f 98 102 113
f 98 113 99
f 99 113 114
f 99 114 105
f 100 111 115
f 100 115 101
f 101 115 116
f 101 116 102
f 102 116 113
f 105 117 103
f 103 117 106
f 103 106 104
f 105 114 117
f 117 118 106
f 106 118 112
f 108 119 107
f 107 119 120
f 107 120 109
f 108 121 119
f 110 121 108
f 109 120 122
f 109 122 111
f 112 123 110
f 110 123 121
f 111 122 124
f 111 124 115
f 118 125 112
f 112 125 123
f 113 116 126
f 113 126 114
f 114 127 117
f 114 126 127
f 115 124 128
f 115 128 116
f 116 128 129
f 116 129 126
f 117 127 118
f 127 130 118
f 118 130 125
f 121 131 119
f 131 132 119
f 119 132 120
f 132 133 120
f 133 134 120
f 120 134 122
f 123 135 121
f 135 131 121
f 134 136 122
f 122 136 124
f 125 137 123
f 137 135 123
f 136 138 124
f 124 138 128
f 130 139 125
f 139 137 125
f 126 140 127
f 126 129 140
f 127 140 130
f 138 141 128
f 128 141 129
f 141 142 129
f 129 142 140
f 140 143 130
f 143 144 130
f 144 139 130
f 131 145 132
f 135 146 131
f 146 145 131
f 145 147 132
f 132 147 133
f 147 148 133
f 133 148 134
f 148 149 134
f 149 150 134
f 134 150 136
f 137 151 135
f 151 146 135
f 150 152 136
f 136 152 138
f 139 153 137
f 153 151 137
f 152 154 138
f 138 154 141
f 144 155 139
f 155 156 139
f 156 153 139
f 142 143 140
f 154 157 141
f 141 157 142
f 142 158 143
f 157 158 142
f 158 159 143
f 143 159 144
f 159 155 144
f 145 160 147
f 146 161 145
f 161 160 145
f 151 162 146
f 162 161 146
f 160 163 147
f 163 164 147
f 147 164 148
f 164 165 148
f 148 165 149
f 165 166 149
f 149 166 150
f 166 167 150
f 150 167 152
f 153 168 151
f 168 162 151
f 167 169 152
f 169 170 152
f 152 170 154
f 156 171 153
f 171 172 153
f 153 172 168
f 170 173 154
f 154 173 157
f 159 174 155
f 174 175 155
f 155 175 156
f 175 171 156
f 157 176 158
f 173 176 157
f 176 177 158
f 159 158 178
f 158 177 178
f 178 174 159
f 160 179 163
f 161 179 160
f 162 180 161
f 180 179 161
f 168 181 162
f 181 180 162
f 179 182 163
f 163 183 164
f 182 183 163
f 164 183 165
f 183 184 165
f 165 184 166
f 184 185 166
f 185 186 166
f 166 186 167
f 186 187 167
f 167 187 169
f 172 188 168
f 188 189 168
f 189 181 168
f 187 190 169
f 169 190 170
f 190 191 170
f 170 191 173
f 175 192 171
f 192 193 171
f 193 194 171
f 171 194 172
f 194 188 172
f 191 195 173
f 173 195 176
f 178 196 174
f 174 196 175
f 196 192 175
f 195 197 176
f 176 197 177
f 197 198 177
f 177 198 199
f 177 199 178
f 178 199 196
f 180 200 179
f 179 200 201
f 179 201 182
f 181 202 180
f 180 202 200
f 189 203 181
f 181 203 202
f 182 201 204
f 182 204 183
f 183 204 205
f 183 205 184
f 184 205 206
f 184 206 185
f 185 206 207
f 185 207 186
f 186 207 208
f 186 208 187
f 187 208 209
f 187 209 190
f 194 210 188
f 188 210 211
f 188 211 189
f 189 211 203
f 190 209 212
f 190 212 191
f 191 212 213
f 191 213 195
f 196 214 192
f 192 214 215
f 192 215 193
f 193 215 216
f 193 216 194
f 194 216 210
f 195 213 217
f 195 217 197
f 199 218 196
f 196 218 214
f 197 217 219
f 197 219 198
f 198 219 220
f 198 220 199
f 199 220 218
f 202 221 200
f 200 221 222
f 200 222 201
f 201 222 223
f 201 223 204
f 203 221 202
f 211 224 203
f 203 224 221
f 204 223 225
f 204 225 205
f 205 225 226
f 205 226 206
f 206 226 227
f 206 227 207
f 207 227 228
f 207 228 208
f 229 230 208
f 228 229 208
f 209 208 230
f 231 209 230
f 212 209 231
f 216 232 210
f 210 232 233
f 210 233 211
f 211 233 224
f 234 212 231
f 213 212 234
f 235 213 234
f 217 213 235
f 214 236 215
f 237 236 214
f 218 237 214
f 215 238 216
f 236 238 215
f 216 239 240
f 238 239 216
f 216 240 232
f 217 235 219
f 241 237 218
f 220 241 218
f 219 242 220
f 235 242 219
f 242 241 220
f 224 243 221
f 221 243 222
f 222 243 244
f 222 244 223
f 223 244 245
f 223 245 225
f 233 246 224
f 224 246 243
f 225 245 226
f 226 245 247
f 226 247 227
f 227 247 228
f 248 229 228
f 249 248 228
f 228 247 250
f 228 250 249
f 229 251 230
f 248 251 229
f 231 230 252
f 230 251 252
f 234 231 252
f 240 253 232
f 232 253 246
f 232 246 233
f 235 234 252
f 235 252 242
f 236 254 238
f 255 254 236
f 237 255 236
f 256 255 237
f 241 256 237
f 238 254 239
f 239 257 240
f 239 258 257
f 254 258 239
f 240 257 259
f 259 253 240
f 260 256 241
f 242 260 241
f 242 261 260
f 242 252 261
f 246 262 243
f 243 262 244
f 244 262 245
f 245 262 247
f 253 262 246
f 247 262 250
f 263 248 249
f 263 251 248
f 259 263 249
f 249 250 259
f 250 262 253
f 259 250 253
f 252 251 261
f 261 251 264
f 264 251 265
f 265 251 263
f 254 266 258
f 267 266 254
f 255 267 254
f 268 267 255
f 256 268 255
f 260 268 256
f 257 263 259
f 257 269 263
f 258 269 257
f 258 270 269
f 266 270 258
f 271 268 260
f 264 271 260
f 261 264 260
f 269 265 263
f 272 271 264
f 265 272 264
f 270 272 265
f 269 270 265
f 266 273 270
f 274 273 266
f 267 274 266
f 275 274 267
f 268 275 267
f 276 275 268
f 271 276 268
f 270 277 272
f 273 277 270
f 278 276 271
f 272 278 271
f 277 278 272
f 273 279 277
f 280 279 273
f 274 280 273
f 281 280 274
f 275 281 274
f 282 281 275
f 276 282 275
f 283 282 276
f 278 283 276
f 277 284 278
f 279 284 277
f 284 283 278
f 279 285 284
f 286 285 279
f 280 286 279
f 287 286 280
f 281 287 280
f 288 287 281
f 282 288 281
f 289 288 282
f 283 289 282
f 290 289 283
f 284 290 283
f 285 290 284
f 285 291 290
f 292 291 285
f 286 292 285
f 293 292 286
f 287 293 286
f 294 293 287
f 288 294 287
f 295 294 288
f 289 295 288
f 296 295 289
f 290 296 289
f 291 296 290
f 291 297 296
f 298 297 291
f 292 298 291
f 299 298 292
f 293 299 292
f 300 299 293
f 294 300 293
f 301 300 294
f 295 301 294
f 302 301 295
f 296 302 295
f 297 302 296
f 297 303 302
f 297 304 303
f 298 304 297
f 298 305 304
f 298 306 305
f 299 306 298
f 299 307 306
f 300 307 299
f 300 308 307
f 301 308 300
f 302 309 301
f 301 309 308
f 302 303 309
f 303 310 309
f 311 310 303
f 304 311 303
f 312 311 304
f 305 312 304
f 313 312 305
f 306 313 305
f 314 313 306
f 307 314 306
f 315 314 307
f 308 315 307
f 316 315 308
f 309 316 308
f 310 316 309
f 310 317 316
f 318 317 310
f 311 318 310
f 319 318 311
f 312 319 311
f 320 319 312
f 313 320 312
f 321 320 313
f 314 321 313
f 322 321 314
f 315 322 314
f 323 322 315
f 316 323 315
f 317 323 316
f 317 324 323
f 317 325 324
f 318 325 317
f 318 326 325
f 319 326 318
f 319 327 326
f 319 328 327
f 320 328 319
f 320 329 328
f 321 329 320
f 321 330 329
f 322 330 321
f 322 331 330
f 323 331 322
f 323 324 331
f 324 332 333
f 325 332 324
f 324 334 331
f 324 333 334
f 325 335 332
f 326 335 325
f 326 336 335
f 326 337 336
f 327 337 326
f 327 338 337
f 328 338 327
f 328 339 338
f 329 339 328
f 329 340 341
f 329 341 339
f 329 342 340
f 330 342 329
f 330 343 342
f 331 343 330
f 331 344 343
f 331 334 344
f 332 345 333
f 332 346 345
f 332 347 346
f 335 347 332
f 333 348 334
f 333 345 348
f 334 349 344
f 334 348 349
f 335 350 347
f 336 350 335
f 336 351 350
f 337 351 336
f 337 352 351
f 337 353 352
f 338 353 337
f 338 354 353
f 339 354 338
f 339 355 354
f 341 355 339
f 341 340 356
f 340 357 356
f 340 358 357
f 340 359 358
f 360 359 340
f 342 360 340
f 341 356 355
f 343 360 342
f 343 361 360
f 344 361 343
f 344 362 361
f 344 349 362
f 345 363 364
f 346 363 345
f 345 365 348
f 345 364 365
f 346 366 363
f 347 366 346
f 347 367 366
f 350 367 347
f 348 368 349
f 348 369 368
f 348 365 369
f 349 370 362
f 349 368 370
f 350 371 367
f 350 372 371
f 351 372 350
f 351 373 372
f 352 373 351
f 352 374 373
f 352 375 374
f 353 375 352
f 353 376 375
f 354 376 353
f 354 377 376
f 354 378 377
f 355 378 354
f 355 379 378
f 356 379 355
f 356 357 379
f 357 380 379
f 381 380 357
f 358 381 357
f 382 381 358
f 359 382 358
f 383 382 359
f 384 383 359
f 360 384 359
f 361 384 360
f 361 385 384
f 361 386 385
f 362 386 361
f 362 370 386
f 363 387 364
f 388 387 363
f 366 388 363
f 364 389 365
f 387 389 364
f 365 390 369
f 389 390 365
f 391 388 366
f 367 391 366
f 392 391 367
f 371 392 367
f 368 393 370
f 394 393 368
f 369 394 368
f 390 394 369
f 370 395 396
f 370 396 386
f 393 395 370
f 397 392 371
f 372 397 371
f 398 397 372
f 373 398 372
f 399 398 373
f 374 399 373
f 400 399 374
f 375 400 374
f 400 375 401
f 402 401 375
f 376 402 375
f 377 402 376
f 403 402 377
f 404 403 377
f 378 404 377
f 380 404 378
f 379 380 378
f 380 405 404
f 406 405 380
f 381 406 380
f 407 406 381
f 382 407 381
f 383 407 382
f 408 407 383
f 409 408 383
f 409 383 384
f 385 409 384
f 410 409 385
f 386 410 385
f 396 410 386
f 387 411 389
f 388 411 387
f 412 411 388
f 391 412 388
f 389 413 390
f 411 413 389
f 390 414 394
f 413 414 390
f 415 412 391
f 392 415 391
f 416 415 392
f 397 416 392
f 393 417 395
f 394 417 393
f 414 417 394
f 395 418 396
f 419 418 395
f 420 419 395
f 417 421 395
f 395 421 420
f 396 422 410
f 418 422 396
f 398 416 397
f 423 416 398
f 399 423 398
f 424 423 399
f 400 424 399
f 425 400 401
f 426 424 400
f 425 426 400
f 427 428 401
f 402 427 401
f 401 428 425
f 429 427 402
f 403 429 402
f 430 429 403
f 404 430 403
f 405 430 404
f 405 431 430
f 432 431 405
f 406 432 405
f 407 432 406
f 433 432 407
f 408 433 407
f 434 433 408
f 435 434 408
f 435 408 409
f 410 435 409
f 422 435 410
f 411 436 413
f 412 436 411
f 437 436 412
f 415 437 412
f 413 438 414
f 436 438 413
f 414 438 417
f 439 437 415
f 416 439 415
f 423 439 416
f 417 440 421
f 438 440 417
f 418 441 422
f 419 441 418
f 442 441 419
f 443 442 419
f 443 419 420
f 425 443 420
f 420 426 425
f 421 426 420
f 421 440 426
f 422 444 435
f 441 444 422
f 445 439 423
f 424 445 423
f 426 445 424
f 428 443 425
f 440 445 426
f 427 446 428
f 429 446 427
f 446 447 428
f 428 447 443
f 448 446 429
f 430 448 429
f 431 448 430
f 431 449 448
f 432 449 431
f 449 432 433
f 434 450 433
f 450 449 433
f 451 450 434
f 444 451 434
f 444 434 435
f 436 452 438
f 437 452 436
f 439 452 437
f 438 452 440
f 445 452 439
f 440 452 445
f 441 453 444
f 442 453 441
f 454 453 442
f 447 454 442
f 447 442 443
f 453 451 444
f 446 454 447
f 455 454 446
f 448 455 446
f 449 455 448
f 449 456 455
f 450 456 449
f 451 456 450
f 453 456 451
f 454 456 453
f 455 456 454
