v 0.0102458189 0.00208162163 -0.359754436
v -0.0118011722 0.0101688954 -0.374146453
v 0.0122214362 -0.00957508489 -0.357919752
v 0.0139484602 -0.00531521783 -0.370039042
v 0.009963454 0.0031003875 -0.344891145
v 0.0094456279 0.00297093096 -0.373391732
v -0.0002889317 -0.0153452757 -0.356892885
v -0.0059531191 0.0123593363 -0.375308898
v 0.0034540475 0.0116642113 -0.357890365
v -0.0090610112 0.00930116227 -0.357378344
v -0.0224775748 0.00622516508 -0.367565321
v -0.0239475624 0.00107974163 -0.377384419
v -0.0108349396 0.00297655955 -0.376198266
v -0.0047232831 0.0211717541 -0.370236278
v -0.0053818225 0.0159737969 -0.35806101
v -0.0006125728 0.018032905 -0.378864474
v -0.0024653006 -0.00123546456 -0.376494091
v 0.012576973 -0.015580737 -0.368245133
v 0.0099278068 -0.00682648121 -0.344871252
v 0.0097702073 -0.0131811024 -0.378930851
v 0.0061857654 -0.00687807589 -0.378156208
v 0.0117749054 0.00289119336 -0.310269285
v 0.0024371578 0.0113349412 -0.345168009
v 0.0038274071 0.0167721112 -0.373551979
v 0.0047101497 0.00298218813 -0.379732027
v 0.0037683076 -0.0210000825 -0.367355766
v -0.0074850202 -0.0134737869 -0.354828752
v 0.000114447 -0.0112036093 -0.34398471
v -0.0130666559 0.00169043818 -0.355793991
v -0.0086463753 0.00588557653 -0.343988497
v -0.004628536 0.0122533319 -0.344311844
v -0.0243378073 0.00248593845 -0.370998601
v -0.0213209096 -0.00355723731 -0.378664414
v -0.0183377842 -0.00966420303 -0.377713417
v -0.0097673933 -0.00555255488 -0.377580665
v 0.0007626672 -0.0103705852 -0.375780143
v 0.0124531451 -0.0216286037 -0.3767425
v 0.0091351206 -0.00148687263 -0.309672888
v 0.0089109173 -0.0149090638 -0.386518928
v 0.0114315649 0.00315854908 -0.273827915
v 0.0059728189 0.0118630862 -0.309065132
v 0.0158640401 0.0090966584 -0.27447362
v 0.0039568636 -0.0246773954 -0.376047514
v -0.0059484288 -0.021028225 -0.364285649
v -0.014659533 -0.0118283772 -0.366036889
v -0.0120553946 -0.0053330419 -0.355061055
v -0.0069381137 -0.010698917 -0.343999884
v 0.0020215841 -0.00567638283 -0.308901099
v -0.0194860064 -0.00496155805 -0.366377275
v -0.0102317477 -0.00120169328 -0.343508746
v -0.0043818184 0.0115563312 -0.309353384
v -0.0063311694 0.00332177668 -0.30951931
v -0.0135253821 -0.0152843009 -0.376801303
v -0.0029474788 -0.0173359026 -0.384668137
v 0.0094428138 -0.0217890172 -0.383821439
v 0.0051313525 -0.0020122031 -0.27294044
v 0.0019821842 -0.0171961285 -0.388706319
v 0.0087054751 -0.000353659923 -0.238271178
v 0.0155319568 0.00602722811 -0.238663714
v 0.0090253639 0.0137533377 -0.274391109
v 0.0172336524 0.0136407669 -0.239148211
v 0.0061069661 -0.0239203564 -0.384631149
v -0.0042936381 -0.0249935326 -0.374342728
v -0.0054381079 -0.00527300412 -0.308811976
v -0.0025412858 -0.00305817334 -0.273667668
v -0.0021707402 0.0104390656 -0.277936287
v -0.0045150273 0.00501690556 -0.274974225
v -0.0097270553 -0.0210863866 -0.381156162
v 0.0010187657 -0.0256830285 -0.384056567
v 0.0017551664 -0.00320357731 -0.237908031
v 0.0030844398 -0.00281802244 -0.205845242
v 0.0111435711 -0.000951223304 -0.205143601
v 0.0170488479 0.00530677518 -0.206356287
v 0.0090422492 0.0145572811 -0.239936135
v 0.0201895735 0.0127373857 -0.206711848
v 0.0114784694 0.0145160048 -0.206397063
v -0.002094755 0.00328237703 -0.237256646
v 0.001906199 0.012654834 -0.238457012
v -0.001543158 0.00234522497 -0.206032968
v 0.0079747029 -0.00428238095 -0.169577385
v 0.001166984 -0.00186023245 -0.169816314
v 0.0129719087 -0.000409007246 -0.170185141
v 0.017353727 0.0042720621 -0.170470539
v 0.0028602364 0.0127936715 -0.206160974
v 0.020341544 0.0137092474 -0.170912382
v 0.0091585724 0.0137073716 -0.169132701
v -0.0008489715 0.0104653323 -0.206633152
v -0.0020694266 0.00089399976 -0.168329603
v 0.0095872795 -0.00325517243 -0.13598047
v 0.0042476716 -0.00529551801 -0.136894491
v -0.0042486095 0.00254316194 -0.134726062
v 0.0149343931 0.00168856199 -0.135605949
v 0.0210291633 0.00816607389 -0.13580885
v -0.0012467216 0.00710978436 -0.169181049
v 0.0209606837 0.0126567107 -0.134869241
v 0.0088396219 0.0133349494 -0.134298445
v -0.0021172691 0.00929553412 -0.134870188
v 0.0087045368 -0.00506756237 -0.0972199103
v -0.0011444698 -0.0074146631 -0.0980286881
v -0.0071482457 -0.00126735964 -0.0977072623
v -0.0059887668 0.00877114153 -0.0984667383
v 0.0198152747 0.00470264542 -0.0971611283
v 0.020508524 0.0145619709 -0.0976759746
v 0.0065581871 0.0166764257 -0.0977214898
v -0.0022973825 0.0157542834 -0.0979376646
v -0.0013536639 -0.0107214304 -0.0842662273
v 0.0100638293 -0.00643529753 -0.0725498814
v 0.014514129 -0.000439964206 -0.0835105447
v -0.0121886039 -0.00515386643 -0.0718169565
v -0.0078602564 0.00592497661 -0.0837760283
v 0.0259044168 0.00801691754 -0.0782871647
v 0.022504779 0.00285648398 -0.0807447788
v 0.0126313822 0.0170638574 -0.087266189
v 0.0152636632 0.0190638657 -0.0801768372
v 0.022405342 0.0156201375 -0.080582646
v -0.0039371638 0.0204156534 -0.0704032591
v 0.009836812 0.0224128468 -0.0680395083
v -0.00837902 0.0164428411 -0.0707711431
v -0.002292692 -0.0131041797 -0.0742821577
v 0.0080685118 -0.00984713088 -0.0634428555
v 0.0194250298 -0.000540339864 -0.0709598271
v -0.0162111331 0.0113368178 -0.0591543545
v -0.0236586293 0.0113433843 -0.0527069041
v -0.022806845 -0.00624767941 -0.0600579458
v -0.0211079626 -0.0128133718 -0.0602172353
v -0.0144878623 -0.0207702511 -0.0622311158
v 0.0234438074 0.0157458403 -0.0720293448
v 0.0256286185 0.010213924 -0.0674165711
v 0.0188612385 0.0229897711 -0.0651798754
v -0.0143856104 0.0188987606 -0.0603547171
v -0.0110234956 0.0283331322 -0.0579037364
v 0.0092101675 0.0336277133 -0.0497657279
v -0.0052223469 -0.0231079709 -0.0611113462
v 0.0175713638 -0.00586869122 -0.0546553585
v -0.0055994593 0.0070985272 -0.0350560573
v 0.0032748722 0.012528192 -0.0368765137
v 0.0203640583 0.00310789227 -0.0584650447
v -0.0245141687 0.0128330712 -0.0434197296
v -0.0230685721 0.00894750292 -0.0405288053
v -0.0256417532 0.0196070194 -0.0448580798
v -0.0243293642 0.0237421202 -0.0552318374
v -0.0208781312 0.00301220702 -0.0420174092
v -0.0278547067 -0.0010600417 -0.0528263685
v -0.0280470159 -0.0145797945 -0.0445546697
v -0.0227974636 -0.0256576993 -0.046128605
v -0.0274897893 -0.0199006423 -0.0457853753
v -0.0044315373 -0.0287449532 -0.0409706457
v -0.0163143233 -0.0286680305 -0.0450116788
v 0.0205779418 0.0175291501 -0.0631934927
v 0.016755225 0.0239278612 -0.0452932831
v -0.0148030604 0.0346858781 -0.0499800093
v -0.0006801153 0.0358603661 -0.0420799865
v 0.0113480749 0.0265779667 -0.0388183348
v 0.0108968535 -0.0170263336 -0.0470625375
v 0.0159512825 -0.00500283389 -0.037881559
v -0.0007326483 0.000805819337 -0.0365598316
v -0.0034756235 0.0190178987 -0.0371647531
v -0.0105338128 0.00579364389 -0.0322267655
v -0.0063630647 -0.000178237107 -0.0353594672
v 0.0101360622 -0.00376361694 -0.0358221666
v 0.0140685357 0.00873830835 -0.0391748419
v 0.0075056578 0.0188659283 -0.0377326982
v -0.0148921794 0.019996326 -0.0393682642
v -0.0183687399 0.00680209068 -0.0359596486
v -0.0241098508 0.0259034785 -0.0437183977
v -0.020462557 0.0314372724 -0.0484677048
v -0.015914697 -0.00909384433 -0.0407269696
v -0.0172280225 -0.00231145369 -0.0356154686
v -0.0251117307 -0.00702910844 -0.0457332266
v -0.022893149 -0.0109906624 -0.043454811
v -0.0167636681 -0.0150056876 -0.0434453288
v -0.0068743235 -0.0158030636 -0.0417633027
v 0.0009981277 -0.0238246727 -0.0394810952
v 0.0146848605 0.0151679777 -0.0406643923
v -0.007242055 0.0323003165 -0.0365332822
v -0.0186876903 0.0324935606 -0.0409952983
v -0.0007232674 0.0304231961 -0.0350162358
v 0.0068949616 0.0242646361 -0.036275384
v 0.0067861432 -0.01792221 -0.0371827688
v 0.0100638293 -0.00867733269 -0.0370945904
v -0.0037683077 -0.00560884028 -0.0328174647
v -0.0119250001 -0.0038358502 -0.0324931957
v 0.0027382848 -0.00476362108 -0.0351347553
v -0.009998163 0.019896889 -0.0382191018
v -0.0112420707 0.00178612333 -0.0321689265
v 0.0047373543 -0.0115628977 -0.035361364
f 3 2 1
f 1 3 4
f 3 1 5
f 6 1 4
f 1 7 6
f 6 7 1
f 1 6 8
f 6 9 1
f 1 9 5
f 2 11 10
f 13 12 2
f 12 11 2
f 15 14 2
f 14 16 2
f 8 2 16
f 2 8 17
f 13 2 17
f 2 10 15
f 3 18 4
f 7 18 3
f 7 3 19
f 19 3 5
f 20 21 4
f 18 20 4
f 21 6 4
f 4 17 21
f 19 5 22
f 5 9 23
f 5 23 22
f 16 24 6
f 25 6 21
f 6 24 9
f 24 6 25
f 7 26 18
f 27 26 7
f 27 7 28
f 28 7 19
f 17 8 16
f 24 15 9
f 9 15 23
f 29 10 11
f 11 29 10
f 10 29 30
f 31 15 10
f 31 10 30
f 29 11 32
f 12 32 11
f 32 11 12
f 13 33 12
f 33 12 13
f 32 12 34
f 33 34 12
f 13 35 33
f 35 13 17
f 24 14 15
f 14 24 16
f 23 15 31
f 16 25 17
f 25 16 24
f 36 35 17
f 25 36 17
f 37 20 18
f 26 37 18
f 28 19 38
f 38 19 22
f 20 36 21
f 20 37 39
f 39 36 20
f 25 21 36
f 40 38 22
f 22 23 41
f 40 22 42
f 42 22 41
f 23 31 41
f 26 43 37
f 44 43 26
f 27 44 26
f 44 27 45
f 27 45 46
f 46 45 27
f 47 27 28
f 46 27 47
f 47 28 48
f 48 28 38
f 29 32 49
f 49 46 29
f 29 49 46
f 30 29 50
f 29 46 50
f 31 30 51
f 51 30 52
f 30 50 52
f 41 31 51
f 34 49 32
f 34 49 32
f 35 34 33
f 34 35 53
f 49 34 45
f 34 53 45
f 35 36 53
f 54 53 36
f 36 39 54
f 37 55 39
f 43 55 37
f 56 48 38
f 56 38 40
f 57 54 39
f 39 55 57
f 58 56 40
f 58 40 59
f 59 40 42
f 42 41 60
f 60 41 51
f 59 42 61
f 61 42 60
f 43 62 55
f 63 62 43
f 44 63 43
f 45 63 44
f 49 45 46
f 49 45 46
f 53 63 45
f 50 46 47
f 50 47 64
f 64 47 48
f 65 64 48
f 65 48 56
f 52 50 64
f 60 51 66
f 66 51 52
f 66 52 67
f 67 52 64
f 68 53 54
f 53 68 63
f 69 54 57
f 54 69 68
f 55 62 57
f 70 65 56
f 70 56 58
f 62 69 57
f 71 70 58
f 71 58 72
f 72 58 59
f 72 59 73
f 73 59 61
f 61 60 74
f 74 60 66
f 73 61 75
f 75 61 76
f 76 61 74
f 63 69 62
f 69 63 68
f 67 64 65
f 77 67 65
f 77 65 70
f 74 66 78
f 78 66 67
f 78 67 77
f 79 77 70
f 79 70 71
f 80 71 72
f 81 79 71
f 81 71 80
f 80 72 82
f 82 72 73
f 82 73 83
f 83 73 75
f 76 74 84
f 84 74 78
f 83 75 85
f 85 75 76
f 85 76 86
f 86 76 84
f 87 78 77
f 87 77 79
f 84 78 87
f 88 87 79
f 88 79 81
f 89 80 82
f 90 81 80
f 90 80 89
f 91 88 81
f 91 81 90
f 89 82 92
f 92 82 83
f 92 83 93
f 93 83 85
f 94 84 87
f 86 84 94
f 93 85 95
f 95 85 86
f 95 86 96
f 96 86 94
f 94 87 88
f 97 94 88
f 97 88 91
f 98 89 92
f 99 90 89
f 99 89 98
f 100 91 90
f 100 90 99
f 101 97 91
f 101 91 100
f 98 92 102
f 102 92 93
f 102 93 103
f 103 93 95
f 96 94 97
f 103 95 104
f 104 95 96
f 105 96 97
f 104 96 105
f 105 97 101
f 99 98 106
f 98 107 106
f 107 98 108
f 98 102 108
f 100 99 109
f 109 99 106
f 100 109 110
f 101 100 110
f 105 101 110
f 103 111 102
f 102 111 112
f 102 112 108
f 113 103 104
f 113 114 103
f 103 115 111
f 115 103 114
f 104 105 116
f 117 104 116
f 113 104 117
f 116 105 118
f 118 105 110
f 119 109 106
f 107 119 106
f 107 121 120
f 119 107 120
f 121 107 108
f 112 121 108
f 118 109 122
f 109 123 122
f 109 124 123
f 109 125 124
f 109 126 125
f 109 119 126
f 109 118 110
f 127 111 115
f 111 127 128
f 112 111 121
f 111 128 121
f 113 117 114
f 127 114 129
f 114 117 129
f 127 115 114
f 116 118 130
f 116 130 131
f 117 116 131
f 132 117 131
f 129 117 132
f 130 118 122
f 119 133 126
f 119 133 126
f 133 119 120
f 121 134 120
f 120 136 135
f 134 133 120
f 121 137 134
f 121 128 137
f 130 122 123
f 123 139 138
f 123 138 140
f 123 140 141
f 142 139 123
f 142 123 143
f 123 124 143
f 130 123 141
f 124 144 143
f 124 125 144
f 126 145 125
f 145 146 125
f 125 146 144
f 126 133 147
f 126 147 148
f 126 148 145
f 149 128 127
f 149 127 129
f 149 137 128
f 150 129 132
f 149 129 150
f 131 130 141
f 152 131 151
f 131 141 151
f 152 151 131
f 132 131 152
f 152 131 151
f 152 153 132
f 150 132 153
f 154 147 133
f 154 133 134
f 154 134 155
f 137 155 134
f 135 136 156
f 136 135 156
f 136 135 156
f 157 135 136
f 157 158 135
f 159 156 135
f 159 135 158
f 136 156 160
f 136 160 161
f 157 136 162
f 162 136 161
f 137 150 155
f 149 150 137
f 138 139 163
f 140 138 163
f 139 164 163
f 142 164 139
f 141 140 165
f 165 140 163
f 166 141 165
f 166 151 141
f 142 143 167
f 142 167 168
f 142 168 164
f 169 167 143
f 169 143 144
f 169 144 170
f 171 170 144
f 171 144 146
f 171 146 145
f 171 145 148
f 172 148 147
f 172 147 173
f 154 173 147
f 172 171 148
f 150 174 155
f 174 150 153
f 151 175 152
f 166 176 151
f 176 175 151
f 166 176 151
f 152 177 153
f 175 177 152
f 153 162 161
f 178 153 177
f 178 162 153
f 161 174 153
f 154 155 179
f 154 179 173
f 161 160 155
f 180 155 160
f 174 161 155
f 180 179 155
f 182 181 156
f 159 182 156
f 183 160 156
f 183 156 181
f 157 184 158
f 157 162 178
f 157 178 177
f 157 177 175
f 157 175 184
f 158 184 163
f 164 158 163
f 159 158 185
f 185 158 164
f 159 185 182
f 183 186 160
f 180 160 186
f 176 165 163
f 175 176 163
f 184 175 163
f 182 185 164
f 168 182 164
f 164 182 168
f 182 164 168
f 166 165 176
f 182 168 167
f 169 170 167
f 167 170 171
f 172 182 167
f 172 167 171
f 172 186 181
f 172 181 182
f 172 173 179
f 172 179 186
f 180 186 179
f 183 181 186
