v 0.0122214362 0.00957508489 -0.370527931
v -0.0118011722 -0.0101688954 -0.387326238
v 0.0102458189 -0.00208162163 -0.372427244
v 0.0139484602 0.00531521783 -0.383074139
v 0.012576973 0.015580737 -0.381217037
v -0.0002889317 0.0153452757 -0.369464891
v 0.0099278068 0.00682648121 -0.357019781
v 0.009963454 -0.0031003875 -0.357040375
v -0.0090610112 -0.00930116227 -0.369967451
v -0.0224775748 -0.00622516508 -0.380513278
v -0.0239475624 -0.00107974163 -0.390678265
v -0.0108349396 -0.00297655955 -0.389450329
v -0.0047232831 -0.0211717541 -0.383278323
v -0.0053818225 -0.0159737969 -0.370674166
v -0.0006125728 -0.018032905 -0.392210458
v -0.0059531191 -0.0123593363 -0.388529632
v -0.0024653006 0.00123546456 -0.389756575
v 0.0094456279 -0.00297093096 -0.386544931
v 0.0034540475 -0.0116642113 -0.370497509
v 0.0061857654 0.00687807589 -0.391477242
v 0.0097702073 0.0131811024 -0.392279173
v 0.0124531451 0.0216286037 -0.390013734
v 0.0037683076 0.0210000825 -0.380296341
v -0.0074850202 0.0134737869 -0.367328047
v 0.000114447 0.0112036093 -0.35610201
v 0.0091351206 0.00148687263 -0.32058151
v 0.0117749054 -0.00289119336 -0.321198916
v 0.0024371578 -0.0113349412 -0.357326992
v -0.0130666559 -0.00169043818 -0.368327288
v -0.0086463753 -0.00588557653 -0.35610593
v -0.004628536 -0.0122533319 -0.356440667
v -0.0243378073 -0.00248593845 -0.384067499
v -0.0183377842 0.00966420303 -0.391018853
v -0.0213209096 0.00355723731 -0.39200335
v -0.0097673933 0.00555255488 -0.390881425
v 0.0038274071 -0.0167721112 -0.386710823
v 0.0047101497 -0.00298218813 -0.393108572
v 0.0007626672 0.0103705852 -0.389017478
v 0.0089109173 0.0149090638 -0.40013455
v 0.0094428138 0.0217890172 -0.397342038
v 0.0039568636 0.0246773954 -0.389294266
v -0.0059484288 0.021028225 -0.377118075
v -0.014659533 0.0118283772 -0.378931005
v -0.0120553946 0.0053330419 -0.367568533
v -0.0069381137 0.010698917 -0.356117719
v 0.0020215841 0.00567638283 -0.319782533
v 0.0051313525 0.0020122031 -0.282555115
v 0.0114315649 -0.00315854908 -0.283473852
v 0.0059728189 -0.0118630862 -0.319952345
v 0.0158640401 -0.0090966584 -0.284142303
v -0.0194860064 0.00496155805 -0.379283382
v -0.0102317477 0.00120169328 -0.355609279
v -0.0043818184 -0.0115563312 -0.320250751
v -0.0063311694 -0.00332177668 -0.320422522
v -0.0135253821 0.0152843009 -0.390074609
v -0.0029474788 0.0173359026 -0.398218562
v 0.0019821842 0.0171961285 -0.402398994
v 0.0061069661 0.0239203564 -0.398180271
v -0.0042936381 0.0249935326 -0.387529428
v -0.0054381079 0.00527300412 -0.319690271
v -0.0025412858 0.00305817334 -0.28330796
v 0.0017551664 0.00320357731 -0.246288645
v 0.0087054751 0.000353659923 -0.246664584
v 0.0155319568 -0.00602722811 -0.247070947
v 0.0090253639 -0.0137533377 -0.284056885
v 0.0172336524 -0.0136407669 -0.247572512
v -0.0021707402 -0.0104390656 -0.287726946
v -0.0045150273 -0.00501690556 -0.284660542
v -0.0097270553 0.0210863866 -0.394582873
v 0.0010187657 0.0256830285 -0.397585448
v -0.002094755 -0.00328237703 -0.245614313
v 0.0030844398 0.00281802244 -0.213096403
v -0.001543158 -0.00234522497 -0.213290742
v 0.0111435711 0.000951223304 -0.212370046
v 0.0170488479 -0.00530677518 -0.213625451
v 0.0090422492 -0.0145572811 -0.248388191
v 0.0201895735 -0.0127373857 -0.213993536
v 0.0114784694 -0.0145160048 -0.213667662
v 0.001906199 -0.012654834 -0.246856963
v -0.0008489715 -0.0104653323 -0.213912068
v 0.0079747029 0.00428238095 -0.175550964
v 0.001166984 0.00186023245 -0.17579831
v -0.0020694266 -0.00089399976 -0.174259228
v 0.0129719087 0.000409007246 -0.176180129
v 0.017353727 -0.0042720621 -0.176475581
v 0.0028602364 -0.0127936715 -0.213423257
v 0.020341544 -0.0137092474 -0.176932989
v 0.0091585724 -0.0137073716 -0.175090616
v -0.0012467216 -0.00710978436 -0.175140667
v 0.0095872795 0.00325517243 -0.140770555
v 0.0042476716 0.00529551801 -0.141716774
v -0.0042486095 -0.00254316194 -0.139471959
v -0.0021172691 -0.00929553412 -0.139621162
v 0.0149343931 -0.00168856199 -0.140382841
v 0.0210291633 -0.00816607389 -0.140592889
v 0.0209606837 -0.0126567107 -0.139620182
v 0.0088396219 -0.0133349494 -0.139029279
v 0.0087045368 0.00506756237 -0.100644606
v -0.0011444698 0.0074146631 -0.101481874
v -0.0071482457 0.00126735964 -0.101149125
v -0.0059887668 -0.00877114153 -0.101935355
v -0.0022973825 -0.0157542834 -0.101387644
v 0.0198152747 -0.00470264542 -0.100583753
v 0.020508524 -0.0145619709 -0.101116735
v 0.0065581871 -0.0166764257 -0.101163854
v -0.0013536639 0.0107214304 -0.0872346125
v 0.0100638293 0.00643529753 -0.0751055434
v 0.014514129 0.000439964206 -0.08645231
v -0.0121886039 0.00515386643 -0.0743468003
v -0.0078602564 -0.00592497661 -0.0867271456
v -0.00837902 -0.0164428411 -0.0732641468
v -0.0039371638 -0.0204156534 -0.0728833036
v 0.0259044168 -0.00801691754 -0.0810449298
v 0.022504779 -0.00285648398 -0.0835891165
v 0.0126313822 -0.0170638574 -0.0903402516
v 0.0152636632 -0.0190638657 -0.0830011684
v 0.022405342 -0.0156201375 -0.0834212723
v 0.009836812 -0.0224128468 -0.0704362867
v -0.002292692 0.0131041797 -0.0768988413
v 0.0080685118 0.00984713088 -0.0656777109
v 0.0194250298 0.000540339864 -0.0734594774
v -0.0162111331 -0.0113368178 -0.061238142
v -0.0236586293 -0.0113433843 -0.0545635719
v -0.022806845 0.00624767941 -0.0621735635
v -0.0211079626 0.0128133718 -0.0623384641
v -0.0144878623 0.0207702511 -0.0644232862
v -0.0143856104 -0.0188987606 -0.0624807889
v -0.0110234956 -0.0283331322 -0.0599434693
v 0.0234438074 -0.0157458403 -0.0745666702
v 0.0256286185 -0.010213924 -0.0697914057
v 0.0188612385 -0.0229897711 -0.0674759196
v 0.0092101675 -0.0336277133 -0.051518789
v -0.0052223469 0.0231079709 -0.0632640713
v -0.0055994593 -0.0070985272 -0.0362909515
v 0.0032748722 -0.012528192 -0.0381755358
v 0.0175713638 0.00586869122 -0.0565806632
v 0.0203640583 -0.00310789227 -0.0605245504
v -0.0245141687 -0.0128330712 -0.0449492449
v -0.0230685721 -0.00894750292 -0.0419564841
v -0.0256417532 -0.0196070194 -0.0464382628
v -0.0243293642 -0.0237421202 -0.0571774492
v -0.0208781312 -0.00301220702 -0.0434975259
v -0.0278547067 0.0010600417 -0.0546872446
v -0.0280470159 0.0145797945 -0.0461241647
v -0.0227974636 0.0256576993 -0.0477535439
v -0.0274897893 0.0199006423 -0.0473982235
v -0.0044315373 0.0287449532 -0.0424138889
v -0.0163143233 0.0286680305 -0.0465972725
v -0.0148030604 -0.0346858781 -0.0517406188
v -0.0006801153 -0.0358603661 -0.0435623076
v 0.0205779418 -0.0175291501 -0.065419564
v 0.016755225 -0.0239278612 -0.0468887967
v 0.0113480749 -0.0265779667 -0.0401857601
v 0.0108968535 0.0170263336 -0.0487203753
v -0.0007326483 -0.000805819337 -0.0378476983
v -0.0034756235 -0.0190178987 -0.0384739289
v -0.0105338128 -0.00579364389 -0.0333619944
v -0.0063630647 0.000178237107 -0.0366050495
v 0.0101360622 0.00376361694 -0.0370840481
v 0.0140685357 -0.00873830835 -0.0405548256
v 0.0075056578 -0.0188659283 -0.0390618806
v 0.0159512825 0.00500283389 -0.0392159852
v -0.0148921794 -0.019996326 -0.0407550615
v -0.0183687399 -0.00680209068 -0.037226373
v -0.0241098508 -0.0259034785 -0.045258434
v -0.020462557 -0.0314372724 -0.0501750415
v -0.015914697 0.00909384433 -0.042161629
v -0.0172280225 0.00231145369 -0.0368700689
v -0.0251117307 0.00702910844 -0.0473442378
v -0.022893149 0.0109906624 -0.044985562
v -0.0167636681 0.0150056876 -0.0449757459
v -0.0068743235 0.0158030636 -0.0432344683
v 0.0009981277 0.0238246727 -0.0408718671
v -0.0186876903 -0.0324935606 -0.0424394099
v -0.007242055 -0.0323003165 -0.0378202136
v -0.0007232674 -0.0304231961 -0.0362497273
v 0.0146848605 -0.0151679777 -0.0420968473
v 0.0068949616 -0.0242646361 -0.0375532306
v 0.0067861432 0.01792221 -0.0384925792
v -0.0037683077 0.00560884028 -0.0339735017
v -0.0119250001 0.0038358502 -0.0336378099
v 0.0027382848 0.00476362108 -0.0363724219
v -0.009998163 -0.019896889 -0.0395654184
v -0.0112420707 -0.00178612333 -0.0333021179
v 0.0047373543 0.0115628977 -0.0366070131
v 0.0100638293 0.00867733269 -0.0384012946
f 1 2 3
f 4 1 3
f 4 5 1
f 1 5 6
f 7 1 6
f 8 1 7
f 8 3 1
f 9 10 2
f 2 11 12
f 2 10 11
f 2 13 14
f 2 15 13
f 15 2 16
f 17 16 2
f 17 2 12
f 14 9 2
f 4 3 18
f 3 6 18
f 18 6 3
f 3 18 16
f 3 19 18
f 8 19 3
f 4 20 21
f 4 21 5
f 4 18 20
f 4 17 20
f 5 21 22
f 5 22 23
f 5 23 6
f 6 23 24
f 25 6 24
f 7 6 25
f 26 7 25
f 27 7 26
f 27 8 7
f 28 19 8
f 27 28 8
f 10 9 29
f 9 29 10
f 30 29 9
f 9 14 31
f 30 9 31
f 32 10 29
f 10 32 11
f 11 10 32
f 33 11 32
f 11 33 34
f 11 34 12
f 12 11 34
f 34 35 12
f 17 12 35
f 14 13 36
f 15 36 13
f 19 14 36
f 28 14 19
f 31 14 28
f 18 36 15
f 17 37 15
f 36 15 37
f 15 16 17
f 17 35 38
f 17 38 37
f 20 18 37
f 19 36 18
f 37 18 36
f 20 38 21
f 38 20 37
f 39 22 21
f 21 38 39
f 39 40 22
f 22 40 41
f 22 41 23
f 23 41 42
f 23 42 24
f 43 24 42
f 24 43 44
f 24 43 44
f 25 24 45
f 45 24 44
f 46 25 45
f 26 25 46
f 26 46 47
f 48 26 47
f 27 26 48
f 49 28 27
f 50 27 48
f 49 27 50
f 49 31 28
f 51 32 29
f 29 44 51
f 44 51 29
f 52 29 30
f 52 44 29
f 53 30 31
f 54 30 53
f 54 52 30
f 53 31 49
f 32 51 33
f 32 51 33
f 43 33 51
f 55 35 33
f 43 55 33
f 34 33 35
f 55 38 35
f 38 55 56
f 56 39 38
f 39 56 57
f 57 40 39
f 57 58 40
f 40 58 41
f 41 58 59
f 41 59 42
f 42 59 43
f 44 43 51
f 44 43 51
f 43 59 55
f 45 44 52
f 60 45 52
f 46 45 60
f 46 60 61
f 47 46 61
f 47 61 62
f 63 47 62
f 48 47 63
f 64 48 63
f 50 48 64
f 65 49 50
f 53 49 65
f 66 50 64
f 65 50 66
f 60 52 54
f 67 53 65
f 54 53 67
f 68 54 67
f 60 54 68
f 56 55 69
f 59 69 55
f 57 56 70
f 69 70 56
f 57 70 58
f 58 70 59
f 69 59 70
f 61 60 68
f 61 68 71
f 62 61 71
f 63 62 72
f 62 71 73
f 72 62 73
f 74 63 72
f 64 63 74
f 75 64 74
f 66 64 75
f 76 65 66
f 67 65 76
f 77 66 75
f 78 66 77
f 76 66 78
f 79 67 76
f 68 67 79
f 71 68 79
f 71 79 80
f 73 71 80
f 74 72 81
f 72 73 82
f 81 72 82
f 73 80 83
f 82 73 83
f 84 74 81
f 75 74 84
f 85 75 84
f 77 75 85
f 86 76 78
f 79 76 86
f 87 77 85
f 78 77 87
f 88 78 87
f 86 78 88
f 80 79 86
f 80 86 89
f 83 80 89
f 84 81 90
f 81 82 91
f 90 81 91
f 82 83 92
f 91 82 92
f 83 89 93
f 92 83 93
f 94 84 90
f 85 84 94
f 95 85 94
f 87 85 95
f 89 86 88
f 96 87 95
f 88 87 96
f 97 88 96
f 89 88 97
f 93 89 97
f 94 90 98
f 90 91 99
f 98 90 99
f 91 92 100
f 99 91 100
f 92 93 101
f 100 92 101
f 93 97 102
f 101 93 102
f 103 94 98
f 95 94 103
f 104 95 103
f 96 95 104
f 105 96 104
f 97 96 105
f 102 97 105
f 106 98 99
f 106 107 98
f 108 98 107
f 108 103 98
f 109 99 100
f 106 99 109
f 110 109 100
f 110 100 101
f 110 101 102
f 111 102 112
f 110 102 111
f 112 102 105
f 103 113 104
f 114 113 103
f 108 114 103
f 105 104 115
f 104 116 115
f 113 117 104
f 116 104 117
f 112 105 118
f 118 105 115
f 106 109 119
f 106 119 107
f 120 121 107
f 120 107 119
f 108 107 121
f 108 121 114
f 122 109 111
f 122 123 109
f 123 124 109
f 124 125 109
f 125 126 109
f 126 119 109
f 110 111 109
f 127 111 112
f 122 111 127
f 128 127 112
f 128 112 118
f 117 113 129
f 130 129 113
f 121 113 114
f 121 130 113
f 116 118 115
f 131 116 129
f 131 118 116
f 116 117 129
f 128 118 132
f 132 118 131
f 126 133 119
f 126 133 119
f 120 119 133
f 134 135 120
f 120 133 136
f 120 136 121
f 136 137 121
f 137 130 121
f 123 122 127
f 138 139 123
f 140 138 123
f 141 140 123
f 123 139 142
f 143 123 142
f 143 124 123
f 141 123 127
f 143 144 124
f 144 125 124
f 125 145 126
f 125 146 145
f 144 146 125
f 147 133 126
f 148 147 126
f 145 148 126
f 141 127 128
f 149 128 150
f 149 141 128
f 128 149 150
f 150 128 132
f 149 128 150
f 129 130 151
f 131 129 151
f 130 137 151
f 132 131 152
f 152 131 151
f 132 153 150
f 153 132 152
f 133 147 154
f 136 133 154
f 155 135 134
f 155 134 135
f 155 134 135
f 135 134 156
f 134 157 156
f 134 155 158
f 157 134 158
f 159 155 135
f 160 159 135
f 161 135 156
f 160 135 161
f 162 136 154
f 136 162 137
f 162 152 137
f 137 152 151
f 163 138 140
f 163 139 138
f 163 164 139
f 139 164 142
f 165 140 141
f 163 140 165
f 165 141 166
f 141 149 166
f 167 143 142
f 168 167 142
f 164 168 142
f 143 167 169
f 144 143 169
f 170 144 169
f 144 170 171
f 146 144 171
f 145 146 171
f 148 145 171
f 147 148 172
f 173 147 172
f 147 173 154
f 148 171 172
f 149 174 166
f 150 175 149
f 149 175 174
f 149 174 166
f 153 176 150
f 150 176 175
f 162 177 152
f 153 152 177
f 160 161 153
f 176 153 178
f 153 161 178
f 153 177 160
f 179 162 154
f 173 179 154
f 155 180 181
f 155 181 158
f 155 159 182
f 180 155 182
f 157 183 156
f 178 161 156
f 176 178 156
f 175 176 156
f 183 175 156
f 163 183 157
f 163 157 164
f 184 157 158
f 164 157 184
f 181 184 158
f 162 159 160
f 159 185 182
f 159 162 186
f 185 159 186
f 162 160 177
f 162 179 186
f 163 165 174
f 163 174 175
f 163 175 183
f 164 184 181
f 164 181 168
f 168 181 164
f 168 164 181
f 174 165 166
f 167 168 181
f 167 170 169
f 171 170 167
f 167 181 172
f 171 167 172
f 180 185 172
f 181 180 172
f 179 173 172
f 185 179 172
f 179 185 186
f 185 180 182
