v -0.018536006 0.00176754879 -0.006102906
v -0.016212397 0.00530687485 -0.0018066631
v -0.015739853 0.00811571275 -0.0045066151
v -0.015998854 0.00683868005 -0.0099287185
v -0.017067629 0.000792859789 -0.0117977538
v -0.017859431 -0.00383955558 -0.0092362876
v -0.018196661 -0.00594221999 -0.0045520725
v -0.017345658 -0.00120514682 -0.0009683461
v -0.010372721 0.00955026072 0.0088821441
v -0.009078774 0.0172653151 0.0003837442
v -0.0085724 0.0202718397 -0.002513894
v -0.008622086 0.0203077815 -0.0109044649
v -0.010052405 0.0122533832 -0.014630906
v -0.012424642 -0.00142714765 -0.011701553
v -0.013520902 -0.0079655978 -0.0047191014
v -0.013954332 -0.0106592071 0.0009546032
v -0.012510271 -0.0026132658 0.0068598227
v -0.002540323 0.0159607959 0.0095904321
v -0.001922949 0.0196185217 0.0062984783
v -0.001954664 0.0196417806 0.0007495168
v -0.00154132 0.0223491316 -0.0083599132
v -0.003120696 0.0133760728 -0.0103706056
v -0.004211671 0.0071283379 -0.0104572918
v -0.005648333 -0.00121888982 -0.0067181654
v -0.007296424 -0.0108029791 -0.0029166669
v -0.007876798 -0.0141964187 -0.0009450888
v -0.007729854 -0.0134955305 0.0029547242
v -0.006398907 -0.00602890566 0.0069433376
v -0.004270872 0.00606907753 0.0090301447
v 0.004465386 0.0176152301 0.0111433804
v 0.004655672 0.0187971203 0.0085702857
v 0.004614444 0.0188277771 0.0014345476
v 0.004969645 0.0210636417 -0.0041746711
v 0.00462713 0.0192601495 -0.0084085418
v 0.002632294 0.00779856888 -0.0070575093
v 0.001394376 0.000630059238 -0.0049009305
v 2.1143e-05 -0.00709979497 -0.0086252577
v -0.00114489 -0.0137333885 -0.0096380033
v -0.001395433 -0.015239822 -0.0075289967
v -0.000929232 -0.0127914711 -0.0017062342
v -0.001176604 -0.0145188481 0.006745651
v -0.001019089 -0.0138274745 0.0124299268
v -0.00030023 -0.0097289181 0.0129056428
v 0.001159689 -0.00125377555 0.0098927758
v 0.00294521 0.0089646016 0.0097934038
v 0.011434095 0.0190043196 0.0139511609
v 0.011699439 0.020716897 0.0088028577
v 0.011438324 0.0195138646 0.001068775
v 0.010349462 0.0133380162 -0.0008013169
v 0.009382174 0.00802691227 -0.0069634233
v 0.008586143 0.00354355456 -0.0086960858
v 0.006792165 -0.00666742201 -0.0103801203
v 0.005082759 -0.0162071112 -0.0171511434
v 0.004257128 -0.0210350978 -0.0141921901
v 0.004195814 -0.0215763569 -0.0090407157
v 0.00484913 -0.0180898887 -0.002289779
v 0.004644044 -0.0195561508 0.0055669329
v 0.00481953 -0.0188806333 0.0146879919
v 0.006656851 -0.00833137028 0.0138623609
v 0.008292256 0.00111423227 0.0115799815
v 0.009907575 0.0102849769 0.0133285016
v 0.017775915 0.0170359144 0.0104710351
v 0.018344661 0.0204356974 0.0066494507
v 0.018448261 0.0213141846 -0.000946146
v 0.017058114 0.0135959599 -0.0075120822
v 0.016480912 0.0104213491 -0.010826236
v 0.014931136 0.00142714765 -0.0076833398
v 0.012772443 -0.0109435789 -0.0070627948
v 0.01164341 -0.0173805442 -0.0082066275
v 0.01178401 -0.0166764848 -0.0052973607
v 0.01208424 -0.0150632785 -0.0023193791
v 0.011864353 -0.0164428544 0.0009144316
v 0.011606409 -0.018163889 0.0075152535
v 0.011809382 -0.0172113995 0.0132671871
v 0.012150841 -0.0152588503 0.0132724732
v 0.014334905 -0.00268832328 0.0112649519
v 0.024043737 0.0146784772 0.0064602217
v 0.024824969 0.0194662934 -0.002245379
v 0.024753081 0.0192252632 -0.0066737649
v 0.024081793 0.0154597082 -0.0088652296
v 0.02351305 0.0122068694 -0.0091400877
v 0.022953819 0.00909145915 -0.0113970955
v 0.02203833 0.00381418412 -0.0101591767
v 0.019600552 -0.0102585488 -0.0068999945
v 0.019176634 -0.0126635561 -0.0076347112
v 0.018977892 -0.0139109895 -0.0047983872
v 0.019228435 -0.0125546705 -0.0026132658
v 0.019295036 -0.0123844693 0.0033331826
v 0.01931935 -0.0124003274 0.0073630247
v 0.019961039 -0.00875845772 0.0081030269
v 0.022051015 0.00321795346 0.0078101974
v 0.023686422 0.0125916706 0.0075765679
v 0.030198442 0.0115990098 0.0040996136
v 0.028762839 0.00369578381 -0.0045150723
v 0.026074515 -0.0118104397 -0.0011300894
v 0.027198262 -0.00551196133 0.0025910658
v 0.027810349 -0.00214177862 0.006036306
v 0.030241786 0.00249063688 -0.0024811225
v 0.028725838 -0.00623610645 -0.000989489
f 2 3 1
f 3 4 1
f 4 5 1
f 5 6 1
f 6 7 1
f 7 8 1
f 8 2 1
f 9 10 2
f 10 3 2
f 10 11 3
f 11 4 3
f 11 12 4
f 12 13 4
f 13 5 4
f 13 14 5
f 14 6 5
f 14 15 6
f 15 7 6
f 15 16 7
f 16 17 7
f 17 8 7
f 17 9 8
f 9 2 8
f 18 19 9
f 19 10 9
f 19 20 10
f 20 11 10
f 20 12 11
f 20 21 12
f 21 13 12
f 21 22 13
f 22 23 13
f 23 14 13
f 23 24 14
f 24 25 14
f 25 15 14
f 25 26 15
f 26 16 15
f 26 27 16
f 27 28 16
f 28 17 16
f 28 29 17
f 29 9 17
f 29 18 9
f 30 19 18
f 30 31 19
f 31 20 19
f 31 32 20
f 32 33 20
f 33 21 20
f 33 34 21
f 34 22 21
f 34 35 22
f 35 23 22
f 35 36 23
f 36 24 23
f 36 37 24
f 37 25 24
f 37 38 25
f 38 39 25
f 39 40 25
f 40 26 25
f 40 41 26
f 41 27 26
f 41 28 27
f 41 42 28
f 42 43 28
f 43 44 28
f 44 29 28
f 44 45 29
f 45 18 29
f 45 30 18
f 46 47 30
f 47 31 30
f 47 48 31
f 48 32 31
f 48 49 32
f 49 50 32
f 50 33 32
f 50 34 33
f 50 35 34
f 50 51 35
f 51 36 35
f 51 52 36
f 52 37 36
f 52 53 37
f 53 38 37
f 53 54 38
f 54 39 38
f 54 55 39
f 55 40 39
f 55 56 40
f 56 41 40
f 56 57 41
f 57 42 41
f 57 58 42
f 58 43 42
f 58 59 43
f 59 44 43
f 59 60 44
f 60 45 44
f 60 61 45
f 61 30 45
f 61 46 30
f 62 47 46
f 62 63 47
f 63 48 47
f 63 64 48
f 64 49 48
f 64 50 49
f 64 65 50
f 65 51 50
f 65 66 51
f 66 67 51
f 67 52 51
f 67 68 52
f 68 53 52
f 68 69 53
f 69 54 53
f 69 70 54
f 70 55 54
f 70 71 55
f 71 56 55
f 71 72 56
f 72 57 56
f 72 73 57
f 73 58 57
f 73 74 58
f 74 75 58
f 75 59 58
f 75 76 59
f 76 60 59
f 76 62 60
f 62 61 60
f 62 46 61
f 77 63 62
f 77 78 63
f 78 64 63
f 78 79 64
f 79 65 64
f 79 80 65
f 80 81 65
f 81 66 65
f 81 82 66
f 82 83 66
f 83 67 66
f 83 68 67
f 83 84 68
f 84 85 68
f 85 69 68
f 85 70 69
f 85 86 70
f 86 71 70
f 86 87 71
f 87 72 71
f 87 88 72
f 88 73 72
f 88 89 73
f 89 74 73
f 89 75 74
f 89 90 75
f 90 76 75
f 90 91 76
f 91 62 76
f 91 92 62
f 92 77 62
f 93 78 77
f 93 79 78
f 93 94 79
f 94 80 79
f 94 81 80
f 94 82 81
f 94 83 82
f 94 95 83
f 95 84 83
f 95 85 84
f 95 86 85
f 95 87 86
f 95 96 87
f 96 88 87
f 96 89 88
f 96 90 89
f 96 97 90
f 97 91 90
f 97 92 91
f 97 93 92
f 93 77 92
f 98 94 93
f 98 95 94
f 98 99 95
f 99 96 95
f 99 97 96
f 99 93 97
f 99 98 93
